<?xml version="1.0" encoding="utf-8"?>
<!-- Generator: Adobe Illustrator 25.4.1, SVG Export Plug-In . SVG Version: 6.00 Build 0)  -->
<svg version="1.1" id="Layer_1" xmlns="http://www.w3.org/2000/svg" xmlns:xlink="http://www.w3.org/1999/xlink" x="0px" y="0px"
	 viewBox="0 0 80 80" style="enable-background:new 0 0 80 80;" xml:space="preserve">
<style type="text/css">
	.st0{clip-path:url(#SVGID_00000164506404503049080560000009930914768039428535_);fill:#F37367;}
	.st1{clip-path:url(#SVGID_00000076589157656455840270000016748039558897749655_);fill:#F37367;}
	.st2{clip-path:url(#SVGID_00000108282706365843601470000016832167125531703734_);fill:#F37367;}
	.st3{clip-path:url(#SVGID_00000014617322224604081470000000166967364521101193_);fill:#F37367;}
	.st4{clip-path:url(#SVGID_00000160888771636488420400000007283455058741581759_);fill:#F37367;}
	.st5{clip-path:url(#SVGID_00000137835457068299757490000018175480016531584145_);fill:#F37367;}
	.st6{clip-path:url(#SVGID_00000148642921096354641680000018339783112667766407_);fill:#F37367;}
	.st7{clip-path:url(#SVGID_00000046307508359156510220000004884865405720884658_);fill:#F37367;}
	.st8{clip-path:url(#SVGID_00000034054656004890439430000018035210488774330017_);fill:#F37367;}
	.st9{clip-path:url(#SVGID_00000004508788355763016880000016626524279222455956_);fill:#F37367;}
	.st10{clip-path:url(#SVGID_00000179645810392981796030000007559966689094159528_);fill:#F37367;}
	.st11{clip-path:url(#SVGID_00000047057305669104479080000012540250595421166726_);fill:#F37367;}
	.st12{clip-path:url(#SVGID_00000107565315357277508100000007287873561515931786_);fill:#F37367;}
	.st13{clip-path:url(#SVGID_00000147217646717249028710000002494248971391131033_);fill:#F37367;}
	.st14{clip-path:url(#SVGID_00000055686782806889318770000008219085791979293083_);fill:#F37367;}
	.st15{clip-path:url(#SVGID_00000128465317790027150690000010663725147263388090_);fill:#F37367;}
	.st16{clip-path:url(#SVGID_00000162336408310141590420000015772336159520964250_);fill:#F37367;}
</style>
<g>
	<defs>
		<rect id="SVGID_00000119840358085151641710000013767182485281817503_" x="9.4" y="11.5" width="61.3" height="57"/>
	</defs>
	<clipPath id="SVGID_00000077296804239360927400000012051161597543923076_">
		<use xlink:href="#SVGID_00000119840358085151641710000013767182485281817503_"  style="overflow:visible;"/>
	</clipPath>
	<path style="clip-path:url(#SVGID_00000077296804239360927400000012051161597543923076_);fill:#F37367;" d="M68.5,66.6
		c-0.3-0.7-0.5-1.3-0.8-1.9c-0.2-0.5-0.3-1.2-0.7-1.5c-0.4-0.3-1.1-0.1-1.7-0.1c-3.7,0-7.5,0-11.2,0c-0.2,0-0.5-0.1-0.6,0.2
		c-0.4,1.1-0.9,2.2-1.4,3.3H68.5z M60.2,61.2c2,0,4,0,6,0c0.4,0,0.5-0.1,0.5-0.5c0-2.1,0-4.1,0-6.2c0-0.5-0.1-0.6-0.6-0.6
		c-3.9,0-7.8,0-11.7,0c-0.4,0-0.6,0.1-0.6,0.6c0,2.1,0,4.1,0,6.2c0,0.4,0.1,0.5,0.5,0.5C56.4,61.2,58.3,61.2,60.2,61.2 M70.6,67.4
		c-0.4,0.8-1,1.1-1.9,1.1c-5.6,0-11.3,0-16.9,0c-1.6,0-2.3-0.9-1.6-2.4c1.4-2.7,2-5.6,1.7-8.6c-0.1-1.2,0-2.5,0-3.8
		c0-1.1,0.6-1.7,1.7-1.7c4.4,0,8.9,0,13.3,0c1.1,0,1.7,0.6,1.7,1.7c0,2.6,0,5.1,0,7.7c0,0.3,0.1,0.7,0.2,1c0.6,1.4,1.2,2.9,1.8,4.3
		V67.4z"/>
	<path style="clip-path:url(#SVGID_00000077296804239360927400000012051161597543923076_);fill:#F37367;" d="M48,36.7
		c0.1-0.1,0.2-0.2,0.3-0.3c0.6-0.6,1.2-1.2,1.8-1.8c0.3-0.3,0.2-0.4,0-0.7c-0.5-0.6-0.9-1.2-1.4-1.8c-0.4-0.5-0.5-1-0.2-1.5
		c0.2-0.4,0.4-0.9,0.6-1.3c0.2-0.7,0.6-0.9,1.2-1c0.7-0.1,1.5-0.2,2.2-0.3c0.4,0,0.5-0.2,0.5-0.6c0-0.8,0-1.6,0-2.4
		c0-0.3-0.1-0.5-0.5-0.5c-0.8-0.1-1.7-0.2-2.5-0.3c-0.5-0.1-0.8-0.3-0.9-0.8C49,23,48.7,22.5,48.5,22c-0.3-0.5-0.2-0.9,0.1-1.4
		c0.5-0.6,1-1.3,1.5-1.9c0.2-0.2,0.2-0.4,0-0.6c-0.6-0.6-1.2-1.2-1.8-1.8c-0.3-0.3-0.4-0.2-0.7,0c-0.6,0.5-1.3,1-1.9,1.5
		c-0.4,0.3-0.8,0.4-1.3,0.1c-0.5-0.3-1-0.5-1.6-0.7c-0.5-0.2-0.7-0.5-0.8-1c-0.1-0.8-0.2-1.7-0.3-2.5c0-0.3-0.1-0.4-0.4-0.4
		c-0.9,0-1.8,0-2.6,0c-0.3,0-0.4,0.1-0.4,0.4c-0.1,0.8-0.2,1.6-0.3,2.4c-0.1,0.6-0.3,0.9-0.9,1.1c-0.5,0.2-1,0.4-1.4,0.6
		c-0.5,0.3-1,0.2-1.4-0.2c-0.6-0.5-1.3-1-1.9-1.5c-0.2-0.2-0.4-0.2-0.5,0c-0.6,0.6-1.2,1.2-1.8,1.8c-0.3,0.3-0.3,0.5,0,0.7
		c0.5,0.6,1,1.3,1.5,1.9c0.3,0.4,0.4,0.8,0.1,1.3c-0.3,0.5-0.5,1-0.6,1.5c-0.1,0.5-0.5,0.8-1,0.8c-0.8,0.1-1.6,0.2-2.4,0.3
		c-0.4,0-0.5,0.2-0.5,0.5c0,0.8,0,1.6,0,2.4c0,0.4,0.2,0.5,0.5,0.6c0.8,0.1,1.6,0.2,2.4,0.3c0.5,0.1,0.8,0.3,1,0.8
		c0.2,0.5,0.4,1,0.6,1.5c0.2,0.5,0.2,0.9-0.1,1.3c-0.5,0.6-1,1.3-1.5,1.9c-0.2,0.3-0.2,0.4,0,0.6c0.6,0.6,1.2,1.2,1.8,1.8
		c0.2,0.3,0.4,0.2,0.6,0c0.6-0.5,1.3-1,1.9-1.5c0.4-0.3,0.9-0.4,1.3-0.1c0.5,0.3,1,0.5,1.5,0.6c0.5,0.2,0.8,0.5,0.8,1
		c0.1,0.8,0.2,1.6,0.3,2.4c0,0.3,0.2,0.4,0.5,0.4c0.8,0,1.6,0,2.5,0c0.4,0,0.5-0.1,0.5-0.5c0.1-0.8,0.2-1.5,0.3-2.3
		c0.1-0.6,0.3-0.9,0.9-1.1c0.5-0.2,1-0.4,1.5-0.6c0.5-0.2,0.9-0.2,1.4,0.2c0.6,0.5,1.3,1,1.9,1.5C47.8,36.6,47.9,36.7,48,36.7
		 M31.9,13.8c0.3,0,0.5,0.2,0.8,0.3c0.7,0.5,1.4,1,2.1,1.6c0.4,0.3,0.6,0.1,1,0c0.3-0.1,0.4-0.3,0.5-0.7c0.1-0.9,0.2-1.8,0.3-2.7
		c0.1-0.7,0.4-0.9,1.1-0.9c1.6,0,3.2,0,4.8,0c0.7,0,1,0.3,1.1,1c0.1,0.9,0.2,1.8,0.4,2.7c0.1,0.6,0.9,1,1.4,0.6
		c0.7-0.6,1.4-1.1,2.2-1.7c0.6-0.4,1-0.4,1.5,0.1c1.1,1.1,2.2,2.2,3.3,3.3c0.5,0.5,0.5,0.9,0.1,1.5c-0.6,0.7-1.1,1.4-1.7,2.2
		c-0.3,0.4,0,1.3,0.5,1.4c0.8,0.1,1.7,0.2,2.5,0.3c0.9,0.1,1.2,0.4,1.2,1.3c0,1.5,0,3,0,4.4c0,0.9-0.3,1.2-1.1,1.3
		c-0.8,0.1-1.7,0.2-2.5,0.3c-0.7,0.1-1,0.9-0.6,1.4c0.5,0.7,1.1,1.4,1.6,2.1c0.4,0.6,0.4,1-0.1,1.5c-1.1,1.1-2.2,2.2-3.3,3.3
		c-0.5,0.5-1,0.6-1.6,0.1c-0.7-0.5-1.4-1.1-2.1-1.6c-0.5-0.4-1.3,0-1.4,0.6c-0.1,0.9-0.2,1.8-0.3,2.7c-0.1,0.7-0.4,1-1.1,1
		c-1.6,0-3.1,0-4.7,0c-0.7,0-1-0.3-1.1-1c-0.1-0.9-0.2-1.8-0.3-2.7c-0.1-0.6-0.9-1-1.4-0.6c-0.7,0.5-1.4,1.1-2.1,1.6
		c-0.6,0.5-1,0.4-1.6-0.1c-1.1-1.1-2.2-2.2-3.3-3.3c-0.5-0.6-0.6-0.9-0.1-1.6c0.5-0.7,1.1-1.4,1.6-2.1c0.3-0.5,0-1.3-0.5-1.4
		c-0.8-0.1-1.7-0.2-2.6-0.3c-1-0.1-1.2-0.4-1.2-1.4c0-1.5,0-2.9,0-4.4c0-0.9,0.3-1.2,1.1-1.3c0.9-0.1,1.7-0.2,2.6-0.3
		c0.6-0.1,0.9-0.9,0.5-1.4c-0.6-0.7-1.1-1.4-1.7-2.2c-0.4-0.6-0.4-1,0.1-1.5c1.1-1.1,2.2-2.2,3.3-3.3C31.4,14,31.6,13.8,31.9,13.8"
		/>
	<path style="clip-path:url(#SVGID_00000077296804239360927400000012051161597543923076_);fill:#F37367;" d="M20.4,66.5
		c-0.6-0.6-0.9-1.2-0.9-2c0-0.4-0.4-0.2-0.7-0.2c-0.5-0.1-0.7,0.1-0.6,0.6c0.1,0.4-0.1,0.8-0.4,1.1c-0.1,0.2-0.3,0.3-0.3,0.6H20.4z
		 M18.9,62.4c2.4,0,4.7,0,7.1,0c0.5,0,0.6-0.1,0.6-0.6c0-2.5,0-4.9,0-7.4c0-0.4-0.1-0.6-0.6-0.6c-4.7,0-9.4,0-14.1,0
		c-0.5,0-0.6,0.1-0.6,0.6c0,2.5,0,4.9,0,7.4c0,0.4,0.1,0.6,0.6,0.6C14.2,62.4,16.5,62.4,18.9,62.4 M18.9,52c2.7,0,5.4,0,8.1,0
		c1.1,0,1.4,0.3,1.4,1.3c0,3.2,0,6.5,0,9.7c0,1-0.3,1.3-1.3,1.3c-1.7,0-3.4,0-5.1,0c-0.2,0-0.4-0.1-0.5,0.1c-0.1,0.2,0,0.4,0.1,0.6
		c0.5,0.6,0.9,1.2,1.4,1.8c0.3,0.3,0.4,0.7,0.2,1.1c-0.2,0.4-0.6,0.6-1,0.6c-2.2,0-4.3,0-6.5,0c-0.4,0-0.8-0.1-1-0.5
		c-0.2-0.4-0.1-0.8,0.2-1.1c0.4-0.6,0.9-1.2,1.3-1.8c0.2-0.2,0.3-0.4,0.2-0.7c-0.1-0.3-0.4-0.1-0.6-0.1c-1.7,0-3.4,0-5.1,0
		c-0.9,0-1.2-0.3-1.2-1.2c0-3.3,0-6.6,0-9.9c0-0.8,0.4-1.2,1.2-1.2C13.4,52,16.1,52,18.9,52"/>
	<path style="clip-path:url(#SVGID_00000077296804239360927400000012051161597543923076_);fill:#F37367;" d="M28.8,44.8
		c3.2,0,6.5,0,9.7,0c0.5,0,0.6-0.1,0.6-0.6c0-0.3,0-0.6,0-0.9c0-0.5,0.4-0.9,0.9-0.9c0.5,0,0.9,0.4,1,0.9c0,0.1,0,0.3,0,0.4
		c0,1,0,1,1.1,1c5.9,0,11.8,0,17.8,0c1.1,0,1.4,0.3,1.4,1.4c0,1.2,0,2.4,0,3.6c0,0.7-0.4,1.1-0.9,1.2c-0.6,0-1-0.4-1-1.2
		c0-0.8,0-1.7,0-2.5c0-0.5-0.2-0.5-0.6-0.5c-3.9,0-7.8,0-11.7,0c-1.9,0-3.7,0-5.6,0c-0.4,0-0.5,0.1-0.5,0.5c0,0.3,0,0.7,0,1
		c-0.1,0.5-0.5,0.9-1,0.9c-0.5,0-0.8-0.3-0.9-0.9c0-0.1,0-0.2,0-0.4c0-1.2,0-1.2-1.2-1.2c-5.8,0-11.6,0-17.3,0
		c-0.5,0-0.7,0.1-0.7,0.7c0,0.8,0,1.6,0,2.5c0,0.7-0.4,1.1-1,1.1c-0.6,0-0.9-0.4-0.9-1.1c0-1.3,0-2.6,0-3.9c0-0.8,0.3-1.1,1.1-1.1
		C22.3,44.8,25.5,44.8,28.8,44.8"/>
	<path style="clip-path:url(#SVGID_00000077296804239360927400000012051161597543923076_);fill:#F37367;" d="M35.8,59.2
		c0,2.3,0,4.5,0,6.8c0,0.5,0.1,0.6,0.6,0.6c2.1,0,4.2,0,6.3,0c0.4,0,0.5-0.1,0.5-0.5c0-4.6,0-9.1,0-13.7c0-0.4-0.1-0.5-0.5-0.5
		c-2.1,0-4.2,0-6.3,0c-0.4,0-0.6,0.1-0.6,0.6C35.8,54.7,35.8,56.9,35.8,59.2 M45.2,59.2c0,2.4,0,4.8,0,7.2c0,1.3-0.7,2.1-2.1,2.1
		c-2.4,0-4.7,0-7.1,0c-1.3,0-2.1-0.7-2.1-2.1c0-4.8,0-9.6,0-14.4c0-1.3,0.7-2.1,2.1-2.1c2.4,0,4.8,0,7.2,0c1.3,0,2,0.7,2,2
		C45.2,54.4,45.2,56.8,45.2,59.2"/>
	<path style="clip-path:url(#SVGID_00000077296804239360927400000012051161597543923076_);fill:#F37367;" d="M40,31.5
		c2.8,0,5.1-2.3,5.1-5.1c0-2.8-2.3-5.1-5.1-5.1c-2.8,0-5.1,2.3-5.1,5.1C34.9,29.2,37.2,31.5,40,31.5 M40,19.4c3.9,0,7,3.1,7,7
		c0,3.9-3.2,7-7.1,7c-3.8,0-7-3.2-7-7C33,22.5,36.1,19.4,40,19.4"/>
	<path style="clip-path:url(#SVGID_00000077296804239360927400000012051161597543923076_);fill:#F37367;" d="M41.2,64.4
		c0,0.9-0.7,1.7-1.6,1.7c-0.9,0-1.7-0.7-1.7-1.6c0-0.9,0.8-1.7,1.7-1.7C40.4,62.7,41.2,63.5,41.2,64.4"/>
</g>
</svg>
