<?xml version="1.0" encoding="utf-8"?>
<!-- Generator: Adobe Illustrator 25.4.1, SVG Export Plug-In . SVG Version: 6.00 Build 0)  -->
<svg version="1.1" id="Layer_1" xmlns="http://www.w3.org/2000/svg" xmlns:xlink="http://www.w3.org/1999/xlink" x="0px" y="0px"
	 viewBox="0 0 80 80" style="enable-background:new 0 0 80 80;" xml:space="preserve">
<style type="text/css">
	.st0{clip-path:url(#SVGID_00000053529117157229063360000009327208873848822667_);fill:#F37367;}
	.st1{clip-path:url(#SVGID_00000053510757177741398010000005366291574186923917_);fill:#F37367;}
	.st2{clip-path:url(#SVGID_00000087388884691404773770000011646173331595675012_);fill:#F37367;}
	.st3{clip-path:url(#SVGID_00000025428814540201940900000012869508123923461261_);fill:#F37367;}
	.st4{clip-path:url(#SVGID_00000075149422400354430050000002656972316732859034_);fill:#F37367;}
	.st5{clip-path:url(#SVGID_00000049195013156506398440000011306440015991080099_);fill:#F37367;}
	.st6{clip-path:url(#SVGID_00000108274072659123659860000017967870373736490665_);fill:#F37367;}
	.st7{clip-path:url(#SVGID_00000083066749080503069420000004347517678029302712_);fill:#F37367;}
	.st8{clip-path:url(#SVGID_00000171719978751414979930000017977702000163763119_);fill:#F37367;}
	.st9{clip-path:url(#SVGID_00000017485537902005068310000006498963277186816410_);fill:#F37367;}
	.st10{clip-path:url(#SVGID_00000033365272746714740010000016161207871990485153_);fill:#F37367;}
	.st11{clip-path:url(#SVGID_00000057135566505663711130000015553176786924047751_);fill:#F37367;}
	.st12{clip-path:url(#SVGID_00000104666164148362207920000006417328173865700763_);fill:#F37367;}
	.st13{clip-path:url(#SVGID_00000071558138355205441710000006253515837544385715_);fill:#F37367;}
	.st14{clip-path:url(#SVGID_00000149366556539066033620000000195595907256048299_);fill:#F37367;}
	.st15{clip-path:url(#SVGID_00000152229855225427633770000016201104056948529799_);fill:#F37367;}
	.st16{clip-path:url(#SVGID_00000058580569930016388520000009179087964061510306_);fill:#F37367;}
</style>
<g>
	<defs>
		<rect id="SVGID_00000037688886621391393180000000374718224210074776_" x="11.5" y="11.5" width="57" height="57"/>
	</defs>
	<clipPath id="SVGID_00000110454121342072441440000009093361757898527372_">
		<use xlink:href="#SVGID_00000037688886621391393180000000374718224210074776_"  style="overflow:visible;"/>
	</clipPath>
	<path style="clip-path:url(#SVGID_00000110454121342072441440000009093361757898527372_);fill:#F37367;" d="M56.3,64.2
		c0,0,0.1,0.1,0.1,0.1c0.5-0.5,1-1,1.5-1.6c1.8-2,2.2-4.2,1.1-6.7c-0.5-1.2-1.1-2.4-1.7-3.6c-0.1-0.1-0.1-0.3-0.3-0.4
		C56.8,56.1,56.5,60.1,56.3,64.2 M15.8,52.1c0,0-0.1,0-0.1,0c-0.6,1.3-1.2,2.5-1.8,3.8c-1.6,3.6,0.1,6.3,2.7,8.4
		C16.3,60.1,16.1,56.1,15.8,52.1 M41.3,31.1c0.9,0,1.6,0,2.2,0c0.3,0,0.4,0,0.4-0.4c0-0.6,0.1-1.2,0.2-1.7c0.1-0.5-0.1-0.6-0.5-0.7
		c-4.6-1-9.3-1.1-14-0.1c-1.1,0.2-1.1,0.2-0.9,1.3c0.1,0.5-0.1,1.2,0.3,1.5c0.3,0.2,1,0,1.5,0.1c2,0.2,3.7-0.2,5.2-1.5
		c0,0,0.1,0,0.1-0.1c0.4-0.2,0.7-0.2,1.1,0c0.2,0.1,0.4,0.2,0.6,0.4C38.7,30.9,40,31.4,41.3,31.1 M53.2,43.5h12.9
		c-2.2-3.8-4.3-7.6-6.5-11.5C57.4,35.9,55.3,39.7,53.2,43.5 M41.8,40c2.5,0,4.9,0,7.2,0c0.2,0,0.3-0.1,0.4-0.3c1-1.7,1.9-3.3,2.9-5
		c0.1-0.2,0.2-0.4,0.1-0.7c-0.3-1-0.9-1.7-1.6-2.4c-1.3-1.2-2.8-1.9-4.4-2.5c-0.3-0.1-0.4-0.1-0.5,0.3c-0.2,1.7-0.4,3.5-0.7,5.2
		C44.8,36.8,43.6,38.5,41.8,40 M31,40c-2.2-2.1-3.2-3.8-3.5-6c-0.2-1.5-0.4-3-0.6-4.5c0-0.2,0-0.5-0.4-0.3c-1.8,0.7-3.6,1.5-5,2.9
		c-0.5,0.6-0.9,1.2-1.1,1.9c-0.1,0.3-0.1,0.5,0.1,0.7c1,1.7,1.9,3.3,2.8,5C23.6,40,23.7,40,24,40c2.2,0,4.4,0,6.6,0
		C30.7,40,30.8,40,31,40 M31.6,32.9H30c-0.8,0-0.8,0-0.7,0.8c0.4,3.6,3.5,6.3,7.2,6.3c3.8,0,7-3.1,7.2-6.8c0-0.3-0.1-0.3-0.3-0.3
		c-0.7,0-1.4-0.1-2.1,0c-1.6,0.2-3.1-0.2-4.3-1.3c-0.3-0.3-0.6-0.3-0.9,0C34.7,32.6,33.3,33.2,31.6,32.9 M21,30.1
		c1.7-1.3,3.6-2.2,5.6-2.9c5.6-1.7,11.2-1.9,16.9-0.7c2.7,0.6,5.3,1.5,7.5,3.1c0.2,0.2,0.5,0.4,0.8,0.6c-0.1-0.3-0.1-0.5-0.2-0.6
		c-1.1-4.2-3-8-5.6-11.5c-4.5-5.9-13.3-6.5-18.4-1.1C24.3,20.7,22.3,25.2,21,30.1 M52.1,41.8c-0.2,0-0.3,0-0.5,0
		c-11.2,0-22.4,0-33.6,0c-0.8,0-1.1,0.4-1.1,1.2c0.2,2.9,0.4,5.8,0.6,8.7c0.3,4.8,0.7,9.6,1,14.4c0,0.5,0.2,0.7,0.7,0.7
		c11.4,0,22.9,0,34.3,0c0.8,0,0.8,0,0.9-0.8c0.2-3.7,0.5-7.3,0.7-11c0.2-3,0.4-6,0.6-9c0-0.4-0.1-0.5-0.5-0.5c-1.1,0-2.2,0-3.2,0
		c-1.2,0-1.5-0.6-0.9-1.7C51.4,43.1,51.7,42.5,52.1,41.8 M68.5,44.1v0.7c-0.3,0.4-0.7,0.6-1.3,0.6c-2.8,0-5.6,0-8.5,0
		c-1.2,0-1.2,0-1.3,1.2c0,0.3,0,0.6-0.1,0.8c-0.1,0.6,0.1,1,0.3,1.5c1,2,1.9,4.1,2.9,6.1c1.5,3.2,0.9,6.6-1.6,9.1
		c-0.9,0.9-1.8,1.8-2.6,2.6c-0.2,0.2-0.3,0.4-0.3,0.6c-0.1,0.9-0.3,1.1-1.2,1.1c-1.9,0-3.9,0-5.8,0c-10.3,0-20.6,0-30.9,0
		c-0.9,0-1.2-0.2-1.2-1.1c0-0.3-0.1-0.4-0.3-0.6c-0.9-0.9-1.7-1.7-2.6-2.6c-2.5-2.5-3.1-6-1.6-9.2c1-2.1,2-4.3,3-6.4
		c0.1-0.3,0.2-0.6,0.2-0.9c-0.1-1.6-0.2-3.2-0.3-4.8c-0.1-1.7,1.1-2.9,2.7-2.9c1,0,2.1,0,3.1,0c0.1,0,0.3,0.1,0.4-0.1
		c-0.9-1.5-1.7-3-2.6-4.5c-0.2-0.3-0.3-0.6-0.3-1c0.1-1.6,0.3-3.1,0.6-4.6c1-4.4,3-8.3,5.6-12c1.8-2.7,4.3-4.5,7.4-5.6
		c1-0.3,2.1-0.5,3.1-0.7h2.2c0.1,0,0.2,0.1,0.4,0.1c3,0.3,5.7,1.5,8,3.6c1.6,1.5,2.7,3.3,3.8,5.1c2.5,4.2,4.2,8.6,4.5,13.6
		c0,0.6,0,1.2-0.4,1.7c-0.8,1.3-1.5,2.6-2.2,3.9c-0.1,0.2-0.2,0.3-0.2,0.5c0.4,0,0.7,0,1.1,0c0.4,0,0.7-0.1,0.9-0.5c1.7-3,3.3-6,5-9
		c0.2-0.3,0.3-0.6,0.5-0.8c0.4-0.5,1-0.5,1.4,0c0.1,0.2,0.2,0.3,0.3,0.5c2.4,4.2,4.7,8.4,7.1,12.6C68,43.3,68.2,43.7,68.5,44.1"/>
	<path style="clip-path:url(#SVGID_00000110454121342072441440000009093361757898527372_);fill:#F37367;" d="M36.4,50.7
		c-2,0-3.6,1.6-3.6,3.6c0,2,1.6,3.6,3.6,3.6c1.9,0,3.5-1.6,3.5-3.5C40,52.3,38.4,50.7,36.4,50.7 M36.4,48.9c2.9,0,5.4,2.4,5.4,5.3
		c0,2.9-2.4,5.4-5.3,5.4c-2.9,0-5.4-2.4-5.4-5.3C31.1,51.3,33.5,48.9,36.4,48.9"/>
	<path style="clip-path:url(#SVGID_00000110454121342072441440000009093361757898527372_);fill:#F37367;" d="M58.7,36.4
		c0-0.6,0-1.1,0-1.7c0-0.6,0.4-0.9,0.9-0.9c0.5,0,0.9,0.4,0.9,0.9c0,1.2,0,2.3,0,3.5c0,0.6-0.4,0.9-0.9,0.9c-0.5,0-0.9-0.4-0.9-0.9
		C58.7,37.6,58.7,37,58.7,36.4"/>
	<path style="clip-path:url(#SVGID_00000110454121342072441440000009093361757898527372_);fill:#F37367;" d="M60.5,41.8
		c0,0.5-0.4,0.9-0.9,0.9c-0.5,0-0.9-0.4-0.9-0.9c0-0.5,0.4-0.9,0.9-0.9C60.1,40.9,60.5,41.3,60.5,41.8"/>
	<path style="clip-path:url(#SVGID_00000110454121342072441440000009093361757898527372_);fill:#F37367;" d="M32.4,30.2
		c-0.2,0-0.3,0-0.5,0c-0.5-0.1-0.8-0.4-0.8-0.9c0-0.5,0.3-0.9,0.8-0.9c0.3,0,0.6,0,0.9,0c0.6,0,1,0.4,1,0.9c0,0.5-0.4,0.9-1,0.9
		C32.7,30.2,32.5,30.2,32.4,30.2L32.4,30.2z"/>
	<path style="clip-path:url(#SVGID_00000110454121342072441440000009093361757898527372_);fill:#F37367;" d="M40.4,30.2
		c-0.2,0-0.3,0-0.5,0c-0.5-0.1-0.8-0.4-0.8-0.9c0-0.5,0.3-0.9,0.8-0.9c0.3,0,0.6,0,0.9,0c0.6,0,1,0.4,1,0.9c0,0.5-0.4,0.9-1,0.9
		C40.7,30.2,40.5,30.2,40.4,30.2L40.4,30.2z"/>
</g>
</svg>
