<?xml version="1.0" encoding="utf-8"?>
<!-- Generator: Adobe Illustrator 25.4.1, SVG Export Plug-In . SVG Version: 6.00 Build 0)  -->
<svg version="1.1" id="Layer_1" xmlns="http://www.w3.org/2000/svg" xmlns:xlink="http://www.w3.org/1999/xlink" x="0px" y="0px"
	 viewBox="0 0 80 80" style="enable-background:new 0 0 80 80;" xml:space="preserve">
<style type="text/css">
	.st0{clip-path:url(#SVGID_00000044136657766492559490000017578886435829831592_);fill:#F37367;}
	.st1{clip-path:url(#SVGID_00000010306399616471456970000017836833966764623295_);fill:#F37367;}
	.st2{clip-path:url(#SVGID_00000087394566703741678040000006817362929664298661_);fill:#F37367;}
	.st3{clip-path:url(#SVGID_00000029012835362732312740000015401287434825448837_);fill:#F37367;}
	.st4{clip-path:url(#SVGID_00000106842992519506924850000018117193314507246722_);fill:#F37367;}
	.st5{clip-path:url(#SVGID_00000042730142985202044790000001197676681614861207_);fill:#F37367;}
	.st6{clip-path:url(#SVGID_00000078729052602529482680000004333358106319080126_);fill:#F37367;}
	.st7{clip-path:url(#SVGID_00000073695954083361414610000017073824010317375927_);fill:#F37367;}
	.st8{clip-path:url(#SVGID_00000142886853475859298900000015385769372972798652_);fill:#F37367;}
	.st9{clip-path:url(#SVGID_00000131342385062400172460000003126294439673232513_);fill:#F37367;}
	.st10{clip-path:url(#SVGID_00000062162542432448847820000003350033073119249075_);fill:#F37367;}
	.st11{clip-path:url(#SVGID_00000182528402319760394870000005456105112312335805_);fill:#F37367;}
	.st12{clip-path:url(#SVGID_00000177445777851153942450000004760512674600334778_);fill:#F37367;}
	.st13{clip-path:url(#SVGID_00000174581243681613162060000003627346377337334938_);fill:#F37367;}
	.st14{clip-path:url(#SVGID_00000042713130571233616540000010451355544532594344_);fill:#F37367;}
	.st15{clip-path:url(#SVGID_00000078737172027531513340000002867100632822818979_);fill:#F37367;}
	.st16{clip-path:url(#SVGID_00000172402519209258513780000005453673995171144336_);fill:#F37367;}
</style>
<g>
	<defs>
		<rect id="SVGID_00000065764253632098275190000001021207646004431787_" x="6" y="11.5" width="68" height="57"/>
	</defs>
	<clipPath id="SVGID_00000074414654234875506440000017034229139999481526_">
		<use xlink:href="#SVGID_00000065764253632098275190000001021207646004431787_"  style="overflow:visible;"/>
	</clipPath>
	<path style="clip-path:url(#SVGID_00000074414654234875506440000017034229139999481526_);fill:#F37367;" d="M33.4,59.8
		c0.5,0.7,1,1.3,1.4,1.9c0.2,0.2,0.4,0.3,0.7,0.3c3,0,6,0,9,0c0.2,0,0.4,0,0.6-0.2c0.5-0.6,1-1.3,1.5-2H33.4z M12.6,40.3v15.9
		c0,1.3,0,1.3,1.3,1.3c0.9,0,0.9,0,0.9-0.9c0-10.2,0-20.3,0-30.5c0-1.2,0.3-1.5,1.5-1.5c1.2,0,2.4,0,3.6,0c1.4,0,1.4,0,1.4-1.4
		c0-0.1,0-0.2,0-0.3c0.1-0.5-0.1-0.6-0.6-0.6c-2.2,0-4.4,0-6.6,0c-1.3,0-1.6,0.3-1.6,1.6C12.6,29.5,12.6,34.9,12.6,40.3 M67.4,40.3
		c0-5.4,0-10.9,0-16.3c0-1.3-0.3-1.6-1.6-1.6c-6.3,0-12.6,0-18.8,0c-0.5,0-1.1-0.2-1.4,0.1c-0.2,0.3,0,0.9-0.1,1.4
		c-0.1,0.6,0.1,0.7,0.7,0.7c5.8,0,11.6,0,17.5,0c1.3,0,1.6,0.3,1.6,1.6c0,9.9,0,19.9,0,29.8c0,1.5,0,1.4,1.5,1.5
		c0.6,0,0.7-0.1,0.7-0.7C67.4,51.3,67.4,45.8,67.4,40.3 M43.3,23.6c0-5.4-4.4-9.9-9.8-9.9c-5.5,0-9.9,4.4-9.9,9.8
		c0,5.4,4.4,9.9,9.8,9.9C38.8,33.4,43.3,29,43.3,23.6 M40,66.3c9.5,0,18.9,0,28.4,0c2.1,0,3.4-1.4,3.5-3.4c0-0.6,0-1.2,0-1.8
		c0-0.9-0.4-1.3-1.3-1.3c-6.9,0-13.8,0-20.7,0c-0.4,0-0.6,0.1-0.8,0.4c-0.8,1.1-1.7,2.2-2.5,3.3c-0.4,0.5-0.8,0.7-1.4,0.7
		c-3.4,0-6.9,0-10.3,0c-0.6,0-1-0.2-1.4-0.7c-0.8-1.1-1.6-2.1-2.4-3.2c-0.3-0.4-0.6-0.5-1-0.5c-4,0-8.1,0-12.1,0c-2.8,0-5.6,0-8.4,0
		c-1,0-1.4,0.4-1.4,1.4c0,0.5,0,1,0,1.4c0,2.5,1.3,3.8,3.7,3.8C21.3,66.3,30.6,66.3,40,66.3 M40,57.5c7.4,0,14.9,0,22.3,0
		c0.6,0,0.7-0.2,0.7-0.8c0-9.7,0-19.5,0-29.2c0-0.6-0.1-0.7-0.7-0.7c-5.5,0-11.1,0-16.6,0c-0.5,0-0.7,0.2-0.9,0.7
		c-1.6,4.7-6.1,8.1-11.1,8.1c-5.3,0.1-9.9-3.1-11.7-8.3c-0.1-0.4-0.3-0.5-0.7-0.5c-1.2,0-2.4,0-3.6,0c-0.6,0-0.7,0.2-0.7,0.7
		c0,9.7,0,19.5,0,29.2c0,0.6,0.1,0.8,0.7,0.7C25.1,57.5,32.5,57.5,40,57.5 M40,68.5c-9.3,0-18.7,0-28,0c-3.7,0-5.9-2.3-5.9-5.9
		c0-0.6,0-1.1,0-1.7c0-1.9,1.4-3.3,3.3-3.3c0.1,0,0.2,0,0.3,0c0.6,0.1,0.8-0.1,0.8-0.7c0-10.9,0-21.9,0-32.8c0-2.4,1.3-3.7,3.7-3.7
		c2.4,0,4.7,0,7.1,0c0.5,0,0.7-0.1,0.9-0.6c1.6-4.9,6.2-8.2,11.4-8.2c5.1,0,9.7,3.3,11.4,8.2c0.2,0.5,0.4,0.6,0.9,0.6
		c6.7,0,13.5,0,20.2,0c2.4,0,3.7,1.3,3.7,3.7c0,10.9,0,21.8,0,32.7c0,0.6,0.1,0.9,0.8,0.8c2.3,0,3.6,1.3,3.6,3.6
		c0,0.8,0.1,1.7-0.1,2.5c-0.4,2.9-2.7,4.8-5.6,4.8C58.9,68.5,49.4,68.5,40,68.5"/>
	<path style="clip-path:url(#SVGID_00000074414654234875506440000017034229139999481526_);fill:#F37367;" d="M54.2,44.4
		c-1.3,0-2.6,0-3.8,0c-0.4,0-0.6,0-0.6,0.5c0,2.6,0,5.2,0,7.8c0,0.3,0.1,0.5,0.5,0.5c2.6,0,5.2,0,7.9,0c0.4,0,0.5-0.1,0.5-0.5
		c0-2.6,0-5.2,0-7.8c0-0.5-0.2-0.5-0.6-0.5C56.8,44.4,55.5,44.4,54.2,44.4 M60.8,48.8c0,1.4,0,2.8,0,4.2c0,1.4-0.9,2.3-2.3,2.3
		c-2.9,0-5.7,0-8.6,0c-1.4,0-2.3-0.9-2.3-2.3c0-2.9,0-5.7,0-8.6c0-1.4,0.9-2.3,2.3-2.3c1.9,0,3.9,0,5.8,0c0.5,0,0.7-0.2,0.6-0.7
		c0-0.5,0-1.1,0-1.6c-0.1-1.2-1-2.1-2.2-2.1c-1.2,0-2.1,0.9-2.2,2.1c-0.1,1.2-0.1,1.2-1.2,1.2c-1,0-1,0-1-1c0-2.5,1.9-4.5,4.4-4.5
		c2.5,0,4.4,1.9,4.4,4.5c0,0.6,0,1.1,0,1.7c0,0.3,0.1,0.4,0.4,0.4c1.3,0.3,1.8,1.1,1.8,2.4C60.8,46,60.8,47.4,60.8,48.8"/>
	<path style="clip-path:url(#SVGID_00000074414654234875506440000017034229139999481526_);fill:#F37367;" d="M27.9,42.2
		c-2.7,0-5.4,0-8.1,0c-0.5,0-0.6-0.1-0.6-0.6c0-1.6,0-1.6,1.6-1.6c5.1,0,10.2,0,15.3,0c0.5,0,0.7,0.1,0.7,0.7c0,1.5,0,1.5-1.5,1.5
		H27.9z"/>
	<path style="clip-path:url(#SVGID_00000074414654234875506440000017034229139999481526_);fill:#F37367;" d="M27.9,46.6
		c-2.7,0-5.4,0-8.1,0c-0.5,0-0.6-0.1-0.6-0.6c0-1.6,0-1.6,1.6-1.6c5.1,0,10.2,0,15.3,0c0.6,0,0.7,0.1,0.7,0.7c0,1.5,0,1.5-1.5,1.5
		C32.8,46.6,30.3,46.6,27.9,46.6"/>
	<path style="clip-path:url(#SVGID_00000074414654234875506440000017034229139999481526_);fill:#F37367;" d="M28,48.8
		c2.7,0,5.4,0,8.1,0c0.5,0,0.6,0.2,0.6,0.7c0,1.6,0,1.6-1.6,1.6c-5.1,0-10.2,0-15.3,0c-0.5,0-0.8-0.1-0.7-0.7c0-1.5,0-1.5,1.5-1.5
		H28z"/>
	<path style="clip-path:url(#SVGID_00000074414654234875506440000017034229139999481526_);fill:#F37367;" d="M28,53.2
		c2.7,0,5.4,0,8.1,0c0.5,0,0.6,0.1,0.6,0.6c0,1.6,0,1.6-1.6,1.6c-5.1,0-10.2,0-15.3,0c-0.6,0-0.7-0.1-0.7-0.7c0-1.5,0-1.5,1.5-1.5
		C23.1,53.2,25.5,53.2,28,53.2"/>
	<path style="clip-path:url(#SVGID_00000074414654234875506440000017034229139999481526_);fill:#F37367;" d="M38.9,41c0-1,0-1,1-1
		c1.2,0,1.2,0,1.2,1.1c0,0.2,0,0.3,0,0.5c0.1,0.5-0.1,0.7-0.6,0.6c-0.1,0-0.3,0-0.4,0C38.9,42.2,38.9,42.2,38.9,41"/>
	<path style="clip-path:url(#SVGID_00000074414654234875506440000017034229139999481526_);fill:#F37367;" d="M40.1,44.4c1,0,1,0,1,1
		c0,1.2,0,1.2-1.1,1.2c-0.2,0-0.3,0-0.5,0c-0.5,0.1-0.7-0.1-0.6-0.6c0-0.1,0-0.3,0-0.4C38.9,44.4,38.9,44.4,40.1,44.4"/>
	<path style="clip-path:url(#SVGID_00000074414654234875506440000017034229139999481526_);fill:#F37367;" d="M40.1,48.8c1,0,1,0,1,1
		c0,1.2,0,1.2-1.2,1.2c-0.1,0-0.3,0-0.4,0c-0.5,0.1-0.7-0.1-0.6-0.6c0-0.2,0-0.3,0-0.5C38.9,48.8,38.9,48.8,40.1,48.8"/>
	<path style="clip-path:url(#SVGID_00000074414654234875506440000017034229139999481526_);fill:#F37367;" d="M40,53.2
		c1.1,0,1.1,0,1.1,1.3c0,0.9,0,0.9-1.4,0.9c-0.8,0-0.8,0-0.8-1.4C38.9,53.2,38.9,53.2,40,53.2"/>
	<path style="clip-path:url(#SVGID_00000074414654234875506440000017034229139999481526_);fill:#F37367;" d="M33.4,24.7
		c0.3-0.3,0.3-0.6,0.3-0.9c0.3-1.8,0.5-3.7,0.8-5.5c0.1-0.5,0.1-1-0.4-1.3c-0.4-0.2-0.8-0.2-1.2,0c-0.5,0.3-0.5,0.8-0.4,1.3
		c0.2,1.2,0.3,2.4,0.5,3.6C33,22.8,33,23.8,33.4,24.7 M36.7,18.2c-0.2,1.6-0.5,3.4-0.7,5.2c-0.1,0.5-0.1,1-0.2,1.4
		c-0.2,1.2-1.2,2-2.3,2c-1.2,0-2.1-0.8-2.3-2c-0.3-2.1-0.6-4.3-0.9-6.4c-0.2-1.9,1.1-3.5,3-3.6C35.2,14.7,36.7,16.1,36.7,18.2"/>
	<path style="clip-path:url(#SVGID_00000074414654234875506440000017034229139999481526_);fill:#F37367;" d="M35.6,30.1
		c0,1.2-1,2.2-2.2,2.2c-1.2,0-2.2-1-2.2-2.2c0-1.2,1-2.2,2.2-2.2C34.6,27.9,35.6,28.9,35.6,30.1"/>
	<path style="clip-path:url(#SVGID_00000074414654234875506440000017034229139999481526_);fill:#F37367;" d="M54.2,46.6
		c0.1,0,0.2,0,0.3,0c0.7-0.1,0.9,0.2,0.8,0.8c-0.1,0.4,0.1,0.6,0.4,0.9c0.9,0.9,0.9,2.2,0.1,3.1c-0.9,0.9-2.3,0.9-3.1,0
		c-0.9-0.9-0.9-2.3,0.1-3.1c0.3-0.3,0.4-0.6,0.4-0.9c-0.1-0.6,0.1-0.9,0.8-0.8C54,46.6,54.1,46.6,54.2,46.6"/>
</g>
</svg>
