<?xml version="1.0" encoding="utf-8"?>
<!-- Generator: Adobe Illustrator 25.4.1, SVG Export Plug-In . SVG Version: 6.00 Build 0)  -->
<svg version="1.1" id="Layer_1" xmlns="http://www.w3.org/2000/svg" xmlns:xlink="http://www.w3.org/1999/xlink" x="0px" y="0px"
	 viewBox="0 0 80 80" style="enable-background:new 0 0 80 80;" xml:space="preserve">
<style type="text/css">
	.st0{clip-path:url(#SVGID_00000134233039829855652780000009879968487392741296_);fill:#F37367;}
	.st1{clip-path:url(#SVGID_00000023276742938281326790000004268509589392548270_);fill:#F37367;}
	.st2{clip-path:url(#SVGID_00000103251447902330322860000015142792208026230711_);fill:#F37367;}
	.st3{clip-path:url(#SVGID_00000096745328696555853310000003832657815979744905_);fill:#F37367;}
	.st4{clip-path:url(#SVGID_00000124151303751856482940000009686565303800193411_);fill:#F37367;}
	.st5{clip-path:url(#SVGID_00000170973764170356236900000008600197357411516595_);fill:#F37367;}
	.st6{clip-path:url(#SVGID_00000111193694894287735730000017543383585398505885_);fill:#F37367;}
	.st7{clip-path:url(#SVGID_00000158722728689226291530000013701774669941228722_);fill:#F37367;}
	.st8{clip-path:url(#SVGID_00000039818482966996323570000010097348957656691086_);fill:#F37367;}
	.st9{clip-path:url(#SVGID_00000070092504820637024530000000816538388669080254_);fill:#F37367;}
	.st10{clip-path:url(#SVGID_00000178896120292868899940000005402798996989023918_);fill:#F37367;}
	.st11{clip-path:url(#SVGID_00000127004903479525692670000015761954372693549201_);fill:#F37367;}
	.st12{clip-path:url(#SVGID_00000172439399642427561430000013623992306538049703_);fill:#F37367;}
	.st13{clip-path:url(#SVGID_00000108990369777254017880000014759264098682931390_);fill:#F37367;}
	.st14{clip-path:url(#SVGID_00000154397080901496969510000013655915398207895230_);fill:#F37367;}
	.st15{clip-path:url(#SVGID_00000129175743297167701520000005548080613978677673_);fill:#F37367;}
	.st16{clip-path:url(#SVGID_00000147216331828205339170000012677045582628261015_);fill:#F37367;}
</style>
<g>
	<defs>
		<rect id="SVGID_00000102521572928242444270000001040283598647289739_" x="11.5" y="11.5" width="57" height="57"/>
	</defs>
	<clipPath id="SVGID_00000090262717276172623180000008266889483421577373_">
		<use xlink:href="#SVGID_00000102521572928242444270000001040283598647289739_"  style="overflow:visible;"/>
	</clipPath>
	<path style="clip-path:url(#SVGID_00000090262717276172623180000008266889483421577373_);fill:#F37367;" d="M55.2,45.7
		c2.7,0,5.3,0,8,0c0.5,0,0.6-0.2,0.6-0.7c0-1.3,0-2.6,0-3.9c0-0.7,0-1.4-0.2-2c-1-4.3-5-7.1-9.3-6.6c-4.3,0.5-7.5,4.1-7.6,8.5
		c0,1.4,0,2.8,0,4.2c0,0.5,0.2,0.5,0.6,0.5C49.9,45.7,52.5,45.7,55.2,45.7 M37.1,19.1H60c0.1,0,0.3,0,0.4,0c0.3,0,0.5-0.1,0.4-0.4
		c0-0.7,0-1.3,0-2c0-2.1-1.1-3.3-3.3-3.3c-10.3,0-20.5,0-30.8,0c-3.5,0-7,0-10.5,0c-1.8,0-3,1.2-3,3c0,0.6,0,1.3,0,1.9
		c0,0.9-0.1,0.8,0.8,0.8C21.8,19.1,29.5,19.1,37.1,19.1 M66.5,62.8c-0.9,0-1.8,0-2.6,0c-0.6,0-1-0.4-1-1c0-0.6,0.4-0.9,1-0.9
		c0.4,0,0.9,0,1.3,0c1.5,0,1.5,0,1.5-1.5c0-0.4-0.1-0.4-0.5-0.4c-0.8,0-1.6,0-2.4,0c-0.6,0-1-0.4-0.9-1c0-0.5,0.4-0.9,1-0.9
		c0.5,0,0.9,0,1.4,0c1.5,0,1.5,0,1.4-1.5c0-0.3-0.1-0.4-0.4-0.4c-0.8,0-1.6,0-2.4,0c-0.6,0-1-0.4-1-1c0-0.5,0.4-0.9,1-0.9
		c0.5,0,0.9,0,1.4,0c1.5,0,1.4,0,1.4-1.5c0-0.4-0.2-0.5-0.5-0.5c-0.8,0-1.5,0-2.3,0c-0.6,0-1-0.4-1-0.9c0-0.6,0.4-0.9,1-1
		c0.5,0,0.9,0,1.4,0c1.4,0,1.4,0,1.4-1.5c0-0.3-0.1-0.4-0.4-0.4c-7.3,0-14.6,0-21.9,0c-0.3,0-0.5,0.1-0.5,0.4c0,0.4,0,0.7,0,1.1
		c0,0.4,0.1,0.4,0.5,0.4c0.8,0,1.6,0,2.4,0c0.6,0,1,0.4,1,1c0,0.5-0.4,0.9-1,0.9c-0.5,0-1,0-1.4,0c-1.4,0-1.4,0-1.4,1.4
		c0,0.4,0.1,0.5,0.5,0.5c0.8,0,1.6,0,2.3,0c0.6,0,1,0.4,1,0.9c0,0.6-0.4,0.9-1,1c-0.5,0-0.9,0-1.4,0c-1.5,0-1.4,0-1.4,1.5
		c0,0.3,0.1,0.5,0.4,0.4c0.8,0,1.6,0,2.3,0c0.6,0,1,0.4,1,0.9c0,0.6-0.4,0.9-1,1c-0.5,0-0.9,0-1.4,0c-1.4,0-1.4,0-1.4,1.4
		c0,0.4,0.1,0.5,0.5,0.5c0.8,0,1.5,0,2.3,0c0.4,0,0.8,0.2,0.9,0.6c0.3,0.6-0.2,1.3-0.9,1.3c-0.9,0-1.7,0-2.6,0
		c0.3,2,2.3,3.8,4.4,3.8c4.5,0,9.1,0,13.6,0C64.2,66.6,66,65,66.5,62.8 M60.9,32.2v-0.6c0-3.4,0-6.7,0-10.1c0-0.5-0.1-0.6-0.6-0.6
		c-15.5,0-30.9,0-46.4,0c-0.5,0-0.6,0.1-0.6,0.6c0,10.8,0,21.6,0,32.4c0,1.9,1.2,3.1,3.1,3.1c8.3,0,16.6,0,24.9,0
		c0.5,0,0.5-0.1,0.5-0.6c0-2.9,0-5.8,0-8.7c0-1.4,0.8-2.2,2.2-2.2c0.7,0,0.7,0,0.7-0.7c0-1.9-0.1-3.8,0.1-5.7
		c0.8-5.7,6.7-9.8,12.3-8.5C58.5,31,59.7,31.4,60.9,32.2 M68.5,47.1v15.6c0,0.1-0.1,0.2-0.1,0.2c-0.6,3.3-3.3,5.5-6.6,5.5
		c-4.4,0-8.9,0-13.3,0c-3,0-5.6-2.1-6.4-5c-0.3-1.2-0.2-2.5-0.2-3.7c0-0.8,0.1-0.7-0.7-0.7c-8.1,0-16.2-0.1-24.3,0
		c-3.4,0-5.5-2.4-5.4-5.3c0.1-4.5,0-9,0-13.5c0-7.9,0-15.9,0-23.8c0-2.1,1-3.6,2.9-4.5c0.4-0.2,0.8-0.3,1.1-0.4h43.2
		c3.1,0.7,4.2,3,4.1,5.8c-0.1,5.3,0,10.7,0,16c0,0.3,0,0.5,0.2,0.8c1.8,2.1,2.7,4.5,2.6,7.2c0,1.3,0,2.7,0,4c0,0.3,0.1,0.5,0.4,0.4
		C67.2,45.6,68.1,46.1,68.5,47.1"/>
	<path style="clip-path:url(#SVGID_00000090262717276172623180000008266889483421577373_);fill:#F37367;" d="M17.2,30.5
		c0-1.2,0-2.4,0-3.6c0-1.3,0.8-2,2-2.1c1.2,0,2.3,0,3.5,0c0.7,0,1.1,0.4,1.2,0.9c0,0.6-0.4,1-1.2,1c-1,0-2.1,0-3.1,0
		c-0.3,0-0.5,0.1-0.5,0.5c0,2.2,0,4.5,0,6.7c0,0.4,0.1,0.5,0.5,0.5c2.2,0,4.5,0,6.7,0c0.4,0,0.5-0.1,0.5-0.5c0-0.7,0-1.4,0-2.2
		c0-0.8,0.3-1.2,1-1.2c0.6,0,0.9,0.4,0.9,1.1c0,0.8,0,1.7,0,2.5c0,1.3-0.8,2-2.1,2c-2.4,0-4.9,0-7.3,0c-1.3,0-2-0.8-2.1-2
		C17.2,32.9,17.2,31.7,17.2,30.5"/>
	<path style="clip-path:url(#SVGID_00000090262717276172623180000008266889483421577373_);fill:#F37367;" d="M22.9,52.3
		c-1.2,0-2.4,0-3.6,0c-1.3,0-2.1-0.8-2.1-2.1c0-2.4,0-4.8,0-7.2c0-1.3,0.8-2.1,2.1-2.1c1.2,0,2.3,0,3.5,0c0.7,0,1.1,0.4,1.1,0.9
		c0,0.6-0.4,0.9-1.1,1c-1,0-2.1,0-3.1,0c-0.4,0-0.5,0.1-0.5,0.5c0,2.2,0,4.5,0,6.7c0,0.3,0.1,0.4,0.4,0.4c2.2,0,4.5,0,6.7,0
		c0.4,0,0.5-0.2,0.5-0.5c0-0.7,0-1.4,0-2.2c0-0.7,0.3-1.1,0.9-1.1c0.6,0,1,0.4,1,1.1c0,0.9,0,1.7,0,2.6c0,1.2-0.8,2-2,2
		C25.4,52.4,24.1,52.3,22.9,52.3"/>
	<path style="clip-path:url(#SVGID_00000090262717276172623180000008266889483421577373_);fill:#F37367;" d="M38.6,30.5
		c2,0,4,0,5.9,0c0.3,0,0.6,0,0.9,0.2c0.5,0.5,0.4,1.3-0.3,1.6c-0.2,0.1-0.5,0.1-0.7,0.1c-3.9,0-7.7,0-11.6,0c-0.1,0-0.2,0-0.3,0
		c-0.6,0-1-0.4-1-1c0-0.5,0.4-0.9,1-0.9C34.5,30.5,36.5,30.5,38.6,30.5"/>
	<path style="clip-path:url(#SVGID_00000090262717276172623180000008266889483421577373_);fill:#F37367;" d="M22.9,32.4
		c-0.3,0-0.5-0.2-0.7-0.4c-0.6-0.6-1.2-1.1-1.7-1.7c-0.5-0.5-0.5-1-0.1-1.4c0.4-0.4,0.9-0.3,1.4,0.1c0.3,0.3,0.5,0.5,0.8,0.8
		c0.2,0.3,0.4,0.3,0.6,0c1.2-1.5,2.4-2.9,3.7-4.4c0.2-0.2,0.3-0.4,0.6-0.4c0.4-0.1,0.8,0,1.1,0.3c0.3,0.4,0.2,0.8-0.1,1.2
		c-0.7,0.9-1.5,1.8-2.2,2.7c-0.8,1-1.6,1.9-2.4,2.9C23.6,32.2,23.3,32.4,22.9,32.4"/>
	<path style="clip-path:url(#SVGID_00000090262717276172623180000008266889483421577373_);fill:#F37367;" d="M22.9,48.5
		c-0.3,0-0.5-0.1-0.7-0.3c-0.6-0.6-1.2-1.2-1.8-1.8C20,46,20,45.4,20.4,45c0.4-0.4,0.9-0.4,1.4,0c0.3,0.3,0.5,0.5,0.8,0.8
		c0.3,0.3,0.4,0.2,0.6,0c1.2-1.5,2.4-2.9,3.7-4.4c0.3-0.3,0.5-0.5,0.9-0.5c0.4,0,0.6,0.2,0.8,0.6c0.2,0.4,0.1,0.8-0.2,1.1
		c-1,1.1-1.9,2.3-2.9,3.5c-0.6,0.7-1.1,1.3-1.7,2C23.5,48.3,23.3,48.5,22.9,48.5"/>
	<path style="clip-path:url(#SVGID_00000090262717276172623180000008266889483421577373_);fill:#F37367;" d="M36.2,27.6
		c-1.2,0-2.4,0-3.6,0c-0.7,0-1.1-0.4-1.2-0.9c0-0.6,0.4-1,1.2-1c2.4,0,4.8,0,7.2,0c0.7,0,1.1,0.3,1.1,0.9c0,0.6-0.4,1-1.2,1
		C38.6,27.6,37.4,27.6,36.2,27.6"/>
	<path style="clip-path:url(#SVGID_00000090262717276172623180000008266889483421577373_);fill:#F37367;" d="M36.2,43.8
		c-1.2,0-2.4,0-3.6,0c-0.7,0-1.1-0.4-1.2-0.9c0-0.6,0.4-1,1.2-1c2.4,0,4.8,0,7.2,0c0.7,0,1.1,0.4,1.1,0.9c0,0.6-0.4,1-1.2,1
		C38.6,43.8,37.4,43.8,36.2,43.8"/>
	<path style="clip-path:url(#SVGID_00000090262717276172623180000008266889483421577373_);fill:#F37367;" d="M35.8,46.7
		c1.1,0,2.1,0,3.2,0c0.7,0,1.1,0.4,1.1,0.9c0,0.6-0.4,1-1.1,1c-2.1,0-4.2,0-6.3,0c-0.7,0-1.1-0.4-1.1-0.9c0-0.6,0.4-1,1.1-1
		C33.6,46.7,34.7,46.7,35.8,46.7"/>
	<path style="clip-path:url(#SVGID_00000090262717276172623180000008266889483421577373_);fill:#F37367;" d="M55.2,56.1
		c0.5,0,1-0.4,1-0.9c0-0.5-0.4-1-0.9-1c-0.5,0-0.9,0.4-0.9,0.9C54.2,55.7,54.7,56.1,55.2,56.1 M54.3,59.1c0-0.1,0-0.2,0-0.3
		c0.1-0.5,0-0.9-0.6-1.2c-1.1-0.6-1.5-2-1.2-3.2c0.4-1.2,1.5-2,2.8-2c1.3,0,2.4,0.9,2.7,2.1c0.3,1.2-0.1,2.5-1.3,3.2
		c-0.5,0.3-0.6,0.5-0.5,1c0,0.4,0,0.9,0,1.3c0,0.6-0.4,1-0.9,1c-0.5,0-0.9-0.4-1-1C54.3,59.6,54.3,59.3,54.3,59.1L54.3,59.1z"/>
	<path style="clip-path:url(#SVGID_00000090262717276172623180000008266889483421577373_);fill:#F37367;" d="M44.3,17.2
		c-4.2,0-8.4,0-12.6,0c-0.7,0-1.1-0.3-1.1-0.8c-0.1-0.5,0.3-1,0.8-1.1c0.2,0,0.3,0,0.5,0c8.3,0,16.6,0,24.9,0c0.2,0,0.4,0,0.6,0
		c0.5,0.1,0.8,0.5,0.7,1c0,0.5-0.4,0.8-0.9,0.9c-0.2,0-0.4,0-0.6,0C52.5,17.2,48.4,17.2,44.3,17.2"/>
	<path style="clip-path:url(#SVGID_00000090262717276172623180000008266889483421577373_);fill:#F37367;" d="M22.4,17.2
		c-1,0-1.4-0.3-1.4-0.9c0-0.7,0.5-1,1.5-1c0.1,0,0.1,0,0.2,0c0.7,0,1.2,0.4,1.2,1c0,0.6-0.4,0.9-1.1,0.9
		C22.6,17.2,22.5,17.2,22.4,17.2"/>
	<path style="clip-path:url(#SVGID_00000090262717276172623180000008266889483421577373_);fill:#F37367;" d="M17.7,17.2
		c-0.2,0-0.3,0-0.5,0c-0.5,0-0.9-0.4-0.9-0.9c0-0.5,0.3-0.9,0.8-1c0.4,0,0.7,0,1.1,0c0.6,0,0.9,0.5,0.9,1c0,0.5-0.4,0.9-0.9,0.9
		C18,17.2,17.8,17.2,17.7,17.2C17.7,17.2,17.7,17.2,17.7,17.2"/>
	<path style="clip-path:url(#SVGID_00000090262717276172623180000008266889483421577373_);fill:#F37367;" d="M27.2,17.2
		c-0.2,0-0.3,0-0.5,0c-0.5,0-0.9-0.4-0.9-0.9c0-0.5,0.4-0.9,0.9-1c0.3,0,0.6,0,0.9,0c0.6,0,1,0.4,1,1c0,0.5-0.4,0.9-1,0.9
		C27.5,17.2,27.3,17.2,27.2,17.2L27.2,17.2z"/>
</g>
</svg>
