<?xml version="1.0" encoding="utf-8"?>
<!-- Generator: Adobe Illustrator 25.4.1, SVG Export Plug-In . SVG Version: 6.00 Build 0)  -->
<svg version="1.1" id="Layer_1" xmlns="http://www.w3.org/2000/svg" xmlns:xlink="http://www.w3.org/1999/xlink" x="0px" y="0px"
	 viewBox="0 0 80 80" style="enable-background:new 0 0 80 80;" xml:space="preserve">
<style type="text/css">
	.st0{clip-path:url(#SVGID_00000059991646837152072690000006002168710594543021_);fill:#F37367;}
	.st1{clip-path:url(#SVGID_00000009565159633325408920000001889379327137138845_);fill:#F37367;}
	.st2{clip-path:url(#SVGID_00000098908825641050278230000007132457773117408133_);fill:#F37367;}
	.st3{clip-path:url(#SVGID_00000181805428834942801250000007426201712401401730_);fill:#F37367;}
	.st4{clip-path:url(#SVGID_00000137101377195533995240000006699737083473482924_);fill:#F37367;}
	.st5{clip-path:url(#SVGID_00000012456369573778855620000007037507896785767339_);fill:#F37367;}
	.st6{clip-path:url(#SVGID_00000156561671288485075730000002621883477964113297_);fill:#F37367;}
	.st7{clip-path:url(#SVGID_00000074425946838292137920000007501311360098117523_);fill:#F37367;}
	.st8{clip-path:url(#SVGID_00000065052287080555963840000013311577099751670956_);fill:#F37367;}
	.st9{clip-path:url(#SVGID_00000083786367033156338390000003753983386510438067_);fill:#F37367;}
	.st10{clip-path:url(#SVGID_00000131340990139349502690000011390551040853627274_);fill:#F37367;}
	.st11{clip-path:url(#SVGID_00000040573986480188279280000015215676920317727658_);fill:#F37367;}
	.st12{clip-path:url(#SVGID_00000111892297642320597950000003379331804355626899_);fill:#F37367;}
	.st13{clip-path:url(#SVGID_00000011740611406515294650000007186773280931843252_);fill:#F37367;}
	.st14{clip-path:url(#SVGID_00000005956525958444186690000012316666643063289511_);fill:#F37367;}
	.st15{clip-path:url(#SVGID_00000121998087320541463680000003153365692064922283_);fill:#F37367;}
	.st16{clip-path:url(#SVGID_00000181765761637707644320000004923881308505247118_);fill:#F37367;}
</style>
<g>
	<defs>
		<rect id="SVGID_00000015346953057021205890000015382936024206467988_" x="12.8" y="11.5" width="54.3" height="57"/>
	</defs>
	<clipPath id="SVGID_00000103986315579970060750000016088726446731407523_">
		<use xlink:href="#SVGID_00000015346953057021205890000015382936024206467988_"  style="overflow:visible;"/>
	</clipPath>
	<path style="clip-path:url(#SVGID_00000103986315579970060750000016088726446731407523_);fill:#F37367;" d="M22.1,23.6
		c-0.6,0-1,0.4-1.1,0.9c0,0.5,0.4,1,0.9,1c0.5,0,1-0.5,1-0.9C23,24.1,22.5,23.7,22.1,23.6 M58.9,24.6c0-0.6-0.3-0.9-0.9-0.9
		c-0.5,0-0.9,0.4-0.9,0.9c0,0.5,0.4,0.9,0.9,0.9C58.5,25.5,58.9,25.1,58.9,24.6 M28.7,16.1c0.5,0,0.9-0.5,0.9-1c0-0.5-0.4-1-0.8-0.9
		c-0.5,0-1,0.5-1,1C27.7,15.7,28.2,16.1,28.7,16.1 M41,15.1c0-0.5-0.4-0.9-1-0.9c-0.5,0-0.9,0.4-0.9,0.9c0,0.5,0.3,0.9,0.8,0.9
		C40.5,16.1,41,15.6,41,15.1 M52.3,15.2c0-0.5-0.5-1-1-1c-0.5,0-0.9,0.5-0.9,1c0,0.5,0.5,1,0.9,1C51.8,16.1,52.3,15.7,52.3,15.2
		 M62.2,65.8c0.6,0,1.3,0,1.9,0c0.3,0,0.4-0.1,0.4-0.4c0-1.2,0-2.5,0-3.7c0-0.3-0.1-0.4-0.3-0.4c-1.3,0-2.6,0-3.9,0
		c-0.3,0-0.3,0.1-0.3,0.4c0,1.2,0,2.5,0,3.7c0,0.3,0.1,0.4,0.4,0.4C61,65.8,61.6,65.8,62.2,65.8 M17.8,61.4c-0.6,0-1.3,0-1.9,0
		c-0.3,0-0.4,0.1-0.4,0.3c0,1.3,0,2.5,0,3.8c0,0.3,0.1,0.3,0.4,0.3c1.3,0,2.6,0,3.8,0c0.3,0,0.4-0.1,0.4-0.4c0-1.2,0-2.5,0-3.7
		c0-0.3-0.1-0.4-0.4-0.4C19.1,61.4,18.4,61.4,17.8,61.4 M40,65.8c1.8,0,3.6,0,5.5,0c0.4,0,0.5-0.1,0.5-0.5c0-1.2,0-2.4,0-3.6
		c0-0.3-0.1-0.5-0.4-0.5c-3.7,0-7.3,0-11,0c-0.3,0-0.4,0.1-0.4,0.4c0,1.2,0,2.4,0,3.6c0,0.4,0.1,0.5,0.5,0.5
		C36.4,65.8,38.2,65.8,40,65.8 M40,34.3c-2.3,0-4.5,0-6.8,0c-0.5,0-0.6,0.2-0.4,0.6c0.4,1.4,1.1,2.6,2.2,3.6
		c4.1,3.7,10.8,1.8,12.2-3.5c0.2-0.7,0.2-0.7-0.5-0.7C44.5,34.3,42.2,34.3,40,34.3 M28.6,34.4L28.6,34.4l-0.4,0c-1,0-1,0-0.8,1
		c0.2,1-0.1,1.6-0.9,2.1c-1.6,1.1-3.1,2.3-4.7,3.4c-0.3,0.2-0.3,0.4-0.1,0.7c0.6,1,1.2,2,1.7,3c0.2,0.3,0.3,0.4,0.7,0.2
		c1.9-0.8,3.8-1.6,5.7-2.4c0.5-0.2,1-0.2,1.5,0.1c0.4,0.3,0.7,0.6,1.1,0.8c1.1,0.8,2.4,1.4,3.7,1.9c0.6,0.2,0.9,0.6,1,1.3
		c0.2,2,0.5,4.1,0.7,6.1c0,0.4,0.2,0.5,0.5,0.5c1.1,0,2.3,0,3.4,0c0.4,0,0.5-0.1,0.6-0.5c0.2-1.8,0.5-3.7,0.6-5.5
		c0.1-1.1,0.5-1.7,1.5-2c1.5-0.5,2.9-1.3,4-2.4c0.6-0.6,1.3-0.6,2-0.3c1.8,0.8,3.7,1.6,5.5,2.5c0.4,0.2,0.5,0.1,0.7-0.2
		c0.6-1,1.1-2,1.7-3c0.2-0.3,0.2-0.5-0.1-0.8c-1.4-1-2.7-2.1-4.2-3.1c-1.2-0.8-1.7-1.7-1.3-3.1c0.1-0.3-0.1-0.4-0.3-0.4
		c-0.6,0-1.2,0-1.8,0c-0.5,0-0.6,0.1-0.7,0.6c-0.8,4.5-4.9,8-9.5,8.2c-4.8,0.2-9.1-3-10.2-7.5c-0.1-0.4,0-1-0.3-1.2
		C29.6,34.2,29,34.4,28.6,34.4 M52,11.5c0.1,0.2,0.3,0.1,0.5,0.2c1.9,0.6,2.9,2.6,2.4,4.5c-0.6,1.9-2.6,3-4.5,2.5
		c-0.4-0.1-0.6-0.1-0.9,0.2c-0.5,0.6-1.1,1.1-1.7,1.7c-0.2,0.2-0.2,0.3-0.2,0.6c0,3.3,0,6.7,0,10c0,0.3,0.1,0.5,0.4,0.4
		c0.4,0,0.9,0,1.3,0c0.4,0,0.4-0.1,0.4-0.4c0-1.5,0-3,0-4.5c0-2.1,1.5-3.6,3.6-3.6c0.1,0,0.1,0,0.2,0c0.8,0.1,1.3-0.1,1.8-0.8
		c0.9-1.4,2.8-1.8,4.4-1.1c1.5,0.7,2.3,2.3,2,3.9c-0.3,1.7-1.7,2.9-3.4,3c-1.6,0.1-2.7-0.6-3.4-2c-0.1-0.2-0.2-0.3-0.5-0.3
		c-2.1,0-2,0.1-2,1.9c0,1.2,0,2.3,0,3.5c0,0.3,0.1,0.5,0.4,0.4c0.4,0,0.9,0,1.3,0c1,0,1.5,0.6,1.4,1.6c0,0.6-0.1,1.1-0.2,1.7
		c-0.1,0.3,0.1,0.5,0.3,0.7c1.8,1.3,3.5,2.6,5.3,4c0.7,0.5,0.8,1.1,0.4,1.9c-0.2,0.5-0.5,0.9-0.8,1.4c-0.2,0.3-0.1,0.4,0.1,0.5
		c0.6,0.3,1.2,0.7,1.9,1.1c0.6,0.3,0.9,0.8,0.9,1.6c0,4,0,8.1,0,12.1c0,0.5,0.1,0.6,0.6,0.6c0.5,0,1.1,0,1.6,0
		c0.8,0,1.4,0.6,1.4,1.4c0,2.4,0,4.7,0,7.1c0,0.8-0.6,1.3-1.3,1.3c-2.4,0-4.8,0-7.2,0c-0.7,0-1.3-0.6-1.3-1.3c0-2.4,0-4.7,0-7.1
		c0-0.8,0.6-1.3,1.3-1.3c0.6,0,1.3,0,1.9,0c0.3,0,0.4-0.1,0.4-0.4c0-3.8,0-7.6,0-11.5c0-0.2-0.1-0.3-0.3-0.4
		c-0.4-0.2-0.8-0.5-1.3-0.7c-0.2-0.1-0.3-0.1-0.4,0.1c-0.2,0.4-0.5,0.9-0.7,1.3c-0.5,0.8-1.1,1-2,0.7c-2-0.9-4-1.7-6.1-2.6
		c-0.2-0.1-0.4-0.2-0.7,0c-1,0.9-2.2,1.6-3.5,2.1c-0.4,0.2-0.5,0.5-0.6,0.9c-0.3,2.1-0.5,4.2-0.8,6.3c-0.1,0.9-0.6,1.3-1.5,1.3
		c-0.5,0-1,0-1.5,0c-0.3,0-0.4,0.1-0.4,0.4c0,0.7,0,1.4,0,2.1c0,0.4,0.1,0.5,0.5,0.5c1.7,0,3.4,0,5.1,0c1.2,0,1.7,0.5,1.7,1.7
		c0,2.2,0,4.4,0,6.6c0,1.1-0.5,1.6-1.6,1.6c-4.7,0-9.3,0-14,0c-1,0-1.5-0.5-1.5-1.5c0-2.2,0-4.5,0-6.7c0-1,0.5-1.5,1.5-1.5
		c1.7,0,3.5,0,5.2,0c0.4,0,0.5-0.1,0.5-0.5c0-0.6,0-1.3,0-1.9c0-0.4-0.1-0.5-0.5-0.5c-0.5,0-1,0-1.5,0c-0.8,0-1.3-0.4-1.4-1.3
		c-0.3-2.1-0.5-4.3-0.8-6.4c0-0.4-0.2-0.6-0.6-0.8c-1.2-0.5-2.4-1.2-3.5-2.1c-0.2-0.2-0.4-0.2-0.6,0c-2,0.9-3.9,1.7-5.9,2.6
		c-1.1,0.5-1.6,0.3-2.2-0.7c0,0,0-0.1-0.1-0.1c-0.3-0.4-0.5-1.1-0.8-1.2c-0.4-0.1-0.9,0.4-1.4,0.7c-0.3,0.1-0.4,0.3-0.4,0.7
		c0,3.7,0,7.5,0,11.2c0,0.4,0.1,0.5,0.5,0.5c0.6,0,1.2,0,1.8,0c0.8,0,1.4,0.6,1.4,1.4c0,2.3,0,4.7,0,7c0,0.8-0.6,1.4-1.4,1.4
		c-2.4,0-4.7,0-7.1,0c-0.9,0-1.4-0.6-1.4-1.4c0-2.3,0-4.6,0-6.9c0-0.9,0.6-1.4,1.5-1.5c0.5,0,1.1,0,1.6,0c0.4,0,0.5-0.1,0.5-0.5
		c0-4,0-8,0-12c0-0.8,0.3-1.4,1-1.8c0.6-0.3,1.2-0.7,1.8-1c0.2-0.1,0.3-0.2,0.1-0.5c-0.3-0.5-0.5-0.9-0.8-1.4
		c-0.4-0.8-0.3-1.3,0.4-1.8c1.7-1.3,3.5-2.6,5.3-3.9c0.3-0.2,0.4-0.5,0.4-0.9c-0.1-0.5-0.1-1.1-0.2-1.7c-0.1-1,0.4-1.5,1.4-1.6
		c0.5,0,0.9,0,1.4,0c0.3,0,0.4,0,0.4-0.4c0-1.6,0-3.1,0-4.7c0-0.5-0.3-0.7-0.8-0.8c-0.1,0-0.2,0-0.3,0c-0.7-0.1-1.2,0.1-1.7,0.8
		C24,28,22.2,28.5,20.7,28c-1.4-0.6-2.5-2.1-2.4-3.6c0.1-1.7,1.2-3,2.9-3.4c1.5-0.3,3.1,0.4,3.9,1.8c0.2,0.3,0.3,0.4,0.6,0.4
		c0.6,0,1.2-0.1,1.8,0.1c1.6,0.4,2.7,1.7,2.7,3.3c0,1.5,0,3,0,4.6c0,0.4,0.1,0.5,0.5,0.5c0.5-0.1,1.2,0.2,1.5-0.1
		c0.3-0.3,0.1-1,0.1-1.5c0-2.9,0-5.8,0-8.6c0-0.4-0.1-0.7-0.4-1c-0.6-0.5-1.1-1.1-1.7-1.7c-0.2-0.2-0.3-0.2-0.5-0.1
		c-2.2,0.7-4.2-0.7-4.7-2.6c-0.5-2,0.7-3.9,2.8-4.4c0.1,0,0.1-0.1,0.1-0.1h1c2.7,1,3.3,2.1,2.9,4.9c0,0.3,0.1,0.4,0.2,0.5
		c0.7,0.7,1.4,1.5,2.2,2.2c0.5,0.5,0.7,1,0.7,1.7c0,3.5,0,6.9,0,10.4c0,0.4,0,0.6,0.5,0.5c0.8,0,1.7,0,2.5,0c0.5,0,0.6-0.1,0.6-0.6
		c0-4,0-8,0-12c0-0.4-0.1-0.6-0.5-0.8c-2.2-1.2-2.5-4-0.7-5.7c0.6-0.5,1.2-0.8,1.9-1h1c0.1,0,0.2,0.1,0.3,0.1
		c1.6,0.4,2.7,1.5,2.9,3.1c0.2,1.5-0.6,2.9-2,3.7c-0.2,0.1-0.3,0.3-0.3,0.5c0,4.1,0,8.2,0,12.3c0,0.4,0.1,0.5,0.5,0.4
		c0.9,0,1.7,0,2.6,0c0.4,0,0.5-0.1,0.5-0.6c0-3.5,0-7,0-10.5c0-0.6,0.2-1.1,0.6-1.5c0.7-0.6,1.2-1.3,1.9-1.9
		c0.5-0.4,0.6-0.8,0.5-1.4c-0.3-1.4,0.2-2.5,1.2-3.5c0.5-0.5,1.1-0.6,1.7-0.9H52z"/>
</g>
</svg>
