<?xml version="1.0" encoding="utf-8"?>
<!-- Generator: Adobe Illustrator 25.4.1, SVG Export Plug-In . SVG Version: 6.00 Build 0)  -->
<svg version="1.1" id="Layer_1" xmlns="http://www.w3.org/2000/svg" xmlns:xlink="http://www.w3.org/1999/xlink" x="0px" y="0px"
	 viewBox="0 0 80 80" style="enable-background:new 0 0 80 80;" xml:space="preserve">
<style type="text/css">
	.st0{clip-path:url(#SVGID_00000111158074226844417830000006809279531163602088_);fill:#F37367;}
	.st1{clip-path:url(#SVGID_00000143598109215855098880000017753354553041782446_);fill:#F37367;}
	.st2{clip-path:url(#SVGID_00000168114649778074883260000012819875984266767768_);fill:#F37367;}
	.st3{clip-path:url(#SVGID_00000083782739438431914200000007107093383170643876_);fill:#F37367;}
	.st4{clip-path:url(#SVGID_00000160877140600866609310000009109847495411598521_);fill:#F37367;}
	.st5{clip-path:url(#SVGID_00000022551201140629856220000006070229140355171459_);fill:#F37367;}
	.st6{clip-path:url(#SVGID_00000120539737241151849490000000112852332265619633_);fill:#F37367;}
	.st7{clip-path:url(#SVGID_00000056398710303215090760000011613845205490415749_);fill:#F37367;}
	.st8{clip-path:url(#SVGID_00000060000624249167603730000006160758118983699129_);fill:#F37367;}
	.st9{clip-path:url(#SVGID_00000176733087929823719260000000244137079801614981_);fill:#F37367;}
	.st10{clip-path:url(#SVGID_00000171682750445848220550000006611674273376584101_);fill:#F37367;}
	.st11{clip-path:url(#SVGID_00000042011897087371523300000008729950836495029946_);fill:#F37367;}
	.st12{clip-path:url(#SVGID_00000039850578776112091080000014749573848024291484_);fill:#F37367;}
	.st13{clip-path:url(#SVGID_00000099659063497811883300000009824583057910122410_);fill:#F37367;}
	.st14{clip-path:url(#SVGID_00000183211029422223985100000000526145753753637287_);fill:#F37367;}
	.st15{clip-path:url(#SVGID_00000094602584198346782270000001998247400458754712_);fill:#F37367;}
	.st16{clip-path:url(#SVGID_00000036952604366650339530000003205410294636797078_);fill:#F37367;}
</style>
<g>
	<defs>
		<rect id="SVGID_1_" x="10.2" y="11.5" width="59.5" height="57"/>
	</defs>
	<clipPath id="SVGID_00000139293533101054145100000004693446281426752926_">
		<use xlink:href="#SVGID_1_"  style="overflow:visible;"/>
	</clipPath>
	<path style="clip-path:url(#SVGID_00000139293533101054145100000004693446281426752926_);fill:#F37367;" d="M31.5,66.7h17
		c-0.6-0.8-1.2-1.5-1.7-2.1c-0.1-0.2-0.3-0.2-0.5-0.2c-0.9,0-1.9,0-2.8,0c-0.8,0-1.1-0.3-1.1-0.9c0-0.6,0.4-0.9,1.2-0.9
		c0.7,0,1.5,0,2.2,0c0.4,0,0.6-0.1,0.6-0.5c0-1.5,0-3,0-4.5c0-0.4-0.1-0.5-0.5-0.5c-3.8,0-7.6,0-11.4,0c-0.4,0-0.5,0.1-0.5,0.5
		c0,1.5,0,3.1,0,4.6c0,0.4,0.1,0.5,0.5,0.5c1.5,0,3.1,0,4.6,0c0.7,0,1.1,0.3,1.1,0.9c0,0.5-0.4,0.9-1.1,0.9c-1.7,0-3.4,0-5.2,0
		c-0.2,0-0.4-0.1-0.6,0.2C32.6,65.3,32.1,65.9,31.5,66.7 M10.2,24.3c0.1-0.4,0.2-0.7,0.3-1.1c0.8-2.1,2.7-3.7,5-3.7
		c6,0,12.1,0,18.1,0c0.6,0,1,0.4,1,0.9c0,0.5-0.4,0.8-0.9,0.9c-0.2,0-0.4,0-0.6,0c-5.6,0-11.3,0.1-16.9,0c-2.6,0-4.3,1.9-4.3,4.3
		c0.1,7.3,0,14.6,0,21.8c0,0.5,0.2,0.7,0.7,0.7c1,0,2,0,3,0c0.6,0,1,0.3,1,0.8c0,0.5-0.4,0.9-1.1,0.9c-1.1,0-2.1,0-3.2,0
		c-0.4,0-0.5,0.1-0.5,0.5c0,0.6,0,1.2,0.1,1.9c0.3,2,1.9,3.3,4,3.3c10.5,0,21,0,31.4,0c5.5,0,10.9,0,16.4,0c2.5,0,4.1-1.6,4.2-4.1
		c0-0.3,0-0.5,0-0.8c0.1-0.6-0.2-0.7-0.7-0.7c-15.7,0-31.4,0-47.1,0c-0.3,0-0.5,0-0.8,0c-0.5-0.1-0.7-0.4-0.7-0.9
		c0-0.5,0.3-0.7,0.8-0.8c0.2,0,0.5,0,0.7,0c15.7,0,31.3,0,47,0c0.8,0,0.8,0,0.8-0.8c0-0.8,0-1.5,0-2.3c0-0.6,0.3-0.9,0.8-0.9
		c0.5,0,0.9,0.3,0.9,0.9c0,2.4,0.1,4.8-0.1,7.1c-0.3,2.9-2.6,5-5.6,5c-5.1,0-10.3,0-15.4,0c-0.6,0-0.7,0.2-0.7,0.7
		c0,1.6,0,3.3,0,4.9c0,0.4,0.1,0.7,0.3,1c0.8,0.9,1.5,1.8,2.2,2.8c0.2,0.3,0.4,0.4,0.8,0.4c0.3,0,0.5,0,0.8,0
		c0.5,0.1,0.7,0.4,0.7,0.9c0,0.5-0.3,0.7-0.8,0.8c-0.2,0-0.4,0-0.6,0c-7.7,0-15.3,0-23,0c-0.1,0-0.2,0-0.3,0c-0.7,0-1.1-0.3-1.1-0.9
		c0-0.5,0.4-0.9,1.1-0.8c0.8,0.1,1.3-0.2,1.7-0.8c0.5-0.7,1-1.4,1.6-2c0.4-0.5,0.6-1,0.6-1.6c0-1.5,0-3.1,0-4.6
		c0-0.5-0.1-0.6-0.6-0.6c-5,0-10,0-15,0c-3.3,0-5.2-1.5-6.1-4.7c0,0,0-0.1-0.1-0.1V24.3z"/>
	<path style="clip-path:url(#SVGID_00000139293533101054145100000004693446281426752926_);fill:#F37367;" d="M40,23.1h0.6
		c1.6,0,1.6,0,1.5-1.6c-0.1-1.1-1-2-2.1-1.9c-1.1,0-2,0.9-2,1.9c0,0.4,0,0.9,0,1.3c0,0.3,0.1,0.4,0.4,0.4
		C38.9,23.1,39.5,23.1,40,23.1 M46.2,30.4c0-1.4,0-2.6,0-3.8c0-1.1-0.6-1.7-1.6-1.7c-1.5,0-3,0-4.5,0c-0.3,0-0.4,0.1-0.4,0.4
		c0,0.5,0,1,0,1.6c0,0.3,0.1,0.4,0.4,0.4c0.6,0,1.2,0,1.7,0c0.9,0,1.2,0.3,1.2,1.2c0,1.2,0,2.4,0,3.5c0,1.7,0,1.8-1.8,1.8
		c-0.3,0-0.4,0.1-0.4,0.4c0,1.5,0,3.1,0,4.6c0,0.4,0.1,0.4,0.5,0.4c2.4-0.6,4-2.2,4.7-4.6C46.4,33.2,46.1,31.7,46.2,30.4 M33.9,30.1
		C33.9,30.1,33.9,30.1,33.9,30.1c0,1.2,0,2.4,0,3.6c0.2,2.6,2.1,4.8,4.6,5.5c0.5,0.1,0.6,0.1,0.6-0.5c0-1.6,0-3.3,0-4.9
		c0-1.4,0-1.9,1.7-1.8c0,0,0,0,0.1,0c0.3,0,0.4-0.1,0.4-0.4c0-0.8,0-1.5,0-2.3c0-0.4-0.2-0.4-0.5-0.4c-0.6,0-1.2,0-1.9,0
		c-0.8,0-1.1-0.3-1.1-1c0-0.9,0-1.7,0-2.6c0-0.4-0.1-0.5-0.5-0.5c-0.6,0-1.1,0-1.7,0c-1.3,0-1.9,0.6-1.9,1.9
		C33.9,27.9,33.9,29,33.9,30.1 M27.8,23.8c1.4-0.4,2.3,0.3,2.9,1.6c0.2,0.5,0.6,0.6,1.2,0.6c0.2,0,0.3-0.1,0.4-0.3
		c0.7-1.8,1.6-2.5,3.5-2.5c0.4,0,0.5-0.2,0.5-0.5c0-1-0.2-2,0.5-2.8c0.6-0.7,0.5-1.4,0.2-2.1c-0.2-0.6-0.3-1.2-0.5-1.9
		c-0.1-0.5-0.4-0.9-0.8-1.1c-0.9-0.5-1.8-1-2.7-1.5c-0.6-0.3-0.7-0.8-0.5-1.2c0.3-0.5,0.8-0.6,1.4-0.3c0.9,0.5,1.8,1.1,2.8,1.6
		c0.8,0.5,1.3,1.2,1.5,2.1c0.2,0.8,0.4,1.5,0.5,2.3c0.1,0.3,0.2,0.4,0.5,0.3c0.5-0.1,1-0.1,1.6,0c0.3,0.1,0.4,0,0.5-0.3
		c0.2-0.8,0.4-1.5,0.5-2.3c0.2-0.9,0.7-1.6,1.6-2.1c0.9-0.5,1.8-1,2.7-1.5c0.6-0.3,1.1-0.2,1.4,0.2c0.3,0.5,0.1,0.9-0.5,1.3
		c-0.9,0.5-1.8,1-2.7,1.5c-0.4,0.2-0.7,0.6-0.8,1.1c-0.2,1-0.5,1.9-0.7,2.9c0,0.2-0.1,0.3,0.1,0.5c0.8,0.9,1,2,0.9,3.2
		c0,0.8,0,0.8,0.7,0.8c1.5,0,2.7,0.9,3.2,2.4c0.1,0.2,0,0.5,0.4,0.4c0.3-0.1,0.7,0.2,1-0.2c0.3-0.5,0.6-0.9,0.9-1.4
		c0.2-0.4,0.5-0.6,0.9-0.6c0.9,0,1.8,0,2.7,0c0.6,0,1,0.4,0.9,0.9c0,0.5-0.4,0.8-0.9,0.8c-0.6,0-1.2,0-1.8,0c-0.4,0-0.6,0.1-0.8,0.4
		c-0.1,0.1-0.2,0.2-0.2,0.3c-0.5,1.1-1.2,1.6-2.5,1.4c-0.4-0.1-0.5,0.1-0.5,0.5c0,0.5,0,1.1,0,1.6c0,0.4,0.2,0.5,0.5,0.5
		c0.8,0,1.5,0,2.3,0c0.7,0,1.1,0.3,1.1,0.9c0,0.5-0.4,0.9-1.1,0.9c-0.8,0-1.5,0-2.3,0c-0.3,0-0.5,0.1-0.5,0.4c0,0.6,0,1.3-0.1,1.9
		c0,0.3,0.1,0.4,0.3,0.3c0,0,0,0,0.1,0c2,0,1.6-0.2,2.8,1.6c0.3,0.4,0.5,0.6,1.1,0.6c0.6-0.1,1.1,0,1.7,0c0.5,0,0.9,0.4,0.9,0.8
		c0,0.4-0.3,0.9-0.8,0.9c-1,0-2,0-3,0c-0.3,0-0.6-0.2-0.7-0.5c-0.2-0.4-0.5-0.8-0.7-1.2c-0.2-0.4-0.5-0.5-0.9-0.5
		c-0.8-0.1-1.2,0.2-1.7,0.9c-3.1,5.2-10.7,5-13.6-0.3c-0.2-0.4-0.5-0.6-1-0.6c-0.8-0.1-1.3,0.2-1.7,0.9c-0.1,0.3-0.3,0.5-0.5,0.7
		c-0.2,0.4-0.5,0.5-1,0.5c-0.9,0-1.7,0-2.6,0c-0.6,0-1-0.4-1-0.9c0-0.5,0.4-0.8,1-0.8c0.4,0,0.8,0,1.2,0c0.8,0.1,1.3-0.2,1.6-0.9
		c0-0.1,0.1-0.2,0.2-0.3c0.4-0.8,1-1.1,1.8-1c0.9,0.1,0.9,0,0.9-0.9c0-0.5,0-0.9,0-1.4c0-0.3-0.1-0.4-0.4-0.4c-0.8,0-1.7,0-2.5,0
		c-0.6,0-1-0.3-1-0.8c0-0.5,0.4-0.9,1-0.9c0.8,0,1.7,0,2.5,0c0.3,0,0.4-0.1,0.4-0.4c0-0.6,0-1.2,0-1.8c0-0.3-0.1-0.4-0.4-0.4
		c-1.9,0.2-1.6,0-2.6-1.6c-0.3-0.4-0.5-0.6-1.1-0.6c-0.5,0-1,0-1.5,0c-0.7,0-1.1-0.3-1.1-0.9c0-0.5,0.4-0.8,1.1-0.9
		C27,23.8,27.4,23.8,27.8,23.8"/>
	<path style="clip-path:url(#SVGID_00000139293533101054145100000004693446281426752926_);fill:#F37367;" d="M69.7,32.9
		c0,2.6,0,5.3,0,7.9c0,0.2,0,0.5-0.1,0.7c-0.2,0.4-0.5,0.6-0.9,0.5c-0.4-0.1-0.7-0.3-0.7-0.7c0-0.2,0-0.4,0-0.6c0-5.1,0-10.2,0-15.3
		c0-2.6-1.6-4.2-4.1-4.2c-0.5,0-1.1,0-1.6,0c-0.6,0-1-0.4-1-0.9c0-0.5,0.4-0.9,1-0.9c1,0,2.1-0.1,3.1,0.1c2.6,0.5,4.4,2.8,4.5,5.4
		C69.8,27.6,69.7,30.3,69.7,32.9L69.7,32.9z"/>
	<path style="clip-path:url(#SVGID_00000139293533101054145100000004693446281426752926_);fill:#F37367;" d="M52.3,19.5
		c1.9,0,3.8,0,5.6,0c0.2,0,0.4,0,0.6,0c0.4,0.1,0.6,0.3,0.7,0.7c0,0.4-0.1,0.7-0.5,0.9c-0.3,0.1-0.5,0.1-0.8,0.1
		c-3.7,0-7.4,0-11.1,0c-0.1,0-0.3,0-0.4,0c-0.6,0-0.9-0.4-0.9-0.9c0-0.5,0.4-0.8,1-0.8C48.4,19.5,50.4,19.5,52.3,19.5"/>
	<path style="clip-path:url(#SVGID_00000139293533101054145100000004693446281426752926_);fill:#F37367;" d="M39.1,52.4
		c0-0.8,0.3-1.2,0.9-1.2c0.6,0,0.9,0.4,0.9,1.2c0,0.8-0.3,1.3-0.8,1.3C39.4,53.6,39.1,53.2,39.1,52.4"/>
</g>
</svg>
