<?xml version="1.0" encoding="utf-8"?>
<!-- Generator: Adobe Illustrator 25.4.1, SVG Export Plug-In . SVG Version: 6.00 Build 0)  -->
<svg version="1.1" id="Layer_1" xmlns="http://www.w3.org/2000/svg" xmlns:xlink="http://www.w3.org/1999/xlink" x="0px" y="0px"
	 viewBox="0 0 80 80" style="enable-background:new 0 0 80 80;" xml:space="preserve">
<style type="text/css">
	.st0{clip-path:url(#SVGID_00000129920919795163305960000017418218521770720183_);fill:#F37367;}
	.st1{clip-path:url(#SVGID_00000013162056886172578770000012739789007906479776_);fill:#F37367;}
	.st2{clip-path:url(#SVGID_00000182492154020400850360000014775270552943200144_);fill:#F37367;}
	.st3{clip-path:url(#SVGID_00000103229320438836772780000015479737515491642546_);fill:#F37367;}
	.st4{clip-path:url(#SVGID_00000035523126166655416310000018423100410165770676_);fill:#F37367;}
	.st5{clip-path:url(#SVGID_00000060006072350180414840000011057574996175158197_);fill:#F37367;}
	.st6{clip-path:url(#SVGID_00000065785870116822972710000007668381695521685916_);fill:#F37367;}
	.st7{clip-path:url(#SVGID_00000069390114535937627250000014601752913248960400_);fill:#F37367;}
	.st8{clip-path:url(#SVGID_00000170240092586638041940000009054767779992373890_);fill:#F37367;}
	.st9{clip-path:url(#SVGID_00000181070469207418542260000011414620389764932251_);fill:#F37367;}
	.st10{clip-path:url(#SVGID_00000012450883435826485400000008916417337685999537_);fill:#F37367;}
	.st11{clip-path:url(#SVGID_00000027574595984395280510000006488564765070001580_);fill:#F37367;}
	.st12{clip-path:url(#SVGID_00000040541669716747356990000005070958271937544329_);fill:#F37367;}
	.st13{clip-path:url(#SVGID_00000034068777804841613680000010365418082933234584_);fill:#F37367;}
	.st14{clip-path:url(#SVGID_00000123440570526482960130000012919835961986439610_);fill:#F37367;}
	.st15{clip-path:url(#SVGID_00000180365951798810096040000010827714781182796709_);fill:#F37367;}
	.st16{clip-path:url(#SVGID_00000094608711168397619750000000114016552340528279_);fill:#F37367;}
</style>
<g>
	<defs>
		<rect id="SVGID_00000003090802151560624320000010169287541702846377_" x="12.1" y="11.5" width="55.9" height="57"/>
	</defs>
	<clipPath id="SVGID_00000158023163632561545540000001151477903278885265_">
		<use xlink:href="#SVGID_00000003090802151560624320000010169287541702846377_"  style="overflow:visible;"/>
	</clipPath>
	<path style="clip-path:url(#SVGID_00000158023163632561545540000001151477903278885265_);fill:#F37367;" d="M64.3,38.5
		c0.5,0,1.1,0,1.6,0c0.2,0,0.3-0.1,0.4-0.3c0.2-2.3-1.3-3.8-3.6-3.7c-0.3,0-0.4,0.1-0.4,0.4c0,1.1,0,2.2,0,3.3
		c0,0.3,0.1,0.4,0.4,0.4C63.3,38.5,63.8,38.5,64.3,38.5 M12.1,37.6c0.2-0.4,0.5-0.7,1-0.6c0.6,0.2,0.6,0.6,0.6,1.1
		c0,6,0,11.9,0,17.9c0,2.3,1.2,3.5,3.4,3.5c13.4,0,26.7,0,40.1,0c2.3,0,3.5-1.2,3.5-3.5c0-7.5,0-15,0-22.5c0-0.5-0.1-0.7-0.7-0.7
		c-6.5,0-13.1,0-19.6,0c-0.2,0-0.4,0-0.6,0c-0.4-0.1-0.7-0.3-0.7-0.8c0-0.5,0.2-0.7,0.6-0.9c0.2-0.1,0.4,0,0.7,0
		c6.6,0,13.1,0,19.7,0c0.5,0,0.7-0.1,0.7-0.7c0-2-1.3-3.3-3.3-3.4c-0.5,0-1.1,0-1.6,0c-0.5,0-0.8-0.3-0.8-0.8c0-0.4,0.3-0.8,0.8-0.9
		c1,0,2-0.1,3,0.1c2.1,0.5,3.5,2.4,3.6,4.6c0,0.7,0,1.4,0,2.1c0,0.5,0.1,0.6,0.6,0.6c1.7,0,3.1,0.6,4.1,2c0.6,0.8,0.9,1.7,0.9,2.7
		c0,1.7,0,3.5,0,5.2c0,0.6-0.3,1-0.8,1c-0.5,0-0.8-0.4-0.8-1c0-0.7,0-1.4,0-2.2c0-0.3-0.1-0.4-0.4-0.4c-1,0-2,0-3.1,0
		c-0.4,0-0.5,0.1-0.5,0.5c0,1.9,0,3.9,0,5.8c0,3.2,0,6.4,0,9.6c0,3.1-2,5.1-5,5.1c-12.5,0-24.9,0-37.4,0c-0.5,0-0.7,0.1-0.7,0.7
		c0.1,0.8,0,1.6,0.1,2.3c0.2,1.5,1.4,2.6,2.9,2.7c0.2,0,0.3,0,0.5,0c13.4,0,26.7,0,40.1,0c2.3,0,3.5-1.2,3.5-3.5
		c0-5.5,0-10.9,0-16.4c0-0.2,0-0.4,0-0.6c0.1-0.5,0.3-0.7,0.8-0.7c0.5,0,0.7,0.3,0.8,0.7c0,0.1,0,0.3,0,0.4c0,5.5,0,11.1,0,16.6
		c0,3.1-2,5.1-5,5.1c-13.4,0-26.9,0-40.3,0c-3,0-5-2-5-5.1c0-0.5,0-1,0-1.5c0.1-0.6-0.1-0.8-0.7-0.7c-1.8,0-3.3-0.7-4.2-2.3
		c-0.4-0.6-0.5-1.2-0.7-1.9V37.6z"/>
	<path style="clip-path:url(#SVGID_00000158023163632561545540000001151477903278885265_);fill:#F37367;" d="M25.5,11.5
		c3.7,2,7.5,4,11.2,5.9c1,0.5,1.5,1.2,1.4,2.4c-0.1,2.3,0,4.6,0,7c0,4.3-1.4,8.1-4.2,11.3c-0.3,0.3-0.6,0.6-1.1,0.4
		c-0.6-0.2-0.7-0.9-0.2-1.4c1.1-1.3,2-2.7,2.7-4.2c0.8-1.9,1.2-3.8,1.2-5.8c0-2.4,0-4.9,0-7.3c0-0.3-0.1-0.5-0.4-0.6
		c-3.6-1.9-7.1-3.7-10.6-5.6c-0.3-0.1-0.5-0.2-0.7,0c-3.5,1.9-7.1,3.8-10.6,5.6c-0.3,0.2-0.4,0.3-0.4,0.7c0,2.5,0,5,0,7.5
		c0.1,6.7,4.6,12.6,11,14.3c0.3,0.1,0.6,0.1,0.9,0c1.6-0.4,3-1.1,4.3-2c0.4-0.2,0.7-0.3,1.1,0c0.5,0.4,0.4,1-0.2,1.4
		c-1.5,1-3.1,1.7-4.8,2.2c-0.6,0.2-1.2,0.2-1.8,0c-6.6-1.9-11.3-7.5-12-14.4c0-0.1-0.1-0.3-0.1-0.4v-9.4c0.2-0.5,0.5-0.9,1-1.2
		c3.9-2,7.8-4.1,11.7-6.2H25.5z"/>
	<path style="clip-path:url(#SVGID_00000158023163632561545540000001151477903278885265_);fill:#F37367;" d="M32.4,26.5
		c0-4.1-3.3-7.5-7.3-7.5c-4,0-7.3,3.3-7.4,7.4c0,4.1,3.3,7.5,7.3,7.5C29.1,34,32.4,30.6,32.4,26.5 M34.1,26.5c0,5.1-4,9.1-9,9.1
		c-4.9,0-8.9-4.2-8.9-9.2c0-5,4-9.1,9-9.1C30.1,17.4,34.1,21.5,34.1,26.5"/>
	<path style="clip-path:url(#SVGID_00000158023163632561545540000001151477903278885265_);fill:#F37367;" d="M37.7,51.2
		c6,0,12,0,18,0c0.1,0,0.3,0,0.4,0c0.6,0,1,0.3,1,0.8c0,0.5-0.4,0.8-1,0.8c-0.1,0-0.2,0-0.3,0c-12.1,0-24.2,0-36.3,0
		c-0.2,0-0.4,0-0.6,0c-0.5-0.1-0.7-0.4-0.7-0.9c0-0.4,0.3-0.7,0.7-0.7c0.2,0,0.4,0,0.6,0C25.7,51.2,31.7,51.2,37.7,51.2"/>
	<path style="clip-path:url(#SVGID_00000158023163632561545540000001151477903278885265_);fill:#F37367;" d="M43.9,46.9
		c-4,0-8,0-11.9,0c-0.2,0-0.4,0-0.6,0c-0.4-0.1-0.7-0.3-0.7-0.7c0-0.4,0.2-0.7,0.6-0.8c0.2-0.1,0.4-0.1,0.6-0.1c8,0,16.1,0,24.1,0
		c0.2,0,0.4,0,0.6,0.1c0.4,0.1,0.6,0.4,0.6,0.8c0,0.4-0.3,0.7-0.7,0.8c-0.2,0-0.4,0-0.6,0C51.8,46.9,47.8,46.9,43.9,46.9"/>
	<path style="clip-path:url(#SVGID_00000158023163632561545540000001151477903278885265_);fill:#F37367;" d="M46.5,27.1
		c-1.9,0-3.8,0-5.7,0c-0.6,0-1-0.3-1-0.9c0-0.5,0.4-0.8,0.9-0.8c1.2,0,2.3,0,3.5,0c2.6,0,5.2,0,7.9,0c0.4,0,0.7,0,0.9,0.4
		c0.2,0.3,0.2,0.6,0.1,0.8c-0.2,0.3-0.4,0.5-0.8,0.5c-1.4,0-2.8,0-4.1,0C47.5,27.1,47,27.1,46.5,27.1"/>
	<path style="clip-path:url(#SVGID_00000158023163632561545540000001151477903278885265_);fill:#F37367;" d="M50.6,39.3
		c1.8,0,3.6,0,5.5,0c0.6,0,1,0.3,1,0.8c0,0.5-0.4,0.9-1,0.9c-3.6,0-7.3,0-10.9,0c-0.7,0-1-0.3-1-0.9c0-0.5,0.4-0.8,1-0.8
		C47,39.3,48.8,39.3,50.6,39.3"/>
	<path style="clip-path:url(#SVGID_00000158023163632561545540000001151477903278885265_);fill:#F37367;" d="M40.4,41
		c-0.3,0-0.5,0-0.8,0c-0.4-0.1-0.7-0.4-0.7-0.8c0-0.4,0.3-0.8,0.8-0.8c0.5,0,0.9,0,1.4,0c0.5,0,0.8,0.3,0.8,0.8
		c0,0.4-0.3,0.8-0.7,0.9C40.9,41,40.6,41,40.4,41C40.4,41,40.4,41,40.4,41"/>
	<path style="clip-path:url(#SVGID_00000158023163632561545540000001151477903278885265_);fill:#F37367;" d="M30.4,24.5
		c0,0.2-0.1,0.4-0.3,0.6c-1.5,1.7-2.9,3.4-4.4,5.1c-0.4,0.5-0.7,0.5-1.2,0.2c-1-0.6-2-1.3-3-1.9c-0.5-0.3-0.6-0.8-0.4-1.2
		c0.3-0.4,0.7-0.5,1.2-0.2c0.7,0.4,1.4,0.9,2.1,1.4c0.3,0.2,0.5,0.2,0.8-0.1c1.1-1.4,2.3-2.7,3.5-4.1c0.1-0.2,0.3-0.3,0.4-0.4
		c0.3-0.2,0.5-0.2,0.8-0.1C30.3,23.8,30.4,24.1,30.4,24.5"/>
</g>
</svg>
