<?xml version="1.0" encoding="utf-8"?>
<!-- Generator: Adobe Illustrator 25.4.1, SVG Export Plug-In . SVG Version: 6.00 Build 0)  -->
<svg version="1.1" id="Layer_1" xmlns="http://www.w3.org/2000/svg" xmlns:xlink="http://www.w3.org/1999/xlink" x="0px" y="0px"
	 viewBox="0 0 80 80" style="enable-background:new 0 0 80 80;" xml:space="preserve">
<style type="text/css">
	.st0{clip-path:url(#SVGID_00000132047651030150931400000015107460659343140005_);fill:#F37367;}
	.st1{clip-path:url(#SVGID_00000070085428627350866940000016966470474886953641_);fill:#F37367;}
	.st2{clip-path:url(#SVGID_00000021821900304124064930000016289424979581579934_);fill:#F37367;}
	.st3{clip-path:url(#SVGID_00000101806753724850245920000003965072356694159292_);fill:#F37367;}
	.st4{clip-path:url(#SVGID_00000080181057191718869100000014485494687938299265_);fill:#F37367;}
	.st5{clip-path:url(#SVGID_00000124860344790813538460000010636452389048265644_);fill:#F37367;}
	.st6{clip-path:url(#SVGID_00000163775632610968936190000012642514081352153741_);fill:#F37367;}
	.st7{clip-path:url(#SVGID_00000141428531473598761900000004282915500038504120_);fill:#F37367;}
	.st8{clip-path:url(#SVGID_00000089559840644853269610000000951170643442488201_);fill:#F37367;}
	.st9{clip-path:url(#SVGID_00000057125319848940119960000009036353510986783397_);fill:#F37367;}
	.st10{clip-path:url(#SVGID_00000131325610374833333510000003062691388519313309_);fill:#F37367;}
	.st11{clip-path:url(#SVGID_00000178927735283787381670000000557071268232073621_);fill:#F37367;}
	.st12{clip-path:url(#SVGID_00000157305387093260289650000016552753516880526260_);fill:#F37367;}
	.st13{clip-path:url(#SVGID_00000048460540253703432150000001106822284406294157_);fill:#F37367;}
	.st14{clip-path:url(#SVGID_00000013183458027923423180000002294638034778696637_);fill:#F37367;}
	.st15{clip-path:url(#SVGID_00000115517033612619926420000000706378848191963309_);fill:#F37367;}
	.st16{clip-path:url(#SVGID_00000042704397899214446270000004704033217900651658_);fill:#F37367;}
</style>
<g>
	<defs>
		<rect id="SVGID_00000071525844020754043330000015414775254243587993_" x="12.3" y="11.5" width="55.3" height="57"/>
	</defs>
	<clipPath id="SVGID_00000026143231095888765960000016655442139267272099_">
		<use xlink:href="#SVGID_00000071525844020754043330000015414775254243587993_"  style="overflow:visible;"/>
	</clipPath>
	<path style="clip-path:url(#SVGID_00000026143231095888765960000016655442139267272099_);fill:#F37367;" d="M64,21.1L64,21.1
		c0-0.4,0-0.8,0-1.2c-0.1-3.3-2.4-5.9-5.6-6.4c-2.9-0.5-5.9,1.4-6.9,4.4c-0.4,1.2-0.4,1.2,0.8,1.2c0.1,0,0.1,0,0.2,0
		c0.4,0.1,0.6-0.1,0.8-0.6c0.6-2,2.5-3.3,4.5-3.2c2,0.1,3.7,1.5,4.3,3.5c0.2,0.9,0.2,1.8,0.2,2.7c0,1.5,0,1.5,1.4,1.4
		c0.3,0,0.5-0.1,0.4-0.4C63.9,22,64,21.5,64,21.1 M57.5,24.8c-2.6,0-5.2,0-7.8,0c-0.4,0-0.5,0.1-0.5,0.5c0,3.8,0,7.5,0,11.3
		c0,0.4,0.1,0.5,0.5,0.5c5.2,0,10.4,0,15.6,0c0.4,0,0.5-0.1,0.5-0.5c0-3.8,0-7.5,0-11.3c0-0.5-0.1-0.5-0.6-0.5
		C62.7,24.8,60.1,24.8,57.5,24.8 M58.5,11.5c0.4,0.1,0.9,0.2,1.3,0.3c3.5,1,6,4.3,6,8c0,0.9,0,1.7,0,2.6c0,0.3,0.1,0.4,0.4,0.4
		c0.1,0,0.2,0,0.3,0c0.9,0,1.2,0.3,1.2,1.2c0,2.2,0,4.5,0,6.7v6.7c0,1.4-0.2,1.6-1.5,1.6c-5.3,0-10.6,0-15.9,0
		c-0.2,0-0.4-0.1-0.6,0.1c0,0.2,0.2,0.4,0.3,0.5c1.9,2.9,2.5,6.1,1.8,9.6c-0.1,0.4-0.2,0.6-0.6,0.4c-0.4-0.2-0.9-0.2-1.2-0.4
		C49.7,48.9,50,48.4,50,48c0.7-5.4-2.7-10.4-7.9-11.4c-4.4-0.9-8,0.5-10.7,4.4c-0.2,0.3-0.4,0.4-0.7,0.1c-1.1-0.8-1.1-0.8-0.3-1.9
		c3.7-5.1,10.9-6.3,16.2-2.7c0.2,0.1,0.4,0.3,0.7,0.5c0-0.8,0-1.4,0-2.1c0-0.3-0.2-0.3-0.4-0.4c-4.8-2.6-9.6-2.7-14.4,0.2
		c-0.4,0.2-0.6,0.2-0.8-0.2c0,0-0.1-0.1-0.1-0.1c-0.7-1-0.7-1,0.4-1.6c4.8-2.7,9.6-2.7,14.5-0.6c0.2,0.1,0.4,0.2,0.5,0.3
		c0,0,0.1,0,0.1,0c0.1-0.2,0-0.4,0-0.6c0-2.5,0-5,0-7.5c0-1.1,0.3-1.4,1.3-1.4c3.7,0,7.3,0,11,0c0.5,0,0.7-0.1,0.6-0.6
		c0-0.7,0-1.4,0-2.1c0-1.7-1.2-2.9-2.7-3c-1.5-0.1-2.6,1.1-2.8,2.7c-0.1,0.8-0.4,1.1-1.2,1.1c-1.1,0-2.2,0-3.2,0
		c-0.8,0-1.1-0.4-1.1-1.2c0.1-4.1,3.1-7.5,7-8.2c0.1,0,0.2,0,0.3-0.1H58.5z"/>
	<path style="clip-path:url(#SVGID_00000026143231095888765960000016655442139267272099_);fill:#F37367;" d="M40,66.6h15.5
		c2.7,0,5.4,0,8.2,0c1.5,0,2.2-0.7,2.2-2.3c0-0.3,0-0.6,0-0.9c0.1-0.5-0.1-0.6-0.6-0.6c-5.7,0-11.4,0-17.2,0c-0.8,0-1.4,0.2-2,0.8
		c-0.8,0.8-1.7,1.1-2.8,1.1c-2.2,0-4.4,0-6.5,0c-1,0-2-0.3-2.7-1.1c-0.6-0.6-1.2-0.8-2-0.8c-5.4,0-10.9,0-16.3,0
		c-0.5,0-1.1-0.2-1.3,0.1c-0.3,0.3-0.1,0.9-0.1,1.3c0,1.6,0.7,2.3,2.3,2.3C24.3,66.6,32.1,66.6,40,66.6 M12.3,61.5
		c0.3-0.5,0.8-0.7,1.3-0.6c0.5,0.1,0.6-0.1,0.6-0.6c0-0.9,0-1.9,0-2.8c0-0.3,0.1-0.4,0.4-0.4c1.4,0,1.4,0,1.4,1.4c0,0.6,0,1.2,0,1.7
		c0,0.5,0.1,0.7,0.6,0.7c5,0,10,0,15,0c1.4,0,2.6,0.3,3.6,1.3c0.4,0.4,1,0.6,1.5,0.6c2.1,0,4.3,0,6.4,0c0.6,0,1.2-0.2,1.6-0.6
		c0.9-0.9,2-1.3,3.2-1.3c5.1,0,10.2,0,15.3,0c0.5,0,0.6-0.1,0.6-0.6c0-6.2,0-12.5,0-18.7c0-0.5,0.1-0.6,0.6-0.6c1.2,0,1.2,0,1.2,1.3
		c0,6,0,12,0,18c0,0.5,0.1,0.7,0.6,0.7c1,0,1.2,0.3,1.2,1.3c0,0.9,0,1.7,0,2.6c0,2.1-1.6,3.7-3.6,3.7c-1.7,0-3.3,0-5,0
		c-14,0-28,0-42.1,0c-2.8,0-3.6-0.5-4.6-3.1V61.5z"/>
	<path style="clip-path:url(#SVGID_00000026143231095888765960000016655442139267272099_);fill:#F37367;" d="M40,52.1
		c1.1-1.2,2.1-3,2.6-4.7c0.4-1.4-0.1-2.7-1.4-3.3c-1.4-0.6-3-0.1-3.7,1.1c-0.2,0.4-0.1,0.5,0.3,0.4c1-0.1,1.9,0.1,2.8,0.3
		c0.3,0.1,0.4,0.2,0.3,0.5c-0.2,0.5-0.3,0.9-0.5,1.4C40.3,48.3,40,48.6,40,49C40,50,40,51,40,52.1 M26.2,53.3c3.8,0,7.6,0,11.4,0
		c0.4,0,0.6-0.1,0.5-0.5c0-1.6,0-3.1,0-4.7c0-0.4-0.1-0.5-0.5-0.5c-7.7,0-15.4,0-23,0c-0.4,0-0.5,0.2-0.5,0.5c0,1.5,0,3,0,4.6
		c0,0.5,0.1,0.7,0.6,0.7C18.6,53.3,22.4,53.3,26.2,53.3 M12.3,46.3c0.3-0.5,0.7-0.7,1.3-0.7c5.4,0,10.8,0,16.2,0
		c0.7,0,1.2-0.2,1.6-0.8c0.4-0.4,0.6-0.9,0.8-1.5c1.1-2.9,4-5.4,8.1-5.3c3.3,0.1,6.3,2.3,7.5,5.5c0.6,1.7,0.6,3.4,0.1,5.2
		c-0.9,2.9-2.3,5.5-4.4,7.8c-1.2,1.2-2.4,2.4-3.5,3.7c-0.2,0.2-0.3,0.2-0.5,0c-0.3-0.4-0.9-0.7-0.9-1.1c0-0.4,0.6-0.7,0.9-1
		c1.4-1.5,3-2.9,4.2-4.7c1.2-1.7,2.1-3.6,2.6-5.6c0.9-3.9-1.9-7.7-5.8-7.8c-3.3-0.1-5.5,1.4-6.7,4.5c-0.1,0.3-0.3,0.7-0.5,1.1
		c0.6,0,1.2,0,1.8,0c0.4,0,0.4-0.3,0.4-0.5c0.5-1.5,1.5-2.5,3-3c2.7-0.8,5.3,0.7,5.9,3.3c0.2,0.9,0.1,1.7-0.1,2.5
		c-0.8,2.5-2.1,4.6-3.9,6.5c-1.4,1.5-2.8,2.9-4.2,4.4c-0.3,0.3-0.5,0.3-0.7,0c-0.3-0.3-0.8-0.6-0.8-1c0-0.4,0.5-0.6,0.8-1
		c0.5-0.5,1-1,1.5-1.5c0,0,0-0.1-0.1-0.1c-0.8,0-1.6-0.1-2.4,0c-0.4,0.1-0.8,0.6-1.1,1c-0.3,0.3-0.5,0.3-0.7,0
		c-0.6-0.9-1.5-1.1-2.6-1.1c-5.5,0.1-11,0-16.5,0c-0.6,0-1-0.1-1.3-0.6V46.3z"/>
	<path style="clip-path:url(#SVGID_00000026143231095888765960000016655442139267272099_);fill:#F37367;" d="M17.9,28.8
		c-1.1,0.2-1.8,1.4-1.8,2.7c0,2.9,0,5.9,0,8.8c0,0.7,0,1.4,0,2.1c0,0.3-0.1,0.4-0.4,0.4c-1.4,0-1.4,0-1.4-1.4c0-3.3,0-6.5,0-9.8
		c0-2.3,1.2-4,3.4-4.8c0.4-0.1,0.3-0.3,0.3-0.6c0-2,0-3.9,0-5.9c0-3.1,1.9-5.1,5-5.1c8,0,15.9,0,23.9,0c0.5,0,0.6,0.2,0.6,0.7
		c0,1.2,0,1.2-1.2,1.2c-7.8,0-15.5,0-23.3,0c-2.1,0-3.2,1.1-3.2,3.3c0,7.6,0,15.1,0,22.7c0,0.5-0.1,0.7-0.6,0.7
		c-1.2,0-1.2,0-1.2-1.3V29.5V28.8z"/>
	<path style="clip-path:url(#SVGID_00000026143231095888765960000016655442139267272099_);fill:#F37367;" d="M34.1,22.9
		c3.6,0,7.3,0,10.9,0c0.5,0,0.6,0.1,0.6,0.6c0,1.3,0,1.3-1.3,1.3c-7,0-14.1,0-21.1,0c-0.5,0-0.7-0.1-0.6-0.7c0-1.2,0-1.2,1.2-1.2
		C27.1,22.9,30.6,22.9,34.1,22.9"/>
	<path style="clip-path:url(#SVGID_00000026143231095888765960000016655442139267272099_);fill:#F37367;" d="M60.3,50
		c0-2.8,0-5.6,0-8.4c0-0.4,0.1-0.6,0.5-0.6c1.3,0,1.3,0,1.3,1.4c0,5.4,0,10.7,0,16.1c0,0.5-0.1,0.7-0.6,0.7c-1.2,0-1.2,0-1.2-1.3
		C60.3,55.1,60.3,52.5,60.3,50"/>
	<path style="clip-path:url(#SVGID_00000026143231095888765960000016655442139267272099_);fill:#F37367;" d="M40.5,26.8
		c2.2,0,4.1,0.6,6,1.8c0.3,0.2,0.4,0.3,0.1,0.6c-0.3,0.3-0.5,0.9-0.8,1.1c-0.3,0.1-0.7-0.4-1.1-0.6c-3.1-1.5-6.1-1.4-9.1,0.4
		c-0.4,0.2-0.5,0.2-0.7-0.2c-0.1-0.1-0.2-0.2-0.2-0.4c-0.6-0.8-0.6-0.8,0.3-1.3C36.6,27.4,38.6,26.8,40.5,26.8"/>
	<path style="clip-path:url(#SVGID_00000026143231095888765960000016655442139267272099_);fill:#F37367;" d="M50.8,52
		c0,0.1-0.1,0.2-0.1,0.3c-1,2.5-2.5,4.8-4.3,6.8c-0.3,0.3-0.4,0.3-0.7,0c-0.3-0.3-0.8-0.6-0.9-1c-0.1-0.4,0.5-0.7,0.7-1
		c1.4-1.7,2.5-3.5,3.3-5.5c0.2-0.4,0.3-0.5,0.7-0.3c0.3,0.2,0.6,0.3,0.9,0.4C50.6,51.8,50.8,51.8,50.8,52"/>
	<path style="clip-path:url(#SVGID_00000026143231095888765960000016655442139267272099_);fill:#F37367;" d="M22.5,20
		c0-0.9,0-0.9,0.9-0.9c1,0,1,0,1,1c0,0.9,0,0.9-0.9,0.9C22.5,21,22.5,21,22.5,20"/>
	<path style="clip-path:url(#SVGID_00000026143231095888765960000016655442139267272099_);fill:#F37367;" d="M27,21
		c-0.9,0-0.9,0-0.9-0.9c0-1,0-1,1-1c0.8,0,0.8,0,0.8,0.9C28,21,28,21,27,21"/>
	<path style="clip-path:url(#SVGID_00000026143231095888765960000016655442139267272099_);fill:#F37367;" d="M30.8,21
		c-0.9,0-0.9,0-0.9-1c0-0.9,0-0.9,0.9-0.9c0.9,0,0.9,0,0.9,0.9v0.1C31.7,21,31.7,21,30.8,21"/>
	<path style="clip-path:url(#SVGID_00000026143231095888765960000016655442139267272099_);fill:#F37367;" d="M19.7,58c0,1,0,1-0.9,1
		c-0.9,0-0.9,0-0.9-0.9c0-1,0-1,0.9-1C19.7,57.1,19.7,57.1,19.7,58"/>
	<path style="clip-path:url(#SVGID_00000026143231095888765960000016655442139267272099_);fill:#F37367;" d="M60.1,33.3
		c-0.3-0.8-0.7-1.2-1.4-1.6c-0.8-0.4-0.9-0.9-0.5-1.7c0.3-0.5,0.2-0.9-0.2-1.3c-0.3-0.3-0.9-0.3-1.2,0c-0.4,0.3-0.4,0.8-0.1,1.3
		c0.5,0.8,0.3,1.2-0.5,1.6c-0.5,0.3-1,0.7-1.3,1.3c-0.1,0.2-0.1,0.3,0.2,0.3C56.8,33.3,58.4,33.3,60.1,33.3 M57.5,35.2
		c-1.1,0-2.3,0-3.4,0c-0.9,0-1.2-0.4-1.1-1.3c0.1-1.3,0.6-2.4,1.6-3.2c0.3-0.2,0.3-0.4,0.3-0.8c-0.2-1.6,0.8-3,2.3-3.2
		c1.6-0.2,3,0.9,3.2,2.5c0.1,0.7,0.5,1.6,0.9,2.1c0.6,0.8,0.9,1.7,1,2.7c0.1,0.8-0.3,1.2-1.1,1.2C59.8,35.2,58.7,35.2,57.5,35.2"/>
	<path style="clip-path:url(#SVGID_00000026143231095888765960000016655442139267272099_);fill:#F37367;" d="M17,49.5
		c0.9,0,0.9,0,0.9,0.9c0,1,0,1-1,1c-0.9,0-0.9,0-0.9-0.9C16,49.5,16,49.5,17,49.5"/>
	<path style="clip-path:url(#SVGID_00000026143231095888765960000016655442139267272099_);fill:#F37367;" d="M20.7,49.5
		c0.9,0,0.9,0,0.9,0.9c0,1,0,1-1,1c-0.9,0-0.9,0-0.9-0.9C19.7,49.5,19.7,49.5,20.7,49.5"/>
	<path style="clip-path:url(#SVGID_00000026143231095888765960000016655442139267272099_);fill:#F37367;" d="M24.3,51.4
		c-1,0-0.9,0.1-0.9-0.9c0-1,0-1,1-1c1,0,0.9-0.2,0.9,0.9C25.3,51.4,25.2,51.4,24.3,51.4"/>
	<path style="clip-path:url(#SVGID_00000026143231095888765960000016655442139267272099_);fill:#F37367;" d="M28.9,50.4
		c0,0.9,0,0.9-0.9,0.9c-0.9,0-0.9,0-0.9-1c0-1,0-1,0.9-1C28.9,49.5,28.9,49.5,28.9,50.4"/>
</g>
</svg>
