<?xml version="1.0" encoding="utf-8"?>
<!-- Generator: Adobe Illustrator 25.4.1, SVG Export Plug-In . SVG Version: 6.00 Build 0)  -->
<svg version="1.1" id="Layer_1" xmlns="http://www.w3.org/2000/svg" xmlns:xlink="http://www.w3.org/1999/xlink" x="0px" y="0px"
	 viewBox="0 0 80 80" style="enable-background:new 0 0 80 80;" xml:space="preserve">
<style type="text/css">
	.st0{clip-path:url(#SVGID_00000097472120478985246730000016814038988289231528_);fill:#F37367;}
	.st1{clip-path:url(#SVGID_00000169530411635994630970000001508245367276603323_);fill:#F37367;}
	.st2{clip-path:url(#SVGID_00000159433284713531631660000001318068538261956502_);fill:#F37367;}
	.st3{clip-path:url(#SVGID_00000168795653936090831720000009049231624174985913_);fill:#F37367;}
	.st4{clip-path:url(#SVGID_00000002358391051646023650000001758139642752223636_);fill:#F37367;}
	.st5{clip-path:url(#SVGID_00000019638344341400110030000014973940950719555735_);fill:#F37367;}
	.st6{clip-path:url(#SVGID_00000048461413510449659160000011979741998205020562_);fill:#F37367;}
	.st7{clip-path:url(#SVGID_00000063616496643944168690000011770989264248384190_);fill:#F37367;}
	.st8{clip-path:url(#SVGID_00000124864788324311439940000006808333868408784002_);fill:#F37367;}
	.st9{clip-path:url(#SVGID_00000082356455813982789860000012566094772099461772_);fill:#F37367;}
	.st10{clip-path:url(#SVGID_00000078764039322175721420000014438265269501529748_);fill:#F37367;}
	.st11{clip-path:url(#SVGID_00000089547368775808774430000010475527905392617128_);fill:#F37367;}
	.st12{clip-path:url(#SVGID_00000009578160794032565410000010546835064920259988_);fill:#F37367;}
	.st13{clip-path:url(#SVGID_00000058548874228855120480000015266216894752742319_);fill:#F37367;}
	.st14{clip-path:url(#SVGID_00000103950815813299434940000018402262324230869402_);fill:#F37367;}
	.st15{clip-path:url(#SVGID_00000036945545607261222900000009148954881093638326_);fill:#F37367;}
	.st16{clip-path:url(#SVGID_00000177464728402096510770000016893156969864026773_);fill:#F37367;}
</style>
<g>
	<defs>
		<rect id="SVGID_00000009557505415842325240000011796348328586231179_" x="11.5" y="11.5" width="57" height="57"/>
	</defs>
	<clipPath id="SVGID_00000136383110168159862520000005846547490116536254_">
		<use xlink:href="#SVGID_00000009557505415842325240000011796348328586231179_"  style="overflow:visible;"/>
	</clipPath>
	<path style="clip-path:url(#SVGID_00000136383110168159862520000005846547490116536254_);fill:#F37367;" d="M40,62.3
		c-1.9,0-3.9,0-5.8,0c-0.4,0-0.6,0.1-0.6,0.5c0,1.1,0,2.3,0,3.4c0,0.4,0.2,0.6,0.6,0.6c3.9,0,7.7,0,11.6,0c0.5,0,0.6-0.2,0.6-0.6
		c0-1.1,0-2.1,0-3.2c0-0.5-0.2-0.7-0.7-0.6C43.8,62.3,41.9,62.3,40,62.3 M40,54.5c1.9,0,3.9,0,5.8,0c0.4,0,0.6-0.1,0.6-0.6
		c0-1.1,0-2.2,0-3.3c0-0.4-0.1-0.6-0.6-0.6c-3.9,0-7.7,0-11.6,0c-0.5,0-0.6,0.2-0.6,0.6c0,1.1,0,2.1,0,3.2c0,0.5,0.1,0.7,0.7,0.7
		C36.2,54.5,38.1,54.5,40,54.5 M60.4,66.8c2,0,3.9,0,5.9,0c0.4,0,0.6-0.1,0.6-0.5c0-1.1,0-2.3,0-3.4c0-0.4-0.2-0.5-0.5-0.5
		c-3.9,0-7.8,0-11.7,0c-0.4,0-0.5,0.2-0.5,0.6c0,1.1,0,2.2,0,3.3c0,0.5,0.2,0.6,0.6,0.6C56.6,66.8,58.5,66.8,60.4,66.8 M19.5,54.5
		c1.9,0,3.9,0,5.8,0c0.4,0,0.6-0.1,0.6-0.6c0-1.1,0-2.2,0-3.3c0-0.5-0.2-0.6-0.6-0.6c-3.9,0-7.8,0-11.6,0c-0.5,0-0.6,0.2-0.6,0.6
		c0,1.1,0,2.2,0,3.2c0,0.5,0.2,0.7,0.7,0.7C15.8,54.5,17.7,54.5,19.5,54.5 M40.1,56.2c-1.9,0-3.9,0-5.8,0c-0.4,0-0.6,0.1-0.6,0.6
		c0,1.1,0,2.2,0,3.3c0,0.5,0.2,0.6,0.6,0.6c3.9,0,7.7,0,11.6,0c0.5,0,0.6-0.2,0.6-0.7c0-1.1,0-2.1,0-3.2c0-0.5-0.2-0.7-0.7-0.7
		C43.8,56.2,41.9,56.2,40.1,56.2 M60.5,60.7c1.9,0,3.9,0,5.8,0c0.5,0,0.6-0.1,0.6-0.6c0-1.1,0-2.2,0-3.3c0-0.5-0.1-0.6-0.6-0.6
		c-3.9,0-7.8,0-11.6,0c-0.4,0-0.6,0.1-0.6,0.6c0,1.1,0,2.1,0,3.2c0,0.8,0,0.8,0.7,0.8C56.7,60.7,58.6,60.7,60.5,60.7 M19.6,60.7
		c1.9,0,3.9,0,5.8,0c0.4,0,0.6-0.1,0.6-0.6c0-1.1,0-2.2,0-3.3c0-0.4-0.1-0.6-0.6-0.6c-3.9,0-7.8,0-11.7,0c-0.4,0-0.6,0.1-0.6,0.6
		c0,1.1,0,2.2,0,3.3c0,0.6,0.2,0.7,0.7,0.7C15.8,60.7,17.7,60.7,19.6,60.7 M68.5,67c-0.5,1.1-1.4,1.5-2.6,1.5c-3.8-0.1-7.5,0-11.3,0
		c-1.5,0-2.3-0.7-2.3-2.2c0-1.1,0-2.2,0-3.3c0-0.4,0-0.8,0.2-1.2c0-0.1,0.1-0.2,0.1-0.3c-0.5-0.8-0.3-1.7-0.3-2.5
		c0-0.8-0.1-1.6,0-2.4c0.1-0.8,0.1-1.5,0-2.3c-0.1-1.3,0-2.6,0-3.8c0-1.2,0.8-2,2-2c1.5,0,3.1,0,4.6,0c0.4,0,0.5-0.1,0.5-0.5
		c0-1.2,0-2.5,0-3.7c0-0.3-0.1-0.4-0.4-0.4c-5.9,0-11.8,0-17.7,0c-0.4,0-0.5,0.1-0.5,0.5c0,1.2,0,2.4,0,3.7c0,0.4,0.1,0.5,0.5,0.5
		c1.5,0,3.1,0,4.6,0c1.3,0,2.1,0.8,2.1,2.1c0,1.2,0.1,2.4,0,3.6c-0.1,0.9-0.1,1.7,0,2.6c0.1,1.2,0.1,2.4,0,3.6
		c-0.1,0.9-0.1,1.7,0,2.6c0.1,1.2,0,2.4,0,3.6c0,1.3-0.8,2.1-2.1,2.1c-4,0-7.9,0-11.9,0c-1.3,0-2.1-0.8-2.1-2.1c0-1.2-0.1-2.5,0-3.7
		c0.1-0.8,0.1-1.6,0-2.5c-0.1-1.2-0.1-2.5,0-3.7c0.1-0.8,0.1-1.6,0-2.5c-0.1-1.2,0-2.5,0-3.7c0-1.3,0.8-2,2.1-2c1.6,0,3.1,0,4.7,0
		c0.4,0,0.5-0.1,0.5-0.5c0-1.2,0-2.5,0-3.7c0-0.4-0.1-0.5-0.5-0.5c-5.9,0-11.8,0-17.7,0c-0.4,0-0.5,0.1-0.5,0.5c0,1.2,0,2.4,0,3.7
		c0,0.4,0.1,0.5,0.5,0.5c1.5,0,3,0,4.5,0c1.4,0,2.2,0.8,2.2,2.2c0,1.2,0,2.3,0,3.5c0,0.4,0,0.8-0.2,1.1c0,0.1-0.1,0.2-0.1,0.3
		c0.5,1,0.3,2,0.3,3.1c0,1,0.2,2-0.3,3c0,0,0,0.1,0,0.2c0.5,0.8,0.2,1.8,0.3,2.7c0,0.8,0,1.5,0,2.3c0,1.1-0.8,1.9-1.9,1.9
		c-1.1,0-2.2,0-3.2,0c-0.6,0-1-0.3-1-0.8c0-0.5,0.4-0.8,1-0.8c1,0,1.9,0,2.9,0c0.4,0,0.6-0.1,0.6-0.6c0-1.1,0-2.3,0-3.4
		c0-0.4-0.2-0.5-0.6-0.5c-3.9,0-7.8,0-11.7,0c-0.4,0-0.6,0.2-0.6,0.6c0,1.1,0,2.2,0,3.3c0,0.5,0.2,0.6,0.7,0.6c1.5,0,3.1,0,4.6,0
		c0.7,0,1.1,0.6,0.9,1.1c-0.1,0.3-0.4,0.5-0.8,0.5c-1.7,0-3.5,0-5.2,0c-1,0-1.8-0.8-1.8-1.8c0-1.4-0.1-2.8,0-4.1
		c0.1-0.7,0-1.4,0-2.1c-0.1-1.3-0.1-2.7,0-4c0.1-0.7,0.1-1.4,0-2.2c-0.1-1.3-0.1-2.7,0-4c0-1.1,0.9-1.9,2-1.9c1.6,0,3.2,0,4.8,0
		c0.4,0,0.5-0.1,0.5-0.5c0-1.5,0-3.1,0-4.6c0-0.9,0.3-1.2,1.2-1.2c6.1,0,12.3,0,18.4,0c0.5,0,0.8-0.1,0.7-0.7c-0.1-0.6,0-1.3,0-1.9
		c0-0.3-0.1-0.4-0.4-0.4c-2-0.1-4-0.4-5.9-1c-0.2-0.1-0.4,0-0.6,0.1c-5.1,3-10.8-0.4-11.8-5.4c-0.9-4.3,2.3-8.7,6.6-9.2
		c0.4,0,0.9,0,1.1-0.2c0.3-0.2,0.1-0.7,0.1-1.1c0.4-5.3,4.8-10,10.1-10.6c0.1,0,0.3-0.1,0.4-0.1h2.2c0.7,0.1,1.4,0.3,2.1,0.4
		c1.4,0.4,2.7,1,3.9,1.9c0.6,0.4,0.7,0.9,0.4,1.4c-0.3,0.4-0.8,0.4-1.4,0c-5.8-4.3-13.9-1.4-15.8,5.5c-0.2,0.8-0.3,1.6-0.3,2.5
		c0,1.2-0.6,1.8-1.8,1.9c-3.3,0.1-5.9,2.6-6.1,5.9c-0.2,3,2.1,5.9,5.2,6.5c1.5,0.3,3,0,4.3-0.9c0.6-0.4,1.2-0.4,1.8-0.2
		c4.4,1.2,8.9,1.2,13.3,0c0.6-0.2,1.2-0.1,1.7,0.2c2.3,1.4,5,1.3,7.1-0.4c2.1-1.6,2.9-4.3,2.2-6.7c-0.8-2.5-3-4.3-5.6-4.4
		c-1.6-0.1-2.1-0.6-2.1-2.2c0-1.7-0.5-3.3-1.4-4.8c-0.1-0.2-0.3-0.4-0.3-0.7c0-0.4,0.2-0.7,0.6-0.9c0.4-0.1,0.8,0,1,0.4
		c0.8,1.2,1.3,2.5,1.6,3.9c0.1,0.7,0.3,1.4,0.2,2c0,0.4,0.1,0.5,0.5,0.5c3.7,0.3,6.6,2.8,7.3,6.3c0.6,3.3-0.5,6-3.2,8
		c-2.6,1.9-5.5,2-8.4,0.5c-0.4-0.2-0.7-0.2-1.1-0.1c-1.8,0.5-3.6,0.8-5.5,0.9c-0.4,0-0.5,0.1-0.5,0.5c0,0.7,0,1.4,0,2.1
		c0,0.3,0.1,0.5,0.4,0.4c0.9,0,1.7,0,2.6,0c5.3,0,10.7,0,16,0c1.1,0,1.3,0.2,1.3,1.3c0,1.5,0,2.9,0,4.4c0,0.5,0.2,0.7,0.6,0.6
		c0.2,0,0.4,0,0.6,0c0.4,0.1,0.7,0.4,0.7,0.8c0,0.5-0.3,0.8-0.7,0.9c-0.2,0-0.3,0-0.5,0c-2.4,0-4.8,0-7.2,0c-0.5,0-0.7,0.1-0.6,0.6
		c0,1.1,0,2.2,0,3.3c0,0.4,0.1,0.5,0.5,0.5c3.9,0,7.9,0,11.8,0c0.3,0,0.5-0.1,0.5-0.5c0-1.2,0-2.3,0-3.5c0-0.4-0.1-0.5-0.5-0.5
		c-0.1,0-0.3,0-0.4,0c-0.5,0-0.9-0.4-0.9-0.8c0-0.5,0.4-0.8,0.9-0.9c1.2-0.1,2,0.3,2.5,1.5v4.9c-0.4,0.4-0.3,0.9,0,1.3v4.8
		c-0.3,0.4-0.4,0.9,0,1.3V67z"/>
	<path style="clip-path:url(#SVGID_00000136383110168159862520000005846547490116536254_);fill:#F37367;" d="M45.2,20.6
		c0-0.3,0-0.4,0-0.6c0.1-0.5,0.4-0.7,0.8-0.7c0.5,0,0.8,0.3,0.8,0.7c0,1,0,2-0.1,2.9c0,0.4-0.4,0.6-0.8,0.7c-0.9,0-1.8,0.1-2.7,0.1
		c-0.5,0-0.8-0.3-0.8-0.7c-0.1-0.4,0.2-0.8,0.7-0.9c0.3,0,0.6-0.1,1-0.1c-1-0.9-2.1-1.4-3.4-1.5c-3.8-0.4-6.8,2.2-7,5.9
		c0,0.1,0,0.3,0,0.4c-0.1,0.5-0.4,0.8-0.9,0.7c-0.5-0.1-0.7-0.3-0.7-0.8c0-1,0.2-2,0.5-2.9c1.9-4.9,7.9-6.6,12.1-3.5
		C44.9,20.3,45,20.4,45.2,20.6"/>
	<path style="clip-path:url(#SVGID_00000136383110168159862520000005846547490116536254_);fill:#F37367;" d="M34.8,32.7
		c0,0.3,0,0.5,0,0.6c-0.1,0.5-0.4,0.7-0.8,0.7c-0.5,0-0.8-0.3-0.8-0.8c0-1,0-1.9,0.1-2.9c0-0.4,0.3-0.7,0.8-0.7
		c0.9,0,1.9-0.1,2.8-0.1c0.5,0,0.8,0.3,0.8,0.8c0,0.5-0.2,0.8-0.7,0.9c-0.3,0-0.6,0.1-1,0.1c0.6,0.6,1.2,0.9,1.9,1.2
		c3.9,1.5,8.2-1.2,8.5-5.3c0-0.2,0-0.3,0-0.5c0.1-0.6,0.4-0.9,0.9-0.9c0.5,0,0.8,0.4,0.8,1c0,1-0.2,1.9-0.5,2.8
		c-1.9,4.9-7.9,6.6-12.1,3.5C35.2,32.9,35,32.8,34.8,32.7"/>
	<path style="clip-path:url(#SVGID_00000136383110168159862520000005846547490116536254_);fill:#F37367;" d="M57,52.3
		c0,0.2,0,0.4,0,0.7c-0.1,0.5-0.3,0.7-0.8,0.7c-0.5,0-0.8-0.3-0.8-0.7c0-0.4,0-0.8,0-1.2c0-0.5,0.3-0.9,0.8-0.9
		c0.5,0,0.8,0.3,0.8,0.8C57,52,57,52.1,57,52.3L57,52.3z"/>
	<path style="clip-path:url(#SVGID_00000136383110168159862520000005846547490116536254_);fill:#F37367;" d="M16.1,64.5
		c0,0.2,0,0.4,0,0.6c-0.1,0.5-0.3,0.7-0.8,0.8c-0.5,0-0.8-0.3-0.8-0.8c0-0.4,0-0.8,0-1.2c0-0.5,0.3-0.8,0.8-0.8
		c0.5,0,0.8,0.3,0.8,0.8C16.2,64.1,16.1,64.3,16.1,64.5C16.1,64.5,16.1,64.5,16.1,64.5"/>
	<path style="clip-path:url(#SVGID_00000136383110168159862520000005846547490116536254_);fill:#F37367;" d="M14.5,58.4
		c0-0.2,0-0.5,0-0.7c0.1-0.4,0.4-0.7,0.8-0.7c0.4,0,0.8,0.2,0.8,0.7c0,0.5,0,0.9,0,1.4c0,0.4-0.4,0.7-0.8,0.7
		c-0.4,0-0.7-0.2-0.8-0.7C14.5,58.9,14.5,58.6,14.5,58.4"/>
	<path style="clip-path:url(#SVGID_00000136383110168159862520000005846547490116536254_);fill:#F37367;" d="M57,58.4
		c0,0.2,0,0.4,0,0.7c-0.1,0.4-0.4,0.7-0.8,0.7c-0.4,0-0.8-0.2-0.8-0.7c0-0.5,0-0.9,0-1.4c0-0.4,0.3-0.7,0.8-0.7
		c0.5,0,0.8,0.3,0.8,0.7C57,58,57,58.2,57,58.4L57,58.4z"/>
	<path style="clip-path:url(#SVGID_00000136383110168159862520000005846547490116536254_);fill:#F37367;" d="M36.6,58.4
		c0,0.2,0,0.4,0,0.6c0,0.5-0.4,0.8-0.8,0.8c-0.4,0-0.8-0.3-0.8-0.8c0-0.4,0-0.7,0-1.1c0-0.5,0.4-0.9,0.8-0.9s0.8,0.3,0.8,0.9
		C36.6,58.1,36.6,58.2,36.6,58.4"/>
	<path style="clip-path:url(#SVGID_00000136383110168159862520000005846547490116536254_);fill:#F37367;" d="M14.5,52.3
		c0-0.2,0-0.4,0-0.7c0.1-0.4,0.4-0.7,0.8-0.7c0.4,0,0.8,0.2,0.8,0.7c0,0.4,0,0.9,0,1.3c0,0.5-0.3,0.7-0.8,0.7
		c-0.5,0-0.8-0.3-0.8-0.7C14.5,52.8,14.5,52.5,14.5,52.3C14.5,52.3,14.5,52.3,14.5,52.3"/>
	<path style="clip-path:url(#SVGID_00000136383110168159862520000005846547490116536254_);fill:#F37367;" d="M57,64.5
		c0,0.2,0,0.4,0,0.7c-0.1,0.4-0.3,0.7-0.8,0.7c-0.5,0-0.8-0.2-0.8-0.7c0-0.4,0-0.8,0-1.3c0-0.5,0.3-0.7,0.8-0.8
		c0.5,0,0.8,0.3,0.8,0.8C57,64.1,57,64.3,57,64.5C57,64.5,57,64.5,57,64.5"/>
	<path style="clip-path:url(#SVGID_00000136383110168159862520000005846547490116536254_);fill:#F37367;" d="M36.6,52.4
		c0,0.2,0,0.4,0,0.6c0,0.5-0.4,0.8-0.8,0.8c-0.5,0-0.8-0.3-0.8-0.8c0-0.4,0-0.8,0-1.2c0-0.5,0.4-0.8,0.8-0.8c0.5,0,0.7,0.3,0.8,0.8
		C36.6,51.9,36.6,52.2,36.6,52.4"/>
	<path style="clip-path:url(#SVGID_00000136383110168159862520000005846547490116536254_);fill:#F37367;" d="M34.9,64.5
		c0-0.2,0-0.4,0-0.6c0-0.5,0.4-0.8,0.8-0.8c0.5,0,0.8,0.3,0.8,0.8c0,0.4,0,0.8,0,1.2c0,0.5-0.4,0.8-0.8,0.8c-0.5,0-0.8-0.3-0.8-0.8
		C34.9,64.8,34.9,64.6,34.9,64.5"/>
</g>
</svg>
