<?xml version="1.0" encoding="utf-8"?>
<!-- Generator: Adobe Illustrator 25.4.1, SVG Export Plug-In . SVG Version: 6.00 Build 0)  -->
<svg version="1.1" id="Layer_1" xmlns="http://www.w3.org/2000/svg" xmlns:xlink="http://www.w3.org/1999/xlink" x="0px" y="0px"
	 viewBox="0 0 80 80" style="enable-background:new 0 0 80 80;" xml:space="preserve">
<style type="text/css">
	.st0{clip-path:url(#SVGID_00000111172622208162973350000005618545205429365679_);fill:#F37367;}
	.st1{clip-path:url(#SVGID_00000111186795413105912560000013437997259434771116_);fill:#F37367;}
	.st2{clip-path:url(#SVGID_00000158712881504997001590000003198389547842588062_);fill:#F37367;}
	.st3{clip-path:url(#SVGID_00000070086725960963789580000011030771784808253607_);fill:#F37367;}
	.st4{clip-path:url(#SVGID_00000002345067256481269440000007075209891932880529_);fill:#F37367;}
	.st5{clip-path:url(#SVGID_00000147913076913176434860000003824272252966481078_);fill:#F37367;}
	.st6{clip-path:url(#SVGID_00000065797527560744711930000001382342650512350352_);fill:#F37367;}
	.st7{clip-path:url(#SVGID_00000169520666419559149630000010502765236678988441_);fill:#F37367;}
	.st8{clip-path:url(#SVGID_00000153666660073844585420000015980884082385996725_);fill:#F37367;}
	.st9{clip-path:url(#SVGID_00000121243343723104676630000000733696819132407206_);fill:#F37367;}
	.st10{clip-path:url(#SVGID_00000077281802663318164620000017516194162392764586_);fill:#F37367;}
	.st11{clip-path:url(#SVGID_00000070832402963364838110000002076386937572251297_);fill:#F37367;}
	.st12{clip-path:url(#SVGID_00000092423877473914786990000010584706213520505773_);fill:#F37367;}
	.st13{clip-path:url(#SVGID_00000183235091328604835570000014461987963890956206_);fill:#F37367;}
	.st14{clip-path:url(#SVGID_00000175317664779081390640000008285171248566054323_);fill:#F37367;}
	.st15{clip-path:url(#SVGID_00000130637076148724450390000008050742334349782670_);fill:#F37367;}
	.st16{clip-path:url(#SVGID_00000122682615016046827540000013702478438159745708_);fill:#F37367;}
</style>
<g>
	<defs>
		<rect id="SVGID_00000108301058455914856970000012346190125648764581_" x="11.7" y="11.5" width="56.6" height="57"/>
	</defs>
	<clipPath id="SVGID_00000109734030571924004410000002988564770146797746_">
		<use xlink:href="#SVGID_00000108301058455914856970000012346190125648764581_"  style="overflow:visible;"/>
	</clipPath>
	<path style="clip-path:url(#SVGID_00000109734030571924004410000002988564770146797746_);fill:#F37367;" d="M52.3,11.5
		c1.1,0.3,2.2,0.6,3.1,1.3c1.7,1.3,2.6,3,2.6,5.1c0,5.9,0,11.8,0,17.7c0,0.6-0.3,1-0.9,1c-0.5,0-0.8-0.4-0.8-1.1
		c0-5.7,0-11.4,0-17.1c0-1-0.1-1.9-0.6-2.8c-1-1.7-2.5-2.5-4.4-2.5c-5.7,0-11.3,0-17,0c-0.2,0-0.3,0-0.5,0c-0.3,0-0.6-0.2-0.7-0.5
		c-0.1-0.3-0.1-0.7,0.2-0.9c0.1-0.1,0.1-0.2,0.2-0.2H52.3z"/>
	<path style="clip-path:url(#SVGID_00000109734030571924004410000002988564770146797746_);fill:#F37367;" d="M30.7,11.5
		c0.3,0.3,0.7,0.6,0.5,1.1c-0.2,0.5-0.6,0.5-1.1,0.5c-0.9,0-1.7-0.1-2.6,0.2c-2,0.6-3.5,2.4-3.5,4.5c0,1.4,0,2.7,0,4.1
		c0,0.4-0.1,0.8-0.5,1c-0.5,0.2-1.2,0-1.2-0.6c0-2-0.3-4,0.2-5.9c0.7-2.8,2.5-4.4,5.3-4.9c0.1,0,0.2-0.1,0.3-0.1H30.7z"/>
	<path style="clip-path:url(#SVGID_00000109734030571924004410000002988564770146797746_);fill:#F37367;" d="M68.3,49.8
		c0,1.6,0.1,3.6-0.2,5.5c-0.9,6.3-6.1,11.8-12.3,13.1c-0.2,0.1-0.5,0-0.7,0c-6.7-1.6-11.7-7.4-12.3-14.3c0-0.6-0.1-1.1-0.1-1.7
		c0-0.7,0.3-1,0.8-1c0.5,0,0.8,0.4,0.8,1c0,3.3,0.9,6.2,2.8,8.9c2,2.7,4.6,4.5,7.9,5.5c0.3,0.1,0.6,0.1,1,0
		c5.7-1.6,9.9-6.5,10.5-12.4c0.2-2.5,0-5,0.1-7.5c0.1-1.1-0.3-1.6-1.2-2.1c-3.2-1.6-6.3-3.2-9.4-4.9c-0.3-0.2-0.6-0.2-0.9,0
		c-3.4,1.8-6.8,3.5-10.2,5.3c-0.4,0.2-0.5,0.4-0.5,0.8c0,0.9,0,1.7,0,2.6c0,0.6-0.3,0.9-0.8,0.9c-0.5,0-0.9-0.4-0.9-1c0-1,0-2,0-3.1
		c0-0.7,0.3-1.2,1-1.6c3.7-1.9,7.3-3.8,11-5.7c0.5-0.3,1.1-0.3,1.7,0c3.7,1.9,7.3,3.8,11,5.7c0.7,0.3,1,0.9,1,1.6
		C68.3,46.9,68.3,48.2,68.3,49.8"/>
	<path style="clip-path:url(#SVGID_00000109734030571924004410000002988564770146797746_);fill:#F37367;" d="M17.7,34.2
		c0.1-0.2,0.2-0.2,0.3-0.4c0.5-0.9,1.2-1.1,2.2-1.1c4.1,0.1,8.2,0,12.4,0c1.8,0,2.6-0.9,2.6-2.6c0-0.5,0-0.9,0-1.4
		c0-1.5-0.9-2.4-2.4-2.4c-3.9,0-7.8,0-11.6,0c-0.2,0-0.4,0-0.6,0c-0.4-0.1-0.7-0.4-0.6-0.8c0-0.5,0.3-0.7,0.7-0.8c0.1,0,0.2,0,0.3,0
		c3.9,0,7.9,0,11.8,0c2,0,3.6,1.2,4,3c0.3,1.2,0.3,2.5,0,3.6c-0.4,1.9-2,3-4,3c-4.2,0-8.3,0-12.5,0c-0.5,0-0.8,0.1-1.1,0.5
		c-0.3,0.4-0.6,0.8-0.9,1.2c-0.4,0.5-0.9,0.6-1.4,0.4C16.3,36.4,16,36,16,35.3c0-0.1,0-0.2,0-0.3c0.1-0.4-0.1-0.5-0.5-0.5
		c-2.1-0.1-3.7-1.8-3.7-3.9c0-0.9-0.1-1.8,0.1-2.7c0.4-1.8,1.9-3.1,3.7-3.1c0.5,0,1,0,1.6,0c0.5,0,0.9,0.4,0.9,0.8
		c0,0.5-0.4,0.8-0.9,0.8c-0.5,0-1,0-1.5,0c-1.2,0.1-2.1,1-2.2,2.2c0,0.7,0,1.3,0,2c0,1.2,1,2.1,2.2,2.2c0.2,0,0.5,0,0.7,0
		C17.4,32.8,17.6,33,17.7,34.2"/>
	<path style="clip-path:url(#SVGID_00000109734030571924004410000002988564770146797746_);fill:#F37367;" d="M54.7,26.8
		c0,2.8,0,5.7,0,8.5c0,0.2,0,0.4,0,0.6c-0.1,0.4-0.3,0.6-0.7,0.7c-0.4,0-0.7-0.1-0.8-0.5c-0.1-0.2-0.1-0.5-0.1-0.8
		c0-5.6,0-11.2,0-16.8c0-1.4-0.5-2-2-2c-0.8,0-1.5,0-2.3,0c-0.3,0-0.6,0.1-0.7,0.4c-0.1,0.3-0.3,0.6-0.4,0.8c-0.4,0.6-0.9,1-1.6,1
		c-3.9,0-7.8,0-11.7,0c-0.8,0-1.5-0.4-1.7-1.2c-0.3-0.9-0.9-1.2-1.8-1.1c-0.6,0.1-1.3,0-1.9,0c-1,0-1.6,0.6-1.6,1.6
		c0,1.2,0,2.4,0,3.7c0,0.2,0,0.4,0,0.6c-0.1,0.4-0.4,0.7-0.8,0.7c-0.5,0-0.8-0.3-0.8-0.8c0-1.5-0.1-3.1,0-4.6c0.1-1.5,1.5-2.7,3-2.8
		c1.1,0,2.2,0,3.3,0c0.8,0,1.5,0.5,1.8,1.2c0.3,0.8,0.8,1,1.7,1c3.4-0.1,6.8,0,10.2,0c0.5,0,0.8-0.1,0.9-0.6
		c0.1-0.2,0.2-0.4,0.3-0.5c0.4-0.7,1-1.1,1.9-1.1c0.9,0,1.8,0,2.7,0c2.1,0,3.4,1.4,3.4,3.4C54.7,21.1,54.7,23.9,54.7,26.8"/>
	<path style="clip-path:url(#SVGID_00000109734030571924004410000002988564770146797746_);fill:#F37367;" d="M22.2,49.8
		c0-4.1,0-8.2,0-12.3c0-0.2,0-0.4,0-0.6c0-0.5,0.3-0.7,0.8-0.7c0.4,0,0.7,0.2,0.8,0.6c0.1,0.2,0.1,0.5,0.1,0.7c0,8.1,0,16.1,0,24.2
		c0,2.6,1.6,4.5,4,5c0.4,0.1,0.9,0.1,1.3,0.1c6,0,12,0,18,0c0.2,0,0.5,0,0.7,0.1c0.4,0.1,0.6,0.4,0.6,0.8c0,0.4-0.3,0.7-0.7,0.7
		c-0.2,0-0.4,0-0.6,0c-6,0-12.1,0-18.1,0c-4,0-6.8-2.8-6.8-6.8C22.2,57.7,22.2,53.7,22.2,49.8"/>
	<path style="clip-path:url(#SVGID_00000109734030571924004410000002988564770146797746_);fill:#F37367;" d="M55.5,59.5
		c4,0,7.1-3.2,7.1-7.2c0-3.9-3.2-7.1-7.2-7.1c-3.9,0-7.1,3.2-7.1,7.1C48.4,56.3,51.6,59.5,55.5,59.5 M55.5,61.2
		c-4.9,0-8.8-4-8.8-8.9c0-4.8,4-8.7,8.8-8.7c4.9,0,8.8,4,8.8,8.9C64.3,57.3,60.3,61.2,55.5,61.2"/>
	<path style="clip-path:url(#SVGID_00000109734030571924004410000002988564770146797746_);fill:#F37367;" d="M27.2,49.5
		c0,4,0,8,0,12c0,1.4,0.5,1.9,2,1.9c4.9,0,9.7,0,14.6,0c0.2,0,0.5,0,0.7,0.1c0.4,0.1,0.6,0.4,0.6,0.8c0,0.4-0.3,0.7-0.7,0.7
		c-0.2,0-0.3,0-0.5,0c-4.9,0-9.8,0-14.7,0c-2.3,0-3.6-1.3-3.6-3.6c0-8.1,0-16.1,0-24.2c0-0.1,0-0.3,0-0.4c0-0.5,0.3-0.8,0.8-0.8
		c0.4,0,0.7,0.2,0.8,0.7c0,0.2,0,0.4,0,0.6C27.2,41.5,27.2,45.5,27.2,49.5"/>
	<path style="clip-path:url(#SVGID_00000109734030571924004410000002988564770146797746_);fill:#F37367;" d="M60.8,50.4
		c0,0.3-0.1,0.5-0.3,0.7c-1.4,1.6-2.9,3.3-4.3,4.9c-0.4,0.4-0.8,0.5-1.2,0.2c-1-0.6-2-1.2-3-1.9c-0.5-0.3-0.6-0.8-0.3-1.2
		c0.3-0.4,0.8-0.5,1.3-0.2c0.7,0.4,1.4,0.8,2.1,1.3c0.3,0.2,0.5,0.2,0.7-0.1c1.2-1.4,2.4-2.7,3.5-4.1c0.4-0.5,0.9-0.5,1.3-0.2
		C60.7,49.9,60.8,50.1,60.8,50.4"/>
</g>
</svg>
