<?xml version="1.0" encoding="utf-8"?>
<!-- Generator: Adobe Illustrator 25.4.1, SVG Export Plug-In . SVG Version: 6.00 Build 0)  -->
<svg version="1.1" id="Layer_1" xmlns="http://www.w3.org/2000/svg" xmlns:xlink="http://www.w3.org/1999/xlink" x="0px" y="0px"
	 viewBox="0 0 80 80" style="enable-background:new 0 0 80 80;" xml:space="preserve">
<style type="text/css">
	.st0{clip-path:url(#SVGID_00000181767297519684234280000011026398664234593455_);fill:#F37367;}
	.st1{clip-path:url(#SVGID_00000093160273894333136700000011733592026449630089_);fill:#F37367;}
	.st2{clip-path:url(#SVGID_00000140716033873706418770000013254842903422418599_);fill:#F37367;}
	.st3{clip-path:url(#SVGID_00000062165347156357068090000002272367400074347687_);fill:#F37367;}
	.st4{clip-path:url(#SVGID_00000170250397896937495520000012209820957544788125_);fill:#F37367;}
	.st5{clip-path:url(#SVGID_00000052825157245034106210000011705083876562042508_);fill:#F37367;}
	.st6{clip-path:url(#SVGID_00000016777801629133071630000011945982541403828128_);fill:#F37367;}
	.st7{clip-path:url(#SVGID_00000127741485272195142850000011300046875392067736_);fill:#F37367;}
	.st8{clip-path:url(#SVGID_00000031920212260114920070000012425688733997049991_);fill:#F37367;}
	.st9{clip-path:url(#SVGID_00000116954620954418790710000012997706842206976661_);fill:#F37367;}
	.st10{clip-path:url(#SVGID_00000016058333168365402990000003903628831632082580_);fill:#F37367;}
	.st11{clip-path:url(#SVGID_00000003806189720558801430000014190591188526101120_);fill:#F37367;}
	.st12{clip-path:url(#SVGID_00000114767340916962075390000007801915633787569538_);fill:#F37367;}
	.st13{clip-path:url(#SVGID_00000157300593507142711740000011151752907523407764_);fill:#F37367;}
	.st14{clip-path:url(#SVGID_00000027568100513117415310000001199209443001137537_);fill:#F37367;}
	.st15{clip-path:url(#SVGID_00000162315348606153041820000011852229059569572263_);fill:#F37367;}
	.st16{clip-path:url(#SVGID_00000156582837984366010370000014604184438932712116_);fill:#F37367;}
</style>
<g>
	<defs>
		<rect id="SVGID_00000139280179805237538900000006820203917299111327_" x="11.5" y="11.5" width="57" height="57"/>
	</defs>
	<clipPath id="SVGID_00000037662862475718292780000017960424648047933613_">
		<use xlink:href="#SVGID_00000139280179805237538900000006820203917299111327_"  style="overflow:visible;"/>
	</clipPath>
	<path style="clip-path:url(#SVGID_00000037662862475718292780000017960424648047933613_);fill:#F37367;" d="M59.3,63
		c-0.4-0.6-0.8-1-1.1-1.5c-0.2-0.3-0.4-0.4-0.8-0.4c-2,0-4,0-6,0c-1.4,0-1.4,0-1.4,1.4c0,0,0,0.1,0,0.1c0,0.3,0.1,0.3,0.3,0.3
		C53.4,63,56.3,63,59.3,63 M31.7,63h7.8c1.4,0,1.4,0,1.4-1.4c0-0.3-0.1-0.4-0.4-0.4c-2.4,0-4.7,0-7.1,0c-0.2,0-0.3,0-0.5,0.1
		C32.6,61.8,32.2,62.3,31.7,63 M57.5,45.5c0,0.8,0,1.5,0,2.3c0,0.3,0,0.5,0.4,0.5c1.6,0,3.1,0,4.7,0c0.3,0,0.4-0.1,0.4-0.4
		c0-1.6,0-3.2,0-4.8c0-0.3-0.1-0.4-0.4-0.4c-1.6,0-3.1,0-4.7,0c-0.3,0-0.4,0.1-0.4,0.4C57.5,43.9,57.5,44.7,57.5,45.5 M48.3,60.3
		c0-0.8,0-1.6,0-2.4c0-0.3-0.1-0.4-0.4-0.4c-1.6,0-3.2,0-4.8,0c-0.3,0-0.4,0.1-0.4,0.4c0,1.6,0,3.2,0,4.8c0,0.3,0.1,0.4,0.3,0.4
		c1.6,0,3.2,0,4.8,0c0.3,0,0.4-0.1,0.4-0.4C48.3,61.8,48.3,61,48.3,60.3 M45.5,66.6h13.6c1.2,0,1.1,0,1.2-1.2c0-0.6-0.1-0.7-0.7-0.7
		c-9.2,0-18.3,0-27.5,0c-1.2,0-1.2,0-1.3,1.2c0,0.5,0.1,0.6,0.6,0.6C36.1,66.6,40.8,66.6,45.5,66.6 M24.4,39.1
		c0.5-0.7,1-1.3,1.5-1.9c0.3-0.2,0.3-0.5,0.3-0.9c0-2.7,0-5.4,0-8c0-1.5,0.7-2.2,2.2-2.2c5.7,0,11.4,0,17.2,0c0.5,0,1.1,0.2,1.4-0.1
		c0.2-0.3-0.2-0.9-0.2-1.4c0-0.3-0.2-0.4-0.5-0.4c-6.4,0-12.7,0-19.1,0c-1.6,0-2.7,1.2-2.7,2.8c0,2.9,0,5.8,0,8.7
		C24.4,36.9,24.4,37.9,24.4,39.1 M15.6,66.7c0.7,0,1.3-0.3,1.7-0.8c3.3-3.5,6.6-6.9,9.9-10.4c0.3-0.3,0.2-0.4-0.1-0.6
		c-0.8-0.6-1.5-1.2-2-2c-0.3-0.3-0.4-0.4-0.7-0.1c-2.7,2.6-5.4,5.2-8.1,7.8c-0.8,0.7-1.5,1.4-2.3,2.2c-0.7,0.7-0.8,1.6-0.4,2.5
		C13.9,66.2,14.7,66.6,15.6,66.7 M24.4,45.5c0,5.6,4.5,10.1,10.1,10.1c5.6,0,10.1-4.5,10.1-10.1c0-5.6-4.5-10.2-10.1-10.2
		C28.9,35.4,24.4,39.9,24.4,45.5 M62.9,34.2c-0.1,0.1-0.3,0.2-0.4,0.3c-1.4,1.1-2.9,2-4.5,2.6c-0.4,0.2-0.7,0.1-1.1,0
		c-4.2-1.7-7.2-4.5-9.1-8.6c-0.1-0.3-0.2-0.5-0.6-0.5c-6.3,0-12.5,0-18.8,0c-0.4,0-0.4,0.1-0.4,0.5c0,2.1,0,4.3,0,6.4
		c0,0.2-0.1,0.3,0.1,0.5c0.2-0.1,0.3-0.2,0.5-0.3c2.7-1.5,5.5-1.9,8.5-1.2c6.3,1.5,10.2,7.5,9,13.8c-0.1,0.6,0,0.6,0.5,0.6
		c2.8,0,5.6,0,8.3,0c0.4,0,0.6-0.1,0.6-0.6c0-2.1,0-4.1,0-6.2c0-0.5,0.2-0.6,0.6-0.6c2.1,0,4.2,0,6.3,0c0.4,0,0.5-0.1,0.5-0.5
		c0-2,0-3.9,0-5.9C63,34.4,63,34.3,62.9,34.2 M56.6,13.7c-0.1,0.1-0.2,0.1-0.2,0.2c-2.1,1.9-4.6,3-7.5,3c-0.4,0-0.6,0.2-0.5,0.6
		c0,1.5,0,3,0,4.4c0.2,5.7,2.8,9.9,7.7,12.6c0.2,0.1,0.3,0.2,0.5,0.1v-9.1c0-1.3,0-1.3,1.3-1.3c0.5,0,0.6,0.2,0.6,0.6
		c0,3.1,0,6.2,0,9.3c0,0.2-0.1,0.4,0.1,0.6c0.1,0,0.2,0,0.2-0.1c4.5-2.4,7.2-6.1,7.9-11.2c0.3-2,0.1-4,0.1-6c0-0.5-0.2-0.7-0.7-0.7
		c-1.5,0-2.9-0.4-4.3-1c-1.2-0.5-2.3-1.3-3.2-2.2c0,0.1-0.1,0.1-0.1,0.1c0,1.3,0,2.7,0,4c0,0.9,0,0.9-0.9,0.9c-1,0-1,0-1-1V13.7z
		 M44.6,51.9c-0.9,1.1-1.8,2.3-2.9,3.1c-0.2,0.2-0.5,0.3-0.8,0.6c0.2,0,0.3,0,0.3,0c7.5,0,15.1,0,22.6,0c1.7,0,2.8-1.2,2.8-2.9
		c0-7.6,0-15.2,0-22.7c0-0.1,0.1-0.3-0.1-0.4c-0.4,0.8-0.9,1.5-1.4,2.2c-0.2,0.3-0.3,0.6-0.3,1c0,5.1,0,10.2,0,15.3
		c0,1.4-0.7,2.1-2.1,2.1c-0.3,0-0.5,0-0.8,0c-5.3,0-10.6,0-15.9,0c-0.2,0-0.5-0.1-0.6,0.2C45.2,50.9,44.9,51.4,44.6,51.9L44.6,51.9z
		 M68.5,35.2c0,5.8,0,11.5,0,17.3c0,3-1.9,4.9-5,5c-4.3,0-8.6,0-12.9,0c-0.4,0-0.6,0.1-0.6,0.6c0,1.3,0,1.3,1.3,1.3c2.3,0,4.6,0,7,0
		c0.3,0,0.6,0.1,0.8,0.4c0.9,1.2,1.8,2.4,2.7,3.6c0.2,0.2,0.3,0.4,0.2,0.7c0,1.3,0,2.6,0,4c0,0.4-0.1,0.6-0.5,0.5
		c-1.1,0-2.1,0-3.2,0c-9.6,0-19.2,0-28.7,0c-0.5,0-0.7-0.1-0.7-0.7c0-1.3,0-2.5,0-3.8c0-0.3,0.1-0.6,0.3-0.8
		c0.9-1.2,1.8-2.3,2.6-3.5c0.2-0.3,0.5-0.4,0.8-0.4c2.5,0,5.1,0,7.6,0c0.5,0,0.7-0.1,0.6-0.6c0-1.2,0-1.2-1.3-1.2
		c-2.2,0-4.4,0.1-6.5-0.1c-1.3-0.1-2.4-0.5-3.6-1c-0.3-0.2-0.5-0.1-0.8,0.2c-3.3,3.5-6.7,7.1-10.1,10.6c-1.3,1.4-3.1,1.8-4.7,1.1
		c-2.7-1.2-3.4-4.6-1.3-6.7c2-2,4-3.8,6-5.8c1.6-1.5,3.1-3,4.7-4.5c0.3-0.3,0.4-0.4,0.2-0.8c-0.7-1.5-1.1-3.2-1.1-4.9
		c0-6.1,0-12.2,0-18.3c0-2.7,2-4.7,4.7-4.7c6.2,0,12.4,0,18.6,0c0.5,0,0.7-0.1,0.7-0.6c-0.1-1.5,0-2.9,0-4.4c0-1.4,0.9-2.3,2.3-2.3
		c2.4-0.1,4.6-0.9,6.3-2.6c1.5-1.4,3.3-1.4,4.8,0c1.8,1.7,3.9,2.5,6.3,2.6c1.4,0,2.3,0.9,2.3,2.4C68.5,23.4,68.5,29.3,68.5,35.2"/>
	<path style="clip-path:url(#SVGID_00000037662862475718292780000017960424648047933613_);fill:#F37367;" d="M57.5,22.5
		c-0.9,0-0.9,0-0.9-1.1c0-0.7,0-0.7,1.1-0.7c0.7,0,0.7,0,0.7,1.2C58.4,22.5,58.4,22.5,57.5,22.5"/>
	<path style="clip-path:url(#SVGID_00000037662862475718292780000017960424648047933613_);fill:#F37367;" d="M38.9,29.9
		c1.6,0,3.1,0,4.7,0c1.7,0,2.9,1.2,2.9,2.8c0,0.7,0,1.5,0,2.2c0,0.3-0.1,0.4-0.4,0.4c-1.4,0-1.4,0-1.4-1.4c0-0.3,0-0.7,0-1
		c0-1-0.3-1.3-1.3-1.3c-3,0-6.1,0-9.1,0c-0.5,0-0.6-0.1-0.6-0.6c0-1.2,0-1.2,1.2-1.2C36.2,29.9,37.5,29.9,38.9,29.9"/>
	<path style="clip-path:url(#SVGID_00000037662862475718292780000017960424648047933613_);fill:#F37367;" d="M53.8,42.6
		c0,0.5,0.1,1.1-0.1,1.7c-0.3,1.2-1.3,2-2.6,2.1c-0.8,0-1.6,0-2.5,0c-0.3,0-0.4-0.1-0.4-0.4c0-1.5-0.1-1.5,1.4-1.5
		c0.4,0,0.9,0,1.3,0c0.6,0,1-0.4,1-1c0-0.8,0-1.5,0-2.3c0-0.3,0.1-0.4,0.4-0.4c1.4,0,1.4,0,1.4,1.4V42.6z"/>
	<path style="clip-path:url(#SVGID_00000037662862475718292780000017960424648047933613_);fill:#F37367;" d="M46.4,38.9v-0.3
		c0-1.4,0-1.4,1.5-1.4c0.3,0,0.4,0.1,0.4,0.4c0,0.7,0,1.4,0,2.1c0,0.9,0.3,1.2,1.2,1.2c0.5,0,0.8,0.1,0.7,0.6c0,0,0,0.1,0,0.1
		c0,1.2,0,1.2-1.2,1.1c-1.3-0.2-2.4-1.3-2.4-2.6C46.4,39.7,46.4,39.3,46.4,38.9L46.4,38.9z"/>
	<path style="clip-path:url(#SVGID_00000037662862475718292780000017960424648047933613_);fill:#F37367;" d="M52,39.1
		c-0.5,0-1,0-1.4,0c-0.3,0-0.4-0.1-0.4-0.4c0-1.4,0-1.4,1.4-1.4c0.6,0,1.2,0.1,1.8,0c0.6-0.1,0.6,0.3,0.5,0.7
		c-0.1,0.4,0.5,1.2-0.5,1.2C52.8,39.1,52.4,39.1,52,39.1"/>
	<path style="clip-path:url(#SVGID_00000037662862475718292780000017960424648047933613_);fill:#F37367;" d="M31.7,30.8
		c0,0.9,0,0.9-1.1,0.9c-0.8,0-0.8,0-0.8-1.1c0-0.7,0-0.7,1.2-0.7C31.7,29.9,31.7,29.9,31.7,30.8"/>
	<path style="clip-path:url(#SVGID_00000037662862475718292780000017960424648047933613_);fill:#F37367;" d="M44.6,51.9
		c0.5,0,1,0,1.5,0c0.2,0,0.4,0.1,0.3,0.3c0,0,0,0.1,0,0.1c0,1.5,0,1.6-1.5,1.4c-0.3,0-0.3-0.1-0.3-0.3
		C44.6,52.9,44.6,52.4,44.6,51.9C44.6,51.9,44.6,51.9,44.6,51.9"/>
	<path style="clip-path:url(#SVGID_00000037662862475718292780000017960424648047933613_);fill:#F37367;" d="M49.1,53.8
		c-0.9,0-0.9,0-0.9-0.9c0-1,0-1,0.9-1c0.9,0,0.9,0,0.9,0.9C50.1,53.8,50.1,53.8,49.1,53.8"/>
	<path style="clip-path:url(#SVGID_00000037662862475718292780000017960424648047933613_);fill:#F37367;" d="M29.9,41.1
		c-1.6,1.6-2.2,3.9-1.7,5.9c0.9,3.4,4.2,5.6,7.6,4.8c3.4-0.8,5.6-4.1,4.9-7.5c-0.7-3.9-5-6.2-8.7-4.7c-0.2,0.1-0.4,0.2-0.4,0.5
		c0,1.2,0,2.4,0,3.6c0,0.6,0.4,0.9,0.9,0.9c0.4,0,0.9,0,1.3,0c1.5,0,1.5,0,1.4,1.5c0,0.3-0.1,0.4-0.4,0.4c-0.8,0-1.5,0-2.3,0
		c-1.7,0-2.8-1.2-2.9-2.9C29.9,42.8,29.9,42,29.9,41.1 M26.2,45.5c0-4.6,3.8-8.3,8.3-8.2c4.5,0,8.2,3.8,8.2,8.3
		c0,4.6-3.8,8.3-8.3,8.2C29.9,53.8,26.2,50,26.2,45.5"/>
	<path style="clip-path:url(#SVGID_00000037662862475718292780000017960424648047933613_);fill:#F37367;" d="M61.2,45.5
		c0,0.9,0,0.9-1.1,0.9c-0.8,0-0.8,0-0.8-1.1c0-0.7,0-0.7,1.2-0.7C61.2,44.6,61.2,44.6,61.2,45.5"/>
	<path style="clip-path:url(#SVGID_00000037662862475718292780000017960424648047933613_);fill:#F37367;" d="M39.1,44.8
		c0,0.4,0,0.9,0,1.3c0,0.2-0.1,0.4-0.3,0.3c0,0,0,0-0.1,0c-1.5,0.1-1.5,0.1-1.5-1.4c0-0.4,0-0.9,0-1.3c0-0.6-0.4-1-1-1
		c-0.7,0-1.5,0-2.2,0c-0.3,0-0.5,0-0.5-0.4c0-1.4,0-1.4,1.4-1.4c0.5,0,1,0,1.5,0c1.4,0.1,2.6,1.2,2.7,2.7
		C39.1,44,39.1,44.4,39.1,44.8L39.1,44.8z"/>
	<path style="clip-path:url(#SVGID_00000037662862475718292780000017960424648047933613_);fill:#F37367;" d="M34.5,50.1
		c-0.8,0-1.6,0-2.4,0c-0.5,0-0.4-0.3-0.4-0.6c0.1-0.4-0.4-1.2,0.3-1.2c1.6-0.1,3.2,0,4.8,0c0.2,0,0.3,0,0.4,0.3
		c0.1,1.5,0.1,1.5-1.4,1.5C35.4,50.1,35,50.1,34.5,50.1"/>
</g>
</svg>
