<?xml version="1.0" encoding="utf-8"?>
<!-- Generator: Adobe Illustrator 25.4.1, SVG Export Plug-In . SVG Version: 6.00 Build 0)  -->
<svg version="1.1" id="Layer_1" xmlns="http://www.w3.org/2000/svg" xmlns:xlink="http://www.w3.org/1999/xlink" x="0px" y="0px"
	 viewBox="0 0 80 80" style="enable-background:new 0 0 80 80;" xml:space="preserve">
<style type="text/css">
	.st0{clip-path:url(#SVGID_00000164498219781960507770000002502214851511653789_);fill:#F37367;}
	.st1{clip-path:url(#SVGID_00000039099158539449977900000008838637516102369981_);fill:#F37367;}
	.st2{clip-path:url(#SVGID_00000145019848216879344410000003015686720612797874_);fill:#F37367;}
	.st3{clip-path:url(#SVGID_00000050641963760284664280000017302212561500310417_);fill:#F37367;}
	.st4{clip-path:url(#SVGID_00000129199378559156489000000002785483800075873420_);fill:#F37367;}
	.st5{clip-path:url(#SVGID_00000036228485389036656560000001586573542133963398_);fill:#F37367;}
	.st6{clip-path:url(#SVGID_00000139984527751570041110000004371709556608030848_);fill:#F37367;}
	.st7{clip-path:url(#SVGID_00000097479914259209362970000013144802808391736476_);fill:#F37367;}
	.st8{clip-path:url(#SVGID_00000013903867547169759370000004914902154977263753_);fill:#F37367;}
	.st9{clip-path:url(#SVGID_00000180350198631806298930000010817676262383808155_);fill:#F37367;}
	.st10{clip-path:url(#SVGID_00000119806235110236651310000009114086547980949892_);fill:#F37367;}
	.st11{clip-path:url(#SVGID_00000022536958883973495320000004434940291608086701_);fill:#F37367;}
	.st12{clip-path:url(#SVGID_00000141444186720816596330000007528440535235106180_);fill:#F37367;}
	.st13{clip-path:url(#SVGID_00000116220941979911193370000007136532269957233339_);fill:#F37367;}
	.st14{clip-path:url(#SVGID_00000169548932179053627280000002981188377755895231_);fill:#F37367;}
	.st15{clip-path:url(#SVGID_00000038383701095189639820000000278545930817056187_);fill:#F37367;}
	.st16{clip-path:url(#SVGID_00000124156526734459066940000003688709856548948408_);fill:#F37367;}
</style>
<g>
	<defs>
		<rect id="SVGID_00000024682210663631080930000001889448183581211818_" x="11.5" y="11.5" width="57" height="57"/>
	</defs>
	<clipPath id="SVGID_00000168075648705270106910000012537209698829000321_">
		<use xlink:href="#SVGID_00000024682210663631080930000001889448183581211818_"  style="overflow:visible;"/>
	</clipPath>
	<path style="clip-path:url(#SVGID_00000168075648705270106910000012537209698829000321_);fill:#F37367;" d="M68.5,45.1
		c0,0.2-0.1,0.4-0.1,0.7c-0.1,5-0.4,10.1-0.8,15.1c0,0.1,0,0.2,0,0.3c-0.1,0.5-0.5,0.8-0.9,0.7c-0.4-0.1-0.7-0.4-0.7-0.9
		c0.1-1.3,0.2-2.5,0.3-3.8c0.5-7.4,0.7-14.7,0.6-22.1c-0.1-4.4-0.3-8.8-0.6-13.1c-0.1-1.6-0.3-3.2-0.4-4.8c-0.2-1.6-1.4-2.8-3-3
		c-4-0.4-8-0.7-12-0.9c-5.9-0.3-11.8-0.3-17.6-0.1c-4.8,0.2-9.6,0.4-14.4,0.9c-0.4,0-0.9,0.1-1.3,0.1c-1.6,0.2-2.8,1.4-3,3
		c-0.4,4-0.7,8.1-0.9,12.2c-0.3,5.9-0.3,11.9-0.1,17.8c0.2,4.7,0.4,9.4,0.9,14.2c0,0.4,0.1,0.9,0.1,1.3c0.2,1.6,1.4,2.8,3,3
		c4,0.4,8.1,0.7,12.1,0.9c6,0.3,12,0.3,18,0.1c5.1-0.2,10.2-0.5,15.3-1c1.2-0.1,2.1-0.7,2.7-1.7c0.2-0.3,0.5-0.6,0.9-0.5
		c0.6,0.1,0.9,0.7,0.5,1.3c-0.8,1.4-2.1,2.3-3.7,2.5c-3.4,0.4-6.7,0.6-10.1,0.8c-6.7,0.4-13.4,0.4-20.1,0.2
		c-4.7-0.2-9.5-0.4-14.2-0.9c-0.7-0.1-1.4-0.1-2.1-0.2c-2.1-0.5-3.7-2.2-3.9-4.4c-0.9-9.6-1.3-19.1-1-28.7
		c0.1-5.5,0.5-10.9,0.9-16.3c0.2-2.8,1.7-4.7,4.2-5.1c0.8-0.2,1.7-0.2,2.5-0.3c5-0.4,10.1-0.7,15.1-0.8c0.2,0,0.4,0,0.6-0.1h10.2
		c0.2,0.1,0.4,0.1,0.7,0.1c5.7,0.1,11.4,0.5,17.1,1c2.3,0.2,4.2,2.1,4.5,4.5c0.6,5.6,0.9,11.2,1,16.8c0,0.4,0,0.7,0.1,1.1V45.1z"/>
	<path style="clip-path:url(#SVGID_00000168075648705270106910000012537209698829000321_);fill:#F37367;" d="M42.5,32.3
		c0,1.4,0,2.7,0,4.1c0,0.2,0.1,0.3,0.3,0.2c0.2,0,0.2-0.2,0.2-0.3c0-1.2-0.1-2.3-0.1-3.5C42.9,32.6,42.9,32.4,42.5,32.3 M37.5,32.2
		c-0.3,0.2-0.4,0.4-0.4,0.6c0,1.2-0.1,2.3-0.1,3.5c0,0.2,0,0.3,0.2,0.3c0.2,0,0.2-0.1,0.2-0.3C37.5,35,37.5,33.6,37.5,32.2
		 M40.9,26.1c0-0.3,0-0.6,0-0.8c0-0.3-0.1-0.4-0.4-0.4c-0.4,0.1-1-0.3-1.3,0.2c0,0.1,0,0.1,0,0.2c0,0.5,0,1,0,1.4
		c0,0.4,0.1,0.5,0.5,0.5C40.9,27.3,40.9,27.3,40.9,26.1 M40.9,53.9c0-1.2,0-1.2-1.2-1.2c0,0-0.1,0-0.1,0c-0.3,0-0.4,0.1-0.4,0.3
		c0,0.5,0,1.1,0,1.6c0,0.4,0.1,0.5,0.5,0.5C40.9,55.1,40.9,55.1,40.9,53.9 M39.1,34.3v1c0,1.3,0,1.3,1.3,1.3c0.4,0,0.4-0.1,0.4-0.5
		c0-1,0-2,0-2.9c0-1.2,0-1.2-1.2-1.2c-0.4,0-0.5,0.2-0.5,0.6C39.2,33.1,39.1,33.7,39.1,34.3 M40,30.3c0.7,0,1.5,0.1,2.2,0.1
		c1.4,0.1,2.3,1,2.4,2.4c0,1,0.1,2,0.1,3c0,0.9,0,0.9,1,1c0.3,0,0.5-0.1,0.4-0.4c0-1.2,0-2.4-0.1-3.6c-0.1-1.9-1.5-3.4-3.4-3.6
		c-1.8-0.2-3.5-0.2-5.3,0c-1.7,0.2-3,1.4-3.2,3.1c-0.2,1.4-0.1,2.9-0.2,4.3c0,0.3,0.1,0.3,0.3,0.3c0.2,0,0.4-0.1,0.6,0
		c0.4,0,0.5-0.2,0.5-0.6c0-1.2,0-2.3,0.1-3.5c0.1-1.2,1-2.1,2.2-2.2C38.4,30.4,39.2,30.3,40,30.3 M40,60.3c2,0,4,0,6.1,0
		c0.8,0,1.1-0.3,1.1-1.1c0-0.4,0-0.8,0-1.2c0-0.9-0.3-1.2-1.2-1.2c-1.5,0-3,0-4.5,0c-2.4,0-4.9,0-7.3,0c-1.2,0-1.5,0.2-1.5,1.4
		c0,0.3,0,0.6,0,0.8c0,0.9,0.3,1.2,1.2,1.2C36,60.3,38,60.3,40,60.3 M40,19.7c-2,0-4,0-6.1,0c-0.8,0-1.1,0.3-1.2,1.1
		c0,0.4,0,0.9,0,1.3c0,0.7,0.3,1,1.1,1.1c0.9,0,1.7,0,2.6,0c3.2,0,6.4,0,9.6,0c0.8,0,1.1-0.3,1.2-1.1c0-0.4,0-0.8,0-1.2
		c0-0.9-0.3-1.2-1.2-1.2C44,19.7,42,19.7,40,19.7 M40,38.2c-2,0-4,0.1-5.9,0.2c-1.2,0.1-2,0.9-2.1,2.1c-0.2,2.8-0.2,5.5,0,8.3
		c0.1,1.2,0.8,2,1.9,2.1c0.9,0.1,1.9,0.1,2.8,0.1c3.1,0.1,6.3,0.1,9.4-0.1c1.1-0.1,1.8-0.9,1.9-1.9c0.2-2.9,0.2-5.7,0-8.6
		c-0.1-1.1-0.9-1.9-2-1.9C44,38.3,42,38.3,40,38.2 M63.4,40c0-7.3-0.4-14.6-1-21.8c0-0.4-0.2-0.5-0.5-0.5c-6.1-0.6-12.2-0.9-18.3-1
		c-1.1,0-1-0.3-1,1c0,0.4,0.1,0.5,0.5,0.4c1.1,0,2.2,0,3.3,0c1.3,0,2.3,0.9,2.5,2.2c0.1,0.6,0,1.2,0,1.8c0,1.7-1.1,2.8-2.8,2.8
		c-1,0-2,0-3.1,0c-0.4,0-0.5,0.1-0.5,0.5c0,0.5,0,1,0,1.4c0,0.4,0.1,0.5,0.5,0.6c2.4,0.3,4.3,2.2,4.6,4.6c0.2,1.5,0.1,3.1,0.2,4.7
		c0,0.4,0.1,0.6,0.4,0.8c1,0.7,1.5,1.7,1.5,2.8c0.2,2.9,0.2,5.7,0,8.6c-0.1,1.9-1.5,3.4-3.4,3.5c-1.1,0.1-2.2,0.1-3.3,0.2
		c-0.3,0-0.5,0.1-0.4,0.4c0,0.5,0,1,0,1.5c0,0.4,0.2,0.5,0.5,0.5c1.1,0,2.2,0,3.3,0c1.3,0,2.2,0.9,2.4,2.2c0.1,0.8,0.1,1.5,0,2.3
		c-0.1,1.4-1.2,2.3-2.6,2.3c-1.1,0-2.2,0-3.2,0c-0.1,0-0.4-0.1-0.4,0.1c-0.1,0.4-0.1,0.8,0,1.2c0.1,0.3,0.4,0.1,0.6,0.1
		c6.2-0.1,12.5-0.4,18.7-1c0.3,0,0.5-0.1,0.5-0.5c0-0.8,0.1-1.6,0.2-2.4C63.1,53,63.4,46.5,63.4,40 M65,40c0,6.5-0.3,13.1-0.8,19.6
		c-0.1,0.8-0.1,1.7-0.2,2.5c-0.1,1.3-0.6,1.8-1.9,2c-1.8,0.2-3.6,0.3-5.4,0.4C51.8,64.8,47,65,42.2,65c-1.1,0-1.3-0.2-1.3-1.3
		c0-0.3,0-0.6,0-0.8c0-0.3,0.2-0.8-0.1-0.9c-0.4-0.1-1-0.1-1.4,0c-0.2,0-0.1,0.2-0.2,0.4c0,0.6,0,1.2,0,1.8c0,0.7-0.3,1-1,0.9
		c-3.9,0-7.8-0.2-11.7-0.4c-2.8-0.2-5.6-0.4-8.4-0.6c-0.4,0-0.8,0-1.2-0.2c-0.7-0.3-0.9-0.9-0.9-1.6c-0.1-1.9-0.3-3.7-0.5-5.6
		c-0.4-6.3-0.6-12.6-0.6-19c0-3.9,0.2-7.8,0.4-11.6c0-0.7,0.4-1.1,0.9-1.1c0.5,0,0.8,0.5,0.8,1.2c-0.4,5.6-0.5,11.3-0.4,16.9
		c0.1,6.3,0.4,12.6,1,18.8c0,0.3,0.1,0.5,0.5,0.5c6.2,0.6,12.5,0.9,18.8,1c0.2,0,0.5,0.2,0.6-0.2c0.1-0.4,0.1-0.8,0-1.2
		c0-0.1-0.3-0.1-0.4-0.1c-1.1,0-2.2,0-3.2,0c-1.4,0-2.4-0.9-2.6-2.3c-0.1-0.8-0.1-1.6,0-2.3c0.2-1.3,1.2-2.2,2.5-2.2
		c1.1,0,2.2,0,3.3,0c0.4,0,0.5-0.1,0.5-0.5c0-0.5,0-1,0-1.5c0-0.4-0.1-0.5-0.5-0.5c-1.1,0-2.2-0.1-3.3-0.2c-1.9-0.2-3.3-1.7-3.4-3.6
		c-0.2-2.9-0.2-5.7,0-8.6c0.1-1.2,0.6-2.2,1.6-2.9c0.3-0.2,0.4-0.4,0.4-0.7c0.1-1.6-0.1-3.2,0.2-4.8c0.3-2.3,2.2-4.2,4.6-4.5
		c0.4-0.1,0.5-0.2,0.5-0.6c0-0.5,0-1,0-1.5c0-0.3-0.1-0.5-0.4-0.4c-1,0-2,0-3.1,0c-1.8,0-2.9-1.1-2.9-2.9c0-0.6-0.1-1.2,0-1.8
		c0.2-1.3,1.2-2.1,2.5-2.2c1.1,0,2.2,0,3.3,0c0.4,0,0.5-0.1,0.5-0.5c0-1,0-1-1-1c-6,0.1-11.9,0.4-17.8,1c-1,0.1-1,0.1-1.1,1.1
		c-0.1,1.2-0.2,2.4-0.3,3.6c-0.1,0.6-0.4,1-0.9,1c-0.5,0-0.8-0.4-0.8-1.1c0.1-1.5,0.2-2.9,0.4-4.4c0.1-1.2,0.6-1.7,1.9-1.8
		c2.4-0.2,4.8-0.4,7.2-0.6c4.3-0.3,8.6-0.4,13-0.5c0.9,0,1.2,0.2,1.2,1.1c0,0.5,0,1.1,0,1.6c0,0.2,0.1,0.4,0.3,0.4
		c1.4,0.1,1.4,0.1,1.4-1.3c0-0.3,0-0.6,0-0.9c0-0.7,0.3-1,1-0.9c2.4,0,4.7,0.1,7.1,0.2c3.9,0.1,7.9,0.4,11.8,0.7
		c0.6,0,1.2,0.1,1.8,0.2c0.9,0.1,1.4,0.6,1.5,1.5c0.2,1.9,0.4,3.9,0.5,5.8C64.8,28.9,65.1,34.4,65,40"/>
	<path style="clip-path:url(#SVGID_00000168075648705270106910000012537209698829000321_);fill:#F37367;" d="M22,40.1
		c0,5.5,0,11,0,16.5c0,0.2,0,0.4,0,0.6c-0.1,0.4-0.3,0.7-0.8,0.7c-0.4,0-0.7-0.2-0.8-0.6c0-0.2,0-0.4,0-0.6c0-11.1,0-22.3,0-33.4
		c0-0.2,0-0.4,0-0.6c0.1-0.4,0.4-0.7,0.8-0.6c0.4,0,0.7,0.3,0.8,0.7c0,0.2,0,0.4,0,0.6C22,29,22,34.5,22,40.1"/>
	<path style="clip-path:url(#SVGID_00000168075648705270106910000012537209698829000321_);fill:#F37367;" d="M26.2,40
		c0-5.6,0-11.1,0-16.7c0-0.9,0.2-1.3,0.8-1.3c0.6,0,0.9,0.4,0.9,1.2c0,11.1,0,22.3,0,33.4c0,0.2,0,0.5-0.1,0.7
		c-0.2,0.4-0.4,0.5-0.8,0.5c-0.4,0-0.7-0.3-0.7-0.7c0-0.2,0-0.4,0-0.7C26.2,51.1,26.2,45.5,26.2,40"/>
	<path style="clip-path:url(#SVGID_00000168075648705270106910000012537209698829000321_);fill:#F37367;" d="M58,40
		c0-5.5,0-11.1,0-16.6c0-0.2,0-0.4,0-0.6c0.1-0.4,0.3-0.7,0.8-0.7c0.4,0,0.7,0.2,0.8,0.6c0,0.2,0,0.4,0,0.6c0,11.1,0,22.3,0,33.4
		c0,0.2,0,0.4,0,0.6c-0.1,0.4-0.4,0.7-0.8,0.7c-0.4,0-0.7-0.3-0.8-0.7c0-0.2,0-0.4,0-0.6C58,51.1,58,45.5,58,40"/>
	<path style="clip-path:url(#SVGID_00000168075648705270106910000012537209698829000321_);fill:#F37367;" d="M52.2,40
		c0-5.5,0-11.1,0-16.6c0-0.2,0-0.4,0-0.7c0.1-0.5,0.4-0.7,0.9-0.7c0.4,0,0.7,0.3,0.7,0.8c0,0.2,0,0.3,0,0.5c0,11.1,0,22.2,0,33.3
		c0,0.9-0.2,1.3-0.8,1.3c-0.6,0-0.9-0.4-0.9-1.3C52.2,51.1,52.2,45.5,52.2,40"/>
	<path style="clip-path:url(#SVGID_00000168075648705270106910000012537209698829000321_);fill:#F37367;" d="M40,48
		c0.5,0,0.9,0,1.4,0c0.4,0,0.5-0.2,0.3-0.5c-0.3-0.6-0.7-1.1-1-1.7c-0.4-0.7-0.4-1,0.3-1.5c0.6-0.5,0.9-1.3,0.6-2
		c-0.3-0.7-0.9-1.1-1.6-1.1c-0.7,0-1.3,0.5-1.6,1.1c-0.2,0.7,0,1.4,0.6,1.9c0.7,0.6,0.8,0.8,0.3,1.6c-0.3,0.4-0.5,0.9-0.8,1.3
		C38.1,48,38.1,48,38.9,48C39.3,48,39.6,48,40,48 M40,49.7c-0.6,0-1.1,0-1.7,0c-1.4-0.1-2.2-1.5-1.6-2.7c0.2-0.4,0.4-0.8,0.7-1.2
		c0.2-0.3,0.2-0.5,0-0.9c-0.8-1.1-1-2.3-0.3-3.6c0.6-1.2,1.7-1.9,3.1-1.8c1.4,0,2.4,0.7,3,1.9c0.6,1.2,0.5,2.4-0.3,3.5
		c-0.3,0.4-0.3,0.6,0,1c0.2,0.3,0.5,0.7,0.6,1.1c0.6,1.2-0.2,2.6-1.6,2.7C41.1,49.7,40.5,49.7,40,49.7"/>
</g>
</svg>
