<?xml version="1.0" encoding="utf-8"?>
<!-- Generator: Adobe Illustrator 25.4.1, SVG Export Plug-In . SVG Version: 6.00 Build 0)  -->
<svg version="1.1" id="Layer_1" xmlns="http://www.w3.org/2000/svg" xmlns:xlink="http://www.w3.org/1999/xlink" x="0px" y="0px"
	 viewBox="0 0 80 80" style="enable-background:new 0 0 80 80;" xml:space="preserve">
<style type="text/css">
	.st0{clip-path:url(#SVGID_00000062163833510141970030000006467067300951667331_);fill:#F37367;}
	.st1{clip-path:url(#SVGID_00000064339222512557460900000005747924861250315199_);fill:#F37367;}
	.st2{clip-path:url(#SVGID_00000053538994110036922350000002557435334630060677_);fill:#F37367;}
	.st3{clip-path:url(#SVGID_00000170278489822437490710000013346264322815127196_);fill:#F37367;}
	.st4{clip-path:url(#SVGID_00000141453588357609816410000007124435817149373100_);fill:#F37367;}
	.st5{clip-path:url(#SVGID_00000129198364656936959770000003361155752406412217_);fill:#F37367;}
	.st6{clip-path:url(#SVGID_00000127022464405494624600000006181847757029061272_);fill:#F37367;}
	.st7{clip-path:url(#SVGID_00000137836170236751145770000007578821548786713988_);fill:#F37367;}
	.st8{clip-path:url(#SVGID_00000027593480755352903050000014749062014053027214_);fill:#F37367;}
	.st9{clip-path:url(#SVGID_00000016780187425810442070000017870905125632039097_);fill:#F37367;}
	.st10{clip-path:url(#SVGID_00000087377828574926436990000003980827220821752235_);fill:#F37367;}
	.st11{clip-path:url(#SVGID_00000083792041275472208690000012489762160476532369_);fill:#F37367;}
	.st12{clip-path:url(#SVGID_00000019640877528465395940000007526505337587250323_);fill:#F37367;}
	.st13{clip-path:url(#SVGID_00000037664185909757780050000004857845680963626378_);fill:#F37367;}
	.st14{clip-path:url(#SVGID_00000061430911619904250650000000739355736031572873_);fill:#F37367;}
	.st15{clip-path:url(#SVGID_00000155130265117399475520000005381476555264559757_);fill:#F37367;}
	.st16{clip-path:url(#SVGID_00000080200576723275232040000008157694119669402040_);fill:#F37367;}
</style>
<g>
	<defs>
		<rect id="SVGID_00000065049185292201726940000002588475540130195613_" x="11.5" y="11.5" width="57" height="57"/>
	</defs>
	<clipPath id="SVGID_00000087405148189580414450000000793226259604795526_">
		<use xlink:href="#SVGID_00000065049185292201726940000002588475540130195613_"  style="overflow:visible;"/>
	</clipPath>
	<path style="clip-path:url(#SVGID_00000087405148189580414450000000793226259604795526_);fill:#F37367;" d="M58,37.9L58,37.9
		c0-1.2,0-2.4,0-3.6c0-1-0.8-1.8-1.8-1.8c-0.6,0-1.3,0-1.9,0c-1.2,0-2,0.8-2,2c0,2.4,0,4.7,0,7.1c0,0.4,0.1,0.5,0.5,0.5
		c1.6,0,3.2,0,4.8,0c0.4,0,0.5-0.1,0.5-0.5C58,40.3,58,39.1,58,37.9 M48.6,37.4v3.2c0,1.4,0,1.4,1.4,1.4c0.5,0,0.5-0.2,0.5-0.6
		c0-2.4,0-4.7,0-7.1c0-2,1.6-3.6,3.6-3.7c0.6,0,1.3,0,1.9,0c2.3,0,3.9,1.6,3.9,3.9c0,2,0,4,0,6.1c0,1.4,0,1.4,1.4,1.4
		c0.4,0,0.5-0.1,0.5-0.5c0-2.4,0-4.9,0-7.3c0-2.7-1.9-4.9-4.6-5.4c-1.1-0.2-2.2-0.1-3.3-0.1c-2.6,0.1-4.8,2-5.3,4.6
		C48.4,34.7,48.6,36.2,48.6,37.4 M13.4,45.3V46c0,2.2,0.1,4.3,0,6.5c-0.1,1.4,0.6,2.4,1.7,3.1c1.2,0.8,2.6,1.4,4,1.8
		c3.8,1.1,7.6,1.5,11.5,1.6c3.6,0.1,7.1-0.2,10.6-1c0.3-0.1,0.7,0,0.7-0.6c0-2.9,0-5.7,0-8.6c0-0.3-0.1-0.4-0.4-0.3
		c-5.7,1.2-11.4,1.3-17.1,0.5C20.5,48.5,16.8,47.6,13.4,45.3 M13.4,33.9v0.6c0,2.3,0,4.5,0,6.8c0,1,0.4,1.8,1.1,2.4
		c1,0.8,2.2,1.4,3.4,1.8c2.8,1,5.8,1.5,8.8,1.8c4.9,0.4,9.8,0.2,14.7-0.8c0.3-0.1,0.5-0.2,0.5-0.6c0.4-2.3,1.9-3.8,4.2-4.1
		c0.4-0.1,0.5-0.2,0.5-0.6c0-1.8,0-3.6,0-5.3c0-0.4,0-0.5-0.4-0.3c-3.2,1.3-6.5,1.9-9.8,2.2c-4.2,0.4-8.3,0.3-12.5-0.3
		C20.2,37,16.6,36.2,13.4,33.9 M31.5,13.4c-1.6,0-3.3,0.1-4.9,0.2c-2.9,0.3-5.8,0.8-8.6,1.8c-1.4,0.5-2.8,1.1-3.9,2.2
		c-0.9,1-0.9,1.9,0,2.9c0.2,0.2,0.4,0.4,0.6,0.6c1,0.7,2.1,1.2,3.2,1.7c2.8,1,5.8,1.5,8.8,1.8c5.2,0.5,10.4,0.3,15.6-1
		c2-0.5,4-1.1,5.7-2.3c2-1.4,2-2.9,0-4.3c-1-0.7-2.2-1.2-3.4-1.6C40.3,13.8,35.9,13.4,31.5,13.4 M13.4,22.5c0,2.5,0.1,4.9,0,7.2
		c0,1.3,0.5,2.2,1.5,2.9c0.5,0.4,1.1,0.7,1.6,1c2,0.9,4.1,1.5,6.2,1.9c5.6,1,11.2,1,16.8,0.1c2.3-0.4,4.6-1,6.8-1.9
		c0.3-0.1,0.5-0.3,0.5-0.6c0.3-1.7,1.1-3.1,2.4-4.3c0.2-0.2,0.3-0.4,0.3-0.8c0-1.6,0-3.2,0-4.8c0-0.2,0.1-0.3-0.1-0.5
		c-1.3,1-2.8,1.6-4.4,2.2c-3.8,1.3-7.8,1.8-11.8,1.9c-4.1,0.1-8.2-0.2-12.2-1C18.3,25,15.7,24.2,13.4,22.5 M55.2,66.6
		c2.8,0,5.5,0,8.3,0c1.9,0,3.1-1.2,3.1-3.1c0-5.5,0-11.1,0-16.6c0-1.9-1.2-3.1-3.1-3.1c-5.5,0-11.1,0-16.6,0c-1.9,0-3.1,1.2-3.1,3.1
		c0,5.5,0,11.1,0,16.6c0,1.9,1.2,3.1,3.1,3.1C49.7,66.6,52.4,66.6,55.2,66.6 M68.5,46v18.4c0,0.1-0.1,0.1-0.1,0.2
		c-0.7,2.6-2.4,3.9-5.1,3.9c-5.5,0-10.9,0-16.4,0c-3.1,0-5.1-2-5.1-5.1c0-1.2,0-2.3,0-3.5c-0.2,0-0.3,0-0.4,0.1
		c-2.8,0.6-5.5,0.9-8.3,1C28.1,61,23,60.6,18.1,59c-1.8-0.6-3.6-1.3-5-2.6c-1-0.9-1.6-2-1.6-3.5c0-11.2,0-22.3,0-33.5
		c0-1.2,0.4-2.2,1.3-3.1c0.8-0.8,1.8-1.4,2.8-1.9c3.5-1.7,7.3-2.3,11.1-2.7c0.8-0.1,1.7,0,2.5-0.2h4.7c0.3,0.1,0.5,0.1,0.8,0.1
		c3.4,0.2,6.7,0.7,9.9,1.7c1.9,0.6,3.8,1.4,5.3,2.7c1.1,0.9,1.6,2.1,1.6,3.5c0,2.4,0,4.8,0,7.2c0,0.4,0.1,0.5,0.5,0.3
		c1.8-0.6,3.7-0.6,5.6-0.3c3.8,0.6,6.3,3.7,6.3,7.5c0,2.3,0,4.6,0,6.9c0,0.4,0.1,0.6,0.6,0.7c1.8,0.2,3.1,1.2,3.8,2.9
		C68.3,45.2,68.4,45.6,68.5,46"/>
	<path style="clip-path:url(#SVGID_00000087405148189580414450000000793226259604795526_);fill:#F37367;" d="M54.3,57.6
		c0,1.5,0,1.5,1.5,1.4c0,0,0,0,0.1,0c0.3,0,0.4-0.1,0.4-0.4c0-0.6,0-1.1,0-1.7c0-0.6,0.2-1,0.7-1.4c1.5-1.1,1.6-3.3,0.2-4.5
		c-1.2-1-3.1-0.9-4.1,0.4c-1,1.3-0.8,3.1,0.6,4.1c0.5,0.4,0.8,0.8,0.7,1.4C54.2,57.2,54.3,57.4,54.3,57.6 M55.2,60.9
		c-0.4,0-0.8,0-1.2,0c-1-0.1-1.7-0.9-1.7-1.9c0-0.1,0-0.1,0-0.2c0.1-1-0.1-1.8-0.8-2.6c-1.7-1.9-1.3-4.9,0.6-6.5
		c2-1.7,4.9-1.5,6.6,0.4c1.7,1.9,1.6,4.9-0.3,6.6c-0.3,0.3-0.4,0.6-0.4,1c0,0.4,0,0.8,0,1.2c0,1.1-0.7,1.9-1.8,1.9
		C55.9,60.9,55.6,60.9,55.2,60.9C55.2,60.9,55.2,60.9,55.2,60.9"/>
	<path style="clip-path:url(#SVGID_00000087405148189580414450000000793226259604795526_);fill:#F37367;" d="M17.1,30.1
		c-0.5-0.1-1.1-0.3-1.5-0.7c-0.3-0.3-0.4-0.7-0.2-1.1c0.2-0.4,0.6-0.6,1.1-0.5c0.4,0.1,0.8,0.3,1.2,0.5c0.4,0.2,0.5,0.6,0.4,1.1
		C18,29.9,17.6,30.1,17.1,30.1"/>
	<path style="clip-path:url(#SVGID_00000087405148189580414450000000793226259604795526_);fill:#F37367;" d="M21.2,29.4
		c0.3,0.1,0.7,0.1,1.1,0.3c0.5,0.2,0.7,0.6,0.6,1.1c-0.1,0.4-0.5,0.8-1,0.7c-0.4-0.1-0.8-0.1-1.2-0.3c-0.5-0.2-0.7-0.6-0.6-1.1
		C20.2,29.7,20.6,29.4,21.2,29.4"/>
</g>
</svg>
