<?xml version="1.0" encoding="utf-8"?>
<!-- Generator: Adobe Illustrator 25.4.1, SVG Export Plug-In . SVG Version: 6.00 Build 0)  -->
<svg version="1.1" id="Layer_1" xmlns="http://www.w3.org/2000/svg" xmlns:xlink="http://www.w3.org/1999/xlink" x="0px" y="0px"
	 viewBox="0 0 80 80" style="enable-background:new 0 0 80 80;" xml:space="preserve">
<style type="text/css">
	.st0{clip-path:url(#SVGID_00000116945660354271172800000004117057928154658996_);fill:#F37367;}
	.st1{clip-path:url(#SVGID_00000024719559457533684860000002589977631897091205_);fill:#F37367;}
	.st2{clip-path:url(#SVGID_00000129909163305939562320000001257654886341711772_);fill:#F37367;}
	.st3{clip-path:url(#SVGID_00000070093705909376138800000002592585245335606450_);fill:#F37367;}
	.st4{clip-path:url(#SVGID_00000157284059125125387920000004233583745237307784_);fill:#F37367;}
	.st5{clip-path:url(#SVGID_00000132805555261104697940000015141442746182560950_);fill:#F37367;}
	.st6{clip-path:url(#SVGID_00000043431311710763349020000012885436035669200058_);fill:#F37367;}
	.st7{clip-path:url(#SVGID_00000028302085565154518540000008999829122019864215_);fill:#F37367;}
	.st8{clip-path:url(#SVGID_00000181061637505694888820000002377087895052521151_);fill:#F37367;}
	.st9{clip-path:url(#SVGID_00000111889407175786835120000010639318960707484594_);fill:#F37367;}
	.st10{clip-path:url(#SVGID_00000157290804047537590460000011728445917010404024_);fill:#F37367;}
	.st11{clip-path:url(#SVGID_00000085220501298455135560000007540889244399582097_);fill:#F37367;}
	.st12{clip-path:url(#SVGID_00000142161005530793838100000001337106041732516745_);fill:#F37367;}
	.st13{clip-path:url(#SVGID_00000052103978645817634350000009616315915855557008_);fill:#F37367;}
	.st14{clip-path:url(#SVGID_00000127024001606803913040000017013896322289172388_);fill:#F37367;}
	.st15{clip-path:url(#SVGID_00000026157720241901755120000001682047266931955860_);fill:#F37367;}
	.st16{clip-path:url(#SVGID_00000047744291605478903250000008922671239999927719_);fill:#F37367;}
</style>
<g>
	<defs>
		<rect id="SVGID_00000086653807975398577350000003250653687246764160_" x="11.8" y="11.5" width="56.5" height="57"/>
	</defs>
	<clipPath id="SVGID_00000129177427528622580250000017125647087403028916_">
		<use xlink:href="#SVGID_00000086653807975398577350000003250653687246764160_"  style="overflow:visible;"/>
	</clipPath>
	<path style="clip-path:url(#SVGID_00000129177427528622580250000017125647087403028916_);fill:#F37367;" d="M40.1,64.9H27.6
		c-1.3,0-1.2,0-1.3,1.3c0,0.5,0.1,0.7,0.7,0.7c8.4,0,16.9,0,25.3,0c1.3,0,1.3,0,1.3-1.3c0-0.5-0.1-0.6-0.6-0.6
		C48.7,64.9,44.4,64.9,40.1,64.9 M40,63.2c2.1,0,4.3,0,6.4,0c0.5,0,0.5-0.1,0.4-0.6c-0.7-2.2-1.3-4.4-1.9-6.6
		c-0.1-0.3-0.3-0.5-0.6-0.4c-2.9,0-5.8,0-8.7,0c-0.4,0-0.5,0.1-0.6,0.4c-0.6,2.2-1.3,4.4-1.9,6.6c-0.1,0.4-0.1,0.6,0.4,0.6
		C35.7,63.2,37.8,63.2,40,63.2 M64.7,11.5c0.1,0,0.2,0.1,0.2,0.1c2,0.5,3.3,2.1,3.3,4.2c0,1.2,0,2.5,0,3.7c0,10.5,0,21,0,31.6
		c0,2.9-1.7,4.6-4.6,4.6c-2.2,0-4.4,0-6.6,0c-0.2,0-0.4,0-0.5,0c-0.4-0.1-0.7-0.4-0.7-0.9c0-0.5,0.3-0.8,0.8-0.8c0.9,0,1.8,0,2.8,0
		c1.5,0,3,0,4.5,0c1.6,0,2.7-1.1,2.7-2.7c0-0.6,0-1.3,0-1.9c0-0.3-0.1-0.5-0.4-0.5c-0.1,0-0.2,0-0.3,0c-17.2,0-34.5,0-51.7,0
		c-0.8,0-0.7-0.1-0.7,0.7c0,0.6,0,1.2,0,1.8c0,1.4,1,2.5,2.5,2.6c0.2,0,0.4,0,0.7,0c11.9,0,23.8,0,35.8,0c0.9,0,1.3,0.3,1.3,0.9
		c0,0.6-0.4,0.8-1.3,0.8c-1.8,0-3.5,0-5.3,0c-0.4,0-0.5,0.1-0.4,0.5c0.7,2.2,1.3,4.4,2,6.7c0.1,0.3,0.2,0.4,0.6,0.4
		c1.4,0,2.8,0,4.2,0c1.3,0,1.9,0.7,1.9,2c0,0.5,0,1,0,1.5c0,1.1-0.7,1.8-1.8,1.8c-9,0-18,0-27.1,0c-1,0-1.8-0.7-1.8-1.8
		c0-0.6,0-1.1,0-1.7c0-1.1,0.7-1.8,1.8-1.8c1.5,0,2.9,0,4.4,0c0.3,0,0.5-0.1,0.6-0.4c0.6-2.2,1.3-4.4,2-6.7c0.1-0.4,0-0.5-0.4-0.5
		c-5.3,0-10.7,0-16,0c-3.1,0-4.1-0.7-5.1-3.6V15.1c0.3-0.9,0.6-1.8,1.4-2.5c0.6-0.6,1.4-0.9,2.2-1.1h4.4c0.4,0.2,0.7,0.6,0.5,1.1
		c-0.2,0.5-0.6,0.6-1.1,0.6c-1,0-2.1,0-3.1,0c-1.6,0-2.7,1.1-2.7,2.7c0,10.3,0,20.6,0,30.9c0,0.4,0.1,0.5,0.5,0.5
		c17.4,0,34.8,0,52.1,0c0.4,0,0.5-0.1,0.5-0.5c0-10.3,0-20.6,0-30.9c0-1.6-1.1-2.7-2.7-2.7c-13.2,0-26.5,0-39.7,0
		c-0.1,0-0.3,0-0.4,0c-0.5,0-0.9,0-1.1-0.5c-0.2-0.5,0.1-0.8,0.4-1.1H64.7z"/>
	<path style="clip-path:url(#SVGID_00000129177427528622580250000017125647087403028916_);fill:#F37367;" d="M25.7,37.4
		c0-0.5-0.4-1-0.9-1c-0.5,0-1,0.4-1,1c0,0.5,0.4,0.9,1,0.9C25.3,38.4,25.7,38,25.7,37.4 M61,30.2c0-0.5-0.4-0.9-0.9-0.9
		c-0.5,0-0.9,0.4-1,0.9c0,0.5,0.5,1,1,1C60.6,31.2,61,30.7,61,30.2 M19.9,31.2c0.5,0,1-0.4,1-0.9c0-0.5-0.4-1-1-1
		c-0.5,0-0.9,0.4-0.9,1C19,30.7,19.4,31.2,19.9,31.2 M56.2,23c0-0.5-0.4-0.9-0.9-0.9c-0.5,0-0.9,0.4-0.9,0.9c0,0.6,0.4,1,1,1
		C55.8,24,56.2,23.5,56.2,23 M24.7,24c0.5,0,0.9-0.4,1-0.9c0-0.5-0.4-1-0.9-1c-0.5,0-1,0.4-1,0.9C23.8,23.5,24.2,24,24.7,24
		 M56.2,37.4c0-0.5-0.4-1-0.9-1c-0.5,0-1,0.4-0.9,1c0,0.5,0.4,0.9,1,0.9C55.8,38.4,56.2,37.9,56.2,37.4 M50.3,30.2
		c0-5.8-4.6-10.4-10.3-10.4c-5.7,0-10.3,4.7-10.3,10.4c0,5.7,4.7,10.4,10.3,10.4C45.7,40.6,50.3,35.9,50.3,30.2 M50.2,23.9
		c0.6,1,1,2,1.3,3c0.2,0.7,0.4,1.4,0.4,2.1c0,0.4,0.2,0.5,0.5,0.5c1.6,0,3.1,0,4.7,0c0.4,0,0.5-0.1,0.7-0.4c0.7-1.4,2.5-1.8,3.8-0.9
		c1.2,0.9,1.5,2.6,0.5,3.8c-1.2,1.4-3.4,1.2-4.3-0.4c-0.2-0.4-0.4-0.4-0.8-0.4c-1.5,0-3.1,0-4.6,0c-0.2,0-0.5-0.1-0.5,0.3
		c-0.2,1.8-0.7,3.5-1.7,5.2c0.9,0,1.7,0,2.5,0c0.2,0,0.2-0.3,0.3-0.5c0.6-1,1.8-1.5,2.9-1.2c1.1,0.3,1.9,1.3,1.9,2.5
		c0,1.2-0.8,2.2-1.9,2.6c-1.2,0.3-2.4-0.2-3-1.3c-0.1-0.3-0.3-0.4-0.6-0.4c-1,0-2,0-3,0c-0.3,0-0.5,0.1-0.7,0.3
		c-4.9,5-12.4,5-17.3,0c-0.2-0.2-0.4-0.3-0.7-0.3c-1,0-2,0-3,0c-0.3,0-0.4,0.1-0.6,0.4c-0.6,1.1-1.8,1.7-3,1.4
		c-1.1-0.3-1.9-1.4-1.9-2.5c0-1.2,0.8-2.2,1.9-2.5c1.2-0.3,2.4,0.2,3,1.3c0.2,0.3,0.3,0.4,0.6,0.4c0.7,0,1.4,0,2,0
		c0.1-0.2-0.1-0.3-0.1-0.4c-0.8-1.4-1.3-3-1.5-4.6c0-0.4-0.2-0.4-0.5-0.4c-1.6,0-3.2,0-4.7,0c-0.3,0-0.5,0.1-0.6,0.4
		c-0.6,1.1-1.8,1.6-3,1.3c-1.1-0.3-1.9-1.3-1.9-2.5c0-1.2,0.8-2.3,1.9-2.6c1.2-0.3,2.4,0.2,3,1.3c0.2,0.3,0.3,0.4,0.6,0.4
		c1.6,0,3.2,0,4.7,0c0.2,0,0.5,0,0.5-0.3c0.2-1.8,0.7-3.4,1.6-4.9c0-0.1,0-0.1,0.1-0.3c-0.8,0-1.6,0-2.3,0c-0.3,0-0.3,0.2-0.4,0.4
		c-0.6,1.1-1.8,1.6-2.9,1.3c-1.2-0.3-2-1.3-2-2.5c0-1.2,0.8-2.3,2-2.6c1.1-0.3,2.4,0.2,2.9,1.3c0.2,0.3,0.3,0.4,0.6,0.4c1,0,2,0,3,0
		c0.3,0,0.4-0.1,0.6-0.3c5-5.1,12.4-5.1,17.4,0c0.2,0.2,0.4,0.3,0.6,0.3c1,0,2.1,0,3.1,0c0.3,0,0.4-0.1,0.5-0.3
		c0.6-1.1,1.8-1.7,3-1.4c1.2,0.3,2,1.4,2,2.6c0,1.2-0.8,2.2-2,2.5c-1.1,0.3-2.3-0.3-2.9-1.4c-0.1-0.3-0.3-0.4-0.6-0.4
		C51.7,23.9,51,23.9,50.2,23.9"/>
	<path style="clip-path:url(#SVGID_00000129177427528622580250000017125647087403028916_);fill:#F37367;" d="M38.3,27.5
		c0-0.5-0.4-1-0.9-1c-0.5,0-1,0.4-1,1c0,0.5,0.4,0.9,0.9,0.9C37.8,28.5,38.2,28.1,38.3,27.5 M39.1,25.6c1,1.4,1,2.8,0.1,3.8
		c-1,1-2.2,1.1-3.9,0c-0.2,1.4,0.1,2.7,0.9,3.8c1.4,1.9,4.1,2.4,6.1,1.3c2.1-1.2,3-3.7,2.1-6c0-0.1-0.1-0.2-0.1-0.3
		c-0.2-0.5-0.1-1,0.4-1.2c0.4-0.2,0.9,0,1.1,0.5c0.5,1.1,0.7,2.2,0.6,3.4c-0.4,3.5-3.2,6-6.7,5.8c-3.2-0.1-5.9-2.9-6-6.1
		c-0.2-3.3,2.2-6.3,5.3-6.7c1.2-0.2,2.3-0.1,3.4,0.4c0.6,0.2,0.9,0.7,0.7,1.1c-0.2,0.5-0.6,0.7-1.3,0.4
		C40.7,25.4,39.9,25.3,39.1,25.6"/>
</g>
</svg>
