<?xml version="1.0" encoding="utf-8"?>
<!-- Generator: Adobe Illustrator 25.4.1, SVG Export Plug-In . SVG Version: 6.00 Build 0)  -->
<svg version="1.1" id="Layer_1" xmlns="http://www.w3.org/2000/svg" xmlns:xlink="http://www.w3.org/1999/xlink" x="0px" y="0px"
	 viewBox="0 0 80 80" style="enable-background:new 0 0 80 80;" xml:space="preserve">
<style type="text/css">
	.st0{clip-path:url(#SVGID_00000079454456152367364240000002194829404960978865_);fill:#F37367;}
	.st1{clip-path:url(#SVGID_00000147214039887722690870000002874480784313912498_);fill:#F37367;}
	.st2{clip-path:url(#SVGID_00000134936986261870484660000012146517597093223861_);fill:#F37367;}
	.st3{clip-path:url(#SVGID_00000063627627939603352290000017752875683457025169_);fill:#F37367;}
	.st4{clip-path:url(#SVGID_00000070829179761152663620000004429793845696618379_);fill:#F37367;}
	.st5{clip-path:url(#SVGID_00000054262271698534169560000008011815090066891905_);fill:#F37367;}
	.st6{clip-path:url(#SVGID_00000040532756242053892490000016818353590869362331_);fill:#F37367;}
	.st7{clip-path:url(#SVGID_00000111158884952419766110000017056101430827915698_);fill:#F37367;}
	.st8{clip-path:url(#SVGID_00000052802310805973702060000010629153644097637284_);fill:#F37367;}
	.st9{clip-path:url(#SVGID_00000067223697664350596540000006557266106708193443_);fill:#F37367;}
	.st10{clip-path:url(#SVGID_00000119821351909838550290000015221690274610513545_);fill:#F37367;}
	.st11{clip-path:url(#SVGID_00000093150601391387255290000010824971257296736190_);fill:#F37367;}
	.st12{clip-path:url(#SVGID_00000085213838388892774910000014071250407553040304_);fill:#F37367;}
	.st13{clip-path:url(#SVGID_00000150099339341112260460000002400275846897095347_);fill:#F37367;}
	.st14{clip-path:url(#SVGID_00000142177356185829803670000009459578744109086341_);fill:#F37367;}
	.st15{clip-path:url(#SVGID_00000081648094556655240970000003558628606440208054_);fill:#F37367;}
	.st16{clip-path:url(#SVGID_00000079485958563003280000000011013002024127005070_);fill:#F37367;}
</style>
<g>
	<defs>
		<rect id="SVGID_00000060738163471120366160000016301806227088212899_" x="10.2" y="11.5" width="59.5" height="57"/>
	</defs>
	<clipPath id="SVGID_00000167387030183555620990000012171844226899663513_">
		<use xlink:href="#SVGID_00000060738163471120366160000016301806227088212899_"  style="overflow:visible;"/>
	</clipPath>
	<path style="clip-path:url(#SVGID_00000167387030183555620990000012171844226899663513_);fill:#F37367;" d="M26.9,53.5
		c0.7,0.5,1.4,0.9,2,1.3c0.5,0.3,0.6,0.8,0.2,1.3c-0.4,0.4-0.8,0.9-1.1,1.3c-1,1.1-1,1.1-0.3,2.4c0.1,0.3,0.3,0.3,0.5,0.2
		c3-1.7,4.9-4.2,5.7-7.5c0.1-0.3,0-0.4-0.3-0.5c-1.2-0.3-2.4-0.7-3.6-1c-0.2,0-0.3-0.1-0.5,0C28.6,51.9,27.8,52.7,26.9,53.5
		 M18.5,41.1c0-0.3,0-0.5,0-0.6c0-0.7,0-0.7-0.6-0.4c-2.6,1.4-4.4,3.4-5.4,6.2c-0.1,0.3-0.1,0.6,0.1,0.8c0.8,1,1.6,2,2.4,2.9
		c0.7,0.8,1.1,1.6,1.2,2.6c0,0.7,0.2,1.3,0.4,1.9c0,0.2-0.1,0.5,0.3,0.5c0.3,0,0.5-0.2,0.6-0.5c0.4-1,0.9-2,1.3-3
		c0.1-0.2,0.2-0.5,0.5-0.6c1.2-0.6,1.4-1.5,0.9-2.7c0-0.1-0.1-0.2-0.1-0.3c0-0.3-0.2-0.4-0.5-0.5c-1-0.3-2-0.5-3-0.8
		c-0.8-0.2-1-0.7-0.5-1.4c0.6-0.9,1.1-1.7,1.7-2.5C18.3,42.3,18.6,41.7,18.5,41.1 M11.9,48.7c0,0.4-0.1,0.6-0.1,0.9
		c-0.1,4.6,1.8,8,5.8,10.3c2.6,1.5,5.4,1.7,8.3,1c0.5-0.1,0.6-0.3,0.3-0.8c-0.2-0.4-0.4-0.8-0.6-1.1c-0.3-0.5-0.3-1,0.2-1.5
		c0.5-0.5,0.9-1,1.4-1.5c0.2-0.2,0.3-0.4-0.1-0.6c-0.6-0.3-1.1-0.7-1.7-1.1c-0.7-0.5-0.8-0.9-0.2-1.5c1.1-1,2.2-2,3.3-3.1
		c0.5-0.5,0.9-0.5,1.5-0.4c1.2,0.4,2.4,0.6,3.5,1c0.5,0.2,0.6,0,0.6-0.5c0-0.8-0.1-1.5-0.3-2.2c-0.1-0.4-0.2-0.6-0.7-0.6
		c-2.3,0-4.6,0-7,0c-2.1,0-3.5-1.4-3.5-3.4c0-1.4,0-2.9,0-4.3c0-0.5-0.1-0.6-0.6-0.5c-0.6,0.1-1.2,0.1-1.8,0.3
		c-0.3,0.1-0.5,0.2-0.5,0.6c0,0.7,0,1.4,0,2c0,0.5-0.1,0.9-0.4,1.2c-0.5,0.7-1,1.4-1.4,2.1c-0.2,0.3-0.2,0.4,0.2,0.5
		c0.8,0.2,1.6,0.5,2.4,0.7c0.5,0.1,0.7,0.4,0.8,0.9c0.1,0.9,0.3,1.9,0.5,2.8c0.1,0.5,0,0.9-0.4,1.2c-1.1,0.6-1.8,1.6-2.2,2.8
		c-0.1,0.3-0.2,0.5-0.3,0.7c-0.9,1.9-0.4,1.5-2.5,2c-0.9,0.2-1.2,0-1.3-0.9c-0.2-1.2-0.4-2.4-0.7-3.7c0-0.2-0.1-0.4-0.2-0.5
		C13.6,50.7,12.8,49.8,11.9,48.7 M69.8,31.5c-1.5,0.2-1.5,0.2-1.5-1.3c0-5,0-10,0-15c0-1.5-0.7-2.2-2.2-2.2c-13.2,0-26.4,0-39.6,0
		c-1.5,0-2.1,0.7-2.1,2.1c0,7.7,0,15.3,0,23c0,0.5,0.1,0.7,0.7,0.7c6,0,12.1,0,18.1,0c0.8,0,0.7-0.1,0.7,0.8c0,0.9,0.1,0.8-0.8,0.8
		c-0.2,0-0.3,0-0.5,0c-5.9,0-11.7,0-17.6,0c-0.5,0-0.7,0.1-0.7,0.6c0.1,0.9,0,1.8,0,2.7c0,1.3,0.7,2,2,2c5.6,0,11.2,0,16.7,0
		c0.2,0,0.6-0.2,0.7,0.1c0.1,0.4,0.1,0.8,0,1.3c0,0.2-0.2,0.1-0.4,0.1c-0.7,0-1.3,0-2,0c-0.3,0-0.4,0.1-0.4,0.4c0,2,0,4,0,6
		c0,0.3,0.1,0.4,0.4,0.4c0.6,0,1.2,0,1.8,0c0.4,0,0.6,0.1,0.5,0.5c0,1.2,0.1,1-1,1c-1.4,0-2.8,0-4.2,0c-0.5,0-0.6-0.2-0.6-0.6
		c0-0.9,0-1,1-0.9c0.5,0,0.6-0.1,0.6-0.6c0-1.9,0-3.8,0-5.7c0-0.4-0.1-0.6-0.5-0.6c-1,0-2.1,0-3.1,0c-0.4,0-0.5,0-0.4,0.5
		c0.9,5.3-1.2,10.3-5.6,13.1c-7.9,5-18.4,0-19.5-9.2c-0.8-7,4.1-13.2,11.1-14.1c0.4-0.1,1.1,0.1,1.3-0.2c0.2-0.3,0.1-0.9,0.1-1.4
		c0-6.9,0-13.8,0-20.7c0-2.3,1.6-3.7,3.7-3.7c13.1,0,26.1,0,39.2,0c2.1,0,3.5,0.7,4.1,2.7V31.5z"/>
	<path style="clip-path:url(#SVGID_00000167387030183555620990000012171844226899663513_);fill:#F37367;" d="M68.2,52.6
		c0-4.1,0-8.2,0-12.3c0-1.5-0.7-2.2-2.2-2.2c-5.5,0-11,0-16.4,0c-1.5,0-2.2,0.7-2.2,2.1c0,8.2,0,16.4,0,24.5c0,1.5,0.7,2.2,2.2,2.2
		c5.5,0,11,0,16.4,0c1.5,0,2.2-0.7,2.2-2.2C68.2,60.7,68.2,56.6,68.2,52.6 M69.8,65.8c-0.2,0.4-0.3,0.8-0.5,1.1
		c-0.6,1-1.5,1.6-2.7,1.6c-5.8,0-11.6,0-17.4,0c-1.8,0-3.2-1.5-3.2-3.3c0-2.2,0-4.3,0-6.5c0-6.2,0-12.4,0-18.5c0-1.7,1-3,2.5-3.4
		c0.4-0.1,0.7-0.1,1.1-0.1c5.4,0,10.7,0,16.1,0c1.9,0,3.4,0.4,4.1,2.7V65.8z"/>
	<path style="clip-path:url(#SVGID_00000167387030183555620990000012171844226899663513_);fill:#F37367;" d="M69.8,35.4
		c-0.1,0-0.1,0-0.2,0c-1.4,0.1-1.4,0.1-1.4-1.3c0-0.4,0.1-0.5,0.5-0.5c0.3,0,0.7,0,1,0V35.4z"/>
	<path style="clip-path:url(#SVGID_00000167387030183555620990000012171844226899663513_);fill:#F37367;" d="M46.3,33.1
		c3.4,0,6.9,0,10.3,0c0.9,0,1.2-0.2,1.2-1.1c0-4,0-8.1,0-12.1c0-0.8-0.3-1.1-1.1-1.1c-1.2,0-2.4,0-3.6,0c-0.8,0-1,0.1-1.1,1
		c-0.2,1.3-1.1,2-2.3,2c-2.2,0-4.5,0-6.7,0c-1.3,0-2.2-0.8-2.4-2.1c-0.1-0.7-0.3-0.9-1-0.9c-1.2,0-2.4,0-3.6,0
		c-0.9,0-1.1,0.2-1.1,1.1c0,4,0,8,0,12c0,1.1,0.2,1.3,1.3,1.3C39.5,33.1,42.9,33.1,46.3,33.1 M46.3,34.6c-3.4,0-6.9,0-10.3,0
		c-1.7,0-2.6-0.9-2.6-2.7c0-4,0-8.1,0-12.1c0-1.8,0.9-2.7,2.7-2.7c1.2,0,2.4,0,3.7,0c1.4,0,2.2,0.8,2.4,2.2c0.1,0.6,0.3,0.8,0.9,0.8
		c2.2,0,4.3,0,6.5,0c0.7,0,0.9-0.2,1-0.8c0.2-1.5,1-2.2,2.5-2.2c1.3,0,2.5,0,3.8,0c1.5,0,2.5,1,2.5,2.5c0,4.1,0,8.3,0,12.4
		c0,1.5-1,2.5-2.5,2.5C53.3,34.6,49.8,34.6,46.3,34.6"/>
	<path style="clip-path:url(#SVGID_00000167387030183555620990000012171844226899663513_);fill:#F37367;" d="M32.9,65
		c0.4,0.3,0.8,0.6,1.2,0.8c0.3,0.2,0.3,0.3,0.1,0.6c-0.6,0.9-0.6,0.9-1.6,0.3c-0.8-0.6-1.7-1.2-2.5-1.8c-0.7-0.5-0.7-1,0-1.5
		c1-0.7,2-1.4,3-2.1c0.3-0.2,0.4-0.2,0.7,0.1c0.6,0.9,0.6,0.9-0.3,1.5c-0.2,0.1-0.4,0.3-0.6,0.4c0.2,0.2,0.3,0.1,0.5,0.1
		c2.7,0,5.3,0,8,0c0.5,0,0.6-0.1,0.6-0.6c0-0.5,0-1.1,0-1.6c0-0.3,0.1-0.4,0.4-0.4c1.1-0.1,1.1-0.1,1.1,1.1c0,0.7,0,1.4,0,2
		c0,0.8-0.2,1.1-1.1,1.1c-3,0-5.9,0-8.9,0C33.4,64.9,33.2,64.8,32.9,65"/>
	<path style="clip-path:url(#SVGID_00000167387030183555620990000012171844226899663513_);fill:#F37367;" d="M17.9,21.4
		c-0.7,0-1.5,0-2.2,0c-0.4,0-0.3,0.3-0.3,0.6c0,2.3,0,4.6,0,7c0,0.3,0.1,0.6-0.1,0.7c-0.4,0.1-0.8,0.1-1.3,0c-0.2,0-0.1-0.2-0.1-0.3
		c0-2.9,0-5.7,0-8.6c0-0.6,0.3-0.9,0.9-0.9c1,0,2.1,0,3.1,0c-0.3-0.3-0.6-0.7-0.8-0.9c-0.2-0.2-0.3-0.3,0-0.6
		c0.8-0.9,0.8-0.9,1.6-0.1c0.6,0.5,1.2,1.1,1.7,1.6c0.6,0.5,0.6,0.9,0,1.4c-0.7,0.7-1.5,1.4-2.2,2.1c-0.2,0.2-0.3,0.3-0.6,0
		c-0.8-0.8-0.8-0.8,0-1.6c0.1-0.1,0.3-0.2,0.4-0.3L17.9,21.4z"/>
	<path style="clip-path:url(#SVGID_00000167387030183555620990000012171844226899663513_);fill:#F37367;" d="M15.4,32.8
		c-0.1,0.2,0.2,0.7-0.1,0.7c-0.4,0.1-0.8,0-1.3,0c-0.2,0-0.1-0.2-0.1-0.3c0-0.3,0-0.6,0-0.9c-0.1-0.5,0.2-0.6,0.6-0.6
		C15.5,31.8,15.4,31.7,15.4,32.8"/>
	<path style="clip-path:url(#SVGID_00000167387030183555620990000012171844226899663513_);fill:#F37367;" d="M53.5,42.6h-0.3
		c-1.1,0-1.1,0-1.1,1.1c0,1.4,0,1.4,1.4,1.4c1.3,0,1.3,0,1.3-1.2C54.8,42.6,54.8,42.6,53.5,42.6 M53.5,46.6c-0.7,0-1.4,0-2,0
		c-0.6,0-0.9-0.3-0.9-0.9c0-1.3,0-2.6,0-3.8c0-0.6,0.3-0.9,0.9-0.9c1.4,0,2.7,0,4.1,0c0.6,0,0.9,0.3,0.9,0.9c0,1.3,0,2.6,0,3.8
		c0,0.6-0.3,0.9-0.9,0.9C54.8,46.6,54.1,46.6,53.5,46.6"/>
	<path style="clip-path:url(#SVGID_00000167387030183555620990000012171844226899663513_);fill:#F37367;" d="M62.3,59.9H62
		c-1.1,0-1.1,0-1.1,1.1c0,0.5-0.2,1.1,0.1,1.3c0.3,0.3,1,0.1,1.5,0.1c1.2,0,1.2,0,1.2-1.2C63.7,59.9,63.7,59.9,62.3,59.9 M62.3,58.3
		c0.7,0,1.4,0,2,0c0.6,0,0.9,0.3,0.9,0.9c0,1.3,0,2.6,0,3.8c0,0.6-0.3,0.9-0.9,0.9c-1.4,0-2.8,0-4.1,0c-0.5,0-0.8-0.3-0.8-0.8
		c0-1.3,0-2.6,0-3.9c0-0.6,0.3-0.8,0.9-0.8C61,58.3,61.6,58.3,62.3,58.3"/>
	<path style="clip-path:url(#SVGID_00000167387030183555620990000012171844226899663513_);fill:#F37367;" d="M62.2,53.7h0.3
		c1.1,0,1.1,0,1.1-1.2c0-1.4,0-1.4-1.4-1.4c-1.4,0-1.4,0-1.4,1.3C60.9,53.7,60.9,53.7,62.2,53.7 M62.3,55.3c-0.7,0-1.4,0-2,0
		c-0.6,0-0.9-0.3-0.9-0.9c0-1.3,0-2.5,0-3.8c0-0.6,0.3-0.9,0.9-0.9c1.4,0,2.7,0,4.1,0c0.6,0,0.9,0.3,0.9,0.9c0,1.3,0,2.6,0,3.8
		c0,0.6-0.3,0.9-0.9,0.9C63.7,55.3,63,55.3,62.3,55.3"/>
	<path style="clip-path:url(#SVGID_00000167387030183555620990000012171844226899663513_);fill:#F37367;" d="M62.3,42.6H62
		c-1.1,0-1.1,0-1.1,1.1c0,0.5-0.2,1.1,0.1,1.3c0.3,0.3,0.9,0.1,1.4,0.1c1.3,0,1.3,0,1.3-1.2C63.7,42.6,63.7,42.6,62.3,42.6
		 M62.3,46.6c-0.7,0-1.3,0-2,0c-0.7,0-0.9-0.3-0.9-0.9c0-1.3,0-2.5,0-3.8c0-0.6,0.3-0.9,0.9-0.9c1.3,0,2.7,0,4,0
		c0.6,0,0.9,0.3,0.9,0.9c0,1.2,0,2.5,0,3.7c0,0.6-0.3,0.9-0.9,0.9C63.6,46.6,63,46.6,62.3,46.6"/>
	<path style="clip-path:url(#SVGID_00000167387030183555620990000012171844226899663513_);fill:#F37367;" d="M53.5,53.7
		c0.3,0,0.6,0,0.9,0c0.3,0,0.5-0.1,0.4-0.4c0-0.2,0-0.3,0-0.5c0-0.5,0.2-1.2-0.1-1.6c-0.3-0.3-1-0.1-1.5-0.1c-1.1,0-1.1,0-1.1,1.1
		C52.1,53.7,52.1,53.7,53.5,53.7 M53.5,55.3c-0.7,0-1.4,0-2,0c-0.6,0-0.9-0.3-0.9-0.9c0-1.3,0-2.5,0-3.8c0-0.6,0.3-0.9,0.9-0.9
		c1.3,0,2.6,0,3.9,0c0.6,0,0.9,0.3,0.9,0.9c0,1.2,0,2.5,0,3.7c0,0.7-0.3,0.9-1,0.9C54.7,55.3,54.1,55.3,53.5,55.3"/>
	<path style="clip-path:url(#SVGID_00000167387030183555620990000012171844226899663513_);fill:#F37367;" d="M53.4,62.4
		c0.3,0,0.6,0,0.9,0c0.4,0,0.5-0.1,0.5-0.5c0-0.6,0-1.1,0-1.7c0-0.3-0.1-0.4-0.4-0.4c-0.4,0-0.8,0-1.2,0c-1.1,0-1.1,0-1.1,1.1
		C52.1,62.4,52.1,62.4,53.4,62.4 M53.5,58.3c0.7,0,1.4,0,2,0c0.5,0,0.8,0.3,0.8,0.8c0,1.3,0,2.6,0,3.9c0,0.6-0.3,0.9-0.9,0.9
		c-1.4,0-2.7,0-4.1,0c-0.6,0-0.9-0.3-0.9-0.9c0-1.3,0-2.6,0-3.9c0-0.5,0.3-0.8,0.8-0.8C52.1,58.3,52.8,58.3,53.5,58.3"/>
</g>
</svg>
