<?xml version="1.0" encoding="utf-8"?>
<!-- Generator: Adobe Illustrator 25.4.1, SVG Export Plug-In . SVG Version: 6.00 Build 0)  -->
<svg version="1.1" id="Layer_1" xmlns="http://www.w3.org/2000/svg" xmlns:xlink="http://www.w3.org/1999/xlink" x="0px" y="0px"
	 viewBox="0 0 80 80" style="enable-background:new 0 0 80 80;" xml:space="preserve">
<style type="text/css">
	.st0{clip-path:url(#SVGID_00000171719663766202904830000007893611747715376278_);fill:#F37367;}
	.st1{clip-path:url(#SVGID_00000018237469356461724170000000665560263770975898_);fill:#F37367;}
	.st2{clip-path:url(#SVGID_00000047048898102217589510000011194933630646067090_);fill:#F37367;}
	.st3{clip-path:url(#SVGID_00000083066367540387983230000006595710625490058145_);fill:#F37367;}
	.st4{clip-path:url(#SVGID_00000172422457505946450300000017268366520527606161_);fill:#F37367;}
	.st5{clip-path:url(#SVGID_00000121981741651136785880000003012681631682445987_);fill:#F37367;}
	.st6{clip-path:url(#SVGID_00000038387863940555521490000012924153698951255984_);fill:#F37367;}
	.st7{clip-path:url(#SVGID_00000091007986991657493300000009970479307500803461_);fill:#F37367;}
	.st8{clip-path:url(#SVGID_00000158021335027057916690000014383860574940497572_);fill:#F37367;}
	.st9{clip-path:url(#SVGID_00000119804942162368750730000009210150282348310194_);fill:#F37367;}
	.st10{clip-path:url(#SVGID_00000121274108601120444810000004951766428407659144_);fill:#F37367;}
	.st11{clip-path:url(#SVGID_00000121994235521763649480000011085927339523767681_);fill:#F37367;}
	.st12{clip-path:url(#SVGID_00000025435407250602695870000018216439826388201353_);fill:#F37367;}
	.st13{clip-path:url(#SVGID_00000176722641962777770910000007740681391200065685_);fill:#F37367;}
	.st14{clip-path:url(#SVGID_00000041991552956482467760000011716174900493314991_);fill:#F37367;}
	.st15{clip-path:url(#SVGID_00000077323812048974045730000015768999997074336434_);fill:#F37367;}
	.st16{clip-path:url(#SVGID_00000098184968236873871450000015797398080489805706_);fill:#F37367;}
</style>
<g>
	<defs>
		<rect id="SVGID_00000178919263449424621750000010951559824348567976_" x="10.8" y="11.5" width="58.3" height="57"/>
	</defs>
	<clipPath id="SVGID_00000181085004224027378300000003465751830914284950_">
		<use xlink:href="#SVGID_00000178919263449424621750000010951559824348567976_"  style="overflow:visible;"/>
	</clipPath>
	<path style="clip-path:url(#SVGID_00000181085004224027378300000003465751830914284950_);fill:#F37367;" d="M12.6,34
		c0,0.4,0,0.7,0,1.1c0,0.1,0,0.3,0.2,0.3c0.5,0,1.1,0,1.5-0.5c0.4-0.5,0.5-1,0.3-1.5c-0.2-0.5-0.6-0.8-1.2-0.9
		c-0.7-0.1-0.7-0.1-0.7,0.7C12.6,33.5,12.6,33.7,12.6,34 M67.4,34c0-0.4,0-0.7,0-1.1c0-0.1,0-0.3-0.2-0.3c-0.6,0-1.1-0.1-1.6,0.4
		c-0.4,0.4-0.5,1-0.3,1.5c0.2,0.6,0.7,0.9,1.3,0.9c0.7,0,0.7,0,0.7-0.7C67.4,34.5,67.4,34.2,67.4,34 M57.1,35.4c0.3,0,0.6,0,0.9,0
		c0.8,0,1.3-0.6,1.3-1.4c0-0.8-0.5-1.4-1.3-1.5c-0.6,0-1.2,0-1.8,0c-0.8,0-1.3,0.6-1.3,1.4c0,0.8,0.6,1.4,1.3,1.4
		C56.5,35.4,56.8,35.4,57.1,35.4 M22.8,35.4c0.3,0,0.6,0,0.9,0c0.8,0,1.3-0.6,1.3-1.4c0-0.8-0.5-1.4-1.3-1.4c-0.6,0-1.2,0-1.8,0
		c-0.8,0-1.3,0.6-1.3,1.4c0,0.8,0.6,1.4,1.4,1.4C22.2,35.4,22.5,35.4,22.8,35.4 M40,25.4c0.9,0,1.7,0,2.6,0c0.3,0,0.5-0.1,0.5-0.5
		c0-1.4,0-2.9,0-4.3c0-1.8-1.4-3.1-3-3.1c-1.7,0-3,1.3-3,3.1c0,1.4,0,2.9,0,4.3c0,0.4,0.1,0.5,0.5,0.5C38.3,25.4,39.1,25.4,40,25.4
		 M48.4,66.7c-0.5-0.7-1-1.2-1.4-1.8c-0.3-0.4-0.6-0.5-1-0.5c-0.9,0-1.8,0-2.7,0c-0.6,0-1-0.4-1-0.9c0-0.5,0.4-0.9,1-0.9
		c0.8,0,1.6,0,2.4,0c0.4,0,0.5-0.1,0.5-0.5c0-1.6,0-3.1,0-4.6c0-0.4-0.1-0.5-0.5-0.5c-3.8,0-7.5,0-11.3,0c-0.4,0-0.5,0.1-0.5,0.5
		c0,1.5,0,3,0,4.5c0,0.5,0.2,0.6,0.6,0.6c1.5,0,3.1,0,4.6,0c0.6,0,0.9,0.4,1,0.9c0,0.5-0.4,0.9-0.9,0.9c-0.1,0-0.3,0-0.4,0
		c-1.6,0-3.2,0-4.8,0c-0.2,0-0.4-0.1-0.5,0.1c-0.6,0.7-1.1,1.4-1.7,2.2H48.4z M40,55.2c4,0,8,0,12.1,0c3.8,0,7.7,0,11.5,0
		c2,0,3.6-1.4,3.8-3.5c0.1-0.5,0-1.1,0.1-1.6c0-0.5-0.2-0.6-0.6-0.5c-1.1,0-2.3,0-3.4,0c-0.2,0-0.3,0-0.5,0
		c-0.5-0.1-0.8-0.4-0.8-0.9c0-0.5,0.4-0.9,0.9-0.9c1.3,0,2.6,0,3.9,0c0.4,0,0.6-0.1,0.6-0.6c0-3.1,0-6.2,0-9.2
		c0-0.6-0.1-0.8-0.7-0.7c-1.1,0.1-2.1-0.3-2.5-1.3c-0.5-1.1-1.2-1.1-2.1-1c-0.2,0-0.5,0-0.7,0c-0.3,0-0.5,0.1-0.6,0.4
		c-0.6,1.2-1.5,1.9-2.8,1.9c-0.6,0-1.2,0-1.8,0c-1,0-1.9-0.4-2.3-1.3c-0.5-1-1.1-1.1-2-1c0,0,0,0-0.1,0c-0.5-0.1-0.7,0.1-0.6,0.6
		c0,1.6,0,3.2,0,4.8c0,2.6-1.6,4.2-4.1,4.2c-3.4,0-6.7,0-10.1,0c-0.2,0-0.4,0-0.6,0c-0.4-0.1-0.7-0.4-0.6-0.9c0-0.5,0.3-0.7,0.8-0.8
		c0.2,0,0.3,0,0.5,0c3.3,0,6.7,0,10,0c1.5,0,2.4-0.9,2.4-2.4c0-4.1,0-8.1,0-12.2c0-0.8-0.2-1-1-1c-5.6,0-11.3,0-16.9,0
		c-0.8,0-1,0.2-1,1c0,4.1,0,8.2,0,12.2c0,1.5,0.8,2.3,2.3,2.4c0.7,0,1,0.3,1,0.9c0,0.5-0.4,0.9-1.1,0.9c-2.2,0-3.9-1.7-3.9-4
		c0-1.7,0-3.4,0-5.1c0-0.4-0.1-0.6-0.5-0.5c-0.4,0-0.8,0-1.3,0c-0.3,0-0.5,0.1-0.6,0.4c-0.6,1.3-1.5,1.9-2.9,1.9c-0.5,0-1,0-1.5,0
		c-1.4,0-2.4-0.7-3-2c-0.1-0.2-0.2-0.4-0.5-0.4c-0.7,0-1.3,0-2,0c-0.3,0-0.4,0.1-0.5,0.3c-0.6,1.3-1.6,2-3,2c-0.5,0-0.5,0.2-0.5,0.6
		c0,3,0,6.1,0,9.1c0,0.9-0.1,0.8,0.8,0.8c15.1,0,30.3,0,45.4,0c0.2,0,0.5,0,0.7,0c0.4,0.1,0.7,0.3,0.7,0.8c0,0.5-0.2,0.8-0.7,0.9
		c-0.3,0.1-0.6,0-0.8,0c-14.9,0-29.9,0-44.8,0c-1.3,0-1.3,0-1.3,1.3c0,2.8,1.5,4.4,4.2,4.4C24.5,55.2,32.2,55.2,40,55.2 M10.8,23.8
		c0.1-0.5,0.2-0.9,0.4-1.4c1-2.3,2.7-3.5,5.1-3.5c3.8,0,7.6,0,11.4,0c0.7,0,1.1,0.4,1,0.9c0,0.5-0.4,0.8-1.1,0.8c-3.7,0-7.3,0-11,0
		c-1.2,0-2.3,0.3-3.1,1.3c-0.6,0.7-1,1.6-1,2.5c0,2,0,4,0,5.9c0,0.3,0.1,0.5,0.4,0.4c1.5,0,2.5,0.6,3.1,2c0.1,0.3,0.3,0.3,0.5,0.3
		c0.7,0,1.3,0,2,0c0.3,0,0.4-0.1,0.5-0.3c0.6-1.3,1.6-2,3-2c0.5,0,1.1,0,1.6,0c1.3,0,2.2,0.7,2.7,1.9c0.2,0.3,0.3,0.5,0.7,0.5
		c0.4,0,0.8,0,1.3,0c0.4,0,0.5-0.1,0.5-0.5c0-1.5,0-2.9,0-4.4c0-1.6,0.6-2.4,2-2.7c0.4-0.1,0.3-0.3,0.3-0.6c0-1.8-0.1-3.6,0.1-5.4
		c0.3-3.5,2.9-6.7,6.3-7.7c3.4-1,7.2,0.2,9.3,3c0.4,0.5,0.4,1,0,1.4c-0.4,0.3-0.9,0.2-1.3-0.2c-2-2.4-4.5-3.2-7.5-2.4
		c-3,0.8-5.1,3.7-5.1,6.9c0,1.5,0,3,0,4.5c0,0.4,0.1,0.5,0.5,0.5c0.5,0,1,0,1.5,0c0.4,0,0.5-0.2,0.5-0.5c0-1.4,0-2.8,0-4.2
		c0.1-2.9,2.2-5.1,5-4.9c2.5,0.1,4.4,2.2,4.5,5c0,1.4,0,2.8,0,4.2c0,0.4,0.1,0.6,0.5,0.5c0.4,0,0.9,0,1.3,0c0.4,0,0.6-0.1,0.6-0.5
		c-0.1-2,0.1-3.9-0.2-5.9c-0.1-0.5,0.3-0.9,0.7-1c0.4-0.1,0.8,0.2,1,0.7c0.2,0.7,0.2,1.4,0.2,2.1c0,1.4,0,2.7,0,4.1
		c0,0.3,0,0.5,0.4,0.5c1.3,0.3,1.9,1.2,1.9,2.6c0,1.5,0,3,0,4.5c0,0.5,0.1,0.6,0.6,0.6c0.1,0,0.2,0,0.3,0c0.8,0.1,1.3,0,1.7-0.9
		c0.4-0.9,1.4-1.4,2.4-1.4c0.6,0,1.2,0,1.8,0c1.3,0,2.3,0.7,2.8,1.9c0.1,0.3,0.3,0.4,0.6,0.4c0.6,0,1.3,0,1.9,0
		c0.2,0,0.4-0.1,0.5-0.3c0.6-1.3,1.6-2,3-2c0.5,0,0.6-0.1,0.6-0.6c0-1.8,0-3.7,0-5.5c0-2.2-1.4-3.9-3.6-4c-1.4-0.1-2.8,0-4.2,0
		c-2.5,0-4.9,0-7.4,0c-0.4,0-0.7,0-0.9-0.3c-0.4-0.5-0.1-1.2,0.5-1.4c0.2-0.1,0.5-0.1,0.7-0.1c3.6,0,7.2,0,10.8,0
		c3.6,0,5.9,2.4,5.9,6.1c0,8.7,0,17.3,0,26c0,2.9-1.6,5.1-4.2,5.8c-0.6,0.2-1.1,0.2-1.7,0.2c-5,0-9.9,0-14.9,0
		c-0.5,0-0.6,0.1-0.6,0.7c0,1.7,0,3.4,0,5.1c0,0.3,0.1,0.6,0.3,0.8c0.8,0.9,1.5,1.9,2.2,2.8c0.2,0.3,0.5,0.4,0.8,0.4
		c0.3,0,0.5,0,0.8,0c0.4,0.1,0.7,0.4,0.6,0.9c0,0.5-0.3,0.7-0.8,0.8c-0.1,0-0.3,0-0.5,0c-7.6,0-15.1,0-22.7,0c-0.2,0-0.3,0-0.5,0
		c-0.5,0-0.7-0.3-0.8-0.8c0-0.5,0.2-0.8,0.7-0.9c0.1,0,0.1,0,0.2,0c1,0.2,1.6-0.4,2.1-1.2c0.6-0.8,1.5-1.5,1.8-2.4
		c0.3-0.9,0.1-2.1,0.1-3.1c0-0.8,0-1.7,0-2.5c0-0.5-0.1-0.6-0.6-0.6c-2.8,0-5.6,0-8.4,0c-2.2,0-4.4,0-6.6,0c-3,0-5-1.7-5.7-4.7
		c0-0.1-0.1-0.1-0.1-0.2V23.8z"/>
	<path style="clip-path:url(#SVGID_00000181085004224027378300000003465751830914284950_);fill:#F37367;" d="M39.9,38.2
		c0.4,0,0.8,0,1.2,0c0.5,0,0.5-0.2,0.3-0.5c-0.2-0.5-0.3-1-0.5-1.5c-0.2-0.6-0.1-1.1,0.2-1.6c0.2-0.3,0.4-0.6,0.4-1
		c0.1-0.7-0.4-1.4-1-1.7c-0.7-0.3-1.4-0.1-1.9,0.5c-0.5,0.6-0.6,1.4-0.1,2c0.5,0.7,0.5,1.3,0.2,2.1c-0.1,0.4-0.2,0.8-0.4,1.2
		c-0.1,0.3-0.1,0.5,0.3,0.5C39.2,38.2,39.5,38.2,39.9,38.2 M39.9,40c-0.5,0-1.1,0-1.6,0c-1.2,0-2-1.1-1.6-2.3
		c0.1-0.2,0.1-0.4,0.2-0.6c0.3-0.8,0.4-1.6,0-2.5c-0.7-1.4,0-3.1,1.2-4c1.3-0.9,3-0.8,4.1,0.3c1.1,1.1,1.4,2.8,0.7,4.2
		c-0.2,0.4-0.3,0.8-0.1,1.2c0.2,0.5,0.3,0.9,0.4,1.4c0.3,1.2-0.4,2.2-1.6,2.3C41.1,40,40.5,40,39.9,40"/>
	<path style="clip-path:url(#SVGID_00000181085004224027378300000003465751830914284950_);fill:#F37367;" d="M40.9,52.3
		c0,0.1,0,0.3-0.1,0.4c-0.1,0.4-0.4,0.6-0.8,0.6c-0.6,0-0.9-0.5-0.9-1.4c0-0.7,0.4-1.1,0.9-1.1C40.6,50.9,40.9,51.3,40.9,52.3"/>
</g>
</svg>
