<?xml version="1.0" encoding="utf-8"?>
<!-- Generator: Adobe Illustrator 25.4.1, SVG Export Plug-In . SVG Version: 6.00 Build 0)  -->
<svg version="1.1" id="Layer_1" xmlns="http://www.w3.org/2000/svg" xmlns:xlink="http://www.w3.org/1999/xlink" x="0px" y="0px"
	 viewBox="0 0 80 80" style="enable-background:new 0 0 80 80;" xml:space="preserve">
<style type="text/css">
	.st0{clip-path:url(#SVGID_00000143577140128804933240000012096816228910610600_);fill:#F37367;}
	.st1{clip-path:url(#SVGID_00000093162188679607032090000001378606007534112693_);fill:#F37367;}
	.st2{clip-path:url(#SVGID_00000062152176007782005810000004194234181889842825_);fill:#F37367;}
	.st3{clip-path:url(#SVGID_00000110454054413086297040000014770777323613520040_);fill:#F37367;}
	.st4{clip-path:url(#SVGID_00000049921384563153902180000006868764734343649690_);fill:#F37367;}
	.st5{clip-path:url(#SVGID_00000119075879185166793510000005219608949908620211_);fill:#F37367;}
	.st6{clip-path:url(#SVGID_00000008145813788409700680000001353399812955356084_);fill:#F37367;}
	.st7{clip-path:url(#SVGID_00000113333348290719026770000004720887682759221639_);fill:#F37367;}
	.st8{clip-path:url(#SVGID_00000119084138809323325460000015454448261117329828_);fill:#F37367;}
	.st9{clip-path:url(#SVGID_00000023994431617781568010000010293012593505039006_);fill:#F37367;}
	.st10{clip-path:url(#SVGID_00000115482893399188170560000007584641034835872929_);fill:#F37367;}
	.st11{clip-path:url(#SVGID_00000113315255515863245640000011765439771558954385_);fill:#F37367;}
	.st12{clip-path:url(#SVGID_00000104705250332861207290000007950156580476258707_);fill:#F37367;}
	.st13{clip-path:url(#SVGID_00000088840347650473861720000012730881359467270803_);fill:#F37367;}
	.st14{clip-path:url(#SVGID_00000036243005037658131710000010431112916775821218_);fill:#F37367;}
	.st15{clip-path:url(#SVGID_00000039104865393185382880000008550451730543076225_);fill:#F37367;}
	.st16{clip-path:url(#SVGID_00000053527333054684001370000005397683526240764812_);fill:#F37367;}
</style>
<g>
	<defs>
		<rect id="SVGID_00000040533080120359691440000012333462594755448725_" x="5.1" y="11.5" width="69.7" height="57"/>
	</defs>
	<clipPath id="SVGID_00000160161148171036141650000015781295520675830446_">
		<use xlink:href="#SVGID_00000040533080120359691440000012333462594755448725_"  style="overflow:visible;"/>
	</clipPath>
	<path style="clip-path:url(#SVGID_00000160161148171036141650000015781295520675830446_);fill:#F37367;" d="M64.7,30.4
		c0-1-0.8-1.7-1.7-1.7c-0.9,0-1.7,0.8-1.7,1.7c0,0.9,0.8,1.7,1.7,1.7C63.9,32.1,64.7,31.3,64.7,30.4 M5.1,59.6
		c0.3-0.5,0.7-0.9,1.4-0.6c0.6,0.2,0.7,0.8,0.7,1.3c0,1.1,0,2.1,0,3.2c0,1.8,1.1,2.9,2.9,2.9c6.1,0,12.3,0,18.4,0
		c13.7,0,27.4,0,41.1,0c2.2,0,3.2-1,3.2-3.2c0-10.9,0-21.9,0-32.8c0-0.7-0.2-0.9-0.8-0.8c-0.7,0.1-1.3,0-2,0c-0.7,0-1.1-0.4-1.1-1
		c0-0.6,0.4-1,1.1-1.1c0.8,0,1.5,0,2.3,0c0.4,0,0.5-0.1,0.5-0.5c0-0.4,0-0.9,0-1.3c-0.1-1.5-1.2-2.6-2.6-2.6c-1.9,0-3.8,0-5.7,0
		c-0.4,0-0.6,0.1-0.5,0.5c0,0.9,0,1.7,0,2.6c0,0.3,0.1,0.5,0.4,0.6c1.5,0.7,2.4,1.9,2.3,3.5c0,1.6-0.8,2.8-2.3,3.5
		C64.1,34,64,34.1,64,34.5c0,0.8,0,1.6,0,2.3c0,0.3,0.1,0.5,0.4,0.5c1.7,0.3,2.7,1.4,3.2,3.1c0.5,1.8,1,3.6,1.5,5.3
		c0.7,2.4-0.5,4.4-2.9,5.1c-1.4,0.4-2.9,0.8-4.3,1.2c-0.8,0.2-1.4,0-1.5-0.7c-0.2-0.6,0.2-1.1,1-1.3c1.4-0.4,2.8-0.8,4.2-1.2
		c1.4-0.4,1.9-1.2,1.5-2.7c-0.5-1.8-1-3.6-1.5-5.4c-0.2-0.6-0.5-1-1-1.3c-0.4-0.2-0.6-0.1-0.6,0.4c0,0.5,0,1,0,1.4
		c-0.1,2-1.8,3.6-3.8,3.7c-0.6,0-1.1-0.3-1.2-0.9c-0.1-0.6,0.3-1,1-1.1c1.5-0.2,2.3-1.4,2-2.9c-0.1-0.5-0.4-0.2-0.6-0.1
		c-2.1,0.6-4.2,1.2-6.3,1.7C41.5,45.5,28,49.2,14.4,53c-1.4,0.4-1.9,1.2-1.5,2.6c0.5,1.8,1,3.6,1.5,5.3c0.4,1.3,1.2,1.8,2.5,1.4
		c8.8-2.5,17.7-4.9,26.5-7.4c4.3-1.2,8.6-2.4,13-3.6c0.1,0,0.2-0.1,0.3-0.1c0.7-0.2,1.2,0.1,1.4,0.6c0.2,0.6-0.1,1.1-0.8,1.3
		c-0.9,0.3-1.7,0.5-2.6,0.7c-12.4,3.4-24.8,6.9-37.1,10.3c-2.5,0.7-4.4-0.4-5.1-2.9c-0.5-1.7-0.9-3.4-1.4-5.1
		c-0.7-2.7,0.4-4.6,3-5.3c13.8-3.8,27.6-7.7,41.4-11.5c0.5-0.1,0.7-0.4,0.6-0.9c0-0.5,0-1.1,0-1.6c0-0.6,0.4-1,0.9-1.1
		c0.5,0,1,0.4,1.1,1c0,0.5,0,0.9,0,1.4c0,0.4,0.1,0.4,0.4,0.3c1-0.3,2.1-0.6,3.1-0.9c0.3-0.1,0.4-0.3,0.4-0.5c0-0.9,0-1.9,0-2.8
		c0-0.3-0.1-0.4-0.4-0.5c-1.5-0.7-2.3-1.8-2.3-3.5c0-1.7,0.8-2.9,2.3-3.5c0.3-0.1,0.4-0.3,0.4-0.5c0-0.9,0-1.8,0-2.7
		c0-0.4-0.1-0.5-0.5-0.5c-0.2,0-0.4,0-0.5,0c-14.4,0-28.8,0-43.2,0c-0.3,0-0.6,0-0.9-0.1c-0.5-0.1-0.8-0.5-0.8-1.1
		c0-0.5,0.4-0.9,0.9-0.9c0.2,0,0.5,0,0.7,0c14.5,0,28.9,0,43.4,0c0.7,0,0.9-0.1,0.9-0.9c0-2.4,0-4.8,0-7.2c0-0.2,0-0.4,0-0.6
		c0.1-0.6,0.4-0.9,1-0.9c0.5,0,1,0.4,1,1c0,0.6,0,1.2,0,1.8c0,2,0,4.1,0,6.1c0,0.5,0.2,0.6,0.6,0.6c1.8,0,3.5,0,5.3,0
		c2.9,0,4.9,2,4.9,5c0,12.5,0,25,0,37.5c0,2.9-2,5-4.9,5c-20,0-39.9,0-59.9,0c-2.4,0-4.2-1.4-4.8-3.7c0-0.1-0.1-0.2-0.1-0.2V59.6z"
		/>
	<path style="clip-path:url(#SVGID_00000160161148171036141650000015781295520675830446_);fill:#F37367;" d="M5.1,25.1
		c0.2-0.2,0.1-0.4,0.2-0.6c0.6-2,2.4-3.3,4.4-3.3c0.9,0,1.9,0,2.8,0c0.7,0,1.1,0.4,1.2,1c0,0.6-0.4,1.1-1.1,1.1c-0.9,0-1.8,0-2.7,0
		c-1.6,0-2.7,1.2-2.8,2.8c0,1.6,0,1.6,1.6,1.6c15.2,0,30.5,0,45.7,0c0.3,0,0.6,0,0.9,0.1c0.5,0.1,0.8,0.5,0.8,1
		c0,0.5-0.3,0.9-0.9,0.9c-0.3,0-0.5,0-0.8,0c-15.5,0-30.9,0-46.4,0c-1,0-0.9-0.1-0.9,0.9c0,8,0,16.1,0,24.1c0,0.2,0,0.4,0,0.5
		c0,0.6-0.1,1.1-0.7,1.3c-0.6,0.2-1-0.2-1.4-0.6V25.1z"/>
	<path style="clip-path:url(#SVGID_00000160161148171036141650000015781295520675830446_);fill:#F37367;" d="M48.7,49.6
		c0.6,0,1.1-0.5,1.1-1.1c0-0.6-0.4-1.1-1.1-1.2c-0.7,0-1.2,0.5-1.2,1.1C47.6,49.1,48.1,49.6,48.7,49.6 M45.6,48.5
		c0-1.8,1.4-3.2,3.2-3.2c1.7,0,3.2,1.4,3.2,3.2c0,1.8-1.4,3.2-3.2,3.2C47,51.7,45.6,50.3,45.6,48.5"/>
	<path style="clip-path:url(#SVGID_00000160161148171036141650000015781295520675830446_);fill:#F37367;" d="M40,49.8
		c-0.6,0-1.1,0.5-1.1,1.1c0,0.7,0.5,1.2,1.2,1.1c0.6,0,1.1-0.5,1.1-1.2C41.1,50.3,40.6,49.8,40,49.8 M40,54.1
		c-1.8,0-3.2-1.4-3.2-3.2c0-1.8,1.4-3.2,3.2-3.2c1.8,0,3.2,1.4,3.2,3.2C43.2,52.7,41.8,54.1,40,54.1"/>
	<path style="clip-path:url(#SVGID_00000160161148171036141650000015781295520675830446_);fill:#F37367;" d="M31.3,54.5
		c0.6,0,1.1-0.5,1.1-1.1c0-0.6-0.5-1.1-1.1-1.1c-0.6,0-1.2,0.5-1.2,1.2C30.1,54,30.7,54.5,31.3,54.5 M34.4,53.3
		c0,1.8-1.4,3.2-3.2,3.2c-1.8,0-3.2-1.5-3.2-3.2c0-1.7,1.4-3.2,3.2-3.2C33,50.1,34.4,51.6,34.4,53.3"/>
	<path style="clip-path:url(#SVGID_00000160161148171036141650000015781295520675830446_);fill:#F37367;" d="M22.5,54.7
		c-0.6,0-1.1,0.5-1.2,1.1c0,0.6,0.5,1.2,1.2,1.2c0.6,0,1.1-0.5,1.1-1.1C23.7,55.2,23.2,54.7,22.5,54.7 M22.5,52.6
		c1.8,0,3.2,1.4,3.2,3.2c0,1.7-1.4,3.2-3.2,3.2c-1.7,0-3.2-1.5-3.2-3.2C19.3,54,20.8,52.6,22.5,52.6"/>
</g>
</svg>
