<?xml version="1.0" encoding="utf-8"?>
<!-- Generator: Adobe Illustrator 25.4.1, SVG Export Plug-In . SVG Version: 6.00 Build 0)  -->
<svg version="1.1" id="Layer_1" xmlns="http://www.w3.org/2000/svg" xmlns:xlink="http://www.w3.org/1999/xlink" x="0px" y="0px"
	 viewBox="0 0 105 105" style="enable-background:new 0 0 105 105;" xml:space="preserve">
<style type="text/css">
	.st0{fill:#A0A5B6;}
	.st1{fill:#F37367;}
	.st2{fill:#FFFFFF;}
</style>
<g>
	<path class="st2" d="M52.5,21.9c15.2,0,30.5,0,45.7,0c1,0,1.2-0.3,1.2-1.2c0-4.6,0-9.3,0-13.9c0-0.8-0.1-1.2-1.1-1.2
		c-30.5,0-61,0-91.6,0c-0.9,0-1.1,0.3-1.1,1.1c0,4.6,0.1,9.3,0,13.9c0,1,0.3,1.2,1.3,1.2C22.1,21.9,37.3,21.9,52.5,21.9 M52.5,99.4
		c15.1,0,30.2,0,45.4,0c1.4,0,1.4,0,1.4-1.4c0-23.9,0-47.7,0-71.6c0-1.4,0-1.4-1.4-1.4c-30.3,0-60.6,0-91,0c-1.4,0-1.4,0-1.4,1.4
		c0,23.8,0,47.6,0,71.5c0,1.4,0,1.4,1.4,1.4C22.2,99.4,37.4,99.4,52.5,99.4 M52.5,2.5c15.8,0,31.6,0,47.4,0c2.3,0,2.6,0.3,2.6,2.6
		c0,31.6,0,63.2,0,94.8c0,2.2-0.4,2.6-2.5,2.6c-31.6,0-63.3,0-94.9,0c-2.1,0-2.5-0.4-2.5-2.5c0-31.7,0-63.4,0-95.1
		c0-2.1,0.4-2.5,2.4-2.5C20.8,2.5,36.6,2.5,52.5,2.5"/>
	<path class="st2" d="M52.4,81.5c2.2,0,1.8,0.3,2.3-1.5c0.5-1.8,1.6-2.6,3.3-3.4c2.3-1.1,4.2-1.2,6.3,0.2c0.4,0.3,0.7,0.1,1.1-0.2
		c2-1.9,2-1.9,0.8-4.3c-0.1-0.2-0.2-0.4-0.3-0.6c-0.4-0.7-0.3-1.3,0.1-2c0.6-1,1.1-2.1,1.4-3.3c0.2-0.8,0.7-1.2,1.5-1.5
		c0.8-0.2,1.6-0.6,2.4-0.9c0.4-0.1,0.5-0.3,0.6-0.7c0.2-2.8,0.2-2.8-2.4-3.8c-0.2-0.1-0.4-0.2-0.6-0.2c-0.8-0.2-1.2-0.7-1.4-1.5
		c-0.2-0.9-0.5-1.8-1-2.6c-0.7-1.1-0.7-2.1-0.1-3.3c1.1-2.2,1-2.2-0.6-3.9c-0.5-0.6-1-0.7-1.7-0.3c-1.8,1.1-3.5,1.6-5.4,0.1
		c-0.2-0.1-0.4-0.2-0.7-0.3c-1.8-0.3-2.8-1.4-3.1-3.2c0-0.1-0.1-0.3-0.1-0.4c-0.2-1-0.8-1.3-1.8-1.2c-2.1,0.1-2.2,0-2.8,2
		c-0.4,1.5-1.2,2.4-2.8,2.7c-0.5,0.1-1,0.3-1.4,0.6c-1.4,1-2.7,0.8-4.1,0c-1.7-0.9-1.7-0.8-3.1,0.5c-0.8,0.7-1.1,1.4-0.4,2.4
		c1.1,1.6,0.8,3.1,0.1,4.9c-0.9,2.4-2.1,3.8-4.5,4.2c-0.5,0.1-0.7,0.3-0.7,0.9c-0.1,2.7-0.1,2.7,2.4,3.6c0.2,0.1,0.3,0.1,0.5,0.2
		c0.9,0.2,1.3,0.8,1.5,1.7c0.1,0.4,0.2,0.8,0.4,1.1c1.5,2.1,1.4,4.3-0.1,6.4c-0.2,0.3-0.2,0.6,0.1,0.9c1.8,2.2,1.8,2.2,4.3,1
		c0.2-0.1,0.4-0.2,0.6-0.3c0.7-0.4,1.4-0.4,2.1,0c1,0.6,2.1,1,3.3,1.4c0.7,0.2,1.2,0.7,1.4,1.4c0.2,0.5,0.3,0.9,0.5,1.4
		C51,81.8,50.4,81.4,52.4,81.5 M70.8,74.9c0,0.5-0.2,0.9-0.5,1.3c-1.2,1.2-2.5,2.5-3.7,3.7c-0.6,0.6-1.3,0.8-2.1,0.4
		c-0.3-0.1-0.5-0.2-0.8-0.4c-1.7-1.3-3.4-1.1-5.1-0.1c-0.3,0.2-0.6,0.4-0.7,0.7c-0.3,0.9-0.7,1.8-1,2.8c-0.3,0.9-0.8,1.3-1.8,1.3
		c-1.7,0-3.5,0-5.2,0c-0.9,0-1.4-0.4-1.7-1.2c-0.1-0.3-0.2-0.6-0.3-0.9c-1-2.6-1-2.6-3.5-3.6c-0.4-0.1-0.7-0.1-1,0.1
		c-0.9,0.4-1.8,0.8-2.7,1.2c-0.8,0.4-1.5,0.3-2.2-0.4c-1.2-1.2-2.4-2.4-3.6-3.6c-0.6-0.6-0.8-1.3-0.4-2.1c0.1-0.3,0.3-0.6,0.4-0.9
		c1.2-2.6,1.2-2.6,0-5.1c-0.2-0.4-0.4-0.5-0.8-0.6c-0.9-0.3-1.8-0.7-2.7-1c-0.9-0.3-1.4-0.9-1.3-1.9c0-1.7,0-3.4,0-5
		c0-1,0.4-1.6,1.3-1.9c0.2-0.1,0.4-0.2,0.6-0.2c1.9-0.4,3.2-1.3,3.6-3.3c0.1-0.5,0.3-0.9,0-1.5c-0.4-0.8-0.8-1.7-1.2-2.6
		c-0.4-0.8-0.3-1.5,0.4-2.1c1.2-1.2,2.4-2.4,3.6-3.6c0.6-0.7,1.3-0.8,2.2-0.4c0.3,0.1,0.6,0.2,0.9,0.4c1.5,1,2.9,1.2,4.5,0.2
		c0.6-0.4,1.1-0.6,1.3-1.3c0.2-0.8,0.6-1.6,0.8-2.4c0.3-0.8,0.8-1.3,1.7-1.3c1.8,0,3.6,0,5.3,0c0.8,0,1.4,0.4,1.7,1.2
		c0.1,0.3,0.2,0.6,0.3,0.9c0.4,1.8,1.3,3,3.1,3.4c0.6,0.2,1.1,0.3,1.8,0c0.8-0.4,1.6-0.8,2.5-1.2c0.7-0.3,1.4-0.2,1.9,0.3
		c1.3,1.3,2.6,2.6,3.9,3.9c0.6,0.6,0.6,1.2,0.3,1.9c-0.1,0.3-0.3,0.6-0.4,0.9c-1.2,2.5-1.2,2.5-0.1,5.1c0.2,0.4,0.5,0.6,0.8,0.7
		c0.9,0.4,1.9,0.7,2.8,1.1c0.7,0.3,1.1,0.8,1.1,1.6c0,1.8,0,3.6,0,5.3c0,0.8-0.4,1.4-1.2,1.7c-0.3,0.1-0.6,0.2-0.9,0.3
		c-2.6,1-2.6,1-3.6,3.6c-0.2,0.4-0.1,0.7,0.1,1c0.4,0.9,0.8,1.7,1.2,2.6C70.6,74.3,70.8,74.6,70.8,74.9"/>
	<path class="st2" d="M46.7,30.8c-0.1-0.5-0.5-0.6-0.8-0.9c-0.6-0.6-0.6-1.3-0.1-2c0.5-0.7,1.3-0.7,1.9-0.2c1.3,1.1,2.5,2.2,3.7,3.3
		c0.6,0.6,0.6,1.3,0.1,1.9c-1,1.2-2.1,2.4-3.2,3.6c-0.6,0.6-1.3,0.7-2,0.1c-0.7-0.6-0.6-1.3,0.1-2.4c-0.4,0.1-0.7,0.1-1,0.1
		C34,37.1,25.2,47.2,24,58.9c-0.1,1-0.1,2-0.2,3c-0.1,1.1-0.7,1.8-1.6,1.9c-1,0-1.6-0.7-1.6-1.9C21,49,27.1,39.8,38.3,33.8
		C40.9,32.3,43.8,31.4,46.7,30.8"/>
	<path class="st2" d="M58.1,93.6c0.4,0.4,0.8,0.7,1.1,1c0.5,0.6,0.5,1.3,0,1.9c-0.5,0.6-1.2,0.7-1.8,0.2c-1.4-1.1-2.7-2.3-3.9-3.5
		c-0.6-0.6-0.4-1.4,0.2-2c0.9-1,1.7-1.9,2.6-2.9c0.9-1,1.6-1.2,2.3-0.7c0.7,0.5,0.8,1.3,0.1,2.4c0.2,0.2,0.5,0.1,0.8,0
		C71,87.3,79.8,77.3,81,65.5c0.1-1,0.1-2,0.2-3c0.1-1.1,0.7-1.8,1.6-1.8c0.9,0,1.5,0.7,1.5,1.9C84.5,77,73.6,90.4,59.3,93.4
		C59,93.4,58.6,93.5,58.1,93.6"/>
	<path class="st2" d="M29.9,13.7c0-0.8-0.7-1.5-1.5-1.5c-0.9,0-1.6,0.7-1.6,1.6c0,0.8,0.7,1.5,1.6,1.5
		C29.2,15.4,29.9,14.6,29.9,13.7 M33,13.8c0,2.6-2.2,4.7-4.8,4.7c-2.5,0-4.6-2.2-4.7-4.7c0-2.6,2.1-4.7,4.7-4.7
		C31,9.1,33,11.2,33,13.8"/>
	<path class="st2" d="M40.9,15.4c0.8,0,1.5-0.7,1.6-1.5c0-0.9-0.6-1.6-1.5-1.6c-0.8,0-1.5,0.6-1.6,1.5C39.3,14.6,40,15.3,40.9,15.4
		 M45.6,13.8c0,2.6-2.1,4.7-4.7,4.7c-2.5,0-4.7-2.1-4.7-4.7c0-2.6,2.1-4.7,4.7-4.7C43.5,9.1,45.6,11.2,45.6,13.8"/>
	<path class="st2" d="M15.6,15.3c0.8,0,1.6-0.7,1.6-1.6c0-0.8-0.7-1.5-1.5-1.5c-0.8,0-1.5,0.6-1.6,1.5
		C14.1,14.6,14.8,15.3,15.6,15.3 M11,13.8c0-2.6,2.1-4.7,4.7-4.7c2.6,0,4.7,2.1,4.7,4.7c0,2.6-2.1,4.8-4.7,4.8
		C13.1,18.5,11,16.4,11,13.8"/>
	<path class="st2" d="M52.5,68.9c3.7,0,6.7-3,6.7-6.7c0-3.7-3-6.7-6.6-6.7c-3.7-0.1-6.8,3-6.8,6.7C45.8,65.9,48.8,68.9,52.5,68.9
		 M52.5,72c-5.4,0-9.8-4.4-9.8-9.9c0-5.4,4.5-9.9,9.9-9.8c5.4,0,9.8,4.5,9.8,9.9C62.3,67.7,57.9,72.1,52.5,72"/>
</g>
</svg>
