<?xml version="1.0" encoding="utf-8"?>
<!-- Generator: Adobe Illustrator 25.4.1, SVG Export Plug-In . SVG Version: 6.00 Build 0)  -->
<svg version="1.1" id="Layer_1" xmlns="http://www.w3.org/2000/svg" xmlns:xlink="http://www.w3.org/1999/xlink" x="0px" y="0px"
	 viewBox="0 0 105 105" style="enable-background:new 0 0 105 105;" xml:space="preserve">
<style type="text/css">
	.st0{clip-path:url(#SVGID_00000155131446028392072420000010145188753960729252_);fill:#F37367;}
	.st1{clip-path:url(#SVGID_00000125595293103568570980000003263814277966395320_);fill:#A0A5B6;}
	.st2{fill:#A0A5B6;}
	.st3{fill:#FFFFFF;}
</style>
<g>
	<path class="st3" d="M99.4,51.6C98.8,26.3,77.8,6.2,51.8,6.4C25.9,6.7,5.2,27.7,5.7,53.5c0.5,25.5,21.8,45.6,47.8,45.1
		C79.3,98.1,99.8,77.1,99.4,51.6 M55.6,3.4c1.8,0.2,3.7,0.4,5.5,0.7c20.3,3.5,36.5,19,40.5,39c4.8,24.3-9.7,48.7-33.6,56.1
		c-25.9,8.1-53.1-4.9-62.5-29.9C4,65.2,3,60.8,2.7,56.4c0-0.3,0-0.6-0.2-0.8v-6.1C2.8,47.6,3,45.8,3.3,44
		C6.7,24.1,22.6,8.2,42.7,4.3c2.3-0.4,4.6-0.6,6.8-0.9H55.6z"/>
	<path class="st3" d="M24.7,23.2c-0.4,0.5-0.8,1.1-1.3,1.5c-0.6,0.5-0.5,0.9,0,1.4c18.5,18.1,36.9,36.2,55.3,54.4
		c1.4,1.4,1.4,1.3,2.8,0c0.7-0.6,0.6-1,0-1.6C62.9,60.6,44.3,42.3,25.8,24.1c-0.2-0.2-0.4-0.4-0.6-0.5C25.1,23.4,25,23.4,24.7,23.2
		 M53.8,92.5c7.7-0.1,15.8-2.7,23.1-8c0.7-0.5,0.8-0.7,0.1-1.4C58.4,64.9,39.9,46.7,21.4,28.4c-0.6-0.6-0.8-0.6-1.4,0.1
		c-7,9.3-9.6,19.7-7.5,31.1C15.9,78.6,32.7,92.4,53.8,92.5 M93.1,52.9c0-5.1-0.7-9.7-2.5-14.1c-6.3-15.4-17.9-24.2-34.7-26
		c-10.3-1.1-19.5,1.9-27.8,7.9c-0.5,0.4-0.7,0.6-0.1,1.2c18.6,18.3,37.2,36.5,55.8,54.8c0.6,0.6,0.8,0.4,1.2-0.1
		C90.3,69.4,93.1,61.4,93.1,52.9 M52.4,9.5c24.2,0,43.8,19.3,43.9,43.1c0,23.8-19.7,43.1-44.2,42.9C28.1,95.4,8.8,76.2,8.8,52.7
		C8.7,28.8,28.3,9.5,52.4,9.5"/>
	<path class="st3" d="M85.3,52.5c0-1.7-1.4-3.1-3.1-3.1c-1.7,0-3.1,1.3-3.2,3c0,1.7,1.4,3.1,3.1,3.1C83.9,55.6,85.3,54.2,85.3,52.5
		 M72.8,35.6c1.7,0,3.1-1.4,3.1-3c0-1.7-1.4-3.1-3.2-3.1c-1.7,0-3.1,1.4-3.1,3.1C69.7,34.2,71.1,35.6,72.8,35.6 M55.6,23.3
		c0-1.7-1.4-3-3.1-3c-1.7,0-3.1,1.4-3.1,3.1c0,1.7,1.4,3.1,3.2,3.1C54.3,26.4,55.6,25,55.6,23.3 M73,51c0.2,0,0.5,0,0.7,0
		c1.5,0.1,2.6,0,3.4-1.7c1.2-2.5,4.4-3.5,7.2-2.6c2.8,0.9,4.5,3.5,4.2,6.4c-0.2,2.7-2.4,5-5.3,5.5c-2.7,0.5-5.6-1.1-6.6-3.7
		c-0.3-0.7-0.7-0.9-1.4-0.9c-1.6,0.1-3.2,0-4.8,0c-0.5,0-0.7,0.2-0.8,0.7c-0.1,0.8-0.2,1.5-0.4,2.3c-0.3,1.3-1.1,1.8-2,1.6
		c-1-0.2-1.4-1.1-1-2.4c1.2-4.3,0.4-8.3-2.2-11.8c-3.4-4.6-9.3-6.7-15-5.2c-0.3,0.1-0.5,0.1-0.8,0.2c-0.9,0.1-1.6-0.3-1.8-1.1
		c-0.2-0.8,0.2-1.6,1-1.8c0.9-0.3,1.8-0.6,2.8-0.6c0.7,0,0.9-0.3,0.9-1c-0.1-1.6,0-3.1,0-4.7c0-0.6-0.1-0.9-0.7-1.1
		c-2.8-1.1-4.4-4-3.8-6.8c0.6-3,3.1-5,6.1-5c3,0,5.5,2,6.1,5c0.6,2.8-1,5.7-3.8,6.7c-0.7,0.3-0.8,0.6-0.8,1.3c0,1.6,0,3.2,0,4.8
		c0,0.5,0.1,0.7,0.7,0.8c3,0.3,5.8,1.5,8.2,3.3c0.4,0.3,0.7,0.4,1,0c1-1,1.9-2,3-2.9c0.4-0.4,0.4-0.7,0.2-1.2
		c-1.1-2.4-0.6-5,1.3-6.8c1.8-1.8,4.6-2.3,7-1.3c2.4,1,3.8,3.4,3.7,5.9c-0.2,4.2-4.6,7-8.6,5.3c-0.7-0.3-1-0.2-1.5,0.3
		c-0.9,1-1.9,1.9-2.8,2.8c-0.3,0.3-0.5,0.5-0.1,0.9c2,2.4,3.1,5.2,3.5,8.3c0.1,0.5,0.3,0.6,0.7,0.6C71.1,51,72.1,51,73,51"/>
	<path class="st3" d="M40,21.8c-1.6,0-1.6,0-1.6-1.8c0-1.2,0-1.2,1.9-1.2c1.2,0,1.2,0,1.2,1.9C41.6,21.8,41.6,21.8,40,21.8"/>
	<path class="st3" d="M63.4,21.7c0-1.5,0-1.5,1.5-1.5c1.6,0,1.6,0,1.6,1.6c0,0.2,0,0.5,0,0.7c0.1,0.7-0.2,0.9-0.9,0.8
		c-0.2,0-0.4,0-0.6,0C63.4,23.3,63.4,23.3,63.4,21.7"/>
	<path class="st3" d="M55.5,44.8c-1.5,0-1.5,0-1.5-1.5c0-1.6,0-1.6,1.6-1.6c1.5,0,1.5,0,1.5,1.5C57.2,44.8,57.2,44.8,55.5,44.8"/>
	<path class="st3" d="M61.9,47.9c1.6,0,1.6,0,1.6,1.8c0,1.2,0,1.2-1.9,1.2c-1.2,0-1.2,0-1.2-2C60.3,47.9,60.3,47.9,61.9,47.9"/>
	<path class="st3" d="M83.7,66.3c-1.5,0-1.5,0-1.5-1.8c0-1.3,0-1.3,1.9-1.3c1.2,0,1.2,0,1.2,1.9C85.3,66.3,85.3,66.3,83.7,66.3"/>
	<path class="st3" d="M55.6,81.8c0-1.7-1.3-3.1-3-3.1c-1.7,0-3.2,1.3-3.2,3.1c0,1.7,1.4,3.1,3.1,3.1C54.2,84.8,55.6,83.4,55.6,81.8
		 M32.2,75.6c1.7,0,3.1-1.4,3.1-3.1c0-1.7-1.4-3.1-3.1-3.1c-1.7,0-3.2,1.4-3.2,3.1C29.1,74.2,30.5,75.6,32.2,75.6 M22.8,55.6
		c1.7,0,3.1-1.4,3.1-3c0-1.7-1.3-3.1-3.1-3.1c-1.7,0-3.2,1.4-3.2,3.1C19.7,54.2,21.1,55.6,22.8,55.6 M32.1,54.1c-0.1,0-0.3,0-0.4,0
		c-1.7-0.2-2.9,0-3.9,1.9c-1.2,2.5-4.5,3.3-7.2,2.3c-2.7-1-4.4-3.6-4.1-6.5c0.3-2.7,2.5-4.9,5.3-5.4c2.7-0.4,5.5,1.1,6.6,3.6
		c0.3,0.8,0.7,1,1.5,0.9c1.5-0.1,3.1,0,4.6,0c0.6,0,0.9-0.2,1-0.8c0.1-0.8,0.3-1.6,0.5-2.4c0.3-1,1.1-1.5,1.9-1.3
		c0.9,0.2,1.4,1.1,1.1,2.1c-1,3.5-0.7,6.8,0.9,10.1c3,5.9,9.7,8.9,16.2,7.2c0.2-0.1,0.4-0.1,0.7-0.2c0.9-0.2,1.7,0.3,1.9,1.1
		c0.2,0.8-0.2,1.5-1,1.8c-0.9,0.3-1.9,0.5-2.9,0.6c-0.6,0-0.8,0.3-0.8,0.8c0,1.5,0,3.1,0,4.6c0,0.8,0.1,1.2,0.9,1.5
		c2.6,1,4.2,3.9,3.7,6.5c-0.5,2.9-2.8,5-5.6,5.2c-3,0.2-5.6-1.5-6.5-4.2c-1-3,0.5-6.3,3.5-7.5c0.7-0.3,0.9-0.6,0.9-1.3
		c-0.1-1.6,0-3.1,0-4.7c0-0.5-0.1-0.8-0.7-0.9c-3-0.3-5.7-1.5-8.1-3.3c-0.5-0.4-0.8-0.3-1.2,0.1c-0.9,1-1.9,1.9-2.8,2.8
		c-0.4,0.4-0.5,0.7-0.2,1.2c1.1,2.4,0.5,5-1.3,6.8c-1.8,1.8-4.6,2.3-7,1.2c-2.4-1-3.8-3.4-3.7-5.9c0.2-4.2,4.7-7,8.6-5.3
		c0.7,0.3,1,0.2,1.5-0.3c0.9-0.9,1.8-1.8,2.8-2.7c0.4-0.3,0.5-0.6,0.1-1c-1.9-2.4-3.1-5.1-3.4-8.1c-0.1-0.5-0.3-0.6-0.8-0.6
		C33.9,54.1,33,54.1,32.1,54.1"/>
	<path class="st3" d="M22.8,40.3c0,1.5,0,1.5-1.8,1.5c-1.3,0-1.3,0-1.3-1.9c0-1.2,0-1.2,2-1.2C22.8,38.7,22.8,38.7,22.8,40.3"/>
	<path class="st3" d="M43.1,52.5c0,1.6,0,1.6-1.6,1.6c-1.5,0-1.5,0-1.5-1.4c0-1.6,0-1.6,1.7-1.6C43.1,51,43.1,51,43.1,52.5"/>
	<path class="st3" d="M47.8,58.6c0,1.6,0,1.6-1.6,1.6c-1.5,0-1.5,0-1.5-1.4c0-1.6,0-1.6,1.7-1.6C47.8,57.1,47.8,57.1,47.8,58.6"/>
	<path class="st3" d="M54.1,63.3c0,1.5,0,1.5-1.8,1.5c-1.3,0-1.3,0-1.3-1.9c0-1.2,0-1.2,2-1.2C54.1,61.7,54.1,61.7,54.1,63.3"/>
	<path class="st3" d="M40,80.2c1.6,0,1.6,0,1.6,1.9c0,1.2,0,1.2-1.9,1.2c-1.2,0-1.2,0-1.2-1.9C38.4,80.2,38.4,80.2,40,80.2"/>
</g>
</svg>
