<?xml version="1.0" encoding="utf-8"?>
<!-- Generator: Adobe Illustrator 25.4.1, SVG Export Plug-In . SVG Version: 6.00 Build 0)  -->
<svg version="1.1" id="Layer_1" xmlns="http://www.w3.org/2000/svg" xmlns:xlink="http://www.w3.org/1999/xlink" x="0px" y="0px"
	 viewBox="0 0 65 65" style="enable-background:new 0 0 65 65;" xml:space="preserve">
<style type="text/css">
	.st0{clip-path:url(#SVGID_00000050622101657840006080000015618410537842090634_);fill:#F37367;}
	.st1{clip-path:url(#SVGID_00000031894943602038505790000000060977497793551279_);fill:#A0A5B6;}
	.st2{fill:#A0A5B6;}
	.st3{fill:#FFFFFF;}
</style>
<path class="st2" d="M59.2,32C58.9,17.6,46.9,6.1,32.1,6.2C17.4,6.4,5.5,18.4,5.8,33.1c0.3,14.5,12.4,26,27.3,25.7
	C47.8,58.5,59.5,46.5,59.2,32 M34.3,4.5c1,0.1,2.1,0.3,3.1,0.4c11.6,2,20.8,10.9,23.1,22.2c2.8,13.9-5.5,27.7-19.1,32
	c-14.8,4.6-30.3-2.8-35.6-17.1c-0.9-2.4-1.4-4.8-1.6-7.3c0-0.2,0-0.3-0.1-0.5v-3.5c0.1-1,0.3-2.1,0.4-3.1c2-11.4,11-20.5,22.5-22.7
	c1.3-0.2,2.6-0.3,3.9-0.5H34.3z"/>
<path class="st2" d="M16.7,15.8c-0.2,0.3-0.5,0.6-0.8,0.9c-0.4,0.3-0.3,0.5,0,0.8c10.5,10.3,21,20.7,31.5,31c0.8,0.8,0.8,0.8,1.6,0
	c0.4-0.4,0.4-0.6,0-0.9C38.4,37.1,27.9,26.7,17.3,16.3c-0.1-0.1-0.2-0.2-0.3-0.3C16.9,15.9,16.8,15.9,16.7,15.8 M33.2,55.3
	c4.4,0,9-1.5,13.2-4.6c0.4-0.3,0.5-0.4,0.1-0.8C35.9,39.6,25.3,29.2,14.8,18.8c-0.3-0.3-0.5-0.4-0.8,0c-4,5.3-5.5,11.2-4.3,17.7
	C11.7,47.4,21.2,55.2,33.2,55.3 M55.7,32.7c0-2.9-0.4-5.6-1.4-8C50.6,15.9,44,10.8,34.4,9.9c-5.8-0.6-11.1,1.1-15.9,4.5
	c-0.3,0.2-0.4,0.4-0.1,0.7c10.6,10.4,21.2,20.8,31.8,31.3c0.3,0.3,0.5,0.3,0.7-0.1C54.1,42.1,55.6,37.6,55.7,32.7 M32.4,8
	c13.8,0,25,11,25,24.5c0,13.6-11.2,24.6-25.2,24.5C18.6,56.9,7.6,46,7.6,32.6C7.5,19,18.7,8,32.4,8"/>
<path class="st2" d="M51.2,32.5c0-1-0.8-1.7-1.8-1.8c-1,0-1.8,0.8-1.8,1.7c0,1,0.8,1.8,1.8,1.8C50.4,34.3,51.2,33.5,51.2,32.5
	 M44.1,22.9c1,0,1.8-0.8,1.8-1.7c0-1-0.8-1.8-1.8-1.8c-1,0-1.8,0.8-1.8,1.8C42.3,22.1,43.1,22.9,44.1,22.9 M34.3,15.9
	c0-1-0.8-1.7-1.8-1.7c-1,0-1.8,0.8-1.8,1.7c0,1,0.8,1.8,1.8,1.8C33.5,17.6,34.3,16.8,34.3,15.9 M44.2,31.6c0.1,0,0.3,0,0.4,0
	c0.9,0.1,1.5,0,1.9-1c0.7-1.4,2.5-2,4.1-1.5c1.6,0.5,2.5,2,2.4,3.7c-0.1,1.6-1.4,2.9-3,3.1c-1.5,0.3-3.2-0.6-3.8-2.1
	c-0.2-0.4-0.4-0.5-0.8-0.5c-0.9,0-1.8,0-2.7,0c-0.3,0-0.4,0.1-0.5,0.4c-0.1,0.4-0.1,0.9-0.2,1.3c-0.2,0.7-0.6,1-1.1,0.9
	c-0.6-0.1-0.8-0.6-0.6-1.4c0.7-2.4,0.2-4.7-1.2-6.8c-1.9-2.6-5.3-3.8-8.5-3c-0.1,0-0.3,0.1-0.4,0.1c-0.5,0.1-0.9-0.2-1-0.6
	c-0.1-0.4,0.1-0.9,0.6-1c0.5-0.2,1-0.3,1.6-0.3c0.4,0,0.5-0.2,0.5-0.6c0-0.9,0-1.8,0-2.7c0-0.3-0.1-0.5-0.4-0.6
	c-1.6-0.6-2.5-2.3-2.2-3.9c0.4-1.7,1.8-2.9,3.5-2.9c1.7,0,3.1,1.2,3.5,2.9c0.3,1.6-0.6,3.2-2.1,3.8c-0.4,0.2-0.5,0.3-0.5,0.7
	c0,0.9,0,1.8,0,2.7c0,0.3,0.1,0.4,0.4,0.5c1.7,0.2,3.3,0.8,4.7,1.9c0.2,0.2,0.4,0.2,0.6,0c0.5-0.6,1.1-1.1,1.7-1.7
	c0.2-0.2,0.2-0.4,0.1-0.7c-0.6-1.4-0.3-2.9,0.7-3.9c1-1,2.6-1.3,4-0.7c1.3,0.6,2.2,1.9,2.1,3.4c-0.1,2.4-2.6,4-4.9,3
	c-0.4-0.2-0.6-0.1-0.9,0.2c-0.5,0.5-1.1,1.1-1.6,1.6c-0.2,0.2-0.3,0.3-0.1,0.5c1.1,1.4,1.8,3,2,4.7c0,0.3,0.2,0.3,0.4,0.3
	C43.1,31.6,43.6,31.6,44.2,31.6"/>
<path class="st2" d="M25.4,15c-0.9,0-0.9,0-0.9-1c0-0.7,0-0.7,1.1-0.7c0.7,0,0.7,0,0.7,1.1C26.3,15,26.3,15,25.4,15"/>
<path class="st2" d="M38.7,14.9c0-0.8,0-0.8,0.8-0.8c0.9,0,0.9,0,0.9,0.9c0,0.1,0,0.3,0,0.4c0.1,0.4-0.1,0.5-0.5,0.5
	c-0.1,0-0.2,0-0.3,0C38.7,15.9,38.7,15.9,38.7,14.9"/>
<path class="st2" d="M34.2,28.1c-0.8,0-0.8,0-0.8-0.8c0-0.9,0-0.9,0.9-0.9c0.9,0,0.9,0,0.9,0.9C35.2,28.1,35.2,28.1,34.2,28.1"/>
<path class="st2" d="M37.8,29.9c0.9,0,0.9,0,0.9,1c0,0.7,0,0.7-1.1,0.7c-0.7,0-0.7,0-0.7-1.1C37,29.9,37,29.9,37.8,29.9"/>
<path class="st2" d="M50.3,40.4c-0.9,0-0.9,0-0.9-1c0-0.7,0-0.7,1.1-0.7c0.7,0,0.7,0,0.7,1.1C51.2,40.4,51.2,40.4,50.3,40.4"/>
<path class="st2" d="M34.3,49.2c0-1-0.8-1.8-1.7-1.8c-1,0-1.8,0.8-1.8,1.7c0,1,0.8,1.7,1.8,1.8C33.4,50.9,34.3,50.1,34.3,49.2
	 M20.9,45.6c1,0,1.8-0.8,1.8-1.7c0-1-0.8-1.7-1.8-1.8c-1,0-1.8,0.8-1.8,1.8C19.2,44.9,20,45.6,20.9,45.6 M15.6,34.3
	c1,0,1.8-0.8,1.8-1.7c0-1-0.8-1.8-1.7-1.8c-1,0-1.8,0.8-1.8,1.7C13.8,33.5,14.6,34.2,15.6,34.3 M20.9,33.4c-0.1,0-0.1,0-0.2,0
	c-1-0.1-1.7,0-2.2,1.1c-0.7,1.4-2.6,1.9-4.1,1.3c-1.6-0.5-2.5-2.1-2.3-3.7c0.2-1.5,1.4-2.8,3-3.1c1.5-0.2,3.1,0.6,3.7,2.1
	c0.2,0.4,0.4,0.6,0.8,0.5c0.9,0,1.7,0,2.6,0c0.4,0,0.5-0.1,0.6-0.5c0-0.5,0.2-0.9,0.3-1.4c0.2-0.6,0.6-0.9,1.1-0.8
	c0.5,0.1,0.8,0.6,0.6,1.2c-0.6,2-0.4,3.9,0.5,5.7c1.7,3.4,5.5,5.1,9.3,4.1c0.1,0,0.3-0.1,0.4-0.1c0.5-0.1,1,0.2,1.1,0.6
	c0.1,0.4-0.1,0.9-0.6,1c-0.5,0.2-1.1,0.3-1.6,0.3c-0.3,0-0.4,0.1-0.4,0.5c0,0.9,0,1.8,0,2.6c0,0.4,0.1,0.7,0.5,0.8
	c1.5,0.6,2.4,2.2,2.1,3.7c-0.3,1.6-1.6,2.8-3.2,2.9c-1.7,0.1-3.2-0.9-3.7-2.4c-0.6-1.7,0.3-3.6,2-4.3c0.4-0.2,0.5-0.3,0.5-0.8
	c0-0.9,0-1.8,0-2.7c0-0.3-0.1-0.5-0.4-0.5c-1.7-0.2-3.3-0.8-4.6-1.9c-0.3-0.2-0.4-0.2-0.7,0.1c-0.5,0.5-1.1,1.1-1.6,1.6
	c-0.2,0.2-0.3,0.4-0.1,0.7c0.6,1.4,0.3,2.9-0.7,3.9c-1.1,1-2.6,1.3-4,0.7c-1.3-0.6-2.2-1.9-2.1-3.4c0.1-2.4,2.7-4,4.9-3
	c0.4,0.2,0.6,0.1,0.8-0.2c0.5-0.5,1-1,1.6-1.5c0.2-0.2,0.3-0.3,0.1-0.6c-1.1-1.4-1.7-2.9-1.9-4.6c0-0.3-0.2-0.4-0.4-0.4
	C21.9,33.4,21.4,33.4,20.9,33.4"/>
<path class="st2" d="M15.6,25.5c0,0.9,0,0.9-1,0.9c-0.7,0-0.7,0-0.7-1.1c0-0.7,0-0.7,1.1-0.7C15.6,24.6,15.6,24.6,15.6,25.5"/>
<path class="st2" d="M27.2,32.5c0,0.9,0,0.9-0.9,0.9c-0.8,0-0.8,0-0.8-0.8c0-0.9,0-0.9,1-0.9C27.2,31.6,27.2,31.6,27.2,32.5"/>
<path class="st2" d="M29.8,36c0,0.9,0,0.9-0.9,0.9c-0.8,0-0.8,0-0.8-0.8c0-0.9,0-0.9,1-0.9C29.8,35.1,29.8,35.1,29.8,36"/>
<path class="st2" d="M33.4,38.7c0,0.9,0,0.9-1,0.9c-0.7,0-0.7,0-0.7-1.1c0-0.7,0-0.7,1.1-0.7C33.4,37.8,33.4,37.8,33.4,38.7"/>
<path class="st2" d="M25.4,48.3c0.9,0,0.9,0,0.9,1.1c0,0.7,0,0.7-1.1,0.7c-0.7,0-0.7,0-0.7-1.1C24.5,48.3,24.5,48.3,25.4,48.3"/>
</svg>
