<?xml version="1.0" encoding="utf-8"?>
<!-- Generator: Adobe Illustrator 25.4.1, SVG Export Plug-In . SVG Version: 6.00 Build 0)  -->
<svg version="1.1" id="Layer_1" xmlns="http://www.w3.org/2000/svg" xmlns:xlink="http://www.w3.org/1999/xlink" x="0px" y="0px"
	 viewBox="0 0 65 65" style="enable-background:new 0 0 65 65;" xml:space="preserve">
<style type="text/css">
	.st0{clip-path:url(#SVGID_00000026874092105435537050000012893345410394291131_);fill:#A0A5B6;}
	.st1{fill:#F37367;}
	.st2{fill:#FFFFFF;}
</style>
<g>
	<defs>
		<rect id="SVGID_1_" x="4" y="4" width="57" height="57"/>
	</defs>
	<clipPath id="SVGID_00000101074443377008594660000001412771489629392562_">
		<use xlink:href="#SVGID_1_"  style="overflow:visible;"/>
	</clipPath>
	<path style="clip-path:url(#SVGID_00000101074443377008594660000001412771489629392562_);fill:#A0A5B6;" d="M32.4,59.3
		c1.9,0,3.9,0,5.8,0c0.5,0,0.6-0.2,0.6-0.6c0-1.1,0-2.2,0-3.3c0-0.5-0.2-0.6-0.6-0.6c-3.9,0-7.7,0-11.6,0c-0.4,0-0.6,0.1-0.6,0.6
		c0,1.1,0,2.2,0,3.3c0,0.5,0.1,0.6,0.6,0.6C28.6,59.3,30.5,59.3,32.4,59.3 M32.5,47c1.9,0,3.9,0,5.8,0c0.4,0,0.6-0.1,0.6-0.6
		c0-1.1,0-2.2,0-3.3c0-0.4-0.1-0.6-0.6-0.6c-3.9,0-7.7,0-11.6,0c-0.5,0-0.6,0.2-0.6,0.6c0,1.1,0,2.1,0,3.2c0,0.5,0.1,0.7,0.7,0.7
		C28.7,47,30.6,47,32.5,47 M52.8,59.3c2,0,3.9,0,5.9,0c0.4,0,0.6-0.1,0.6-0.5c0-1.1,0-2.3,0-3.4c0-0.4-0.2-0.5-0.5-0.5
		c-3.9,0-7.8,0-11.7,0c-0.4,0-0.5,0.2-0.5,0.6c0,1.1,0,2.2,0,3.3c0,0.5,0.2,0.6,0.6,0.6C49,59.3,50.9,59.3,52.8,59.3 M12.1,42.5
		c-1.9,0-3.9,0-5.8,0c-0.4,0-0.6,0.1-0.6,0.6c0,1.1,0,2.2,0,3.3c0,0.4,0.1,0.6,0.5,0.6c3.9,0,7.8,0,11.7,0c0.4,0,0.5-0.2,0.5-0.6
		c0-1.1,0-2.2,0-3.3c0-0.5-0.2-0.7-0.7-0.7C15.9,42.5,14,42.5,12.1,42.5 M32.5,48.7c-1.9,0-3.9,0-5.8,0c-0.4,0-0.6,0.1-0.6,0.6
		c0,1.1,0,2.2,0,3.3c0,0.5,0.2,0.6,0.6,0.6c3.9,0,7.7,0,11.6,0c0.5,0,0.6-0.2,0.6-0.6c0-1.1,0-2.2,0-3.3c0-0.5-0.2-0.6-0.7-0.6
		C36.3,48.7,34.4,48.7,32.5,48.7 M52.9,48.7c-1.9,0-3.9,0-5.8,0c-0.4,0-0.6,0.1-0.6,0.6c0,1.1,0,2.2,0,3.3c0,0.4,0.1,0.6,0.6,0.6
		c3.9,0,7.8,0,11.7,0c0.5,0,0.6-0.2,0.6-0.6c0-1.1,0-2.2,0-3.2c0-0.6-0.2-0.7-0.7-0.7C56.7,48.7,54.8,48.7,52.9,48.7 M12,53.2
		c1.9,0,3.9,0,5.8,0c0.4,0,0.6-0.1,0.6-0.6c0-1.1,0-2.3,0-3.4c0-0.4-0.2-0.5-0.6-0.5c-3.9,0-7.8,0-11.7,0c-0.4,0-0.6,0.2-0.6,0.6
		c0,1.1,0,2.2,0,3.2c0,0.6,0.2,0.7,0.7,0.7C8.3,53.1,10.1,53.2,12,53.2 M33.6,4c0.7,0.1,1.4,0.3,2.1,0.4c1.4,0.4,2.7,1,3.9,1.9
		c0.6,0.4,0.7,0.9,0.4,1.4c-0.3,0.4-0.8,0.4-1.4,0c-5.8-4.3-13.9-1.4-15.8,5.5c-0.2,0.8-0.3,1.6-0.3,2.5c0,1.2-0.7,1.8-1.9,1.9
		c-3.3,0.1-5.9,2.6-6.1,5.9c-0.2,3,2.1,5.9,5.3,6.5c1.5,0.3,3,0,4.3-0.9c0.6-0.4,1.1-0.4,1.8-0.2c4.5,1.3,8.9,1.3,13.4,0
		c0.6-0.2,1.2-0.1,1.7,0.2c2.3,1.4,5,1.3,7.1-0.4c2.1-1.6,2.9-4.3,2.2-6.7c-0.8-2.5-3-4.3-5.6-4.4c-1.5-0.1-2-0.6-2.1-2.1
		c0-1.7-0.5-3.4-1.4-4.9c-0.1-0.1-0.1-0.2-0.2-0.3c-0.3-0.5-0.1-1,0.3-1.2c0.4-0.2,0.8-0.1,1.1,0.4c0.9,1.4,1.4,2.9,1.7,4.5
		c0.1,0.5,0.1,0.9,0.1,1.4c0,0.4,0.1,0.6,0.5,0.6c3.7,0.3,6.6,2.8,7.3,6.3c0.6,3.3-0.6,6-3.2,8c-2.6,1.9-5.5,2-8.4,0.4
		c-0.4-0.2-0.6-0.2-1-0.1c-1.8,0.5-3.6,0.8-5.5,0.9c-0.4,0-0.5,0.1-0.5,0.6c0,0.6,0,1.3,0,1.9c0,0.5,0.1,0.6,0.6,0.6
		c2.6,0,5.3,0,7.9,0c3.5,0,7,0,10.6,0c1,0,1.3,0.2,1.3,1.3c0,1.5,0,2.9,0,4.4c0,0.6,0.2,0.7,0.7,0.6c0.2,0,0.3,0,0.5,0
		c0.5,0,0.8,0.4,0.8,0.8s-0.3,0.8-0.8,0.8c-0.4,0-0.8,0-1.2,0c-2.2,0-4.3,0-6.5,0c-0.5,0-0.6,0.1-0.6,0.6c0,1.1,0,2.2,0,3.3
		c0,0.4,0.1,0.6,0.5,0.6c3.9,0,7.8,0,11.7,0c0.4,0,0.5-0.1,0.5-0.5c0-1.2,0-2.3,0-3.4c0-0.4-0.1-0.5-0.5-0.5c-0.9,0-1.3-0.3-1.2-0.8
		c0-0.6,0.4-0.8,1.3-0.8c1.4,0,2.2,0.8,2.2,2.1c0,1.2,0.1,2.3,0,3.5c-0.1,0.9-0.1,1.8,0,2.7c0.1,1.1,0,2.3,0,3.4
		c0,0.4,0,0.8-0.2,1.2c0,0.1-0.1,0.2-0.1,0.3c0.5,0.8,0.3,1.6,0.3,2.4c0,0.8,0,1.7,0,2.5c0,1.2-0.8,2-2,2c-4,0-8.1,0-12.1,0
		c-1.2,0-2-0.8-2-2c0-1.2-0.1-2.5,0-3.7c0.1-0.8,0.1-1.7,0-2.5c-0.1-1.2-0.1-2.5,0-3.7c0.1-0.8,0.1-1.7,0-2.5c-0.1-1.2,0-2.4,0-3.7
		c0-1.2,0.8-2,2.1-2.1c1.5,0,3,0,4.6,0c0.4,0,0.5-0.1,0.5-0.5c0-1.2,0-2.4,0-3.7c0-0.4-0.1-0.5-0.5-0.5c-5.9,0-11.8,0-17.7,0
		c-0.4,0-0.5,0.1-0.5,0.5c0,1.2,0,2.5,0,3.7c0,0.4,0.1,0.5,0.5,0.5c1.5,0,3.1,0,4.6,0c1.3,0,2.1,0.8,2.1,2.1c0,1.2,0.1,2.4,0,3.6
		c-0.1,0.9-0.1,1.7,0,2.6c0.1,1.2,0.1,2.4,0,3.6c-0.1,0.9-0.1,1.7,0,2.5c0.1,1.2,0,2.4,0,3.7c0,1.3-0.8,2.1-2.1,2.1
		c-4,0-7.9,0-11.9,0c-1.3,0-2.1-0.8-2.1-2.1c0-1.2-0.1-2.5,0-3.7c0.1-0.9,0.1-1.7,0-2.5c-0.1-1.2-0.1-2.5,0-3.7
		c0.1-0.8,0.1-1.6,0-2.5c-0.1-1.2-0.1-2.5,0-3.8c0-1.2,0.8-2,2.1-2c1.5,0,3.1,0,4.6,0c0.5,0,0.6-0.1,0.5-0.6c0-1.2,0-2.4,0-3.6
		c0-0.4-0.1-0.5-0.5-0.5c-5.9,0-11.8,0-17.7,0c-0.3,0-0.4,0.1-0.4,0.4c0,1.3,0,2.5,0,3.8c0,0.4,0.1,0.4,0.4,0.4c1.5,0,3,0,4.6,0
		c1.3,0,2.1,0.8,2.1,2.1c0,1.1,0,2.3,0,3.4c0,0.4,0,0.9-0.2,1.3c-0.1,0.1-0.1,0.2,0,0.3c0.4,0.6,0.3,1.4,0.3,2.1
		c0,0.9,0.1,1.8,0,2.7c-0.1,0.9-0.1,1.7,0,2.6c0.1,1.2,0,2.4,0,3.6c0,1.2-0.8,2.1-2,2.1c-1,0-2.1,0-3.1,0c-0.6,0-1-0.3-1-0.8
		c0-0.5,0.4-0.8,1-0.8c1,0,2,0,2.9,0c0.4,0,0.6-0.1,0.6-0.5c0-1.2,0-2.3,0-3.4c0-0.4-0.1-0.5-0.5-0.5c-3.9,0-7.9,0-11.8,0
		c-0.3,0-0.5,0.1-0.5,0.5c0,1.2,0,2.4,0,3.6c0,0.4,0.2,0.5,0.6,0.5c1.5,0,3.1,0,4.6,0c0.4,0,0.7,0.1,0.9,0.4c0.4,0.6,0,1.3-0.7,1.3
		c-1.7,0-3.5,0-5.2,0c-0.9,0-1.4-0.7-1.8-1.4v-4.9c0.4-0.4,0.3-0.9,0-1.3v-4.8c0.3-0.4,0.4-0.9,0-1.3v-4.9c0.5-1.1,1.4-1.5,2.6-1.5
		c1.4,0.1,2.9,0,4.3,0c0.3,0,0.4-0.1,0.4-0.4c0-1.5,0-3.1,0-4.6c0-1,0.2-1.3,1.3-1.3c3.8,0,7.7,0,11.5,0c2.3,0,4.6,0,7,0
		c0.5,0,0.6-0.1,0.6-0.6c0-0.6,0-1.3,0-1.9c0-0.4-0.1-0.5-0.5-0.5c-1.9-0.1-3.7-0.3-5.5-0.9c-0.3-0.1-0.6-0.1-0.9,0.1
		c-1.5,0.9-3.2,1.2-5,1c-3.9-0.6-7-4.2-6.9-8.1c0.2-4.1,3.3-7.4,7.4-7.7c0.4,0,0.5-0.2,0.6-0.6c0.1-5.1,3.6-9.6,8.6-10.9
		c0.7-0.2,1.3-0.3,2-0.4H33.6z"/>
	<path style="clip-path:url(#SVGID_00000101074443377008594660000001412771489629392562_);fill:#A0A5B6;" d="M36.6,14.5
		c-1.6-1.6-4.5-2.1-6.6-1.1c-2.3,1.1-3.5,2.9-3.7,5.4c0,0.1,0,0.3,0,0.4c-0.1,0.5-0.4,0.8-0.9,0.7c-0.5,0-0.8-0.3-0.8-0.9
		c0-0.8,0.1-1.5,0.3-2.2c1.6-5.3,7.9-7.4,12.3-4.1c0.1,0.1,0.3,0.2,0.5,0.3c0-0.3,0-0.4,0.1-0.6c0.1-0.5,0.4-0.7,0.9-0.7
		c0.4,0,0.8,0.3,0.8,0.7c0,1,0,2-0.1,3c0,0.4-0.4,0.6-0.8,0.6c-0.9,0-1.8,0.1-2.7,0.1c-0.5,0-0.8-0.3-0.8-0.8c0-0.5,0.3-0.8,0.8-0.9
		C36,14.5,36.3,14.5,36.6,14.5"/>
	<path style="clip-path:url(#SVGID_00000101074443377008594660000001412771489629392562_);fill:#A0A5B6;" d="M28.3,23.8
		c2.1,1.6,4.2,2,6.5,1.1c2.3-0.9,3.6-2.7,3.9-5.1c0-0.2,0-0.5,0.1-0.7c0.1-0.5,0.4-0.8,0.9-0.8c0.5,0,0.8,0.4,0.8,0.9
		c0,1-0.2,1.9-0.6,2.8c-1.9,4.8-7.9,6.5-12.1,3.5c-0.1-0.1-0.3-0.2-0.4-0.3c-0.1,0.2-0.1,0.4-0.1,0.6c-0.1,0.5-0.4,0.7-0.8,0.7
		c-0.5,0-0.8-0.3-0.8-0.7c0-1,0-2,0.1-2.9c0-0.4,0.4-0.6,0.8-0.7c0.9,0,1.8-0.1,2.7-0.1c0.5,0,0.8,0.3,0.8,0.8
		c0,0.5-0.3,0.8-0.7,0.8C29,23.8,28.7,23.8,28.3,23.8"/>
	<path style="clip-path:url(#SVGID_00000101074443377008594660000001412771489629392562_);fill:#A0A5B6;" d="M49.4,44.8
		c0,0.2,0,0.4,0,0.6c-0.1,0.5-0.4,0.8-0.8,0.8c-0.5,0-0.8-0.3-0.8-0.8c0-0.4,0-0.8,0-1.2c0-0.5,0.4-0.8,0.8-0.8
		c0.5,0,0.7,0.3,0.8,0.8C49.5,44.4,49.4,44.6,49.4,44.8"/>
	<path style="clip-path:url(#SVGID_00000101074443377008594660000001412771489629392562_);fill:#A0A5B6;" d="M8.6,57
		c0,0.2,0,0.5-0.1,0.7c-0.1,0.4-0.4,0.6-0.8,0.6c-0.4,0-0.8-0.2-0.8-0.7c0-0.5,0-0.9,0-1.4c0-0.4,0.4-0.7,0.8-0.7
		c0.4,0,0.7,0.2,0.8,0.7C8.6,56.5,8.6,56.8,8.6,57"/>
	<path style="clip-path:url(#SVGID_00000101074443377008594660000001412771489629392562_);fill:#A0A5B6;" d="M8.6,50.9
		c0,0.2,0,0.4,0,0.7c-0.1,0.5-0.4,0.7-0.8,0.7C7.3,52.3,7,52,7,51.6c0-0.4,0-0.9,0-1.3c0-0.5,0.4-0.7,0.8-0.7c0.4,0,0.7,0.3,0.8,0.7
		C8.6,50.5,8.6,50.7,8.6,50.9C8.6,50.9,8.6,50.9,8.6,50.9"/>
	<path style="clip-path:url(#SVGID_00000101074443377008594660000001412771489629392562_);fill:#A0A5B6;" d="M49.4,50.9
		c0,0.2,0,0.4,0,0.7c-0.1,0.5-0.3,0.7-0.8,0.7c-0.5,0-0.8-0.3-0.8-0.7c0-0.4,0-0.8,0-1.2c0-0.5,0.4-0.9,0.8-0.9
		c0.5,0,0.8,0.3,0.8,0.9C49.5,50.5,49.4,50.7,49.4,50.9L49.4,50.9z"/>
	<path style="clip-path:url(#SVGID_00000101074443377008594660000001412771489629392562_);fill:#A0A5B6;" d="M29,50.9
		c0,0.2,0,0.4,0,0.6c-0.1,0.5-0.4,0.7-0.8,0.7c-0.5,0-0.8-0.3-0.8-0.8c0-0.4,0-0.8,0-1.2c0-0.5,0.4-0.9,0.8-0.9
		c0.5,0,0.8,0.4,0.8,0.9C29,50.6,29,50.8,29,50.9C29,50.9,29,50.9,29,50.9"/>
	<path style="clip-path:url(#SVGID_00000101074443377008594660000001412771489629392562_);fill:#A0A5B6;" d="M8.6,44.8
		c0,0.2,0,0.4,0,0.7c-0.1,0.5-0.4,0.7-0.8,0.7C7.3,46.2,7,46,7,45.5c0-0.4,0-0.8,0-1.3c0-0.5,0.4-0.8,0.8-0.8c0.5,0,0.7,0.3,0.8,0.8
		C8.6,44.4,8.6,44.6,8.6,44.8C8.6,44.8,8.6,44.8,8.6,44.8"/>
	<path style="clip-path:url(#SVGID_00000101074443377008594660000001412771489629392562_);fill:#A0A5B6;" d="M47.8,56.9
		c0-0.2,0-0.4,0-0.6c0.1-0.5,0.4-0.7,0.8-0.7c0.4,0,0.7,0.3,0.8,0.7c0,0.4,0,0.9,0,1.3c0,0.5-0.4,0.7-0.8,0.7
		c-0.4,0-0.7-0.3-0.8-0.7C47.8,57.4,47.8,57.2,47.8,56.9"/>
	<path style="clip-path:url(#SVGID_00000101074443377008594660000001412771489629392562_);fill:#A0A5B6;" d="M29,44.8
		c0,0.2,0,0.5,0,0.7c-0.1,0.5-0.4,0.7-0.8,0.7c-0.4,0-0.7-0.3-0.8-0.7c0-0.4,0-0.8,0-1.2c0-0.5,0.4-0.8,0.8-0.8
		c0.5,0,0.8,0.3,0.9,0.8C29,44.5,29,44.6,29,44.8C29,44.8,29,44.8,29,44.8"/>
	<path style="clip-path:url(#SVGID_00000101074443377008594660000001412771489629392562_);fill:#A0A5B6;" d="M27.4,56.9
		c0-0.2,0-0.4,0-0.6c0.1-0.5,0.4-0.7,0.8-0.7c0.4,0,0.7,0.3,0.8,0.7c0.1,0.4,0.1,0.9,0,1.3c0,0.5-0.4,0.7-0.8,0.7
		c-0.5,0-0.7-0.3-0.8-0.7C27.3,57.4,27.4,57.2,27.4,56.9"/>
</g>
</svg>
