<?xml version="1.0" encoding="utf-8"?>
<!-- Generator: Adobe Illustrator 25.4.1, SVG Export Plug-In . SVG Version: 6.00 Build 0)  -->
<svg version="1.1" id="Layer_1" xmlns="http://www.w3.org/2000/svg" xmlns:xlink="http://www.w3.org/1999/xlink" x="0px" y="0px"
	 viewBox="0 0 105 105" style="enable-background:new 0 0 105 105;" xml:space="preserve">
<style type="text/css">
	.st0{fill:#A0A5B6;}
	.st1{fill:#F37367;}
	.st2{fill:#FFFFFF;}
</style>
<g>
	<path class="st2" d="M49.6,39.2c-2.2,0.9-2.3,0.4-1.3,2.9C48.7,41.1,49.1,40.2,49.6,39.2 M49.7,72.4c-0.9-1.7-1.6-3.3-2.1-4.9
		c-0.1-0.2-0.1-0.5-0.4-0.5c-1.3,0-2.7,0-4,0.1c-0.4,0-0.9,0.3-0.3,0.9C44.8,69.9,46.9,71.3,49.7,72.4 M61.8,72.3
		c2.9-0.9,6.6-3.7,7.3-5.3c-1.6,0-3.1,0-4.6,0c-0.3,0-0.6,0.1-0.7,0.4C63.4,69.1,62.7,70.6,61.8,72.3 M61.8,39.2
		c0.9,1.6,1.5,3.1,2,4.7c0.1,0.2,0.1,0.5,0.4,0.5c1.6,0,3.3,0,5.1,0C67.6,42.2,64.3,39.8,61.8,39.2 M60.6,67.1h-9.6
		c0.6,2,1.4,3.9,2.9,5.4c1.3,1.4,2.6,1.4,3.9,0C59.2,71,59.9,69.1,60.6,67.1 M60.6,44.4c-0.7-2.1-1.4-4-3-5.6
		c-1.2-1.2-2.3-1.2-3.6,0c-1.6,1.5-2.4,3.5-3.1,5.6H60.6z M69.4,57.4c-1.1,0-2.2,0-3.3,0c-0.4,0-0.7,0-0.7,0.6
		c-0.1,1.8-0.2,3.6-0.5,5.3c-0.1,0.4,0.1,0.6,0.5,0.6c1.9,0,3.8,0,5.7,0c0.4,0,0.5-0.2,0.7-0.5c0.8-1.7,1.3-3.4,1.6-5.3
		c0.1-0.6-0.2-0.7-0.7-0.7C71.5,57.4,70.5,57.4,69.4,57.4 M69.4,54.1c1.1,0,2.2,0,3.2,0c0.5,0,0.8-0.1,0.7-0.7
		c-0.3-1.8-0.8-3.6-1.6-5.3c-0.2-0.4-0.4-0.5-0.8-0.5c-1.8,0-3.7,0-5.5,0c-0.5,0-0.7,0.2-0.6,0.7c0.3,1.7,0.4,3.4,0.5,5.1
		c0,0.5,0.2,0.7,0.7,0.7C67.2,54.1,68.3,54.1,69.4,54.1 M55.4,47.7c-1.7,0-3.4,0-5.1,0c-0.7,0-0.8,0.2-0.7,0.8
		c0.3,1.6,0.6,3.3,0.9,4.9c0.1,0.4,0.2,0.7,0.7,0.7c3.4,0,6.8,0,10.2,0c0.6,0,0.7-0.3,0.7-0.8c-0.1-1.6-0.3-3.3-0.6-4.9
		c-0.1-0.6-0.4-0.8-1-0.8C58.9,47.7,57.2,47.7,55.4,47.7 M47.6,63.8c4.6,0,9,0,13.4,0c0.6,0,0.5-0.4,0.6-0.8c0.3-1.7,0.4-3.3,0.6-5
		c0-0.5,0-0.7-0.6-0.7c-3.4,0-6.7,0-10.1,0c-0.3,0-0.5-0.1-0.6,0.4C50.7,60.1,49.3,61.9,47.6,63.8 M31.5,25.2c0-2.9,0-5.6,0-8.2
		c0-2.5-2-4.6-4.5-4.7c-2.5-0.2-4.9,1.5-5.1,4c-0.2,2.9-0.1,5.9-0.1,8.9c1.7-0.9,3-2.1,4.2-3.4c0.5-0.5,0.7-0.5,1.2,0
		C28.5,23.1,29.8,24.2,31.5,25.2 M91.3,47.7c-4.5,0-8.1,3.6-8.2,8c0,4.4,3.5,8.1,7.9,8.1c4.5,0.1,8.2-3.5,8.2-7.9
		C99.3,51.4,95.7,47.7,91.3,47.7 M47.7,91.2c0,4.5,3.6,8.1,8,8.1c4.4,0,8-3.6,8.1-8c0-4.5-3.6-8.1-8-8.2
		C51.3,83.1,47.7,86.7,47.7,91.2 M63.8,20.3c0-4.5-3.6-8.1-8.1-8.1c-4.4,0-8,3.6-8.1,8c0,4.5,3.6,8.1,8,8.1
		C60.1,28.3,63.8,24.7,63.8,20.3 M38,21.7C38,21.7,38,21.7,38,21.7c0-1.7,0-3.5,0-5.2c-0.2-5.8-5-10.5-10.8-10.7
		C20.7,5.5,15.5,10.5,15.4,17c0,2.9,0,5.7,0,8.6c0,2.5,0,2.5,2.5,1.7c0.6-0.2,0.8-0.5,0.8-1.1c0-3,0-5.9,0-8.9
		c0-4.7,3.6-8.3,8.1-8.3c4.5,0,8,3.6,8,8.2c0,2.5,0,5,0,7.5c0,2.5,0,2.5,2.4,3c0.6,0.1,0.8,0.1,0.8-0.6C37.9,25.3,38,23.5,38,21.7
		 M47.7,56.9c-0.1-0.9-0.1-1.9-0.3-2.8c-1.2-7.5-3.3-14.7-5.6-21.9c-0.1-0.5-0.3-0.6-0.8-0.7c-5.2-0.3-9.8-2.1-13.8-5.4
		c-0.4-0.3-0.6-0.4-1,0c-4,3.3-8.6,5.1-13.8,5.4c-0.5,0-0.7,0.1-0.9,0.6C9.3,39.4,7.3,46.6,5.9,54c-0.7,3.8,0.4,6.5,3.5,8.6
		c0.2,0.1,0.3,0.2,0.5,0.4c4.5,3.1,9.4,5.2,14.6,7c1.7,0.6,3.4,0.4,5-0.2c3.2-1.1,6.3-2.4,9.3-4c2.5-1.3,5-2.8,7-4.9
		C46.9,59.8,47.8,58.5,47.7,56.9 M66.9,22.1c-0.4,2.1-1.2,4-2.7,5.6c-3,3.2-6.6,4.5-10.9,3.6c-4.4-1-7.2-3.8-8.4-8.1
		c-0.3-1.1-0.7-1.4-1.7-1.3c-2,0.1-2,0-2,2c0,1.2,0,2.4,0,3.6c0,0.6,0.2,0.8,0.8,0.8c2,0.1,2.1,0.1,2.7,2.1c0.6,1.9,1.2,3.8,1.8,5.7
		c0.2,0.7,0.4,0.7,1,0.5c12.1-5.2,25.7,1.7,28.7,14.5c2.8,12-5.6,24.1-17.9,25.5c-7.1,0.8-13.1-1.6-18-6.8c-0.5-0.5-0.8-0.6-1.4-0.3
		c-2.6,1.3-5.3,2.4-8.1,3.3c-2.5,0.9-5.1,1-7.6,0.1c-5.1-1.7-10-3.8-14.5-6.9c-1.5-1-2.8-2.2-4-3.5c-1.7-2-2.3-4.4-2-7
		c0.9-7.4,2.9-14.5,5-21.5c0.5-1.6,1.1-3.2,1.5-4.8c0.2-0.7,0.5-0.8,1.1-0.8c1.9,0,1.9,0,1.9-2c0-3.1,0-6.1,0-9.2
		c0-7.7,5.6-13.9,13.2-14.6c7.2-0.7,13.9,4.3,15.5,11.6c0.3,1.3,0.4,2.5,0.3,3.8c0,0.6,0.2,0.8,0.7,0.7c0.8,0,1.7,0.2,2.4-0.1
		c0.7-0.3,0.5-1.4,0.8-2.1c1.7-4.7,6.2-7.7,11.3-7.5c4.8,0.2,9.1,3.7,10.3,8.4c0.3,1,0.7,1.4,1.7,1.8c12,4.3,20,12.5,24.2,24.5
		c0.2,0.6,0.5,0.9,1.1,1c5.3,1.2,8.9,5.7,8.9,11c0,5.3-3.6,9.8-8.9,11c-0.6,0.1-0.9,0.4-1.1,1C88.2,80,79.9,88.3,67.7,92.5
		c-0.5,0.2-0.8,0.4-0.9,1c-1.2,5.3-5.7,9-10.9,9c-5.3,0-9.8-3.6-11.1-8.8c-0.2-0.7-0.4-0.9-1.1-0.9c-5.3,0-10.6,0-15.8,0
		c-0.8,0-1.2-0.1-1.1-1.1c0.1-2.2,0-2.2,2.2-2.2c4.9,0,9.8,0,14.7,0c0.6,0,1-0.1,1.1-0.8c1.2-5.2,5.6-8.8,10.8-8.9
		c5.3-0.1,9.7,3.4,11.1,8.7c0.2,0.7,0.4,0.8,1.1,0.5c10.3-4,17.4-11.1,21.4-21.4c0.3-0.7,0.2-0.9-0.6-1.1c-5.1-1.3-8.6-5.7-8.6-10.9
		c0-5.2,3.5-9.6,8.6-10.9c0.5-0.1,1-0.1,0.6-0.9c-4-10.6-11.3-17.8-22-21.7C67.1,22.2,67,22.1,66.9,22.1"/>
	<path class="st2" d="M13.8,91.1c0-1.5,0-1.5,1.5-1.5c1.7,0,1.7,0,1.7,1.7c0,0.2,0,0.4,0,0.6c0.1,0.7-0.2,1-0.9,0.9
		c-0.2,0-0.5,0-0.7,0C13.8,92.8,13.8,92.8,13.8,91.1"/>
	<path class="st2" d="M21.8,89.6c1.6,0,1.6,0,1.6,1.9c0,1.3,0,1.3-1.9,1.3c-1.3,0-1.3,0-1.3-2.1C20.2,89.6,20.2,89.6,21.8,89.6"/>
	<path class="st2" d="M25.1,53.1v1.8c0,2.5,0,2.4,2.5,2.4c0.6,0,0.8-0.2,0.8-0.8c0-2,0-4.1,0-6.1c0-0.9,0.2-1.5,1.1-2
		c1.9-1.2,2.6-3.5,1.9-5.5c-0.7-2-2.7-3.4-4.8-3.3c-2,0.1-3.9,1.5-4.4,3.5c-0.6,2.1,0.2,4.2,2.1,5.3c0.8,0.5,1,1,1,1.8
		C25,51.2,25.1,52.2,25.1,53.1 M21.9,55.6c0-1.3,0-2.6,0-3.9c0-0.6-0.2-1-0.6-1.4c-2.5-2.3-3.3-5.9-2-9c1.3-3.1,4.5-5.1,8-4.9
		c3.3,0.2,6.2,2.5,7.2,5.7c0.9,3.2,0.1,6-2.3,8.3c-0.4,0.4-0.6,0.7-0.6,1.3c0,2.7,0,5.4,0,8.1c0,0.7-0.2,0.9-0.9,0.9
		c-2.7,0-5.3,0-8,0c-0.6,0-0.9-0.2-0.8-0.8C21.9,58.4,21.9,57,21.9,55.6"/>
	<path class="st2" d="M39.3,44.6c-0.6,0.1-0.6-0.3-0.7-0.6c-0.1-0.8-1-1.7-0.3-2.4c0.6-0.5,1.6-0.5,2.4-0.8c0.3-0.1,0.4,0.1,0.4,0.3
		c0.1,0.2,0.1,0.4,0.2,0.7c0.1,0.7,0.8,1.5,0.3,2C41.1,44.5,40,44.4,39.3,44.6"/>
	<path class="st2" d="M43.3,49.7c0.1,0.4,0.1,0.6-0.2,0.6c-0.1,0-0.2,0.1-0.3,0.1c-2.5,0.7-2.7,0.6-3.1-2c-0.1-0.4,0-0.7,0.4-0.7
		c0.9-0.1,1.9-0.8,2.5-0.4C43.3,47.8,43.1,49,43.3,49.7"/>
	<path class="st2" d="M42.7,57c-1.4,0-1.4,0-1.6-1.4c-0.2-1.5-0.2-1.5,1.2-1.8c1.8-0.3,1.8-0.3,2,1.5C44.5,56.9,44.5,56.9,42.7,57"
		/>
	<path class="st2" d="M61.6,18.3c-0.1,0.1-0.3,0.3-0.4,0.5c-2.2,2.2-4.3,4.3-6.5,6.5c-0.4,0.5-0.7,0.4-1.1,0
		c-1.1-1.1-2.2-2.3-3.3-3.3c-0.4-0.4-0.4-0.6,0-1c0.1,0,0.1-0.1,0.1-0.1c1.6-1.6,1.6-1.7,3.2-0.1c0.5,0.5,0.7,0.3,1.1-0.1
		c1.4-1.4,2.8-2.7,4.1-4.1c0.5-0.5,0.8-0.5,1.3,0c0.4,0.4,0.8,0.8,1.2,1.2C61.4,17.9,61.6,18,61.6,18.3"/>
	<path class="st2" d="M61.6,89.1c0,0.3-0.2,0.4-0.4,0.6c-2.2,2.2-4.4,4.4-6.5,6.6c-0.4,0.4-0.6,0.5-1,0c-1.1-1.1-2.2-2.3-3.3-3.3
		c-0.5-0.5-0.4-0.7,0-1.1c1.7-1.7,1.7-1.7,3.3-0.1c0.4,0.4,0.6,0.4,1,0c1.4-1.4,2.8-2.8,4.2-4.2c0.4-0.5,0.7-0.6,1.2,0
		c0.4,0.5,0.8,0.9,1.3,1.3C61.4,88.8,61.5,89,61.6,89.1"/>
	<path class="st2" d="M97.1,53.7c-0.2,0.2-0.3,0.3-0.4,0.5c-2.2,2.2-4.4,4.4-6.6,6.6c-0.4,0.4-0.7,0.4-1,0c-1.1-1.1-2.2-2.3-3.3-3.3
		c-0.4-0.4-0.4-0.7,0-1c0.6-0.5,1-1.4,1.7-1.5c0.7-0.1,1.1,0.9,1.7,1.4c0.4,0.4,0.6,0.4,1,0c1.3-1.4,2.7-2.7,4-4.1
		c0.6-0.6,1-0.8,1.5,0c0.3,0.4,0.8,0.8,1.1,1.2C96.9,53.4,97,53.5,97.1,53.7"/>
</g>
</svg>
