<?xml version="1.0" encoding="utf-8"?>
<!-- Generator: Adobe Illustrator 25.4.1, SVG Export Plug-In . SVG Version: 6.00 Build 0)  -->
<svg version="1.1" id="Layer_1" xmlns="http://www.w3.org/2000/svg" xmlns:xlink="http://www.w3.org/1999/xlink" x="0px" y="0px"
	 viewBox="0 0 65 65" style="enable-background:new 0 0 65 65;" xml:space="preserve">
<style type="text/css">
	.st0{fill:#A0A5B6;}
	.st1{fill:#F37367;}
	.st2{fill:#FFFFFF;}
</style>
<g>
	<path class="st1" d="M30.8,24.9c-1.2,0.5-1.3,0.3-0.8,1.6C30.3,26,30.6,25.5,30.8,24.9 M30.9,43.8c-0.5-1-0.9-1.9-1.2-2.8
		c0-0.1-0.1-0.3-0.2-0.3c-0.8,0-1.5,0-2.3,0c-0.2,0-0.5,0.2-0.2,0.5C28.1,42.4,29.3,43.2,30.9,43.8 M37.8,43.8
		c1.7-0.5,3.8-2.1,4.2-3c-0.9,0-1.8,0-2.6,0c-0.2,0-0.3,0-0.4,0.2C38.7,42,38.3,42.8,37.8,43.8 M37.8,24.9c0.5,0.9,0.9,1.8,1.1,2.7
		c0,0.1,0.1,0.3,0.2,0.3c0.9,0,1.9,0,2.9,0C41.1,26.6,39.2,25.3,37.8,24.9 M37.1,40.8h-5.5c0.4,1.2,0.8,2.2,1.6,3.1
		c0.8,0.8,1.5,0.8,2.2,0C36.3,43,36.7,41.9,37.1,40.8 M37.1,27.9c-0.4-1.2-0.8-2.3-1.7-3.2c-0.7-0.7-1.3-0.7-2,0
		c-0.9,0.9-1.4,2-1.8,3.2H37.1z M42.1,35.3c-0.6,0-1.3,0-1.9,0c-0.2,0-0.4,0-0.4,0.3c-0.1,1-0.1,2-0.3,3c0,0.2,0,0.3,0.3,0.3
		c1.1,0,2.2,0,3.3,0c0.2,0,0.3-0.1,0.4-0.3c0.4-1,0.7-2,0.9-3c0-0.4-0.1-0.4-0.4-0.4C43.4,35.3,42.7,35.3,42.1,35.3 M42.1,33.4
		c0.6,0,1.2,0,1.8,0c0.3,0,0.5,0,0.4-0.4c-0.1-1.1-0.4-2.1-0.9-3c-0.1-0.2-0.2-0.3-0.4-0.3c-1.1,0-2.1,0-3.2,0
		c-0.3,0-0.4,0.1-0.4,0.4c0.2,1,0.2,1.9,0.3,2.9c0,0.3,0.1,0.4,0.4,0.4C40.9,33.4,41.5,33.4,42.1,33.4 M34.2,29.7c-1,0-2,0-2.9,0
		c-0.4,0-0.5,0.1-0.4,0.5c0.2,0.9,0.3,1.9,0.5,2.8c0,0.3,0.1,0.4,0.4,0.4c1.9,0,3.9,0,5.8,0c0.4,0,0.4-0.1,0.4-0.4
		c-0.1-0.9-0.2-1.9-0.3-2.8c-0.1-0.4-0.2-0.5-0.6-0.5C36.1,29.8,35.2,29.7,34.2,29.7 M29.7,38.9c2.6,0,5.1,0,7.6,0
		c0.3,0,0.3-0.2,0.3-0.4c0.2-0.9,0.3-1.9,0.3-2.8c0-0.3,0-0.4-0.4-0.4c-1.9,0-3.8,0-5.7,0c-0.1,0-0.3,0-0.3,0.2
		C31.5,36.8,30.7,37.9,29.7,38.9 M20.5,16.9c0-1.6,0-3.2,0-4.7c0-1.4-1.1-2.6-2.5-2.7c-1.4-0.1-2.8,0.9-2.9,2.3
		c-0.1,1.7,0,3.3,0,5.1c0.9-0.5,1.7-1.2,2.4-1.9c0.3-0.3,0.4-0.3,0.7,0C18.8,15.7,19.6,16.4,20.5,16.9 M54.6,29.8
		c-2.5,0-4.6,2-4.6,4.6c0,2.5,2,4.6,4.5,4.6c2.5,0,4.6-2,4.7-4.5C59.2,31.9,57.1,29.8,54.6,29.8 M29.7,54.5c0,2.5,2.1,4.6,4.6,4.6
		c2.5,0,4.6-2,4.6-4.5c0-2.5-2-4.6-4.6-4.6C31.8,50,29.8,52,29.7,54.5 M38.9,14.1c0-2.5-2.1-4.6-4.6-4.6c-2.5,0-4.6,2-4.6,4.5
		c0,2.5,2,4.6,4.6,4.6C36.8,18.7,38.9,16.7,38.9,14.1 M24.2,15C24.2,15,24.2,15,24.2,15c0-1,0-2,0-3c-0.1-3.3-2.9-6-6.1-6.1
		c-3.7-0.1-6.7,2.7-6.7,6.4c0,1.6,0,3.3,0,4.9c0,1.4,0,1.4,1.4,0.9c0.3-0.1,0.4-0.3,0.4-0.6c0-1.7,0-3.4,0-5.1c0-2.7,2-4.7,4.6-4.7
		c2.6,0,4.6,2,4.6,4.7c0,1.4,0,2.8,0,4.3c0,1.4,0,1.4,1.4,1.7c0.3,0.1,0.5,0.1,0.5-0.3C24.2,17,24.2,16,24.2,15 M29.8,35
		c-0.1-0.5-0.1-1.1-0.2-1.6c-0.7-4.3-1.9-8.4-3.2-12.5c-0.1-0.3-0.2-0.4-0.5-0.4c-3-0.2-5.6-1.2-7.9-3.1c-0.2-0.2-0.3-0.2-0.6,0
		c-2.3,1.9-4.9,2.9-7.9,3.1c-0.3,0-0.4,0.1-0.5,0.4C7.9,25,6.7,29.1,6,33.4c-0.4,2.1,0.3,3.7,2,4.9c0.1,0.1,0.2,0.1,0.3,0.2
		c2.5,1.8,5.4,3,8.3,4c1,0.3,1.9,0.2,2.9-0.1c1.8-0.6,3.6-1.4,5.3-2.3c1.4-0.8,2.8-1.6,4-2.8C29.3,36.7,29.8,35.9,29.8,35
		 M40.7,15.2c-0.2,1.2-0.7,2.3-1.5,3.2c-1.7,1.8-3.8,2.6-6.2,2c-2.5-0.6-4.1-2.2-4.8-4.6c-0.2-0.6-0.4-0.8-1-0.7
		c-1.1,0.1-1.1,0-1.1,1.2c0,0.7,0,1.4,0,2.1c0,0.3,0.1,0.5,0.4,0.5c1.2,0,1.2,0.1,1.5,1.2c0.3,1.1,0.7,2.1,1,3.2
		c0.1,0.4,0.2,0.4,0.6,0.3c6.9-3,14.6,1,16.4,8.3c1.6,6.9-3.2,13.7-10.2,14.5c-4.1,0.5-7.5-0.9-10.3-3.9C25.2,42,25,42,24.7,42.1
		c-1.5,0.7-3,1.4-4.6,1.9c-1.4,0.5-2.9,0.6-4.3,0.1c-2.9-1-5.7-2.2-8.3-3.9c-0.8-0.6-1.6-1.2-2.3-2c-1-1.2-1.3-2.5-1.2-4
		c0.5-4.2,1.7-8.2,2.9-12.3c0.3-0.9,0.6-1.8,0.9-2.7c0.1-0.4,0.3-0.5,0.6-0.5c1.1,0,1.1,0,1.1-1.1c0-1.7,0-3.5,0-5.2
		c0-4.4,3.2-7.9,7.5-8.3c4.1-0.4,7.9,2.4,8.8,6.6c0.2,0.7,0.2,1.4,0.2,2.2c0,0.3,0.1,0.4,0.4,0.4c0.5,0,1,0.1,1.4-0.1
		c0.4-0.2,0.3-0.8,0.4-1.2c1-2.7,3.5-4.4,6.4-4.3c2.7,0.1,5.2,2.1,5.8,4.8c0.1,0.6,0.4,0.8,1,1c6.8,2.5,11.4,7.1,13.8,14
		c0.1,0.3,0.3,0.5,0.6,0.6c3,0.7,5.1,3.3,5.1,6.3c0,3-2.1,5.6-5.1,6.3c-0.3,0.1-0.5,0.2-0.6,0.5c-2.4,7-7.2,11.7-14.2,14.2
		c-0.3,0.1-0.4,0.2-0.5,0.6c-0.7,3-3.2,5.1-6.2,5.1c-3,0-5.6-2-6.3-5c-0.1-0.4-0.3-0.5-0.6-0.5c-3,0-6,0-9,0c-0.5,0-0.7-0.1-0.6-0.6
		c0-1.2,0-1.2,1.3-1.2c2.8,0,5.6,0,8.4,0c0.4,0,0.6,0,0.7-0.5c0.7-3,3.2-5,6.2-5c3,0,5.5,1.9,6.3,4.9c0.1,0.4,0.2,0.4,0.6,0.3
		c5.9-2.3,9.9-6.3,12.2-12.2c0.2-0.4,0.1-0.5-0.3-0.6c-2.9-0.7-4.9-3.3-4.9-6.2c0-3,2-5.5,4.9-6.2c0.3-0.1,0.5-0.1,0.4-0.5
		c-2.3-6-6.4-10.2-12.5-12.4C40.8,15.2,40.8,15.2,40.7,15.2"/>
	<path class="st1" d="M10.4,54.5c0-0.9,0-0.9,0.9-0.9c1,0,1,0,1,1c0,0.1,0,0.2,0,0.3c0.1,0.4-0.1,0.6-0.5,0.5c-0.1,0-0.3,0-0.4,0
		C10.4,55.5,10.4,55.5,10.4,54.5"/>
	<path class="st1" d="M15,53.7c0.9,0,0.9,0,0.9,1.1c0,0.8,0,0.8-1.1,0.8c-0.7,0-0.7,0-0.7-1.2C14.1,53.7,14.1,53.7,15,53.7"/>
	<path class="st1" d="M16.9,32.9v1c0,1.4,0,1.4,1.4,1.4c0.4,0,0.5-0.1,0.4-0.5c0-1.2,0-2.3,0-3.5c0-0.5,0.1-0.8,0.6-1.1
		c1.1-0.7,1.5-2,1.1-3.2c-0.4-1.1-1.5-1.9-2.7-1.9c-1.2,0.1-2.2,0.9-2.5,2c-0.3,1.2,0.1,2.4,1.2,3c0.4,0.3,0.6,0.6,0.6,1.1
		C16.8,31.8,16.9,32.3,16.9,32.9 M15,34.3c0-0.7,0-1.5,0-2.2c0-0.3-0.1-0.6-0.4-0.8c-1.4-1.3-1.9-3.4-1.1-5.1
		c0.8-1.8,2.6-2.9,4.5-2.8c1.9,0.1,3.5,1.4,4.1,3.3c0.5,1.8,0,3.4-1.3,4.7c-0.2,0.2-0.3,0.4-0.3,0.7c0,1.5,0,3.1,0,4.6
		c0,0.4-0.1,0.5-0.5,0.5c-1.5,0-3,0-4.5,0c-0.4,0-0.5-0.1-0.5-0.5C15.1,35.9,15,35.1,15,34.3"/>
	<path class="st1" d="M25,28c-0.3,0.1-0.4-0.2-0.4-0.3c0-0.5-0.6-1-0.2-1.3c0.3-0.3,0.9-0.3,1.4-0.4c0.1,0,0.2,0,0.2,0.2
		c0,0.1,0.1,0.3,0.1,0.4c0.1,0.4,0.4,0.9,0.2,1.1C26,27.9,25.4,27.9,25,28"/>
	<path class="st1" d="M27.3,30.9c0.1,0.2,0,0.3-0.1,0.4c-0.1,0-0.1,0-0.2,0c-1.4,0.4-1.5,0.3-1.8-1.1c0-0.2,0-0.4,0.2-0.4
		c0.5-0.1,1.1-0.5,1.4-0.2C27.2,29.8,27.1,30.5,27.3,30.9"/>
	<path class="st1" d="M26.9,35.1c-0.8,0-0.8,0-0.9-0.8c-0.1-0.9-0.1-0.9,0.7-1c1-0.2,1-0.2,1.1,0.8C27.9,35,27.9,35,26.9,35.1"/>
	<path class="st1" d="M37.7,13c-0.1,0.1-0.2,0.2-0.3,0.3c-1.2,1.2-2.5,2.5-3.7,3.7c-0.3,0.3-0.4,0.2-0.6,0c-0.6-0.7-1.3-1.3-1.9-1.9
		c-0.2-0.2-0.2-0.4,0-0.5c0,0,0.1-0.1,0.1-0.1c0.9-0.9,0.9-0.9,1.8-0.1c0.3,0.3,0.4,0.2,0.6,0c0.8-0.8,1.6-1.6,2.3-2.4
		c0.3-0.3,0.5-0.3,0.7,0c0.2,0.2,0.5,0.5,0.7,0.7C37.6,12.8,37.7,12.8,37.7,13"/>
	<path class="st1" d="M37.7,53.3c0,0.2-0.1,0.2-0.2,0.3c-1.2,1.2-2.5,2.5-3.7,3.7c-0.2,0.2-0.4,0.3-0.6,0c-0.6-0.7-1.3-1.3-1.9-1.9
		c-0.3-0.3-0.2-0.4,0-0.6c0.9-1,0.9-1,1.9-0.1c0.2,0.2,0.4,0.2,0.6,0c0.8-0.8,1.6-1.6,2.4-2.4c0.3-0.3,0.4-0.3,0.7,0
		c0.2,0.3,0.5,0.5,0.7,0.7C37.6,53.2,37.6,53.3,37.7,53.3"/>
	<path class="st1" d="M57.9,33.2c-0.1,0.1-0.2,0.2-0.2,0.3c-1.3,1.3-2.5,2.5-3.8,3.8c-0.2,0.2-0.4,0.2-0.6,0
		c-0.6-0.6-1.3-1.3-1.9-1.9c-0.2-0.2-0.2-0.4,0-0.6c0.3-0.3,0.6-0.8,1-0.9c0.4-0.1,0.6,0.5,1,0.8c0.2,0.2,0.3,0.2,0.6,0
		c0.8-0.8,1.6-1.5,2.3-2.3c0.3-0.4,0.6-0.5,0.9,0c0.2,0.2,0.4,0.4,0.6,0.7C57.8,33,57.9,33.1,57.9,33.2"/>
</g>
</svg>
