<?xml version="1.0" encoding="utf-8"?>
<!-- Generator: Adobe Illustrator 25.4.1, SVG Export Plug-In . SVG Version: 6.00 Build 0)  -->
<svg version="1.1" id="Layer_1" xmlns="http://www.w3.org/2000/svg" xmlns:xlink="http://www.w3.org/1999/xlink" x="0px" y="0px"
	 viewBox="0 0 105 105" style="enable-background:new 0 0 105 105;" xml:space="preserve">
<style type="text/css">
	.st0{clip-path:url(#SVGID_00000158004354770733048480000008990977996682170278_);fill:#A0A5B6;}
	.st1{fill:#F37367;}
	.st2{fill:#FFFFFF;}
</style>
<g>
	<path class="st2" d="M52.4,99.5c3.4,0,6.8,0,10.2,0c0.8,0,1.1-0.3,1.1-1.1c0-1.9,0-3.8,0-5.8c0-0.8-0.3-1.1-1.1-1.1
		c-6.8,0-13.6,0-20.4,0c-0.8,0-1,0.3-1,1c0,1.9,0,3.8,0,5.7c0,0.8,0.3,1.1,1.1,1.1C45.7,99.5,49.1,99.5,52.4,99.5 M52.5,77.9
		c3.4,0,6.8,0,10.1,0c0.8,0,1.1-0.2,1.1-1c0-1.9,0-3.8,0-5.8c0-0.8-0.2-1.1-1.1-1.1c-6.8,0-13.6,0-20.4,0c-0.8,0-1.1,0.3-1,1.1
		c0,1.9,0,3.7,0,5.6c0,0.9,0.2,1.3,1.2,1.2C45.8,77.9,49.1,77.9,52.5,77.9 M88.2,99.5c3.4,0,6.9,0,10.3,0c0.7,0,1-0.2,1-0.9
		c0-2,0-4,0-6c0-0.7-0.3-0.9-0.9-0.9c-6.9,0-13.7,0-20.6,0c-0.7,0-1,0.3-0.9,1c0,2,0,3.9,0,5.9c0,0.8,0.3,1.1,1.1,1
		C81.5,99.5,84.8,99.5,88.2,99.5 M16.7,70.1c-3.4,0-6.8,0-10.1,0c-0.8,0-1.1,0.2-1.1,1c0,1.9,0,3.9,0,5.9c0,0.7,0.2,1,0.9,1
		c6.9,0,13.7,0,20.6,0c0.7,0,1-0.3,0.9-1c0-1.9-0.1-3.8,0-5.8c0-0.9-0.3-1.2-1.2-1.1C23.3,70.1,20,70.1,16.7,70.1 M52.5,80.8
		c-3.4,0-6.8,0-10.2,0c-0.7,0-1,0.3-1,1c0,1.9,0,3.9,0,5.9c0,0.8,0.3,1.1,1.1,1.1c6.8,0,13.5,0,20.3,0c0.8,0,1.1-0.3,1.1-1.1
		c0-1.9,0-3.8,0-5.8c0-0.9-0.3-1.1-1.2-1.1C59.2,80.9,55.9,80.8,52.5,80.8 M88.3,80.8c-3.4,0-6.8,0-10.2,0c-0.7,0-1,0.2-1,1
		c0,2,0,3.9,0,5.9c0,0.7,0.2,1.1,1,1.1c6.8,0,13.7,0,20.5,0c0.8,0,1-0.3,1-1.1c0-1.9-0.1-3.8,0-5.7c0-1-0.4-1.2-1.3-1.2
		C95,80.9,91.6,80.8,88.3,80.8 M16.6,88.7c3.4,0,6.8,0,10.2,0c0.7,0,1.1-0.2,1-1c0-2,0-4,0-6c0-0.7-0.3-1-1-1c-6.8,0-13.7,0-20.5,0
		c-0.8,0-1,0.3-1,1.1c0,1.9,0.1,3.8,0,5.7c0,1,0.3,1.2,1.2,1.2C10,88.7,13.3,88.8,16.6,88.7 M54.4,2.5C55.6,2.8,56.8,3,58,3.3
		c2.5,0.7,4.7,1.8,6.8,3.3c1,0.8,1.3,1.6,0.7,2.4c-0.6,0.8-1.4,0.7-2.5,0c-10.1-7.5-24.4-2.5-27.6,9.7c-0.4,1.4-0.5,2.9-0.6,4.3
		c0,2.1-1.1,3.2-3.2,3.3c-5.9,0.3-10.3,4.5-10.7,10.4c-0.4,5.3,3.7,10.4,9.2,11.4c2.7,0.5,5.2,0,7.5-1.5c1-0.7,2-0.8,3.1-0.4
		c7.8,2.2,15.7,2.2,23.5,0c1.1-0.3,2.1-0.2,3,0.4c4,2.5,8.7,2.3,12.5-0.6c3.6-2.8,5.1-7.5,3.8-11.8c-1.4-4.4-5.2-7.5-9.9-7.8
		c-2.7-0.2-3.6-1.1-3.6-3.7c-0.1-3.1-0.9-5.9-2.4-8.5c-0.1-0.2-0.2-0.3-0.3-0.5c-0.4-0.9-0.2-1.7,0.5-2.1c0.7-0.4,1.5-0.2,2,0.6
		c1.5,2.4,2.5,5.1,2.9,7.9c0.1,0.8,0.2,1.6,0.2,2.4c0,0.7,0.2,1,1,1c6.4,0.5,11.5,4.9,12.7,11.1c1.1,5.8-1,10.6-5.7,14
		c-4.6,3.4-9.7,3.5-14.7,0.8c-0.6-0.3-1.1-0.4-1.8-0.2c-3.1,0.9-6.4,1.4-9.6,1.5c-0.7,0-1,0.2-0.9,1c0.1,1.1,0.1,2.3,0,3.4
		c0,0.8,0.2,1,1,1c4.6,0,9.2,0,13.9,0c6.2,0,12.4,0,18.5,0c1.8,0,2.2,0.4,2.2,2.3c0,2.6,0.1,5.1,0,7.7c0,1,0.3,1.3,1.2,1.1
		c0.3,0,0.6,0,0.9,0c0.8,0.1,1.4,0.7,1.4,1.5S92.4,70,91.6,70c-0.7,0-1.4,0-2.1,0c-3.8,0-7.5,0-11.3,0c-0.8,0-1.1,0.2-1.1,1.1
		c0,2,0,3.9,0,5.9c0,0.7,0.2,1,1,1c6.9,0,13.7,0,20.6,0c0.7,0,0.9-0.2,0.9-0.9c0-2,0-4,0-6.1c0-0.7-0.2-0.9-0.9-0.9
		c-1.5,0-2.2-0.5-2.2-1.5c0-1,0.7-1.4,2.2-1.4c2.4,0,3.8,1.4,3.8,3.7c0,2,0.2,4.1,0,6.1c-0.2,1.6-0.1,3.2,0,4.8c0.2,2,0,4,0,5.9
		c0,0.7-0.1,1.4-0.4,2.1c-0.1,0.2-0.2,0.3-0.1,0.5c0.8,1.3,0.5,2.8,0.5,4.2c0,1.5,0,2.9,0,4.4c0,2.1-1.5,3.5-3.5,3.5
		c-7.1,0-14.2,0-21.3,0c-2.1,0-3.5-1.5-3.5-3.5c0-2.2-0.2-4.4,0-6.5c0.1-1.5,0.1-2.9,0-4.4c-0.2-2.1-0.2-4.3,0-6.4
		c0.1-1.5,0.1-2.9,0-4.4c-0.2-2.1-0.1-4.3,0-6.4c0-2.2,1.4-3.6,3.6-3.6c2.7,0,5.3,0,8,0c0.6,0,0.9-0.1,0.9-0.8c-0.1-2.1,0-4.3,0-6.4
		c0-0.6-0.1-0.9-0.8-0.9c-10.3,0-20.7,0-31,0c-0.6,0-0.9,0.2-0.8,0.8c0,2.2,0,4.4,0,6.5c0,0.7,0.2,0.8,0.8,0.8c2.7,0,5.4,0,8.1,0
		c2.3,0,3.7,1.3,3.8,3.7c0,2.1,0.2,4.2,0,6.3c-0.1,1.5-0.1,3,0,4.5c0.2,2.1,0.2,4.2,0,6.3c-0.1,1.5-0.1,2.9,0,4.4
		c0.2,2.1,0.1,4.3,0,6.4c0,2.3-1.4,3.6-3.7,3.6c-7,0-13.9,0-20.9,0c-2.3,0-3.7-1.3-3.7-3.6c0-2.1-0.2-4.3,0-6.4
		c0.1-1.5,0.1-2.9,0-4.4c-0.2-2.1-0.2-4.3,0-6.4c0.1-1.5,0.2-2.9,0-4.3c-0.2-2.2-0.1-4.4,0-6.6c0-2.1,1.5-3.5,3.6-3.5
		c2.7,0,5.4,0,8.1,0c0.8,0,1-0.2,1-1c0-2.1,0-4.2,0-6.3c0-0.6-0.2-0.8-0.8-0.8c-10.4,0-20.8,0-31.1,0c-0.6,0-0.8,0.2-0.8,0.8
		c0,2.2,0,4.4,0,6.6c0,0.6,0.2,0.8,0.8,0.8c2.7,0,5.3,0,8,0c2.3,0,3.7,1.4,3.7,3.7c0,2,0,4,0,6c0,0.8,0,1.6-0.4,2.3
		c-0.1,0.2-0.2,0.3-0.1,0.5c0.7,1.1,0.5,2.4,0.5,3.6c0,1.6,0.2,3.1,0,4.7c-0.2,1.5-0.2,3,0,4.6c0.2,2.1,0.1,4.2,0,6.3
		c0,2.2-1.4,3.6-3.6,3.6c-1.8,0-3.6,0-5.5,0c-1.1,0-1.7-0.6-1.7-1.4c0-0.9,0.6-1.5,1.7-1.5c1.7,0,3.4,0,5.2,0c0.7,0,1-0.2,1-0.9
		c0-2,0-4,0-6.1c0-0.6-0.2-0.9-0.9-0.9c-6.9,0-13.9,0-20.8,0c-0.6,0-0.8,0.2-0.8,0.8c0,2.1,0,4.2,0,6.2c0,0.8,0.4,0.8,1,0.8
		c2.7,0,5.4,0,8.1,0c0.6,0,1.2,0.1,1.5,0.7c0.6,1,0,2.2-1.2,2.2c-3.1,0-6.1,0.1-9.2,0c-1.6,0-2.5-1.2-3.2-2.5v-8.6
		c0.7-0.8,0.6-1.6,0-2.3v-8.4c0.6-0.8,0.7-1.6,0-2.3v-8.6c0.9-2,2.4-2.7,4.5-2.6c2.5,0.1,5.1,0,7.6,0c0.6,0,0.8-0.2,0.8-0.8
		c0-2.7,0-5.4,0-8.1c0-1.8,0.4-2.2,2.2-2.2c6.7,0,13.5,0,20.2,0c4.1,0,8.1,0,12.2,0c0.8,0,1.1-0.3,1-1c-0.1-1.1-0.1-2.3,0-3.4
		c0-0.7-0.2-0.9-0.9-1c-3.3-0.1-6.5-0.6-9.7-1.5c-0.6-0.2-1.1-0.1-1.6,0.2c-2.7,1.6-5.6,2.2-8.7,1.8c-6.9-1-12.3-7.3-12.1-14.1
		c0.3-7.3,5.8-12.9,13-13.5c0.8-0.1,1-0.3,1-1c0.2-9,6.3-16.8,15-19.2c1.2-0.3,2.3-0.5,3.5-0.8H54.4z"/>
	<path class="st2" d="M59.7,20.9C56.9,18,51.9,17.2,48,19c-4,1.9-6.2,5-6.5,9.4c0,0.3,0,0.5-0.1,0.8c-0.2,0.9-0.7,1.4-1.5,1.3
		c-0.8,0-1.3-0.6-1.3-1.5c0-1.3,0.2-2.7,0.6-3.9c2.8-9.2,13.9-12.9,21.6-7.2c0.2,0.2,0.5,0.3,0.8,0.6c0-0.4,0-0.8,0.1-1.1
		c0.2-0.8,0.7-1.3,1.5-1.2c0.8,0,1.4,0.5,1.4,1.3c0,1.8-0.1,3.5-0.2,5.3c-0.1,0.7-0.7,1.1-1.4,1.1c-1.6,0.1-3.1,0.1-4.7,0.1
		c-0.9,0-1.4-0.6-1.5-1.4c0-0.8,0.5-1.4,1.4-1.5C58.6,20.9,59.1,20.9,59.7,20.9"/>
	<path class="st2" d="M45.1,37.3c3.6,2.8,7.4,3.6,11.4,2c4-1.6,6.3-4.7,6.9-8.9c0.1-0.4,0.1-0.8,0.1-1.3c0.1-1,0.7-1.5,1.5-1.5
		c0.9,0,1.4,0.6,1.4,1.6c0,1.7-0.3,3.4-1,4.9c-3.4,8.5-13.8,11.5-21.2,6.1c-0.3-0.2-0.5-0.4-0.8-0.6c-0.3,0.3-0.1,0.7-0.2,1
		c-0.1,0.8-0.6,1.3-1.4,1.3c-0.8,0-1.4-0.5-1.4-1.3c0-1.7,0.1-3.4,0.2-5.2c0.1-0.7,0.6-1.1,1.4-1.2c1.6-0.1,3.2-0.1,4.8-0.1
		c0.9,0,1.5,0.6,1.4,1.4c0,0.8-0.5,1.3-1.3,1.5C46.4,37.2,45.9,37.2,45.1,37.3"/>
	<path class="st2" d="M82.2,74.1c0,0.4,0,0.7,0,1.1c-0.1,0.9-0.7,1.4-1.5,1.4c-0.8,0-1.3-0.5-1.4-1.3c-0.1-0.7-0.1-1.4,0-2.1
		c0.1-0.9,0.7-1.4,1.5-1.4c0.8,0,1.3,0.5,1.4,1.3C82.2,73.4,82.2,73.8,82.2,74.1"/>
	<path class="st2" d="M10.6,95.5c0,0.4,0,0.8-0.1,1.2c-0.2,0.7-0.7,1.1-1.4,1.1c-0.8,0-1.3-0.4-1.4-1.2c-0.1-0.8-0.1-1.6,0-2.4
		C7.8,93.4,8.4,93,9.1,93c0.8,0,1.3,0.4,1.4,1.2C10.6,94.6,10.6,95.1,10.6,95.5"/>
	<path class="st2" d="M10.6,84.8c0,0.4,0,0.8,0,1.2c-0.1,0.8-0.6,1.3-1.5,1.3c-0.8,0-1.3-0.5-1.4-1.2c-0.1-0.8-0.1-1.6,0-2.3
		c0.1-0.8,0.6-1.3,1.4-1.3c0.8,0,1.3,0.5,1.4,1.2C10.6,84,10.6,84.4,10.6,84.8C10.6,84.8,10.6,84.8,10.6,84.8"/>
	<path class="st2" d="M82.2,84.7c0,0.4,0,0.8,0,1.2c-0.1,0.8-0.6,1.3-1.4,1.3c-0.8,0-1.3-0.5-1.4-1.3c-0.1-0.7-0.1-1.4,0-2
		c0-0.9,0.6-1.5,1.4-1.5c0.8,0,1.4,0.6,1.5,1.5C82.3,84.2,82.2,84.5,82.2,84.7L82.2,84.7z"/>
	<path class="st2" d="M46.4,84.9c0,0.4,0,0.7,0,1.1c-0.1,0.8-0.6,1.3-1.5,1.3c-0.8,0-1.3-0.5-1.4-1.3c-0.1-0.7,0-1.4,0-2
		c0-0.9,0.7-1.5,1.5-1.5c0.8,0,1.4,0.6,1.4,1.5C46.4,84.2,46.4,84.5,46.4,84.9C46.4,84.9,46.4,84.9,46.4,84.9"/>
	<path class="st2" d="M10.6,74.2c0,0.4,0,0.8-0.1,1.2c-0.1,0.8-0.6,1.3-1.5,1.2c-0.8,0-1.3-0.5-1.4-1.2c-0.1-0.7-0.1-1.5,0-2.2
		c0.1-0.9,0.7-1.4,1.5-1.3c0.8,0,1.3,0.5,1.4,1.3C10.6,73.4,10.6,73.8,10.6,74.2C10.6,74.2,10.6,74.2,10.6,74.2"/>
	<path class="st2" d="M79.3,95.4c0-0.4,0-0.8,0.1-1.1c0.1-0.8,0.6-1.3,1.5-1.3c0.8,0,1.3,0.4,1.4,1.2c0.1,0.8,0.1,1.6,0,2.3
		c-0.1,0.8-0.6,1.3-1.4,1.3c-0.8,0-1.3-0.4-1.4-1.2C79.3,96.2,79.3,95.8,79.3,95.4"/>
	<path class="st2" d="M46.4,74.1c0,0.4,0.1,0.9,0,1.3c-0.1,0.8-0.7,1.3-1.5,1.2c-0.8,0-1.3-0.5-1.4-1.2c-0.1-0.7-0.1-1.4,0-2.1
		c0-0.9,0.6-1.4,1.4-1.4c0.8,0,1.4,0.6,1.5,1.5C46.4,73.5,46.4,73.8,46.4,74.1C46.4,74.1,46.4,74.1,46.4,74.1"/>
	<path class="st2" d="M43.5,95.4c0-0.4,0-0.7,0-1.1c0.1-0.8,0.6-1.3,1.5-1.3c0.8,0,1.3,0.5,1.4,1.2c0.1,0.8,0.1,1.6,0,2.3
		c-0.1,0.8-0.6,1.3-1.5,1.3c-0.8,0-1.3-0.5-1.4-1.3C43.5,96.1,43.5,95.8,43.5,95.4"/>
</g>
</svg>
