<?xml version="1.0" encoding="utf-8"?>
<!-- Generator: Adobe Illustrator 25.4.1, SVG Export Plug-In . SVG Version: 6.00 Build 0)  -->
<svg version="1.1" id="Layer_1" xmlns="http://www.w3.org/2000/svg" xmlns:xlink="http://www.w3.org/1999/xlink" x="0px" y="0px"
	 viewBox="0 0 65 65" style="enable-background:new 0 0 65 65;" xml:space="preserve">
<style type="text/css">
	.st0{fill:#A0A5B6;}
	.st1{fill:#F37367;}
	.st2{fill:#FFFFFF;}
</style>
<g>
	<path class="st0" d="M32.5,15.1c8.7,0,17.4,0,26,0c0.6,0,0.7-0.2,0.7-0.7c0-2.6,0-5.3,0-7.9c0-0.5-0.1-0.7-0.6-0.7
		c-17.4,0-34.8,0-52.2,0c-0.5,0-0.6,0.2-0.6,0.6c0,2.6,0,5.3,0,7.9c0,0.6,0.2,0.7,0.7,0.7C15.2,15.1,23.8,15.1,32.5,15.1 M32.5,59.2
		c8.6,0,17.2,0,25.9,0c0.8,0,0.8,0,0.8-0.8c0-13.6,0-27.2,0-40.8c0-0.8,0-0.8-0.8-0.8c-17.3,0-34.6,0-51.8,0c-0.8,0-0.8,0-0.8,0.8
		c0,13.6,0,27.2,0,40.7c0,0.8,0,0.8,0.8,0.8C15.2,59.2,23.9,59.2,32.5,59.2 M32.5,4c9,0,18,0,27,0C60.8,4,61,4.2,61,5.5
		c0,18,0,36,0,54.1c0,1.3-0.2,1.5-1.4,1.5c-18,0-36.1,0-54.1,0C4.2,61,4,60.8,4,59.6C4,41.5,4,23.5,4,5.4C4,4.2,4.2,4,5.4,4
		C14.4,4,23.5,4,32.5,4"/>
	<path class="st0" d="M32.5,49c1.3,0,1,0.2,1.3-0.8c0.3-1,0.9-1.5,1.9-2c1.3-0.6,2.4-0.7,3.6,0.1c0.2,0.2,0.4,0.1,0.6-0.1
		c1.1-1.1,1.1-1.1,0.5-2.4c-0.1-0.1-0.1-0.2-0.2-0.3c-0.2-0.4-0.2-0.7,0-1.1c0.3-0.6,0.6-1.2,0.8-1.9c0.1-0.4,0.4-0.7,0.8-0.8
		c0.5-0.1,0.9-0.3,1.3-0.5c0.2-0.1,0.3-0.2,0.3-0.4c0.1-1.6,0.1-1.6-1.4-2.1c-0.1,0-0.2-0.1-0.3-0.1c-0.4-0.1-0.7-0.4-0.8-0.9
		c-0.1-0.5-0.3-1-0.6-1.5c-0.4-0.6-0.4-1.2,0-1.9C41,31,40.9,31,40,30c-0.3-0.3-0.6-0.4-1-0.2c-1,0.6-2,0.9-3.1,0.1
		c-0.1-0.1-0.3-0.1-0.4-0.1c-1-0.2-1.6-0.8-1.8-1.8c0-0.1-0.1-0.1-0.1-0.2c-0.1-0.6-0.4-0.7-1-0.7c-1.2,0-1.2,0-1.6,1.1
		c-0.3,0.8-0.7,1.4-1.6,1.6c-0.3,0.1-0.6,0.2-0.8,0.3c-0.8,0.6-1.5,0.4-2.3,0c-1-0.5-1-0.4-1.8,0.3c-0.5,0.4-0.6,0.8-0.2,1.3
		c0.6,0.9,0.5,1.8,0.1,2.8c-0.5,1.4-1.2,2.1-2.6,2.4c-0.3,0.1-0.4,0.2-0.4,0.5c0,1.5-0.1,1.5,1.4,2.1c0.1,0,0.2,0.1,0.3,0.1
		c0.5,0.1,0.8,0.5,0.9,0.9c0,0.2,0.1,0.4,0.2,0.6c0.8,1.2,0.8,2.4,0,3.6c-0.1,0.2-0.1,0.3,0,0.5c1,1.2,1,1.2,2.5,0.6
		c0.1,0,0.2-0.1,0.3-0.1c0.4-0.2,0.8-0.2,1.2,0c0.6,0.3,1.2,0.6,1.9,0.8c0.4,0.1,0.7,0.4,0.8,0.8c0.1,0.3,0.2,0.5,0.3,0.8
		C31.6,49.2,31.3,49,32.5,49 M42.9,45.3c0,0.3-0.1,0.5-0.3,0.7c-0.7,0.7-1.4,1.4-2.1,2.1c-0.4,0.4-0.7,0.4-1.2,0.2
		c-0.1-0.1-0.3-0.1-0.4-0.2c-1-0.7-1.9-0.6-2.9,0c-0.2,0.1-0.3,0.2-0.4,0.4c-0.2,0.5-0.4,1-0.6,1.6c-0.2,0.5-0.5,0.8-1,0.7
		c-1,0-2,0-3,0c-0.5,0-0.8-0.2-1-0.7c-0.1-0.2-0.1-0.3-0.2-0.5c-0.5-1.5-0.5-1.5-2-2c-0.2-0.1-0.4,0-0.6,0c-0.5,0.2-1,0.5-1.5,0.7
		c-0.5,0.2-0.9,0.2-1.2-0.2c-0.7-0.7-1.4-1.4-2.1-2.1c-0.4-0.4-0.4-0.7-0.2-1.2c0.1-0.2,0.2-0.3,0.2-0.5c0.7-1.5,0.7-1.5,0-2.9
		c-0.1-0.2-0.2-0.3-0.4-0.4c-0.5-0.2-1-0.4-1.5-0.6c-0.5-0.2-0.8-0.5-0.8-1.1c0-1,0-1.9,0-2.9c0-0.6,0.2-0.9,0.8-1.1
		c0.1,0,0.2-0.1,0.3-0.1c1.1-0.2,1.8-0.8,2.1-1.9c0.1-0.3,0.2-0.5,0-0.8c-0.2-0.5-0.5-1-0.7-1.5c-0.2-0.5-0.1-0.8,0.2-1.2
		c0.7-0.7,1.4-1.4,2.1-2.1c0.4-0.4,0.8-0.5,1.2-0.2c0.2,0.1,0.3,0.1,0.5,0.2c0.8,0.6,1.7,0.7,2.6,0.1c0.3-0.2,0.6-0.4,0.7-0.8
		c0.1-0.5,0.3-0.9,0.5-1.3c0.2-0.5,0.5-0.7,1-0.7c1,0,2,0,3,0c0.5,0,0.8,0.2,0.9,0.7c0.1,0.2,0.1,0.3,0.2,0.5c0.2,1,0.7,1.7,1.8,1.9
		c0.4,0.1,0.6,0.2,1,0c0.5-0.2,0.9-0.4,1.4-0.7c0.4-0.2,0.8-0.1,1.1,0.2c0.7,0.7,1.5,1.5,2.2,2.2c0.3,0.3,0.4,0.7,0.2,1.1
		c-0.1,0.2-0.1,0.3-0.2,0.5c-0.7,1.5-0.7,1.4,0,2.9c0.1,0.2,0.3,0.3,0.5,0.4c0.5,0.2,1.1,0.4,1.6,0.6c0.4,0.2,0.6,0.5,0.6,0.9
		c0,1,0,2,0,3c0,0.5-0.2,0.8-0.7,1c-0.2,0.1-0.3,0.1-0.5,0.2c-1.5,0.6-1.5,0.6-2.1,2c-0.1,0.2,0,0.4,0,0.6c0.2,0.5,0.5,1,0.7,1.5
		C42.8,44.9,42.9,45.1,42.9,45.3"/>
	<path class="st0" d="M29.2,20.1c-0.1-0.3-0.3-0.4-0.4-0.5c-0.3-0.4-0.4-0.8-0.1-1.1c0.3-0.4,0.7-0.4,1.1-0.1
		c0.7,0.6,1.4,1.2,2.1,1.9c0.3,0.3,0.3,0.7,0,1.1c-0.6,0.7-1.2,1.4-1.8,2c-0.3,0.3-0.7,0.4-1.1,0.1c-0.4-0.3-0.4-0.7,0.1-1.4
		c-0.2,0-0.4,0-0.6,0.1c-6.5,1.6-11.6,7.3-12.3,14c-0.1,0.6-0.1,1.1-0.1,1.7c0,0.6-0.4,1.1-0.9,1.1c-0.5,0-0.9-0.4-0.9-1.1
		c0.2-7.3,3.7-12.6,10.1-16C25.9,21,27.5,20.5,29.2,20.1"/>
	<path class="st0" d="M35.7,56c0.3,0.2,0.4,0.4,0.6,0.6c0.3,0.4,0.3,0.7,0,1.1c-0.3,0.3-0.7,0.4-1,0.1c-0.8-0.6-1.5-1.3-2.2-2
		c-0.3-0.3-0.2-0.8,0.1-1.1c0.5-0.5,1-1.1,1.5-1.6c0.5-0.6,0.9-0.7,1.3-0.4c0.4,0.3,0.4,0.7,0.1,1.4c0.1,0.1,0.3,0,0.4,0
		c6.6-1.6,11.6-7.3,12.3-14.1c0.1-0.6,0.1-1.1,0.1-1.7c0-0.6,0.4-1,0.9-1c0.5,0,0.9,0.4,0.9,1.1c0.1,8.3-6.1,15.9-14.3,17.6
		C36.2,55.8,36,55.9,35.7,56"/>
	<path class="st0" d="M19.6,10.4c0-0.5-0.4-0.9-0.9-0.9c-0.5,0-0.9,0.4-0.9,0.9c0,0.5,0.4,0.9,0.9,0.9
		C19.2,11.3,19.6,10.9,19.6,10.4 M21.4,10.5c0,1.5-1.2,2.7-2.7,2.7c-1.4,0-2.7-1.2-2.7-2.7c0-1.5,1.2-2.7,2.7-2.7
		C20.2,7.8,21.4,8.9,21.4,10.5"/>
	<path class="st0" d="M25.9,11.3c0.5,0,0.9-0.4,0.9-0.9c0-0.5-0.4-0.9-0.9-0.9c-0.5,0-0.9,0.4-0.9,0.8C25,10.9,25.4,11.3,25.9,11.3
		 M28.6,10.4c0,1.5-1.2,2.7-2.7,2.7c-1.4,0-2.7-1.2-2.7-2.7c0-1.5,1.2-2.7,2.7-2.7C27.4,7.7,28.6,8.9,28.6,10.4"/>
	<path class="st0" d="M11.5,11.3c0.5,0,0.9-0.4,0.9-0.9c0-0.5-0.4-0.9-0.9-0.9c-0.5,0-0.9,0.4-0.9,0.8C10.6,10.9,11,11.3,11.5,11.3
		 M8.8,10.4c0-1.5,1.2-2.7,2.7-2.7c1.5,0,2.7,1.2,2.7,2.7c0,1.5-1.2,2.7-2.7,2.7C10,13.1,8.8,11.9,8.8,10.4"/>
	<path class="st0" d="M32.5,41.8c2.1,0,3.8-1.7,3.8-3.8c0-2.1-1.7-3.8-3.8-3.8c-2.1,0-3.8,1.7-3.9,3.8
		C28.7,40.1,30.4,41.8,32.5,41.8 M32.5,43.6c-3.1,0-5.6-2.5-5.6-5.6c0-3.1,2.6-5.6,5.6-5.6c3.1,0,5.6,2.5,5.6,5.6
		C38.1,41.1,35.6,43.6,32.5,43.6"/>
</g>
</svg>
