<?xml version="1.0" encoding="utf-8"?>
<!-- Generator: Adobe Illustrator 25.4.1, SVG Export Plug-In . SVG Version: 6.00 Build 0)  -->
<svg version="1.1" id="Layer_1" xmlns="http://www.w3.org/2000/svg" xmlns:xlink="http://www.w3.org/1999/xlink" x="0px" y="0px"
	 viewBox="0 0 80 80" style="enable-background:new 0 0 80 80;" xml:space="preserve">
<style type="text/css">
	.st0{clip-path:url(#SVGID_00000112612342471364449710000015034399095698529691_);fill:#F37367;}
	.st1{fill:#F37367;}
	.st2{clip-path:url(#SVGID_00000013890276378503842040000008446652581180924054_);fill:#F37367;}
	.st3{clip-path:url(#SVGID_00000101805384218479900480000011238324241933779079_);fill:#F37367;}
	.st4{clip-path:url(#SVGID_00000046316564275891511380000004392952682244446849_);fill:#F37367;}
	.st5{clip-path:url(#SVGID_00000093855099187421973900000009468380798316532905_);fill:#F37367;}
	.st6{clip-path:url(#SVGID_00000011016241656376141870000008343361237678424490_);fill:#F37367;}
	.st7{clip-path:url(#SVGID_00000062184045891728292790000008296334867295007912_);fill:#F37367;}
	.st8{clip-path:url(#SVGID_00000158750145689452816000000005091914117969046712_);fill:#F37367;}
	.st9{clip-path:url(#SVGID_00000146491871546749282000000016490614263242257343_);fill:#F37367;}
</style>
<g>
	<defs>
		<rect id="SVGID_00000147215231967364727560000016642480552420745640_" x="15.9" y="11.5" width="48.1" height="57"/>
	</defs>
	<clipPath id="SVGID_00000152983196721848673440000000076103255856367796_">
		<use xlink:href="#SVGID_00000147215231967364727560000016642480552420745640_"  style="overflow:visible;"/>
	</clipPath>
	<path style="clip-path:url(#SVGID_00000152983196721848673440000000076103255856367796_);fill:#F37367;" d="M40.9,14.6v0.5
		c0,2.3,0,4.6,0,6.9c0,2.2,1.5,3.7,3.7,3.7c2.3,0,4.6,0,6.8,0c0.2,0,0.3,0.1,0.5,0C51.7,25.3,41.8,15.4,40.9,14.6 M40.3,11.5
		c0.4,0.4,0.8,0.8,1.2,1.2c4.4,4.4,8.7,8.7,13.1,13.1c0.4,0.4,0.6,0.8,0.6,1.3c0,3.3,0,6.7,0,10c0,0.3,0,0.6-0.3,0.9
		c-0.2,0.2-0.5,0.3-0.9,0.2c-0.3-0.1-0.6-0.3-0.6-0.7c0-0.2,0-0.4,0-0.6c0-2.9,0-5.9,0-8.9c0-0.4-0.1-0.6-0.5-0.6
		c-2.7,0-5.4,0-8.1,0c-3.3,0-5.6-2.3-5.6-5.6c0-2.7,0-5.4,0-8.1c0-0.4-0.1-0.5-0.5-0.5c-4.9,0-9.7,0-14.6,0c-3.6,0-6.3,2.7-6.3,6.3
		c0,12.4,0,24.9,0,37.3c0,3.6,2.7,6.3,6.3,6.3c5.2,0,10.4,0,15.5,0c0.2,0,0.4,0,0.6,0c0.5,0.1,0.8,0.4,0.8,0.9
		c0,0.5-0.3,0.8-0.8,0.9c-0.2,0-0.3,0-0.5,0c-5.1,0-10.3,0-15.4,0c-4.7,0-8.2-3.5-8.2-8.2c0-12.3,0-24.6,0-36.9
		c0-4.6,3.3-7.9,6.9-8.3c0.1,0,0.1-0.1,0.2-0.1H40.3z"/>
	<path style="clip-path:url(#SVGID_00000152983196721848673440000000076103255856367796_);fill:#F37367;" d="M40.9,49.6
		c0,1.7,0.2,3.1,0.5,4.5c1.4,5.6,4.8,9.7,9.9,12.4c0.2,0.1,0.4,0.1,0.6,0c1.6-0.9,3.2-1.9,4.6-3.2c4-3.9,6-8.7,5.8-14.3
		c0-0.5-0.2-0.9-0.7-1.1c-3.2-1.8-6.4-3.7-9.6-5.6c-0.3-0.2-0.6-0.2-0.9,0c-2.9,1.7-5.8,3.5-8.8,5.1C41.3,47.9,40.6,48.5,40.9,49.6
		 M64.1,49.9c-0.3,7.7-3.7,13.5-10.3,17.5c-0.6,0.3-1.1,0.6-1.7,1c-0.3,0.2-0.6,0.2-1,0c-4.3-2.2-7.8-5.3-10-9.8
		c-1.7-3.5-2.3-7.1-1.9-10.9c0-0.4,0.2-0.8,0.6-1c3.7-2.2,7.4-4.3,11.1-6.5c0.5-0.3,0.9-0.2,1.3,0c2.9,1.7,5.8,3.4,8.7,5.1
		c0.8,0.4,1.5,0.9,2.3,1.3c0.4,0.2,0.6,0.5,0.6,0.9C64,48.4,64.1,49.1,64.1,49.9"/>
	<path style="clip-path:url(#SVGID_00000152983196721848673440000000076103255856367796_);fill:#F37367;" d="M43.2,36.4
		c1.5,0,3.1,0,4.6,0c0.7,0,1.1,0.3,1.1,0.9c0,0.6-0.4,0.9-1.1,0.9c-3.1,0-6.2,0-9.4,0c-0.7,0-1.1-0.3-1.1-0.9c0-0.6,0.4-0.9,1.1-0.9
		C40,36.4,41.6,36.4,43.2,36.4"/>
	<path style="clip-path:url(#SVGID_00000152983196721848673440000000076103255856367796_);fill:#F37367;" d="M33.3,24.9
		c-1,0-1.9,0-2.9,0c-0.7,0-1.1-0.3-1.1-0.9c0-0.5,0.4-0.9,1.1-0.9c2,0,3.9,0,5.9,0c0.7,0,1.1,0.3,1.1,0.9c0,0.5-0.4,0.9-1.1,0.9
		C35.3,24.9,34.3,24.9,33.3,24.9"/>
	<path style="clip-path:url(#SVGID_00000152983196721848673440000000076103255856367796_);fill:#F37367;" d="M34.2,40.9c1,0,2,0,3,0
		c0.7,0,1.1,0.4,1.1,0.9c0,0.5-0.4,0.9-1.1,0.9c-2,0-3.9,0-5.9,0c-0.7,0-1.1-0.3-1.1-0.9c0-0.5,0.4-0.9,1.1-0.9
		C32.2,40.9,33.2,40.9,34.2,40.9"/>
	<path style="clip-path:url(#SVGID_00000152983196721848673440000000076103255856367796_);fill:#F37367;" d="M33.3,45.3
		c1,0,2,0,2.9,0c0.7,0,1.1,0.4,1.1,0.9c0,0.5-0.4,0.9-1.1,0.9c-2,0-3.9,0-5.9,0c-0.7,0-1.1-0.3-1.1-0.9c0-0.5,0.4-0.9,1.1-0.9
		C31.4,45.3,32.3,45.3,33.3,45.3"/>
	<path style="clip-path:url(#SVGID_00000152983196721848673440000000076103255856367796_);fill:#F37367;" d="M33.3,56c-1,0-2,0-3,0
		c-0.7,0-1.1-0.3-1.1-0.9c0-0.5,0.4-0.9,1.1-0.9c2,0,3.9,0,5.9,0c0.7,0,1.1,0.3,1.1,0.9c0,0.5-0.4,0.9-1.1,0.9
		C35.3,56,34.3,56,33.3,56"/>
	<path style="clip-path:url(#SVGID_00000152983196721848673440000000076103255856367796_);fill:#F37367;" d="M26.7,20.4
		c-0.9,0-1.7,0-2.6,0c-0.7,0-1.1-0.4-1-0.9c0-0.5,0.4-0.9,1.1-0.9c1.7,0,3.3,0,5,0c0.7,0,1.1,0.4,1,0.9c0,0.5-0.4,0.9-1.1,0.9
		C28.3,20.4,27.5,20.4,26.7,20.4"/>
	<path style="clip-path:url(#SVGID_00000152983196721848673440000000076103255856367796_);fill:#F37367;" d="M32.9,32
		c0.8,0,1.7,0,2.5,0c0.7,0,1.1,0.3,1.1,0.9c0,0.5-0.4,0.9-1.1,0.9c-1.7,0-3.3,0-5,0c-0.7,0-1.1-0.3-1.1-0.9c0-0.5,0.4-0.9,1.1-0.9
		C31.2,32,32,32,32.9,32"/>
	<path style="clip-path:url(#SVGID_00000152983196721848673440000000076103255856367796_);fill:#F37367;" d="M26.2,27.5
		c0.7,0,1.4,0,2.1,0c0.6,0,1,0.4,1,0.9c0,0.5-0.4,0.9-1,0.9c-1.4,0-2.8,0-4.2,0c-0.6,0-1-0.4-1-0.9c0-0.5,0.4-0.9,1-0.9
		C24.8,27.5,25.5,27.5,26.2,27.5"/>
	<path style="clip-path:url(#SVGID_00000152983196721848673440000000076103255856367796_);fill:#F37367;" d="M26.2,36.4
		c0.7,0,1.4,0,2.1,0c0.6,0,1,0.4,1,0.9c0,0.5-0.4,0.9-1,0.9c-1.4,0-2.8,0-4.2,0c-0.6,0-1-0.4-1-0.9c0-0.5,0.4-0.9,1-0.9
		C24.8,36.4,25.5,36.4,26.2,36.4"/>
	<path style="clip-path:url(#SVGID_00000152983196721848673440000000076103255856367796_);fill:#F37367;" d="M33.3,51.6
		c-0.7,0-1.4,0-2.1,0c-0.6,0-1-0.4-1-0.9c0-0.5,0.4-0.9,1-0.9c1.4,0,2.8,0,4.2,0c0.6,0,1,0.4,1,0.9c0,0.5-0.4,0.9-1,0.9
		C34.7,51.6,34,51.6,33.3,51.6"/>
	<path style="clip-path:url(#SVGID_00000152983196721848673440000000076103255856367796_);fill:#F37367;" d="M25.7,42.7
		c-0.6,0-1.1,0-1.7,0c-0.6,0-1-0.4-1-0.9c0-0.5,0.4-0.9,1-0.9c1.1,0,2.3,0,3.4,0c0.6,0,1,0.4,1,0.9c0,0.5-0.4,0.9-1,0.9
		C26.9,42.7,26.3,42.7,25.7,42.7"/>
	<path style="clip-path:url(#SVGID_00000152983196721848673440000000076103255856367796_);fill:#F37367;" d="M25.7,51.6
		c-0.6,0-1.1,0-1.7,0c-0.6,0-0.9-0.4-1-0.9c0-0.5,0.4-0.9,0.9-0.9c1.2,0,2.3,0,3.5,0c0.6,0,0.9,0.4,1,0.9c0,0.5-0.4,0.9-1,0.9
		C26.9,51.6,26.3,51.6,25.7,51.6"/>
	<path style="clip-path:url(#SVGID_00000152983196721848673440000000076103255856367796_);fill:#F37367;" d="M34.3,20.4
		c-0.4,0-0.9,0-1.3,0c-0.6,0-0.9-0.4-0.9-0.9c0-0.5,0.4-0.9,0.9-0.9c0.9,0,1.7,0,2.6,0c0.6,0,0.9,0.4,0.9,0.9c0,0.5-0.4,0.9-1,0.9
		C35.1,20.4,34.7,20.4,34.3,20.4"/>
	<path style="clip-path:url(#SVGID_00000152983196721848673440000000076103255856367796_);fill:#F37367;" d="M25.3,24.9
		c-0.4,0-0.9,0-1.3,0c-0.6,0-0.9-0.4-0.9-0.9c0-0.5,0.4-0.9,0.9-0.9c0.9,0,1.7,0,2.6,0c0.6,0,0.9,0.4,0.9,0.9c0,0.5-0.4,0.8-0.9,0.9
		c0,0-0.1,0-0.1,0C26.1,24.9,25.7,24.9,25.3,24.9"/>
	<path style="clip-path:url(#SVGID_00000152983196721848673440000000076103255856367796_);fill:#F37367;" d="M25.3,33.8
		c-0.4,0-0.9,0-1.3,0c-0.5,0-0.9-0.4-0.9-0.9c0-0.5,0.4-0.9,0.9-0.9c0.9,0,1.7,0,2.6,0c0.5,0,0.9,0.4,0.9,0.9c0,0.5-0.4,0.9-0.9,0.9
		c0,0-0.1,0-0.1,0C26.1,33.8,25.7,33.8,25.3,33.8L25.3,33.8z"/>
	<path style="clip-path:url(#SVGID_00000152983196721848673440000000076103255856367796_);fill:#F37367;" d="M40.4,32
		c0.4,0,0.9,0,1.3,0c0.5,0,0.9,0.4,0.9,0.9c0,0.5-0.4,0.9-0.9,0.9c-0.9,0-1.8,0-2.7,0c-0.5,0-0.9-0.4-0.9-0.9c0-0.5,0.4-0.9,0.9-0.9
		C39.5,32,40,32,40.4,32"/>
	<path style="clip-path:url(#SVGID_00000152983196721848673440000000076103255856367796_);fill:#F37367;" d="M46.7,33.8
		c-0.4,0-0.9,0-1.3,0c-0.6,0-0.9-0.4-0.9-0.9c0-0.5,0.4-0.9,0.9-0.9c0.9,0,1.7,0,2.6,0c0.6,0,0.9,0.4,0.9,0.9c0,0.5-0.4,0.9-0.9,0.9
		c0,0-0.1,0-0.1,0C47.5,33.8,47.1,33.8,46.7,33.8"/>
	<path style="clip-path:url(#SVGID_00000152983196721848673440000000076103255856367796_);fill:#F37367;" d="M33.3,38.2
		c-0.4,0-0.9,0-1.3,0c-0.5,0-0.9-0.4-0.9-0.9c0-0.5,0.4-0.9,0.9-0.9c0.9,0,1.8,0,2.7,0c0.5,0,0.9,0.4,0.9,0.9c0,0.5-0.4,0.8-0.9,0.9
		c0,0-0.1,0-0.1,0C34.1,38.2,33.7,38.2,33.3,38.2L33.3,38.2z"/>
	<path style="clip-path:url(#SVGID_00000152983196721848673440000000076103255856367796_);fill:#F37367;" d="M25.3,45.4
		c0.4,0,0.9,0,1.3,0c0.5,0,0.9,0.4,0.9,0.9c0,0.5-0.4,0.9-0.9,0.9c-0.9,0-1.7,0-2.6,0c-0.6,0-0.9-0.4-0.9-0.9c0-0.5,0.4-0.8,0.9-0.9
		C24.4,45.3,24.9,45.4,25.3,45.4"/>
	<path style="clip-path:url(#SVGID_00000152983196721848673440000000076103255856367796_);fill:#F37367;" d="M25.3,54.3
		c0.4,0,0.9,0,1.3,0c0.6,0,0.9,0.4,0.9,0.9c0,0.5-0.4,0.9-0.9,0.9c-0.9,0-1.7,0-2.6,0c-0.6,0-0.9-0.4-0.9-0.9c0-0.5,0.4-0.9,0.9-0.9
		C24.5,54.2,24.9,54.3,25.3,54.3"/>
	<path style="clip-path:url(#SVGID_00000152983196721848673440000000076103255856367796_);fill:#F37367;" d="M32.9,29.3
		c-0.3,0-0.6,0-0.9,0c-0.5,0-0.9-0.4-0.9-0.9c0-0.5,0.4-0.8,0.8-0.9c0.6,0,1.2,0,1.8,0c0.5,0,0.9,0.4,0.9,0.9c0,0.5-0.4,0.8-0.9,0.9
		C33.5,29.3,33.2,29.3,32.9,29.3"/>
	<path style="clip-path:url(#SVGID_00000152983196721848673440000000076103255856367796_);fill:#F37367;" d="M38.2,29.3
		c-0.3,0-0.6,0-0.9,0c-0.5,0-0.8-0.4-0.8-0.9c0-0.5,0.3-0.9,0.9-0.9c0.6,0,1.2,0,1.8,0c0.5,0,0.8,0.4,0.8,0.9c0,0.5-0.3,0.9-0.9,0.9
		C38.8,29.3,38.5,29.3,38.2,29.3"/>
	<path style="clip-path:url(#SVGID_00000152983196721848673440000000076103255856367796_);fill:#F37367;" d="M41.8,42.7
		c-0.3,0-0.6,0-0.9,0c-0.5,0-0.8-0.4-0.8-0.9c0-0.5,0.3-0.9,0.8-0.9c0.6,0,1.3,0,1.9,0c0.5,0,0.8,0.4,0.8,0.9c0,0.5-0.3,0.8-0.8,0.9
		C42.4,42.7,42.1,42.7,41.8,42.7"/>
	<path style="clip-path:url(#SVGID_00000152983196721848673440000000076103255856367796_);fill:#F37367;" d="M51.9,61.4
		c-4.4,0-7.6-3.4-7.5-7.5c0.1-3.9,3.7-7.1,7.7-6.8c0.8,0.1,1.5,0.2,2.3,0.6c0.6,0.3,0.9,0.7,0.7,1.3c-0.2,0.5-0.7,0.7-1.4,0.4
		c-3.2-1.2-6.5,0.4-7.3,3.6c-0.5,2.1,0,4,1.7,5.4c1.6,1.4,3.6,1.7,5.6,0.9c2-0.9,3.1-2.4,3.2-4.6c0-0.3,0-0.6,0.3-0.9
		c0.3-0.3,0.6-0.4,1-0.2c0.4,0.2,0.6,0.5,0.6,0.9c0,1.9-0.7,3.5-2.1,4.9C55.3,60.7,53.6,61.3,51.9,61.4"/>
	<path style="clip-path:url(#SVGID_00000152983196721848673440000000076103255856367796_);fill:#F37367;" d="M58.7,49.7
		c0,0.3-0.1,0.6-0.3,0.8c-2,2-4,4-6.1,6.1c-0.5,0.5-1.1,0.5-1.5-0.1c-0.9-1.1-1.7-2.2-2.5-3.4c-0.4-0.5-0.3-1,0.1-1.3
		c0.4-0.3,0.9-0.2,1.3,0.3c0.6,0.7,1.1,1.5,1.7,2.2c0.2,0.3,0.4,0.4,0.7,0.1c1.6-1.7,3.3-3.3,5-5c0.5-0.5,0.9-0.5,1.3-0.2
		C58.6,49.2,58.7,49.5,58.7,49.7"/>
</g>
</svg>
