<?xml version="1.0" encoding="utf-8"?>
<!-- Generator: Adobe Illustrator 25.4.1, SVG Export Plug-In . SVG Version: 6.00 Build 0)  -->
<svg version="1.1" id="Layer_1" xmlns="http://www.w3.org/2000/svg" xmlns:xlink="http://www.w3.org/1999/xlink" x="0px" y="0px"
	 viewBox="0 0 80 80" style="enable-background:new 0 0 80 80;" xml:space="preserve">
<style type="text/css">
	.st0{clip-path:url(#SVGID_00000079488468603346227920000004621014845631404697_);fill:#F37367;}
	.st1{fill:#F37367;}
	.st2{clip-path:url(#SVGID_00000127012387695564762410000014412635223340378249_);fill:#F37367;}
	.st3{clip-path:url(#SVGID_00000010292051432827698570000015454853085992640940_);fill:#F37367;}
	.st4{clip-path:url(#SVGID_00000081634742147335682240000003141511603085190549_);fill:#F37367;}
	.st5{clip-path:url(#SVGID_00000035513054616075960770000016672446826819013016_);fill:#F37367;}
	.st6{clip-path:url(#SVGID_00000178199739480921546200000013690930897228230052_);fill:#F37367;}
	.st7{clip-path:url(#SVGID_00000131368240742289624290000001148881363567349435_);fill:#F37367;}
	.st8{clip-path:url(#SVGID_00000124156593778368006630000017564059417122939327_);fill:#F37367;}
	.st9{clip-path:url(#SVGID_00000146487859767336482300000002280057750659671178_);fill:#F37367;}
</style>
<g>
	<defs>
		<rect id="SVGID_00000078035268743935976800000013322333753644573062_" x="17.5" y="11.5" width="45" height="57"/>
	</defs>
	<clipPath id="SVGID_00000056400307173600507740000012596844872232850338_">
		<use xlink:href="#SVGID_00000078035268743935976800000013322333753644573062_"  style="overflow:visible;"/>
	</clipPath>
	<path style="clip-path:url(#SVGID_00000056400307173600507740000012596844872232850338_);fill:#F37367;" d="M40.6,11.5
		c0.9,0.2,1.5,0.8,2.1,1.4c3.1,2.9,6.8,4.6,10.8,5.6c2,0.5,4.1,0.7,6.2,0.9c1.6,0.1,2.7,1.3,2.8,2.9c0.1,2.7,0,5.4,0,8.1
		c0,0.6-0.3,0.9-0.8,0.9c-0.5,0-0.8-0.3-0.8-1c0-2.5,0-5.1,0-7.6c0-1.1-0.4-1.6-1.6-1.7c-0.1,0-0.3,0-0.4,0c-2.2-0.1-4.3-0.5-6.4-1
		c-4.3-1.1-8.2-3.1-11.4-6.3c-0.7-0.7-1.5-0.7-2.1,0c-4,4-9,6.1-14.5,7c-1.1,0.2-2.3,0.3-3.5,0.4c-1.3,0.1-1.7,0.5-1.7,1.8
		c0,7.5,0,15.1,0,22.6c0.1,6.7,3,11.8,8.8,15.2c2.9,1.8,5.9,3.5,8.9,5.2c2.1,1.2,4.1,1.2,6.2,0c3-1.8,6.1-3.5,9.1-5.3
		c5.6-3.4,8.5-8.5,8.6-15.1c0.1-3.6,0-7.1,0-10.7c0-0.9,0.3-1.3,0.8-1.3c0.6,0,0.9,0.4,0.9,1.3c0,3.9,0.1,7.9-0.1,11.8
		c-0.3,6.5-3.3,11.6-8.8,15c-3.2,2.1-6.6,3.9-9.9,5.8c-2.5,1.4-5,1.4-7.5,0c-3.2-1.8-6.4-3.6-9.6-5.6c-5.8-3.6-8.9-8.9-9-15.7
		c-0.2-7.9,0-15.7,0-23.6c0-1.8,1.1-3,2.9-3.1c3.1-0.2,6.1-0.7,9-1.7c3.2-1.1,6-2.8,8.4-5.2c0.5-0.5,1.1-0.7,1.7-0.9H40.6z"/>
	<path style="clip-path:url(#SVGID_00000056400307173600507740000012596844872232850338_);fill:#F37367;" d="M58,36
		c0,3.1,0,6.3,0,9.4c-0.1,5.6-2.5,9.9-7.3,12.8c-3,1.8-6,3.5-9,5.3c-1.1,0.6-2.2,0.7-3.3,0.1c-3.3-1.9-6.6-3.7-9.8-5.7
		c-4.3-2.7-6.5-6.7-6.6-11.8c-0.1-3.8,0-7.5,0-11.3c0-0.7,0.3-1.1,0.8-1.1c0.5,0,0.8,0.4,0.8,1.1c0,3.6,0,7.1,0,10.7
		c0,5.1,2.2,8.9,6.6,11.5c3,1.7,5.9,3.4,8.9,5.2c0.6,0.3,1.1,0.4,1.7,0c3.2-1.9,6.4-3.6,9.5-5.6c3.9-2.4,5.9-6,6-10.6
		c0.1-6.7,0-13.3,0-20c0-0.4-0.1-0.6-0.6-0.7c-5.6-0.8-10.8-2.6-15.4-6.2c-0.3-0.2-0.5-0.2-0.7,0c-4.6,3.5-9.8,5.4-15.4,6.2
		c-0.5,0.1-0.6,0.3-0.6,0.7c0,1.5,0,2.9,0,4.4c0,0.7-0.3,1-0.8,1c-0.5,0-0.8-0.4-0.8-1.1c0-1.5,0-3,0-4.5c0-1.3,0.6-2.1,2-2.2
		c2.7-0.4,5.3-1,7.9-2c2.4-1,4.7-2.2,6.8-3.8c0.9-0.7,1.7-0.7,2.6-0.1c4.3,3.3,9.3,5.1,14.6,5.9c1.5,0.2,2.1,0.9,2.1,2.4
		C58,29.3,58,32.7,58,36"/>
	<path style="clip-path:url(#SVGID_00000056400307173600507740000012596844872232850338_);fill:#F37367;" d="M50.3,29.6
		c1.5,0.1,2.8,0.9,3.5,2.5c0.7,1.6,0.4,3.1-0.7,4.5c-0.1,0.1-0.2,0.2-0.3,0.4c-4.4,4.4-8.7,8.8-13.1,13.2c-1.5,1.6-3.6,1.8-5.3,0.7
		c-0.3-0.2-0.5-0.4-0.7-0.6c-2.2-2.2-4.5-4.5-6.7-6.8c-2.3-2.3-1.2-6.2,1.9-7c1.5-0.4,2.9,0,4,1.1c1.1,1.1,2.3,2.2,3.4,3.4
		c0.3,0.3,0.4,0.3,0.7,0c1.1-1.2,2.3-2.3,3.5-3.5c0.1-0.1,0.2-0.2,0.3-0.3c0.4-0.3,0.8-0.3,1.1,0c0.3,0.3,0.4,0.8,0,1.2
		c-1.6,1.6-3.1,3.2-4.7,4.8c-0.4,0.4-0.8,0.3-1.3-0.1c-1.4-1.4-2.7-2.7-4.1-4.1c-0.8-0.8-1.6-1-2.7-0.7c-1.7,0.6-2.3,2.8-1.1,4.1
		c2.3,2.4,4.6,4.7,6.9,7c1,1,2.5,0.9,3.5-0.2c3.1-3.2,6.3-6.3,9.4-9.5c1.3-1.3,2.6-2.6,3.9-3.9c1.4-1.4,0.7-3.7-1.2-4.2
		c-0.9-0.2-1.7,0-2.4,0.7c-1.1,1.1-2.1,2.1-3.2,3.2c-0.1,0.1-0.2,0.2-0.3,0.3c-0.4,0.3-0.9,0.3-1.2,0c-0.3-0.3-0.3-0.8,0-1.2
		c0.4-0.5,0.9-0.9,1.3-1.3c0.7-0.7,1.5-1.5,2.2-2.2C47.9,30,48.9,29.6,50.3,29.6"/>
</g>
</svg>
