<?xml version="1.0" encoding="utf-8"?>
<!-- Generator: Adobe Illustrator 25.4.1, SVG Export Plug-In . SVG Version: 6.00 Build 0)  -->
<svg version="1.1" id="Layer_1" xmlns="http://www.w3.org/2000/svg" xmlns:xlink="http://www.w3.org/1999/xlink" x="0px" y="0px"
	 viewBox="0 0 65 65" style="enable-background:new 0 0 65 65;" xml:space="preserve">
<style type="text/css">
	.st0{fill:#FFFFFF;}
	.st1{fill:#A0A5B6;}
	.st2{clip-path:url(#SVGID_00000011749280441204648530000005757464476999094192_);fill:#F37367;}
	.st3{clip-path:url(#SVGID_00000059303911708227853660000003536984059316335244_);fill:#A0A5B6;}
	.st4{fill:#F37367;}
</style>
<g>
	<defs>
		<rect id="SVGID_00000165919936744549690110000004713053761533728668_" x="3.8" y="4.7" width="57.5" height="55.6"/>
	</defs>
	<clipPath id="SVGID_00000152263684979750455680000018007632400586810507_">
		<use xlink:href="#SVGID_00000165919936744549690110000004713053761533728668_"  style="overflow:visible;"/>
	</clipPath>
	<path style="clip-path:url(#SVGID_00000152263684979750455680000018007632400586810507_);fill:#A0A5B6;" d="M32.5,55.1H6.7
		c-1.2,0-1.2,0-1.2,1.2c0,0.5,0,0.9,0.2,1.4c0.4,0.7,1,0.9,1.8,0.9c16.6,0,33.3,0,49.9,0c0.1,0,0.2,0,0.3,0c0.9,0,1.6-0.7,1.7-1.6
		c0-0.4,0-0.8,0-1.2c0.1-0.5-0.1-0.7-0.7-0.7C50,55.1,41.3,55.1,32.5,55.1 M32.5,53.3c8.6,0,17.2,0,25.8,0c0.6,0,0.6,0,0.3-0.5
		c-1-1.8-2-3.6-3-5.3c-0.2-0.3-0.3-0.4-0.7-0.4c-15,0-30,0-45,0c-0.3,0-0.5,0.1-0.7,0.4c-0.9,1.7-1.9,3.5-2.9,5.2
		c-0.3,0.6-0.3,0.6,0.4,0.6C15.4,53.3,23.9,53.3,32.5,53.3 M3.8,53.9c1.4-2.6,2.8-5.1,4.3-7.7c0.2-0.3,0.1-0.5,0.1-0.8
		c0-9.6,0-19.3,0-28.9c0-1.2,0.4-2.3,1.3-3.1c0.7-0.6,1.5-0.9,2.4-0.9c1.2,0,2.4,0,3.6,0c0.6,0,1,0.4,1,0.9c0,0.5-0.4,0.9-1,0.9
		c-1.1,0-2.3,0-3.4,0c-1.3,0-2.1,0.8-2.1,2.1c0,9.5,0,19,0,28.5c0,0.4,0.1,0.5,0.5,0.5c14.7,0,29.4,0,44.1,0c0.4,0,0.5-0.1,0.5-0.5
		c0-9.5,0-19,0-28.5c0-1.2-0.8-2-2-2.1c-1.2,0-2.3,0-3.5,0c-0.7,0-1.1-0.4-1-1c0-0.5,0.4-0.8,0.9-0.8c1.3,0,2.5,0,3.8,0
		c1.8,0.1,3.3,1.5,3.5,3.3c0,0.3,0,0.6,0,1c0,9.5,0,19,0,28.6c0,0.5,0.1,0.9,0.3,1.3c1.3,2.3,2.5,4.5,3.8,6.8
		c0.2,0.4,0.3,0.8,0.3,1.2c0,0.7,0,1.4,0,2.1c0,1.9-1.4,3.3-3.3,3.5c-0.3,0-0.6,0-0.8,0c-16.4,0-32.7,0-49.1,0
		c-2.5,0-3.4-0.6-4.3-2.9V53.9z"/>
	<path style="clip-path:url(#SVGID_00000152263684979750455680000018007632400586810507_);fill:#A0A5B6;" d="M31.6,7.5
		c-0.1,0.1-0.2,0.1-0.2,0.1c-3,2.3-6.3,3.2-10.1,2.8c-0.4,0-0.5,0.1-0.5,0.5c0,2.2,0,4.3,0,6.5c0.1,6.5,2.7,11.7,7.8,15.6
		c0.9,0.7,1.8,1.3,2.9,1.8c0-1,0-1.9,0-2.8c0-1.3,0-2.5,0-3.8c0-0.5,0.4-0.9,0.9-0.9c0.5,0,0.8,0.4,0.9,0.9c0,0.1,0,0.3,0,0.4
		c0,1.9,0,3.8,0,5.7c0,0.4,0.1,0.5,0.5,0.3c6-3.3,9.5-8.3,10.2-15.1c0.3-2.8,0-5.6,0.1-8.5c0-0.5-0.1-0.7-0.7-0.6
		c-3.5,0.4-6.7-0.5-9.6-2.6c-0.1-0.1-0.2-0.3-0.5-0.3c0,2,0,4,0,6.1c0,0.2,0,0.4,0,0.6c0,0.5-0.4,0.9-0.9,0.9
		c-0.5,0-0.8-0.3-0.9-0.8c0-0.2,0-0.4,0-0.6C31.6,11.7,31.6,9.6,31.6,7.5 M45.9,14.5c0,1.9,0.1,4.1-0.2,6.3
		C44.2,28.3,40,33.7,33,36.9c-0.4,0.2-0.8,0.1-1.1,0c-7-3.2-11.2-8.6-12.6-16.3c-0.2-0.9-0.2-1.9-0.2-2.8c0-2.7,0-5.5,0-8.2
		c0-1,0.4-1.3,1.4-1.1c2.5,0.7,4.9,0.3,7.2-0.7c1.5-0.7,2.8-1.6,4.1-2.7c0.6-0.5,0.9-0.5,1.5,0c2,1.7,4.2,3.1,6.9,3.5
		c1.5,0.3,3,0.3,4.4-0.2c0.8-0.3,1.3,0.1,1.3,1C45.9,11,45.9,12.6,45.9,14.5"/>
	<path style="clip-path:url(#SVGID_00000152263684979750455680000018007632400586810507_);fill:#A0A5B6;" d="M32.5,42
		c-6,0-12,0-18.1,0c-1,0-1.3-0.2-1.3-1.3c0-7.3,0-14.5,0-21.8c0-1.1,0.2-1.3,1.3-1.3c0.7,0,1.4,0,2.1,0c0.5,0,0.8,0.4,0.8,0.9
		c0,0.5-0.3,0.8-0.8,0.8c-0.3,0-0.7,0-1,0c-0.5-0.1-0.7,0.1-0.7,0.7c0.1,0.6,0,1.2,0,1.8c0,5.9,0,11.9,0,17.8c0,0.5,0.1,0.7,0.6,0.7
		c11.3,0,22.7,0,34,0c0.5,0,0.6-0.2,0.6-0.7c0-6.5,0-13.1,0-19.6c0-0.5-0.1-0.7-0.6-0.6c-0.4,0.1-0.8,0-1.2,0
		c-0.5-0.1-0.7-0.4-0.7-0.9c0-0.5,0.3-0.8,0.8-0.8c0.8,0,1.5-0.1,2.3,0c1,0,1.2,0.3,1.2,1.2c0,3.5,0,7,0,10.5c0,3.8,0,7.6,0,11.4
		c0,1-0.2,1.3-1.2,1.3C44.6,42,38.5,42,32.5,42"/>
	<path style="clip-path:url(#SVGID_00000152263684979750455680000018007632400586810507_);fill:#A0A5B6;" d="M32.3,22.4
		c0.2-0.1,0.3-0.3,0.3-0.5c1.1-2.1,2.3-4.2,3.4-6.2c0.3-0.6,0.7-0.8,1.2-0.6c0.6,0.2,0.7,0.8,0.4,1.4c-0.9,1.7-1.9,3.4-2.8,5.2
		c-0.5,0.9-0.9,1.7-1.4,2.6c-0.5,0.8-1.1,0.9-1.7,0.1c-1.1-1.5-2.3-2.9-3.4-4.4c-0.4-0.5-0.4-1,0.1-1.4c0.4-0.3,0.9-0.2,1.3,0.3
		C30.5,20.1,31.4,21.3,32.3,22.4"/>
</g>
</svg>
