<?xml version="1.0" encoding="utf-8"?>
<!-- Generator: Adobe Illustrator 25.4.1, SVG Export Plug-In . SVG Version: 6.00 Build 0)  -->
<svg version="1.1" id="Layer_1" xmlns="http://www.w3.org/2000/svg" xmlns:xlink="http://www.w3.org/1999/xlink" x="0px" y="0px"
	 viewBox="0 0 80 80" style="enable-background:new 0 0 80 80;" xml:space="preserve">
<style type="text/css">
	.st0{clip-path:url(#SVGID_00000180363469571949543880000017754002206032522675_);fill:#F37367;}
	.st1{fill:#F37367;}
	.st2{clip-path:url(#SVGID_00000155146639847329560880000004208967449300435856_);fill:#F37367;}
	.st3{clip-path:url(#SVGID_00000174595839835901352820000002851082652995717030_);fill:#F37367;}
	.st4{clip-path:url(#SVGID_00000133504241776773194670000007623575613520086692_);fill:#F37367;}
	.st5{clip-path:url(#SVGID_00000181791250772374705010000006975467120343404433_);fill:#F37367;}
	.st6{clip-path:url(#SVGID_00000112629490001122596500000003335841698531699331_);fill:#F37367;}
	.st7{clip-path:url(#SVGID_00000060716217572819385570000018261456824762270339_);fill:#F37367;}
	.st8{clip-path:url(#SVGID_00000162347830823581502450000006940469589549208704_);fill:#F37367;}
	.st9{clip-path:url(#SVGID_00000162311056603908217480000010917316337053666184_);fill:#F37367;}
</style>
<g>
	<defs>
		<rect id="SVGID_00000153697114647545129480000003170641584202687151_" x="11.7" y="11.5" width="56.7" height="57"/>
	</defs>
	<clipPath id="SVGID_00000168078885881173685800000009862155029941450662_">
		<use xlink:href="#SVGID_00000153697114647545129480000003170641584202687151_"  style="overflow:visible;"/>
	</clipPath>
	<path style="clip-path:url(#SVGID_00000168078885881173685800000009862155029941450662_);fill:#F37367;" d="M64.6,53.3
		c-0.4,0-0.9,0-1.3,0c-0.3,0-0.5,0.1-0.5,0.4c-0.3,0.8-0.6,1.6-1,2.3c-0.3,0.5,0,1.1,0.6,1.1c0.7,0,1.4,0,2.2,0
		c1.1-0.1,1.9-0.8,1.9-2c0-0.5,0-1,0-1.4c0-0.3-0.1-0.4-0.4-0.4C65.6,53.3,65.1,53.3,64.6,53.3 M66.4,64.7c0-0.4-0.2-0.8-0.5-1.2
		c-1.7-1.7-3.4-3.5-5.2-5.2c-0.2-0.2-0.4-0.2-0.5,0c-0.5,0.7-1.2,1.4-1.8,2c-0.2,0.2-0.2,0.3,0,0.5c0.4,0.4,0.8,0.8,1.2,1.2
		c1.3,1.3,2.6,2.6,3.9,3.9c0.5,0.5,1.2,0.7,1.9,0.4C66,66.2,66.4,65.5,66.4,64.7 M46.2,66.6c0-0.1,0-0.1,0-0.2
		c-0.1-0.4-0.3-0.8-0.4-1.3c-0.1-0.4-0.3-0.6-0.7-0.6c-3-0.4-5.6-1.6-7.9-3.6c-0.5-0.4-0.9-0.9-1.5-1.3c-0.7,2.4-1.4,4.7-2.1,7H46.2
		z M33.9,57.1c-0.6-1.1-1.2-2.1-1.5-3.2c-0.1-0.5-0.4-0.6-0.8-0.6c-5.5,0-11.1,0-16.6,0c-1.4,0-1.4,0-1.4,1.4c0,1.7,0.7,2.4,2.4,2.4
		c5.8,0,11.5,0,17.3,0H33.9z M61.7,48.5c0-7.9-6.3-14.2-14.1-14.2c-7.8,0-14.2,6.4-14.2,14.2c0,7.8,6.3,14.2,14.1,14.3
		C55.3,62.8,61.7,56.4,61.7,48.5 M40,13.4c-6.2,0-12.3,0-18.5,0c-0.3,0-0.5,0-0.8,0c-1,0.2-1.5,1-1.5,2.2c0,10.9,0,21.7,0,32.6
		c0,1.2,0,1.2-1.2,1.3c-0.5,0-0.7-0.1-0.7-0.7c0-8.7,0-17.4,0-26.1c0-0.6,0.2-1.3-0.1-1.6c-0.4-0.4-1.1-0.1-1.7-0.1
		c-1.2,0-2,0.8-2,2c0,9.3,0,18.6,0,27.9c0,0.4,0.1,0.5,0.5,0.5c5.7,0,11.5,0,17.2,0c0.4,0,0.5-0.1,0.4-0.5c-0.3-1.8-0.3-3.6,0.1-5.4
		c1.3-6.1,4.9-10.4,10.8-12.3c5.9-1.9,11.3-0.7,15.8,3.5c4.1,3.8,5.7,8.6,5,14.2c0,0.4,0,0.5,0.4,0.4c0.7,0,1.4,0,2.2,0
		c0.4,0,0.5-0.1,0.5-0.5c0-9.3,0-18.6,0-27.9c0-1.2-0.8-2-2-2c-0.4,0-0.8,0-1.2,0c-0.5-0.1-0.6,0.1-0.6,0.6c0,4.5,0,8.9,0,13.4
		c0,1.3,0,1.2-1.2,1.3c-0.6,0-0.7-0.2-0.7-0.7c0-6.6,0-13.1,0-19.7c0-1.7-0.7-2.4-2.4-2.4C52.3,13.4,46.1,13.4,40,13.4 M11.7,55.8
		V22.3c0-0.1,0.1-0.2,0.1-0.3c0.5-1.6,1.5-2.6,3.2-2.8c0.6-0.1,1.2-0.1,1.8,0c0.5,0,0.6-0.1,0.6-0.6c0-1.1,0-2.1,0-3.2
		c0-1.4,0.7-2.5,1.9-3.3c0.4-0.2,0.9-0.3,1.3-0.5h39c0,0,0.1,0.1,0.1,0.1c2,0.6,3,1.9,3.1,4c0,1,0,2,0,3c0,0.4,0.1,0.5,0.5,0.5
		c0.4,0,0.8,0,1.2,0c2.4,0,4,1.6,4,4c0,2.4,0,4.9,0,7.3c0,8.2,0,16.4,0,24.6c0,2.3-1.5,3.8-3.8,4c-0.1,0-0.3-0.1-0.4,0.1
		c0.1,0.1,0.3,0.3,0.4,0.4c0.9,0.9,1.8,1.8,2.7,2.7c0.9,0.9,1.2,1.9,1,3.1c-0.2,1.4-1.1,2.4-2.4,2.9c-1.4,0.5-2.7,0.1-3.7-0.9
		c-1.7-1.7-3.4-3.5-5.2-5.2c-0.2-0.2-0.4-0.3-0.7-0.1c-2.3,1.5-4.9,2.4-7.7,2.6c-0.9,0.1-0.9,0.1-0.6,1c0.3,1,0.3,1,1.2,1
		c1.3,0,1.2,0,1.3,1.3c0,0.5-0.1,0.6-0.6,0.6c-6.5,0-13.1,0-19.6,0c-0.1,0-0.2,0-0.3,0c-0.2,0-0.3-0.1-0.3-0.3
		c-0.1-1.6-0.1-1.6,1.5-1.6c0.1,0,0.1,0,0.2,0c0.4,0.1,0.6-0.1,0.7-0.5c0.6-2.1,1.2-4.2,1.9-6.3C34,59,34,59,33.2,59
		c-5.8,0-11.7,0-17.5,0c-1.8,0-3.2-0.9-3.8-2.5C11.8,56.3,11.8,56,11.7,55.8"/>
	<path style="clip-path:url(#SVGID_00000168078885881173685800000009862155029941450662_);fill:#F37367;" d="M34.4,22.9
		c0.6,0,1.2,0,1.8,0c0.7,0,1,0.4,1,1c0,0.6,0,1.2,0,1.8c0,0.3,0.1,0.4,0.3,0.5c0.5,0.2,1.1,0.4,1.6,0.7c0.3,0.2,0.4,0.1,0.6-0.1
		c0.4-0.4,0.8-0.8,1.2-1.3c0.5-0.5,1-0.5,1.5,0c0.8,0.8,1.7,1.7,2.5,2.5c0.5,0.5,0.5,1,0,1.5c-0.6,0.6-1.2,1.2-1.8,1.8
		c-0.2,0.2-0.3,0.2-0.5,0c-0.3-0.3-0.5-0.6-0.8-0.8c-0.2-0.2-0.2-0.3,0-0.5c0.3-0.3,0.6-0.6,0.9-0.9c0.2-0.2,0.2-0.3,0-0.5
		c-1.1-1.1-1.1-1.1-2.1-0.1c-0.1,0.1-0.2,0.2-0.4,0.4c-0.5,0.4-0.8,0.5-1.3,0.2c-0.9-0.6-1.8-1-2.8-1.2c-0.6-0.1-0.8-0.5-0.8-1.1
		c0-0.5,0-1,0-1.5c0-0.3-0.1-0.5-0.4-0.5c-1.5,0-1.5-0.1-1.5,1.4c0,0.2,0,0.4,0,0.6c0,0.6-0.3,0.9-0.8,1c-1,0.2-2,0.6-2.8,1.2
		c-0.5,0.3-0.9,0.3-1.3-0.2c-0.4-0.4-0.8-0.7-1.1-1.1c-0.2-0.3-0.4-0.2-0.6,0c-0.2,0.3-0.5,0.5-0.7,0.7c-0.3,0.2-0.2,0.4,0,0.6
		c0.4,0.3,0.7,0.7,1.1,1.1c0.5,0.5,0.5,0.8,0.2,1.4c-0.5,0.9-0.9,1.8-1.2,2.8c-0.1,0.6-0.4,0.8-1.1,0.9c-0.5,0-1,0-1.5,0
		c-0.3,0-0.4,0.1-0.4,0.5c0,1.5,0,1.5,1.4,1.5c0.2,0,0.4,0,0.7,0c0.5,0,0.9,0.3,1,0.8c0.2,1.1,0.6,2,1.2,3c0.3,0.4,0.2,0.9-0.1,1.2
		c-0.4,0.4-0.8,0.8-1.2,1.2c-0.2,0.2-0.2,0.4,0,0.6c0.4,0.3,0.7,0.9,1,0.9c0.4,0,0.7-0.6,1-0.9c0.9-0.9,1-0.9,2.1-0.3
		c0.8,0.5,0.8,0.5,0.4,1.3c0,0.1-0.1,0.2-0.1,0.3c-0.1,0.5-0.4,0.7-0.9,0.3c-0.2-0.2-0.4-0.1-0.6,0.1c-0.4,0.4-0.7,0.7-1.1,1.1
		c-0.7,0.7-1.1,0.7-1.9,0c-0.7-0.7-1.5-1.5-2.2-2.2c-0.7-0.7-0.7-1.1,0-1.8c0.4-0.4,0.8-0.8,1.2-1.2c0.2-0.2,0.2-0.3,0.1-0.5
		c-0.2-0.4-0.5-0.9-0.6-1.3c-0.1-0.6-0.4-0.7-0.9-0.6c-0.5,0-1,0-1.5,0c-0.6,0-0.9-0.4-1-0.9c0-1.3,0-2.5,0-3.8c0-0.6,0.4-0.9,1-1
		c0.6,0,1.2,0,1.8,0c0.3,0,0.5-0.1,0.6-0.4c0.1-0.4,0.2-0.8,0.5-1.2c0.4-0.5,0.2-0.8-0.2-1.2c-0.3-0.3-0.6-0.6-0.9-0.9
		c-0.5-0.6-0.6-1,0-1.6c0.8-0.8,1.6-1.7,2.5-2.5c0.5-0.5,1-0.5,1.5,0c0.4,0.4,0.9,0.9,1.3,1.3c0.2,0.2,0.3,0.2,0.6,0.1
		c0.5-0.3,1-0.5,1.6-0.7c0.3-0.1,0.3-0.2,0.3-0.5c0-0.6,0-1.2,0-1.8c0-0.7,0.4-1.1,1.1-1.1c0,0,0.1,0,0.1,0
		C33.3,22.9,33.8,22.9,34.4,22.9"/>
	<path style="clip-path:url(#SVGID_00000168078885881173685800000009862155029941450662_);fill:#F37367;" d="M40,21
		c-6.1,0-12.2,0-18.2,0c-0.5,0-0.7-0.1-0.7-0.7c0-1.2,0-1.2,1.3-1.2c11.9,0,23.9,0,35.8,0c0.7,0,0.7,0,0.7,0.7c0,1.2,0,1.2-1.2,1.2
		H40z"/>
	<path style="clip-path:url(#SVGID_00000168078885881173685800000009862155029941450662_);fill:#F37367;" d="M57,32.4
		c-0.5,0-1,0-1.5,0c-0.3,0-0.4-0.1-0.4-0.4c0-0.3,0-0.7,0-1c-0.2-1.4-1.3-2.4-2.7-2.4c-1.4-0.1-2.6,0.9-2.9,2.2
		c-0.1,0.6-0.3,0.7-0.8,0.6c-0.1,0-0.1,0-0.2,0c-1.2,0-1.2,0-0.9-1.2c0.1-0.3,0.1-0.6,0.3-0.8c0.4-0.5,0.2-0.9-0.2-1.3
		c-0.8-0.8-0.8-0.8,0-1.6c0.5-0.5,0.6-0.6,1,0c0.5,0.7,1,0.9,1.9,0.4c0.5-0.3,0.7-0.5,0.7-1c0-1.2,0-1.2,1.2-1.2
		c0.6,0,0.8,0.2,0.7,0.7c-0.1,0.9,0.1,1.4,1,1.7c0.6,0.2,0.8,0.2,1.2-0.2c0.8-0.9,0.8-0.8,1.7,0c0.4,0.4,0.5,0.6,0,0.9
		c-0.7,0.5-1,1.1-0.5,2c0.3,0.5,0.4,0.7,1,0.7c1.2,0,1.2,0,1.3,1.2c0,0.5-0.1,0.7-0.7,0.7C57.8,32.4,57.4,32.4,57,32.4"/>
	<path style="clip-path:url(#SVGID_00000168078885881173685800000009862155029941450662_);fill:#F37367;" d="M34.6,29.5
		c1.9,0.1,3.6,0.9,5,2.6c0.2,0.3,0.3,0.5-0.1,0.7c-0.4,0.2-0.7,0.6-1.1,0.7c-0.4,0.1-0.6-0.5-0.9-0.8c-2-1.8-5.1-1.6-6.8,0.5
		c-1.7,2.1-1.3,5.2,0.9,6.8c0.4,0.3,0.4,0.5,0.2,0.8c0,0-0.1,0.1-0.1,0.1C31,42.1,31,42.1,30,41.2c-2.1-1.8-2.8-4.7-1.8-7.4
		C29.1,31.3,31.6,29.5,34.6,29.5"/>
	<path style="clip-path:url(#SVGID_00000168078885881173685800000009862155029941450662_);fill:#F37367;" d="M34.3,33.3
		c0.9,0,1.7,0.4,2.3,1.1c0.2,0.2,0.2,0.4-0.1,0.5c-0.2,0.1-0.5,0.3-0.7,0.4c-0.3,0.2-0.6,0.4-1,0c-0.3-0.3-0.8-0.2-1.1,0.1
		c-0.3,0.3-0.4,0.8-0.1,1.2c0.3,0.3,0.2,0.6,0,0.9c-0.1,0.2-0.2,0.3-0.3,0.5c-0.4,0.7-0.5,0.7-1,0.1c-0.8-0.8-1-2.1-0.5-3.1
		C32.3,33.9,33.1,33.4,34.3,33.3"/>
	<path style="clip-path:url(#SVGID_00000168078885881173685800000009862155029941450662_);fill:#F37367;" d="M25.8,17.2
		c-0.9,0-0.9,0-0.9-1c0-0.9,0-0.9,0.9-0.9c1,0,1,0,1,1C26.8,17.2,26.8,17.2,25.8,17.2"/>
	<path style="clip-path:url(#SVGID_00000168078885881173685800000009862155029941450662_);fill:#F37367;" d="M22,17.2
		c-0.9,0-0.9,0-0.9-0.9c0-1,0-1,1-1c0.9,0,0.9,0,0.9,0.9C23,17.2,23,17.2,22,17.2"/>
	<path style="clip-path:url(#SVGID_00000168078885881173685800000009862155029941450662_);fill:#F37367;" d="M29.6,17.2
		c-1,0-1,0-1-1c0-0.9,0-0.9,0.9-0.9c1,0,1,0,1,1C30.6,17.2,30.6,17.2,29.6,17.2"/>
	<path style="clip-path:url(#SVGID_00000168078885881173685800000009862155029941450662_);fill:#F37367;" d="M37.2,48.5
		c0,5.7,4.6,10.4,10.4,10.5c5.7,0,10.4-4.7,10.4-10.4c0-5.8-4.6-10.5-10.3-10.5C41.8,38.1,37.2,42.7,37.2,48.5 M59.8,48.6
		c0,6.8-5.5,12.4-12.3,12.3c-6.8,0-12.3-5.6-12.3-12.4c0-6.8,5.5-12.3,12.3-12.3C54.4,36.2,59.8,41.7,59.8,48.6"/>
	<path style="clip-path:url(#SVGID_00000168078885881173685800000009862155029941450662_);fill:#F37367;" d="M52.3,47.9L52.3,47.9
		c0-0.5,0-1,0-1.5c-0.1-2.4-2-4.3-4.3-4.5c-2.3-0.2-4.4,1.3-5,3.6c-0.2,1-0.1,2.1-0.1,3.1c0,1.7,0.1,1.8,1.8,1.8
		c0.7,0,1,0.4,1.1,1.1c0,0.8,0,1.5,0,2.3c0,0.3,0.1,0.5,0.4,0.5c1,0,2,0,2.9,0c0.3,0,0.4-0.1,0.4-0.4c0-0.7,0-1.4,0-2.2
		c0-0.9,0.3-1.2,1.2-1.2c0.2,0,0.4,0,0.7,0c0.6,0,1-0.4,1-1C52.3,48.9,52.3,48.4,52.3,47.9 M54.2,46.8c0.4-0.3,0.8-0.5,1.1-0.7
		c0.2-0.1,0.3-0.1,0.4,0.1c0,0,0,0,0,0c0.3,0.4,0.8,0.8,0.7,1.3c-0.1,0.4-0.7,0.6-1.1,0.8c-0.1,0.1-0.2,0.2-0.4,0.2
		c-0.5,0.3-0.8,0.7-0.9,1.4c-0.1,1.2-1,2.2-2.3,2.4c-0.2,0-0.4-0.1-0.5,0.2c0,0.3,0.2,0.4,0.4,0.5c0.6,0.4,1.2,0.8,1.8,1.2
		c0.3,0.2,0.3,0.3,0.1,0.5c-0.1,0.1-0.1,0.2-0.2,0.2c-0.2,0.3-0.4,0.9-0.7,0.9c-0.3,0-0.7-0.3-1-0.6c-0.2-0.2-0.3-0.2-0.4,0.2
		c-0.1,0.4-0.4,0.7-0.9,0.7c-1.9,0-3.8,0-5.6,0c-0.6,0-0.9-0.4-1-1c-0.4,0.2-0.7,0.4-1,0.7c-0.2,0.2-0.3,0.1-0.5-0.1
		c-0.9-1.2-0.9-1.2,0.3-2.1c0.3-0.2,0.7-0.5,1-0.7c0.2-0.1,0.2-0.2,0.2-0.4c0-0.2-0.2-0.2-0.3-0.2C41.9,52,41,51.1,41,49.4
		c0-0.3-0.1-0.5-0.4-0.6c-0.6-0.4-1.2-0.8-1.8-1.2c-0.3-0.2-0.3-0.3-0.1-0.6c0,0,0.1-0.1,0.1-0.1c0.2-0.3,0.4-0.9,0.7-1
		c0.3-0.1,0.7,0.4,1,0.6c0.5,0.3,0.3-0.2,0.4-0.3c0.2-2.3,1.2-4,3.2-5.2c4.2-2.6,9.7,0.3,10,5.3C54.2,46.4,54.2,46.5,54.2,46.8"/>
	<path style="clip-path:url(#SVGID_00000168078885881173685800000009862155029941450662_);fill:#F37367;" d="M45.7,46.7
		c0.9,0,0.9,0,0.9,0.9c0,1,0,1-1,1c-0.9,0-0.9,0-0.9-0.9C44.7,46.7,44.7,46.7,45.7,46.7"/>
	<path style="clip-path:url(#SVGID_00000168078885881173685800000009862155029941450662_);fill:#F37367;" d="M49.4,46.7
		c0.9,0,0.9,0,0.9,1c0,0.9,0,0.9-0.9,0.9c-1,0-1,0-1-1C48.5,46.7,48.5,46.7,49.4,46.7"/>
</g>
</svg>
