<?xml version="1.0" encoding="utf-8"?>
<!-- Generator: Adobe Illustrator 25.4.1, SVG Export Plug-In . SVG Version: 6.00 Build 0)  -->
<svg version="1.1" id="Layer_1" xmlns="http://www.w3.org/2000/svg" xmlns:xlink="http://www.w3.org/1999/xlink" x="0px" y="0px"
	 viewBox="0 0 105 105" style="enable-background:new 0 0 105 105;" xml:space="preserve">
<style type="text/css">
	.st0{fill:#FFFFFF;}
	.st1{fill:#A0A5B6;}
	.st2{clip-path:url(#SVGID_00000070087945178722626710000000944344221973229209_);fill:#F37367;}
	.st3{clip-path:url(#SVGID_00000075860052730233451590000007180761610509624494_);fill:#A0A5B6;}
	.st4{fill:#F37367;}
</style>
<g>
	<path class="st0" d="M52.5,91.8H7.6c-2,0-2,0-2,2.1c0,0.8-0.1,1.6,0.4,2.4c0.7,1.2,1.8,1.6,3.2,1.6c28.9,0,57.9,0,86.8,0
		c0.2,0,0.4,0,0.6,0c1.6-0.1,2.8-1.2,2.9-2.8c0.1-0.7,0-1.4,0-2c0.1-1-0.2-1.2-1.2-1.2C83,91.8,67.8,91.8,52.5,91.8 M52.4,88.8
		c15,0,29.9,0,44.9,0c1.1,0,1.1,0,0.6-0.9c-1.7-3.1-3.5-6.2-5.2-9.3c-0.3-0.5-0.6-0.7-1.1-0.7c-26.1,0-52.1,0-78.2,0
		c-0.6,0-0.9,0.2-1.2,0.7c-1.6,3-3.3,6-5,9c-0.6,1.1-0.6,1.1,0.6,1.1C22.7,88.8,37.6,88.8,52.4,88.8 M2.5,89.8
		c2.5-4.5,5-8.9,7.4-13.4c0.3-0.5,0.2-0.9,0.2-1.4c0-16.8,0-33.5,0-50.3c0-2.1,0.6-4,2.3-5.4c1.2-1,2.6-1.5,4.1-1.6
		c2.1,0,4.2,0,6.3,0c1.1,0,1.7,0.6,1.7,1.6c0,0.9-0.7,1.5-1.8,1.5c-2,0-4,0-6,0c-2.3,0-3.6,1.4-3.6,3.7c0,16.5,0,33,0,49.5
		c0,0.7,0.2,0.9,0.9,0.9c25.6,0,51.2,0,76.7,0c0.7,0,0.9-0.2,0.9-0.9c0-16.5,0-33.1,0-49.6c0-2.2-1.4-3.5-3.5-3.6c-2,0-4,0-6.1,0
		c-1.2,0-1.9-0.7-1.8-1.7c0.1-0.8,0.7-1.4,1.6-1.4c2.2,0,4.4-0.1,6.6,0c3.2,0.1,5.7,2.6,6,5.7c0.1,0.5,0.1,1.1,0.1,1.7
		c0,16.6,0,33.1,0,49.7c0,0.8,0.2,1.5,0.6,2.2c2.2,3.9,4.4,7.9,6.6,11.8c0.4,0.7,0.6,1.4,0.6,2.1c0,1.2,0,2.5,0,3.7
		c0,3.3-2.4,5.8-5.7,6.1c-0.5,0-1,0-1.5,0c-28.5,0-57,0-85.4,0c-4.4,0-5.8-1-7.4-5V89.8z"/>
	<path class="st0" d="M51,9c-0.2,0.1-0.3,0.1-0.4,0.2c-5.2,3.9-11,5.6-17.5,4.8c-0.7-0.1-0.9,0.2-0.9,0.8c0,3.8,0,7.6,0,11.3
		c0.1,11.3,4.7,20.4,13.6,27.2c1.5,1.2,3.2,2.2,5.1,3.1c0-1.7,0-3.3,0-4.9c0-2.2,0-4.4,0-6.6c0-0.9,0.7-1.6,1.5-1.6
		c0.8,0,1.5,0.6,1.5,1.6c0,0.3,0,0.5,0,0.8c0,3.3,0,6.6,0,10c0,0.8,0.2,0.8,0.8,0.5c10.5-5.7,16.5-14.5,17.8-26.3
		c0.5-4.9,0.1-9.8,0.2-14.7c0-0.9-0.2-1.1-1.1-1c-6.2,0.7-11.7-0.9-16.7-4.5c-0.2-0.2-0.4-0.5-0.9-0.4c0,3.5,0,7,0,10.5
		c0,0.4,0,0.7,0,1.1c-0.1,0.9-0.7,1.5-1.5,1.5c-0.8,0-1.4-0.6-1.5-1.5c0-0.3,0-0.7,0-1C51,16.3,51,12.7,51,9 M75.8,21.2
		c-0.1,3.3,0.3,7.1-0.4,10.9c-2.4,13.2-9.7,22.5-21.9,28.1c-0.7,0.3-1.3,0.3-2,0c-12.2-5.6-19.5-15-21.8-28.3
		c-0.3-1.6-0.4-3.3-0.4-5c0-4.8,0-9.5,0-14.3c0-1.8,0.8-2.3,2.5-1.8c4.3,1.2,8.4,0.5,12.4-1.3c2.6-1.1,4.9-2.8,7.1-4.6
		c1-0.9,1.5-0.9,2.5,0c3.5,3,7.4,5.3,12,6.2c2.6,0.5,5.2,0.5,7.7-0.3c1.4-0.4,2.3,0.2,2.3,1.7C75.8,15.1,75.8,17.9,75.8,21.2"/>
	<path class="st0" d="M52.5,69.1c-10.5,0-21,0-31.4,0c-1.8,0-2.2-0.4-2.2-2.2c0-12.6,0-25.3,0-37.9c0-1.8,0.4-2.3,2.2-2.3
		c1.2,0,2.5,0,3.7,0.1c0.9,0,1.5,0.7,1.5,1.5c0,0.8-0.6,1.4-1.4,1.5c-0.6,0-1.2,0.1-1.8,0c-0.9-0.1-1.3,0.1-1.2,1.1
		c0.1,1,0,2.1,0,3.1c0,10.3,0,20.6,0,30.9c0,0.8,0.2,1.1,1.1,1.1c19.7,0,39.4,0,59.2,0c0.9,0,1.1-0.3,1.1-1.1c0-11.4,0-22.8,0-34.2
		c0-0.9-0.2-1.2-1.1-1c-0.7,0.1-1.4,0.1-2.1-0.1c-0.8-0.2-1.3-0.7-1.2-1.5c0.1-0.8,0.5-1.4,1.4-1.4c1.3-0.1,2.7-0.1,4-0.1
		c1.7,0.1,2,0.5,2,2.2c0,6.1,0,12.2,0,18.3c0,6.6,0,13.2,0,19.8c0,1.8-0.4,2.2-2.2,2.2C73.5,69.1,63,69.1,52.5,69.1"/>
	<path class="st0" d="M51.5,35c0.4-0.2,0.4-0.5,0.6-0.8c2-3.6,4-7.2,6-10.8c0.5-1,1.2-1.3,2-1c1,0.3,1.3,1.4,0.7,2.4
		c-1.6,3-3.3,6-4.9,9c-0.8,1.5-1.6,3-2.5,4.5c-0.8,1.4-2,1.5-3,0.2c-2-2.5-4-5.1-6-7.6c-0.7-0.9-0.7-1.8,0.1-2.4
		c0.7-0.6,1.5-0.4,2.3,0.5C48.4,31,49.9,33,51.5,35"/>
</g>
</svg>
