<?xml version="1.0" encoding="utf-8"?>
<!-- Generator: Adobe Illustrator 25.4.1, SVG Export Plug-In . SVG Version: 6.00 Build 0)  -->
<svg version="1.1" id="Layer_1" xmlns="http://www.w3.org/2000/svg" xmlns:xlink="http://www.w3.org/1999/xlink" x="0px" y="0px"
	 viewBox="0 0 80 80" style="enable-background:new 0 0 80 80;" xml:space="preserve">
<style type="text/css">
	.st0{clip-path:url(#SVGID_00000005265084045746890810000009621877333999315612_);fill:#F37367;}
	.st1{fill:#F37367;}
	.st2{clip-path:url(#SVGID_00000072255110454483863700000016853296143527050652_);fill:#F37367;}
	.st3{clip-path:url(#SVGID_00000164474034361952403000000008641186397049304469_);fill:#F37367;}
	.st4{clip-path:url(#SVGID_00000170980897935099503400000000008459323983223473_);fill:#F37367;}
	.st5{clip-path:url(#SVGID_00000096031288007887542370000013405085911257865098_);fill:#F37367;}
	.st6{clip-path:url(#SVGID_00000115505643423755855120000002634831413949902505_);fill:#F37367;}
	.st7{clip-path:url(#SVGID_00000025423981547875876850000000529551385319834760_);fill:#F37367;}
	.st8{clip-path:url(#SVGID_00000182504052539430062590000001899028929315613322_);fill:#F37367;}
	.st9{clip-path:url(#SVGID_00000119817019256552953340000002596819983320524477_);fill:#F37367;}
</style>
<g>
	<defs>
		<rect id="SVGID_00000088091331762720368170000010290988266823051436_" x="11.2" y="11.5" width="57.5" height="57"/>
	</defs>
	<clipPath id="SVGID_00000055667308142265243910000011786656742472335745_">
		<use xlink:href="#SVGID_00000088091331762720368170000010290988266823051436_"  style="overflow:visible;"/>
	</clipPath>
	<path style="clip-path:url(#SVGID_00000055667308142265243910000011786656742472335745_);fill:#F37367;" d="M31.4,60.1
		c0,0.3,0.1,0.8,0.2,1.3c0.7,2.9,3,4.9,6,5.2c2.8,0.3,6.1-1.4,7.2-3.9c0.3-0.6,0.7-0.9,1.4-0.9c1.5,0,3,0,4.5,0
		c0.3,0,0.6-0.1,0.8-0.3c0.4-0.4,0.8-0.8,1.2-1.2c0.5-0.5,1-0.5,1.5,0c0.4,0.3,0.7,0.7,1.1,1.1c0.7,0.7,1.4,0.7,2.1,0
		c0.4-0.4,0.7-0.7,1.1-1.1c0.5-0.4,1-0.5,1.4,0c0.4,0.4,0.9,0.8,1.3,1.3c0.5,0.5,1.2,0.5,1.7-0.2c0.3-0.5,0.9-0.9,0.8-1.4
		c0-0.5-0.6-0.9-0.8-1.4c-0.2-0.4-0.5-0.5-0.9-0.5c-5.3,0-10.6,0-15.9,0c-0.5,0-0.9-0.1-1.2-0.7c-0.8-1.8-2.3-2.9-4.1-3.6
		C36.1,52.1,31.4,55.2,31.4,60.1 M32.5,66.5c-0.1-0.1-0.1-0.1-0.1-0.2c-3.5-3-4-8.2-1-11.8c0.2-0.3,0.1-0.4-0.1-0.5
		c-0.9-0.5-1.6-1.2-2.1-2.1c-1.1-2-0.9-4.3,0.6-6.1c0.8-0.9,1.4-1.9,1.5-3.1c0.1-1.9,0.3-3.8-0.1-5.7c-0.5-3-3.2-4.9-6.3-4.6
		c-2.8,0.3-5.1,2.7-5.1,5.7c0,1.2,0,2.4,0,3.6c0,1.5,0.5,2.8,1.4,3.9c2.6,3.1,1.6,7.3-2.2,8.8c-1.3,0.5-2.5,1-3.8,1.5
		c-1.5,0.6-2.1,1.5-2.1,3.1c0,2.3,0,4.7,0,7c0,0.5,0.2,0.6,0.6,0.6c6.1,0,12.1,0,18.2,0C32.1,66.6,32.3,66.6,32.5,66.5 M11.2,58
		c0-0.1,0.1-0.2,0.1-0.3c0.4-1.7,1.4-2.8,3-3.5c1.3-0.5,2.6-1,4-1.6c2.6-1,3.3-3.7,1.5-5.8c-1.2-1.5-1.9-3.2-1.9-5.1
		c0-1.6-0.2-3.3,0.1-4.9c0.6-3.6,3.6-6.2,7.2-6.4c3.7-0.1,6.9,2.3,7.8,5.8c0.2,0.6,0.3,1.2,0.2,1.8c0,1.3,0,2.5,0,3.8
		c0,1.9-0.7,3.6-1.9,5c-0.8,1-1.1,2.1-0.8,3.3c0.4,1.3,1.3,2,2.5,2.5c0.2,0.1,0.4,0,0.5-0.1c4.4-2.7,10.3-0.7,12.6,3.2
		c0.2,0.3,0.5,0.3,0.7,0.3c5.2,0,10.4,0,15.6,0c0.7,0,1.2,0.2,1.6,0.8c0.5,0.8,1,1.5,1.5,2.3c0.3,0.5,0.4,0.9,0,1.4
		c-0.6,0.8-1.2,1.7-1.7,2.5c-0.3,0.4-0.6,0.6-1.1,0.6c-0.1,0-0.2,0-0.3,0c-1.2,0.2-2.3-0.1-3-1.2c-0.2-0.3-0.4-0.2-0.6,0
		c-0.7,0.8-1.4,1.3-2.5,1.2c-1,0-1.8-0.2-2.4-1c-0.3-0.5-0.6-0.5-1,0c-0.6,0.9-1.4,1.1-2.5,1c-1.2-0.1-2.4,0-3.6,0
		c-0.3,0-0.5,0.1-0.6,0.3c-1.4,2.3-3.5,3.6-6.1,4.2c-0.7,0.2-1.4,0.2-2.2,0.2c-8.5,0-16.9,0-25.4,0c-0.6,0-1-0.2-1.3-0.7V58z"/>
	<path style="clip-path:url(#SVGID_00000055667308142265243910000011786656742472335745_);fill:#F37367;" d="M64.7,11.5
		c0.3,0.1,0.6,0.2,0.8,0.3c1.9,0.7,3.2,2.5,3.2,4.6c0,4.5,0,8.9,0,13.4c0,6.5,0,12.9,0,19.4c0,3.1-2,5.1-5.1,5.1
		c-5.1,0-10.2,0-15.3,0c-0.5,0-0.7-0.1-0.6-0.6c0-1.3,0-1.3,1.4-1.3c4.9,0,9.7,0,14.6,0c2.1,0,3.2-1.1,3.2-3.2c0-10.8,0-21.7,0-32.6
		c0-2.1-1.2-3.2-3.2-3.2c-15.7,0-31.5,0-47.2,0c-2.1,0-3.2,1.1-3.2,3.2c0,10.8,0,21.6,0,32.4c0,0.9,0.1,1.7,0.8,2.4
		c0.2,0.2,0.1,0.3,0,0.4c-0.2,0.2-0.3,0.4-0.5,0.5c-0.6,0.7-0.6,0.7-1.3-0.1c-0.5-0.6-0.7-1.4-1-2.1V15.5c0.3-1.1,0.8-2.1,1.7-2.9
		c0.7-0.6,1.5-0.9,2.4-1.1H64.7z"/>
	<path style="clip-path:url(#SVGID_00000055667308142265243910000011786656742472335745_);fill:#F37367;" d="M40,19.1
		c7.8,0,15.5,0,23.3,0c0.5,0,0.8,0.1,0.7,0.7C63.9,21,64,21,62.7,21c-15.3,0-30.6,0-45.9,0c-0.9,0-0.8,0.1-0.8-0.8
		c0-1.1,0-1.1,1.2-1.1H40z"/>
	<path style="clip-path:url(#SVGID_00000055667308142265243910000011786656742472335745_);fill:#F37367;" d="M40,36.2
		c2.6,0,4.8-2.2,4.8-4.8c0-2.6-2.2-4.7-4.8-4.7c-2.7,0-4.8,2.2-4.8,4.8C35.2,34.1,37.4,36.2,40,36.2 M40,24.8c3.7,0,6.7,3,6.7,6.7
		c0,3.7-3.1,6.6-6.8,6.6c-3.7,0-6.7-3-6.7-6.6C33.3,27.8,36.3,24.8,40,24.8"/>
	<path style="clip-path:url(#SVGID_00000055667308142265243910000011786656742472335745_);fill:#F37367;" d="M57.2,26.7
		c-2.6,0-4.8,2.1-4.8,4.7c0,2.6,2.2,4.8,4.8,4.8c2.6,0,4.8-2.2,4.7-4.8C62,28.8,59.9,26.7,57.2,26.7 M64,31.4c0,3.7-3,6.7-6.7,6.7
		c-3.7,0-6.7-3-6.7-6.7c0-3.6,3-6.6,6.7-6.6C60.9,24.8,64,27.8,64,31.4"/>
	<path style="clip-path:url(#SVGID_00000055667308142265243910000011786656742472335745_);fill:#F37367;" d="M22.8,24.8
		c2,0,3.8,0.9,5.2,2.6c0.2,0.3,0.3,0.5-0.1,0.7c-0.4,0.2-0.7,0.6-1.1,0.7c-0.4,0.1-0.6-0.5-0.9-0.8c-1.6-1.3-3.3-1.6-5.2-0.8
		c-1.9,0.8-2.8,2.4-2.8,4.4c0,0.5-0.1,0.7-0.7,0.8C16,32.6,16,32.6,16,31.3C16.1,27.7,19,24.9,22.8,24.8"/>
	<path style="clip-path:url(#SVGID_00000055667308142265243910000011786656742472335745_);fill:#F37367;" d="M40,41.9
		c-1.4,0-2.8,0-4.3,0c-0.4,0-0.5-0.1-0.5-0.5c0-1.4,0-1.4,1.4-1.4c2.6,0,5.1,0,7.7,0c0.5,0,0.6,0.1,0.6,0.6c0,1.3,0,1.3-1.4,1.3
		C42.3,41.9,41.1,41.9,40,41.9"/>
	<path style="clip-path:url(#SVGID_00000055667308142265243910000011786656742472335745_);fill:#F37367;" d="M40,45.7
		c-1.4,0-2.9,0-4.3,0c-0.4,0-0.5-0.1-0.5-0.5c0-1.4,0-1.4,1.4-1.4c2.6,0,5.1,0,7.7,0c0.4,0,0.5,0.1,0.5,0.5c0,1.4,0,1.4-1.4,1.4
		C42.3,45.7,41.1,45.7,40,45.7"/>
	<path style="clip-path:url(#SVGID_00000055667308142265243910000011786656742472335745_);fill:#F37367;" d="M57.2,41.9
		c-1.4,0-2.9,0-4.3,0c-0.4,0-0.5-0.1-0.5-0.5c0-1.4,0-1.4,1.4-1.4c2.5,0,5.1,0,7.6,0c0.4,0,0.5,0.1,0.5,0.5c0,1.4,0,1.4-1.4,1.4
		C59.5,41.9,58.4,41.9,57.2,41.9"/>
	<path style="clip-path:url(#SVGID_00000055667308142265243910000011786656742472335745_);fill:#F37367;" d="M57.2,45.7
		c-1.4,0-2.9,0-4.3,0c-0.4,0-0.5-0.1-0.5-0.5c0-1.4,0-1.4,1.4-1.4c2.5,0,5.1,0,7.6,0c0.4,0,0.5,0.1,0.5,0.5c0,1.4,0,1.4-1.4,1.4
		C59.5,45.7,58.4,45.7,57.2,45.7"/>
	<path style="clip-path:url(#SVGID_00000055667308142265243910000011786656742472335745_);fill:#F37367;" d="M17.1,15.3
		c0.9,0,0.9,0,0.9,0.9c0,1,0,1-1,1c-0.9,0-0.9,0-0.9-0.9C16,15.3,16,15.3,17.1,15.3"/>
	<path style="clip-path:url(#SVGID_00000055667308142265243910000011786656742472335745_);fill:#F37367;" d="M21.8,16.2c0,1,0,1-1,1
		c-1,0-1,0-1-1c0-0.9,0-0.9,0.9-0.9h0.1C21.8,15.3,21.8,15.3,21.8,16.2"/>
	<path style="clip-path:url(#SVGID_00000055667308142265243910000011786656742472335745_);fill:#F37367;" d="M24.7,15.3
		c0.9,0,0.9,0,0.9,0.9c0,1,0,1-1,1c-0.9,0-0.9,0-0.9-0.9v-0.1C23.7,15.3,23.7,15.3,24.7,15.3"/>
	<path style="clip-path:url(#SVGID_00000055667308142265243910000011786656742472335745_);fill:#F37367;" d="M36.1,59
		c-0.5,0-1,0.4-0.9,1c0,0.5,0.5,0.9,0.9,0.9c0.5,0,1-0.4,1-0.9C37.1,59.4,36.7,59,36.1,59 M39,59.9c0,1.6-1.3,2.8-2.8,2.9
		c-1.6,0-2.9-1.3-2.9-2.9c0-1.6,1.3-2.8,2.9-2.8C37.8,57.1,39,58.4,39,59.9"/>
	<path style="clip-path:url(#SVGID_00000055667308142265243910000011786656742472335745_);fill:#F37367;" d="M39,34.3
		c-0.3,0-0.5-0.1-0.7-0.3c-0.6-0.6-1.1-1.1-1.7-1.6c-0.2-0.2-0.2-0.3,0-0.5c1-1.2,1-1.2,2.1-0.2c0.2,0.2,0.4,0.2,0.6,0
		c0.8-0.8,1.7-1.6,2.5-2.5c0.3-0.3,0.5-0.3,0.8,0c0.2,0.2,0.4,0.4,0.6,0.6c0.3,0.2,0.3,0.4,0,0.7c-1.2,1.1-2.3,2.2-3.4,3.4
		C39.6,34.1,39.4,34.3,39,34.3"/>
	<path style="clip-path:url(#SVGID_00000055667308142265243910000011786656742472335745_);fill:#F37367;" d="M56.3,34.3
		c-0.3,0-0.5-0.2-0.7-0.4c-0.5-0.5-1.1-1.1-1.6-1.6c-0.2-0.2-0.2-0.3,0-0.5c0.4-0.3,0.6-0.9,1.1-1c0.5-0.1,0.7,0.5,1.1,0.8
		c0.2,0.2,0.4,0.1,0.5,0c0.9-0.9,1.7-1.7,2.6-2.6c0.2-0.2,0.4-0.3,0.6,0c0.3,0.4,0.9,0.6,0.9,1.1c0,0.4-0.6,0.7-0.9,1
		c-0.9,0.9-1.8,1.8-2.7,2.6C56.9,34.1,56.6,34.3,56.3,34.3"/>
</g>
</svg>
