<?xml version="1.0" encoding="utf-8"?>
<!-- Generator: Adobe Illustrator 25.4.1, SVG Export Plug-In . SVG Version: 6.00 Build 0)  -->
<svg version="1.1" id="Layer_1" xmlns="http://www.w3.org/2000/svg" xmlns:xlink="http://www.w3.org/1999/xlink" x="0px" y="0px"
	 viewBox="0 0 80 80" style="enable-background:new 0 0 80 80;" xml:space="preserve">
<style type="text/css">
	.st0{clip-path:url(#SVGID_00000000921184826037586320000007846102090643910539_);fill:#F37367;}
	.st1{fill:#F37367;}
	.st2{clip-path:url(#SVGID_00000124154553054331991800000013304536197288780462_);fill:#F37367;}
	.st3{clip-path:url(#SVGID_00000114064372565962878360000003454543423139896203_);fill:#F37367;}
	.st4{clip-path:url(#SVGID_00000015348233495637303460000003780356718567117735_);fill:#F37367;}
	.st5{clip-path:url(#SVGID_00000098906822049718826150000009152176694414517160_);fill:#F37367;}
	.st6{clip-path:url(#SVGID_00000115502254381166332110000003030088786752772250_);fill:#F37367;}
	.st7{clip-path:url(#SVGID_00000026859943226614810070000003915257212528052386_);fill:#F37367;}
	.st8{clip-path:url(#SVGID_00000117671201268491780210000016353118051407886750_);fill:#F37367;}
	.st9{clip-path:url(#SVGID_00000049936520268989532160000012092396834044408497_);fill:#F37367;}
</style>
<g>
	<defs>
		<rect id="SVGID_00000031889207535679068210000005432997241845948592_" x="11.7" y="11.5" width="56.6" height="57"/>
	</defs>
	<clipPath id="SVGID_00000123418937545747772320000015295959597601036938_">
		<use xlink:href="#SVGID_00000031889207535679068210000005432997241845948592_"  style="overflow:visible;"/>
	</clipPath>
	<path style="clip-path:url(#SVGID_00000123418937545747772320000015295959597601036938_);fill:#F37367;" d="M35.3,48.4L35.3,48.4
		c0-0.6,0-1.2-0.1-1.8c-0.5-4.4-3.9-7.8-8.4-8.4c-4.1-0.5-8.2,2-9.8,6c-0.6,1.6-0.6,3.2-0.6,4.9c0,1.4,0,1.4,1.4,1.4
		c0.4,0,0.5-0.1,0.5-0.5c0-0.9,0-1.7,0-2.6c0.1-3.8,2.9-6.9,6.8-7.3c3.6-0.4,7.1,2,8.1,5.7c0.3,1.1,0.2,2.2,0.2,3.4
		c0,1.4,0,1.4,1.4,1.4c0,0,0.1,0,0.1,0c0.3,0,0.4-0.1,0.4-0.4C35.3,49.5,35.3,48.9,35.3,48.4 M25.8,50.4c1.7,0,3.5,0,5.2,0
		c0.4,0,0.5-0.1,0.5-0.5c0-0.9,0-1.7,0-2.6c-0.1-2.9-2.3-5.3-5.2-5.5c-2.8-0.2-5.4,1.8-6,4.6c-0.2,1.1-0.1,2.3-0.1,3.4
		c0,0.4,0.1,0.5,0.5,0.5C22.4,50.4,24.1,50.4,25.8,50.4 M25.8,52.4c-3.6,0-7.1,0-10.7,0c-1.1,0-1.5,0.5-1.6,1.6c0,3.7,0,7.4,0,11.1
		c0,1.1,0.5,1.6,1.6,1.6c7.1,0,14.3,0,21.4,0c1.1,0,1.6-0.5,1.6-1.6c0-3.7,0-7.3,0-11c0-1.2-0.5-1.6-1.6-1.6
		C33,52.4,29.4,52.4,25.8,52.4 M11.7,53c0.4-1.1,0.9-2,2.1-2.3c0.7-0.2,0.8-0.5,0.8-1.2c-0.1-1.9,0-3.8,0.6-5.6
		c1.7-4.9,6.6-8.2,11.7-7.7c5.2,0.5,9.4,4.5,10.2,9.6c0.2,1.3,0.1,2.7,0.1,4.1c0,0.4,0.1,0.5,0.5,0.6c1.4,0.4,2.4,1.6,2.4,3
		c0,3.9,0,7.8,0,11.7c0,1.8-1.4,3.2-3.2,3.2c-7.3,0-14.7,0-22,0c-1.4,0-2.5-0.9-3-2.2c0-0.1,0-0.3-0.2-0.4V53z"/>
	<path style="clip-path:url(#SVGID_00000123418937545747772320000015295959597601036938_);fill:#F37367;" d="M64.3,11.5
		c0.3,0.1,0.6,0.2,0.8,0.3c1.9,0.7,3.1,2.4,3.2,4.5c0,3.9,0,7.7,0,11.6c0,8.7,0,17.5,0,26.2c0,2.4-1.4,4.2-3.6,4.8
		C64.2,59,63.8,59,63.3,59c-6.9,0-13.9,0-20.8,0c-0.5,0-0.6-0.1-0.6-0.6c0-1.3,0-1.3,1.3-1.3c6.7,0,13.4,0,20.1,0
		c0.8,0,1.5-0.1,2.1-0.6c0.8-0.6,1.1-1.4,1.1-2.4c0-3.8,0-7.6,0-11.4c0-8.7,0-17.3,0-26c0-2.1-1.1-3.3-3.2-3.3
		c-12.3,0-24.6,0-36.9,0c-2.1,0-3.2,1.1-3.2,3.3c0,5.7,0,11.3,0,17c0,0.6-0.2,0.7-0.7,0.7c-1.2,0-1.2,0-1.2-1.2
		c0-5.3,0.1-10.6,0-15.9c-0.1-2.9,1.2-5,4.1-5.7H64.3z"/>
	<path style="clip-path:url(#SVGID_00000123418937545747772320000015295959597601036938_);fill:#F37367;" d="M44.7,23.8
		c0.9,0,1.8,0,2.7,0c0.8,0,1.1,0.4,1.1,1.1c0,0.6,0,1.3,0,1.9c0,0.3,0,0.5,0.4,0.6c0.5,0.1,1,0.6,1.4,0.5c0.4-0.1,0.8-0.7,1.2-1.1
		c1.2-1.2,1.3-1.2,2.6,0c1.1,1.1,2.1,2.1,3.2,3.2c0.6,0.6,0.6,1.1,0,1.7c-0.4,0.4-0.9,0.9-1.3,1.3c-0.2,0.2-0.2,0.3-0.1,0.6
		c0.1,0.2,0.2,0.3,0.2,0.5c0.4,1,0.4,1,1.5,1c0.4,0,0.9,0,1.3,0c0.6,0,1,0.4,1,1c0,1.8,0,3.7,0,5.5c0,0.7-0.3,1.1-1.1,1.1
		c-0.7,0-1.3,0-2,0c-0.3,0-0.4,0.1-0.5,0.4c-0.1,0.5-0.7,1-0.5,1.5c0.2,0.4,0.7,0.8,1,1.1c1.2,1.2,1.2,1.4,0,2.6
		c-1.1,1.1-2.1,2.2-3.2,3.2c-0.6,0.6-1.1,0.6-1.7,0c-0.4-0.4-0.9-0.9-1.3-1.3c-0.2-0.2-0.3-0.2-0.6-0.1c-0.2,0.1-0.4,0.2-0.6,0.3
		c-0.9,0.4-0.9,0.4-0.9,1.3c0,0.5,0,1,0,1.4c0,0.6-0.4,1-1,1c-1.8,0-3.7,0-5.5,0c-0.6,0-1-0.4-1-1c0-0.6,0-1.3,0-1.9
		c0-0.4-0.1-0.6-0.5-0.7c-0.1,0-0.2-0.1-0.4-0.1c-0.4-0.1-0.6-0.3-0.3-0.7c0.2-0.4,0.3-1,0.6-1.1c0.3-0.1,0.8,0.2,1.2,0.3
		c1.2,0.4,1.2,0.5,1.3,1.7c0,0.5-0.2,1.2,0.1,1.5c0.3,0.3,1,0.1,1.5,0.1c0.6,0,1.2,0,1.8,0c0.3,0,0.4-0.1,0.4-0.4c0-0.6,0-1.2,0-1.8
		c0-0.6,0.3-0.9,0.8-1.1c0.9-0.2,1.7-0.6,2.5-1.1c0.5-0.3,0.9-0.2,1.3,0.2c0.4,0.4,0.8,0.8,1.2,1.3c0.2,0.2,0.3,0.3,0.6,0
		c0.7-0.7,1.4-1.4,2.1-2.1c0.2-0.2,0.2-0.4,0-0.6c-0.4-0.4-0.8-0.8-1.3-1.3c-0.4-0.4-0.5-0.8-0.2-1.3c0.5-0.8,0.8-1.7,1.1-2.6
		c0.1-0.5,0.5-0.8,1-0.8c0.6,0,1.2,0,1.8,0c0.3,0,0.4-0.1,0.4-0.4c0-1,0-2,0-3.1c0-0.3-0.1-0.4-0.4-0.4c-0.6,0-1.1,0-1.7,0
		c-0.6,0-1-0.2-1.1-0.8c-0.2-0.9-0.6-1.7-1-2.5c-0.3-0.5-0.2-1,0.2-1.4c0.4-0.4,0.8-0.8,1.3-1.3c0.2-0.2,0.2-0.3,0-0.4
		c-0.8-0.7-1.5-1.5-2.2-2.2c-0.2-0.2-0.3-0.1-0.4,0c-0.4,0.4-0.8,0.8-1.2,1.3c-0.4,0.4-0.9,0.5-1.4,0.2c-0.8-0.5-1.6-0.8-2.4-1
		c-0.6-0.2-0.8-0.5-0.8-1.1c0-0.6,0-1.2,0-1.8c0-0.3-0.1-0.4-0.4-0.4c-1,0-2,0-3,0c-0.3,0-0.4,0.1-0.4,0.4c0,0.6,0,1.1,0,1.7
		c0,0.7-0.2,1-0.9,1.2c-0.9,0.3-1.7,0.6-2.4,1c-0.5,0.3-0.9,0.2-1.3-0.2c-0.4-0.4-0.8-0.8-1.2-1.2c-0.2-0.2-0.3-0.3-0.6,0
		c-0.7,0.7-1.4,1.4-2.1,2.1c-0.2,0.2-0.2,0.4,0,0.6c0.4,0.4,0.8,0.8,1.3,1.3c0.4,0.4,0.4,0.8,0.2,1.3c-0.4,0.8-0.8,1.6-1,2.5
		c-0.2,0.6-0.5,0.8-1.1,0.8c-1.1,0-1.1,0-1.1-1.1c0-0.4-0.2-0.9,0.5-0.8c0.1,0,0.2-0.2,0.2-0.3c0.2-0.5,0.6-1,0.5-1.5
		c-0.1-0.4-0.7-0.8-1-1.1c-1.2-1.3-1.2-1.4,0-2.6c1-1,2.1-2.1,3.1-3.1c0.7-0.7,1.1-0.7,1.8,0c0.4,0.4,0.8,0.8,1.2,1.2
		c0.2,0.3,0.5,0.3,0.8,0.1c0.1-0.1,0.3-0.1,0.4-0.2c1-0.4,1-0.4,1-1.5c0-0.4,0-0.9,0-1.3c0-0.6,0.4-1,1-1
		C42.9,23.8,43.8,23.8,44.7,23.8"/>
	<path style="clip-path:url(#SVGID_00000123418937545747772320000015295959597601036938_);fill:#F37367;" d="M51.3,39
		c0-3.7-3-6.6-6.6-6.6c-3.6,0-6.6,3-6.6,6.6c0,3.7,2.9,6.7,6.6,6.7C48.4,45.7,51.3,42.7,51.3,39 M53.2,39c0,4.7-3.8,8.6-8.5,8.5
		c-4.7,0-8.5-3.8-8.5-8.6c0-4.7,3.8-8.5,8.5-8.5C49.4,30.5,53.2,34.3,53.2,39"/>
	<path style="clip-path:url(#SVGID_00000123418937545747772320000015295959597601036938_);fill:#F37367;" d="M44.7,19.1
		c6.1,0,12.2,0,18.2,0c0.5,0,0.7,0.2,0.7,0.7c0,1.2,0,1.2-1.2,1.2c-11.9,0-23.9,0-35.8,0c-0.8,0-0.7,0.1-0.7-0.7
		c0-1.2,0-1.2,1.2-1.2H44.7z"/>
	<path style="clip-path:url(#SVGID_00000123418937545747772320000015295959597601036938_);fill:#F37367;" d="M25.8,16.2
		c0-0.9,0-0.9,0.9-0.9c1,0,1,0,1,1c0,0.9,0,0.9-0.9,0.9C25.8,17.2,25.8,17.2,25.8,16.2"/>
	<path style="clip-path:url(#SVGID_00000123418937545747772320000015295959597601036938_);fill:#F37367;" d="M30.6,17.2
		c-1,0-1,0-1-1c0-0.9,0-0.9,0.9-0.9c1,0,1,0,1,1C31.5,17.2,31.5,17.2,30.6,17.2"/>
	<path style="clip-path:url(#SVGID_00000123418937545747772320000015295959597601036938_);fill:#F37367;" d="M34.3,15.3
		c0.9,0,0.9,0,0.9,1c0,0.9,0,0.9-0.9,0.9c-1,0-1,0-1-1C33.4,15.3,33.4,15.3,34.3,15.3"/>
	<path style="clip-path:url(#SVGID_00000123418937545747772320000015295959597601036938_);fill:#F37367;" d="M25.9,59.9
		c0.5,0,0.9-0.4,0.9-0.9c0-0.5-0.4-1-0.9-0.9c-0.5,0-0.9,0.5-0.9,1C24.9,59.6,25.3,59.9,25.9,59.9 M25.8,63.7c-1,0-1,0-1-1
		c0-0.2,0-0.4,0-0.6c0-0.4-0.1-0.6-0.4-0.7c-1.2-0.6-1.7-1.9-1.4-3.2c0.3-1.2,1.5-2.1,2.8-2.1c1.3,0,2.4,0.9,2.7,2.1
		c0.3,1.3-0.2,2.6-1.4,3.2c-0.3,0.2-0.4,0.4-0.4,0.7c0,0.2,0,0.4,0,0.6C26.8,63.7,26.8,63.7,25.8,63.7"/>
	<path style="clip-path:url(#SVGID_00000123418937545747772320000015295959597601036938_);fill:#F37367;" d="M42.8,39
		c0,1.1,0.8,1.9,1.9,1.9c1,0,1.9-0.8,1.9-1.9c0-1-0.9-1.9-1.9-1.9C43.7,37.2,42.9,38,42.8,39 M40.9,39.1c0-2.1,1.7-3.8,3.8-3.8
		c2.1,0,3.8,1.7,3.8,3.8c0,2.1-1.7,3.8-3.8,3.8C42.6,42.8,41,41.1,40.9,39.1"/>
</g>
</svg>
