<?xml version="1.0" encoding="utf-8"?>
<!-- Generator: Adobe Illustrator 25.4.1, SVG Export Plug-In . SVG Version: 6.00 Build 0)  -->
<svg version="1.1" id="Layer_1" xmlns="http://www.w3.org/2000/svg" xmlns:xlink="http://www.w3.org/1999/xlink" x="0px" y="0px"
	 viewBox="0 0 80 80" style="enable-background:new 0 0 80 80;" xml:space="preserve">
<style type="text/css">
	.st0{clip-path:url(#SVGID_00000178191416238444683730000010413384554761038775_);fill:#F37367;}
	.st1{fill:#F37367;}
	.st2{clip-path:url(#SVGID_00000173162041183145040650000008320158358506137511_);fill:#F37367;}
	.st3{clip-path:url(#SVGID_00000109741183931207273260000003465639319160179610_);fill:#F37367;}
	.st4{clip-path:url(#SVGID_00000054253435857775611310000003699611700956819591_);fill:#F37367;}
	.st5{clip-path:url(#SVGID_00000032633686595078876930000001462935390865239965_);fill:#F37367;}
	.st6{clip-path:url(#SVGID_00000030459855112430283540000009328504388219199165_);fill:#F37367;}
	.st7{clip-path:url(#SVGID_00000119817116292214335760000000962260392580358281_);fill:#F37367;}
	.st8{clip-path:url(#SVGID_00000166668431401039437500000010839318000533660589_);fill:#F37367;}
	.st9{clip-path:url(#SVGID_00000165213841066135972430000001009182352503398823_);fill:#F37367;}
</style>
<g>
	<defs>
		<rect id="SVGID_1_" x="11.5" y="12.8" width="57" height="54.3"/>
	</defs>
	<clipPath id="SVGID_00000051378047295216981660000000243557168883982511_">
		<use xlink:href="#SVGID_1_"  style="overflow:visible;"/>
	</clipPath>
	<path style="clip-path:url(#SVGID_00000051378047295216981660000000243557168883982511_);fill:#F37367;" d="M40.1,55.3
		c-5.2,0-10.3,0-15.5,0c-0.5,0-0.6,0.1-0.6,0.6c0,3.1,0,6.2,0,9.3c0,0.4,0.1,0.5,0.5,0.5c10.3,0,20.6,0,30.9,0
		c0.4,0,0.5-0.1,0.5-0.5c0-3,0-6.1,0-9.1c0-0.5-0.1-0.7-0.7-0.7C50.2,55.4,45.1,55.3,40.1,55.3 M40,24.8c8.8,0,17.6,0,26.4,0
		c0.6,0,0.7-0.2,0.7-0.7c0-2.1,0-4.2,0-6.3c0-1.7-1.2-3.5-3.5-3.5c-15.7,0-31.3,0-47,0c-2.3,0-3.6,1.8-3.5,3.5c0,2.1,0,4.2,0,6.3
		c0,0.5,0.1,0.7,0.7,0.7C22.4,24.8,31.2,24.8,40,24.8 M40,26.2c-8.8,0-17.6,0-26.4,0c-0.5,0-0.7,0.1-0.7,0.7c0,9.2,0,18.3,0,27.5
		c0,0.7,0,1.4,0,2.1c0.1,1.7,1.4,3.1,3.1,3.1c2,0,4,0,6,0c0.4,0,0.5-0.1,0.5-0.5c0-1.4,0-2.7,0-4.1c0-0.8,0.2-1,1.1-1
		c10.9,0,21.8,0,32.8,0c0.8,0,1,0.2,1,1c0,1.4,0,2.7,0,4.1c0,0.4,0.1,0.5,0.5,0.5c1.8,0,3.7,0,5.5,0c2.3,0,3.5-1.3,3.5-3.5
		c0-9.7,0-19.4,0-29c0-0.6-0.2-0.7-0.7-0.7C57.6,26.2,48.8,26.2,40,26.2 M40,12.8c7.8,0,15.7,0,23.5,0c3,0,5,2,5,5
		c0,12.8,0,25.5,0,38.3c0,2.9-2,4.8-4.9,4.8c-1.8,0-3.7,0-5.5,0c-0.5,0-0.7,0.1-0.7,0.6c0,1.5,0,3,0,4.4c0,0.9-0.2,1.1-1.1,1.1
		c-10.9,0-21.8,0-32.6,0c-0.9,0-1.1-0.2-1.1-1.1c0-1.5,0-2.9,0-4.4c0-0.6-0.2-0.7-0.7-0.7c-1.9,0-3.7,0-5.6,0c-2.7,0-4.7-2-4.8-4.7
		c0-12.8,0-25.7,0-38.5c0-2.8,2.1-4.8,4.9-4.8C24.3,12.8,32.2,12.8,40,12.8"/>
	<path style="clip-path:url(#SVGID_00000051378047295216981660000000243557168883982511_);fill:#F37367;" d="M40,38.4
		c1.3,0,2.6,0,4,0c0.4,0,0.6-0.1,0.5-0.5c0-0.6,0-1.1,0-1.7c-0.1-2.3-1.8-4.2-4.1-4.4c-2.3-0.2-4.3,1.4-4.8,3.6
		c-0.2,0.8-0.1,1.6-0.1,2.4c0,0.5,0.1,0.6,0.6,0.6C37.4,38.4,38.7,38.4,40,38.4 M39.9,39.9c-2,0-4,0-6,0c-0.4,0-0.6,0.1-0.6,0.5
		c0,3,0,6.1,0,9.1c0,0.4,0.1,0.5,0.5,0.5c4,0,8.1,0,12.1,0c0.4,0,0.5-0.1,0.5-0.5c0-3,0-6.1,0-9.1c0-0.5-0.2-0.5-0.6-0.5
		C43.9,39.9,41.9,39.9,39.9,39.9 M40,51.4c-2.3,0-4.6,0-6.9,0c-0.8,0-1.1-0.3-1.1-1.1c0-3.6,0-7.3,0-10.9c0-0.8,0.2-1,1.1-1.1
		c1,0,1,0,1-1c-0.1-1.7,0.2-3.3,1.2-4.7c1.5-2,4.1-2.9,6.6-2.2c2.4,0.7,4.1,3,4.2,5.5c0,0.6,0,1.3,0,1.9c0,0.3,0.1,0.4,0.4,0.5
		c1.5,0,1.5,0,1.5,1.6c0,3.4,0,6.9,0,10.3c0,0.9-0.2,1.1-1.1,1.1C44.5,51.4,42.3,51.4,40,51.4"/>
	<path style="clip-path:url(#SVGID_00000051378047295216981660000000243557168883982511_);fill:#F37367;" d="M19.8,19.7
		c0-1.1-0.8-2-1.8-1.9c-1,0-1.8,0.9-1.8,2c0,1,0.8,1.9,1.8,1.9C19,21.6,19.8,20.7,19.8,19.7 M21.3,19.7c0,1.9-1.5,3.4-3.3,3.4
		c-1.8,0-3.3-1.6-3.3-3.4c0-1.9,1.5-3.4,3.3-3.4C19.8,16.3,21.3,17.8,21.3,19.7"/>
	<path style="clip-path:url(#SVGID_00000051378047295216981660000000243557168883982511_);fill:#F37367;" d="M36.4,19.7
		c0-1.1-0.8-2-1.8-1.9c-1,0-1.8,0.9-1.8,1.9c0,1.1,0.8,2,1.8,2C35.6,21.6,36.4,20.7,36.4,19.7 M37.8,19.7c0,1.9-1.5,3.4-3.3,3.4
		c-1.8,0-3.2-1.5-3.2-3.4c0-1.9,1.5-3.4,3.3-3.4C36.4,16.3,37.8,17.8,37.8,19.7"/>
	<path style="clip-path:url(#SVGID_00000051378047295216981660000000243557168883982511_);fill:#F37367;" d="M28.1,19.7
		c0-1.1-0.8-2-1.8-2c-1,0-1.8,0.9-1.8,2c0,1,0.8,1.9,1.8,1.9C27.3,21.6,28.1,20.7,28.1,19.7 M29.5,19.7c0,1.9-1.5,3.4-3.3,3.3
		c-1.8,0-3.3-1.6-3.2-3.4c0-1.9,1.5-3.4,3.3-3.4C28.1,16.3,29.6,17.8,29.5,19.7"/>
	<path style="clip-path:url(#SVGID_00000051378047295216981660000000243557168883982511_);fill:#F37367;" d="M30.4,57.9
		c0.3,0,0.5,0.2,0.7,0.4c0.4,0.4,0.8,1,1.2,1c0.4,0,0.8-0.7,1.2-1.1c0.1-0.1,0.1-0.1,0.2-0.2c0.3-0.3,0.7-0.3,1,0
		c0.3,0.3,0.3,0.7,0,1c-0.4,0.4-0.8,0.8-1.2,1.2c-0.2,0.2-0.2,0.3,0,0.5c0.3,0.3,0.7,0.7,1,1c0.3,0.3,0.5,0.7,0.1,1.1
		c-0.4,0.4-0.8,0.3-1.1-0.1c-0.4-0.4-0.8-1.1-1.3-1.1c-0.4,0-0.8,0.7-1.2,1.1c-0.4,0.3-0.8,0.4-1.1,0c-0.3-0.4-0.2-0.7,0.1-1.1
		c0,0,0.1-0.1,0.1-0.1c0.4-0.4,1.1-0.7,1-1.2c0-0.4-0.7-0.8-1.1-1.2c-0.1-0.1-0.2-0.2-0.3-0.4C29.5,58.5,29.8,57.9,30.4,57.9"/>
	<path style="clip-path:url(#SVGID_00000051378047295216981660000000243557168883982511_);fill:#F37367;" d="M50.4,58.6
		c0,0.3-0.2,0.5-0.4,0.7c-0.4,0.4-1,0.8-1,1.2c0,0.3,0.6,0.8,1,1.1c0.5,0.5,0.5,0.9,0.2,1.2c-0.3,0.3-0.7,0.3-1.2-0.2
		c-0.4-0.4-0.7-1.1-1.2-1c-0.4,0-0.8,0.7-1.1,1c-0.2,0.2-0.4,0.4-0.7,0.4c-0.5,0-0.9-0.5-0.7-1c0.1-0.2,0.2-0.3,0.3-0.4
		c0.4-0.4,1.1-0.7,1-1.2c0-0.4-0.7-0.8-1.1-1.2c-0.1-0.1-0.2-0.1-0.2-0.2c-0.3-0.3-0.3-0.7,0-1c0.3-0.3,0.7-0.3,1,0
		c0.4,0.3,0.7,0.7,1.1,1.1c0.3,0.3,0.4,0.3,0.7,0c0.3-0.4,0.7-0.7,1.1-1.1c0.2-0.2,0.5-0.3,0.8-0.1C50.2,58.1,50.4,58.3,50.4,58.6"
		/>
	<path style="clip-path:url(#SVGID_00000051378047295216981660000000243557168883982511_);fill:#F37367;" d="M37.4,62.4
		c0-0.4,0.3-0.6,0.5-0.8c0.3-0.4,0.9-0.6,0.9-1.1c0-0.4-0.6-0.7-0.9-1c-0.6-0.6-0.7-1-0.4-1.4c0.4-0.4,0.8-0.3,1.4,0.4
		c1,1,1,1,2.1,0c0.1-0.1,0.1-0.1,0.2-0.2c0.4-0.4,0.9-0.4,1.2-0.1c0.3,0.4,0.2,0.8-0.1,1.1c-0.3,0.3-0.6,0.6-0.9,0.9
		c-0.3,0.3-0.4,0.5,0,0.8c0.3,0.2,0.5,0.5,0.8,0.8c0.4,0.4,0.5,0.7,0.2,1.2c-0.3,0.4-0.7,0.3-1.2-0.2c-0.3-0.3-0.6-0.5-0.8-0.8
		c-0.3-0.3-0.5-0.3-0.7,0c-0.3,0.3-0.7,0.7-1,1c-0.2,0.2-0.5,0.3-0.8,0.1C37.6,62.9,37.4,62.6,37.4,62.4"/>
	<path style="clip-path:url(#SVGID_00000051378047295216981660000000243557168883982511_);fill:#F37367;" d="M40.6,45.7
		c0,0.3,0,0.6,0,0.9c0,0.4-0.3,0.6-0.7,0.6c-0.4,0-0.7-0.2-0.7-0.6c0-0.6,0-1.2,0-1.8c0-0.4,0.3-0.7,0.7-0.7c0.4,0,0.7,0.3,0.7,0.7
		C40.6,45.1,40.6,45.4,40.6,45.7L40.6,45.7z"/>
</g>
</svg>
