<?xml version="1.0" encoding="utf-8"?>
<!-- Generator: Adobe Illustrator 25.4.1, SVG Export Plug-In . SVG Version: 6.00 Build 0)  -->
<svg version="1.1" id="Layer_1" xmlns="http://www.w3.org/2000/svg" xmlns:xlink="http://www.w3.org/1999/xlink" x="0px" y="0px"
	 viewBox="0 0 80 80" style="enable-background:new 0 0 80 80;" xml:space="preserve">
<style type="text/css">
	.st0{clip-path:url(#SVGID_00000152953988253853730660000014574261488313095614_);fill:#F37367;}
	.st1{fill:#F37367;}
	.st2{clip-path:url(#SVGID_00000111158302247370285640000013687843060215887033_);fill:#F37367;}
	.st3{clip-path:url(#SVGID_00000154426720892682793840000009529929575935544757_);fill:#F37367;}
	.st4{clip-path:url(#SVGID_00000152976870194184515270000018417154787346898561_);fill:#F37367;}
	.st5{clip-path:url(#SVGID_00000060007857233675502550000008728060911806095775_);fill:#F37367;}
	.st6{clip-path:url(#SVGID_00000025434555943060272550000002808715642490789527_);fill:#F37367;}
	.st7{clip-path:url(#SVGID_00000124144045222466327760000001779598604026777232_);fill:#F37367;}
	.st8{clip-path:url(#SVGID_00000031917457709615838930000015059116310488523692_);fill:#F37367;}
	.st9{clip-path:url(#SVGID_00000143608725833236760170000014885556247694633622_);fill:#F37367;}
</style>
<g>
	<defs>
		<rect id="SVGID_00000091737183672201519240000001893306726000739472_" x="11.7" y="11.5" width="56.5" height="57"/>
	</defs>
	<clipPath id="SVGID_00000064338445829245957240000007801010502535456703_">
		<use xlink:href="#SVGID_00000091737183672201519240000001893306726000739472_"  style="overflow:visible;"/>
	</clipPath>
	<path style="clip-path:url(#SVGID_00000064338445829245957240000007801010502535456703_);fill:#F37367;" d="M40.5,30.5
		c0.3,0,0.7,0,1,0c0.7,0,0.7,0,0.6-0.7c-0.3-1.2-0.3-1.2-1.4-1.2c-1.5,0-1.5,0-1.8,1.5c-0.1,0.4,0,0.4,0.3,0.4
		C39.6,30.5,40.1,30.5,40.5,30.5 M40,26.7c2.4,0,4.7,0,7.1,0c1.1,0,1.4-0.3,1.4-1.4c0-3.5,0-7,0-10.6c0-1-0.3-1.4-1.3-1.4
		c-4.8,0-9.5,0-14.3,0c-1,0-1.3,0.3-1.3,1.4c0,3.5,0,7,0,10.6c0,1,0.3,1.4,1.4,1.4C35.2,26.7,37.6,26.7,40,26.7 M48.1,11.5
		c0.4,0.2,0.9,0.3,1.3,0.7c0.7,0.6,1,1.4,1,2.3c0,3.7,0,7.5,0,11.2c0,1.8-1.2,2.9-3,3c-1,0-2.1,0-3.1,0c-0.4,0-0.5,0.1-0.4,0.5
		c0.3,1.4,0.3,1.4,1.8,1.4c0.6,0,1.2,0,1.8,0c0.6,0,1,0.4,1,0.9c0,0.5-0.4,0.9-0.9,1c-0.2,0-0.3,0-0.5,0c-4.3,0-8.6,0-12.9,0
		c-0.2,0-0.4,0-0.6,0c-0.5-0.1-0.9-0.5-0.9-1c0-0.5,0.4-0.9,1-0.9c0.9,0,1.8,0,2.7,0c0.4,0,0.6-0.1,0.6-0.5c0.1-0.5,0.4-1.1,0.2-1.3
		c-0.2-0.3-0.9-0.1-1.4-0.1c-1.2,0-2.4,0-3.5-0.1c-1.5-0.1-2.6-1.2-2.6-2.8c0-3.8,0-7.7,0-11.5c0-1.3,0.8-2.2,2-2.7
		c0.1,0,0.2-0.1,0.2-0.1H48.1z"/>
	<path style="clip-path:url(#SVGID_00000064338445829245957240000007801010502535456703_);fill:#F37367;" d="M57.2,66.6H59
		c1.5,0,1.5,0,1.1-1.5c-0.1-0.3-0.2-0.4-0.5-0.4c-0.5,0-1.1,0-1.6,0c-0.2,0-0.4,0-0.4,0.3C57.5,65.5,57.4,66,57.2,66.6 M58.4,49.5
		c-2.3,0-4.5,0-6.8,0c-1,0-1.3,0.3-1.3,1.3c0,3.6,0,7.1,0,10.7c0,1,0.3,1.3,1.3,1.3c4.5,0,8.9,0,13.4,0c1,0,1.4-0.3,1.4-1.4
		c0-3.5,0-7,0-10.6c0-1.1-0.3-1.4-1.4-1.4C62.8,49.5,60.6,49.5,58.4,49.5 M51.9,68.5c-0.1-0.1-0.1-0.1-0.2-0.2
		c-0.4-0.3-0.5-0.7-0.3-1.1c0.1-0.4,0.5-0.6,0.9-0.6c0.9,0,1.7,0,2.6,0c0.3,0,0.5-0.1,0.5-0.4c0.1-0.5,0.5-1.1,0.2-1.4
		c-0.2-0.3-0.9-0.1-1.4-0.1c-0.9,0-1.8,0-2.8,0c-1.8,0-3-1.2-3-3c0-3.7,0-7.4,0-11.1c0-1.8,1.2-3,3-3c2,0,3.9,0,5.8,0
		c0.4,0,0.6-0.1,0.5-0.5c0-0.1,0-0.3,0-0.4c0.1-0.6,0.5-1,1-1c0.5,0,0.9,0.4,0.9,1c0.1,0.9,0.1,0.9,0.9,0.9c1.3,0,2.6,0,3.9,0
		c1.8-0.1,3.1,0.5,3.7,2.3v12.5c-0.6,1.8-1.8,2.5-3.6,2.3c-0.4,0-0.8,0-1.2,0c-0.5,0-1.2-0.2-1.4,0.1c-0.2,0.3,0.2,0.9,0.2,1.4
		c0,0.3,0.2,0.4,0.5,0.4c0.9,0,1.7,0,2.6,0c0.7,0,1.1,0.6,0.9,1.1c-0.1,0.4-0.4,0.5-0.6,0.7H51.9z"/>
	<path style="clip-path:url(#SVGID_00000064338445829245957240000007801010502535456703_);fill:#F37367;" d="M22.1,66.6
		c0.4,0,0.9,0,1.3,0c0.2,0,0.3,0,0.3-0.3c-0.1-0.4-0.2-0.9-0.3-1.3c0-0.2-0.2-0.3-0.4-0.3c-0.6,0-1.2,0-1.8,0c-0.2,0-0.3,0-0.3,0.2
		c-0.1,0.5-0.2,1.1-0.4,1.6c0.5,0.1,0.9,0,1.4,0.1C22,66.6,22,66.6,22.1,66.6 M21.6,62.8c2.2,0,4.5,0,6.7,0c1,0,1.3-0.3,1.3-1.3
		c0-3.6,0-7.2,0-10.7c0-1-0.3-1.3-1.3-1.3c-4.5,0-8.9,0-13.4,0c-1,0-1.3,0.3-1.3,1.3c0,3.5,0,7.1,0,10.6c0,1,0.3,1.3,1.4,1.4
		C17.2,62.8,19.4,62.8,21.6,62.8 M11.7,49.9c0.4-1,0.9-1.8,2-2.2c0.4-0.1,0.8-0.2,1.2-0.2c1.6,0,3.2,0,4.7,0c0.4,0,0.6-0.1,0.6-0.6
		c0-0.9,0.3-1.3,0.9-1.3c0.6,0,1,0.5,0.9,1.4c0,0.5,0.1,0.5,0.6,0.5c1.9,0,3.8,0,5.7,0c2,0,3.2,1.2,3.2,3.2c0,3.6,0,7.1,0,10.7
		c0,2.1-1.1,3.2-3.2,3.2c-0.9,0-1.7,0-2.6,0c-0.4,0-0.4,0.1-0.4,0.5c0.3,1.5,0.3,1.5,1.8,1.5c0.4,0,0.8,0,1.3,0c0.5,0,1,0.1,1.2,0.7
		c0.2,0.6-0.2,0.9-0.6,1.2H15.3c-0.5-0.3-0.8-0.6-0.7-1.2c0.1-0.5,0.5-0.7,1.2-0.7c0.4,0,0.9,0,1.3,0c1.4,0,1.4,0,1.8-1.4
		c0.1-0.4,0.1-0.5-0.4-0.5c-1.3,0-2.5,0-3.8,0c-0.9,0-1.6-0.3-2.3-1c-0.4-0.4-0.5-0.9-0.7-1.4V49.9z"/>
	<path style="clip-path:url(#SVGID_00000064338445829245957240000007801010502535456703_);fill:#F37367;" d="M45.6,40.5
		c0-0.5,0-1.4,0-2.3c0-0.3-0.1-0.5-0.4-0.6c-3.5-0.8-7-0.8-10.5,0c-0.3,0.1-0.4,0.2-0.4,0.5c0,1.7,0,3.3,0,5c0,1.6,0.6,3.1,1.5,4.5
		c1,1.5,2.5,2.4,3.9,3.5c0.2,0.2,0.4,0,0.5-0.1c0.7-0.5,1.3-0.9,2-1.4c1.4-1.1,2.4-2.6,3-4.3C45.7,43.9,45.6,42.4,45.6,40.5
		 M40.1,35.2c1.9,0,3.9,0.2,5.8,0.7c1.2,0.3,1.7,0.9,1.7,2.1c0,0.8,0,1.6,0,2.4c0,0.2,0,0.4,0.3,0.5c0.4,0.1,0.6,0.5,0.6,0.9
		c0,0.4-0.2,0.7-0.6,0.8c-0.3,0.1-0.3,0.3-0.4,0.5c-0.2,3.4-1.7,6.1-4.4,8.1c-0.7,0.5-1.4,1-2.1,1.5c-0.6,0.4-1.2,0.6-1.8,0.1
		c-1.4-1-2.9-1.9-4.1-3.2c-1.6-1.8-2.5-4-2.7-6.5c0-0.3,0-0.5-0.4-0.6c-0.4-0.1-0.6-0.5-0.6-0.9c0-0.4,0.2-0.7,0.6-0.8
		c0.3-0.1,0.3-0.3,0.3-0.5c0-0.9,0-1.7,0-2.6c0-1.1,0.5-1.7,1.6-2C36,35.4,38,35.2,40.1,35.2"/>
	<path style="clip-path:url(#SVGID_00000064338445829245957240000007801010502535456703_);fill:#F37367;" d="M20.2,21.5
		c0-0.5,0-0.9,0-1.4c0-0.5,0.3-0.8,0.8-0.9c0.4-0.1,0.8-0.1,1.3,0c0.4,0.1,0.7,0.3,0.7,0.8c0.1,0.5-0.1,0.8-0.5,1
		c-0.3,0.1-0.4,0.3-0.4,0.6c0,0.4,0,0.9,0,1.3c0,0.7-0.4,1.1-1,1.1c-0.5,0-0.9-0.4-0.9-1.1C20.2,22.3,20.2,21.9,20.2,21.5L20.2,21.5
		z"/>
	<path style="clip-path:url(#SVGID_00000064338445829245957240000007801010502535456703_);fill:#F37367;" d="M59.8,21.5
		c0,0.5,0,0.9,0,1.4c0,0.6-0.4,1-0.9,1c-0.5,0-0.9-0.4-0.9-0.9c0-0.3,0-0.6,0-0.9c0-0.5,0.2-1-0.6-1.2c-0.3-0.1-0.4-0.5-0.3-0.9
		c0.1-0.4,0.3-0.6,0.6-0.7c0.5-0.1,1-0.1,1.5,0c0.4,0.1,0.6,0.4,0.6,0.9C59.8,20.5,59.8,21,59.8,21.5C59.8,21.5,59.8,21.5,59.8,21.5
		"/>
	<path style="clip-path:url(#SVGID_00000064338445829245957240000007801010502535456703_);fill:#F37367;" d="M20.2,41.9
		c0-0.3,0-0.7,0-1c0-0.5,0.3-0.8,0.8-0.9c0.4-0.1,0.8,0.1,1,0.6c0.1,0.4,0.3,0.4,0.6,0.4c0.9,0,1.4,0.3,1.4,0.9c0,0.6-0.4,1-1.4,1
		c-0.3,0-0.5,0-0.6,0.4c-0.1,0.4-0.5,0.6-1,0.5c-0.5-0.1-0.7-0.4-0.8-0.9C20.2,42.6,20.2,42.2,20.2,41.9
		C20.2,41.9,20.2,41.9,20.2,41.9"/>
	<path style="clip-path:url(#SVGID_00000064338445829245957240000007801010502535456703_);fill:#F37367;" d="M59.8,41.9
		c0,0.3,0,0.7,0,1c0,0.5-0.3,0.8-0.8,0.9c-0.5,0.1-0.8-0.1-1-0.5c-0.1-0.3-0.3-0.4-0.6-0.4c0,0-0.1,0-0.1,0c-0.8,0-1.3-0.3-1.3-0.9
		c0-0.6,0.4-1,1.3-1c0.3,0,0.6-0.1,0.7-0.4c0.1-0.4,0.5-0.6,0.9-0.5c0.4,0.1,0.7,0.4,0.8,0.8C59.8,41.2,59.8,41.6,59.8,41.9
		C59.8,41.9,59.8,41.9,59.8,41.9"/>
	<path style="clip-path:url(#SVGID_00000064338445829245957240000007801010502535456703_);fill:#F37367;" d="M27.8,40.9
		c0.3,0,0.7,0,1,0.1c0.5,0.1,0.7,0.4,0.8,0.9c0,0.5-0.3,0.9-0.7,0.9c-0.7,0.1-1.5,0.1-2.2,0c-0.5-0.1-0.7-0.4-0.7-0.9
		c0-0.5,0.3-0.8,0.8-0.9C27,41,27.4,41,27.8,40.9C27.8,41,27.8,41,27.8,40.9"/>
	<path style="clip-path:url(#SVGID_00000064338445829245957240000007801010502535456703_);fill:#F37367;" d="M52.3,40.9
		c0.3,0,0.7,0,1,0.1c0.5,0.1,0.8,0.4,0.8,0.9c0,0.5-0.2,0.8-0.7,0.9c-0.8,0.1-1.5,0.1-2.3,0c-0.5-0.1-0.7-0.4-0.7-0.9
		c0-0.5,0.3-0.8,0.8-0.9C51.5,40.9,51.9,41,52.3,40.9"/>
	<path style="clip-path:url(#SVGID_00000064338445829245957240000007801010502535456703_);fill:#F37367;" d="M59.8,31.9
		c0,1-0.3,1.4-0.9,1.4c-0.6,0-0.9-0.5-0.9-1.4c0,0,0-0.1,0-0.1c0-0.8,0.3-1.3,1-1.3c0.6,0,0.9,0.4,0.9,1.2
		C59.8,31.8,59.8,31.9,59.8,31.9"/>
	<path style="clip-path:url(#SVGID_00000064338445829245957240000007801010502535456703_);fill:#F37367;" d="M20.2,31.9
		c0-0.2,0-0.4,0-0.6c0.1-0.5,0.4-0.8,0.9-0.8c0.5,0,0.8,0.2,1,0.7c0.1,0.4,0.1,0.8,0,1.2c-0.1,0.6-0.5,0.9-1,0.9
		c-0.5,0-0.8-0.4-0.9-1C20.2,32.2,20.2,32.1,20.2,31.9C20.2,31.9,20.2,31.9,20.2,31.9"/>
	<path style="clip-path:url(#SVGID_00000064338445829245957240000007801010502535456703_);fill:#F37367;" d="M26.3,21
		c-0.1,0-0.2,0-0.3,0c-0.7,0-1.1-0.4-1.1-0.9c0-0.5,0.4-0.9,1-0.9c0.3,0,0.7,0,1,0c0.5,0.1,0.8,0.5,0.8,1c0,0.5-0.4,0.8-0.9,0.9
		C26.7,21,26.5,21,26.3,21C26.3,21,26.3,21,26.3,21"/>
	<path style="clip-path:url(#SVGID_00000064338445829245957240000007801010502535456703_);fill:#F37367;" d="M53.7,21
		c-0.1,0-0.3,0-0.4,0c-0.6,0-1-0.4-1-0.9c0-0.5,0.3-0.9,0.9-1c0.3,0,0.7,0,1,0c0.6,0.1,0.9,0.5,0.9,1c0,0.5-0.4,0.9-0.9,0.9
		C54,21,53.8,21,53.7,21L53.7,21z"/>
	<path style="clip-path:url(#SVGID_00000064338445829245957240000007801010502535456703_);fill:#F37367;" d="M20.2,27.2
		c0-0.1,0-0.3,0-0.4c0-0.6,0.4-1,0.9-1c0.5,0,0.9,0.4,0.9,1c0,0.3,0,0.6,0,0.9c-0.1,0.6-0.5,0.9-1,0.9c-0.5,0-0.8-0.4-0.9-1
		C20.2,27.5,20.2,27.3,20.2,27.2L20.2,27.2z"/>
	<path style="clip-path:url(#SVGID_00000064338445829245957240000007801010502535456703_);fill:#F37367;" d="M59.8,27.2
		c0,1-0.3,1.4-1,1.4c-0.6,0-0.9-0.5-0.9-1.4c0-0.1,0-0.1,0-0.2c0-0.8,0.4-1.2,1-1.2c0.6,0,0.9,0.4,0.9,1.2
		C59.8,27,59.8,27.1,59.8,27.2"/>
	<path style="clip-path:url(#SVGID_00000064338445829245957240000007801010502535456703_);fill:#F37367;" d="M59.8,36.7
		c0,0.9-0.3,1.4-0.9,1.4c-0.6,0-0.9-0.5-0.9-1.4c0-0.1,0-0.1,0-0.2c0-0.8,0.4-1.2,1-1.2c0.6,0,0.9,0.4,0.9,1.3
		C59.8,36.6,59.8,36.6,59.8,36.7"/>
	<path style="clip-path:url(#SVGID_00000064338445829245957240000007801010502535456703_);fill:#F37367;" d="M22.1,36.7
		c0,0.3,0,0.5-0.1,0.8c-0.2,0.4-0.5,0.7-0.9,0.6c-0.5,0-0.8-0.3-0.9-0.8c0-0.3,0-0.7,0-1.1c0-0.6,0.4-0.9,0.9-1c0.5,0,0.9,0.3,1,0.9
		C22.1,36.3,22.1,36.5,22.1,36.7"/>
	<path style="clip-path:url(#SVGID_00000064338445829245957240000007801010502535456703_);fill:#F37367;" d="M40,17.2
		c-1.7,0-3.3,0-5,0c-0.2,0-0.3,0-0.5,0c-0.5-0.1-0.8-0.4-0.8-0.9c0-0.5,0.2-0.8,0.7-0.9c0.2-0.1,0.4-0.1,0.7-0.1c3.3,0,6.7,0,10,0
		c0.1,0,0.2,0,0.3,0c0.6,0,1,0.4,1,0.9c0,0.5-0.4,0.9-1.1,1C43.5,17.2,41.8,17.2,40,17.2"/>
	<path style="clip-path:url(#SVGID_00000064338445829245957240000007801010502535456703_);fill:#F37367;" d="M40,21
		c-1.7,0-3.3,0-5,0c-0.2,0-0.4,0-0.6,0c-0.5-0.1-0.7-0.4-0.8-0.9c0-0.4,0.2-0.8,0.7-0.9c0.2-0.1,0.4-0.1,0.6-0.1c3.4,0,6.8,0,10.3,0
		c0.1,0,0.1,0,0.2,0c0.6,0.1,1,0.4,1,1c0,0.6-0.4,0.9-1.1,0.9C43.6,21,41.8,21,40,21"/>
	<path style="clip-path:url(#SVGID_00000064338445829245957240000007801010502535456703_);fill:#F37367;" d="M37,24.8
		c-0.7,0-1.5,0-2.2,0c-0.7,0-1.1-0.4-1.1-0.9c0-0.6,0.4-1,1.1-1c1.5,0,3,0,4.5,0c0.7,0,1.1,0.4,1.1,0.9c0,0.6-0.4,0.9-1.2,1
		C38.4,24.8,37.7,24.8,37,24.8"/>
	<path style="clip-path:url(#SVGID_00000064338445829245957240000007801010502535456703_);fill:#F37367;" d="M58.4,53.3
		c-1.6,0-3.1,0-4.7,0c-0.2,0-0.4,0-0.5,0c-0.5-0.1-0.9-0.4-0.9-0.9c0-0.5,0.3-0.8,0.8-0.9c0.2,0,0.3,0,0.5,0c3.2,0,6.4,0,9.5,0
		c0.1,0,0.2,0,0.3,0c0.6,0.1,1,0.4,1,0.9c0,0.5-0.4,0.9-1.1,1C61.7,53.3,60.1,53.3,58.4,53.3L58.4,53.3z"/>
	<path style="clip-path:url(#SVGID_00000064338445829245957240000007801010502535456703_);fill:#F37367;" d="M58.4,55.2
		c1.7,0,3.3,0,5,0c0.7,0,1.2,0.5,1.1,1.1c-0.1,0.4-0.3,0.7-0.7,0.8c-0.3,0-0.6,0.1-0.9,0.1c-3,0-6,0-9,0c-0.1,0-0.3,0-0.4,0
		c-0.7,0-1.1-0.4-1.1-1c0-0.6,0.4-0.9,1.1-0.9C55,55.2,56.7,55.2,58.4,55.2"/>
	<path style="clip-path:url(#SVGID_00000064338445829245957240000007801010502535456703_);fill:#F37367;" d="M55.5,59
		c0.7,0,1.4,0,2.1,0c0.7,0,1.1,0.4,1.1,0.9c0,0.5-0.4,0.9-1.1,1c-1.4,0-2.9,0-4.3,0c-0.7,0-1.1-0.4-1.1-1c0-0.6,0.4-0.9,1.1-0.9
		C54.1,59,54.8,59,55.5,59"/>
	<path style="clip-path:url(#SVGID_00000064338445829245957240000007801010502535456703_);fill:#F37367;" d="M21.6,53.3
		c-1.6,0-3.1,0-4.7,0c-0.2,0-0.4,0-0.6,0c-0.5-0.1-0.7-0.4-0.8-0.9c-0.1-0.4,0.3-0.8,0.8-0.9c0.2,0,0.4-0.1,0.5-0.1
		c3.2,0,6.4,0,9.6,0c0.1,0,0.2,0,0.3,0c0.6,0.1,1,0.4,0.9,1c0,0.5-0.4,0.9-1,0.9c-0.2,0-0.3,0-0.5,0C24.7,53.3,23.1,53.3,21.6,53.3"
		/>
	<path style="clip-path:url(#SVGID_00000064338445829245957240000007801010502535456703_);fill:#F37367;" d="M21.6,55.2
		c1.6,0,3.2,0,4.7,0c0.2,0,0.4,0,0.7,0.1c0.5,0.1,0.7,0.4,0.7,0.9c0,0.5-0.2,0.8-0.7,0.9c-0.2,0.1-0.5,0.1-0.7,0.1
		c-3.2,0-6.3,0-9.5,0c-0.1,0-0.2,0-0.3,0c-0.7,0-1.1-0.4-1.1-1c0-0.5,0.4-0.9,1.1-0.9C18.3,55.2,20,55.2,21.6,55.2"/>
	<path style="clip-path:url(#SVGID_00000064338445829245957240000007801010502535456703_);fill:#F37367;" d="M18.8,59
		c0.7,0,1.4,0,2.1,0c0.6,0,1,0.4,1,0.9c0,0.5-0.4,1-1,1c-1.5,0-3,0-4.5,0c-0.6,0-1-0.4-1-1c0-0.5,0.4-0.9,1-0.9
		C17.3,59,18,59,18.8,59"/>
	<path style="clip-path:url(#SVGID_00000064338445829245957240000007801010502535456703_);fill:#F37367;" d="M39.9,41.9
		c1.1,0,1,0.1,1-0.6c0-0.8-0.3-1.3-0.9-1.3c-0.6,0-0.9,0.5-1,1.3C39,42.2,39.6,41.8,39.9,41.9 M40,45.7c0.3,0,0.7,0,1,0
		c0.5,0,0.8-0.3,0.9-0.9c0.1-0.4-0.2-0.9-0.7-1c-0.8-0.1-1.5-0.1-2.3,0c-0.5,0.1-0.7,0.4-0.7,1c0,0.5,0.4,0.8,0.8,0.9
		C39.3,45.7,39.7,45.7,40,45.7 M40,47.6c-0.5,0-1,0.1-1.5-0.1c-2-0.5-2.9-2.9-1.6-4.6c0.2-0.3,0.3-0.5,0.3-0.9c0-0.5,0-1,0.1-1.5
		c0.2-1.4,1.4-2.4,2.8-2.5c1.4,0,2.6,1.1,2.8,2.5c0,0.3,0.1,0.6,0,0.8c0,0.7,0.1,1.3,0.5,1.9c1.2,1.8-0.1,4.2-2.2,4.3
		C40.7,47.6,40.3,47.6,40,47.6"/>
</g>
</svg>
