<?xml version="1.0" encoding="utf-8"?>
<!-- Generator: Adobe Illustrator 25.4.1, SVG Export Plug-In . SVG Version: 6.00 Build 0)  -->
<svg version="1.1" id="Layer_1" xmlns="http://www.w3.org/2000/svg" xmlns:xlink="http://www.w3.org/1999/xlink" x="0px" y="0px"
	 viewBox="0 0 80 80" style="enable-background:new 0 0 80 80;" xml:space="preserve">
<style type="text/css">
	.st0{clip-path:url(#SVGID_00000137851028730575486670000002278273206696046009_);fill:#F37367;}
	.st1{fill:#F37367;}
	.st2{clip-path:url(#SVGID_00000064323830653806973070000010355679062048825252_);fill:#F37367;}
	.st3{clip-path:url(#SVGID_00000121989639067282984670000002919145069932704166_);fill:#F37367;}
	.st4{clip-path:url(#SVGID_00000112594941133046071270000010741831843253335979_);fill:#F37367;}
	.st5{clip-path:url(#SVGID_00000005228619133434539760000001504274782693180311_);fill:#F37367;}
	.st6{clip-path:url(#SVGID_00000105385925896855158300000007909367298540702360_);fill:#F37367;}
	.st7{clip-path:url(#SVGID_00000090981604020281712620000001179933520259439505_);fill:#F37367;}
	.st8{clip-path:url(#SVGID_00000132072881753380343950000013723625127142715524_);fill:#F37367;}
	.st9{clip-path:url(#SVGID_00000082364306629888896300000008138532231850086535_);fill:#F37367;}
</style>
<g>
	<defs>
		<rect id="SVGID_00000154404813337248276970000007445696084387568562_" x="9" y="11.5" width="62" height="57"/>
	</defs>
	<clipPath id="SVGID_00000025418854672024860150000013572780745564315287_">
		<use xlink:href="#SVGID_00000154404813337248276970000007445696084387568562_"  style="overflow:visible;"/>
	</clipPath>
	<path style="clip-path:url(#SVGID_00000025418854672024860150000013572780745564315287_);fill:#F37367;" d="M40,63
		c-9.5,0-18.9,0-28.4,0c-0.2,0-0.3,0-0.5,0c-0.2,0-0.3,0.1-0.3,0.3c0,0.5,0,1,0,1.5c0.2,1.2,1.1,1.9,2.6,1.9c17.7,0,35.4,0,53.2,0
		c0.2,0,0.3,0,0.5,0c0.9-0.1,1.5-0.5,1.9-1.3c0.2-0.4,0.2-0.9,0.2-1.3c0-1,0-1-1-1H40z M9,61.8c0.3-0.5,0.7-0.6,1.3-0.6
		c0.8,0,1.7,0,2.5,0c0.4,0,0.5-0.1,0.5-0.6c0-2.9,0-5.8,0-8.7c0-4.6,0-9.2,0-13.7c0-0.2,0-0.4,0-0.6c0.1-0.5,0.4-0.8,0.9-0.8
		c0.5,0,0.8,0.3,0.9,0.8c0,0.2,0,0.4,0,0.6c0,7.4,0,14.9,0,22.3c0,0.6,0.1,0.7,0.7,0.7c0.6,0,1.1,0,1.7,0c0.4,0,0.5-0.1,0.5-0.5
		c0-10.6,0-21.1,0-31.7c0-0.4-0.1-0.5-0.5-0.5c-0.3,0-0.5,0-0.8,0c-1,0-1.6,0.6-1.6,1.6c0,1.1,0,2.2,0,3.3c0,0.8-0.3,1.2-0.9,1.1
		c-0.6,0-0.9-0.4-0.9-1.1c0-1.1,0-2.3,0-3.4c0-1.9,1.4-3.3,3.3-3.4c0,0,0,0,0.1,0c1.4,0,1.4,0,1.4-1.4c0-1.2,0-2.4,0-3.6
		c0-1.6,1.1-2.7,2.6-2.7c2.7,0,5.4,0,8.1,0c0.7,0,1.1,0.3,1.1,0.9c0,0.6-0.4,0.9-1.1,0.9c-2.6,0-5.2,0-7.9,0c-0.9,0-1.1,0.2-1.1,1.1
		c0,12.9,0,25.7,0,38.6c0,0.5,0.1,0.6,0.6,0.6c13,0,26,0,38.9,0c0.5,0,0.6-0.1,0.6-0.6c0-12.9,0-25.7,0-38.6c0-0.9-0.2-1.1-1.1-1.1
		c-2.6,0-5.1,0-7.7,0c-0.4,0-0.7,0-0.9-0.3c-0.2-0.3-0.3-0.6-0.2-1c0.2-0.4,0.5-0.6,1-0.6c2.1,0,4.1,0,6.2,0c0.6,0,1.3,0,1.9,0
		c1.6,0,2.6,1.1,2.7,2.7c0,1.5,0,3,0,4.4c0,0.4,0.1,0.5,0.5,0.5c0.6,0,1.3-0.1,1.9,0.1c1.4,0.4,2.4,1.7,2.4,3.1c0,7.7,0,15.4,0,23.1
		c0,0.7-0.4,1.1-0.9,1.1c-0.6,0-0.9-0.4-0.9-1.2c0-7.5,0-15,0-22.4c0-0.3,0-0.5,0-0.8c-0.2-0.7-0.8-1.2-1.6-1.2
		c-1.4,0-1.4,0-1.4,1.3c0,10.2,0,20.4,0,30.6c0,0.6,0.1,0.8,0.7,0.7c0.6-0.1,1.3,0,1.9,0c0.3,0,0.4-0.1,0.4-0.4c0-1,0-2.1,0-3.1
		c0-0.9,0.3-1.4,0.9-1.4c0.6,0,0.9,0.4,0.9,1.3c0,1,0,2.1,0,3.1c0,0.4,0.1,0.5,0.5,0.5c0.9,0,1.8,0,2.7,0c0.8,0,1.2,0.3,1.2,1.2
		c0,1,0.1,1.9-0.1,2.8c-0.4,1.9-1.9,3.2-3.8,3.3c-0.2,0-0.4,0-0.6,0c-17.7,0-35.4,0-53.1,0c-1.8,0-3.1-0.6-4-2.2
		C9.2,65.9,9.1,65.5,9,65V61.8z"/>
	<path style="clip-path:url(#SVGID_00000025418854672024860150000013572780745564315287_);fill:#F37367;" d="M40,34.7
		c-3.3,0-6.5,0-9.8,0c-2,0-3.5-1.3-3.9-3.2c-0.2-1-0.1-2,0.5-2.9c3.3-5.1,6.6-10.2,9.9-15.3c1.6-2.4,5-2.4,6.7,0
		c0.4,0.5,0.7,1,1,1.6c0.4,0.6,0.3,1.1-0.2,1.4c-0.5,0.3-1,0.2-1.3-0.4c-0.3-0.5-0.6-1-1-1.5c-1-1.4-2.8-1.5-3.7,0
		c-3.3,5-6.5,10-9.8,15.1c-1,1.5,0,3.4,1.8,3.4c6.5,0,13.1,0,19.6,0c1.9,0,2.8-1.9,1.7-3.5c-2-3.2-4.1-6.3-6.2-9.5
		c-0.1-0.1-0.2-0.3-0.3-0.4c-0.3-0.6-0.3-1.1,0.2-1.4c0.5-0.3,1-0.2,1.4,0.4c2.2,3.4,4.4,6.7,6.5,10.1c0.7,1.1,0.8,2.2,0.4,3.4
		c-0.6,1.7-2,2.7-3.8,2.7C46.5,34.7,43.3,34.7,40,34.7"/>
	<path style="clip-path:url(#SVGID_00000025418854672024860150000013572780745564315287_);fill:#F37367;" d="M40.1,54.7
		c4.9,0,9.8,0,14.8,0c0.2,0,0.4,0,0.6,0c0.5,0.1,0.7,0.3,0.8,0.8c0.1,0.5-0.2,0.8-0.6,1c-0.2,0.1-0.5,0.1-0.7,0.1
		c-9.9,0-19.9,0-29.8,0c-0.3,0-0.5,0-0.8-0.1c-0.4-0.2-0.6-0.5-0.5-1c0.1-0.4,0.3-0.7,0.8-0.7c0.2,0,0.4,0,0.6,0
		C30.1,54.7,35.1,54.7,40.1,54.7"/>
	<path style="clip-path:url(#SVGID_00000025418854672024860150000013572780745564315287_);fill:#F37367;" d="M40,47.4
		c5,0,9.9,0,14.9,0c0.2,0,0.4,0,0.5,0c0.5,0.1,0.8,0.4,0.8,0.9c0,0.5-0.3,0.8-0.8,0.9c-0.2,0-0.4,0-0.5,0c-9.9,0-19.9,0-29.8,0
		c-0.2,0-0.4,0-0.6,0c-0.5-0.1-0.7-0.4-0.7-0.9c0-0.5,0.3-0.8,0.8-0.9c0.2,0,0.4,0,0.6,0C30.1,47.4,35,47.4,40,47.4"/>
	<path style="clip-path:url(#SVGID_00000025418854672024860150000013572780745564315287_);fill:#F37367;" d="M39.9,42
		c-3.5,0-7,0-10.5,0c-0.5,0-0.9-0.1-1.1-0.5c-0.3-0.5,0.1-1.2,0.7-1.3c0.2,0,0.4,0,0.6,0c6.8,0,13.7,0,20.5,0c0.1,0,0.2,0,0.4,0
		c0.6,0,1,0.4,1,0.9c0,0.5-0.4,0.9-1,0.9C46.9,42,43.4,42,39.9,42"/>
	<path style="clip-path:url(#SVGID_00000025418854672024860150000013572780745564315287_);fill:#F37367;" d="M40.9,21.5
		c0,1.3,0,2.6,0,3.9c0,0.2,0,0.3,0,0.5c-0.1,0.6-0.4,0.9-0.9,0.9c-0.5,0-0.9-0.3-0.9-0.9c0-2.9,0-5.8,0-8.7c0-0.6,0.4-1,0.9-1
		c0.5,0,0.9,0.4,0.9,1C40.9,18.6,40.9,20,40.9,21.5L40.9,21.5z"/>
	<path style="clip-path:url(#SVGID_00000025418854672024860150000013572780745564315287_);fill:#F37367;" d="M39.1,30.2
		c0-0.3,0-0.5,0.1-0.8c0.1-0.4,0.4-0.7,0.9-0.7c0.5,0,0.8,0.2,0.9,0.7c0.1,0.5,0.1,1,0,1.4c-0.1,0.5-0.4,0.8-0.9,0.8
		c-0.5,0-0.8-0.3-0.9-0.8C39.1,30.6,39.1,30.4,39.1,30.2C39.1,30.2,39.1,30.2,39.1,30.2"/>
	<path style="clip-path:url(#SVGID_00000025418854672024860150000013572780745564315287_);fill:#F37367;" d="M25.2,42
		c-0.2,0-0.4,0-0.6,0c-0.5-0.1-0.8-0.3-0.8-0.8c0-0.5,0.2-0.9,0.7-1c0.5-0.1,1-0.1,1.5,0c0.5,0.1,0.8,0.5,0.7,1
		c-0.1,0.5-0.4,0.8-0.8,0.8C25.6,42,25.4,42,25.2,42"/>
	<path style="clip-path:url(#SVGID_00000025418854672024860150000013572780745564315287_);fill:#F37367;" d="M54.7,42
		c-0.2,0-0.4,0-0.6,0c-0.5-0.1-0.8-0.3-0.8-0.9c0-0.5,0.3-0.9,0.8-0.9c0.4-0.1,0.9,0,1.3,0c0.5,0,0.8,0.4,0.8,0.9
		c0,0.5-0.4,0.8-0.9,0.9C55.1,42,54.9,42,54.7,42L54.7,42z"/>
</g>
</svg>
