<?xml version="1.0" encoding="utf-8"?>
<!-- Generator: Adobe Illustrator 25.4.1, SVG Export Plug-In . SVG Version: 6.00 Build 0)  -->
<svg version="1.1" id="Layer_1" xmlns="http://www.w3.org/2000/svg" xmlns:xlink="http://www.w3.org/1999/xlink" x="0px" y="0px"
	 viewBox="0 0 105 105" style="enable-background:new 0 0 105 105;" xml:space="preserve">
<style type="text/css">
	.st0{fill:#FFFFFF;}
	.st1{fill:#A0A5B6;}
	.st2{clip-path:url(#SVGID_00000181794856917950828690000017579998800763989122_);fill:#F37367;}
	.st3{clip-path:url(#SVGID_00000120560632515300624000000003031568416352599965_);fill:#A0A5B6;}
	.st4{fill:#F37367;}
</style>
<g>
	<path class="st0" d="M52.5,98.6c1.4,0,2.7,0,4.1,0c0.6,0,0.8-0.2,0.8-0.8c0-2,0-4.1,0-6.2c0-1.6,0.5-2.2,2-2.5
		c5.1-1,9.9-3,14.2-5.9c1.1-0.8,2-0.7,3,0.3c1.5,1.5,3,3,4.5,4.5c0.4,0.5,0.7,0.5,1.2,0c1.9-2,3.8-3.9,5.8-5.8
		c0.5-0.5,0.4-0.8,0-1.2c-1.5-1.4-3-2.9-4.4-4.4c-1-1-1.1-1.8-0.3-3c3-4.4,4.9-9.1,5.9-14.3c0.3-1.4,0.9-1.9,2.4-1.9
		c2.1,0,4.2,0,6.2,0c0.6,0,0.8-0.1,0.8-0.8c0-2.7,0-5.5,0-8.2c0-0.6-0.2-0.8-0.8-0.8c-2,0-4.1,0-6.2,0c-1.6,0-2.2-0.5-2.5-2
		c-1-5.1-3-9.9-5.9-14.2c-0.8-1.1-0.7-2,0.3-3c1.5-1.5,3-3,4.5-4.5c0.5-0.4,0.5-0.7,0-1.2c-2-1.9-3.9-3.8-5.8-5.8
		c-0.5-0.5-0.8-0.4-1.2,0c-1.4,1.5-2.9,3-4.4,4.4c-1,1-1.8,1.1-3,0.3c-4.4-3-9.1-4.9-14.3-5.9c-1.4-0.3-1.9-0.9-1.9-2.4
		c0-2.1,0-4.2,0-6.2c0-0.6-0.1-0.8-0.8-0.8c-2.7,0-5.5,0-8.2,0c-0.6,0-0.8,0.1-0.8,0.8c0,2.1,0,4.1,0,6.2c0,1.6-0.5,2.2-2,2.5
		c-5.1,1-9.9,3-14.2,5.9c-1.2,0.8-2,0.7-3-0.4c-1.5-1.5-3-2.9-4.4-4.4c-0.4-0.5-0.7-0.5-1.2,0c-1.9,2-3.8,3.9-5.8,5.8
		c-0.5,0.5-0.4,0.8,0,1.2c1.5,1.4,3,2.9,4.4,4.4c1,1,1.1,1.8,0.3,3c-3,4.4-4.9,9.1-5.9,14.3c-0.3,1.4-0.9,1.9-2.4,1.9
		c-2.1,0-4.2,0-6.2,0c-0.6,0-0.8,0.1-0.8,0.8c0,2.7,0,5.5,0,8.2c0,0.6,0.2,0.8,0.8,0.8c2.1,0,4.1,0,6.2,0c1.6,0,2.2,0.5,2.5,2
		c1,5.1,3,9.9,5.9,14.2c0.8,1.1,0.7,2-0.3,3c-1.5,1.5-3,3-4.5,4.5c-0.5,0.5-0.4,0.7,0,1.1c2,1.9,3.9,3.8,5.8,5.8
		c0.5,0.5,0.8,0.4,1.2-0.1c1.4-1.5,2.9-3,4.4-4.4c1-1,1.8-1.1,3-0.3c4.4,3,9.1,4.9,14.3,5.9c1.4,0.3,1.9,0.9,1.9,2.4
		c0,2.1,0,4.2,0,6.3c0,0.5,0.1,0.7,0.7,0.7C49.7,98.6,51.1,98.6,52.5,98.6 M59.9,2.5C61,3,61.4,3.9,61.3,5c-0.1,2.1,0,4.3,0,6.4
		c0,0.6,0.2,0.8,0.8,1c4.3,1,8.2,2.6,11.9,4.9c0.6,0.4,0.9,0.3,1.4-0.2c1.5-1.6,3.1-3.1,4.6-4.6c1.2-1.1,2.1-1.1,3.3,0
		c3,3,6.1,6.1,9.1,9.1c1.2,1.2,1.2,2.2,0,3.4c-1.5,1.5-3.1,3.1-4.6,4.6c-0.4,0.4-0.5,0.7-0.2,1.2c2.3,3.7,4,7.7,5,12
		c0.1,0.6,0.4,0.8,1,0.8c2.2,0,4.5,0,6.7,0c1.5,0,2.2,0.7,2.2,2.2c0,4.4,0,8.8,0,13.2c0,1.5-0.7,2.2-2.2,2.2c-2.2,0-4.5,0-6.7,0
		c-0.6,0-0.9,0.2-1,0.8c-1,4.3-2.6,8.3-5,12c-0.3,0.5-0.2,0.8,0.2,1.2c1.6,1.5,3.1,3.1,4.7,4.7c1.1,1.1,1.1,2.1,0,3.3
		c-3.1,3.1-6.2,6.2-9.3,9.3c-1.1,1.1-2.1,1-3.1,0c-1.6-1.6-3.2-3.1-4.7-4.7c-0.5-0.5-0.8-0.6-1.4-0.2c-3.7,2.3-7.7,4-11.9,4.9
		c-0.6,0.1-0.8,0.4-0.8,1c0,2.2,0,4.5,0,6.7c0,1.5-0.7,2.2-2.2,2.2c-4.4,0-8.8,0-13.2,0c-1.5,0-2.2-0.7-2.2-2.2c0-2.2,0-4.4,0-6.6
		c0-0.7-0.2-1-0.9-1.1c-4.2-1-8.2-2.6-11.9-5c-0.5-0.3-0.8-0.2-1.2,0.2c-1.5,1.6-3.1,3.1-4.7,4.7c-1.2,1.1-2.1,1.1-3.3,0
		c-3.1-3.1-6.1-6.1-9.2-9.2c-1.1-1.1-1.1-2.1,0-3.3c1.5-1.5,3.1-3.1,4.6-4.6c0.5-0.5,0.6-0.8,0.2-1.4c-2.3-3.7-4-7.7-4.9-11.9
		c-0.1-0.6-0.4-0.8-1-0.8c-2.1,0-4.3,0-6.4,0c-1.2,0-2-0.3-2.5-1.4V45.1C3,44,3.9,43.6,5,43.7c2.1,0.1,4.3,0,6.4,0
		c0.6,0,0.8-0.2,1-0.8c1-4.3,2.6-8.3,5-12c0.3-0.5,0.2-0.8-0.2-1.2c-1.6-1.5-3.1-3.1-4.7-4.7c-1.1-1.2-1.1-2.1,0-3.3
		c3.1-3.1,6.1-6.1,9.2-9.2c1.1-1.1,2.1-1.1,3.3,0c1.6,1.6,3.1,3.1,4.7,4.7c0.4,0.4,0.7,0.5,1.2,0.2c3.7-2.3,7.7-4,12-5
		c0.6-0.1,0.8-0.4,0.8-1c0-2.1,0-4.3,0-6.4c0-1.2,0.3-2,1.4-2.5H59.9z"/>
	<path class="st0" d="M81.9,52.5c0-16.2-13.3-29.5-29.5-29.4c-16.2,0-29.3,13.2-29.4,29.4C23,68.6,36.2,81.9,52.5,81.9
		C68.6,82,81.9,68.7,81.9,52.5 M52.5,19.2c18.3,0,33.4,15,33.4,33.3c0,18.4-15.1,33.4-33.4,33.3c-18.4-0.1-33.3-15-33.3-33.3
		C19.1,34.2,34.1,19.2,52.5,19.2"/>
	<path class="st0" d="M37.8,44.6c0,0.6,0,1.1,0,1.7c0.1,10,4.4,17.6,12.7,23.2c1.5,1,2.5,1.1,4.1,0C61.2,65,65.5,59,66.8,51
		c0.6-3.5,0.3-7,0.4-10.5c0-0.5-0.3-0.6-0.7-0.8c-4.5-1.8-8.9-3.6-13.4-5.4c-0.4-0.2-0.8-0.2-1.2,0c-4.5,1.8-9,3.6-13.5,5.4
		c-0.5,0.2-0.6,0.4-0.6,0.9C37.8,42,37.8,43.3,37.8,44.6 M71.1,44.6c0.2,4.1-0.3,8.9-2.2,13.4c-2.4,5.9-6.2,10.6-11.5,14.2
		c-1.2,0.8-2.5,1.6-3.7,2.4c-0.7,0.4-1.4,0.6-2.1,0.1c-4.2-2.5-8.3-5.3-11.3-9.3c-4-5.2-6.2-11.1-6.3-17.7c-0.1-3,0-5.9,0-8.9
		c0-1.1,0.5-1.7,1.5-2.1c5.3-2.1,10.7-4.3,16-6.4c0.7-0.3,1.4-0.3,2.2,0c5.3,2.1,10.7,4.3,16,6.4c1,0.4,1.5,1.1,1.5,2.2
		C71.1,40.6,71.1,42.2,71.1,44.6"/>
	<path class="st0" d="M50.5,57.8c-0.6,0-1.1-0.2-1.5-0.7c-1.6-1.6-3.1-3.1-4.7-4.7c-0.9-0.9-0.9-2.1-0.1-2.9
		c0.8-0.8,1.9-0.8,2.8,0.1c1,0.9,2,1.9,2.9,2.9c0.4,0.5,0.7,0.5,1.1,0c2.2-2.2,4.4-4.4,6.6-6.6c0.5-0.5,1.1-0.9,1.9-0.8
		c0.8,0.1,1.3,0.5,1.6,1.3c0.3,0.7,0.1,1.4-0.4,2c-0.8,0.8-1.6,1.7-2.5,2.5c-2,2-4.1,4-6.1,6.1C51.7,57.4,51.2,57.8,50.5,57.8"/>
</g>
</svg>
