<?xml version="1.0" encoding="utf-8"?>
<!-- Generator: Adobe Illustrator 25.4.1, SVG Export Plug-In . SVG Version: 6.00 Build 0)  -->
<svg version="1.1" id="Layer_1" xmlns="http://www.w3.org/2000/svg" xmlns:xlink="http://www.w3.org/1999/xlink" x="0px" y="0px"
	 viewBox="0 0 80 80" style="enable-background:new 0 0 80 80;" xml:space="preserve">
<style type="text/css">
	.st0{clip-path:url(#SVGID_00000017496835680483161610000015086667585523546507_);fill:#F37367;}
	.st1{fill:#F37367;}
	.st2{clip-path:url(#SVGID_00000178902556892762479890000010236048806180540549_);fill:#F37367;}
	.st3{clip-path:url(#SVGID_00000049199689993612549730000000228454712680828306_);fill:#F37367;}
	.st4{clip-path:url(#SVGID_00000098930459850115570410000014905442109928865211_);fill:#F37367;}
	.st5{clip-path:url(#SVGID_00000031179141739646188180000005587026040245864331_);fill:#F37367;}
	.st6{clip-path:url(#SVGID_00000045595419080871723790000015454342765997119916_);fill:#F37367;}
	.st7{clip-path:url(#SVGID_00000084507912768403643040000010608673083307955637_);fill:#F37367;}
	.st8{clip-path:url(#SVGID_00000023254425869856799770000009168514315928136639_);fill:#F37367;}
	.st9{clip-path:url(#SVGID_00000152243370557287479960000007787031167896113058_);fill:#F37367;}
</style>
<g>
	<defs>
		<rect id="SVGID_00000129905707905890237870000012786131198025056419_" x="11.5" y="11.7" width="57" height="56.6"/>
	</defs>
	<clipPath id="SVGID_00000049906941282574504120000000090847009024962472_">
		<use xlink:href="#SVGID_00000129905707905890237870000012786131198025056419_"  style="overflow:visible;"/>
	</clipPath>
	<path style="clip-path:url(#SVGID_00000049906941282574504120000000090847009024962472_);fill:#F37367;" d="M47.6,64.5
		c-0.5,0-0.9,0.4-0.9,0.9c0,0.5,0.5,1,1,0.9c0.5,0,0.9-0.5,0.9-1C48.5,64.9,48.1,64.5,47.6,64.5 M26.7,66.3c0.5,0,0.9-0.4,1-0.9
		c0-0.5-0.4-1-1-1c-0.5,0-0.9,0.4-0.9,0.9C25.8,65.9,26.2,66.3,26.7,66.3 M56.1,60.7c0.5,0,1-0.4,1-0.9c0-0.5-0.4-0.9-0.9-1
		c-0.5,0-1,0.4-1,0.9C55.2,60.2,55.6,60.7,56.1,60.7 M17.2,56c0.5,0,0.9-0.4,1-0.9c0-0.5-0.4-1-1-1c-0.5,0-0.9,0.4-0.9,0.9
		C16.3,55.5,16.7,56,17.2,56 M66.6,51.3c0-0.5-0.4-0.9-0.9-0.9c-0.5,0-0.9,0.4-1,0.9c0,0.5,0.4,1,1,1C66.2,52.2,66.6,51.8,66.6,51.3
		 M15.3,41.8c0-0.5-0.4-0.9-0.9-0.9c-0.5,0-0.9,0.4-1,0.9c0,0.5,0.4,1,1,1C14.9,42.8,15.3,42.3,15.3,41.8 M65.6,37.1
		c0.5,0,0.9-0.4,1-0.9c0-0.5-0.4-0.9-0.9-1c-0.5,0-1,0.4-1,0.9C64.7,36.7,65.1,37.1,65.6,37.1 M61.8,28.6c0.5,0,0.9-0.4,0.9-0.9
		c0-0.5-0.4-0.9-0.9-1c-0.5,0-1,0.4-1,0.9C60.9,28.2,61.3,28.6,61.8,28.6 M19.1,27.7c0-0.5-0.4-0.9-0.9-0.9c-0.5,0-0.9,0.4-1,0.9
		c0,0.5,0.4,1,1,1C18.7,28.6,19.1,28.2,19.1,27.7 M40,16.4c-0.5,0-0.9,0.4-0.9,0.9c0,0.5,0.4,1,1,0.9c0.5,0,0.9-0.5,0.9-1
		C40.9,16.8,40.5,16.4,40,16.4 M55.2,15.5c-0.5,0-0.9,0.4-1,0.9c0,0.5,0.4,1,0.9,1c0.5,0,0.9-0.4,0.9-0.9
		C56.2,15.9,55.7,15.5,55.2,15.5 M27.6,14.5c0-0.5-0.4-0.9-0.9-0.9c-0.5,0-0.9,0.4-1,0.9c0,0.5,0.4,1,1,1
		C27.2,15.4,27.7,15,27.6,14.5 M39.9,51.3c2.8,0,5.6,0,8.4,0c1.8,0,3-1.2,3-3c0-5.6,0-11.1,0-16.7c0-1.8-1.2-3-3-3
		c-5.6,0-11.2,0-16.7,0c-1.8,0-3,1.2-3,3c0,5.5,0,11,0,16.6c0,1.9,1.2,3,3.1,3C34.4,51.3,37.2,51.3,39.9,51.3 M22.4,44.7
		c-1.3,0-2.6,0-3.9,0c-0.3,0-0.4-0.1-0.4-0.4c0-1.5,0-1.5,1.4-1.5c2.2,0,4.4,0,6.6,0c0.4,0,0.6,0,0.6-0.5c0-1.4,0-1.4-1.4-1.4h-0.1
		c-1.5,0-1.5,0-1.4-1.5c0-0.3,0.1-0.4,0.4-0.4c0.7,0,1.3,0,2,0c0.3,0,0.4-0.1,0.4-0.4c0-1.5,0-1.5-1.4-1.5c-1.2,0-2.4,0-3.6,0
		c-0.2,0-0.4,0-0.7,0.2c-1.2,1-2.5,2.1-3.7,3.1c-0.3,0.2-0.3,0.5-0.2,0.8c0.3,1.2-0.2,2.4-1.3,3c-1.1,0.6-2.4,0.5-3.3-0.3
		c-0.9-0.8-1.3-2.1-0.8-3.2c0.5-1.1,1.6-1.8,2.8-1.7c0.1,0,0.2,0,0.3,0c0.7,0.4,1.2,0,1.7-0.4c1.2-1.1,2.5-2.1,3.7-3.1
		c0.2-0.2,0.5-0.3,0.8-0.3c1.7,0,3.4,0,5,0c0.4,0,0.6-0.1,0.6-0.5c0-1.4,0-1.4-1.4-1.4c-0.8,0-1.6,0-2.4,0c-0.3,0-0.5-0.1-0.7-0.3
		c-0.8-0.8-1.7-1.6-2.5-2.5c-0.2-0.2-0.4-0.3-0.8-0.2c-1.3,0.4-2.6-0.1-3.3-1.3c-0.7-1.1-0.5-2.5,0.5-3.4c0.9-0.9,2.3-1.1,3.4-0.4
		c1.1,0.6,1.7,2,1.3,3.3c-0.1,0.3-0.1,0.5,0.2,0.7c0.7,0.7,1.4,1.3,2,2c0.2,0.2,0.4,0.3,0.6,0.2c0.9,0,1.7,0,2.6,0
		c0.3,0,0.5,0,0.5-0.4c0.3-2.3,1.9-4,4.3-4.3c0.4,0,0.5-0.1,0.5-0.5c0-1.8,0-3.6,0-5.4c0-0.3-0.1-0.5-0.3-0.7c-1-1-2-1.9-2.9-2.9
		c-0.2-0.2-0.4-0.2-0.7-0.2c-1.3,0.4-2.6-0.2-3.3-1.3c-0.7-1.1-0.5-2.5,0.5-3.4c0.9-0.9,2.3-1.1,3.4-0.4c1.1,0.6,1.7,2,1.3,3.2
		c-0.1,0.4,0,0.5,0.2,0.8c1.1,1.1,2.2,2.2,3.4,3.3c0.3,0.3,0.4,0.5,0.4,0.9c0,2,0,4,0,6c0,0.4,0.1,0.6,0.6,0.6c1.4,0,1.4,0,1.4-1.3
		v-0.1c0-1.5,0-1.5,1.5-1.4c0.3,0,0.4,0.1,0.4,0.4c0,0.7,0,1.4,0,2.1c0,0.3,0.1,0.4,0.4,0.4c1.5,0.1,1.5,0.1,1.5-1.4
		c0-1.6,0-3.2,0-4.8c0-0.3-0.1-0.5-0.4-0.7c-1.2-0.6-1.7-1.9-1.4-3.2c0.3-1.2,1.5-2.1,2.8-2.1c1.3,0,2.4,0.9,2.7,2.1
		c0.3,1.3-0.2,2.6-1.4,3.2c-0.3,0.2-0.4,0.4-0.4,0.7c0,1.9,0,3.8,0,5.8c0,0.4,0.1,0.5,0.5,0.5c1.4,0,1.4,0,1.4-1.4v-0.1
		c0-1.5,0-1.5,1.5-1.4c0.3,0,0.4,0.1,0.4,0.4c0,0.7,0,1.3,0,2c0,0.3,0.1,0.4,0.4,0.4c1.5,0,1.6,0,1.4-1.4c-0.1-1.3,0.3-2.3,1.3-3.2
		c1.5-1.3,2.9-2.8,4.3-4.3c0.2-0.2,0.3-0.4,0.2-0.8c-0.4-1.3,0.1-2.6,1.3-3.2c1.1-0.6,2.5-0.5,3.4,0.4c0.9,0.9,1.1,2.3,0.4,3.4
		c-0.7,1.1-2,1.7-3.3,1.3c-0.4-0.1-0.5,0-0.8,0.2c-1.6,1.6-3.2,3.1-4.7,4.7c-0.2,0.2-0.4,0.4-0.3,0.8c0,0.1,0,0.2,0,0.4
		c0,0.5-0.1,1.1,0,1.5c0.2,0.4,0.9,0.2,1.3,0.4c2,0.7,3.1,2,3.4,4.1c0,0.4,0.2,0.5,0.5,0.4c0,0,0,0,0.1,0c1,0,2.1,0.3,2.9-0.1
		c0.9-0.5,1.6-1.5,2.4-2.2c0.3-0.2,0.1-0.4,0.1-0.7c-0.3-1.2,0-2.2,1-3c0.9-0.7,2-0.9,3.1-0.3c1.1,0.5,1.6,1.4,1.6,2.6
		c-0.1,1.8-1.8,3.1-3.6,2.6c-0.4-0.1-0.6-0.1-0.9,0.2c-0.8,0.8-1.5,1.5-2.3,2.3c-0.3,0.3-0.6,0.5-1,0.4c-1,0-2.1,0-3.1,0
		c-0.4,0-0.5,0.1-0.5,0.5c0,1.4,0,1.4,1.4,1.4c1.5,0,1.5,0,1.4,1.4c0,0.4-0.1,0.5-0.5,0.5c-0.7,0-1.3,0-2,0c-0.3,0-0.4,0.1-0.4,0.4
		c0,1.5,0,1.4,1.5,1.5c2.1,0.2,4-0.2,5.8-1.4c0.6-0.4,1.2-0.6,1.9-0.9c0.3-0.1,0.4-0.3,0.4-0.6c0-1.4,0.9-2.4,2.3-2.7
		c1.2-0.3,2.5,0.3,3.1,1.5c0.6,1.2,0.3,2.5-0.6,3.4c-1,0.9-2.4,1-3.5,0.2c-0.3-0.2-0.5-0.2-0.8,0c-1.5,0.8-3,1.5-4.5,2.2
		c-0.3,0.1-0.6,0.2-0.9,0.2c-1.3,0-2.7,0-4,0c-0.4,0-0.5,0.1-0.5,0.5c0,1.4,0,1.4,1.4,1.4c1,0,2,0,3,0c0.3,0,0.4,0.1,0.4,0.4
		c0.1,1.5,0.1,1.5-1.4,1.5c-1,0-1.9,0-2.9,0c-0.4,0-0.5,0.1-0.5,0.5c0,1.4,0,1.4,1.4,1.4c2.4,0,4.7,0,7.1,0c0.3,0,0.6,0.1,0.8,0.3
		c0.5,0.5,1,0.9,1.4,1.4c0.3,0.3,0.5,0.4,0.9,0.2c1.2-0.4,2.4,0.1,3.1,1.2c0.7,1,0.6,2.4-0.2,3.3c-0.8,1-2.1,1.3-3.3,0.9
		c-1.1-0.4-1.9-1.6-1.8-2.8c0-0.1,0-0.1,0-0.2c0-0.3,0.4-0.7,0.2-0.9c-0.4-0.5-1-1-1.5-1.5c-0.1-0.1-0.3,0-0.5,0c-2.4,0-4.8,0-7.2,0
		c-0.4,0-0.5,0.1-0.6,0.5c-0.3,2.3-1.9,3.9-4.2,4.2c-0.4,0-0.5,0.1-0.5,0.5c0,1.6,0,3.1,0,4.7c0,0.4,0.1,0.5,0.5,0.5
		c1.3,0,2.7,0,4,0c0.3,0,0.5-0.1,0.6-0.4c0.6-1.2,1.9-1.7,3.2-1.4c1.3,0.3,2.1,1.4,2.1,2.7c0,1.3-0.9,2.4-2.2,2.8
		c-1.3,0.3-2.6-0.2-3.2-1.4c-0.2-0.3-0.3-0.4-0.6-0.4c-1.9,0-3.9,0-5.8,0c-0.4,0-0.6-0.1-0.6-0.6c0-2.2,0-4.3,0-6.5
		c0-0.4-0.1-0.5-0.5-0.5c-1.4,0-1.4,0-1.4,1.4v0.1c0,1.5-0.1,1.6-1.6,1.4c-0.3,0-0.3-0.2-0.3-0.4c0-0.7,0-1.3,0-2
		c0-0.3-0.1-0.4-0.4-0.4c-1.5,0-1.5,0-1.5,1.4c0,1.7,0,3.4,0,5.1c0,0.3,0.1,0.5,0.4,0.7c1.4,0.8,2.8,1.7,4.1,2.6
		c0.3,0.2,0.5,0.2,0.7,0c1.2-0.7,2.6-0.5,3.5,0.5c0.9,0.9,1.1,2.4,0.4,3.5c-0.7,1.1-2,1.6-3.3,1.2c-1.3-0.4-2.1-1.5-2-2.9
		c0-0.4-0.1-0.6-0.4-0.8c-1.6-1-3.3-2-4.9-3c-0.3-0.2-0.4-0.4-0.4-0.8c0-2.3,0-4.7,0-7c0-0.4,0-0.6-0.5-0.6c-1.4,0-1.4,0-1.4,1.4
		c0,1.3,0,2.6,0,3.8c0,0.3-0.1,0.5-0.5,0.5c-1.5,0-1.5,0-1.5-1.4c0-1.3,0-2.5,0-3.8c0-0.4-0.1-0.5-0.5-0.5c-1.4,0-1.4,0-1.4,1.4
		c0,1.7,0,3.4,0,5.1c0,0.3-0.1,0.6-0.3,0.8c-1.1,1.1-2.2,2.2-3.4,3.3c-0.2,0.2-0.4,0.4-0.2,0.8c0.4,1.3-0.2,2.6-1.3,3.2
		c-1.1,0.6-2.5,0.5-3.4-0.5c-0.9-0.9-1.1-2.3-0.4-3.4c0.7-1.1,2-1.6,3.2-1.3c0.4,0.1,0.6,0,0.8-0.2c0.9-1,1.9-1.9,2.9-2.8
		c0.2-0.2,0.3-0.4,0.3-0.7c0-1.8,0-3.5,0-5.3c0-0.4-0.1-0.5-0.5-0.5c-2.3-0.3-4-1.9-4.3-4.2c0-0.4-0.2-0.5-0.5-0.5
		c-1.1,0-2.2,0-3.3,0c-0.3,0-0.5,0.1-0.7,0.4c-0.9,1.3-1.8,2.7-2.7,4c-0.2,0.3-0.2,0.4,0,0.7c0.8,1.1,0.6,2.5-0.3,3.5
		c-0.9,0.9-2.3,1.2-3.5,0.6c-1.1-0.6-1.7-2-1.4-3.2c0.3-1.3,1.5-2.1,2.9-2.1c0.3,0,0.5-0.1,0.7-0.4c1.1-1.6,2.2-3.2,3.2-4.9
		c0.2-0.3,0.4-0.4,0.8-0.4c1.4,0,2.8,0,4.2,0c0.4,0,0.6-0.1,0.5-0.5c0-1.4,0-1.4-1.4-1.4C24.3,44.7,23.4,44.7,22.4,44.7"/>
	<path style="clip-path:url(#SVGID_00000049906941282574504120000000090847009024962472_);fill:#F37367;" d="M35.3,21
		c0-0.9,0-0.9,0.9-0.9c1,0,1,0,1,1c0,0.9,0,0.9-0.9,0.9C35.3,22,35.3,22,35.3,21"/>
	<path style="clip-path:url(#SVGID_00000049906941282574504120000000090847009024962472_);fill:#F37367;" d="M44.8,21.2
		c0,0.9,0,0.9-0.9,0.9c-1,0-1,0-1-1c0-0.9,0-0.9,0.9-0.9C44.8,20.2,44.8,20.2,44.8,21.2"/>
	<path style="clip-path:url(#SVGID_00000049906941282574504120000000090847009024962472_);fill:#F37367;" d="M25.7,27.7
		c-0.9,0-0.9,0-0.9-0.9c0-1,0-1,1-1c0.1,0,0.3,0,0.4,0c0.4-0.1,0.6,0.1,0.5,0.5c0,0.1,0,0.2,0,0.4C26.7,27.7,26.7,27.7,25.7,27.7"/>
	<path style="clip-path:url(#SVGID_00000049906941282574504120000000090847009024962472_);fill:#F37367;" d="M53.3,26.7
		c0-0.9,0-0.9,0.9-0.9c1,0,1,0,1,1c0,0.9,0,0.9-0.9,0.9C53.3,27.7,53.3,27.7,53.3,26.7"/>
	<path style="clip-path:url(#SVGID_00000049906941282574504120000000090847009024962472_);fill:#F37367;" d="M60,36.2c0,1,0,1-1.1,1
		c-0.8,0-0.8,0-0.8-1.1c0-0.8,0-0.8,1.2-0.8C60,35.2,60,35.2,60,36.2"/>
	<path style="clip-path:url(#SVGID_00000049906941282574504120000000090847009024962472_);fill:#F37367;" d="M21.9,40
		c0,0.9,0,0.9-1.1,0.9c-0.8,0-0.8,0-0.8-1.1c0-0.7,0-0.7,1.2-0.7C21.9,39,21.9,39,21.9,40"/>
	<path style="clip-path:url(#SVGID_00000049906941282574504120000000090847009024962472_);fill:#F37367;" d="M60.9,44.7
		c-1,0-1,0-1-1.1c0-0.8,0-0.8,1.1-0.8c0.8,0,0.8,0,0.8,1.2C61.9,44.7,61.9,44.7,60.9,44.7"/>
	<path style="clip-path:url(#SVGID_00000049906941282574504120000000090847009024962472_);fill:#F37367;" d="M25.7,54.1
		c-0.9,0-0.9,0-0.9-1.1c0-0.8,0-0.8,1.2-0.8c0.7,0,0.7,0,0.7,1.2C26.7,54.1,26.7,54.1,25.7,54.1"/>
	<path style="clip-path:url(#SVGID_00000049906941282574504120000000090847009024962472_);fill:#F37367;" d="M55.2,53.1c0,1,0,1-1,1
		c-0.9,0-0.9,0-0.9-0.9c0-1,0-1,1-1C55.2,52.2,55.2,52.2,55.2,53.1"/>
	<path style="clip-path:url(#SVGID_00000049906941282574504120000000090847009024962472_);fill:#F37367;" d="M43.8,59.8
		c-1,0-1,0-1-1c0-0.9,0-0.9,0.9-0.9c1,0,1,0,1,1C44.8,59.8,44.8,59.8,43.8,59.8"/>
	<path style="clip-path:url(#SVGID_00000049906941282574504120000000090847009024962472_);fill:#F37367;" d="M36.3,60.7
		c0.9,0,0.9,0,0.9,0.9c0,1,0,1-1,1c-0.1,0-0.3,0-0.4,0c-0.4,0.1-0.6-0.1-0.5-0.5c0-0.1,0-0.2,0-0.4C35.3,60.7,35.3,60.7,36.3,60.7"
		/>
	<path style="clip-path:url(#SVGID_00000049906941282574504120000000090847009024962472_);fill:#F37367;" d="M40,36.2
		c0.8,0,1.6,0,2.4,0c0.2,0,0.3,0.1,0.4-0.2c0.4-1.6-1-3.5-2.7-3.6c-1.9-0.1-3.4,1.7-3,3.5c0.1,0.3,0.2,0.2,0.4,0.2
		C38.4,36.2,39.2,36.2,40,36.2 M40,47.5c1.2,0,2.4,0,3.6,0c0.9,0,1.2-0.3,1.2-1.2c0-2.4,0-4.7,0-7.1c0-0.8-0.3-1.2-1.2-1.2
		c-2.4,0-4.8,0-7.1,0c-0.9,0-1.2,0.3-1.2,1.2c0,2.4,0,4.7,0,7.1c0,0.8,0.3,1.2,1.2,1.2C37.6,47.5,38.8,47.5,40,47.5 M46.7,42.8
		c0,1.2,0,2.4,0,3.6c0,1.8-1.2,2.9-3,3c-2.4,0-4.9,0-7.3,0c-1.8,0-3-1.2-3-3c0-2.4,0-4.7,0-7.1c0-1.3,0.5-2.2,1.6-2.8
		c0.3-0.1,0.3-0.3,0.3-0.5c0-0.5,0-1.1,0.1-1.6c0.5-2.3,2.6-3.9,5-3.8c2.4,0.2,4.3,2.1,4.4,4.5c0,0,0,0.1,0,0.1
		c-0.1,0.7,0,1.3,0.8,1.7c0.8,0.4,1.1,1.3,1.1,2.2C46.7,40.3,46.7,41.6,46.7,42.8"/>
	<path style="clip-path:url(#SVGID_00000049906941282574504120000000090847009024962472_);fill:#F37367;" d="M40,40.9
		c-0.5,0-0.9,0.4-1,0.9c0,0.5,0.4,0.9,0.9,1c0.5,0,1-0.4,1-0.9C41,41.3,40.5,40.9,40,40.9 M40,46.6c-1,0-1,0-1-1c0-0.2,0-0.4,0-0.6
		c0-0.3-0.1-0.5-0.4-0.7c-1.2-0.6-1.7-1.9-1.4-3.1c0.3-1.3,1.5-2.2,2.8-2.2c1.3,0,2.4,0.9,2.7,2.1c0.3,1.3-0.2,2.6-1.4,3.2
		c-0.3,0.2-0.4,0.4-0.4,0.7c0,0.2,0,0.4,0,0.6C41,46.6,41,46.6,40,46.6"/>
</g>
</svg>
