<?xml version="1.0" encoding="utf-8"?>
<!-- Generator: Adobe Illustrator 25.4.1, SVG Export Plug-In . SVG Version: 6.00 Build 0)  -->
<svg version="1.1" id="Layer_1" xmlns="http://www.w3.org/2000/svg" xmlns:xlink="http://www.w3.org/1999/xlink" x="0px" y="0px"
	 viewBox="0 0 80 80" style="enable-background:new 0 0 80 80;" xml:space="preserve">
<style type="text/css">
	.st0{clip-path:url(#SVGID_00000132087820554214859100000013448855133344616370_);fill:#F37367;}
	.st1{fill:#F37367;}
	.st2{clip-path:url(#SVGID_00000052072925573199128800000010986402260113017530_);fill:#F37367;}
	.st3{clip-path:url(#SVGID_00000134220172488144674060000002680665501861046167_);fill:#F37367;}
	.st4{clip-path:url(#SVGID_00000100377563138486327510000008320684154568529537_);fill:#F37367;}
	.st5{clip-path:url(#SVGID_00000128455102762488431190000000864357650411049646_);fill:#F37367;}
	.st6{clip-path:url(#SVGID_00000178885745125358646220000005503620813489032083_);fill:#F37367;}
	.st7{clip-path:url(#SVGID_00000067928484178244440170000015576258531899740050_);fill:#F37367;}
	.st8{clip-path:url(#SVGID_00000125584045419633080540000005742468809774700463_);fill:#F37367;}
	.st9{clip-path:url(#SVGID_00000124147201628262730560000000345634356174004904_);fill:#F37367;}
</style>
<path class="st1" d="M77.9,51.3c0-1.4-1-2.7-2.4-3c-1.5-0.4-3,0.2-3.7,1.5c-0.3,0.6-0.7,0.8-1.4,0.8c-0.9,0-1.9,0-3.2,0
	c-0.3,0-0.5,0-0.7-0.2c-0.1-0.2-0.1-0.5,0-0.7c0.8-2.1,1.3-4.3,1.6-6.7c0-0.2,0-0.3,0-0.5c0-0.5-0.1-1,0.4-1.3
	c0.3-0.2,0.8-0.2,1.2-0.2c0.2,0,0.4,0,0.6,0c0.7-0.1,1.1,0.2,1.5,0.8c0.7,1.3,2.3,1.9,3.7,1.5c1.4-0.4,2.4-1.8,2.3-3.3
	c0-1.4-1.1-2.7-2.4-3c-1.5-0.4-3,0.3-3.7,1.6c0,0,0,0.1-0.1,0.1c-0.1,0.2-0.3,0.6-0.8,0.6c0,0,0,0-0.1,0c-0.6,0-1.2,0-1.8,0l-0.1,0
	c-0.4,0-0.7-0.2-0.7-0.7c-0.1-2.7-0.7-5.5-1.7-8.1c-0.1-0.2-0.1-0.5,0-0.7c0.1-0.2,0.4-0.2,0.7-0.2l0.2,0c1,0,2.1,0,3.2,0
	c0.5,0,0.9,0.2,1.1,0.7c0.7,1.3,2.1,1.9,3.4,1.7c1.5-0.3,2.7-1.6,2.7-3.1c0.1-1.5-1-2.9-2.4-3.3c-1.5-0.4-3,0.3-3.7,1.7
	c-0.3,0.6-0.7,0.7-1.1,0.7l-0.2,0c-1.3,0-2.6,0-3.9,0c-0.8,0-1.2-0.3-1.5-0.9c-4.2-7.7-10.7-12.5-19.2-14.5
	c-2.6-0.6-5.3-0.6-7.9-0.6c-0.6,0-1.2,0-1.7,0c-0.7,0-1.1,0.2-1.3,0.9c-0.6,2-1.3,3.9-2,5.8c-0.3,0.7-0.7,1.2-1.2,1.4
	c-0.5,0.2-1.2,0.2-1.9-0.2c-1-0.5-1.9-0.9-2.9-1.4l-1.9-0.9c-1.7-0.8-1.7-0.8-3,0.5c-0.3,0.4-0.6,0.9-0.2,1.4
	c0.2,0.2,0.4,0.3,0.6,0.3c0,0,0,0,0,0c0.3,0,0.5-0.1,0.8-0.4c0.5-0.5,0.9-0.3,1.3-0.2c1.5,0.8,3.1,1.5,4.6,2.3
	c1.1,0.5,2.3,0.6,3.3,0.2c1-0.4,1.8-1.3,2.2-2.5c0.3-0.9,0.6-1.9,1-2.8l0.4-1.2c0.5-1.5,0.6-1.5,2.1-1.6l0.1,0c0.3,0,0.6,0,0.8,0.2
	c0.2,0.2,0.2,0.5,0.2,0.8c0,2.8,0,5.6,0,8.4l0,2.8c0,1.3-0.1,1.5-1.4,1.7c-3.2,0.5-6.1,2.4-8.1,5.2c-2,2.8-2.8,6.2-2.2,9.3
	c1,5.7,5,9.7,10.7,10.7c0.8,0.1,1.1,0.5,1.1,1.3c0,2.7,0,5.4,0,8.1l0,2.8c0,1.6-0.1,1.7-1.7,1.8l-0.1,0c-0.7,0-1-0.2-1.2-0.9
	c-0.5-1.6-1.1-3.2-1.6-4.8c-0.4-1.2-1.2-2-2.2-2.4c-1-0.4-2.1-0.3-3.2,0.2c-1.5,0.7-3.1,1.5-4.7,2.3c-0.5,0.3-0.9,0.2-1.3-0.2
	c-1.3-1.3-2.6-2.6-3.9-3.9c-0.4-0.4-0.5-0.8-0.2-1.2c0.7-1.4,1.4-2.8,2-4.2l0.2-0.4c0.6-1.2,0.6-2.3,0.2-3.3c-0.4-1-1.3-1.7-2.5-2.2
	c-1.6-0.6-3.2-1.1-4.9-1.7c-0.5-0.2-0.7-0.5-0.7-1c0-1.9,0-3.8,0-5.7c0-0.5,0.2-0.8,0.7-1c1.5-0.5,3-1,4.9-1.7
	c1.2-0.4,2-1.2,2.4-2.2c0.4-1,0.3-2.1-0.2-3.2l-0.1-0.2c-0.6-1.4-1.3-2.8-2-4.1c-0.3-0.6-0.5-1.2,0.2-1.8c0.2-0.1,0.2-0.3,0.2-0.5
	c0-0.2-0.1-0.5-0.3-0.7c-0.3-0.3-0.8-0.3-1.2,0c-0.2,0.2-0.4,0.3-0.5,0.5l-0.2,0.2c-0.7,0.8-0.8,0.9-0.3,1.8l1.1,2.2
	c0.2,0.5,0.3,0.7,0.2,0.9c-0.1,0.2-0.4,0.2-0.9,0.2l-2,0c-1.5,0-3,0-4.6,0c-0.6,0-0.9-0.1-1.3-0.7C9,25.6,7.4,25,6,25.4
	c-1.4,0.4-2.4,1.8-2.4,3.2c0,1.4,1,2.7,2.5,3.1c1.4,0.4,2.9-0.3,3.7-1.6c0,0,0-0.1,0.1-0.1c0.1-0.3,0.3-0.6,0.8-0.6c0,0,0,0,0,0
	c2.7,0,5.4,0,8,0l0.3,0c0,0,0,0,0,0c0.4,0,0.7,0.2,0.8,0.5c0.3,0.6,0.3,1.2,0.1,1.7c-0.2,0.5-0.7,0.9-1.3,1.2
	c-1.4,0.5-2.7,1-4.1,1.4l-1.8,0.6c-0.9,0.3-1,0.4-1,1.4v0.7c0,2.1-0.1,2.2-2.1,2.2l-0.1,0c-0.6,0-1-0.2-1.4-0.8
	c-0.6-1.1-1.6-1.7-2.9-1.6c-1.3,0.1-2.3,0.7-2.9,2c0,0.1,0,0.1,0,0.2c0,0.1-0.1,0.3-0.2,0.4v1.3l0.3,0.6c0.5,1.1,1.5,1.9,2.7,2
	c1.1,0.1,2.2-0.4,2.8-1.3c0.6-0.9,1.3-1.2,2.3-1.1c0.1,0,0.3,0,0.4,0c0.3,0,0.6-0.1,0.9,0.2c0.2,0.2,0.3,0.5,0.2,0.9
	c0,0.4,0,0.9,0,1.3c0,0.2,0,0.4,0,0.5c0,0.9,0.1,1,1,1.3l1.2,0.4c1.6,0.5,3.1,1.1,4.7,1.6c0.9,0.3,1.4,0.8,1.5,1.6
	c0.1,0.5,0,1-0.3,1.3c-0.3,0.3-0.7,0.5-1.2,0.5l-1.9,0c-2,0-3.9,0-5.9,0c0,0,0,0,0,0c-0.5,0-0.8-0.2-1.1-0.6c-0.7-1.3-2.1-2-3.4-1.7
	c-1.6,0.3-2.7,1.6-2.8,3.1c-0.1,1.5,0.9,2.8,2.4,3.3c1.5,0.4,3-0.2,3.8-1.7l0-0.1c0.1-0.3,0.3-0.6,0.8-0.6c0,0,0,0,0,0
	c2.2,0,4.6,0,7.1,0c0.2,0,0.5,0,0.6,0.2c0.1,0.2,0,0.5-0.1,0.7c-0.2,0.3-0.3,0.7-0.5,1c-0.2,0.5-0.5,1-0.8,1.5
	c-0.3,0.6-0.3,1.1,0.2,1.6c1.8,1.7,3.5,3.5,5.4,5.4c0.5,0.5,0.9,0.6,1.5,0.3c1.6-0.8,3.2-1.6,4.8-2.3l0.7-0.3
	c0.5-0.2,0.9-0.4,1.3-0.4c0.2,0,0.4,0,0.6,0.1c0.5,0.2,0.9,0.7,1.2,1.6l1.9,5.6c0.3,0.9,0.4,1,1.4,1c0.9,0,1.8,0,2.7,0h1.1
	c5.1,0,10-1.4,14.5-4l0.1-0.1c0.2-0.1,0.4-0.2,0.6-0.4c0.4-0.3,0.5-0.7,0.2-1.1c-0.3-0.4-0.6-0.5-1.1-0.3c-0.2,0.1-0.3,0.2-0.5,0.3
	l-0.1,0.1c-3.5,2.2-7.4,3.4-11.7,3.8c-0.5,0-0.8,0.1-1.1-0.1c-0.2-0.2-0.2-0.5-0.2-1l0-24.7l0-0.2c0-0.2,0-0.4,0-0.6
	c-0.1-0.5-0.4-0.9-0.8-0.9c0,0,0,0,0,0c-0.5,0-0.8,0.3-0.8,0.8c0,0.2,0,0.4,0,0.6l0,0.2l0,2c0,2.5,0,5,0,7.5c0,0.3,0,0.6-0.2,0.8
	c-0.2,0.2-0.5,0.1-0.8,0.1c-5.3-1-9.2-5.5-9.2-10.9c0-5.3,3.8-9.9,9.1-10.9c0.3-0.1,0.6-0.1,0.8,0.1c0.2,0.2,0.2,0.4,0.2,0.8
	c0,1.2,0,2.4,0,3.6l0,0.9c0,0.5,0.2,0.7,0.6,0.9c0.3,0.1,0.6,0.1,0.9-0.1c0.3-0.2,0.3-0.5,0.3-0.9l0-8.5c0-3.7,0-7.5,0-11.2
	c0-0.3,0-0.6,0.3-0.8c0.2-0.2,0.6-0.2,0.8-0.2l0.7,0.1c0.8,0.1,1.6,0.2,2.5,0.3c8.1,1.5,15,6.7,18.7,14.3c3.8,7.6,3.7,16.3-0.1,23.6
	c-1.4,2.6-3.1,5-5.2,7c-0.3,0.3-0.6,0.6-0.5,0.9c0.1,0.4,0.2,0.6,0.6,0.7c0.4,0.1,0.7,0,1-0.3c2.2-2.2,4.1-4.6,5.4-7.3
	c0.3-0.6,0.6-0.8,1.2-0.8c1.3,0,2.7,0,4.3,0c0.6,0,0.9,0.2,1.1,0.7c0.7,1.4,2.3,2.1,3.8,1.6C77,54.1,77.9,52.8,77.9,51.3z
	 M74.6,38.5C74.6,38.5,74.6,38.5,74.6,38.5c0.9,0,1.5,0.7,1.5,1.6c0,0.8-0.7,1.5-1.5,1.5c0,0,0,0,0,0c-0.4,0-0.8-0.2-1.1-0.5
	c-0.3-0.3-0.5-0.7-0.4-1.1C73.1,39.1,73.8,38.5,74.6,38.5z M74.6,27C74.6,27,74.6,27,74.6,27c0.9,0,1.5,0.7,1.5,1.5
	c0,0.8-0.7,1.5-1.5,1.5c0,0,0,0,0,0c-0.4,0-0.8-0.2-1.1-0.4c-0.3-0.3-0.5-0.7-0.4-1.1C73.1,27.7,73.8,27,74.6,27z M6.9,30.1
	C6.9,30.1,6.9,30.1,6.9,30.1c-0.8,0-1.5-0.7-1.6-1.5c0-0.4,0.1-0.8,0.4-1.1c0.3-0.3,0.7-0.5,1.1-0.5c0,0,0,0,0,0
	c0.9,0,1.5,0.7,1.5,1.5C8.4,29.4,7.7,30.1,6.9,30.1z M5.4,41.5C5.4,41.5,5.4,41.5,5.4,41.5c-0.8,0-1.5-0.7-1.5-1.5
	c0-0.4,0.2-0.8,0.5-1.1c0.3-0.3,0.7-0.4,1.1-0.4c0.8,0,1.5,0.7,1.4,1.6C6.9,40.9,6.2,41.5,5.4,41.5z M6.9,53C6.9,53,6.9,53,6.9,53
	c-0.9,0-1.5-0.6-1.6-1.5c0-0.4,0.1-0.8,0.4-1.1c0.3-0.3,0.7-0.5,1.1-0.5c0,0,0,0,0,0c0.8,0,1.5,0.7,1.5,1.5
	C8.4,52.3,7.8,52.9,6.9,53z M74.7,53C74.7,53,74.6,53,74.7,53c-0.9,0-1.5-0.6-1.6-1.4c0-0.4,0.1-0.8,0.4-1.1
	c0.3-0.3,0.7-0.5,1.1-0.5c0,0,0,0,0,0c0.8,0,1.5,0.7,1.5,1.5C76.2,52.2,75.5,52.9,74.7,53z"/>
<path class="st1" d="M51.7,19.7c-0.3-0.2-0.5-0.2-0.7-0.2c-0.2,0-0.4,0.1-0.5,0.2c-0.4,0.4-0.4,0.7,0,1.3c1.2,1.9,2.1,4,2.9,6.2
	c1.1,3.2,1.8,6.6,2,10c0.1,1,0.3,1.2,1.2,1.2c0.6,0,1.3,0,1.9,0l0.8,0l0.8,0c0.6,0,1.3,0,1.9,0c0.5,0,0.9-0.1,1-0.3
	c0.2-0.2,0.2-0.5,0.1-1.1c-0.2-1.7-0.6-3.3-1.1-4.7C60.2,26.9,56.7,22.7,51.7,19.7z M61.2,36.5c-0.2,0.2-0.4,0.2-0.6,0.2
	c-0.9,0-1.8,0-2.7,0c0,0,0,0-0.1,0c-0.5,0-0.8-0.2-0.8-0.8c-0.3-3.6-1.1-7.1-2.3-10.2c-0.1-0.3-0.3-0.7-0.4-1l-0.5-1.3l0.8,0.6
	c2.5,2.1,4.4,4.8,5.7,8c0.5,1.1,0.8,2.4,1.1,3.7C61.4,36.1,61.4,36.3,61.2,36.5z"/>
<path class="st1" d="M62.3,41.6c-0.8,0-1.6,0-2.4,0c-0.6,0-1.1,0-1.7,0l-1.4,0c-1.3,0-1.4,0.1-1.5,1.4c-0.5,6.1-2,11.3-4.8,15.9
	c-0.4,0.6-0.5,1-0.1,1.4c0.4,0.4,0.7,0.3,1.4,0c3.5-2.1,6.3-4.9,8.4-8.4c1.7-2.8,2.7-5.9,3.1-9.2c0-0.4-0.1-0.7-0.2-0.8
	C62.9,41.6,62.6,41.6,62.3,41.6z M61.3,44c-0.9,4.7-3.2,8.8-6.8,12l-0.8,0.7l0.4-1c1-2.6,1.7-5,2.2-7.4c0.3-1.4,0.5-2.9,0.6-4.3
	c0.1-0.5,0.3-0.8,0.8-0.8c0.7,0,1.4,0,2,0l0.8,0c0.2,0,0.5,0,0.6,0.2C61.4,43.7,61.4,43.9,61.3,44z"/>
<path class="st1" d="M45.9,60c0.1-0.1,0.2-0.3,0.3-0.4c3.6-4.5,5.5-10,6-17.1c0-0.3,0-0.5-0.2-0.7c-0.2-0.2-0.5-0.3-0.8-0.3
	c-1,0-2,0-3,0c-1,0-1.9,0-2.9,0l-0.3,0c-1,0-1.2,0.2-1.2,1.2c0,2,0,3.9,0,5.9l0,4.7c0,2.1,0,4.2,0,6.3c0,0.5,0.2,0.8,0.5,1
	c0.4,0.2,0.8,0.1,1.1-0.3C45.7,60.3,45.8,60.1,45.9,60z M45.9,43.5c0.2-0.2,0.4-0.2,0.6-0.2c0.9,0,1.8,0,2.7,0l0.6,0
	c0.1,0,0.4,0,0.6,0.2c0.1,0.1,0.1,0.3,0.1,0.5c-0.6,5-1.9,9.1-4.1,12.5l-0.1,0.1l-0.6,0.1v-3.1c0-3.2,0-6.4,0-9.6
	C45.7,43.9,45.7,43.6,45.9,43.5z"/>
<path class="st1" d="M44,20.3c0,3.2,0,6.4,0,9.6l0,7.5c0,0.8,0.3,1.1,1,1.1c0.7,0,1.4,0,2.1,0l1,0l2.8,0c0.7,0,1.1-0.1,1.3-0.3
	c0.2-0.2,0.2-0.6,0.2-1.3c-0.3-3-0.8-5.6-1.6-8.1c-1.3-3.9-2.9-6.8-5-9.2c-0.3-0.3-0.5-0.4-0.8-0.4c-0.1,0-0.2,0-0.3,0.1
	C44.1,19.4,44,19.7,44,20.3z M45.7,27.3l0-3.6c0-0.1,0-0.1,0.1-0.2c0,0,0-0.1,0.1-0.1L46,23l0.2,0.4c1.6,2.6,2.7,5.4,3.5,8.8
	c0.3,1.2,0.5,2.5,0.6,3.6c0,0.2,0,0.5-0.1,0.7c-0.2,0.2-0.4,0.2-0.6,0.2c0,0,0,0-0.1,0c-1,0-2.1,0-3.1,0c-0.2,0-0.4,0-0.6-0.2
	c-0.2-0.2-0.2-0.4-0.2-0.6C45.7,33.1,45.7,30.2,45.7,27.3z"/>
</svg>
