<?xml version="1.0" encoding="utf-8"?>
<!-- Generator: Adobe Illustrator 25.4.1, SVG Export Plug-In . SVG Version: 6.00 Build 0)  -->
<svg version="1.1" id="Layer_1" xmlns="http://www.w3.org/2000/svg" xmlns:xlink="http://www.w3.org/1999/xlink" x="0px" y="0px"
	 viewBox="0 0 65 65" style="enable-background:new 0 0 65 65;" xml:space="preserve">
<style type="text/css">
	.st0{fill:#FFFFFF;}
	.st1{fill:#A0A5B6;}
	.st2{clip-path:url(#SVGID_00000094599187537417301290000013029324014957335968_);fill:#F37367;}
	.st3{clip-path:url(#SVGID_00000002362043301482034500000006127020156611430798_);fill:#A0A5B6;}
	.st4{fill:#F37367;}
</style>
<g>
	<defs>
		<rect id="SVGID_1_" x="3.8" y="3.8" width="57.5" height="57.5"/>
	</defs>
	<clipPath id="SVGID_00000019659126532524157630000007561792415516127114_">
		<use xlink:href="#SVGID_1_"  style="overflow:visible;"/>
	</clipPath>
	<path style="clip-path:url(#SVGID_00000019659126532524157630000007561792415516127114_);fill:#F37367;" d="M32.5,59
		c0.8,0,1.6,0,2.4,0c0.4,0,0.5-0.1,0.5-0.5c0-1.2,0-2.4,0-3.5c0-0.9,0.3-1.3,1.1-1.4c3-0.6,5.7-1.7,8.2-3.4c0.7-0.4,1.1-0.4,1.7,0.2
		c0.9,0.9,1.7,1.7,2.6,2.6c0.3,0.3,0.4,0.3,0.7,0c1.1-1.1,2.2-2.2,3.3-3.3c0.3-0.3,0.2-0.4,0-0.7c-0.9-0.8-1.7-1.7-2.5-2.5
		c-0.6-0.6-0.6-1-0.2-1.7c1.7-2.5,2.8-5.2,3.4-8.2c0.2-0.8,0.5-1.1,1.4-1.1c1.2,0,2.4,0,3.6,0c0.4,0,0.5-0.1,0.5-0.5
		c0-1.6,0-3.1,0-4.7c0-0.4-0.1-0.5-0.5-0.5c-1.2,0-2.4,0-3.5,0c-0.9,0-1.3-0.3-1.4-1.1c-0.6-3-1.7-5.7-3.4-8.2
		c-0.4-0.7-0.4-1.1,0.2-1.7c0.9-0.9,1.7-1.7,2.6-2.6c0.3-0.3,0.3-0.4,0-0.7c-1.1-1.1-2.2-2.2-3.3-3.3c-0.3-0.3-0.4-0.2-0.7,0
		c-0.8,0.9-1.7,1.7-2.5,2.5c-0.6,0.6-1,0.6-1.7,0.2c-2.5-1.7-5.2-2.8-8.2-3.4c-0.8-0.2-1.1-0.5-1.1-1.4c0-1.2,0-2.4,0-3.6
		c0-0.4-0.1-0.5-0.5-0.5c-1.6,0-3.1,0-4.7,0c-0.4,0-0.5,0.1-0.5,0.5c0,1.2,0,2.4,0,3.5c0,0.9-0.3,1.3-1.1,1.4
		c-3,0.6-5.7,1.7-8.2,3.4c-0.7,0.5-1.1,0.4-1.7-0.2c-0.8-0.8-1.7-1.7-2.5-2.5c-0.3-0.3-0.4-0.3-0.7,0c-1.1,1.1-2.2,2.2-3.3,3.3
		c-0.3,0.3-0.2,0.4,0,0.7c0.9,0.8,1.7,1.7,2.5,2.5c0.6,0.6,0.6,1,0.2,1.7c-1.7,2.5-2.8,5.2-3.4,8.2c-0.2,0.8-0.5,1.1-1.4,1.1
		c-1.2,0-2.4,0-3.6,0c-0.4,0-0.5,0.1-0.5,0.5c0,1.6,0,3.1,0,4.7c0,0.4,0.1,0.5,0.5,0.5c1.2,0,2.4,0,3.5,0c0.9,0,1.3,0.3,1.4,1.1
		c0.6,3,1.7,5.7,3.4,8.2c0.4,0.7,0.4,1.1-0.2,1.7c-0.9,0.9-1.7,1.7-2.6,2.6c-0.3,0.3-0.3,0.4,0,0.7c1.1,1.1,2.2,2.2,3.3,3.3
		c0.3,0.3,0.4,0.2,0.7,0c0.8-0.9,1.7-1.7,2.5-2.5c0.6-0.6,1-0.6,1.7-0.2c2.5,1.7,5.2,2.8,8.2,3.4c0.8,0.2,1.1,0.5,1.1,1.4
		c0,1.2,0,2.4,0,3.6c0,0.3,0.1,0.4,0.4,0.4C30.9,59,31.7,59,32.5,59 M36.8,3.8c0.6,0.3,0.8,0.8,0.8,1.5c0,1.2,0,2.5,0,3.7
		c0,0.3,0.1,0.5,0.4,0.6c2.4,0.6,4.7,1.5,6.9,2.8c0.4,0.2,0.5,0.2,0.8-0.1c0.9-0.9,1.8-1.8,2.7-2.7c0.7-0.7,1.2-0.7,1.9,0
		c1.8,1.7,3.5,3.5,5.2,5.2c0.7,0.7,0.7,1.3,0,2c-0.9,0.9-1.8,1.8-2.7,2.7c-0.2,0.2-0.3,0.4-0.1,0.7c1.3,2.1,2.3,4.4,2.9,6.9
		c0.1,0.3,0.2,0.4,0.6,0.4c1.3,0,2.6,0,3.9,0c0.9,0,1.3,0.4,1.3,1.3c0,2.5,0,5.1,0,7.6c0,0.9-0.4,1.3-1.3,1.3c-1.3,0-2.6,0-3.9,0
		c-0.3,0-0.5,0.1-0.6,0.4c-0.6,2.5-1.5,4.8-2.9,6.9c-0.2,0.3-0.1,0.5,0.1,0.7c0.9,0.9,1.8,1.8,2.7,2.7c0.7,0.7,0.7,1.2,0,1.9
		c-1.8,1.8-3.5,3.6-5.3,5.3c-0.6,0.6-1.2,0.6-1.8,0c-0.9-0.9-1.8-1.8-2.7-2.7c-0.3-0.3-0.4-0.3-0.8-0.1C42.7,54,40.4,55,38,55.5
		c-0.3,0.1-0.4,0.2-0.4,0.6c0,1.3,0,2.6,0,3.9c0,0.9-0.4,1.3-1.3,1.3c-2.5,0-5.1,0-7.6,0c-0.9,0-1.3-0.4-1.3-1.3c0-1.3,0-2.5,0-3.8
		c0-0.4-0.1-0.5-0.5-0.6c-2.4-0.6-4.7-1.5-6.8-2.9c-0.3-0.2-0.5-0.1-0.7,0.1c-0.9,0.9-1.8,1.8-2.7,2.7c-0.7,0.7-1.2,0.7-1.9,0
		c-1.8-1.8-3.5-3.5-5.3-5.3c-0.7-0.7-0.6-1.2,0-1.9c0.9-0.9,1.8-1.8,2.7-2.7c0.3-0.3,0.3-0.4,0.1-0.8C11,42.7,10,40.4,9.5,38
		c-0.1-0.3-0.2-0.4-0.6-0.4c-1.2,0-2.5,0-3.7,0c-0.7,0-1.2-0.2-1.5-0.8v-8.5c0.3-0.6,0.8-0.8,1.5-0.8c1.2,0,2.5,0,3.7,0
		c0.3,0,0.5-0.1,0.6-0.4c0.6-2.5,1.5-4.8,2.9-6.9c0.2-0.3,0.1-0.5-0.1-0.7c-0.9-0.9-1.8-1.8-2.7-2.7c-0.7-0.7-0.7-1.2,0-1.9
		c1.8-1.8,3.5-3.5,5.3-5.3c0.7-0.7,1.2-0.6,1.9,0c0.9,0.9,1.8,1.8,2.7,2.7c0.2,0.2,0.4,0.3,0.7,0.1c2.1-1.3,4.4-2.3,6.9-2.9
		c0.3-0.1,0.4-0.2,0.4-0.6c0-1.2,0-2.5,0-3.7c0-0.7,0.2-1.2,0.8-1.5H36.8z"/>
	<path style="clip-path:url(#SVGID_00000019659126532524157630000007561792415516127114_);fill:#F37367;" d="M49.4,32.5
		c0-9.3-7.6-16.9-16.9-16.9c-9.3,0-16.9,7.6-16.9,16.9c0,9.3,7.6,16.9,16.9,17C41.8,49.4,49.4,41.8,49.4,32.5 M32.5,13.3
		c10.5,0,19.2,8.6,19.2,19.2c0,10.6-8.7,19.2-19.2,19.2c-10.6,0-19.1-8.6-19.1-19.1C13.3,22,21.9,13.3,32.5,13.3"/>
	<path style="clip-path:url(#SVGID_00000019659126532524157630000007561792415516127114_);fill:#F37367;" d="M24,28c0,0.3,0,0.6,0,1
		c0.1,5.7,2.5,10.1,7.3,13.3c0.9,0.6,1.4,0.6,2.3,0c3.9-2.6,6.3-6.1,7.1-10.6c0.3-2,0.2-4,0.2-6c0-0.3-0.2-0.4-0.4-0.5
		c-2.6-1-5.1-2-7.7-3.1c-0.2-0.1-0.5-0.1-0.7,0c-2.6,1-5.2,2.1-7.8,3.1c-0.3,0.1-0.4,0.2-0.4,0.5C24.1,26.4,24,27.2,24,28 M43.2,28
		c0.1,2.4-0.2,5.1-1.3,7.7c-1.4,3.4-3.6,6.1-6.6,8.1c-0.7,0.5-1.4,0.9-2.1,1.4c-0.4,0.3-0.8,0.3-1.2,0.1c-2.4-1.5-4.8-3.1-6.5-5.4
		c-2.3-3-3.5-6.4-3.6-10.2c-0.1-1.7,0-3.4,0-5.1c0-0.6,0.3-1,0.9-1.2c3.1-1.2,6.1-2.4,9.2-3.7c0.4-0.2,0.8-0.2,1.2,0
		c3.1,1.2,6.1,2.5,9.2,3.7c0.6,0.2,0.9,0.6,0.9,1.3C43.2,25.6,43.2,26.6,43.2,28"/>
	<path style="clip-path:url(#SVGID_00000019659126532524157630000007561792415516127114_);fill:#F37367;" d="M31.4,35.5
		c-0.3,0-0.6-0.1-0.8-0.4c-0.9-0.9-1.8-1.8-2.7-2.7c-0.5-0.5-0.5-1.2,0-1.6c0.5-0.4,1.1-0.4,1.6,0c0.6,0.5,1.1,1.1,1.7,1.7
		c0.3,0.3,0.4,0.3,0.7,0c1.3-1.3,2.5-2.5,3.8-3.8c0.3-0.3,0.6-0.5,1.1-0.5c0.4,0.1,0.8,0.3,0.9,0.7c0.1,0.4,0.1,0.8-0.3,1.1
		c-0.5,0.5-0.9,1-1.4,1.4c-1.2,1.2-2.3,2.3-3.5,3.5C32.1,35.3,31.8,35.6,31.4,35.5"/>
</g>
</svg>
