<?xml version="1.0" encoding="utf-8"?>
<!-- Generator: Adobe Illustrator 28.1.0, SVG Export Plug-In . SVG Version: 6.00 Build 0)  -->
<svg version="1.1" xmlns="http://www.w3.org/2000/svg" xmlns:xlink="http://www.w3.org/1999/xlink" x="0px" y="0px"
	 viewBox="0 0 3710 3710" style="enable-background:new 0 0 3710 3710;" xml:space="preserve">
<style type="text/css">
	.st0{fill:#F4F7FA;}
	.st1{opacity:0.5;clip-path:url(#SVGID_00000013888273418740874490000009956810890954326445_);}
	.st2{fill:#FFFFFF;}
	.st3{opacity:0.5;clip-path:url(#SVGID_00000028308351428021098420000015280580745151757188_);}
	.st4{fill:url(#SVGID_00000068674289546809102460000016904090674174440077_);}
	.st5{fill:url(#SVGID_00000083777700887524780730000010235284921927968133_);}
	.st6{fill:url(#SVGID_00000084499606447977378960000007503833637080022657_);}
	.st7{opacity:0.6;clip-path:url(#SVGID_00000145059657096460665810000007361023164781077930_);}
	.st8{opacity:0.3;fill:#FFFFFF;}
	.st9{opacity:0.3;fill:url(#SVGID_00000115502988078811922390000012487630506882339748_);}
	.st10{opacity:0.7;clip-path:url(#SVGID_00000181781962623418130280000013317388261950387592_);}
	.st11{opacity:0.6;fill:#FFFFFF;}
	.st12{opacity:0.3;}
	.st13{fill:url(#SVGID_00000061451654356020529320000013115589399025458604_);}
	.st14{clip-path:url(#SVGID_00000102518534464142591460000003238878431578669963_);}
	.st15{fill:url(#SVGID_00000102502363828806973770000012533181680780606116_);}
	.st16{fill:url(#SVGID_00000072971418186839288500000004190643237295496861_);}
	.st17{fill:url(#SVGID_00000126298327157203906420000017602738501781196991_);}
	.st18{opacity:0.6;clip-path:url(#SVGID_00000039814415486011331230000012279523189591607461_);}
	.st19{fill:url(#SVGID_00000101801872466791691140000001504331642128241335_);}
	.st20{fill:url(#SVGID_00000029005631991820922600000005738741232467654018_);}
	.st21{fill:url(#SVGID_00000093859384778600939110000017575939552941517755_);}
	.st22{fill:url(#SVGID_00000020375302334300605490000007275058879405256370_);}
	.st23{fill:url(#SVGID_00000054961698947192001530000018268793908130054841_);}
	.st24{fill:url(#SVGID_00000138532466136966822670000012733320813975049649_);}
	.st25{fill:url(#SVGID_00000005953838739261122550000011767146727953617343_);}
	.st26{fill:url(#SVGID_00000025421269609888357660000004350461063635446206_);}
	.st27{fill:url(#SVGID_00000092419052058293498220000006174882703656540587_);}
	.st28{fill:url(#SVGID_00000078032311290965369350000014869225513972312715_);}
	.st29{fill:url(#SVGID_00000159461191024907447930000009837670233080604048_);}
	.st30{fill:url(#SVGID_00000114776444928830811100000002266461423122035609_);}
	.st31{fill:#26264F;}
	.st32{fill:url(#SVGID_00000033330457196978860560000008894007789336411550_);}
	.st33{opacity:0.3;fill:url(#SVGID_00000161601222024041107560000002867269127444846210_);}
	.st34{fill:url(#SVGID_00000042729996074358436770000006883663710328848562_);}
	.st35{fill:#97A6B7;}
	.st36{fill:#D8DEE8;}
</style>
<g id="Background">
</g>
<g id="Illustration">
	<g>
		<path class="st0" d="M2546.42,617.72c95.86,134.2-12.56,354.54,128.63,454.74c137.44,97.54,303.3-66.45,432.75,17.39
			c192.03,124.38,163.29,703.04-111.74,1065.28c-82.71,108.94-152.33,151.72-182.07,274.25
			c-63.87,263.11,171.94,416.74,128.74,546.99c-97.26,293.28-1637.79,554.72-2266.19-316.99
			c-293.49-407.13-342.99-998.96-89.35-1451.52C1045.51,390.08,2331.33,316.6,2546.42,617.72z"/>
		<g>
			<g>
				<defs>
					<path id="SVGID_1_" d="M1880.96,2631.29c47.18-125.92,97.04-317.2,55.99-532.58c-53.84-282.48-216.73-358.23-413.06-784.54
						c-124.14-269.55-208.06-458.91-122.96-624.38c66.69-129.67,229.18-229.13,368.03-208.02
						c115.45,17.55,228.07,120.53,288.15,204.05c48.97,68.07,65.64,126.82,127.69,144.78c63.41,18.36,99.42-27.54,154.87-18.14
						c112.47,19.07,162.58,241.42,170.68,277.36c90.1,399.75-120.07,803.13-213.86,977.98
						C2218.93,2212.38,2089.92,2417.7,1880.96,2631.29z"/>
				</defs>
				<use xlink:href="#SVGID_1_"  style="overflow:visible;fill:#D8DEE8;"/>
				<clipPath id="SVGID_00000001634762450544533020000006671909661942218883_">
					<use xlink:href="#SVGID_1_"  style="overflow:visible;"/>
				</clipPath>
				<g style="opacity:0.5;clip-path:url(#SVGID_00000001634762450544533020000006671909661942218883_);">
					<path class="st2" d="M1813.01,2746.84l-5.86-5.45c124.04-133.41,221.25-267.45,288.94-398.39
						c99.81-193.09,131.99-373.96,95.66-537.58c-28.46-128.16-96.86-241.7-191.54-398.84c-75.58-125.44-140.46-207.54-197.7-279.96
						c-74.8-94.64-133.88-169.4-181.32-296.75c-48.15-129.24-67.97-271.56-58.92-423l7.98,0.48
						c-8.98,150.33,10.68,291.55,58.43,419.73c47,126.17,105.74,200.49,180.1,294.58c57.39,72.61,122.43,154.92,198.27,280.8
						c91.49,151.85,163.75,271.8,192.5,401.23c36.75,165.5,4.33,348.18-96.36,542.98
						C2035.17,2478.26,1937.54,2612.9,1813.01,2746.84z"/>
					<path class="st2" d="M1936.9,1316.76c-27.81,0-120.04-3.27-229.85-42.26c-121.12-43-289.18-139.47-401.93-354.84l7.08-3.71
						c111.55,213.07,277.74,308.49,397.52,351.01c114.54,40.66,209.46,42.05,230.85,41.78c-45.46-272.13,8.33-483.39,61.66-612.95
						c58.16-141.29,128.46-218.79,129.17-219.55l5.89,5.41c-0.7,0.76-70.2,77.45-127.81,217.54
						c-53.15,129.26-106.74,340.49-60.26,612.77l0.76,4.45l-4.51,0.21C1945.3,1316.64,1942.32,1316.76,1936.9,1316.76z"/>
					<path class="st2" d="M2144.7,1661.07l-2.53-1.43c-1.48-0.83-149.5-83.74-314.17-137.81c-163.84-53.8-440.81,36.18-443.59,37.09
						l-2.5-7.59c2.8-0.92,282.28-91.71,448.58-37.1c153.52,50.41,292.61,125.76,313.03,137.02
						c119.73-112.76,169.42-377.74,190.03-580.79c22.5-221.77,16.07-419.48,16.01-421.45l7.99-0.27
						c0.07,1.98,6.52,200.23-16.04,422.53c-30.35,299.08-95.85,496.85-194.67,587.84L2144.7,1661.07z"/>
					<path class="st2" d="M2129.84,2293.48l0.51-7.95c5.42-85.08-14.77-161.23-60.01-226.36c-36.26-52.2-88.64-97.54-155.67-134.75
						c-114.41-63.52-233.2-81.45-234.39-81.63l1.16-7.91c1.2,0.18,121.44,18.33,237.12,82.54
						c105.72,58.69,228.89,168.69,220.22,360.55c27.2-18.62,134.67-94.95,255.98-218.43c129.03-131.33,300.57-344.37,385.07-613.56
						l164.08-522.71l7.63,2.39l-164.08,522.71c-85,270.77-257.45,484.94-387.14,616.92c-140.5,142.97-262.57,223.04-263.79,223.83
						L2129.84,2293.48z"/>
				</g>
			</g>
		</g>
		<g>
			<defs>
				<path id="SVGID_00000065762879534282642970000009693273173044624046_" d="M2467,2431.73
					c190.12-99.3,418.15-252.92,593.91-480.35c44.85-58.04,321.94-416.59,190.7-559.81c-46.23-50.45-104.09-31.58-167.08-97.95
					c-74.64-78.64-41.19-155.48-62.09-291.79c-12.47-81.33-48.97-319.36-228.29-366.66c-107.16-28.27-260.48,12.84-351.58,92.34
					c-133.64,116.6-107.25,292.93-57.43,590.5c44.16,263.79,92.58,308.59,121.06,499.09
					C2527.32,1958.49,2535.13,2164.46,2467,2431.73z"/>
			</defs>
			<use xlink:href="#SVGID_00000065762879534282642970000009693273173044624046_"  style="overflow:visible;fill:#EBEFF2;"/>
			<clipPath id="SVGID_00000160897519748696190200000004084632767694414215_">
				<use xlink:href="#SVGID_00000065762879534282642970000009693273173044624046_"  style="overflow:visible;"/>
			</clipPath>
			<g style="opacity:0.5;clip-path:url(#SVGID_00000160897519748696190200000004084632767694414215_);">
				<path class="st2" d="M2033.7,2793.12c-106.43,55.17-222.69,97.47-347.99,126.53l-1.83-7.87
					c236.78-54.91,441.14-157.41,607.39-304.65c221.48-196.15,361.02-465.29,414.76-799.94c55.96-348.52,4.85-680.78-47.87-898.14
					c-36.51-150.52-120.96-293.81-250.99-425.87l5.75-5.67c131.08,133.12,216.23,277.67,253.09,429.63
					c52.9,218.08,104.17,551.48,48,901.33c-54.04,336.55-194.46,607.29-417.38,804.71
					C2217.39,2683.36,2129.52,2743.45,2033.7,2793.12z"/>
				<path class="st2" d="M2731.63,1358.25l-3.34-1.42c-0.88-0.38-89.17-38.37-185.77-116.67
					c-89.25-72.34-204.16-194.89-244.72-367.93l7.87-1.84c40.04,170.81,153.67,291.95,241.94,363.49
					c85.21,69.06,163.69,106.4,180.54,114.04c263.34-474.98,100.56-771.92,44.27-851.74c-1.72-2.44-2.33-3.32-2.68-3.99l7.17-3.72
					l-3.59,1.86l3.57-1.9c0.27,0.47,1.01,1.5,2.13,3.09c57.1,80.98,222.56,382.57-45.61,863.55L2731.63,1358.25z"/>
				<path class="st2" d="M2862.98,1740.75c-44.78,23.21-94.79,45.14-150.69,65.05l-2.03,0.72l-1.73-1.29
					c-2.32-1.73-233.88-176.62-377.87-505.15l-145.23-331.35l7.4-3.24l145.23,331.35c136.58,311.6,352.23,484.06,373.59,500.61
					c146.18-52.33,343.67-152.9,459.01-335.47c69.28-109.65,76.01-198.16,76.07-199.04l8.06,0.54c-0.06,0.9-6.83,91.06-77.02,202.36
					C3126.66,1546.92,3032.58,1652.85,2862.98,1740.75z"/>
			</g>
		</g>
		<g>
			<g>
				
					<linearGradient id="SVGID_00000088098339000906536770000002522680946890784164_" gradientUnits="userSpaceOnUse" x1="3934.9734" y1="-235.2867" x2="623.0137" y2="5519.5288">
					<stop  offset="0" style="stop-color:#311944"/>
					<stop  offset="1" style="stop-color:#893976"/>
				</linearGradient>
				<path style="fill:url(#SVGID_00000088098339000906536770000002522680946890784164_);" d="M2437.99,1970.07
					c-34.34,0.09-74.85,13.72-55.28,43.74c99.99,153.38-15.23,297.98-108.27,305.08c-55.02,4.2-110.25-9.44-149.85-41.19
					c-29.73,32.84-58.61,66.41-86.76,100.6c9.64,30.49,7.88,63.53-7.87,94.34c-87.92,171.96-203.79,129.2-269.4,83.77
					c-21.48-14.87-50.76,2.15-50.76,29.34v379.15l1013.38-39.54v-983.66L2437.99,1970.07z"/>
			</g>
			<g>
				
					<linearGradient id="SVGID_00000036216770519836930370000011739346983970496185_" gradientUnits="userSpaceOnUse" x1="615.436" y1="1420.8159" x2="1091.629" y2="1434.2932">
					<stop  offset="0" style="stop-color:#40447E"/>
					<stop  offset="0.9964" style="stop-color:#3C3B6B"/>
				</linearGradient>
				<path style="fill:url(#SVGID_00000036216770519836930370000011739346983970496185_);" d="M616.86,1936.77l319.26-0.73
					c35.91-0.08,58.25-38.54,41.81-70.79c-18.94-37.17-36.27-87.43-36.27-146.8c0-131.06,173.62-160.54,229.19-164.16
					c50.21-3.27,248.98,91.33,126.1,309c-17.86,31.63,4.38,71.19,39.99,71.11l353.86-0.8v-334.99c0-27.93,30.42-43.16,52.12-26.52
					c102.21,78.43,246,12,270.22-45.51c28.7-68.16,36.52-207.76-110.13-251.98c-77.18-23.28-133.77-4.55-170.26,18.75
					c-21.68,13.84-49.96-2.99-49.96-29.72L652.81,905.96l-35.95,10.62V1936.77z"/>
			</g>
			<g>
				
					<linearGradient id="SVGID_00000129897597714901792790000018053409058864995513_" gradientUnits="userSpaceOnUse" x1="1127.7036" y1="2338.5647" x2="768.2365" y2="2239.7107">
					<stop  offset="0" style="stop-color:#311944"/>
					<stop  offset="1" style="stop-color:#893976"/>
				</linearGradient>
				<path style="fill:url(#SVGID_00000129897597714901792790000018053409058864995513_);" d="M1760.56,2556.4
					c65.61,45.42,181.48,88.19,269.4-83.77c45.58-89.16-25.97-197.01-151.98-207.57c-62.82-5.27-109.29,10.27-140.23,27.35
					c-21.43,11.83-46.94-4.65-46.94-29.76v-329.03l-353.86,0.8c-35.61,0.08-57.85-39.48-39.99-71.11
					c122.88-217.67-75.89-312.27-126.1-309c-55.57,3.62-229.19,33.1-229.19,164.16c0,59.37,17.33,109.63,36.27,146.8
					c16.43,32.24-5.9,70.7-41.81,70.79l-319.26,0.73v1034.86l35.95,35.89l1056.99-421.79
					C1709.8,2558.55,1739.07,2541.53,1760.56,2556.4z"/>
				<g>
					<g>
						<defs>
							<path id="SVGID_00000168113829814522062560000011138692600924912062_" d="M1796.51,2556.4
								c65.61,45.42,181.48,88.19,269.4-83.77c45.58-89.16-25.97-197.01-151.98-207.57c-62.82-5.27-109.29,10.27-140.23,27.35
								c-21.43,11.83-46.94-4.65-46.94-29.76v-329.03l-353.86,0.8c-35.61,0.08-57.85-39.48-39.99-71.11
								c122.88-217.67-75.89-312.27-126.1-309c-55.57,3.62-229.19,33.1-229.19,164.16c0,59.37,17.33,109.63,36.27,146.8
								c16.43,32.24-5.9,70.7-41.81,70.79l-319.26,0.73v1070.75l1092.94-42.64v-379.15
								C1745.75,2558.55,1775.02,2541.53,1796.51,2556.4z"/>
						</defs>
						
							<linearGradient id="SVGID_00000041271577812867132270000017992944907344396701_" gradientUnits="userSpaceOnUse" x1="1393.4272" y1="2190.8359" x2="56.4286" y2="3981.2485">
							<stop  offset="3.597120e-03" style="stop-color:#E38DDD"/>
							<stop  offset="1" style="stop-color:#9571F6"/>
						</linearGradient>
						
							<use xlink:href="#SVGID_00000168113829814522062560000011138692600924912062_"  style="overflow:visible;fill:url(#SVGID_00000041271577812867132270000017992944907344396701_);"/>
						<clipPath id="SVGID_00000170987274470247055860000015562426532589961398_">
							<use xlink:href="#SVGID_00000168113829814522062560000011138692600924912062_"  style="overflow:visible;"/>
						</clipPath>
						<g style="opacity:0.6;clip-path:url(#SVGID_00000170987274470247055860000015562426532589961398_);">
							<path class="st2" d="M2167.94,1784.61l-80.46-0.25c-10.27-0.03-18.6-8.82-18.6-19.62v-199.12
								c0-141.62-109.66-258.64-246.13-261.4l-155.05-3.14c-139.35-2.82-253.33,112.39-253.33,257.34v203.82
								c0,11.06-8.74,20-19.52,19.97l-85.03-0.26c-10.86-0.03-19.66-9.07-19.66-20.18v-204.71c0-216.03,170.28-386.95,377.54-381.83
								l155.04,3.83c202.02,4.99,363.65,178.61,363.65,387.84v198.28C2186.41,1775.95,2178.14,1784.65,2167.94,1784.61z"/>
							<path class="st2" d="M2214.23,1822.83l-953.79-1.64c-47.08-0.08-85.35,38.88-85.35,87.02v483.57
								c0,196.36,155.48,350.77,344.96,344.97l447.22-13.7c181.13-5.55,326.24-162.95,326.24-351.64v-464.68
								C2293.51,1860.47,2258.07,1822.9,2214.23,1822.83z M1836.17,2482.65l-182.05,3.99l48.37-215.17
								c-43.49-17.2-74.36-60.79-74.36-112.3c0-67.31,52.64-122.19,117.31-122.57c64.37-0.38,116.34,53.42,116.34,120.18
								c0,51.08-30.43,95.15-73.52,113.47L1836.17,2482.65z"/>
						</g>
					</g>
					<path class="st8" d="M702.11,2954.51v-966.77l269.96-1.09c34.21-0.14,65.16-17.84,82.85-47.31
						c17.86-29.78,19.08-66.1,3.26-97.21c-20.31-39.92-30.61-81.45-30.61-123.4c0-98.84,173.72-113.62,182.57-114.31
						c14.79,0.33,71.73,21.86,99.07,70.53c24.4,43.42,18.14,98.31-18.62,163.31c-17.29,30.56-17.3,67.08-0.03,97.63
						c17.22,30.48,48.03,48.58,82.35,48.44l306.31-1.23v280.22c0,22.72,8.63,43.81,24.27,59.4c15.13,15.08,34.96,23.17,55.81,22.82
						c12.46-0.21,24.95-3.6,36.11-9.78c26.26-14.54,56.57-22.18,90.05-22.71c7.85-0.12,15.96,0.15,24.11,0.82
						c51.78,4.25,95.67,29.95,114.69,67.04c8.31,16.21,15.22,41.39,0.9,69.33c-32.6,63.66-70.59,96.52-112.94,97.55
						c-33.65,0.82-66.92-17.2-88.93-32.48c-13.33-9.25-28.84-13.96-44.86-13.59c-44.13,0.99-80.14,39.24-80.14,85.25v330.45
						L702.11,2954.51z"/>
					
						<linearGradient id="SVGID_00000003796005016872573520000003106640751667975867_" gradientUnits="userSpaceOnUse" x1="1393.4272" y1="2190.8359" x2="56.4286" y2="3981.2485">
						<stop  offset="3.597120e-03" style="stop-color:#E38DDD"/>
						<stop  offset="1" style="stop-color:#9571F6"/>
					</linearGradient>
					<path style="opacity:0.3;fill:url(#SVGID_00000003796005016872573520000003106640751667975867_);" d="M1796.51,2556.4
						c65.61,45.42,181.48,88.19,269.4-83.77c45.58-89.16-25.97-197.01-151.98-207.57c-62.82-5.27-109.29,10.27-140.23,27.35
						c-21.43,11.83-46.94-4.65-46.94-29.76v-329.03l-353.86,0.8c-35.61,0.08-57.85-39.48-39.99-71.11
						c122.88-217.67-75.89-312.27-126.1-309c-55.57,3.62-229.19,33.1-229.19,164.16c0,59.37,17.33,109.63,36.27,146.8
						c16.43,32.24-5.9,70.7-41.81,70.79l-319.26,0.73v1070.75l1092.94-42.64v-379.15
						C1745.75,2558.55,1775.02,2541.53,1796.51,2556.4z"/>
				</g>
			</g>
			<g>
				<g>
					<defs>
						<path id="SVGID_00000043443869406378556040000002243886831510167449_" d="M652.81,1936.77l319.26-0.73
							c35.91-0.08,58.25-38.54,41.81-70.79c-18.94-37.17-36.27-87.43-36.27-146.8c0-131.06,173.62-160.54,229.19-164.16
							c50.21-3.27,248.98,91.33,126.1,309c-17.86,31.63,4.38,71.19,39.99,71.11l353.86-0.8v-334.99c0-27.93,30.42-43.16,52.12-26.52
							c102.21,78.43,246,12,270.22-45.51c28.7-68.16,36.52-207.76-110.13-251.98c-77.18-23.28-133.77-4.55-170.26,18.75
							c-21.68,13.84-49.96-2.99-49.96-29.72V941.22L652.81,905.96V1936.77z"/>
					</defs>
					
						<linearGradient id="SVGID_00000042736797883103335780000002591625744818382494_" gradientUnits="userSpaceOnUse" x1="2695.6292" y1="-1119.771" x2="-729.9909" y2="4832.5391">
						<stop  offset="0" style="stop-color:#AA80F9"/>
						<stop  offset="0.9964" style="stop-color:#6165D7"/>
					</linearGradient>
					
						<use xlink:href="#SVGID_00000043443869406378556040000002243886831510167449_"  style="overflow:visible;fill:url(#SVGID_00000042736797883103335780000002591625744818382494_);"/>
					<clipPath id="SVGID_00000008135216446188331800000007314362998693092541_">
						<use xlink:href="#SVGID_00000043443869406378556040000002243886831510167449_"  style="overflow:visible;"/>
					</clipPath>
					<g style="opacity:0.7;clip-path:url(#SVGID_00000008135216446188331800000007314362998693092541_);">
						<path class="st11" d="M2167.94,1784.61l-80.46-0.25c-10.27-0.03-18.6-8.82-18.6-19.62v-199.12
							c0-141.62-109.66-258.64-246.13-261.4l-155.05-3.14c-139.35-2.82-253.33,112.39-253.33,257.34v203.82
							c0,11.06-8.74,20-19.52,19.97l-85.03-0.26c-10.86-0.03-19.66-9.07-19.66-20.18v-204.71c0-216.03,170.28-386.95,377.54-381.83
							l155.04,3.83c202.02,4.99,363.65,178.61,363.65,387.84v198.28C2186.41,1775.95,2178.14,1784.65,2167.94,1784.61z"/>
						<path class="st2" d="M2214.23,1822.83l-953.79-1.64c-47.08-0.08-85.35,38.88-85.35,87.02v483.57
							c0,196.36,155.48,350.77,344.96,344.97l447.22-13.7c181.13-5.55,326.24-162.95,326.24-351.64v-464.68
							C2293.51,1860.47,2258.07,1822.9,2214.23,1822.83z M1836.17,2482.65l-182.05,3.99l48.37-215.17
							c-43.49-17.2-74.36-60.79-74.36-112.3c0-67.31,52.64-122.19,117.31-122.57c64.37-0.38,116.34,53.42,116.34,120.18
							c0,51.08-30.43,95.15-73.52,113.47L1836.17,2482.65z"/>
					</g>
				</g>
				<path class="st8" d="M719.99,1869.43V975.37l936.09,28.81v258.13c0,27.3,10.43,52.9,29.34,72.04
					c17.91,18.12,41.34,28.33,65.95,28.78c17.89,0.32,35.38-4.66,50.6-14.42c21.71-13.92,46.25-20.7,72.96-20.18
					c15.21,0.3,31.4,2.98,48.09,7.97c36.75,11,60.4,29.13,72.35,55.45c15.53,34.19,10.04,78.91-2.28,108.1
					c-6.63,12.6-52.88,44.06-107.86,43.42c-26.7-0.31-50.19-8.13-69.81-23.24c-16.47-12.68-35.84-19.53-56.03-19.79
					c-52.45-0.69-95.25,43.1-95.25,97.61v270.73l-261.46-0.01c54.69-114.29,33.41-198.69,4.24-250.84
					c-48.82-87.28-146.3-129.05-196.99-129.73c-2.79-0.04-5.46,0.04-7.97,0.19c-143.79,9.02-290.35,83.62-290.35,229.75
					c0,51.67,10.57,102.46,31.43,151.33L719.99,1869.43z"/>
				<g class="st12">
					
						<linearGradient id="SVGID_00000055673574931308656390000002408541158759418780_" gradientUnits="userSpaceOnUse" x1="2673.2983" y1="-1163.8021" x2="-777.5576" y2="4832.3574">
						<stop  offset="0" style="stop-color:#AA80F9"/>
						<stop  offset="0.9964" style="stop-color:#6165D7"/>
					</linearGradient>
					<path style="fill:url(#SVGID_00000055673574931308656390000002408541158759418780_);" d="M1425.02,1466.05
						c-40.71-218.97,23.88-373.92,85.35-531.72l-857.56-28.37v1030.81l319.25-0.73c35.91-0.08,58.25-38.55,41.82-70.79
						c-18.94-37.17-36.28-87.43-36.28-146.8c0-131.06,173.62-160.54,229.19-164.16c50.21-3.27,248.98,91.33,126.1,309
						c-17.85,31.63,4.38,71.19,39.99,71.11l347.12-0.78C1580.63,1811.9,1465.4,1683.3,1425.02,1466.05z"/>
				</g>
			</g>
			<g>
				<g>
					<defs>
						<path id="SVGID_00000111163762575909421120000009692041317914609812_" d="M2759.12,1941.68l-305.09,0.81
							c-34.34,0.09-54.95,41.3-35.38,71.32c99.99,153.38-15.23,297.98-108.27,305.08c-108.06,8.25-216.98-52.26-206.57-183.83
							c4.51-56.95,19.74-102.6,35.54-136.01c14.47-30.6-6.87-66.34-39.33-66.27l-373.29,0.84v329.03
							c0,25.11,25.51,41.59,46.94,29.76c30.94-17.08,77.42-32.62,140.23-27.35c126.02,10.56,197.57,118.41,151.98,207.57
							c-87.92,171.96-203.79,129.19-269.4,83.77c-21.49-14.87-50.76,2.15-50.76,29.34v379.15l1013.38-39.54V1941.68z"/>
					</defs>
					
						<linearGradient id="SVGID_00000176747857249014481130000016275757163474572199_" gradientUnits="userSpaceOnUse" x1="3824.9026" y1="-319.3227" x2="512.9424" y2="5435.4937">
						<stop  offset="0" style="stop-color:#FFC444"/>
						<stop  offset="0.9964" style="stop-color:#F36F56"/>
					</linearGradient>
					
						<use xlink:href="#SVGID_00000111163762575909421120000009692041317914609812_"  style="overflow:visible;fill:url(#SVGID_00000176747857249014481130000016275757163474572199_);"/>
					<clipPath id="SVGID_00000085233264710522087800000007461364788124428447_">
						<use xlink:href="#SVGID_00000111163762575909421120000009692041317914609812_"  style="overflow:visible;"/>
					</clipPath>
					<g style="clip-path:url(#SVGID_00000085233264710522087800000007461364788124428447_);">
						<path class="st2" d="M2167.94,1784.61l-80.46-0.25c-10.27-0.03-18.6-8.82-18.6-19.62v-199.12
							c0-141.62-109.66-258.64-246.13-261.4l-155.05-3.14c-139.35-2.82-253.33,112.39-253.33,257.34v203.82
							c0,11.06-8.74,20-19.52,19.97l-85.03-0.26c-10.86-0.03-19.66-9.07-19.66-20.18v-204.71c0-216.03,170.28-386.95,377.54-381.83
							l155.04,3.83c202.02,4.99,363.65,178.61,363.65,387.84v198.28C2186.41,1775.95,2178.14,1784.65,2167.94,1784.61z"/>
						<path class="st11" d="M2214.23,1822.83l-953.79-1.64c-47.08-0.08-85.35,38.88-85.35,87.02v483.57
							c0,196.36,155.48,350.77,344.96,344.97l447.22-13.7c181.13-5.55,326.24-162.95,326.24-351.64v-464.68
							C2293.51,1860.47,2258.07,1822.9,2214.23,1822.83z M1836.17,2482.65l-182.05,3.99l48.37-215.17
							c-43.49-17.2-74.36-60.79-74.36-112.3c0-67.31,52.64-122.19,117.31-122.57c64.37-0.38,116.34,53.42,116.34,120.18
							c0,51.08-30.43,95.15-73.52,113.47L1836.17,2482.65z"/>
					</g>
				</g>
				<path class="st8" d="M1807.99,2897.79v-260.02c35.07,16.53,69.96,24.37,104.22,23.39c58.46-1.66,141.64-30.68,207.17-159.16
					c28.36-55.62,28.18-119.62-0.5-175.79c-0.36-0.71-0.73-1.42-1.1-2.13c45.79,39.12,108.88,60.34,177.36,59.06
					c6.19-0.12,12.46-0.42,18.64-0.91c71.84-5.65,143.82-61.99,179.34-140.05c34.16-75.06,30.46-159.66-9.41-236.66l217.34-1.08
					v860.56L1807.99,2897.79z M2067.38,2260.83c-38.9-33.65-90.28-55.04-147.71-59.99c-11.5-0.99-23.02-1.43-34.25-1.29
					c-33.94,0.4-66.18,5.83-96.35,16.22v-217.57l284.54-1.3c-16.56,41.82-26.81,86.58-30.52,133.42
					C2039.27,2178.54,2047.62,2222.84,2067.38,2260.83z"/>
				<g class="st12">
					
						<linearGradient id="SVGID_00000182528916140990740380000013628489445729175435_" gradientUnits="userSpaceOnUse" x1="3750.908" y1="-497.5019" x2="338.7197" y2="5431.4697">
						<stop  offset="0" style="stop-color:#FFC444"/>
						<stop  offset="0.9964" style="stop-color:#F36F56"/>
					</linearGradient>
					<path style="fill:url(#SVGID_00000182528916140990740380000013628489445729175435_);" d="M1726.75,1939.51v323.14
						c0,25.11,25.51,41.59,46.94,29.76c30.94-17.08,77.42-32.62,140.23-27.35c126.02,10.56,197.57,118.41,151.98,207.57
						c-87.92,171.96-203.79,129.2-269.4,83.77c-21.49-14.87-50.76,2.15-50.76,29.34v379.15l648.72-25.31
						c-29.63-176.88-82.88-316.34-140.88-426.83C2104.25,2228.22,1898.39,2088.37,1726.75,1939.51z"/>
				</g>
			</g>
			<g>
				
					<linearGradient id="SVGID_00000020384246247122276630000008825722557628748722_" gradientUnits="userSpaceOnUse" x1="3072.407" y1="223.1092" x2="2052.7891" y2="1646.3256" gradientTransform="matrix(1 0 -0.1337 0.9872 399.0209 38.4002)">
					<stop  offset="0" style="stop-color:#311944"/>
					<stop  offset="1" style="stop-color:#893976"/>
				</linearGradient>
				<path style="fill:url(#SVGID_00000020384246247122276630000008825722557628748722_);" d="M1996.81,1281.28
					c39.61-23,82.63-44.93,156.7-21.96c140.74,43.66,114.26,181.47,76.45,248.76c-31.91,56.78-169.3,117.32-261.03,39.9
					c-19.47-16.43-67.2,3.64-70.93,31.21l-40.67,317.48l19.87,13.21l349.43-0.83c32.47-0.07,49.03,35.21,30.47,65.42
					c-20.27,32.99-41.6,78.04-53.72,134.27c-27.99,129.88,72.84,189.61,182,181.47c93.99-7.01,228.53-149.75,149.04-301.17
					c-15.56-29.63,10.56-70.31,44.91-70.4l305.2-0.79l129.11-953.66l-1011.83-33.98l-25.16,17.33l-41.9,300.97
					C1931.18,1274.89,1973.27,1294.95,1996.81,1281.28z"/>
				
					<linearGradient id="SVGID_00000170248203798277136550000000184549463685998001_" gradientUnits="userSpaceOnUse" x1="3091.8354" y1="219.8586" x2="2072.2173" y2="1643.075" gradientTransform="matrix(1 0 -0.1337 0.9872 399.0209 38.4002)">
					<stop  offset="0" style="stop-color:#FF9085"/>
					<stop  offset="1" style="stop-color:#FB6FBB"/>
				</linearGradient>
				<path style="fill:url(#SVGID_00000170248203798277136550000000184549463685998001_);" d="M2004.71,1277.84
					c39.61-23,98.7-41.49,172.77-18.51c140.74,43.66,114.26,181.47,76.45,248.76c-31.91,56.78-184.57,122.35-276.3,44.93
					c-19.47-16.43-51.93-1.39-55.66,26.18l-44.77,330.69l373.4-0.83c32.47-0.07,49.03,35.21,30.47,65.42
					c-20.27,32.99-41.6,78.04-53.72,134.27c-27.99,129.88,72.84,189.61,182,181.47c93.99-7.01,228.53-149.75,149.04-301.17
					c-15.56-29.63,10.56-70.31,44.91-70.4l305.2-0.79l129.11-953.66l-1035.8-33.98l-43.09,318.3
					C1955.14,1274.89,1981.17,1291.5,2004.71,1277.84z"/>
				<path class="st8" d="M2402.48,2228.18c-45.53,0.63-84.36-14.28-103.79-39.93c-14.47-19.11-18.24-43.6-11.51-74.85
					c8.56-39.76,23.46-77.13,44.26-111.04c20.71-33.78,24.31-73.01,9.62-105.03c-14.77-32.21-45.37-51.46-81.91-51.46l-310.95-0.02
					l28.97-214.01c28.01,13.07,59.61,19.96,93.43,20.19c94.9,0.66,198.15-51.15,235.56-117.85
					c29.97-53.44,53.38-137.04,29.27-211.83c-13.43-41.67-47.51-97.07-133.78-124.06c-25.93-8.12-52.23-12.55-78.14-13.16
					c-32.82-0.78-64.92,4.35-95.92,15.3l27.66-204.31l916.17,27.95l-112.66,832.1l-247.02,0.08c-38.14,0.01-75.93,22.15-98.57,57.82
					c-22.56,35.55-25.86,78.03-8.6,110.79c30.9,58.67,16.17,106.38-1.63,136.13c-24.47,40.89-63.85,64.87-88.51,66.65
					C2410.44,2227.95,2406.42,2228.12,2402.48,2228.18z"/>
				<g>
					<defs>
						<path id="SVGID_00000063629096785841836490000015184638733929971084_" d="M2004.71,1277.84c39.61-23,98.7-41.49,172.77-18.51
							c140.74,43.66,114.26,181.47,76.45,248.76c-31.91,56.78-184.57,122.35-276.3,44.93c-19.47-16.43-51.93-1.39-55.66,26.18
							l-44.77,330.69l373.4-0.83c32.47-0.07,49.03,35.21,30.47,65.42c-20.27,32.99-41.6,78.04-53.72,134.27
							c-27.99,129.88,72.84,189.61,182,181.47c93.99-7.01,228.53-149.75,149.04-301.17c-15.56-29.63,10.56-70.31,44.91-70.4
							l305.2-0.79l129.11-953.66l-1035.8-33.98l-43.09,318.3C1955.14,1274.89,1981.17,1291.5,2004.71,1277.84z"/>
					</defs>
					<clipPath id="SVGID_00000084517696930967391170000008004732878651276933_">
						<use xlink:href="#SVGID_00000063629096785841836490000015184638733929971084_"  style="overflow:visible;"/>
					</clipPath>
					<g style="opacity:0.6;clip-path:url(#SVGID_00000084517696930967391170000008004732878651276933_);">
						<path class="st2" d="M2338.29,1762.79l-80.42-0.25c-10.27-0.03-17.42-8.7-15.98-19.37l26.61-196.57
							c18.93-139.8-75.09-255.32-211.19-258.05l-154.63-3.1c-138.97-2.78-268.35,110.95-287.72,254.05l-27.24,201.21
							c-1.48,10.92-11.41,19.74-22.19,19.71l-84.99-0.26c-10.85-0.03-18.45-8.95-16.97-19.92l27.36-202.09
							c28.87-213.26,221.99-381.99,428.57-376.94l154.53,3.78c201.35,4.93,339.78,176.32,311.82,382.87l-26.5,195.74
							C2357.92,1754.23,2348.49,1762.82,2338.29,1762.79z"/>
						<path class="st2" d="M2379.49,1800.51l-953.57-1.62c-47.07-0.08-90.55,38.38-96.98,85.91l-64.63,477.37
							c-26.24,193.84,108.6,346.28,298.85,340.55l449.05-13.53c181.87-5.48,348.02-160.87,373.24-347.13l62.11-458.72
							C2453.73,1837.67,2423.31,1800.59,2379.49,1800.51z M1913.24,2451.88l-182.58,3.94l77.13-212.42
							c-41.2-16.98-66.24-60.01-59.35-110.86c9-66.45,68.97-120.62,133.69-121c64.42-0.38,109.2,52.74,100.27,118.64
							c-6.83,50.43-43.14,93.93-88.69,112.02L1913.24,2451.88z"/>
					</g>
				</g>
			</g>
			<g>
				
					<linearGradient id="SVGID_00000000225177244540441920000015688216513819103365_" gradientUnits="userSpaceOnUse" x1="2296.7825" y1="3084.272" x2="2376.4636" y2="3084.272">
					<stop  offset="0" style="stop-color:#40447E"/>
					<stop  offset="0.9964" style="stop-color:#3C3B6B"/>
				</linearGradient>
				<path style="fill:url(#SVGID_00000000225177244540441920000015688216513819103365_);" d="M2372.37,3079.3l-31.77-6.81
					c0,0-38.69-9.4-40.62-9.24c-1.93,0.16-10,16.31,10.35,25.17c20.36,8.87,52.82,18.89,62.03,16.51
					C2381.58,3102.56,2372.37,3079.3,2372.37,3079.3z"/>
				
					<linearGradient id="SVGID_00000093135081426578539430000013743009489957877417_" gradientUnits="userSpaceOnUse" x1="2343.4153" y1="2886.813" x2="2354.571" y2="3070.8845">
					<stop  offset="0" style="stop-color:#311944"/>
					<stop  offset="1" style="stop-color:#A03976"/>
				</linearGradient>
				<path style="fill:url(#SVGID_00000093135081426578539430000013743009489957877417_);" d="M2335.67,3030.89l12.13,49.99
					c0,0,10.74,7.64,23.86,0l-7.23-49.78L2335.67,3030.89z"/>
				
					<linearGradient id="SVGID_00000050653326576402361640000001063433997513597362_" gradientUnits="userSpaceOnUse" x1="2843.9116" y1="2856.4792" x2="2855.0676" y2="3040.5518">
					<stop  offset="0" style="stop-color:#311944"/>
					<stop  offset="1" style="stop-color:#A03976"/>
				</linearGradient>
				<path style="fill:url(#SVGID_00000050653326576402361640000001063433997513597362_);" d="M2852.97,2923.32l24.04,41.2
					l-3.57,1.84c-9.71,5-21.61,2.35-28.28-6.3l-23.35-30.29L2852.97,2923.32z"/>
				
					<linearGradient id="SVGID_00000034803976817495248670000000283774002228034467_" gradientUnits="userSpaceOnUse" x1="2788.0046" y1="2863.8833" x2="2603.9321" y2="2544.5454">
					<stop  offset="0" style="stop-color:#40447E"/>
					<stop  offset="0.9964" style="stop-color:#3C3B6B"/>
				</linearGradient>
				<path style="fill:url(#SVGID_00000034803976817495248670000000283774002228034467_);" d="M2617.97,2376.33
					c0,0,22.55,38.94,23.61,86.95c1.06,48.01,124.43,301.89,167.92,362.93c43.48,61.04,57.06,97.11,57.06,97.11
					s-23.28,23.94-44.76,22.78c0,0-218.27-188.23-322.42-392.36l-81.33-177.41H2617.97z"/>
				<g class="st12">
					
						<linearGradient id="SVGID_00000168817136136366265780000009083620001782789547_" gradientUnits="userSpaceOnUse" x1="2784.8376" y1="2865.7092" x2="2600.7649" y2="2546.3713">
						<stop  offset="0" style="stop-color:#40447E"/>
						<stop  offset="0.9964" style="stop-color:#3C3B6B"/>
					</linearGradient>
					<path style="fill:url(#SVGID_00000168817136136366265780000009083620001782789547_);" d="M2715.95,2779.06
						c-27.77-39.84-7.9-49.71-34.51-109.82c-34.93-78.89-79.27-84.73-96.22-142.24c-7.85-26.64-2.71-89.29,24.32-150.67h-191.47
						l81.33,177.41c104.15,204.14,322.42,392.36,322.42,392.36c6.91,0.37,14-1.87,20.45-5.06c-7.24-13.59-8.78-37.6-21.72-63.67
						C2793.6,2823.12,2752.74,2831.85,2715.95,2779.06z"/>
				</g>
				
					<linearGradient id="SVGID_00000140723408198672025350000002146857998367717303_" gradientUnits="userSpaceOnUse" x1="2524.3044" y1="2691.3169" x2="2213.333" y2="2734.5464">
					<stop  offset="0" style="stop-color:#40447E"/>
					<stop  offset="0.9964" style="stop-color:#3C3B6B"/>
				</linearGradient>
				<path style="fill:url(#SVGID_00000140723408198672025350000002146857998367717303_);" d="M2368.04,2372.86
					c-33.64,85.11-74.61,220.23-74.92,389.3c-0.22,115.79,18.7,213.29,38.76,285.53c9.9,8.41,37.73,7.06,45.34,3.14
					c21.1-103.81,27.81-185.58,29.87-242.55c1.32-36.55,1.07-72.03,16.33-119.07c10.06-31.01,28.8-62.3,65.87-123.62
					c50.43-83.41,63.13-93.01,74.03-133.44c5.69-21.09,17.48-75.03,17.48-75.03l0,0L2368.04,2372.86z"/>
				
					<linearGradient id="SVGID_00000119796402946268395150000009352557996644743040_" gradientUnits="userSpaceOnUse" x1="2388.3582" y1="1991.0243" x2="2824.502" y2="1991.0243">
					<stop  offset="0" style="stop-color:#AA80F9"/>
					<stop  offset="0.9964" style="stop-color:#6165D7"/>
				</linearGradient>
				<path style="fill:url(#SVGID_00000119796402946268395150000009352557996644743040_);" d="M2389.14,1991.29
					c5.65-18.12,40.87-21.95,75.8-25.39c126.2-12.42,219.51,32.03,228,14.12c3.07-6.48-7.82-15.04-25.1-37.65
					c-26.96-35.27-42.18-69-50.95-92.61c10.01-2.16,20.03-4.31,30.05-6.47c122.84,51.8,189.87,136.49,175.69,199.48
					c-8.2,36.43-41.85,58-57.8,68.22c-98.65,63.23-226.62,0.93-260.32-15.47C2452.42,2070.17,2380.05,2020.42,2389.14,1991.29z"/>
				
					<linearGradient id="SVGID_00000183928908628266797660000001661193740942580387_" gradientUnits="userSpaceOnUse" x1="1903.4583" y1="2081.1467" x2="2637.5564" y2="2081.1467">
					<stop  offset="0" style="stop-color:#AA80F9"/>
					<stop  offset="0.9964" style="stop-color:#6165D7"/>
				</linearGradient>
				<path style="fill:url(#SVGID_00000183928908628266797660000001661193740942580387_);" d="M1903.46,1707.51
					c13.2-1.33,26.41-2.65,39.61-3.98c50.69,77.64,106.85,128.1,145.64,157.98c35.66,27.46,101.41,76.55,195.67,100.32
					c119.14,30.03,164.49-10.71,223.12,12.55c67.2,26.66,132.05,129.56,130.02,455.39c-25.17,11.86-81.17,34.07-154.1,27.96
					c-62.1-5.2-107.71-28.52-131.05-42.64c-0.59-26.09-4.15-65.96-19.92-111.01c-8.33-23.81-37.28-98.23-151.69-196.12
					c-102.79-87.95-132.1-72.96-185.06-129.37C1953.73,1933.88,1906.96,1855.05,1903.46,1707.51z"/>
				
					<linearGradient id="SVGID_00000071522571965073674810000007958697289785146799_" gradientUnits="userSpaceOnUse" x1="2128.6724" y1="852.1684" x2="1793.994" y2="2172.0522">
					<stop  offset="0" style="stop-color:#311944"/>
					<stop  offset="1" style="stop-color:#A03976"/>
				</linearGradient>
				<path style="fill:url(#SVGID_00000071522571965073674810000007958697289785146799_);" d="M1942.39,1703.11
					c0,0,17.73-30.97,15.33-36.98c-2.4-6.01-5.49-24.31-7.55-30.18c-2.06-5.87-0.54,37.41-14,40.08
					c-13.46,2.66-14.64-44.9-18.11-68.78c-3.47-23.88-22.59,2.09-22.58,28.7c0.01,26.61,12.78,70.59,12.78,70.59
					S1933.35,1720.37,1942.39,1703.11z"/>
				
					<linearGradient id="SVGID_00000028310899012196500100000000773814047737695893_" gradientUnits="userSpaceOnUse" x1="2813.9253" y1="1025.9321" x2="2479.249" y2="2345.8086">
					<stop  offset="0" style="stop-color:#311944"/>
					<stop  offset="1" style="stop-color:#A03976"/>
				</linearGradient>
				<path style="fill:url(#SVGID_00000028310899012196500100000000773814047737695893_);" d="M2616.7,1849.85l-26.38-36.44H2608
					c0,0,0.8-4.88-2.94-16.71c-3.74-11.83-22.33-17.37-17.36-22.01c4.98-4.64,50.13,14.18,53.44,25.86
					c3.31,11.69,2.16,43.57,2.16,43.57S2625.9,1853.11,2616.7,1849.85z"/>
				
					<linearGradient id="SVGID_00000119825782826388281420000016925784666884243348_" gradientUnits="userSpaceOnUse" x1="2374.9055" y1="2058.4097" x2="2426.2341" y2="1893.0182">
					<stop  offset="0" style="stop-color:#311944"/>
					<stop  offset="1" style="stop-color:#A03976"/>
				</linearGradient>
				<path style="fill:url(#SVGID_00000119825782826388281420000016925784666884243348_);" d="M2390.59,1959.84l10.59-17.67
					l21.75-2.66l2.91,19.82c1.01,6.87,7.25,11.73,14.16,11.03l10.57-1.07c0,0-7.43,28.02-46.08,32.45
					c-38.66,4.44-50.06-31.96-50.06-31.96l13.79,1.35C2377.22,1972,2385.93,1967.61,2390.59,1959.84z"/>
				<g>
					<g>
						
							<linearGradient id="SVGID_00000088813382877997584810000005600883861766004912_" gradientUnits="userSpaceOnUse" x1="2568.6829" y1="2391.0176" x2="2646.8245" y2="2262.084" gradientTransform="matrix(0.9602 -0.2794 0.2794 0.9602 -736.9718 445.2831)">
							<stop  offset="0" style="stop-color:#311944"/>
							<stop  offset="1" style="stop-color:#A03976"/>
						</linearGradient>
						<path style="fill:url(#SVGID_00000088813382877997584810000005600883861766004912_);" d="M2423.47,1952.87
							c2-1.1,18.27-3.07,20.52-11.82c3.04-11.88-7.63-26.33-8.96-28.66c-5.57-9.74-6.97-11.05-9.56-12.7l-3.59-2.11
							c0,0-0.21-0.08-0.42-0.15c-2.29-0.76-10.05-0.82-11.61-0.45c-4.99,1.18-9.87,21.74-7.7,50.61c-0.18,1.11-0.36,2.22-0.53,3.35
							C2401.17,1953.85,2423.62,1953.9,2423.47,1952.87z"/>
						<path class="st31" d="M2432.09,1889.13c0.17,8.95-3.83,18.61-5.94,20.19c-0.27,0.2-1.81,1.47-3.16,3.62
							c-0.19,0.29-0.35,0.63-0.49,1.07c-1.83,5.69,7.29,12.12,5.61,14.69c-1.21,1.86-7.37-0.45-8.06,1.15
							c-0.65,1.5,4.49,4.47,3.75,6.28c-0.55,1.36-3.7,0.2-5.62,2.3c-0.96,1.05-0.65,1.86-1.62,5.02c-0.55,1.79-1.32,3.75-1.94,4.85
							c-2.98,5.33-11.69,7.44-13.43,5.38c-0.48-0.58-0.09-1.08-0.61-3.03c0,0-0.49-1.81-1.8-3.89c-1.88-2.97-6.3-5.03-10.79-8.11
							c-8.31-5.7-10.65-10.67-11.35-12.35c-0.25-0.6-0.41-1.05-0.52-1.38c-2.28-6.55-2.5-16.24,0.33-22.27
							c4.74-10.1,16.06-5.61,25.01-15.71c10.33-11.65,3.67-27.11,9.38-28.97C2417.13,1855.92,2431.77,1872.57,2432.09,1889.13z"/>
						
							<linearGradient id="SVGID_00000013156632810440253310000001255901098071863190_" gradientUnits="userSpaceOnUse" x1="2570.0972" y1="2391.8762" x2="2648.2393" y2="2262.9417" gradientTransform="matrix(0.9602 -0.2794 0.2794 0.9602 -736.9718 445.2831)">
							<stop  offset="0" style="stop-color:#311944"/>
							<stop  offset="1" style="stop-color:#A03976"/>
						</linearGradient>
						<path style="fill:url(#SVGID_00000013156632810440253310000001255901098071863190_);" d="M2424.84,1926.66
							c-2.26-2.97-6.05-0.04-5.99,3.86c0.07,3.9,3.94,7.87,7.59,7.02C2430.09,1936.69,2427.89,1930.66,2424.84,1926.66z"/>
					</g>
				</g>
				
					<linearGradient id="SVGID_00000003079523901750797910000014490723450017277366_" gradientUnits="userSpaceOnUse" x1="2406.9216" y1="1854.4543" x2="1746.4094" y2="3249.5532">
					<stop  offset="0" style="stop-color:#AA80F9"/>
					<stop  offset="0.9964" style="stop-color:#6165D7"/>
				</linearGradient>
				<path style="opacity:0.3;fill:url(#SVGID_00000003079523901750797910000014490723450017277366_);" d="M2484.81,2419.28
					c-46.4-39.13,3.07-143.84-64.84-204.99c-28.88-26-47.33-15.63-82.62-50.2c-44.2-43.29-31.02-74.98-65.89-106.68
					c-41.47-37.7-75.82-7.17-152.7-35.56c-67.81-25.05-108.64-73.75-148.51-121.32c-15.5-18.49-34.24-43.43-52.57-75.06
					c17.72,74.96,49.01,122.21,78.02,153.11c52.96,56.42,82.27,41.42,185.06,129.38c114.4,97.89,143.35,172.31,151.69,196.12
					c15.77,45.05,19.33,84.92,19.92,111.01c23.34,14.12,68.94,37.44,131.05,42.64c72.93,6.11,128.93-16.1,154.1-27.96
					c0.06-9.6,0.05-18.96,0-28.18C2546.33,2443.08,2505.13,2436.42,2484.81,2419.28z"/>
				
					<linearGradient id="SVGID_00000119807033494375776840000006977251182543518391_" gradientUnits="userSpaceOnUse" x1="2845.5046" y1="2982.2297" x2="2888.7144" y2="2982.2297">
					<stop  offset="0" style="stop-color:#40447E"/>
					<stop  offset="0.9964" style="stop-color:#3C3B6B"/>
				</linearGradient>
				<path style="fill:url(#SVGID_00000119807033494375776840000006977251182543518391_);" d="M2866.09,2952.68
					c0,0,10.88-7.5,19.25,10.46c8.37,17.96-1.35,41.83-2.05,46.02c-0.7,4.18-33.88,4.18-33.88,4.18s-8.78-9.76,0-12.55
					c8.78-2.79,5.34-23.03,3.25-27.21C2850.56,2969.39,2850.06,2957.47,2866.09,2952.68z"/>
			</g>
		</g>
		<g>
			<g>
				<g>
					<path class="st35" d="M1541.77,2891.08l-42.19-7.84c2.32-28.4,0.65-56.4-4.6-83.4l39.54-13.99
						c10.81-3.82,16.53-15.94,12.81-27.1l-9.93-29.76c-3.74-11.22-15.59-17.31-26.49-13.57l-38.97,13.38
						c-12.08-26.04-27.75-50.42-46.56-72.39l26.79-30.99c7.69-8.89,6.7-22.68-2.2-30.83l-23.82-21.79c-9-8.24-22.64-7.7-30.45,1.23
						l-26.77,30.63c-23.8-17.05-50.34-31.1-79.19-41.39l7.67-40.84c2.26-12.05-5.73-24.13-17.89-26.99l-32.54-7.66
						c-12.31-2.9-24.18,4.62-26.47,16.8l-7.75,41.29c-31.13-3.2-61.96-1.86-91.73,3.59l-14.9-41.44
						c-4.38-12.18-17.88-19.11-30.18-15.47l-32.9,9.76c-12.44,3.69-18.91,16.66-14.42,28.93l15.53,42.45
						c-28.14,12.9-54.3,29.76-77.59,50.07l-36.7-30.94c-10.4-8.77-25.98-8.16-34.78,1.4l-23.48,25.52
						c-8.86,9.63-7.47,24.54,3.08,33.27l38.07,31.49c-16.87,24.92-30.29,52.51-39.46,82.27l-50.98-9.48
						c-13.72-2.55-26.83,5.75-29.23,18.55l-6.39,34.04c-2.4,12.8,6.83,25.13,20.58,27.54l52.44,9.17
						c-1.16,30.53,2.26,60.44,9.73,89.01l-51.1,17.54c-13.03,4.47-19.74,17.92-14.96,30.01l12.67,32.04
						c4.75,12.01,19.09,18.02,31.99,13.45l51.79-18.32c14.52,25.58,32.58,49.04,53.64,69.71l-35.5,40.62
						c-8.65,9.9-7.32,24.28,2.97,32.07l27.2,20.6c10.17,7.7,25.31,5.93,33.82-3.92l35.32-40.86c24.62,14.25,51.42,25.39,79.93,32.85
						l-9.6,51.14c-2.29,12.18,6.07,23.35,18.63,24.93l33.19,4.2c12.4,1.57,24.26-6.93,26.52-18.98l9.5-50.58
						c28.94,0.47,57.18-2.91,84.14-9.66l16.95,46.33c4.05,11.07,16.6,16.33,28,11.77l30.17-12.05
						c11.28-4.51,17.21-17.05,13.25-28.04L1331.6,3135c24.73-13,47.6-29.11,67.99-47.85l35.95,29.73c8.83,7.3,22.11,5.74,29.68-3.44
						l20.08-24.35c7.53-9.13,6.58-22.45-2.13-29.79l-34.67-29.23c15.13-22.67,27.41-47.53,36.25-74.16l43.41,7.59
						c11.19,1.96,21.98-5.78,24.14-17.28l5.74-30.57C1560.21,2904.15,1552.93,2893.16,1541.77,2891.08z M1153.09,3078.65
						c-125.66-18.8-211.91-135.26-188.58-259.51c23.33-124.25,146.19-202.83,270.41-176.37c120,25.56,196.57,140.27,174.66,256.99
						C1387.66,3016.47,1274.48,3096.8,1153.09,3078.65z"/>
					<polygon class="st35" points="1117.41,2498.68 1087.57,2492 1072.15,2516.99 					"/>
					<polygon class="st35" points="1412.92,2567.03 1447.5,2573.87 1442.7,2599.42 					"/>
					<polygon class="st35" points="1521.79,2715.05 1556.05,2722.93 1543.79,2740.64 					"/>
					<polygon class="st35" points="1544.68,2892 1579.04,2901.31 1564.47,2916.09 					"/>
					<polygon class="st35" points="1441.76,3120.38 1474.69,3131.56 1484.02,3104.72 					"/>
					<polygon class="st35" points="1288.89,3220.71 1318.24,3231.94 1324.86,3209.95 					"/>
					<polygon class="st35" points="1126.86,3246.05 1100.5,3236.09 1130.52,3205.63 					"/>
					<polygon class="st35" points="984.6,3188.96 954.07,3176.44 984.16,3151.35 					"/>
					<polygon class="st35" points="912.92,2586.46 945.87,2593.72 928.22,2615.43 					"/>
					<polygon class="st35" points="798.17,2834.06 827.71,2844.25 829.96,2818.94 					"/>
					<polygon class="st35" points="829.27,3028.26 858.05,3038.67 864.16,3019.45 					"/>
				</g>
				<path class="st36" d="M1575.33,2900.21l-42.54-7.91c2.34-28.63,0.65-56.86-4.64-84.08l39.87-14.1
					c10.9-3.85,16.67-16.07,12.92-27.32l-10.01-30c-3.77-11.32-15.72-17.46-26.71-13.68l-39.29,13.48
					c-12.18-26.26-27.98-50.84-46.95-72.99l27.01-31.24c7.75-8.96,6.76-22.86-2.22-31.08l-24.01-21.96
					c-9.08-8.3-22.83-7.77-30.7,1.24l-26.99,30.87c-24-17.19-50.76-31.36-79.85-41.72l7.73-41.17c2.28-12.15-5.78-24.32-18.04-27.21
					l-32.81-7.72c-12.42-2.92-24.38,4.65-26.69,16.93l-7.81,41.62c-31.38-3.23-62.47-1.87-92.49,3.62l-15.03-41.78
					c-4.42-12.28-18.03-19.27-30.43-15.59l-33.18,9.84c-12.55,3.72-19.07,16.79-14.54,29.17l15.66,42.79
					c-28.38,13.01-54.75,30-78.23,50.48l-37-31.19c-10.49-8.84-26.2-8.23-35.07,1.41l-23.67,25.73c-8.93,9.71-7.53,24.74,3.11,33.54
					l38.39,31.75c-17.01,25.12-30.54,52.94-39.79,82.94l-51.4-9.56c-13.83-2.57-27.05,5.8-29.47,18.7l-6.44,34.32
					c-2.42,12.9,6.89,25.34,20.75,27.76l52.87,9.25c-1.17,30.78,2.28,60.93,9.81,89.74l-51.52,17.68
					c-13.14,4.51-19.9,18.07-15.08,30.26l12.78,32.31c4.79,12.11,19.24,18.16,32.26,13.56l52.22-18.47
					c14.64,25.78,32.85,49.44,54.08,70.28l-35.8,40.95c-8.73,9.98-7.38,24.48,2.99,32.33l27.43,20.77
					c10.26,7.77,25.52,5.98,34.1-3.95l35.61-41.19c24.83,14.37,51.85,25.6,80.59,33.12l-9.68,51.56
					c-2.3,12.28,6.12,23.54,18.79,25.14l33.46,4.23c12.5,1.58,24.46-6.99,26.74-19.13l9.57-51c29.18,0.48,57.65-2.93,84.84-9.74
					l17.09,46.71c4.08,11.16,16.74,16.46,28.24,11.87l30.42-12.14c11.38-4.54,17.35-17.18,13.36-28.26l-16.5-45.86
					c24.93-13.1,47.99-29.34,68.56-48.24l36.25,29.97c8.9,7.36,22.29,5.79,29.93-3.47l20.25-24.54c7.59-9.2,6.63-22.63-2.15-30.04
					l-34.96-29.47c15.26-22.86,27.64-47.92,36.55-74.77l43.77,7.65c11.28,1.97,22.17-5.83,24.34-17.42l5.79-30.82
					C1593.92,2913.4,1586.59,2902.31,1575.33,2900.21z M1183.43,3089.3c-126.7-18.95-213.67-136.36-190.15-261.63
					c23.52-125.27,147.4-204.48,272.65-177.8c121,25.78,198.2,141.42,176.11,259.08C1419.95,3026.62,1305.83,3107.61,1183.43,3089.3
					z"/>
			</g>
		</g>
	</g>
</g>
</svg>
