<?xml version="1.0" encoding="utf-8"?>
<!-- Generator: Adobe Illustrator 28.1.0, SVG Export Plug-In . SVG Version: 6.00 Build 0)  -->
<svg version="1.1" xmlns="http://www.w3.org/2000/svg" xmlns:xlink="http://www.w3.org/1999/xlink" x="0px" y="0px"
	 viewBox="0 0 3710 3710" style="enable-background:new 0 0 3710 3710;" xml:space="preserve">
<style type="text/css">
	.st0{fill:#F4F7FA;}
	.st1{fill:url(#SVGID_1_);}
	.st2{fill:url(#SVGID_00000115474752773802346630000003647064623802531720_);}
	.st3{fill:#FFFFFF;}
	.st4{fill:url(#SVGID_00000167382213868435408920000008529633859441366704_);}
	.st5{opacity:0.5;clip-path:url(#SVGID_00000147935217930280917010000004473459016997182089_);}
	.st6{fill:#FCFDFE;}
	
		.st7{clip-path:url(#SVGID_00000173844511077545978780000016504875220221924757_);fill:url(#SVGID_00000065049450530102198510000013811388066838223011_);}
	.st8{opacity:0.5;clip-path:url(#SVGID_00000173844511077545978780000016504875220221924757_);}
	.st9{fill:#BEB8F2;}
	.st10{fill:url(#SVGID_00000062897147862771600650000016096330439039367857_);}
	.st11{opacity:0.5;clip-path:url(#SVGID_00000044150260809768355920000002657049511145252491_);}
	.st12{fill:url(#SVGID_00000040546374474219542680000005385695671557198522_);}
	.st13{fill:url(#SVGID_00000088828162676305151030000003939770778215591318_);}
	.st14{fill:url(#SVGID_00000005971918885778335480000017123499742555226039_);}
	.st15{fill:#EFF2F6;}
	.st16{fill:url(#SVGID_00000009553563135868744560000002552988039113214389_);}
	.st17{opacity:0.3;fill:url(#SVGID_00000034803741445220237340000012709180313553074361_);}
	.st18{opacity:0.48;fill:#FFFFFF;}
	.st19{clip-path:url(#SVGID_00000120557286777307678490000006857711675586372543_);}
	.st20{fill:url(#SVGID_00000143580388993293589140000016130492596000334760_);}
	.st21{fill:url(#SVGID_00000119087308553666350570000004119824176427412143_);}
	.st22{fill:url(#SVGID_00000137116191042785522870000014194519455962871939_);}
	.st23{fill:url(#SVGID_00000006684676117582397480000001153608155553037958_);}
	.st24{fill:url(#SVGID_00000116938017087840586820000005716137302197204667_);}
	.st25{fill:url(#SVGID_00000062891632530612200130000012516235724128234911_);}
	.st26{fill:url(#SVGID_00000082341372904110814480000003114278375099505320_);}
	.st27{opacity:0.3;fill:url(#SVGID_00000119119371530196954640000010662005850455757986_);}
	.st28{fill:url(#SVGID_00000051348158091611610350000015087110763068711046_);}
	.st29{fill:url(#SVGID_00000090279141050070696460000003242765789723625861_);}
	.st30{fill:url(#SVGID_00000082348505535006501710000008033552631870357692_);}
	.st31{fill:url(#SVGID_00000050627559673091451140000005760201525182984125_);}
	.st32{fill:url(#SVGID_00000067917622644712619890000014407965565157242499_);}
	.st33{fill:url(#SVGID_00000172439488294824411150000013510263826716509593_);}
	.st34{fill:url(#SVGID_00000149373872297743803640000003970509246000932774_);}
	.st35{opacity:0.3;fill:url(#SVGID_00000047759260414199767350000012439206634994235053_);}
	.st36{fill:url(#SVGID_00000040552286980863524880000011084604933333858438_);}
	.st37{fill:url(#SVGID_00000037671979295573124090000016842488926499587463_);}
	.st38{fill:url(#SVGID_00000161632449125234190660000016470393771806748855_);}
	.st39{fill:url(#SVGID_00000089573591033679925640000010026699337818869164_);}
	.st40{fill:url(#SVGID_00000140734652381837575090000008736687591750530482_);}
	.st41{fill:url(#SVGID_00000033366522923609501080000012014749190106381750_);}
</style>
<g id="Background">
</g>
<g id="Illustration">
	<g>
		<path class="st0" d="M2574.19,617.72c95.86,134.2-12.56,354.54,128.63,454.74c137.44,97.54,303.3-66.45,432.75,17.39
			c192.03,124.38,163.29,703.04-111.74,1065.28c-82.71,108.94-152.33,151.72-182.07,274.25
			c-63.87,263.11,171.94,416.74,128.74,546.99c-97.26,293.28-1637.79,554.72-2266.19-316.99
			c-293.49-407.13-342.99-998.96-89.35-1451.52C1073.28,390.08,2359.1,316.6,2574.19,617.72z"/>
		<g>
			<g>
				<linearGradient id="SVGID_1_" gradientUnits="userSpaceOnUse" x1="2269.7114" y1="1057.624" x2="1190.6473" y2="3270.7388">
					<stop  offset="3.597120e-03" style="stop-color:#E38DDD"/>
					<stop  offset="1" style="stop-color:#9571F6"/>
				</linearGradient>
				<path class="st1" d="M923.56,917.58v1490.91c0,21.02,17.03,37.47,37.99,36.75l2063.04-71.26c16.9-0.58,30.57-16.32,30.57-35.14
					V1003.76L923.56,917.58z"/>
				
					<linearGradient id="SVGID_00000111163131112094607020000009593328346941806991_" gradientUnits="userSpaceOnUse" x1="2382.491" y1="76.2511" x2="2002.0219" y2="917.5692">
					<stop  offset="3.597120e-03" style="stop-color:#E38DDD"/>
					<stop  offset="1" style="stop-color:#9571F6"/>
				</linearGradient>
				<path style="fill:url(#SVGID_00000111163131112094607020000009593328346941806991_);" d="M3024.59,930.42L961.55,838.88
					c-20.96-0.93-37.99,15.35-37.99,36.38v64.88l2131.61,83.82v-58.1C3055.16,947.04,3041.49,931.17,3024.59,930.42z"/>
				<path class="st3" d="M1011.5,890.24c0,9.31-7.51,16.54-16.79,16.16c-9.28-0.38-16.82-8.25-16.82-17.57
					c0-9.32,7.53-16.56,16.82-16.16C1003.98,873.07,1011.5,880.94,1011.5,890.24z"/>
			</g>
			<g>
				<polygon class="st3" points="1288.76,1203.36 1081.47,1197.79 1081.47,1145.29 1288.76,1151.4 				"/>
				<polygon class="st3" points="2378.61,1232.68 1420.55,1206.91 1420.55,1155.29 2378.61,1183.54 				"/>
				<polygon class="st3" points="1620.98,1299.59 1420.55,1295.09 1420.55,1243.46 1620.98,1248.49 				"/>
				<polygon class="st3" points="2675.93,1323.29 1748.45,1302.45 1748.45,1251.68 2675.93,1274.93 				"/>
				<polygon class="st3" points="1620.98,1386.88 1420.55,1383.26 1420.55,1331.64 1620.98,1335.78 				"/>
				<polygon class="st3" points="2675.93,1405.9 1748.45,1389.18 1748.45,1338.41 2675.93,1357.54 				"/>
				<polygon class="st3" points="1288.76,1469.65 1081.47,1466.83 1081.47,1414.33 1288.76,1417.69 				"/>
				<polygon class="st3" points="2378.61,1484.47 1420.55,1471.44 1420.55,1419.82 2378.61,1435.34 				"/>
				<polygon class="st3" points="1620.98,1561.46 1420.55,1559.62 1420.55,1508 1620.98,1510.36 				"/>
				<polygon class="st3" points="2675.93,1571.13 1748.45,1562.63 1748.45,1511.86 2675.93,1522.77 				"/>
				<polygon class="st3" points="1620.98,1648.75 1420.55,1647.8 1420.55,1596.18 1620.98,1597.65 				"/>
				<polygon class="st3" points="2675.93,1653.75 1748.45,1649.35 1748.45,1598.58 2675.93,1605.38 				"/>
				<polygon class="st3" points="1620.98,1736.04 1420.55,1735.98 1420.55,1684.36 1620.98,1684.94 				"/>
				<polygon class="st3" points="2675.93,1736.36 1748.45,1736.08 1748.45,1685.31 2675.93,1688 				"/>
				<polygon class="st3" points="1945.37,1821.99 1751.52,1822.79 1751.52,1772.03 1945.37,1771.73 				"/>
				<polygon class="st3" points="2966.76,1817.78 2068.69,1821.48 2068.69,1771.54 2966.76,1770.17 				"/>
				<polygon class="st3" points="1288.76,1913.46 1081.47,1915.23 1081.47,1862.73 1288.76,1861.5 				"/>
				<polygon class="st3" points="2378.61,1904.14 1420.55,1912.33 1420.55,1860.71 2378.61,1855 				"/>
				<polygon class="st3" points="1620.98,1997.91 1420.55,2000.51 1420.55,1948.89 1620.98,1946.81 				"/>
				<polygon class="st3" points="2675.93,1984.21 1748.45,1996.25 1748.45,1945.48 2675.93,1935.84 				"/>
				<polygon class="st3" points="1620.98,2085.2 1420.55,2088.69 1420.55,2037.07 1620.98,2034.1 				"/>
				<polygon class="st3" points="2675.93,2066.82 1748.45,2082.98 1748.45,2032.21 2675.93,2018.46 				"/>
				<polygon class="st3" points="1288.76,2179.75 1081.47,2184.28 1081.47,2131.78 1288.76,2127.78 				"/>
				<polygon class="st3" points="2378.61,2155.93 1420.55,2176.87 1420.55,2125.25 2378.61,2106.8 				"/>
				<polygon class="st3" points="1620.98,2259.78 1420.55,2265.05 1420.55,2213.43 1620.98,2208.68 				"/>
				<polygon class="st3" points="2675.93,2232.05 1748.45,2256.43 1748.45,2205.66 2675.93,2183.69 				"/>
			</g>
		</g>
		<g>
			<g>
				
					<linearGradient id="SVGID_00000035528893803994630870000011114301980616288404_" gradientUnits="userSpaceOnUse" x1="-2248.4106" y1="652.6409" x2="-1558.8561" y2="2464.5044" gradientTransform="matrix(-0.9526 -0.3041 -0.3041 0.9526 1198.1394 207.51)">
					<stop  offset="0" style="stop-color:#FFC444"/>
					<stop  offset="0.9964" style="stop-color:#F36F56"/>
				</linearGradient>
				<path style="fill:url(#SVGID_00000035528893803994630870000011114301980616288404_);" d="M2427.64,2714.8
					c13.75,71.5-30.5,128.61-68.38,165.02c-6.49-1.57-10.69-0.71-17.63-0.74c-62.63-0.32-88.51-14.51-149.63-25.1
					c-13.16-2.28-49.15-21.45-63.33-30.31l-26.15-16.98c0,0-11.98-168.59,78.49-191.84c90.47-23.25,98.52-186.06,112.89-272.38
					c38.97-234.2,281.99-151.61,356.12-448.56c19.72-78.98,30.91-236.2,113.16-282.56c93.71-52.82,131.62,31.28,195.31-16.54
					c99.55-74.73,231.66-77.58,281.45,37.19c49.14,113.27-86.42,280.71-344.19,378.3c-176.99,90.95-188.72,128.44-200.32,223.95
					c-8.12,66.9,11.75,251.37-93.14,296.99C2497.4,2576.85,2411.92,2633.06,2427.64,2714.8z"/>
				<g>
					<defs>
						<path id="SVGID_00000013890058206981588750000010638075077172324747_" d="M2307.87,2922.79l-201.95-109.23
							c0,0-15.39-175.45,75.08-198.7c90.47-23.25,98.52-186.06,112.89-272.38c38.97-234.2,281.99-151.61,356.12-448.56
							c19.72-78.98,30.91-236.2,113.16-282.56c93.71-52.82,131.62,31.28,195.31-16.54c99.55-74.73,231.66-77.58,281.45,37.19
							c49.14,113.27-86.42,280.71-344.19,378.3c-176.99,90.95-188.72,128.44-200.32,223.95c-8.12,66.9,11.75,251.37-93.14,296.99
							c-104.89,45.61-190.36,101.83-174.64,183.57C2451.55,2839.18,2307.87,2922.79,2307.87,2922.79z"/>
					</defs>
					<clipPath id="SVGID_00000051376267051272606640000012411750727846922642_">
						<use xlink:href="#SVGID_00000013890058206981588750000010638075077172324747_"  style="overflow:visible;"/>
					</clipPath>
					<g style="opacity:0.5;clip-path:url(#SVGID_00000051376267051272606640000012411750727846922642_);">
						<path class="st6" d="M2222.65,2864.17l-4.25-1.64c9.75-25.31,19.89-50.71,30.15-75.5
							c75.97-183.56,166.32-353.38,268.55-504.76c86.63-128.26,182.97-245.11,286.36-347.28
							c83.15-82.17,171.28-155.34,261.95-217.49c63.74-43.69,128.07-81.51,191.2-112.42c11-5.39,22.55-10.28,33.72-15.02
							c14.88-6.31,30.28-12.83,44.48-20.57l2.18,4c-14.4,7.85-29.89,14.42-44.88,20.77c-11.12,4.71-22.61,9.58-33.5,14.92
							c-62.93,30.81-127.07,68.53-190.63,112.09c-90.45,61.99-178.37,134.99-261.32,216.97
							c-103.18,101.97-199.33,218.57-285.79,346.59c-102.06,151.12-192.27,320.67-268.12,503.95
							C2242.52,2813.53,2232.38,2838.9,2222.65,2864.17z"/>
						<path class="st6" d="M2686.03,2067.73l-3.53-2.87c123.21-151.62,131.34-486.32,131.41-489.68l4.55,0.09
							C2818.39,1578.65,2810.23,1914.89,2686.03,2067.73z"/>
						<path class="st6" d="M2378.55,2522.09l-3.84-2.44c71.68-112.84,325.66-150.55,328.22-150.92l0.65,4.51
							C2701.04,2373.6,2449.1,2411.01,2378.55,2522.09z"/>
						<path class="st6" d="M2343.41,2589.63l-4.21-1.72c33.03-80.77,34.91-208.57,5.3-359.84c-1.49-7.61-1.49-7.61-1.17-8.41
							l4.23,1.67l-2.12-0.84l2.27-0.02c0.04,0.52,0.6,3.39,1.26,6.72C2378.74,2379.32,2376.77,2508.04,2343.41,2589.63z"/>
						<path class="st6" d="M2241.09,2818.24l-3.54-2.86c60.31-74.83,202.87-74.84,204.3-74.83l-0.03,4.55
							C2440.41,2745.09,2300.03,2745.12,2241.09,2818.24z"/>
						<path class="st6" d="M2215.88,2862.86c1.59-77.49-19.01-157.97-62.99-246.03l4.07-2.03c44.32,88.74,65.08,169.92,63.47,248.16
							L2215.88,2862.86z"/>
						<path class="st6" d="M3015.19,1758.74l-3.37-3.06c73.2-80.48,131.45-182,150.59-215.36c4.63-8.08,6.27-10.91,7.02-11.8
							l3.49,2.92c-0.56,0.69-3.21,5.3-6.56,11.15C3147.16,1576.05,3088.73,1677.89,3015.19,1758.74z"/>
						<path class="st6" d="M2876.82,1871.99l-2.32-3.92c87.83-51.91,285.26-0.46,293.63,1.76l-1.17,4.4
							C3164.93,1873.69,2963,1821.05,2876.82,1871.99z"/>
					</g>
				</g>
			</g>
			<g>
				<defs>
					<path id="SVGID_00000120541213057845630360000010932083738536289698_" d="M2201.62,2946.1l179.86,109.64
						c0,0,90.1-71.63,85.72-163.61c-8.95-187.67,156.05-182.41,225.48-190.54c104.71-12.27,191.64-68.74,108.59-167.03
						c-83.06-98.29,120.17-195.98,292.14-191.42c168.28,4.46,273.32-292.1-90.02-335.21c-216.99-25.74-300.06,170.31-365.54,259.35
						c-65.49,89.03-210.06,11.58-232.22,155.6c-18.93,123.02,15.13,241.9-85.25,273.22
						C2219.98,2727.42,2167.75,2799.31,2201.62,2946.1z"/>
				</defs>
				
					<linearGradient id="SVGID_00000101083516804170009670000017816022222086443155_" gradientUnits="userSpaceOnUse" x1="2191.3169" y1="2530.6851" x2="3247.7866" y2="2530.6851">
					<stop  offset="0" style="stop-color:#FF9085"/>
					<stop  offset="1" style="stop-color:#FB6FBB"/>
				</linearGradient>
				
					<use xlink:href="#SVGID_00000120541213057845630360000010932083738536289698_"  style="overflow:visible;fill:url(#SVGID_00000101083516804170009670000017816022222086443155_);"/>
				<clipPath id="SVGID_00000040566350979761861450000009851392449850134718_">
					<use xlink:href="#SVGID_00000120541213057845630360000010932083738536289698_"  style="overflow:visible;"/>
				</clipPath>
				
					<linearGradient id="SVGID_00000065780691994437065880000005284101638264588964_" gradientUnits="userSpaceOnUse" x1="6969.2896" y1="451.5841" x2="6549.9575" y2="1643.3713" gradientTransform="matrix(0.8539 0.5205 -0.5205 0.8539 -2557.9978 -1919.8285)">
					<stop  offset="0" style="stop-color:#FF9085"/>
					<stop  offset="1" style="stop-color:#FB6FBB"/>
				</linearGradient>
				
					<path style="clip-path:url(#SVGID_00000040566350979761861450000009851392449850134718_);fill:url(#SVGID_00000065780691994437065880000005284101638264588964_);" d="
					M2201.62,2946.1l179.86,109.64c0,0,90.1-71.63,85.72-163.61c-8.95-187.67,156.05-182.41,225.48-190.54
					c104.71-12.27,179.65-64.91,122.75-163.38c-64.39-111.41,106.01-199.63,277.97-195.07c168.28,4.46,273.32-292.1-90.02-335.21
					c-216.99-25.74-300.06,170.31-365.54,259.35c-65.49,89.03-210.06,11.58-232.22,155.6c-18.93,123.02,15.13,241.9-85.25,273.22
					C2219.98,2727.42,2167.75,2799.31,2201.62,2946.1z"/>
				<g style="opacity:0.5;clip-path:url(#SVGID_00000040566350979761861450000009851392449850134718_);">
					<path class="st9" d="M2269.28,3010.25l4.15,1.59c0.99-2.57,100.64-259.69,276.29-484.8
						c161.82-207.38,423.12-429.24,749.05-308.45l1.55-4.17c-145.09-53.77-289.64-45.28-429.66,25.21
						c-111.85,56.32-221.02,152.12-324.5,284.74C2370.13,2750.01,2270.27,3007.67,2269.28,3010.25z"/>
					<path class="st9" d="M2813.43,2271.62l4.06,1.83c60.83-134.93,217.2-283.95,218.78-285.44l-3.06-3.23
						C3031.62,1986.28,2874.62,2135.9,2813.43,2271.62z"/>
					<path class="st9" d="M2908.01,2227.21c176.36-1.72,272.49,109.29,273.44,110.41l3.39-2.87
						c-0.96-1.14-98.35-113.72-276.88-111.98L2908.01,2227.21z"/>
					<path class="st9" d="M2442.91,2680.47c151.58-153.14,421.82-48.62,424.37-47.39l2.2-3.86
						c-2.39-1.45-276.81-106.38-429.73,48.12L2442.91,2680.47z"/>
					<path class="st9" d="M2487.98,2603.89l4.19,1.49c46.16-129.52-30.31-284.61-31.09-286.16l-3.98,1.99
						C2457.88,2322.75,2533.5,2476.19,2487.98,2603.89z"/>
					<path class="st9" d="M2290.01,2971.73c47.95-66.34,181.06-60.87,182.4-60.81l0.21-4.44c-5.56-0.26-136.85-5.65-186.21,62.65
						L2290.01,2971.73z"/>
					<path class="st9" d="M2312.79,2910.52l4.13,1.64c23.91-60.14-21.44-171.02-36.35-207.46c-2.11-5.15-3.92-9.59-4.09-10.45
						l-4.38,0.79c0.22,1.21,1.42,4.17,4.35,11.34C2291.19,2742.41,2336.03,2852.04,2312.79,2910.52z"/>
				</g>
			</g>
			<g>
				
					<linearGradient id="SVGID_00000145047975705764283250000014746630280809380237_" gradientUnits="userSpaceOnUse" x1="3043.6086" y1="2296.0251" x2="1970.6489" y2="3838.4043">
					<stop  offset="3.597120e-03" style="stop-color:#E38DDD"/>
					<stop  offset="1" style="stop-color:#9571F6"/>
				</linearGradient>
				<path style="fill:url(#SVGID_00000145047975705764283250000014746630280809380237_);" d="M2519.3,3112.61
					c-0.87,0.17-1.73,0.34-2.6,0.5c-51.4,9.77-109.3,11.36-173.97-0.41c-12.45-3.18-24.89-6.37-37.34-9.55
					c-3.95-32.08-1.96-63.3,38.76-66.46c63.23-4.91,87.28-109.04,78.99-149.52c-10.25-50.09-31.72-167.23,65.91-176.35
					c81.28-7.6,135.28,4.11,161.8-92.68c26.52-96.79,93.21-146.32,180.77-121.27c92.15,26.36,195.73-81.47,263.3-23.28
					c117.74,101.4-49.86,291.07-225.68,318.48c-175.81,27.41-95.38,106.03-108.35,187.13c-17.71,110.72-160.58,55.32-208.96,89.85
					C2535.54,3080.73,2525.44,3096.29,2519.3,3112.61z"/>
				<g>
					<defs>
						<path id="SVGID_00000110440732738783884490000001419218976172623526_" d="M2510.56,3173.84l-203.32-45.68
							c-5.38-31.44-8.57-87.94,36.91-91.47c63.23-4.91,87.28-109.04,78.99-149.52c-10.25-50.09-31.72-167.22,65.91-176.35
							c81.28-7.6,135.28,4.11,161.8-92.68c26.52-96.79,93.21-146.32,180.77-121.27c92.15,26.36,195.73-81.47,263.3-23.28
							c117.74,101.4-49.86,291.07-225.68,318.47c-175.81,27.41-95.38,106.03-108.35,187.13c-17.71,110.72-160.58,55.32-208.96,89.85
							C2514,3096.11,2509.62,3143.84,2510.56,3173.84z"/>
					</defs>
					<clipPath id="SVGID_00000041284932918563394870000005680894250607464091_">
						<use xlink:href="#SVGID_00000110440732738783884490000001419218976172623526_"  style="overflow:visible;"/>
					</clipPath>
					<g style="opacity:0.5;clip-path:url(#SVGID_00000041284932918563394870000005680894250607464091_);">
						<path class="st6" d="M2422.01,3120.35l-4.13-1.82c133.23-302.07,412.4-538,728.58-615.72l1.08,4.39
							C2832.69,2584.59,2554.68,2819.54,2422.01,3120.35z"/>
						<path class="st6" d="M2508.75,2961.88l-4.41-0.97c27.88-126.71-58.86-249.36-59.74-250.58l3.67-2.63
							C2449.16,2708.94,2537.07,2833.17,2508.75,2961.88z"/>
						<path class="st6" d="M2448.03,3065.45l-3.42-2.95c85.88-99.64,322.82-64.27,325.2-63.9l-0.69,4.46
							C2766.76,3002.7,2532.27,2967.71,2448.03,3065.45z"/>
						<path class="st6" d="M2725.78,2721.87l-3.66-2.64c61.13-84.57,31.77-241.86,31.46-243.44l4.43-0.86
							C2758.33,2476.52,2788.05,2635.74,2725.78,2721.87z"/>
						<path class="st6" d="M2899.21,2604.02l-1.48-4.27c112.31-39.03,258.15,28.28,259.61,28.96l-1.92,4.09
							C3153.97,2632.13,3009.77,2565.6,2899.21,2604.02z"/>
					</g>
				</g>
			</g>
		</g>
		<g>
			
				<linearGradient id="SVGID_00000052826391244372255120000004015966276512839354_" gradientUnits="userSpaceOnUse" x1="1657.5409" y1="3107.3777" x2="1465.6479" y2="3187.9727">
				<stop  offset="0" style="stop-color:#40447E"/>
				<stop  offset="0.9964" style="stop-color:#3C3B6B"/>
			</linearGradient>
			<path style="fill:url(#SVGID_00000052826391244372255120000004015966276512839354_);" d="M3235.36,3002.37L503.7,2978.58v70.39
				c0,19.11,11.91,35.35,28.05,38.25l772.43,138.62c9.17,1.65,18.46,2.08,27.71,1.3l1873.78-158.05
				c16.73-1.41,29.68-17.71,29.68-37.34V3002.37z"/>
			
				<linearGradient id="SVGID_00000168818693237547971970000015146041600500209796_" gradientUnits="userSpaceOnUse" x1="1401.3053" y1="2261.6411" x2="1193.0519" y2="2349.1074">
				<stop  offset="0" style="stop-color:#40447E"/>
				<stop  offset="0.9964" style="stop-color:#3C3B6B"/>
			</linearGradient>
			<path style="fill:url(#SVGID_00000168818693237547971970000015146041600500209796_);" d="M2356,2888.26L533.76,3017.04
				c-32.61,2.3-59.12-22.18-59.12-54.7V1659.66c0-32.52,26.51-58.87,59.12-58.87H2356c26.86,0,48.58,23.83,48.58,53.22v1177.6
				C2404.58,2861,2382.86,2886.36,2356,2888.26z"/>
			
				<linearGradient id="SVGID_00000081649045653388719830000007315222367726161334_" gradientUnits="userSpaceOnUse" x1="503.6994" y1="2308.9873" x2="2433.6404" y2="2308.9873">
				<stop  offset="0" style="stop-color:#40447E"/>
				<stop  offset="0.9964" style="stop-color:#3C3B6B"/>
			</linearGradient>
			<path style="fill:url(#SVGID_00000081649045653388719830000007315222367726161334_);" d="M2385.06,2888.26L562.82,3017.04
				c-32.61,2.3-59.12-22.18-59.12-54.7V1659.66c0-32.52,26.51-58.87,59.12-58.87h1822.24c26.86,0,48.58,23.83,48.58,53.22v1177.6
				C2433.64,2861,2411.92,2886.36,2385.06,2888.26z"/>
			<path class="st15" d="M2328.29,2805.24L631.07,2917.1c-26.54,1.75-48.1-18.35-48.1-44.89v-1140.5c0-26.54,21.56-48.15,48.1-48.26
				l1697.22-7.02c22.16-0.09,40.09,19.43,40.09,43.61v1038.79C2368.37,2783,2350.45,2803.78,2328.29,2805.24z"/>
			<path class="st3" d="M1538.29,1636.42c0,12.1-9.38,21.94-20.96,21.98c-11.6,0.04-21.01-9.77-21.01-21.9
				c0-12.13,9.41-21.97,21.01-21.98C1528.92,1614.51,1538.29,1624.31,1538.29,1636.42z"/>
			
				<linearGradient id="SVGID_00000137094351603611584150000002267261162007392924_" gradientUnits="userSpaceOnUse" x1="503.6994" y1="3022.6719" x2="3235.3555" y2="3022.6719">
				<stop  offset="0" style="stop-color:#40447E"/>
				<stop  offset="0.9964" style="stop-color:#3C3B6B"/>
			</linearGradient>
			<path style="fill:url(#SVGID_00000137094351603611584150000002267261162007392924_);" d="M2339.59,2882.42L503.7,3017.97
				l800.48,143.65c9.17,1.64,18.46,2.08,27.71,1.3l1903.46-160.55l-866.56-119.03C2359.1,2882.01,2349.33,2881.7,2339.59,2882.42z"
				/>
			
				<linearGradient id="SVGID_00000170982295263157217810000016457826502676979121_" gradientUnits="userSpaceOnUse" x1="771.5843" y1="3000.29" x2="2773.0515" y2="3000.29">
				<stop  offset="0" style="stop-color:#40447E"/>
				<stop  offset="0.9964" style="stop-color:#3C3B6B"/>
			</linearGradient>
			<polygon style="opacity:0.3;fill:url(#SVGID_00000170982295263157217810000016457826502676979121_);" points="771.58,3021.38 
				2300.02,2906.85 2773.05,2971.3 1257.79,3093.73 			"/>
			<path class="st18" d="M1946.02,2530.98c-140.48-75.58-250.94,20.19-357.53-74.31c-64.63-57.29-32.9-100.01-112.42-185.62
				c-88.08-94.82-145.42-62.95-233.94-148.29c-111.92-107.91-55.95-191.86-152.35-269.34c-116.96-93.99-243.09-7-354.42-97.13
				c-48.02-38.88-74.37-95.4-88.12-155.51H538.29c-19.09,0-34.59,15.47-34.59,34.56v1350.34c0,19.09,15.5,33.46,34.59,32.1
				l1857.16-131.83c9.11-0.65,17.2-5.97,22.38-13.68c-135.95-4.95-219.47-50.53-272.86-97.64
				C2040.53,2682.47,2058.64,2591.58,1946.02,2530.98z"/>
		</g>
		<g>
			<defs>
				<path id="SVGID_00000067207864536702399980000004802367083751921568_" d="M1993.81,2827.3l-1022.64,67.4
					c-15.99,1.05-28.98-11.06-28.98-27.05l-262.09-263.2v-681.72l1492.6-409.07c13.35-0.06,493.59,125.09,141.99,892.53
					l-296.73,393.14C2017.96,2813.9,2007.16,2826.42,1993.81,2827.3z"/>
			</defs>
			<clipPath id="SVGID_00000176758303342494086030000017165694225400721071_">
				<use xlink:href="#SVGID_00000067207864536702399980000004802367083751921568_"  style="overflow:visible;"/>
			</clipPath>
			<g style="clip-path:url(#SVGID_00000176758303342494086030000017165694225400721071_);">
				
					<linearGradient id="SVGID_00000064324600505241267780000012457950600043032765_" gradientUnits="userSpaceOnUse" x1="2184.2266" y1="1983.496" x2="2283.0466" y2="1676.056">
					<stop  offset="0" style="stop-color:#311944"/>
					<stop  offset="1" style="stop-color:#893976"/>
				</linearGradient>
				<path style="fill:url(#SVGID_00000064324600505241267780000012457950600043032765_);" d="M2195.79,1870.46
					c8.52-24.56,5.1-38.02,0-45.86c-7.12-10.92-23.42-19.98-53.5-42.04c-1.97-1.44-5.37-4.02-4.94-5.43
					c1.07-3.5,17.44-1.69,31.69,5.43c20.65,10.33,24.95,11.12,37.23,14.78c21.7,6.46,40.77,1.07,69.77-7.14
					c11.96-3.38,28.72-9.11,47.77-19.11c0,0,21.02-9.55,26.75,0l-30.57,15.29c0,0,26.75-11.46,42.04-3.82l-53.5,22.93
					c0,0,40.13-11.46,42.04-3.82c-26.08,18.6-49.08,24.95-66.88,26.75c-27.39,2.77-48-4.69-55.41,5.73
					c-5.98,8.41,0.23,23.42,7.64,36.3H2195.79z"/>
				
					<linearGradient id="SVGID_00000072974842540303184920000018227072346443725481_" gradientUnits="userSpaceOnUse" x1="2239.0334" y1="1920.2053" x2="1858.1127" y2="2321.4114">
					<stop  offset="0" style="stop-color:#FFC444"/>
					<stop  offset="0.9964" style="stop-color:#F36F56"/>
				</linearGradient>
				<path style="fill:url(#SVGID_00000072974842540303184920000018227072346443725481_);" d="M1785.26,2054.88
					c26.83-40.19,59.78-64.28,83.64-78.8c8.61,3.8,21.85,10.15,36.95,19.69c43.58,27.54,48.37,47.37,85.35,70.34
					c19.61,12.18,43.91,27.26,75.09,25.21c35.9-2.37,60.51-26.1,70.73-35.96c70.14-67.66,42.7-195.84,39.68-209.1
					c26.53-0.72,53.05-1.43,79.58-2.15c13.95,24.47,90.85,180.5,34.41,337.68c-80.83,225.12-409.62,227.06-509.03,123.42
					C1722.47,2243.49,1722.82,2148.41,1785.26,2054.88z"/>
				
					<linearGradient id="SVGID_00000123435881023805198510000003577278423276379543_" gradientUnits="userSpaceOnUse" x1="2397.0266" y1="3675.0542" x2="2032.974" y2="2854.3931" gradientTransform="matrix(0.9986 0.0533 -0.0533 0.9986 -237.5799 -19.3005)">
					<stop  offset="0" style="stop-color:#311944"/>
					<stop  offset="1" style="stop-color:#893976"/>
				</linearGradient>
				<path style="fill:url(#SVGID_00000123435881023805198510000003577278423276379543_);" d="M1808.03,2737.51
					c-7.47,184.21-5.96,391.86,12.17,618.34c17.92,223.84,48.94,426.89,85.05,605.91c-21.31,4.53-42.62,9.06-63.93,13.59
					c-50.65-52.55-113.71-134.37-140.25-246.67c-16.47-69.7-7.88-104.6-16.14-189.68c-13.16-135.47-50.6-208.08-87.39-318.72
					c-33.06-99.42-70.66-244.76-84.7-437.08C1611.23,2767.96,1709.63,2752.74,1808.03,2737.51z"/>
				
					<linearGradient id="SVGID_00000080906739344466508090000003120341030942692781_" gradientUnits="userSpaceOnUse" x1="2340.5706" y1="3700.0969" x2="1976.5186" y2="2879.4368" gradientTransform="matrix(0.9986 0.0533 -0.0533 0.9986 -237.5799 -19.3005)">
					<stop  offset="0" style="stop-color:#311944"/>
					<stop  offset="1" style="stop-color:#893976"/>
				</linearGradient>
				<path style="opacity:0.3;fill:url(#SVGID_00000080906739344466508090000003120341030942692781_);" d="M1778.59,3598.4
					c-23.47-92.93-68.67-117.5-70.28-205.22c-1.14-62.05,21.16-67.12,19.68-126.51c-2.24-90.08-55.02-137.32-81.53-193.98
					c-28-59.84-38.73-155.97,36.73-315.86c-56.79,8.79-113.57,17.58-170.36,26.36c14.05,192.33,51.64,337.66,84.7,437.08
					c36.79,110.64,74.23,183.25,87.39,318.72c8.27,85.08-0.33,119.99,16.14,189.68c26.54,112.29,89.6,194.12,140.25,246.67
					c5.42-1.15,10.84-2.3,16.26-3.46c-54.75-65.35-74.07-123.72-78.98-171.07C1770.6,3723.77,1802.25,3692.1,1778.59,3598.4z"/>
				
					<linearGradient id="SVGID_00000114757995836022759830000007511885861745033869_" gradientUnits="userSpaceOnUse" x1="1652.6243" y1="3854.8025" x2="1288.5627" y2="3034.1208" gradientTransform="matrix(0.9976 -0.0694 0.0694 0.9976 -160.8932 92.9864)">
					<stop  offset="0" style="stop-color:#311944"/>
					<stop  offset="1" style="stop-color:#893976"/>
				</linearGradient>
				<path style="fill:url(#SVGID_00000114757995836022759830000007511885861745033869_);" d="M1595.02,2726
					c-25.36,233.44-48.67,471.35-69.65,713.63c-15.74,181.8-29.76,361.39-42.17,538.68c-21.6,1.5-43.2,3.01-64.81,4.51
					c-18.68-39.72-43.07-100.21-57.89-176.88c-18.01-93.11-9.79-147.39-14.75-243.16c-5.57-107.41-20.71-131.56-42.53-267.84
					c-44.29-276.59-66.43-414.89,3.8-496.43C1329.82,2772.03,1400.37,2706.34,1595.02,2726z"/>
				
					<linearGradient id="SVGID_00000016783998550438354820000008179227723973274261_" gradientUnits="userSpaceOnUse" x1="1266.0923" y1="2877.8887" x2="1822.7311" y2="1591.714">
					<stop  offset="0" style="stop-color:#FFC444"/>
					<stop  offset="0.9964" style="stop-color:#F36F56"/>
				</linearGradient>
				<path style="fill:url(#SVGID_00000016783998550438354820000008179227723973274261_);" d="M1035.57,2000.1
					c116.69-39.56,294.74-83.4,512.49-74.43c126.15,5.2,234.6,26.84,320.53,50.91c11.62,64.98,23.24,129.96,34.85,194.94
					c2.67,65.15,3.53,153.41-3.79,257.68c-7.32,104.27-14.49,105.84-31.25,253.02c-27.34,239.97-15.9,302.67-64.13,331.5
					c-31.37,18.75-42.72-3.88-202.79-19.75c-107.34-10.64-162.11-15.58-216.47,2.81c-74.02,25.05-98.79,67.1-129.32,53.42
					c-29.28-13.12-33.01-63.68-36.55-151.81c-5.46-135.96-5.12-228.37-5.62-261.45c-2.31-151.77-40.74-267.66-89.96-416.07
					C1092.77,2128.03,1060.34,2052.9,1035.57,2000.1z"/>
				<g>
					
						<linearGradient id="SVGID_00000182527910714927376330000015807949109450561181_" gradientUnits="userSpaceOnUse" x1="1532.7893" y1="1711.0326" x2="1527.2994" y2="1988.2765">
						<stop  offset="0" style="stop-color:#311944"/>
						<stop  offset="1" style="stop-color:#893976"/>
					</linearGradient>
					<path style="fill:url(#SVGID_00000182527910714927376330000015807949109450561181_);" d="M1533.65,1775.31
						c-1.72,38.16-7.59,68.18-12.72,88.68c-5.88,23.49-9.53,29.44-14.04,34.19c-6.78,7.15-16.79,12.92-72.17,23.55
						c-30.14,5.79-33.95,5.38-34.77,8.3c-3.97,14.23,74.51,67.63,158.93,60.28c51.67-4.5,99.89-31.27,97.85-46.78
						c-2.06-15.62-53.72-10.06-67.5-38.85c-9.58-20.03,3.8-47.02,19.09-69.14C1596.06,1809.28,1545.91,1801.58,1533.65,1775.31z"/>
					<g>
						
							<linearGradient id="SVGID_00000001650178693036522840000014571264392107677831_" gradientUnits="userSpaceOnUse" x1="228.3299" y1="1727.5957" x2="131.1756" y2="1480.8414" gradientTransform="matrix(-0.9988 -0.0496 -0.0496 0.9988 1789.584 252.4768)">
							<stop  offset="0" style="stop-color:#40447E"/>
							<stop  offset="0.9964" style="stop-color:#3C3B6B"/>
						</linearGradient>
						<path style="fill:url(#SVGID_00000001650178693036522840000014571264392107677831_);" d="M1628.02,1795.48
							c12.96-15.43,15.21-43.46,2.21-61.94c-11.19-15.91-29.95-19.09-41.19-21c-32.56-5.53-74.63,5.94-90.62,35.32
							c-9.47,17.41,6.97,55.53,9.5,62.36c2.87,7.72,8.65,10.63,13.83,16.63c7.17,8.32,18.39,21.54,36.68,43.62
							c1.84-6.13,4.54-13.69,8.63-21.83c1.57-3.13,7.87-15.36,16.95-25.29C1602.21,1803.42,1615.73,1810.1,1628.02,1795.48z"/>
						
							<linearGradient id="SVGID_00000121974596925815544630000005045441172827959208_" gradientUnits="userSpaceOnUse" x1="1679.5942" y1="2147.4023" x2="1641.1647" y2="2032.113">
							<stop  offset="0" style="stop-color:#311944"/>
							<stop  offset="1" style="stop-color:#893976"/>
						</linearGradient>
						<path style="fill:url(#SVGID_00000121974596925815544630000005045441172827959208_);" d="M1531.69,1851.28
							c0,0,19.65,36.48,62.68,35.98c38.53-0.45,48.75-86.25,25.2-105.83c-7.86-6.53-24.11-9.94-37.63-6.92
							c-7.99,1.79-10.83,4.91-23.93,7.57c-12.09,2.46-15.39,0.96-19.15,3.79c-4.7,3.55-8.5,12.66-2.32,38.23
							c-6.93-7.81-15.57-11.12-21.96-8.52c-1.02,0.42-3.75,2.07-5.38,4.71C1503.31,1829.86,1511.62,1842.9,1531.69,1851.28z"/>
					</g>
				</g>
				
					<linearGradient id="SVGID_00000174572994361224940370000002746664153041470377_" gradientUnits="userSpaceOnUse" x1="1201.7938" y1="2610.9473" x2="1227.632" y2="2689.8096">
					<stop  offset="0" style="stop-color:#311944"/>
					<stop  offset="1" style="stop-color:#893976"/>
				</linearGradient>
				<path style="fill:url(#SVGID_00000174572994361224940370000002746664153041470377_);" d="M1143.23,2637.06l38.63-2.16
					c0,0,42.32-35.42,61.59-33.21c19.26,2.21,48.08,15.58,51.59,18.38c3.51,2.8-10.54,18.51-24.6,16.98
					c-14.06-1.53-45.42,6.06-51.03,18.44c-5.61,12.38-29.95,19.86-34.09,12.6l-51.93,10.31L1143.23,2637.06z"/>
				
					<linearGradient id="SVGID_00000158712315721625356520000010850750220894530183_" gradientUnits="userSpaceOnUse" x1="839.5492" y1="2693.2854" x2="1396.1897" y2="1407.1068">
					<stop  offset="0" style="stop-color:#FFC444"/>
					<stop  offset="0.9964" style="stop-color:#F36F56"/>
				</linearGradient>
				<path style="fill:url(#SVGID_00000158712315721625356520000010850750220894530183_);" d="M1154.92,2623.54
					c2.7,31.69-4.2,53.21-15.72,67.97c-51.06,65.42-224.57,38.67-327.7-48.96c-76.34-64.86-116.76-165.58-115.26-255.83
					c2.91-176.1,166.11-348.65,408.87-408.26c35.93,107.42,71.87,214.84,107.8,322.26c-149.66,2.28-240.59,115.11-227.11,195.65
					C995.84,2556.37,1065.82,2610.34,1154.92,2623.54z"/>
				
					<linearGradient id="SVGID_00000038378916914922304660000006522453145301809585_" gradientUnits="userSpaceOnUse" x1="1368.4093" y1="2922.1697" x2="1925.053" y2="1635.9836">
					<stop  offset="0" style="stop-color:#FFC444"/>
					<stop  offset="0.9964" style="stop-color:#F36F56"/>
				</linearGradient>
				<path style="opacity:0.3;fill:url(#SVGID_00000038378916914922304660000006522453145301809585_);" d="M1742.04,2934.93
					c-78.73-33.59-78.28-103.12-151.81-132.13c-104.93-41.4-220.86,54.78-238.96,28.11c-18.84-27.75,119.63-112.86,101.21-196.79
					c-14.64-66.7-111.29-54.88-163.06-146.19c-49.11-86.61-1.5-166.69-44.98-196.79c-15.59-10.8-43.1-15.06-95.26,7.9
					c36.37,113.58,62.44,213.74,64.33,337.9c0.5,33.08,0.17,125.49,5.62,261.45c3.54,88.14,7.27,138.69,36.55,151.81
					c30.53,13.68,55.3-28.37,129.32-53.42c54.36-18.39,109.13-13.45,216.47-2.81c160.07,15.86,171.42,38.5,202.79,19.75
					c20.43-12.21,30.14-30.57,36.64-65.84C1808.82,2951.34,1774.77,2948.9,1742.04,2934.93z"/>
			</g>
		</g>
		<g>
			
				<linearGradient id="SVGID_00000094607949660663377440000002881443066216176050_" gradientUnits="userSpaceOnUse" x1="2826.0432" y1="435.1624" x2="2526.4783" y2="723.094">
				<stop  offset="0" style="stop-color:#FFC444"/>
				<stop  offset="0.9964" style="stop-color:#F36F56"/>
			</linearGradient>
			<path style="fill:url(#SVGID_00000094607949660663377440000002881443066216176050_);" d="M2228.32,1781.51
				c-26.43,0.76-52.2-5.9-74.53-19.28c-68.02-40.78-168.53-108.12-258.96-196.26c-114.74-111.86-180.67-225.56-195.09-337.21
				l-0.23-1.75l-2.8-476.41c0-94.15,61.41-170.58,176.71-220.8c95.26-41.49,221.52-62.05,354.9-58.19
				c131.83,3.82,253.82,31.02,344.11,76.34c107.33,53.88,163.64,129.59,163.64,219.36l-2.55,455.21l-0.21,1.67
				c-13.18,106.92-73.84,217.43-181.05,329.19c-85.99,89.63-183.17,160.67-249.9,204.68
				C2280.28,1772.63,2254.68,1780.74,2228.32,1781.51z"/>
			
				<linearGradient id="SVGID_00000066495758373143231340000006403738925550560439_" gradientUnits="userSpaceOnUse" x1="1935.6879" y1="500.7718" x2="2953.9812" y2="2166.2576">
				<stop  offset="0" style="stop-color:#FFC444"/>
				<stop  offset="0.9964" style="stop-color:#F36F56"/>
			</linearGradient>
			<path style="fill:url(#SVGID_00000066495758373143231340000006403738925550560439_);" d="M2254.48,1781.51
				c-26.08,0.76-51.51-5.9-73.54-19.28c-67.12-40.78-166.31-108.12-255.54-196.26c-113.23-111.86-178.28-225.56-192.52-337.21
				l-0.22-1.75l-2.76-476.41c0-94.15,60.6-170.58,174.37-220.8c94-41.49,218.59-62.05,350.21-58.19
				c130.09,3.82,250.46,31.02,339.56,76.34c105.91,53.88,161.48,129.59,161.48,219.36l-2.52,455.21l-0.2,1.67
				c-13.01,106.92-72.86,217.43-178.66,329.19c-84.86,89.63-180.74,160.67-246.6,204.68
				C2305.76,1772.63,2280.5,1780.74,2254.48,1781.51z"/>
			
				<linearGradient id="SVGID_00000090977900164593864910000005886690931868573101_" gradientUnits="userSpaceOnUse" x1="2475.6494" y1="1449.033" x2="1648.6471" y2="-213.8978">
				<stop  offset="0" style="stop-color:#FFC444"/>
				<stop  offset="0.9964" style="stop-color:#F36F56"/>
			</linearGradient>
			<path style="fill:url(#SVGID_00000090977900164593864910000005886690931868573101_);" d="M1761.35,750.94l2.78,474
				c31.2,241.85,315.43,437.66,439.22,512.05c35.46,21.31,80.8,20.05,116.01-3.12c121.21-79.76,389.87-280.54,418.57-513.07
				l2.55-453.96C2740.48,430.04,1761.35,399.25,1761.35,750.94z"/>
			
				<linearGradient id="SVGID_00000165212385359130182770000005672101346666409908_" gradientUnits="userSpaceOnUse" x1="1855.205" y1="1126.4271" x2="2653.7197" y2="1126.4271">
				<stop  offset="0" style="stop-color:#311944"/>
				<stop  offset="1" style="stop-color:#893976"/>
			</linearGradient>
			<path style="fill:url(#SVGID_00000165212385359130182770000005672101346666409908_);" d="M2261.5,1663.93
				c-2.27,0.05-5.7-0.32-9.17-2.43c-50.97-30.87-149.77-95.52-235.73-179.95c-92.84-91.2-146.39-179.87-158.67-263.15l-2.72-466.15
				c0.11-44.73,35.52-83.01,104.92-113.64c77.48-34.19,187.51-52.14,301.38-49.43c112.74,2.68,219.55,25.37,293.56,62.09
				c65.46,32.48,98.55,70.77,98.66,113.95l-2.54,450.02c-11.46,80.59-61.72,167.47-149.96,258.79
				c-82.97,85.87-179.89,153.94-230.55,187.04C2267.2,1663.34,2263.77,1663.88,2261.5,1663.93z"/>
			
				<linearGradient id="SVGID_00000053546283028195311270000017895244149257971584_" gradientUnits="userSpaceOnUse" x1="2382.7097" y1="1737.7576" x2="2152.158" y2="481.2459">
				<stop  offset="0" style="stop-color:#FF9085"/>
				<stop  offset="1" style="stop-color:#FB6FBB"/>
			</linearGradient>
			<path style="fill:url(#SVGID_00000053546283028195311270000017895244149257971584_);" d="M2249.87,1632.07
				c-51.47-31.7-143.01-92.92-222.87-171.51c-87.25-85.87-137.75-168.27-149.62-244.52l-2.7-463.45
				c0.08-31.98,29.48-61.31,87.15-86.85c73.39-32.5,178.55-49.62,288.04-47.17c108.44,2.43,210.64,23.85,280.88,58.6
				c54.57,27,82.18,56.46,82.26,87.64l-2.53,448.36c-11.14,73.98-58.76,154.88-142.05,240.92
				C2391.11,1533.98,2301.11,1598.22,2249.87,1632.07z"/>
			<g>
				<path class="st3" d="M2434.05,1025.29l-346.62,3.08c-26.65,0.24-48.36,21.01-48.36,46.38v222.08
					c0,25.22,21.63,44.77,48.18,43.69l345.4-14.14c24.57-1.01,44.49-21.34,44.62-45.44l1.1-212.16
					C2478.49,1044.55,2458.71,1025.07,2434.05,1025.29z"/>
				<path class="st3" d="M2429.19,1003.26c-10.41,0.07-18.83-8.2-18.78-18.47l0.21-48.38c0.21-48.59-39.96-88.56-90.02-89.06
					l-113.14-1.12c-51.81-0.52-94.41,39.89-94.45,90.01l-0.04,49.91c-0.01,10.6-9.03,19.24-20.17,19.32
					c-11.17,0.07-20.24-8.49-20.23-19.13l0.02-50.11c0.03-71.64,61.04-129.16,134.96-128.14l113.19,1.57
					c71.11,0.99,127.91,57.9,127.58,126.77l-0.23,48.18C2448.01,994.85,2439.57,1003.2,2429.19,1003.26z"/>
				
					<linearGradient id="SVGID_00000173859411092667053480000008710352134183661230_" gradientUnits="userSpaceOnUse" x1="2218.5037" y1="1193.8633" x2="2308.1716" y2="1193.8633">
					<stop  offset="0" style="stop-color:#311944"/>
					<stop  offset="1" style="stop-color:#893976"/>
				</linearGradient>
				<path style="fill:url(#SVGID_00000173859411092667053480000008710352134183661230_);" d="M2308.17,1152.64
					c0.08-24.53-20.97-43.92-46.68-42.29c-22.76,1.44-41.64,19.82-42.92,41.87c-0.99,17.11,8.26,31.93,22.35,39.45
					c5.99,3.2,8.95,9.9,7.77,16.52l-10.02,56.1c-1.27,7.14,4.39,13.42,11.85,13.16l25.36-0.89c7.41-0.26,13.05-6.9,11.83-13.92
					l-9.69-55.57c-1.16-6.64,2.26-13.21,8.27-16.83C2299.35,1182.4,2308.12,1168.41,2308.17,1152.64z"/>
			</g>
		</g>
	</g>
</g>
</svg>
