<?xml version="1.0" encoding="UTF-8" standalone="no" ?>
<!DOCTYPE svg PUBLIC "-//W3C//DTD SVG 1.1//EN" "http://www.w3.org/Graphics/SVG/1.1/DTD/svg11.dtd">
<svg xmlns="http://www.w3.org/2000/svg" xmlns:xlink="http://www.w3.org/1999/xlink" version="1.1" width="2778.03" height="2787.13" viewBox="-1069.015 -1073.565 2778.03 2787.13" xml:space="preserve">
<desc>Created with Fabric.js 4.6.0</desc>
<defs>
</defs>
<g transform="matrix(1 0 0 1 320 320)" id="0IoGODwv8SqU-Eg8iwaVU"  >
<g style="" vector-effect="non-scaling-stroke"   >
		<g transform="matrix(1 0 0 1 3.79 -6.03)" id="z1KYla7Y8iOqx40wlIwvO"  >
<linearGradient id="SVGID_0" gradientUnits="userSpaceOnUse" gradientTransform="matrix(-1 0 0 1 1601.96 0)"  x1="1293.4659" y1="3603.1382" x2="-744.4096" y2="1403.5261">
<stop offset="0%" style="stop-color:rgb(218,227,254);stop-opacity: 1"/>
<stop offset="100%" style="stop-color:rgb(233,239,253);stop-opacity: 1"/>
</linearGradient>
<path style="stroke: none; stroke-width: 1; stroke-dasharray: none; stroke-linecap: butt; stroke-dashoffset: 0; stroke-linejoin: miter; stroke-miterlimit: 4; fill: url(#SVGID_0); fill-rule: nonzero; opacity: 1;" vector-effect="non-scaling-stroke"  transform=" translate(-1858.73, -1855.93)" d="M 590.1 2348.8 C 870.7 3002.2000000000003 1611.3000000000002 3282.9 2191.5 3235 C 2349.9 3221.9 2668.7 3195.6 2917.6 2961.1 C 3395.6 2510.7 3322 1569.1999999999998 2864.4 1014.8999999999999 C 2805.5 943.4999999999999 2397.6 465.29999999999984 1762 471.6999999999998 C 1296.6 476.3999999999998 970 738.2999999999998 930.3 770.8999999999999 C 880.0999999999999 812.0999999999999 769.5 910.0999999999999 669.6999999999999 1065.5 C 435.4 1430.7 414.8 1940.5 590.1 2348.8 z" stroke-linecap="round" />
</g>
		<g transform="matrix(1 0 0 1 -1042.41 -1094.4)" id="RO89oBtzfcDA8W057uJld"  >
<path style="stroke: none; stroke-width: 1; stroke-dasharray: none; stroke-linecap: butt; stroke-dashoffset: 0; stroke-linejoin: miter; stroke-miterlimit: 4; fill: rgb(145,179,250); fill-rule: nonzero; opacity: 0.3;" vector-effect="non-scaling-stroke"  transform=" translate(-812.52, -767.56)" d="M 1146.8 710.4 C 1143.1 714.6999999999999 1136.6 715.1 1132.3999999999999 711.4 C 1124.1 704.1999999999999 1115.3999999999999 697.1999999999999 1106.4999999999998 690.6999999999999 C 1101.9999999999998 687.4 1100.9999999999998 681.0999999999999 1104.1999999999998 676.5999999999999 C 1104.1999999999998 676.4999999999999 1104.2999999999997 676.4999999999999 1104.2999999999997 676.3999999999999 C 1107.5999999999997 671.7999999999998 1113.9999999999998 670.8999999999999 1118.5999999999997 674.1999999999998 C 1127.9999999999998 681.0999999999998 1137.0999999999997 688.3999999999999 1145.7999999999997 695.9999999999998 C 1149.7999999999997 699.4999999999998 1150.3999999999996 705.2999999999997 1147.4999999999998 709.5999999999998 C 1147.3 709.9 1147.1 710.1 1146.8 710.4 z M 1061 662 C 1051.3 656.8 1041.3 651.9 1031.2 647.5 C 1026 645.3 1023.6 639.2 1025.9 634.1 C 1028.2 628.9 1034.2 626.5 1039.3000000000002 628.8000000000001 C 1049.9 633.4000000000001 1060.4 638.5000000000001 1070.6000000000001 644.0000000000001 C 1075.6000000000001 646.7000000000002 1077.4 652.9000000000001 1074.7 657.8000000000001 C 1074.5 658.2 1074.3 658.5000000000001 1074.1000000000001 658.8000000000001 C 1071.3 663.1 1065.7 664.5 1061 662 z M 980.6 629.6 C 970 626.7 959.2 624.2 948.4 622.1 C 942.9 621.1 939.1999999999999 615.7 940.1999999999999 610.2 C 941.1999999999999 604.7 946.5999999999999 601 952.0999999999999 602 C 963.4999999999999 604.1 974.8999999999999 606.8 986.0999999999999 609.9 C 991.4999999999999 611.4 994.6999999999999 617 993.1999999999999 622.5 C 992.9 623.7 992.4 624.7 991.6999999999999 625.6 C 989.3 629.1 984.9 630.8 980.6 629.6 z M 894.9 616 C 883.9 615.5 872.8 615.5 861.8 615.9 C 856.1999999999999 616.1 851.4 611.6999999999999 851.1999999999999 606.1 C 850.9999999999999 600.5 855.4 595.7 860.9999999999999 595.5 C 872.5999999999999 595 884.2999999999998 595.1 895.8999999999999 595.6 C 901.4999999999999 595.9 905.8999999999999 600.6 905.6999999999998 606.3000000000001 C 905.5999999999998 608.3000000000001 904.8999999999999 610.2 903.8999999999999 611.7 C 901.8 614.4 898.5 616.2 894.9 616 z M 808.3 621.8 C 797.5 623.8 786.5999999999999 626.1999999999999 776 629.0999999999999 C 770.5 630.5999999999999 764.9 627.3 763.5 621.8999999999999 C 762 616.3999999999999 765.3 610.7999999999998 770.7 609.3999999999999 C 781.9000000000001 606.3999999999999 793.3000000000001 603.7999999999998 804.7 601.7999999999998 C 810.3000000000001 600.7999999999998 815.6 604.4999999999999 816.6 609.9999999999999 C 817.1 612.7999999999998 816.4 615.4999999999999 814.9 617.6999999999999 C 813.4 619.8 811.1 621.3 808.3 621.8 z M 725.2 646.7 C 715.1 651 705 655.8000000000001 695.3000000000001 660.9000000000001 C 690.3000000000001 663.5000000000001 684.1 661.6000000000001 681.5000000000001 656.7 C 678.9000000000001 651.7 680.8000000000001 645.5 685.7000000000002 642.9000000000001 C 695.9000000000002 637.5000000000001 706.5000000000001 632.4000000000001 717.2000000000002 627.9000000000001 C 722.4000000000002 625.7 728.4000000000002 628.1000000000001 730.6000000000001 633.3000000000001 C 732.0000000000001 636.7 731.5000000000001 640.4000000000001 729.6000000000001 643.2 C 728.5 644.7 727 645.9 725.2 646.7 z M 484.1 939.8 C 478.6 938.8 474.90000000000003 933.4 475.90000000000003 927.9 C 478.00000000000006 916.5 480.70000000000005 905.1 483.8 893.9 C 485.3 888.5 491 885.3 496.40000000000003 886.8 C 501.8 888.3 505.00000000000006 894 503.50000000000006 899.4 C 500.50000000000006 910 498.00000000000006 920.9 496.00000000000006 931.6 C 495.70000000000005 933.1 495.1000000000001 934.4 494.30000000000007 935.6 C 492.1 938.8 488.1 940.5 484.1 939.8 z M 649.7 689.3 C 640.8000000000001 695.6999999999999 632.1 702.5999999999999 623.8000000000001 709.8 C 619.5000000000001 713.5 613.1 713 609.4000000000001 708.6999999999999 C 605.7 704.4 606.2 697.9999999999999 610.5000000000001 694.3 C 619.3000000000001 686.6999999999999 628.5000000000001 679.5 637.8000000000001 672.6999999999999 C 642.4000000000001 669.4 648.8000000000001 670.4 652.1 674.9999999999999 C 654.7 678.5999999999999 654.6 683.3999999999999 652.2 686.8999999999999 C 651.5 687.8 650.7 688.6 649.7 689.3 z M 508.1 854 C 502.90000000000003 851.7 500.6 845.7 502.8 840.5 C 507.40000000000003 829.9 512.6 819.4 518.1 809.2 C 520.8000000000001 804.2 527 802.4000000000001 532 805.1 C 537 807.8000000000001 538.8 814 536.1 819 C 530.9 828.7 526 838.7 521.6 848.8 C 521.3000000000001 849.4 521 850 520.6 850.5999999999999 C 517.8 854.4 512.6 856 508.1 854 z M 585.6 747.7 C 578.4 756 571.4 764.6 564.9 773.5 C 561.6 778.1 555.1999999999999 779 550.6 775.7 C 546.1 772.4000000000001 545.1 766.1 548.3000000000001 761.6 C 548.3000000000001 761.5 548.4000000000001 761.5 548.4000000000001 761.4 C 555.3000000000001 752.1 562.6000000000001 742.9 570.2 734.1999999999999 C 573.9000000000001 729.9999999999999 580.4000000000001 729.4999999999999 584.6 733.1999999999999 C 588.6 736.6999999999999 589.2 742.4999999999999 586.2 746.8 C 586.1 747.1 585.9 747.4 585.6 747.7 z" stroke-linecap="round" />
</g>
		<g transform="matrix(1 0 0 1 -1375.53 -868.97)" id="tmi3p8YtSYHT6NMCRaC4o"  >
<path style="stroke: none; stroke-width: 1; stroke-dasharray: none; stroke-linecap: butt; stroke-dashoffset: 0; stroke-linejoin: miter; stroke-miterlimit: 4; fill: rgb(145,179,250); fill-rule: nonzero; opacity: 0.3;" vector-effect="non-scaling-stroke"  transform=" translate(-479.41, -992.99)" d="M 487.5 1007 C 488.7 1005.4 489.3 1003.3 489.4 1001.2 C 489.4 995.9000000000001 489.59999999999997 990.6 489.79999999999995 985.3000000000001 C 490.09999999999997 979.7 485.69999999999993 974.9000000000001 480.09999999999997 974.6 C 474.49999999999994 974.3000000000001 469.7 978.7 469.4 984.3000000000001 C 469.09999999999997 989.9000000000001 469 995.5000000000001 469 1001.1 C 469 1006.7 473.5 1011.3000000000001 479.2 1011.4 C 482.6 1011.4 485.6 1009.7 487.5 1007 z" stroke-linecap="round" />
</g>
		<g transform="matrix(1 0 0 1 -1261.22 -579.18)" id="ox5RYAlc80FuAxfWRp2WQ"  >
<path style="stroke: none; stroke-width: 1; stroke-dasharray: none; stroke-linecap: butt; stroke-dashoffset: 0; stroke-linejoin: miter; stroke-miterlimit: 4; fill: rgb(145,179,250); fill-rule: nonzero; opacity: 0.3;" vector-effect="non-scaling-stroke"  transform=" translate(-593.72, -1282.78)" d="M 607.8 1294.5 C 610.5999999999999 1290.5 610.1999999999999 1284.9 606.5999999999999 1281.3 C 602.8 1277.6 599.0999999999999 1273.8 595.3999999999999 1270 C 591.4999999999999 1265.9 584.9999999999999 1265.7 580.9999999999999 1269.6 C 576.8999999999999 1273.5 576.6999999999999 1280 580.5999999999999 1284 C 584.3999999999999 1288.1 588.3999999999999 1292.1 592.3999999999999 1295.9 C 596.3999999999999 1299.8000000000002 602.8999999999999 1299.7 606.8999999999999 1295.7 C 607.1 1295.4 607.5 1294.9 607.8 1294.5 z" stroke-linecap="round" />
</g>
		<g transform="matrix(1 0 0 1 -898.83 -632.16)" id="XTnkRRffnJp3La60SXaym"  >
<path style="stroke: none; stroke-width: 1; stroke-dasharray: none; stroke-linecap: butt; stroke-dashoffset: 0; stroke-linejoin: miter; stroke-miterlimit: 4; fill: rgb(145,179,250); fill-rule: nonzero; opacity: 0.3;" vector-effect="non-scaling-stroke"  transform=" translate(-956.11, -1229.8)" d="M 1199 1254.7 C 1195.5 1259.2 1189.1 1260 1184.7 1256.5 C 1180.2 1253 1179.5 1246.6 1182.9 1242.2 C 1189.5 1233.7 1195.8000000000002 1224.8 1201.8000000000002 1215.7 C 1204.9 1211 1211.2000000000003 1209.6000000000001 1215.9 1212.7 C 1220.6 1215.8 1222 1222.1000000000001 1218.9 1226.8 C 1216.3000000000002 1230.8 1213.7 1234.7 1211 1238.5 C 1207.1 1244 1203.1 1249.4 1199 1254.7 z M 1232.6 1183.1 C 1227.5 1180.6999999999998 1225.3 1174.6 1227.8 1169.5 C 1232.3999999999999 1159.7 1236.7 1149.6 1240.5 1139.5 C 1242.5 1134.2 1248.4 1131.5 1253.7 1133.5 C 1259 1135.5 1261.7 1141.4 1259.7 1146.7 C 1255.7 1157.3 1251.2 1168 1246.3 1178.3 C 1246 1178.8 1245.8 1179.3 1245.3999999999999 1179.8 C 1242.5 1183.7 1237.1 1185.2 1232.6 1183.1 z M 1161.9 1296.2 C 1153.8000000000002 1304.1000000000001 1145.2 1311.8 1136.3000000000002 1319.1000000000001 C 1131.9 1322.7 1125.5000000000002 1322.1000000000001 1121.9 1317.7 C 1118.3000000000002 1313.3 1119 1306.9 1123.3000000000002 1303.3 C 1131.7000000000003 1296.3999999999999 1139.8000000000002 1289.1 1147.6000000000001 1281.6 C 1151.6000000000001 1277.6999999999998 1158.1000000000001 1277.6999999999998 1162.1000000000001 1281.8 C 1165.6000000000001 1285.3999999999999 1165.9 1290.8999999999999 1163.1000000000001 1294.8 C 1162.7 1295.2 1162.3 1295.7 1161.9 1296.2 z M 1263.3 1101 C 1257.8 1099.8 1254.3 1094.3 1255.6 1088.8 C 1258 1078.2 1259.8999999999999 1067.5 1261.3999999999999 1056.8 C 1262.1999999999998 1051.2 1267.3 1047.3 1272.8999999999999 1048.1 C 1278.4999999999998 1048.8999999999999 1282.3999999999999 1054 1281.6 1059.6 C 1280 1070.8999999999999 1278 1082.1999999999998 1275.5 1093.3999999999999 C 1275.2 1094.6999999999998 1274.6 1095.9999999999998 1273.9 1096.9999999999998 C 1271.6 1100.2 1267.5 1101.9 1263.3 1101 z M 1091 1351.3 C 1081.3 1357.2 1071.2 1362.8999999999999 1061 1368 C 1056 1370.5 1049.8 1368.5 1047.3 1363.5 C 1044.8 1358.5 1046.8 1352.3 1051.8 1349.8 C 1061.5 1344.8999999999999 1071 1339.6 1080.2 1334 C 1085 1331 1091.3 1332.6 1094.3 1337.4 C 1096.5 1341 1096.2 1345.4 1094 1348.6000000000001 C 1093.2 1349.6 1092.2 1350.6 1091 1351.3 z M 1009.7 1389.6 C 998.9000000000001 1393.3 987.9000000000001 1396.6 976.8000000000001 1399.3 C 971.3000000000001 1400.7 965.8000000000001 1397.3999999999999 964.4000000000001 1391.8999999999999 C 963.0000000000001 1386.3999999999999 966.3000000000001 1380.8999999999999 971.8000000000001 1379.4999999999998 C 982.3000000000001 1376.8999999999999 992.8000000000001 1373.6999999999998 1003.0000000000001 1370.1999999999998 C 1008.3000000000001 1368.3999999999999 1014.2000000000002 1371.1999999999998 1016.0000000000001 1376.6 C 1017.1000000000001 1379.8 1016.5000000000001 1383.1999999999998 1014.7000000000002 1385.8 C 1013.6 1387.5 1011.8 1388.9 1009.7 1389.6 z M 922 1409.2 C 910.7 1410.5 899.2 1411.2 887.8 1411.6000000000001 C 882.1999999999999 1411.8000000000002 877.5 1407.3000000000002 877.3 1401.7 C 877.0999999999999 1396 881.5999999999999 1391.4 887.1999999999999 1391.2 C 897.9999999999999 1390.9 908.9 1390.2 919.6999999999999 1389 C 925.3 1388.4 930.4 1392.4 930.9999999999999 1398 C 931.2999999999998 1400.6 930.5999999999999 1403 929.1999999999999 1405 C 927.6 1407.3 925.1 1408.9 922 1409.2 z M 832.1 1409.3 C 820.8000000000001 1408.1 809.4 1406.3 798.2 1404.1 C 792.7 1403 789.1 1397.6 790.1 1392.1 C 791.2 1386.6 796.6 1383 802.1 1384.1 C 812.7 1386.1999999999998 823.5 1387.8 834.3000000000001 1389 C 839.9000000000001 1389.6 844.0000000000001 1394.7 843.3000000000001 1400.3 C 843.1 1402.1 842.5000000000001 1403.7 841.5000000000001 1405 C 839.6 1408 836 1409.7 832.1 1409.3 z M 744.4 1389.6 C 733.6 1385.8999999999999 722.9 1381.6999999999998 712.5 1377.1 C 707.3 1374.8 705 1368.8 707.3 1363.6 C 709.5999999999999 1358.5 715.5999999999999 1356.1 720.8 1358.3999999999999 C 730.6999999999999 1362.8 740.9 1366.8 751.0999999999999 1370.3 C 756.3999999999999 1372.1 759.3 1378 757.3999999999999 1383.3 C 757.0999999999999 1384.2 756.5999999999999 1385.1 756.0999999999999 1385.8 C 753.6 1389.4 748.8 1391.1 744.4 1389.6 z M 663.2 1351.1 C 656.1 1346.6999999999998 649 1342 642.1 1337.1999999999998 C 639.6 1335.4999999999998 637.2 1333.6999999999998 634.7 1331.8999999999999 C 630.2 1328.6 629.1 1322.1 632.5 1317.6 C 635.8 1313.1 642.2 1312.1 646.8 1315.3999999999999 C 649.0999999999999 1317.1 651.4 1318.8 653.8 1320.3999999999999 C 660.3 1324.9999999999998 667 1329.3999999999999 673.8 1333.6 C 678.5999999999999 1336.6 680.0999999999999 1342.8999999999999 677.0999999999999 1347.6999999999998 C 676.9999999999999 1347.8999999999999 676.8999999999999 1348.1 676.8 1348.1999999999998 C 673.9 1352.7 667.9 1354 663.2 1351.1 z" stroke-linecap="round" />
</g>
		<g transform="matrix(1 0 0 1 -579.79 -866.61)" id="_BTO4m-63VY2FsrnBYW2E"  >
<path style="stroke: none; stroke-width: 1; stroke-dasharray: none; stroke-linecap: butt; stroke-dashoffset: 0; stroke-linejoin: miter; stroke-miterlimit: 4; fill: rgb(145,179,250); fill-rule: nonzero; opacity: 0.3;" vector-effect="non-scaling-stroke"  transform=" translate(-1275.15, -995.35)" d="M 1283.6 1009.5 C 1284.8 1007.8 1285.5 1005.8 1285.5 1003.6 C 1285.5 998.1 1285.4 992.4 1285.2 986.8000000000001 C 1285 981.2 1280.2 976.8000000000001 1274.6000000000001 977.0000000000001 C 1269.0000000000002 977.2000000000002 1264.6000000000001 982.0000000000001 1264.8000000000002 987.6000000000001 C 1265.0000000000002 992.9000000000001 1265.1000000000001 998.3000000000002 1265.1000000000001 1003.5000000000001 C 1265.1000000000001 1009.1000000000001 1269.7 1013.7000000000002 1275.3000000000002 1013.7000000000002 C 1278.7 1013.9 1281.8 1012.2 1283.6 1009.5 z" stroke-linecap="round" />
</g>
		<g transform="matrix(1 0 0 1 -980.49 -860.06)" id="rQW_pFKqpMEC8Z7mnjf82"  >
<path style="stroke: none; stroke-width: 1; stroke-dasharray: none; stroke-linecap: butt; stroke-dashoffset: 0; stroke-linejoin: miter; stroke-miterlimit: 4; fill: rgb(145,179,250); fill-rule: nonzero; opacity: 1;" vector-effect="non-scaling-stroke"  transform=" translate(-874.45, -1001.9)" d="M 1159.8 885.5 C 1159.2 883.5 1157.5 882.1 1155.5 882 L 1097.5 878.6 C 1084.4 854.8000000000001 1067.4 833 1046.8 814.1 L 1057.2 756.9 C 1057.6000000000001 754.9 1056.6000000000001 752.9 1054.8 751.9 L 994 717.8 C 992.2 716.8 990 717 988.5 718.4 L 945 757 C 918.2 749.2 890.6 746.1 863.5 747.3 L 830.4 699.5 C 829.1999999999999 697.8 827.1 697.1 825.1999999999999 697.6 L 758.0999999999999 716.5 C 756.0999999999999 717.1 754.6999999999999 718.8 754.5999999999999 720.8 L 751.1999999999999 778.8 C 727.4 791.9 705.5999999999999 808.9 686.6999999999999 829.5 L 629.4999999999999 819.1 C 627.4999999999999 818.7 625.4999999999999 819.7 624.4999999999999 821.5 L 590.3999999999999 882.3 C 589.3999999999999 884.0999999999999 589.5999999999999 886.3 590.9999999999999 887.8 L 629.5999999999999 931.1999999999999 C 621.8 957.9999999999999 618.6999999999999 985.5999999999999 619.8999999999999 1012.6999999999999 L 572.0999999999999 1045.8 C 570.3999999999999 1047 569.6999999999999 1049.1 570.1999999999999 1051 L 589.0999999999999 1118.1 C 589.6999999999999 1120.1 591.3999999999999 1121.5 593.3999999999999 1121.6 L 651.3999999999999 1125 C 664.4999999999999 1148.8 681.4999999999999 1170.6 702.0999999999999 1189.5 L 691.6999999999999 1246.7 C 691.3 1248.7 692.3 1250.7 694.0999999999999 1251.7 L 755 1286 C 756.8 1287 759 1286.8 760.5 1285.4 L 803.9 1246.8000000000002 C 830.6999999999999 1254.6000000000001 858.3 1257.7000000000003 885.4 1256.5000000000002 L 918.5 1304.3000000000002 C 919.7 1306.0000000000002 921.8 1306.7000000000003 923.7 1306.2000000000003 L 990.8000000000001 1287.3000000000002 C 992.8000000000001 1286.7000000000003 994.2 1285.0000000000002 994.3000000000001 1283.0000000000002 L 997.7 1225.0000000000002 C 1021.5 1211.9000000000003 1043.3 1194.9000000000003 1062.2 1174.3000000000002 L 1119.4 1184.7000000000003 C 1121.4 1185.1000000000004 1123.4 1184.1000000000004 1124.4 1182.3000000000002 L 1158.5 1121.5000000000002 C 1159.5 1119.7000000000003 1159.3 1117.5000000000002 1157.9 1116.0000000000002 L 1119.3000000000002 1072.6000000000001 C 1127.1000000000001 1045.8000000000002 1130.2000000000003 1018.2000000000002 1129.0000000000002 991.1000000000001 L 1176.8000000000002 958.0000000000001 C 1178.5000000000002 956.8000000000001 1179.2000000000003 954.7000000000002 1178.7000000000003 952.8000000000001 L 1159.8 885.5 z" stroke-linecap="round" />
</g>
		<g transform="matrix(1 0 0 1 -980.48 -860.11)" id="FfXMplCuslaiBn7AcIxhE"  >
<path style="stroke: none; stroke-width: 1; stroke-dasharray: none; stroke-linecap: butt; stroke-dashoffset: 0; stroke-linejoin: miter; stroke-miterlimit: 4; fill: rgb(189,208,251); fill-rule: nonzero; opacity: 1;" vector-effect="non-scaling-stroke"  transform=" translate(-874.46, -1001.85)" d="M 925.3 1050.1 C 898.6999999999999 1078.1 854.1999999999999 1079.3 826.1999999999999 1052.6999999999998 C 812.5999999999999 1039.7999999999997 804.9 1022.3999999999999 804.4 1003.6999999999998 C 803.9 984.9999999999998 810.6999999999999 967.1999999999998 823.6 953.5999999999998 C 850.2 925.5999999999998 894.7 924.3999999999997 922.7 950.9999999999998 C 948.2 975.1999999999998 951.5 1014.1999999999998 931.9000000000001 1042.0999999999997 C 929.9 1044.9 927.7 1047.6 925.3 1050.1 z M 820.7 1003.3 C 821.1 1017.6999999999999 827 1031 837.4000000000001 1040.8999999999999 C 858.9000000000001 1061.3 893.0000000000001 1060.3999999999999 913.4000000000001 1038.8999999999999 C 933.8000000000001 1017.3999999999999 932.9000000000001 983.2999999999998 911.4000000000001 962.8999999999999 C 889.9000000000001 942.4999999999999 855.8000000000001 943.3999999999999 835.4000000000001 964.8999999999999 C 833.6000000000001 966.8999999999999 831.9000000000001 968.8999999999999 830.4000000000001 971.0999999999999 C 823.8 980.4 820.4 991.6 820.7 1003.3 z" stroke-linecap="round" />
</g>
		<g transform="matrix(1 0 0 1 -985.86 -859.81)" id="RbZln4Qxwjtv0vsZqSXjY"  >
<path style="stroke: none; stroke-width: 1; stroke-dasharray: none; stroke-linecap: butt; stroke-dashoffset: 0; stroke-linejoin: miter; stroke-miterlimit: 4; fill: rgb(189,208,251); fill-rule: nonzero; opacity: 1;" vector-effect="non-scaling-stroke"  transform=" translate(-869.07, -1002.16)" d="M 1013.9 1101.5 C 1017.3 1096.7 1020.4 1091.7 1023.3 1086.5 L 1023.3 1086.5 C 1024.2 1084.9 1025.1 1083.2 1026 1081.6 C 1030.3 1073.3999999999999 1033.9 1064.8999999999999 1036.7 1056.1999999999998 C 1036.7 1056.1 1036.8 1055.9999999999998 1036.8 1055.7999999999997 C 1036.8999999999999 1055.4999999999998 1037 1055.0999999999997 1037.1 1054.7999999999997 C 1037.3 1054.0999999999997 1037.5 1053.4999999999998 1037.6999999999998 1052.7999999999997 C 1038.1999999999998 1051.0999999999997 1037.6 1049.1999999999998 1036.1 1048.2999999999997 C 1035.8 1048.0999999999997 1035.3999999999999 1047.8999999999996 1034.8999999999999 1047.6999999999998 C 1032.6999999999998 1046.9999999999998 1030.4999999999998 1048.1999999999998 1029.8 1050.3999999999999 C 1026.3999999999999 1061.4999999999998 1021.6999999999999 1072.3 1016 1082.4999999999998 C 987.5 1133.1999999999998 935.9 1162.9999999999998 881.7 1165.9999999999998 C 851.6 1167.6999999999998 820.6 1161.0999999999997 792.4000000000001 1145.2999999999997 C 787.5000000000001 1142.4999999999998 782.7 1139.4999999999998 778.1000000000001 1136.2999999999997 C 747.3000000000002 1114.5999999999997 725.0000000000001 1083.2999999999997 714.7000000000002 1046.4999999999998 C 702.8000000000002 1004.2999999999997 708.1000000000001 959.9999999999998 729.6000000000001 921.6999999999998 C 773.9000000000001 842.6999999999998 874.2000000000002 814.5999999999998 953.1000000000001 858.8999999999999 C 958.0000000000001 861.5999999999999 962.7000000000002 864.5999999999999 967.2000000000002 867.7999999999998 C 986.9000000000002 881.5999999999998 1003.3000000000002 899.5999999999998 1015.2000000000002 920.4999999999999 C 1015.5000000000001 920.9999999999999 1015.9000000000002 921.4999999999999 1016.4000000000002 921.7999999999998 C 1017.7000000000002 922.6999999999998 1019.4000000000002 922.7999999999998 1020.8000000000002 921.9999999999999 C 1022.8000000000002 920.8999999999999 1023.4000000000002 918.3999999999999 1022.3000000000002 916.3999999999999 C 1009.8000000000002 894.4999999999999 992.5000000000002 875.5999999999999 971.9000000000002 861.0999999999999 C 967.1000000000003 857.8 962.2000000000002 854.5999999999999 957.1000000000003 851.8 C 874.2000000000003 805.3 768.9000000000003 834.9 722.4000000000003 917.6999999999999 C 699.9000000000003 957.8 694.3000000000003 1004.4 706.8000000000003 1048.6999999999998 C 717.6000000000003 1087.2999999999997 741.0000000000003 1120.1999999999998 773.3000000000003 1142.8999999999999 C 778.1000000000003 1146.3 783.1000000000003 1149.3999999999999 788.3000000000003 1152.3999999999999 C 828.4000000000003 1174.8999999999999 875.0000000000003 1180.4999999999998 919.3000000000003 1167.9999999999998 C 958.2 1157.3 991.1 1133.9 1013.9 1101.5 z" stroke-linecap="round" />
</g>
		<g transform="matrix(1 0 0 1 -296.75 -1292.62)" id="YJ53dYEX96-Vb6RPkrjOF"  >
<path style="stroke: none; stroke-width: 1; stroke-dasharray: none; stroke-linecap: butt; stroke-dashoffset: 0; stroke-linejoin: miter; stroke-miterlimit: 4; fill: rgb(145,179,250); fill-rule: nonzero; opacity: 0.3;" vector-effect="non-scaling-stroke"  transform=" translate(-1558.19, -569.34)" d="M 1568.4 579 C 1570 576.8 1570 573.7 1568.2 571.4 C 1564.9 567.1999999999999 1561.3 563.1 1557.8 559.1 C 1555.5 556.5 1551.5 556.3000000000001 1548.8999999999999 558.6 C 1546.3 560.9 1546.1 564.9 1548.3999999999999 567.5 C 1551.8 571.3 1555.1999999999998 575.3 1558.3999999999999 579.3 C 1560.6 582 1564.4999999999998 582.5 1567.3 580.3 C 1567.6 580 1568.1 579.5 1568.4 579 z" stroke-linecap="round" />
</g>
		<g transform="matrix(1 0 0 1 -533.35 -1309.92)" id="IjFzsMNuOCeyudYJ4yk8J"  >
<path style="stroke: none; stroke-width: 1; stroke-dasharray: none; stroke-linecap: butt; stroke-dashoffset: 0; stroke-linejoin: miter; stroke-miterlimit: 4; fill: rgb(145,179,250); fill-rule: nonzero; opacity: 0.3;" vector-effect="non-scaling-stroke"  transform=" translate(-1321.59, -552.05)" d="M 1534.4 544.5 C 1532.1000000000001 547.1 1528.1000000000001 547.4 1525.5 545.1 C 1518.8 539.3000000000001 1511.8 533.8000000000001 1504.6 528.8000000000001 C 1503.1 527.7 1501.5 526.7 1500 525.6 C 1497.1 523.7 1496.3 519.7 1498.3 516.8000000000001 C 1500.2 514.1 1504.2 513.1 1507.1 515.1 C 1508.6999999999998 516.2 1510.3 517.3000000000001 1511.8999999999999 518.4 C 1519.3999999999999 523.6999999999999 1526.8 529.5 1533.8 535.5 C 1536.3 537.6 1536.7 541.3 1534.8 543.9 C 1534.7 544.2 1534.5 544.3 1534.4 544.5 z M 1472.3 509.5 C 1462.8 504.7 1452.8999999999999 500.4 1442.8999999999999 496.8 C 1439.6 495.6 1437.8999999999999 492 1439.1 488.7 C 1440.3 485.4 1443.8999999999999 483.7 1447.1999999999998 484.9 C 1457.6999999999998 488.7 1468.1 493.2 1477.9999999999998 498.2 C 1481.0999999999997 499.8 1482.3999999999999 503.59999999999997 1480.7999999999997 506.7 C 1480.6999999999998 507 1480.4999999999998 507.2 1480.2999999999997 507.5 C 1478.6 510 1475.2 510.9 1472.3 509.5 z M 1412.2 487.7 C 1401.8 485.4 1391.2 483.59999999999997 1380.5 482.59999999999997 C 1377 482.29999999999995 1374.5 479.2 1374.8 475.7 C 1375.1 472.2 1378.2 469.7 1381.7 470 C 1392.8 471.1 1404 472.9 1414.9 475.4 C 1418.3000000000002 476.2 1420.4 479.5 1419.7 482.9 C 1419.5 483.7 1419.2 484.5 1418.7 485.09999999999997 C 1417.3 487.2 1414.7 488.3 1412.2 487.7 z M 1348.5 481.5 C 1337.8 481.8 1327.1 482.7 1316.6 484.3 C 1313.1 484.8 1309.8999999999999 482.40000000000003 1309.3999999999999 479 C 1308.8999999999999 475.6 1311.3 472.3 1314.6999999999998 471.8 C 1325.6999999999998 470.1 1336.9999999999998 469.2 1348.1999999999998 468.90000000000003 C 1351.6999999999998 468.8 1354.6 471.6 1354.6999999999998 475.1 C 1354.6999999999998 476.5 1354.2999999999997 477.8 1353.6 478.90000000000003 C 1352.4 480.4 1350.5 481.4 1348.5 481.5 z M 1285.2 491 C 1274.9 493.9 1264.7 497.4 1254.9 501.5 C 1251.7 502.8 1248 501.3 1246.6000000000001 498.1 C 1245.2000000000003 494.90000000000003 1246.8000000000002 491.20000000000005 1250.0000000000002 489.8 C 1260.3000000000002 485.5 1271.0000000000002 481.8 1281.8000000000002 478.8 C 1285.2000000000003 477.90000000000003 1288.6000000000001 479.8 1289.6000000000001 483.2 C 1290.1000000000001 485.09999999999997 1289.7 487 1288.7 488.5 C 1287.8 489.7 1286.6 490.5 1285.2 491 z M 1226.1 515.5 C 1216.8 520.8 1207.8 526.7 1199.3 533 C 1196.5 535.1 1192.6 534.5 1190.5 531.7 C 1188.4 528.9000000000001 1189 525 1191.8 522.9000000000001 C 1200.7 516.2 1210.2 510.0000000000001 1219.8999999999999 504.5000000000001 C 1222.8999999999999 502.8000000000001 1226.8 503.8000000000001 1228.4999999999998 506.9000000000001 C 1229.6999999999998 509.1000000000001 1229.4999999999998 511.7000000000001 1228.1999999999998 513.7 C 1227.6 514.4 1226.9 515 1226.1 515.5 z M 1174.9 553.7 C 1167.2 561.1 1159.9 569 1153.2 577.3000000000001 C 1151 580.0000000000001 1147 580.4000000000001 1144.3 578.2 C 1141.6 576 1141.2 572.1 1143.3999999999999 569.3000000000001 C 1150.4999999999998 560.6 1158.1 552.3000000000001 1166.1999999999998 544.6 C 1168.6999999999998 542.2 1172.6999999999998 542.3000000000001 1175.1 544.8000000000001 C 1177.1999999999998 547.0000000000001 1177.3999999999999 550.4000000000001 1175.6999999999998 552.8000000000001 C 1175.4 553.1 1175.2 553.5 1174.9 553.7 z M 1110.8 634.6 C 1107.6 633.1 1106.3 629.4 1107.8 626.2 C 1111.8999999999999 617.5 1116.5 608.8000000000001 1121.5 600.4000000000001 C 1122.3 599.1000000000001 1123 597.9000000000001 1123.8 596.6000000000001 C 1125.6 593.6000000000001 1129.5 592.8000000000002 1132.5 594.6000000000001 C 1135.5 596.5000000000001 1136.3 600.3000000000002 1134.5 603.3000000000002 C 1133.8 604.5000000000002 1133 605.7000000000002 1132.3 606.9000000000002 C 1127.5 614.9000000000002 1123.1 623.1000000000003 1119.2 631.5000000000002 C 1119 631.8000000000002 1118.9 632.2000000000003 1118.6000000000001 632.5000000000002 C 1116.9 635 1113.6 635.9 1110.8 634.6 z" stroke-linecap="round" />
</g>
		<g transform="matrix(1 0 0 1 -387.74 -968.69)" id="bas6OoDi5BzLSJUk4vJZC"  >
<path style="stroke: none; stroke-width: 1; stroke-dasharray: none; stroke-linecap: butt; stroke-dashoffset: 0; stroke-linejoin: miter; stroke-miterlimit: 4; fill: rgb(145,179,250); fill-rule: nonzero; opacity: 0.3;" vector-effect="non-scaling-stroke"  transform=" translate(-1467.2, -893.27)" d="M 1575.8 901.3 C 1569.3999999999999 910.1999999999999 1562.3 918.8 1554.8999999999999 926.9 C 1552.4999999999998 929.5 1548.4999999999998 929.6 1545.9999999999998 927.1999999999999 C 1543.3999999999999 924.8 1543.2999999999997 920.8 1545.6999999999998 918.3 C 1552.7999999999997 910.5999999999999 1559.4999999999998 902.4 1565.6999999999998 893.9 C 1567.6999999999998 891.1 1571.6999999999998 890.4 1574.4999999999998 892.5 C 1577.2 894.5 1577.8 898.4 1575.8 901.3 C 1575.8 901.3 1575.8 901.3 1575.8 901.3 z M 1584.9 875.8 C 1581.9 874.0999999999999 1580.7 870.3 1582.4 867.1999999999999 C 1587.5 857.9999999999999 1592.1000000000001 848.4 1596 838.6999999999999 C 1597.3 835.4999999999999 1601 833.9 1604.2 835.1999999999999 C 1607.4 836.4999999999999 1609 840.1999999999999 1607.7 843.4 C 1603.6000000000001 853.6 1598.8 863.6 1593.5 873.1999999999999 C 1593.4 873.4 1593.3 873.5999999999999 1593.1 873.8 C 1591.3 876.6 1587.8 877.4 1584.9 875.8 z M 1530.9 949.7 C 1522.5 956.8000000000001 1513.6000000000001 963.5 1504.4 969.5 C 1501.5 971.4 1497.6000000000001 970.6 1495.7 967.7 C 1493.8 964.8000000000001 1494.6000000000001 960.9000000000001 1497.5 959 C 1506.3 953.3 1514.8 946.9 1522.8 940.2 C 1525.5 938 1529.3999999999999 938.3000000000001 1531.7 940.9000000000001 C 1533.6000000000001 943.1000000000001 1533.7 946.3000000000001 1532 948.6000000000001 C 1531.7 949 1531.4 949.4 1530.9 949.7 z M 1610.5 816.6 C 1607.1 815.7 1605.1 812.2 1606 808.9 C 1608.7 798.8 1610.8 788.4 1612.3 778 C 1612.8 774.6 1616 772.1 1619.3999999999999 772.6 C 1622.8999999999999 773.1 1625.3 776.3000000000001 1624.8 779.7 C 1623.3 790.6 1621 801.5 1618.2 812.1 C 1618 812.8000000000001 1617.7 813.5 1617.3 814.1 C 1615.8 816.3 1613.2 817.4 1610.5 816.6 z M 1475.7 985.9 C 1465.9 990.8 1455.6000000000001 995.1 1445.2 998.6999999999999 C 1441.9 999.9 1438.3 998.0999999999999 1437.2 994.8 C 1436 991.5 1437.8 987.9 1441.1000000000001 986.8 C 1451.0000000000002 983.3 1460.8000000000002 979.1999999999999 1470.2 974.5999999999999 C 1473.3 973.0999999999999 1477.1000000000001 974.3 1478.7 977.4999999999999 C 1479.8 979.5999999999999 1479.5 982.0999999999999 1478.2 983.8999999999999 C 1477.5 984.7 1476.7 985.4 1475.7 985.9 z M 1413.5 1007.7 C 1402.8 1010.1 1391.8 1011.8000000000001 1380.8 1012.8000000000001 C 1377.3 1013.1 1374.2 1010.6 1373.8999999999999 1007.1 C 1373.6 1003.6 1376.1 1000.5 1379.6 1000.2 C 1390 999.2 1400.5 997.5 1410.8 995.3000000000001 C 1414.2 994.6 1417.6 996.7 1418.3 1000.1 C 1418.7 1001.9 1418.3 1003.7 1417.3 1005.1 C 1416.4 1006.4 1415.1 1007.4 1413.5 1007.7 z M 1347.8 1014 C 1336.8 1013.7 1325.7 1012.8 1314.8999999999999 1011.2 C 1311.3999999999999 1010.7 1309.1 1007.5 1309.6 1004 C 1310.1 1000.6 1313.3 998.2 1316.8 998.7 C 1327.2 1000.2 1337.7 1001.1 1348.2 1001.4000000000001 C 1351.7 1001.5000000000001 1354.4 1004.4000000000001 1354.4 1007.9000000000001 C 1354.4 1009.2 1354 1010.4000000000001 1353.3000000000002 1011.4000000000001 C 1351.9 1013 1350 1014.1 1347.8 1014 z" stroke-linecap="round" />
</g>
		<g transform="matrix(1 0 0 1 -233.82 -1123.37)" id="EnmIqZE5nXOk5ZfL47M_g"  >
<path style="stroke: none; stroke-width: 1; stroke-dasharray: none; stroke-linecap: butt; stroke-dashoffset: 0; stroke-linejoin: miter; stroke-miterlimit: 4; fill: rgb(145,179,250); fill-rule: nonzero; opacity: 0.3;" vector-effect="non-scaling-stroke"  transform=" translate(-1621.11, -738.59)" d="M 1626.4 750 C 1627.1000000000001 749 1627.5 747.8 1627.5 746.5 C 1627.6 741.1 1627.5 735.7 1627.3 730.4 C 1627.2 726.9 1624.2 724.1999999999999 1620.7 724.4 C 1617.2 724.6 1614.5 727.5 1614.7 731 C 1614.9 736.1 1615 741.2 1614.9 746.4 C 1614.8000000000002 749.9 1617.6000000000001 752.8 1621.1000000000001 752.8 C 1623.3 752.8 1625.2 751.7 1626.4 750 z" stroke-linecap="round" />
</g>
		<g transform="matrix(1 0 0 1 -501.99 -1121.71)" id="PUD3-2k8hHHxUdwCzM5jX"  >
<path style="stroke: none; stroke-width: 1; stroke-dasharray: none; stroke-linecap: butt; stroke-dashoffset: 0; stroke-linejoin: miter; stroke-miterlimit: 4; fill: rgb(145,179,250); fill-rule: nonzero; opacity: 1;" vector-effect="non-scaling-stroke"  transform=" translate(-1352.95, -740.25)" d="M 1544 662.5 C 1543.6 661.2 1542.5 660.3 1541.1 660.2 L 1502.3 657.9000000000001 C 1493.5 642.0000000000001 1482.2 627.4000000000001 1468.3999999999999 614.7 L 1475.3 576.4000000000001 C 1475.5 575.1000000000001 1474.8999999999999 573.7 1473.7 573.0000000000001 L 1433 550.2000000000002 C 1431.8 549.5000000000001 1430.3 549.7000000000002 1429.3 550.6000000000001 L 1400.3 576.4000000000001 C 1382.3 571.2 1363.8999999999999 569.1000000000001 1345.8 569.9000000000001 L 1323.6 537.9000000000001 C 1322.8 536.8000000000001 1321.3999999999999 536.3000000000001 1320.1 536.6000000000001 L 1275.1999999999998 549.2000000000002 C 1273.8999999999999 549.6000000000001 1272.9999999999998 550.7000000000002 1272.8999999999999 552.1000000000001 L 1270.6 590.9000000000001 C 1254.6999999999998 599.7 1240.1 611.0000000000001 1227.3999999999999 624.8000000000001 L 1189.1 617.9000000000001 C 1187.8 617.7 1186.3999999999999 618.3000000000001 1185.6999999999998 619.5000000000001 L 1162.8999999999999 660.2000000000002 C 1162.1999999999998 661.4000000000002 1162.3999999999999 662.9000000000002 1163.3 663.9000000000002 L 1189.1 692.9000000000002 C 1183.8999999999999 710.9000000000002 1181.8 729.3000000000002 1182.6 747.4000000000002 L 1150.6 769.6000000000003 C 1149.5 770.4000000000002 1149 771.8000000000003 1149.3 773.1000000000003 L 1161.8999999999999 818.0000000000002 C 1162.3 819.3000000000002 1163.3999999999999 820.2000000000003 1164.8 820.3000000000002 L 1203.6 822.6000000000001 C 1212.3999999999999 838.5000000000001 1223.6999999999998 853.1000000000001 1237.5 865.8000000000002 L 1230.6 904.1000000000001 C 1230.3999999999999 905.4000000000001 1231 906.8000000000002 1232.1999999999998 907.5000000000001 L 1272.8999999999999 930.3000000000001 C 1274.1 931.0000000000001 1275.6 930.8000000000001 1276.6 929.9000000000001 L 1305.6 904.1000000000001 C 1323.6 909.3000000000002 1342 911.4000000000001 1360.1 910.6000000000001 L 1382.3 942.6000000000001 C 1383.1 943.7000000000002 1384.5 944.2000000000002 1385.8 943.9000000000001 L 1430.7 931.3000000000001 C 1432 930.9000000000001 1432.9 929.8000000000001 1433 928.4000000000001 L 1435.3 889.6000000000001 C 1451.2 880.8000000000002 1465.8 869.5000000000001 1478.5 855.7000000000002 L 1516.8 862.6000000000001 C 1518.1 862.8000000000002 1519.5 862.2000000000002 1520.2 861.0000000000001 L 1543 820.3000000000001 C 1543.7 819.1 1543.5 817.6 1542.6 816.6 L 1516.8 787.6 C 1522 769.6 1524.1 751.2 1523.3 733.1 L 1555.3 710.9 C 1556.3999999999999 710.1 1556.8999999999999 708.6999999999999 1556.6 707.4 L 1544 662.5 z" stroke-linecap="round" />
</g>
		<g transform="matrix(1 0 0 1 -501.86 -1121.59)" id="0BcUC_MHpeZYYTHZjwOUi"  >
<path style="stroke: none; stroke-width: 1; stroke-dasharray: none; stroke-linecap: butt; stroke-dashoffset: 0; stroke-linejoin: miter; stroke-miterlimit: 4; fill: rgb(189,208,251); fill-rule: nonzero; opacity: 1;" vector-effect="non-scaling-stroke"  transform=" translate(-1353.08, -740.37)" d="M 1387.7 773.2 C 1378.9 782.5 1367.1000000000001 787.7 1354.3 788.1 C 1341.6 788.4 1329.3999999999999 783.8000000000001 1320.2 775 C 1301.1000000000001 756.9 1300.3 726.7 1318.4 707.5 C 1336.5 688.4 1366.8000000000002 687.6 1385.9 705.7 C 1395.2 714.5 1400.4 726.3000000000001 1400.8000000000002 739.1 C 1401.1000000000001 749.5 1398.1000000000001 759.4 1392.2000000000003 767.7 C 1390.9 769.7 1389.4 771.5 1387.7 773.2 z M 1328.9 765.9 C 1335.7 772.4 1344.6000000000001 775.8 1354 775.5 C 1363.4 775.3 1372.1 771.4 1378.6 764.6 L 1378.6 764.6 C 1385 757.8000000000001 1388.5 748.9 1388.1999999999998 739.5 C 1387.9999999999998 730.1 1384.1 721.4 1377.2999999999997 714.9 C 1363.1999999999998 701.6 1340.9999999999998 702.1999999999999 1327.5999999999997 716.1999999999999 C 1326.3999999999996 717.4999999999999 1325.2999999999997 718.8 1324.2999999999997 720.1999999999999 C 1314.5 734.2 1316.1 753.7 1328.9 765.9 z" stroke-linecap="round" />
</g>
		<g transform="matrix(1 0 0 1 -505.4 -1121.29)" id="1am2vpYjBtIfFMQw1Fjp9"  >
<path style="stroke: none; stroke-width: 1; stroke-dasharray: none; stroke-linecap: butt; stroke-dashoffset: 0; stroke-linejoin: miter; stroke-miterlimit: 4; fill: rgb(189,208,251); fill-rule: nonzero; opacity: 1;" vector-effect="non-scaling-stroke"  transform=" translate(-1349.54, -740.67)" d="M 1449.3 809 C 1451.6 805.7 1453.7 802.3 1455.7 798.8 C 1459.7 791.6999999999999 1462.9 784.3 1465.4 776.5999999999999 C 1465.5 776.3 1465.6000000000001 775.8999999999999 1465.7 775.5999999999999 C 1466.5 772.8999999999999 1465.5 770.0999999999999 1463.3 768.5999999999999 C 1462.8 768.1999999999999 1462.2 767.8999999999999 1461.5 767.6999999999999 C 1458.2 766.6999999999999 1454.6 768.5999999999999 1453.6 771.9 C 1451.3999999999999 779.1 1448.3999999999999 786.1 1444.6999999999998 792.6999999999999 L 1444.6999999999998 792.6999999999999 C 1444.4999999999998 793.0999999999999 1444.2999999999997 793.4 1444.1 793.8 C 1435.1999999999998 809.3 1422.6999999999998 822 1407.8999999999999 831.1999999999999 C 1399.8 836.1999999999999 1390.9999999999998 840.0999999999999 1381.6999999999998 842.8 C 1381.6 842.8 1381.4999999999998 842.8 1381.4999999999998 842.9 C 1381.2999999999997 843 1380.9999999999998 843 1380.7999999999997 843.1 C 1353.4999999999998 850.8000000000001 1324.7999999999997 847.4 1299.9999999999998 833.5 C 1296.7999999999997 831.7 1293.6999999999998 829.8 1290.6999999999998 827.7 C 1270.6999999999998 813.7 1256.2999999999997 793.4000000000001 1249.6999999999998 769.6 C 1241.9999999999998 742.3000000000001 1245.4999999999998 713.6 1259.3999999999999 688.8000000000001 C 1273.3 664.1 1295.9999999999998 646.2 1323.3 638.5000000000001 C 1350.6 630.8000000000001 1379.3 634.2000000000002 1404.1 648.1000000000001 C 1407.3 649.9000000000001 1410.3 651.8000000000002 1413.1999999999998 653.9000000000001 C 1425.8999999999999 662.8000000000001 1436.6 674.5000000000001 1444.2999999999997 688.0000000000001 C 1444.7999999999997 688.8000000000001 1445.3999999999996 689.5000000000001 1446.1999999999998 690.0000000000001 C 1448.1 691.4000000000001 1450.7999999999997 691.6000000000001 1452.9999999999998 690.3000000000001 C 1455.9999999999998 688.6 1457.0999999999997 684.7 1455.2999999999997 681.7 C 1446.6999999999998 666.6 1434.7999999999997 653.6 1420.4999999999998 643.5 C 1417.1999999999998 641.2 1413.7999999999997 639 1410.2999999999997 637.1 C 1382.5999999999997 621.5 1350.4999999999998 617.7 1319.8999999999996 626.3000000000001 C 1289.2999999999997 634.9000000000001 1263.8999999999996 654.8000000000001 1248.3999999999996 682.6 C 1232.7999999999997 710.3000000000001 1228.9999999999995 742.4 1237.5999999999997 773 C 1245.0999999999997 799.6 1261.1999999999996 822.3 1283.4999999999998 838 C 1286.7999999999997 840.3 1290.2999999999997 842.5 1293.8999999999999 844.5 C 1347.5 874.4 1414.7 858.3 1449.3 809 z" stroke-linecap="round" />
</g>
		<g transform="matrix(1 0 0 1 483.31 98.31)" id="2HMQ2Ag7Y4MNKo09FCb7e"  >
<linearGradient id="SVGID_1" gradientUnits="userSpaceOnUse" gradientTransform="matrix(1 0 0 1 0 0)"  x1="2273.1802" y1="1960.2485" x2="2403.3113" y2="1960.2485">
<stop offset="0%" style="stop-color:rgb(254,112,98);stop-opacity: 1"/>
<stop offset="100%" style="stop-color:rgb(255,146,142);stop-opacity: 1"/>
</linearGradient>
<path style="stroke: none; stroke-width: 1; stroke-dasharray: none; stroke-linecap: butt; stroke-dashoffset: 0; stroke-linejoin: miter; stroke-miterlimit: 4; fill: url(#SVGID_1); fill-rule: nonzero; opacity: 1;" vector-effect="non-scaling-stroke"  transform=" translate(-2338.25, -1960.27)" d="M 2403.3 679.3 L 2403.3 3189.3999999999996 C 2403.3 3205.9999999999995 2396.6000000000004 3220.9999999999995 2385.2000000000003 3230.2 C 2376.5000000000005 3237.2 2365.6000000000004 3241.7 2353.5000000000005 3241.2 L 2326.0000000000005 3240.2 C 2298.2000000000003 3239.2 2273.2000000000003 3213.7 2273.2000000000003 3184.7 L 2273.2000000000003 683.5 L 2403.3 679.3 z" stroke-linecap="round" />
</g>
		<g transform="matrix(1 0 0 1 484.01 -1268.74)" id="EG-HyiUNhzpbpJxk85hL-"  >
<linearGradient id="SVGID_2" gradientUnits="userSpaceOnUse" gradientTransform="matrix(-1 0 0 1 1601.96 0)"  x1="-599.3334" y1="362.6288" x2="-886.8785" y2="843.9543">
<stop offset="0%" style="stop-color:rgb(225,71,61);stop-opacity: 1"/>
<stop offset="100%" style="stop-color:rgb(233,96,90);stop-opacity: 1"/>
</linearGradient>
<path style="stroke: none; stroke-width: 1; stroke-dasharray: none; stroke-linecap: butt; stroke-dashoffset: 0; stroke-linejoin: miter; stroke-miterlimit: 4; fill: url(#SVGID_2); fill-rule: nonzero; opacity: 1;" vector-effect="non-scaling-stroke"  transform=" translate(-2338.95, -593.22)" d="M 2455.6 589.2 C 2455.6 631.6 2434.1 669.5 2401.7 691.8000000000001 C 2383.5 704.4000000000001 2361.7999999999997 712.0000000000001 2338.6 712.7 C 2327.1 713 2315.9 711.7 2305.4 708.8000000000001 C 2297.5 706.6 2290 703.6 2282.8 699.9000000000001 C 2281 698.9000000000001 2279.2000000000003 697.9000000000001 2277.5 696.9000000000001 C 2244.3 676.9000000000001 2222.3 640.0000000000001 2222.3 597.2 C 2222.3 531.4000000000001 2274.3 476.1 2338.6000000000004 473.80000000000007 C 2403.1 471.2 2455.6 522.9 2455.6 589.2 z" stroke-linecap="round" />
</g>
		<g transform="matrix(1 0 0 1 456.36 -1273.97)" id="dwUin2xD6V41E8G6Zfc_X"  >
<linearGradient id="SVGID_3" gradientUnits="userSpaceOnUse" gradientTransform="matrix(-1 0 0 1 1601.96 0)"  x1="-602.3337" y1="408.7039" x2="-825.8922" y2="782.9213">
<stop offset="0%" style="stop-color:rgb(254,112,98);stop-opacity: 1"/>
<stop offset="100%" style="stop-color:rgb(255,146,142);stop-opacity: 1"/>
</linearGradient>
<path style="stroke: none; stroke-width: 1; stroke-dasharray: none; stroke-linecap: butt; stroke-dashoffset: 0; stroke-linejoin: miter; stroke-miterlimit: 4; fill: url(#SVGID_3); fill-rule: nonzero; opacity: 1;" vector-effect="non-scaling-stroke"  transform=" translate(-2311.3, -587.99)" d="M 2402 584.9 C 2402 617.8 2385.3 647.3 2360.1 664.6999999999999 C 2345.9 674.4999999999999 2329.1 680.4 2311 680.9 C 2302 681.1999999999999 2293.4 680.1 2285.2 677.9 C 2279.1 676.1999999999999 2273.2 673.9 2267.7 671 C 2266.2999999999997 670.2 2264.8999999999996 669.5 2263.5 668.6 C 2237.7 653.1 2220.6 624.4 2220.6 591.1 C 2220.6 539.9 2261 497 2311 495.1 C 2361.2 493.1 2402 533.3 2402 584.9 z" stroke-linecap="round" />
</g>
		<g transform="matrix(1 0 0 1 235.4 -976.29)" id="ErmZEA8Om9cn6thNSaJE7"  >
<linearGradient id="SVGID_4" gradientUnits="userSpaceOnUse" gradientTransform="matrix(0.95 0.13 -0.14 0.99 -220.25 -129.67)"  x1="2529.2974" y1="190.6433" x2="2529.2974" y2="1058.4601">
<stop offset="0%" style="stop-color:rgb(225,71,61);stop-opacity: 1"/>
<stop offset="100%" style="stop-color:rgb(233,96,90);stop-opacity: 1"/>
</linearGradient>
<path style="stroke: none; stroke-width: 1; stroke-dasharray: none; stroke-linecap: butt; stroke-dashoffset: 0; stroke-linejoin: miter; stroke-miterlimit: 4; fill: url(#SVGID_4); fill-rule: nonzero; opacity: 1;" vector-effect="non-scaling-stroke"  transform=" translate(-2090.34, -885.67)" d="M 1462.7 769 L 1472.7 774.2 L 1662 658.1 L 2589.1 795.2 L 2718.7999999999997 810 L 2711.1 834.2 C 2710.1 836.8000000000001 2562.5 944.3000000000001 2562.5 944.3000000000001 L 2677.3 1095 L 2671.8 1110.5 C 2671.1000000000004 1112.3 2669.3 1113.5 2667.5 1113.2 L 2548.3 1094.7 L 1620.7 951 C 1618.1000000000001 950.6 1615.7 949.3 1613.9 947.4 L 1464.7 791.2 C 1462.7 789.2 1461.7 786.3000000000001 1461.9 783.4000000000001 L 1462.7 769 z" stroke-linecap="round" />
</g>
		<g transform="matrix(1 0 0 1 236.77 -990.69)" id="QIcun_Z_5Sagsd51wDjcc"  >
<linearGradient id="SVGID_5" gradientUnits="userSpaceOnUse" gradientTransform="matrix(-0.94 -0.15 -0.15 0.99 1485.71 119.43)"  x1="-723.2485" y1="425.5417" x2="-781.5465" y2="1154.91">
<stop offset="0%" style="stop-color:rgb(254,112,98);stop-opacity: 1"/>
<stop offset="100%" style="stop-color:rgb(255,146,142);stop-opacity: 1"/>
</linearGradient>
<path style="stroke: none; stroke-width: 1; stroke-dasharray: none; stroke-linecap: butt; stroke-dashoffset: 0; stroke-linejoin: miter; stroke-miterlimit: 4; fill: url(#SVGID_5); fill-rule: nonzero; opacity: 1;" vector-effect="non-scaling-stroke"  transform=" translate(-2091.7, -871.27)" d="M 1672.5 647.9 L 2718.8 810 C 2719.8 810.2 2720.1000000000004 811.5 2719.2000000000003 812.1 L 2571.8 920 C 2569.8 921.5 2569.3 924.3 2570.6000000000004 926.4 L 2676.0000000000005 1093 C 2676.5000000000005 1093.8 2675.8000000000006 1094.9 2674.9000000000005 1094.8 L 1628 932.4 C 1625 931.9 1622.3 930.5 1620.1 928.3 L 1464.1 770.3 C 1463.3999999999999 769.5999999999999 1463.6 768.5 1464.3999999999999 768 L 1663 649.7 C 1665.9 648 1669.2 647.4 1672.5 647.9 z" stroke-linecap="round" />
</g>
		<g transform="matrix(1 0 0 1 309.51 -170.91)" id="yGGxN58ouToV1SKC3BWwn"  >
<path style="stroke: none; stroke-width: 1; stroke-dasharray: none; stroke-linecap: butt; stroke-dashoffset: 0; stroke-linejoin: miter; stroke-miterlimit: 4; fill: rgb(125,151,244); fill-rule: nonzero; opacity: 1;" vector-effect="non-scaling-stroke"  transform=" translate(-2164.45, -1691.05)" d="M 1553.7 1747.4 L 1564.3 1750 L 1716.3999999999999 1596.7 L 2623 1513.7 L 2744 1498.6000000000001 C 2746.5 1498.3000000000002 2748.7 1500.3000000000002 2748.6 1502.8000000000002 L 2747.6 1522.6000000000001 C 2747.2 1525.3000000000002 2632.2 1661.0000000000002 2632.2 1661.0000000000002 L 2775.2 1777.3000000000002 L 2773.5 1793.2000000000003 C 2773.3 1795.1000000000004 2771.9 1796.6000000000004 2770.1 1796.7000000000003 L 2653.2999999999997 1806.6000000000004 L 1744.6999999999998 1883.5000000000005 C 1742.1999999999998 1883.7000000000005 1739.6 1883.1000000000004 1737.3999999999999 1881.7000000000005 L 1560.7 1768 C 1558.4 1766.5 1556.8 1764.1 1556.3 1761.3 L 1553.7 1747.4 z" stroke-linecap="round" />
</g>
		<g transform="matrix(1 0 0 1 309.15 -180.75)" id="TIFNM9Wm39aOrHBp5fHK4"  >
<path style="stroke: none; stroke-width: 1; stroke-dasharray: none; stroke-linecap: butt; stroke-dashoffset: 0; stroke-linejoin: miter; stroke-miterlimit: 4; fill: rgb(145,179,250); fill-rule: nonzero; opacity: 1;" vector-effect="non-scaling-stroke"  transform=" translate(-2164.09, -1681.21)" d="M 1723.9 1584.6 L 2745.7 1498.1 C 2747.7999999999997 1497.8999999999999 2749.1 1500.3999999999999 2747.7 1502 L 2635.2 1635.7 C 2633.7 1637.5 2633.7999999999997 1640.4 2635.5 1642.1000000000001 L 2773.3 1775.6000000000001 C 2774 1776.3000000000002 2773.6000000000004 1777.4 2772.6000000000004 1777.5000000000002 L 1747.1000000000004 1864.3000000000002 C 1744.2000000000003 1864.5000000000002 1741.2000000000003 1863.8000000000002 1738.7000000000003 1862.3000000000002 L 1555.2000000000003 1748.5000000000002 C 1554.4000000000003 1748.0000000000002 1554.3000000000002 1746.9000000000003 1555.0000000000002 1746.3000000000002 L 1715.4000000000003 1588.7000000000003 C 1717.8 1586.3 1720.8 1584.9 1723.9 1584.6 z" stroke-linecap="round" />
</g>
		<g transform="matrix(1 0 0 1 189.76 -207.41)" id="5XvrmNWolZd6v47VREj3C"  >
<path style="stroke: none; stroke-width: 1; stroke-dasharray: none; stroke-linecap: butt; stroke-dashoffset: 0; stroke-linejoin: miter; stroke-miterlimit: 4; fill: rgb(255,255,255); fill-rule: nonzero; opacity: 0.56;" vector-effect="non-scaling-stroke"  transform=" translate(-2044.7, -1654.55)" d="M 2330.8 1649.2 L 1761.3000000000002 1693.7 C 1759.2000000000003 1693.9 1757.3000000000002 1692.3 1757.2000000000003 1690.2 L 1755.1000000000004 1664 C 1754.9000000000003 1661.9 1756.5000000000005 1660 1758.6000000000004 1659.9 L 2328.1000000000004 1615.4 C 2330.2000000000003 1615.2 2332.1000000000004 1616.8000000000002 2332.2000000000003 1618.9 L 2334.3 1645.1000000000001 C 2334.5 1647.2 2332.9 1649 2330.8 1649.2 z" stroke-linecap="round" />
</g>
		<g transform="matrix(1 0 0 1 192.51 -116.81)" id="PFG7euAV2_knd5vEfAu58"  >
<path style="stroke: none; stroke-width: 1; stroke-dasharray: none; stroke-linecap: butt; stroke-dashoffset: 0; stroke-linejoin: miter; stroke-miterlimit: 4; fill: rgb(255,255,255); fill-rule: nonzero; opacity: 0.56;" vector-effect="non-scaling-stroke"  transform=" translate(-2047.45, -1745.15)" d="M 2331.2 1739.1 L 1766.1999999999998 1783.3 C 1764.1 1783.5 1762.1999999999998 1781.8999999999999 1762.1 1779.8 L 1760.1999999999998 1755.3 C 1759.9999999999998 1753.2 1761.6 1751.3 1763.6999999999998 1751.2 L 2328.7 1707 C 2330.7999999999997 1706.8 2332.7 1708.4 2332.7999999999997 1710.5 L 2334.7 1735 C 2334.9 1737.1 2333.3 1738.9 2331.2 1739.1 z" stroke-linecap="round" />
</g>
		<g transform="matrix(1 0 0 1 681.61 -556.6)" id="yXcDL4BBpe-NERCpHMgDl"  >
<linearGradient id="SVGID_6" gradientUnits="userSpaceOnUse" gradientTransform="matrix(1 0 0 1 0 0)"  x1="2521.9661" y1="-419.3396" x2="2528.6653" y2="337.7258">
<stop offset="0%" style="stop-color:rgb(79,82,255);stop-opacity: 1"/>
<stop offset="100%" style="stop-color:rgb(64,66,226);stop-opacity: 1"/>
</linearGradient>
<path style="stroke: none; stroke-width: 1; stroke-dasharray: none; stroke-linecap: butt; stroke-dashoffset: 0; stroke-linejoin: miter; stroke-miterlimit: 4; fill: url(#SVGID_6); fill-rule: nonzero; opacity: 1;" vector-effect="non-scaling-stroke"  transform=" translate(-2536.55, -1305.36)" d="M 3203.2 1235.3 L 3192.2 1239.7 L 3001.3999999999996 1116.1000000000001 L 2008.1999999999996 1192.3000000000002 L 1869.8999999999996 1200.2000000000003 L 1875.4999999999995 1221.8000000000002 C 1876.3999999999996 1224.4 2023.8999999999996 1337.9 2023.8999999999996 1337.9 L 1889.7999999999997 1476.5 L 1894.3999999999996 1491.8 C 1894.8999999999996 1493.6 1896.7999999999997 1494.8 1898.6999999999996 1494.6 L 2026.4999999999995 1484 L 3020.7999999999993 1401.4 C 3023.5999999999995 1401.2 3026.1999999999994 1400.1000000000001 3028.2999999999993 1398.3000000000002 L 3199.2999999999993 1256.5000000000002 C 3201.499999999999 1254.6000000000001 3202.899999999999 1252.0000000000002 3202.899999999999 1249.1000000000001 L 3203.2 1235.3 z" stroke-linecap="round" />
</g>
		<g transform="matrix(1 0 0 1 681.2 -570.94)" id="7BHejjODpZiF8aYPFCBQd"  >
<linearGradient id="SVGID_7" gradientUnits="userSpaceOnUse" gradientTransform="matrix(1 0 0 1 0 0)"  x1="3213.5754" y1="696.8133" x2="4453.0137" y2="-261.2404">
<stop offset="0%" style="stop-color:rgb(79,82,255);stop-opacity: 1"/>
<stop offset="100%" style="stop-color:rgb(64,66,226);stop-opacity: 1"/>
</linearGradient>
<path style="stroke: none; stroke-width: 1; stroke-dasharray: none; stroke-linecap: butt; stroke-dashoffset: 0; stroke-linejoin: miter; stroke-miterlimit: 4; fill: url(#SVGID_7); fill-rule: nonzero; opacity: 1;" vector-effect="non-scaling-stroke"  transform=" translate(-2536.14, -1291.02)" d="M 2991.1 1105.7 L 1871.8999999999999 1198.7 C 1870.1 1198.9 1869.3999999999999 1201.2 1870.8 1202.3 L 2016.1 1313.8999999999999 C 2018.1 1315.3999999999999 2018.3999999999999 1318.1999999999998 2016.8 1320.1999999999998 L 1891.3 1474.6 C 1890.7 1475.3999999999999 1891.3 1476.5 1892.3 1476.3999999999999 L 3014.6 1383.1999999999998 C 3017.7999999999997 1382.8999999999999 3020.7999999999997 1381.6999999999998 3023.2999999999997 1379.7999999999997 L 3201.7 1236.5999999999997 C 3202.3999999999996 1235.9999999999998 3202.3999999999996 1234.8999999999996 3201.6 1234.3999999999996 L 3000.9 1108 C 2998 1106.2 2994.5 1105.4 2991.1 1105.7 z" stroke-linecap="round" />
</g>
		<g transform="matrix(1 0 0 1 841.06 -643.06)" id="2FkZ5PDTSsCEqt_kxfIK2"  >
<path style="stroke: none; stroke-width: 1; stroke-dasharray: none; stroke-linecap: butt; stroke-dashoffset: 0; stroke-linejoin: miter; stroke-miterlimit: 4; fill: rgb(255,255,255); fill-rule: nonzero; opacity: 0.56;" vector-effect="non-scaling-stroke"  transform=" translate(-2696, -1218.9)" d="M 2975.5 1214.6 L 2419.2 1258.1 C 2417.1 1258.3 2415.2 1256.6999999999998 2415.1 1254.6 L 2413 1227.3 C 2412.8 1225.2 2414.4 1223.3 2416.5 1223.2 L 2972.8 1179.7 C 2974.9 1179.5 2976.8 1181.1000000000001 2976.9 1183.2 L 2979 1210.5 C 2979.2 1212.6 2977.6 1214.5 2975.5 1214.6 z" stroke-linecap="round" />
</g>
		<g transform="matrix(1 0 0 1 844.16 -549.66)" id="PDEb8-dv3VJbGV9MfXsas"  >
<path style="stroke: none; stroke-width: 1; stroke-dasharray: none; stroke-linecap: butt; stroke-dashoffset: 0; stroke-linejoin: miter; stroke-miterlimit: 4; fill: rgb(255,255,255); fill-rule: nonzero; opacity: 0.56;" vector-effect="non-scaling-stroke"  transform=" translate(-2699.1, -1312.3)" d="M 2976.3 1307.3 L 2424.5 1350.3999999999999 C 2422.4 1350.6 2420.5 1348.9999999999998 2420.4 1346.8999999999999 L 2418.4 1321.3999999999999 C 2418.2000000000003 1319.3 2419.8 1317.3999999999999 2421.9 1317.3 L 2973.7 1274.2 C 2975.7999999999997 1274 2977.7 1275.6000000000001 2977.7999999999997 1277.7 L 2979.7999999999997 1303.2 C 2980 1305.3 2978.4 1307.1 2976.3 1307.3 z" stroke-linecap="round" />
</g>
		<g transform="matrix(1 0 0 1 483.06 -959.96)" id="XKHBm5ljsg3rpXhlg4oqx"  >
<linearGradient id="SVGID_8" gradientUnits="userSpaceOnUse" gradientTransform="matrix(1 0 0 1 -2298.3 -862.3)"  x1="2363.2168" y1="785.8243" x2="2247.6191" y2="1318.657">
<stop offset="0%" style="stop-color:rgb(225,71,61);stop-opacity: 1"/>
<stop offset="100%" style="stop-color:rgb(233,96,90);stop-opacity: 1"/>
</linearGradient>
<path style="stroke: none; stroke-width: 1; stroke-dasharray: none; stroke-linecap: butt; stroke-dashoffset: 0; stroke-linejoin: miter; stroke-miterlimit: 4; fill: url(#SVGID_8); fill-rule: nonzero; opacity: 1;" vector-effect="non-scaling-stroke"  transform=" translate(-39.7, -39.7)" d="M 0 39.7 C 0 17.774300000000004 17.7743 0 39.7 0 C 61.6257 0 79.4 17.7743 79.4 39.7 C 79.4 61.6257 61.62570000000001 79.4 39.7 79.4 C 17.774300000000004 79.4 0 61.62570000000001 0 39.7 z" stroke-linecap="round" />
</g>
		<g transform="matrix(1 0 0 1 485.76 -966.26)" id="mMHVWfhecTvnZ3KeT5gEl"  >
<linearGradient id="SVGID_9" gradientUnits="userSpaceOnUse" gradientTransform="matrix(1 0 0 1 -2316.3 -871.3)"  x1="2338.7249" y1="804.7278" x2="2341.2986" y2="921.9813">
<stop offset="0%" style="stop-color:rgb(225,71,61);stop-opacity: 1"/>
<stop offset="100%" style="stop-color:rgb(233,96,90);stop-opacity: 1"/>
</linearGradient>
<path style="stroke: none; stroke-width: 1; stroke-dasharray: none; stroke-linecap: butt; stroke-dashoffset: 0; stroke-linejoin: miter; stroke-miterlimit: 4; fill: url(#SVGID_9); fill-rule: nonzero; opacity: 1;" vector-effect="non-scaling-stroke"  transform=" translate(-24.4, -24.4)" d="M 0 24.4 C 0 10.924249999999999 10.92425 0 24.4 0 C 37.87575 0 48.8 10.92425 48.8 24.4 C 48.8 37.87575 37.87575 48.8 24.4 48.8 C 10.924249999999999 48.8 0 37.87575 0 24.4 z" stroke-linecap="round" />
</g>
		<g transform="matrix(1 0 0 1 476.76 -556.36)" id="tXW4ImGsM3ZyX8Ia35p2r"  >
<linearGradient id="SVGID_10" gradientUnits="userSpaceOnUse" gradientTransform="matrix(1 0 0 1 -2293.4 -1267.3)"  x1="2355.9954" y1="1193.7128" x2="2244.6536" y2="1706.9279">
<stop offset="0%" style="stop-color:rgb(225,71,61);stop-opacity: 1"/>
<stop offset="100%" style="stop-color:rgb(233,96,90);stop-opacity: 1"/>
</linearGradient>
<path style="stroke: none; stroke-width: 1; stroke-dasharray: none; stroke-linecap: butt; stroke-dashoffset: 0; stroke-linejoin: miter; stroke-miterlimit: 4; fill: url(#SVGID_10); fill-rule: nonzero; opacity: 1;" vector-effect="non-scaling-stroke"  transform=" translate(-38.3, -38.3)" d="M 0 38.3 C 0 17.147489999999998 17.14749 0 38.3 0 C 59.45251 0 76.6 17.14749 76.6 38.3 C 76.6 59.45251 59.45250999999999 76.6 38.3 76.6 C 17.147489999999998 76.6 0 59.45250999999999 0 38.3 z" stroke-linecap="round" />
</g>
		<g transform="matrix(1 0 0 1 479.36 -562.46)" id="Zc0MvJJyEH110KemQAfQB"  >
<linearGradient id="SVGID_11" gradientUnits="userSpaceOnUse" gradientTransform="matrix(1 0 0 1 -2310.8 -1276)"  x1="2332.4048" y1="1211.9204" x2="2334.884" y2="1324.8568">
<stop offset="0%" style="stop-color:rgb(225,71,61);stop-opacity: 1"/>
<stop offset="100%" style="stop-color:rgb(233,96,90);stop-opacity: 1"/>
</linearGradient>
<path style="stroke: none; stroke-width: 1; stroke-dasharray: none; stroke-linecap: butt; stroke-dashoffset: 0; stroke-linejoin: miter; stroke-miterlimit: 4; fill: url(#SVGID_11); fill-rule: nonzero; opacity: 1;" vector-effect="non-scaling-stroke"  transform=" translate(-23.5, -23.5)" d="M 0 23.5 C 0 10.52131 10.52131 0 23.5 0 C 36.47869 0 47 10.52131 47 23.5 C 47 36.47869 36.47869 47 23.5 47 C 10.52131 47 0 36.47869 0 23.5 z" stroke-linecap="round" />
</g>
		<g transform="matrix(1 0 0 1 479.16 -194.36)" id="9OSC179752vhSOuAoq4iY"  >
<linearGradient id="SVGID_12" gradientUnits="userSpaceOnUse" gradientTransform="matrix(1 0 0 1 -2294.3 -1627.8)"  x1="2359.2903" y1="1551.3737" x2="2243.6238" y2="2084.5227">
<stop offset="0%" style="stop-color:rgb(225,71,61);stop-opacity: 1"/>
<stop offset="100%" style="stop-color:rgb(233,96,90);stop-opacity: 1"/>
</linearGradient>
<path style="stroke: none; stroke-width: 1; stroke-dasharray: none; stroke-linecap: butt; stroke-dashoffset: 0; stroke-linejoin: miter; stroke-miterlimit: 4; fill: url(#SVGID_12); fill-rule: nonzero; opacity: 1;" vector-effect="non-scaling-stroke"  transform=" translate(-39.8, -39.8)" d="M 0 39.8 C 0 17.819069999999996 17.81907 0 39.8 0 C 61.78093 0 79.6 17.81907 79.6 39.8 C 79.6 61.78093 61.78093 79.6 39.8 79.6 C 17.819069999999996 79.6 0 61.78093 0 39.8 z" stroke-linecap="round" />
</g>
		<g transform="matrix(1 0 0 1 481.86 -200.66)" id="ZevpEOYGH7N7Xa3lncy-w"  >
<linearGradient id="SVGID_13" gradientUnits="userSpaceOnUse" gradientTransform="matrix(1 0 0 1 -2312.4 -1636.9)"  x1="2334.7837" y1="1570.2885" x2="2337.3589" y2="1687.6115">
<stop offset="0%" style="stop-color:rgb(225,71,61);stop-opacity: 1"/>
<stop offset="100%" style="stop-color:rgb(233,96,90);stop-opacity: 1"/>
</linearGradient>
<path style="stroke: none; stroke-width: 1; stroke-dasharray: none; stroke-linecap: butt; stroke-dashoffset: 0; stroke-linejoin: miter; stroke-miterlimit: 4; fill: url(#SVGID_13); fill-rule: nonzero; opacity: 1;" vector-effect="non-scaling-stroke"  transform=" translate(-24.4, -24.4)" d="M 0 24.4 C 0 10.924249999999999 10.92425 0 24.4 0 C 37.87575 0 48.8 10.92425 48.8 24.4 C 48.8 37.87575 37.87575 48.8 24.4 48.8 C 10.924249999999999 48.8 0 37.87575 0 24.4 z" stroke-linecap="round" />
</g>
		<g transform="matrix(1 0 0 1 112.11 -1078.91)" id="kswvK-G1IHh0DusRQUrvX"  >
<path style="stroke: none; stroke-width: 1; stroke-dasharray: none; stroke-linecap: butt; stroke-dashoffset: 0; stroke-linejoin: miter; stroke-miterlimit: 4; fill: rgb(255,255,255); fill-rule: nonzero; opacity: 0.56;" vector-effect="non-scaling-stroke"  transform=" translate(-1967.05, -783.05)" d="M 2219 839.2 L 1710 758.9000000000001 C 1707.9 758.6000000000001 1706.5 756.6000000000001 1706.8 754.5000000000001 L 1710.7 730.1000000000001 C 1711 728.0000000000001 1713 726.6000000000001 1715.1000000000001 726.9000000000001 L 2224.1000000000004 807.2 C 2226.2000000000003 807.5 2227.6000000000004 809.5 2227.3 811.6 L 2223.4 836 C 2223.1 838.1 2221.1 839.5 2219 839.2 z" stroke-linecap="round" />
</g>
		<g transform="matrix(1 0 0 1 94.76 -994.31)" id="7Qd0Wf7wPu8VL_-8YkdDE"  >
<path style="stroke: none; stroke-width: 1; stroke-dasharray: none; stroke-linecap: butt; stroke-dashoffset: 0; stroke-linejoin: miter; stroke-miterlimit: 4; fill: rgb(255,255,255); fill-rule: nonzero; opacity: 0.56;" vector-effect="non-scaling-stroke"  transform=" translate(-1949.7, -867.65)" d="M 2199.8 922.7 L 1694.8000000000002 843 C 1692.7000000000003 842.7 1691.3000000000002 840.7 1691.6000000000001 838.6 L 1695.2 815.8000000000001 C 1695.5 813.7 1697.5 812.3000000000001 1699.6000000000001 812.6 L 2204.6000000000004 892.3000000000001 C 2206.7000000000003 892.6 2208.1000000000004 894.6 2207.8 896.7 L 2204.2000000000003 919.5 C 2203.9 921.6 2201.9 923 2199.8 922.7 z" stroke-linecap="round" />
</g>
		<g transform="matrix(1 0 0 1 -502 726.85)" id="GyirniCFNuOG5fPAsXAYs"  >
<linearGradient id="SVGID_14" gradientUnits="userSpaceOnUse" gradientTransform="matrix(-1 0 0 1 1601.96 0)"  x1="437.8372" y1="1927.4977" x2="-284.3116" y2="4707.7661">
<stop offset="0%" style="stop-color:rgb(79,82,255);stop-opacity: 1"/>
<stop offset="100%" style="stop-color:rgb(64,66,226);stop-opacity: 1"/>
</linearGradient>
<path style="stroke: none; stroke-width: 1; stroke-dasharray: none; stroke-linecap: butt; stroke-dashoffset: 0; stroke-linejoin: miter; stroke-miterlimit: 4; fill: url(#SVGID_14); fill-rule: nonzero; opacity: 1;" vector-effect="non-scaling-stroke"  transform=" translate(-1352.94, -2588.81)" d="M 1484.7 1971 C 1169.6 1962.8 821 2047.4 821 2047.4 C 738 2505.3 774.5 3023.3 788.7 3180.2 C 791.3000000000001 3209.6 813.3000000000001 3233.3999999999996 842.3000000000001 3238.7999999999997 C 1005.1000000000001 3268.7 1176.9 3250.6 1263.2 3237.3999999999996 C 1296.8 3232.2999999999997 1323.7 3206.8999999999996 1330.8 3173.7 C 1387.8999999999999 2908 1551 2321.7999999999997 1551 2321.7999999999997 C 1705.2 2304.2 1832.4 2260.8999999999996 1937.5 2203.2 C 1858.7 2110.1 1822.3 1992.1999999999998 1806.6 1922.6 C 1694.8 1956.1 1581.9 1973.5 1484.7 1971 z" stroke-linecap="round" />
</g>
		<g transform="matrix(1 0 0 1 258.36 -20.62)" id="gj6xcHYzHXtMBK8svGGZX"  >
<linearGradient id="SVGID_15" gradientUnits="userSpaceOnUse" gradientTransform="matrix(1 0.01 -0.01 1 -10941.65 -63.47)"  x1="12765.9463" y1="1780.3458" x2="13375.4902" y2="1780.3458">
<stop offset="0%" style="stop-color:rgb(254,187,186);stop-opacity: 1"/>
<stop offset="100%" style="stop-color:rgb(255,146,142);stop-opacity: 1"/>
</linearGradient>
<path style="stroke: none; stroke-width: 1; stroke-dasharray: none; stroke-linecap: butt; stroke-dashoffset: 0; stroke-linejoin: miter; stroke-miterlimit: 4; fill: url(#SVGID_15); fill-rule: nonzero; opacity: 1;" vector-effect="non-scaling-stroke"  transform=" translate(-2113.3, -1841.35)" d="M 2420 1515.7 C 2389.4 1478 2360.7 1479.6000000000001 2360.7 1479.6000000000001 C 2312.5 1675.1000000000001 2057.1 1847.3000000000002 1806.6 1922.5 C 1822.3 1992.1 1858.6999999999998 2110 1937.5 2203.1 C 2354.3 1974 2420 1515.7 2420 1515.7 z" stroke-linecap="round" />
</g>
		<g transform="matrix(1 0 0 1 599.12 -498.85)" id="_8_uFWoFhMSweX1G7FT5n"  >
<linearGradient id="SVGID_16" gradientUnits="userSpaceOnUse" gradientTransform="matrix(-1 -0.01 -0.01 1 -494.92 36.7)"  x1="-2792.9766" y1="1683.0625" x2="-2383.9668" y2="2613.6516">
<stop offset="0%" style="stop-color:rgb(254,187,186);stop-opacity: 1"/>
<stop offset="100%" style="stop-color:rgb(255,146,142);stop-opacity: 1"/>
</linearGradient>
<path style="stroke: none; stroke-width: 1; stroke-dasharray: none; stroke-linecap: butt; stroke-dashoffset: 0; stroke-linejoin: miter; stroke-miterlimit: 4; fill: url(#SVGID_16); fill-rule: nonzero; opacity: 1;" vector-effect="non-scaling-stroke"  transform=" translate(-2454.06, -1363.11)" d="M 2412.4 1525.1 C 2415.5 1535.3999999999999 2377.9 1550.8 2356.2000000000003 1508.3999999999999 C 2355.6000000000004 1488.1999999999998 2344.2000000000003 1401.6 2356.4 1385.3 C 2421.5 1298.3 2547.1 1189.7 2547.1 1189.7 C 2568 1210.7 2550.4 1230.9 2550.4 1230.9 L 2489.4 1293.3000000000002 C 2501.8 1316.3000000000002 2517.1 1335.7000000000003 2524 1363.4 C 2529.3 1384.4 2525.7 1406.7 2515 1425.6000000000001 C 2504.2 1444.6000000000001 2489.5 1469.3000000000002 2475.6 1488.6000000000001 C 2449.4 1525.2 2412.4 1525.1 2412.4 1525.1 z" stroke-linecap="round" />
</g>
		<g transform="matrix(1 0 0 1 577.06 -454.36)" id="_hjUeoXJeSIbRmN6ILouA"  >
<linearGradient id="SVGID_17" gradientUnits="userSpaceOnUse" gradientTransform="matrix(1 0.01 -0.01 1 -10941.65 -63.47)"  x1="13372.5684" y1="1374.0756" x2="13543.2334" y2="1111.6769">
<stop offset="0%" style="stop-color:rgb(254,187,186);stop-opacity: 1"/>
<stop offset="100%" style="stop-color:rgb(255,146,142);stop-opacity: 1"/>
</linearGradient>
<path style="stroke: none; stroke-width: 1; stroke-dasharray: none; stroke-linecap: butt; stroke-dashoffset: 0; stroke-linejoin: miter; stroke-miterlimit: 4; fill: url(#SVGID_17); fill-rule: nonzero; opacity: 1;" vector-effect="non-scaling-stroke"  transform=" translate(-2431.99, -1407.6)" d="M 2462.6 1333.9 L 2407.1 1380.1000000000001 L 2389.4 1426.4 L 2438 1481.3000000000002 C 2438 1481.3000000000002 2455.4 1389.2000000000003 2467.8 1369.4 C 2480.2 1349.6 2473.9 1339.8 2462.6 1333.9 z" stroke-linecap="round" />
</g>
		<g transform="matrix(1 0 0 1 -1148.49 446.09)" id="PmxCbyWKhZAAtLAEhnP18"  >
<linearGradient id="SVGID_18" gradientUnits="userSpaceOnUse" gradientTransform="matrix(-1 0 0 1 1601.96 0)"  x1="987.6614" y1="2070.9871" x2="281.408" y2="4790.0581">
<stop offset="0%" style="stop-color:rgb(79,82,255);stop-opacity: 1"/>
<stop offset="100%" style="stop-color:rgb(64,66,226);stop-opacity: 1"/>
</linearGradient>
<path style="stroke: none; stroke-width: 1; stroke-dasharray: none; stroke-linecap: butt; stroke-dashoffset: 0; stroke-linejoin: miter; stroke-miterlimit: 4; fill: url(#SVGID_18); fill-rule: nonzero; opacity: 1;" vector-effect="non-scaling-stroke"  transform=" translate(-706.45, -2308.05)" d="M 939 2353.7 L 821 2047.3999999999999 C 821 2047.3999999999999 524.7 2244.6 473.9 2497.7 C 529.5 2502.2999999999997 630.5999999999999 2517.7999999999997 729.2 2568.7 C 752.1 2449.3 939 2353.7 939 2353.7 z" stroke-linecap="round" />
</g>
		<g transform="matrix(1 0 0 1 -1003.53 834.18)" id="y6ODr7C57feljrqAuhO4E"  >
<linearGradient id="SVGID_19" gradientUnits="userSpaceOnUse" gradientTransform="matrix(1 0.01 -0.01 1 -10941.65 -63.47)"  x1="11432.1436" y1="2649.4736" x2="12203.502" y2="2649.4736">
<stop offset="0%" style="stop-color:rgb(254,187,186);stop-opacity: 1"/>
<stop offset="100%" style="stop-color:rgb(255,146,142);stop-opacity: 1"/>
</linearGradient>
<path style="stroke: none; stroke-width: 1; stroke-dasharray: none; stroke-linecap: butt; stroke-dashoffset: 0; stroke-linejoin: miter; stroke-miterlimit: 4; fill: url(#SVGID_19); fill-rule: nonzero; opacity: 1;" vector-effect="non-scaling-stroke"  transform=" translate(-851.41, -2696.15)" d="M 1193.5 2643.3 C 1193.5 2643.3 861.2 2826.9 751.2 2666.4 C 728.4000000000001 2633.1 723.1 2600.1 729.1 2568.8 C 630.5 2517.8 529.4000000000001 2502.4 473.8 2497.8 C 458.5 2574.1000000000004 465.40000000000003 2655.5 509.6 2738.1000000000004 C 701.5 3097.3 1236.4 2725.3 1236.4 2725.3 L 1193.5 2643.3 z" stroke-linecap="round" />
</g>
		<g transform="matrix(1 0 0 1 -636.8 14.64)" id="GrM0lTwT9vu2gwmhqEoAa"  >
<linearGradient id="SVGID_20" gradientUnits="userSpaceOnUse" gradientTransform="matrix(1 0.01 -0.01 1 -10941.65 -63.47)"  x1="12024.4668" y1="1824.8593" x2="12329.4492" y2="1824.8593">
<stop offset="0%" style="stop-color:rgb(254,187,186);stop-opacity: 1"/>
<stop offset="100%" style="stop-color:rgb(255,146,142);stop-opacity: 1"/>
</linearGradient>
<path style="stroke: none; stroke-width: 1; stroke-dasharray: none; stroke-linecap: butt; stroke-dashoffset: 0; stroke-linejoin: miter; stroke-miterlimit: 4; fill: url(#SVGID_20); fill-rule: nonzero; opacity: 1;" vector-effect="non-scaling-stroke"  transform=" translate(-1218.14, -1876.61)" d="M 1167.9 1712.1 L 1064.9 2001.1 C 1063.2 2005.8999999999999 1065.1000000000001 2011.1999999999998 1069.5 2013.6999999999998 C 1096.7 2029.1 1194.8 2073.7 1314.2 1999.6 C 1326.6000000000001 1991.8999999999999 1335.2 1979.1999999999998 1337.2 1964.6999999999998 L 1372 1714 L 1167.9 1712.1 z" stroke-linecap="round" />
</g>
		<g transform="matrix(1 0 0 1 -547.78 -239.99)" id="-b10QwuCc9f_hpHrUs0IN"  >
<linearGradient id="SVGID_21" gradientUnits="userSpaceOnUse" gradientTransform="matrix(0.75 -0.66 0.66 0.75 -5808.24 -818.16)"  x1="3807.3994" y1="6661.7871" x2="3693.4321" y2="6285.8955">
<stop offset="0%" style="stop-color:rgb(254,187,186);stop-opacity: 1"/>
<stop offset="100%" style="stop-color:rgb(255,146,142);stop-opacity: 1"/>
</linearGradient>
<path style="stroke: none; stroke-width: 1; stroke-dasharray: none; stroke-linecap: butt; stroke-dashoffset: 0; stroke-linejoin: miter; stroke-miterlimit: 4; fill: url(#SVGID_21); fill-rule: nonzero; opacity: 1;" vector-effect="non-scaling-stroke"  transform=" translate(-1307.16, -1621.98)" d="M 1388.7 1445.6 C 1388.7 1445.6 1496.8 1653.8999999999999 1481.9 1737.5 C 1467 1821.1 1330.6000000000001 1813.8 1212.1000000000001 1744.6 L 1131.0000000000002 1520 L 1388.7 1445.6 z" stroke-linecap="round" />
</g>
		<g transform="matrix(1 0 0 1 -642.82 -337.25)" id="NG9saoTIyedUCH1OG_J00"  >
<linearGradient id="SVGID_22" gradientUnits="userSpaceOnUse" gradientTransform="matrix(0.75 -0.66 0.66 0.75 -5808.24 -818.16)"  x1="3704.5862" y1="6006.8511" x2="3799.918" y2="6550.5957">
<stop offset="0%" style="stop-color:rgb(9,0,93);stop-opacity: 1"/>
<stop offset="100%" style="stop-color:rgb(26,15,145);stop-opacity: 1"/>
</linearGradient>
<path style="stroke: none; stroke-width: 1; stroke-dasharray: none; stroke-linecap: butt; stroke-dashoffset: 0; stroke-linejoin: miter; stroke-miterlimit: 4; fill: url(#SVGID_22); fill-rule: nonzero; opacity: 1;" vector-effect="non-scaling-stroke"  transform=" translate(-1212.12, -1524.71)" d="M 1218.4 1634.8 C 1223.3000000000002 1632.7 1225.1000000000001 1626.8 1222.2 1622.3 C 1213.5 1608.7 1197.2 1581.1 1192.2 1557 C 1192.2 1557 1172.5 1544.1 1242.9 1528 C 1313.2 1511.9 1418.1000000000001 1486.8 1440.7 1427.3 C 1462.7 1369.3 1407.7 1222.3 1316.7 1338.1 C 1313.2 1342.5 1306.5 1342.5 1303.2 1338.1 C 1288.6000000000001 1318.8 1250.3 1278.6 1196.3 1302.1999999999998 C 1145.7 1324.2999999999997 1139.7 1361.1 1140.2 1379.6999999999998 C 1140.4 1385.1999999999998 1135.4 1389.3999999999999 1130.1000000000001 1388.2999999999997 C 1104.7 1383.1999999999998 1043.7 1378.4999999999998 1014.5000000000001 1440.7999999999997 C 990.5000000000001 1492.1999999999998 1005.5000000000001 1521.4999999999998 1019.3000000000001 1535.9999999999998 C 1023.8000000000001 1540.6999999999998 1021.7 1548.2999999999997 1015.5000000000001 1550.0999999999997 C 998.7000000000002 1555.0999999999997 977.0000000000001 1568.9999999999998 978.8000000000001 1608.2999999999997 C 981.3000000000001 1662.4999999999998 1041.9 1658.2999999999997 1059.2 1655.9999999999998 C 1062 1655.5999999999997 1064.9 1656.5999999999997 1066.8 1658.7999999999997 C 1081.3999999999999 1675.2999999999997 1147.3999999999999 1745.3999999999996 1219.3999999999999 1754.4999999999998 C 1225.6 1755.2999999999997 1230.4999999999998 1749.1999999999998 1228.4999999999998 1743.1999999999998 L 1198.1999999999998 1652.1999999999998 C 1196.7999999999997 1647.9999999999998 1198.8999999999999 1643.3999999999999 1202.8999999999999 1641.6 L 1218.4 1634.8 z" stroke-linecap="round" />
</g>
		<g transform="matrix(1 0 0 1 -654.47 -204.74)" id="D4sAyMJiDSHsPzyOQXd8o"  >
<linearGradient id="SVGID_23" gradientUnits="userSpaceOnUse" gradientTransform="matrix(0.75 -0.66 0.66 0.75 -5808.24 -818.16)"  x1="3690.8992" y1="6660.0322" x2="3588.3606" y2="6321.8359">
<stop offset="0%" style="stop-color:rgb(254,187,186);stop-opacity: 1"/>
<stop offset="100%" style="stop-color:rgb(255,146,142);stop-opacity: 1"/>
</linearGradient>
<path style="stroke: none; stroke-width: 1; stroke-dasharray: none; stroke-linecap: butt; stroke-dashoffset: 0; stroke-linejoin: miter; stroke-miterlimit: 4; fill: url(#SVGID_23); fill-rule: nonzero; opacity: 1;" vector-effect="non-scaling-stroke"  transform=" translate(-1200.47, -1657.23)" d="M 1230.8 1647.8 C 1230.8 1647.8 1152.8999999999999 1593.3 1146.7 1638.5 C 1140.5 1683.7 1216.7 1704.8 1254.6000000000001 1688.3 L 1230.8 1647.8 z" stroke-linecap="round" />
</g>
		<g transform="matrix(1 0 0 1 -315.44 743)" id="iPCG7Jkqikh507d14TzVK"  >
<linearGradient id="SVGID_24" gradientUnits="userSpaceOnUse" gradientTransform="matrix(1 0 0 1 -10673.36 0)"  x1="12116.8789" y1="2204.4812" x2="12542.5127" y2="3977.9617">
<stop offset="0%" style="stop-color:rgb(9,0,93);stop-opacity: 1"/>
<stop offset="100%" style="stop-color:rgb(26,15,145);stop-opacity: 1"/>
</linearGradient>
<path style="stroke: none; stroke-width: 1; stroke-dasharray: none; stroke-linecap: butt; stroke-dashoffset: 0; stroke-linejoin: miter; stroke-miterlimit: 4; fill: url(#SVGID_24); fill-rule: nonzero; opacity: 1;" vector-effect="non-scaling-stroke"  transform=" translate(-1539.5, -2604.96)" d="M 1125.6 2933.6 L 1306.6 2301.5 C 1308.6999999999998 2294.3 1314.8 2289.1 1322.1999999999998 2288.2 C 1354.9999999999998 2284.3999999999996 1449.9999999999998 2273.6 1559.6999999999998 2264.2999999999997 C 1691.8999999999999 2253.1 1845.2999999999997 2244.1 1937.1 2251.7999999999997 C 1950.1 2252.8999999999996 1958 2266.7 1952.1999999999998 2278.3999999999996 C 1899.9999999999998 2383.8999999999996 1685.4999999999998 2813.0999999999995 1578.1 2953.7 C 1574.5 2958.3999999999996 1569 2961.1 1563.1999999999998 2961 L 1143.1999999999998 2957.1 C 1131 2957 1122.2 2945.3 1125.6 2933.6 z" stroke-linecap="round" />
</g>
		<g transform="matrix(1 0 0 1 -582.45 811.64)" id="_Oqqm_SQgWhBwVZuLseaN"  >
<linearGradient id="SVGID_25" gradientUnits="userSpaceOnUse" gradientTransform="matrix(1 0 0 1 -10673.36 0)"  x1="11825.2217" y1="2673.6609" x2="12066.377" y2="2673.6609">
<stop offset="0%" style="stop-color:rgb(254,187,186);stop-opacity: 1"/>
<stop offset="100%" style="stop-color:rgb(255,146,142);stop-opacity: 1"/>
</linearGradient>
<path style="stroke: none; stroke-width: 1; stroke-dasharray: none; stroke-linecap: butt; stroke-dashoffset: 0; stroke-linejoin: miter; stroke-miterlimit: 4; fill: url(#SVGID_25); fill-rule: nonzero; opacity: 1;" vector-effect="non-scaling-stroke"  transform=" translate(-1272.48, -2673.6)" d="M 1169.3 2780.8 C 1169.3 2780.8 1144.1 2677.1000000000004 1154.3 2640.3 C 1164.5 2603.5 1184.2 2556.2000000000003 1249.8999999999999 2566.7000000000003 C 1315.6 2577.2000000000003 1393.1 2604.9 1393.1 2604.9 C 1393.1 2604.9 1389.1999999999998 2652.8 1339.3 2637.4 L 1370.3 2661.4 C 1370.3 2661.4 1365.8999999999999 2699.8 1323.7 2679.3 L 1352.5 2711.1000000000004 C 1352.5 2711.1000000000004 1334.4 2742.6000000000004 1303.4 2722.4000000000005 C 1272.2 2702.1 1257.3 2793.3 1169.3 2780.8 z" stroke-linecap="round" />
</g>
		<g transform="matrix(1 0 0 1 -254.14 591.04)" id="fNGsm93lkL2Bxw2KDmcg5"  >
<path style="stroke: none; stroke-width: 1; stroke-dasharray: none; stroke-linecap: butt; stroke-dashoffset: 0; stroke-linejoin: miter; stroke-miterlimit: 4; fill: rgb(145,179,250); fill-rule: nonzero; opacity: 1;" vector-effect="non-scaling-stroke"  transform=" translate(-1600.8, -2453)" d="M 1547.7 2453 C 1547.7 2482.3 1571.5 2506.1 1600.8 2506.1 C 1630.1 2506.1 1653.8999999999999 2482.2999999999997 1653.8999999999999 2453 C 1653.8999999999999 2423.7 1630.1 2399.9 1600.8 2399.9 C 1571.5 2399.9 1547.7 2423.7 1547.7 2453 z" stroke-linecap="round" />
</g>
		<g transform="matrix(1 0 0 1 -282.59 526.79)" id="13h1lbYI2GZrz664t96j9"  >
<path style="stroke: none; stroke-width: 1; stroke-dasharray: none; stroke-linecap: butt; stroke-dashoffset: 0; stroke-linejoin: miter; stroke-miterlimit: 4; fill: rgb(189,208,251); fill-rule: nonzero; opacity: 1;" vector-effect="non-scaling-stroke"  transform=" translate(-1572.35, -2388.75)" d="M 1327.1 2488 L 1364 2363 C 1368.5 2347.6 1380.9 2336.1 1396.2 2332.9 C 1511.7 2308.8 1827.9 2303.7000000000003 1831.1 2303.6 L 1830.8999999999999 2289.5 C 1817.8999999999999 2289.7 1510.1999999999998 2294.7 1393.3999999999999 2319.1 C 1372.9999999999998 2323.4 1356.4999999999998 2338.7 1350.4999999999998 2359 L 1313.5999999999997 2484 L 1327.1 2488 z" stroke-linecap="round" />
</g>
		<g transform="matrix(1 0 0 1 794.03 749.17)" id="AclbyKHgXDY50OqfmlGwE"  >
<path style="stroke: none; stroke-width: 1; stroke-dasharray: none; stroke-linecap: butt; stroke-dashoffset: 0; stroke-linejoin: miter; stroke-miterlimit: 4; fill: rgb(145,179,250); fill-rule: nonzero; opacity: 1;" vector-effect="non-scaling-stroke"  transform=" translate(-2648.97, -2611.13)" d="M 2389.6 3237.3 C 2385.9 3236.7000000000003 2382.6 3234.6000000000004 2380.4 3231.5 C 2349 3186.2 2121.5 2832.6 2449.1 2526.4 C 2760.1 2235.8 2898.7 2178.5 2922.5 2002.6000000000001 C 2925.3 1982.1000000000001 2953.3 1978.0000000000002 2961.9 1996.9 C 3026 2137.9 3122.3 2465.2000000000003 2762.4 2666.6000000000004 C 2365.4 2888.7000000000003 2389.1 3146.8 2405.6 3220.5000000000005 C 2407.7 3230.2 2399.4 3239 2389.6 3237.3 L 2389.6 3237.3 z" stroke-linecap="round" />
</g>
		<g transform="matrix(1 0 0 1 877.13 1196.4)" id="kS0mICnnE_PwNByi32mbf"  >
<path style="stroke: none; stroke-width: 1; stroke-dasharray: none; stroke-linecap: butt; stroke-dashoffset: 0; stroke-linejoin: miter; stroke-miterlimit: 4; fill: rgb(145,179,250); fill-rule: nonzero; opacity: 1;" vector-effect="non-scaling-stroke"  transform=" translate(-2732.06, -3058.36)" d="M 2437.7 3245.5 C 2428.8999999999996 3244 2422.1 3237 2421 3228.1 C 2413.6 3167.6 2398 2942 2565.5 2887.7 C 2750 2827.8999999999996 2891.8 3002.3999999999996 3030.1 2873.7999999999997 C 3037.4 2866.9999999999995 3049 2873.4999999999995 3047 2883.2 C 3032.8 2952.2999999999997 2974.6 3111.3999999999996 2737.1 3136.2 C 2482.9 3162.7 2453.5 3190.8999999999996 2457.5 3227 C 2458.7 3238.2 2448.7 3247.3 2437.7 3245.5 L 2437.7 3245.5 z" stroke-linecap="round" />
</g>
		<g transform="matrix(1 0 0 1 757.21 816.24)" id="iWOs9JacsX8bt7DlwxLke"  >
<path style="stroke: none; stroke-width: 1; stroke-dasharray: none; stroke-linecap: butt; stroke-dashoffset: 0; stroke-linejoin: miter; stroke-miterlimit: 4; fill: rgb(255,255,255); fill-rule: nonzero; opacity: 0.47;" vector-effect="non-scaling-stroke"  transform=" translate(-2612.15, -2678.21)" d="M 2906 2181.6 C 2902.2 2194.2 2897.4 2206.2 2891.8 2218 C 2886.3 2229.8 2880.2000000000003 2241.2 2873.7000000000003 2252.5 C 2867.2000000000003 2263.7 2860.2000000000003 2274.7 2852.6000000000004 2285.3 C 2845.1000000000004 2295.9 2837.3 2306.3 2828.9000000000005 2316.3 C 2795.7000000000007 2356.4 2756.4000000000005 2391.3 2713.5000000000005 2420.7000000000003 C 2692.1000000000004 2435.4 2669.4000000000005 2448.6000000000004 2646.8000000000006 2460.8 C 2624.5000000000005 2472.8 2602.9000000000005 2486.4 2582.2000000000007 2501.1000000000004 C 2540.9000000000005 2530.6000000000004 2502.9000000000005 2565.0000000000005 2469.500000000001 2603.4000000000005 C 2436.100000000001 2641.7000000000007 2407.500000000001 2684.2000000000007 2384.800000000001 2729.6000000000004 C 2362.000000000001 2775.0000000000005 2345.6000000000013 2823.6000000000004 2336.700000000001 2873.7000000000003 C 2327.800000000001 2923.8 2326.5000000000014 2975.1000000000004 2332.300000000001 3025.8 C 2338.000000000001 3076.5 2351.200000000001 3126.3 2369.300000000001 3174.2000000000003 C 2369.800000000001 3175.6000000000004 2369.1000000000013 3177.1000000000004 2367.800000000001 3177.6000000000004 C 2366.500000000001 3178.1000000000004 2365.000000000001 3177.5000000000005 2364.400000000001 3176.1000000000004 C 2344.600000000001 3128.5000000000005 2330.200000000001 3078.3 2323.200000000001 3026.9000000000005 C 2319.6000000000013 3001.2000000000007 2318.0000000000014 2975.2000000000007 2318.200000000001 2949.3000000000006 C 2318.6000000000013 2923.3000000000006 2320.700000000001 2897.4000000000005 2325.0000000000014 2871.7000000000007 C 2333.4000000000015 2820.4000000000005 2349.5000000000014 2770.3000000000006 2372.3000000000015 2723.500000000001 C 2395.0000000000014 2676.600000000001 2424.4000000000015 2633.2000000000007 2458.3000000000015 2593.800000000001 C 2492.3000000000015 2554.400000000001 2530.9000000000015 2519.1000000000013 2573.1000000000017 2488.700000000001 C 2594.2000000000016 2473.5000000000014 2616.2000000000016 2459.5000000000014 2639.1000000000017 2447.1000000000013 L 2656.000000000002 2437.9000000000015 C 2661.6000000000017 2434.9000000000015 2667.1000000000017 2431.7000000000016 2672.500000000002 2428.5000000000014 L 2680.7000000000016 2423.700000000001 L 2688.8000000000015 2418.6000000000013 L 2696.9000000000015 2413.5000000000014 L 2704.8000000000015 2408.200000000001 C 2725.8000000000015 2394.0000000000014 2746.2000000000016 2378.700000000001 2765.3000000000015 2362.0000000000014 C 2784.5000000000014 2345.3000000000015 2802.7000000000016 2327.6000000000013 2819.4000000000015 2308.4000000000015 C 2836.3000000000015 2289.4000000000015 2851.7000000000016 2269.1000000000013 2865.7000000000016 2247.8000000000015 C 2879.500000000002 2226.5000000000014 2892.000000000002 2203.9000000000015 2901.2000000000016 2180.4000000000015 L 2901.3000000000015 2180.2000000000016 C 2901.8000000000015 2179.000000000002 2903.2000000000016 2178.3000000000015 2904.4000000000015 2178.8000000000015 C 2905.8 2179.1 2906.4 2180.4 2906 2181.6 z" stroke-linecap="round" />
</g>
		<g transform="matrix(1 0 0 1 863.27 1199)" id="xOp8NoM1bmLGbzB4dssWl"  >
<path style="stroke: none; stroke-width: 1; stroke-dasharray: none; stroke-linecap: butt; stroke-dashoffset: 0; stroke-linejoin: miter; stroke-miterlimit: 4; fill: rgb(255,255,255); fill-rule: nonzero; opacity: 0.47;" vector-effect="non-scaling-stroke"  transform=" translate(-2718.21, -3060.97)" d="M 2430.1 3204.3 C 2430.5 3202.2000000000003 2430.4 3200.1000000000004 2430.4 3198.1000000000004 L 2430.4 3191.9000000000005 C 2430.4 3187.8000000000006 2430.6 3183.7000000000007 2430.7000000000003 3179.5000000000005 C 2431.0000000000005 3171.3000000000006 2431.5000000000005 3163.0000000000005 2432.1000000000004 3154.8000000000006 C 2433.4000000000005 3138.4000000000005 2435.4000000000005 3122.0000000000005 2438.2000000000003 3105.7000000000007 C 2443.9 3073.2000000000007 2452.4 3041.000000000001 2466.7000000000003 3010.9000000000005 C 2473.8 2995.9000000000005 2482.5000000000005 2981.6000000000004 2493.0000000000005 2968.6000000000004 C 2503.5000000000005 2955.6000000000004 2516.1000000000004 2944.2000000000003 2530.4000000000005 2935.4000000000005 C 2544.7000000000007 2926.7000000000007 2560.8000000000006 2920.7000000000007 2577.3000000000006 2917.9000000000005 C 2585.600000000001 2916.5000000000005 2593.9000000000005 2915.7000000000007 2602.3000000000006 2915.6000000000004 C 2610.7000000000007 2915.4000000000005 2619.0000000000005 2916.0000000000005 2627.3000000000006 2917.0000000000005 C 2635.600000000001 2918.0000000000005 2643.7000000000007 2919.5000000000005 2651.8000000000006 2920.8000000000006 L 2676.100000000001 2925.100000000001 C 2692.3000000000006 2928.000000000001 2708.500000000001 2931.2000000000007 2724.600000000001 2934.400000000001 C 2756.900000000001 2940.800000000001 2789.000000000001 2947.800000000001 2821.3000000000006 2953.800000000001 C 2837.4000000000005 2956.700000000001 2853.600000000001 2959.400000000001 2869.9000000000005 2961.000000000001 C 2886.1000000000004 2962.600000000001 2902.5000000000005 2963.2000000000007 2918.6000000000004 2961.300000000001 C 2934.7000000000003 2959.6000000000013 2950.4000000000005 2955.000000000001 2964.6000000000004 2947.300000000001 C 2978.8 2939.700000000001 2991.4000000000005 2929.1000000000013 3002.6000000000004 2917.300000000001 C 3003.4000000000005 2916.400000000001 3004.8 2916.400000000001 3005.7000000000003 2917.200000000001 C 3006.6000000000004 2918.0000000000014 3006.6000000000004 2919.400000000001 3005.8 2920.200000000001 C 2994.5 2932.400000000001 2981.7000000000003 2943.400000000001 2967 2951.5000000000014 C 2952.3 2959.700000000001 2935.9 2964.6000000000013 2919.3 2966.6000000000013 C 2902.7000000000003 2968.6000000000013 2885.9 2968.0000000000014 2869.5 2966.4000000000015 C 2853 2964.8000000000015 2836.7 2962.2000000000016 2820.5 2959.3000000000015 C 2788.1 2953.4000000000015 2755.9 2946.5000000000014 2723.6 2940.2000000000016 C 2691.4 2933.9000000000015 2658.9 2927.8000000000015 2626.7 2923.000000000002 C 2618.7 2922.000000000002 2610.6 2921.400000000002 2602.5 2921.500000000002 C 2594.4 2921.500000000002 2586.4 2922.2000000000016 2578.4 2923.500000000002 C 2562.5 2926.1000000000017 2547.1 2931.7000000000016 2533.3 2940.000000000002 C 2519.5 2948.400000000002 2507.3 2959.2000000000016 2497.1000000000004 2971.800000000002 C 2486.8 2984.300000000002 2478.3 2998.300000000002 2471.2000000000003 3012.900000000002 C 2456.9 3042.300000000002 2448.1000000000004 3074.1000000000017 2442.2000000000003 3106.300000000002 C 2439.3 3122.400000000002 2437.1000000000004 3138.700000000002 2435.6000000000004 3155.000000000002 C 2434.9000000000005 3163.2000000000016 2434.3 3171.400000000002 2433.9000000000005 3179.500000000002 C 2433.7000000000007 3183.6000000000017 2433.6000000000004 3187.7000000000016 2433.5000000000005 3191.800000000002 L 2433.4000000000005 3197.900000000002 C 2433.4000000000005 3199.900000000002 2433.3000000000006 3202.000000000002 2433.8000000000006 3204.000000000002 C 2434.100000000001 3205.000000000002 2433.4000000000005 3206.000000000002 2432.4000000000005 3206.300000000002 C 2431.4000000000005 3206.600000000002 2430.4000000000005 3205.900000000002 2430.1000000000004 3204.900000000002 C 2430 3204.8 2430 3204.5 2430.1 3204.3 z" stroke-linecap="round" />
</g>
</g>
</g>
</svg>