<?xml version="1.0" encoding="utf-8"?>
<!-- Generator: Adobe Illustrator 28.1.0, SVG Export Plug-In . SVG Version: 6.00 Build 0)  -->
<svg version="1.1" xmlns="http://www.w3.org/2000/svg" xmlns:xlink="http://www.w3.org/1999/xlink" x="0px" y="0px"
	 viewBox="0 0 3710 3710" style="enable-background:new 0 0 3710 3710;" xml:space="preserve">
<style type="text/css">
	.st0{fill:#F4F7FA;}
	.st1{fill:#D8DEE8;}
	.st2{fill:#FFFFFF;}
	.st3{clip-path:url(#SVGID_00000037683849863213261210000001840223520019176112_);}
	.st4{fill:#FCFDFE;}
	.st5{clip-path:url(#SVGID_00000101073989837600153310000015191579764584802688_);}
	.st6{fill:url(#SVGID_00000181782991098042276600000011537711842211432859_);}
	.st7{opacity:0.3;fill:url(#SVGID_00000041267042785559284420000002287755989672263357_);}
	.st8{fill:url(#SVGID_00000056394777523010504310000013710428021524753822_);}
	.st9{opacity:0.3;}
	.st10{fill:url(#SVGID_00000003084812657497431050000016134924949194291099_);}
	.st11{fill:url(#SVGID_00000001656854870396951870000011437828061009411733_);}
	.st12{fill:url(#SVGID_00000144303967086937990740000002370601047700957630_);}
	.st13{fill:url(#SVGID_00000042698510787256867510000011836681940125359748_);}
	.st14{fill:url(#SVGID_00000160166086551359397110000002023470499852631963_);}
	.st15{opacity:0.3;fill:url(#SVGID_00000036951216377922685710000008590244058789322921_);}
	.st16{fill:url(#SVGID_00000158007697768003128980000018263108653593875622_);}
	.st17{fill:url(#SVGID_00000018956376257582028730000011043872743919540881_);}
	.st18{fill:url(#SVGID_00000173880714625137571430000004827670258322907297_);}
</style>
<g id="Background">
</g>
<g id="Illustration">
	<g>
		<path class="st0" d="M770.26,2872.79c74.36,76.18,140.9,120.97,191.85,154.77c496.85,329.72,1064.8,234.69,1240.4,202.21
			c283.3-52.41,522.45-89.38,727.92-273.88c466.89-419.24,444.18-1293.8,87.42-1835.56c-42.3-64.24-398.52-589.04-967.7-662.99
			c-13.92-1.81-24.31-2.84-33.41-3.8c-88.05-9.27-633.69-58.17-1078.6,312.3c-63.69,53.03-166.18,148.68-261.22,294.57
			C329.4,1593.85,328.3,2420.02,770.26,2872.79z"/>
		<g>
			<path class="st1" d="M737.89,2574.49c-45.83,23.26-103.39,1.88-128.57-47.74c-25.18-49.62-8.45-108.7,37.38-131.95
				c2.37-1.21,4.8-2.22,7.23-3.19c-8.51-27.45-14.92-55.12-19.22-82.8c-2.63-0.01-5.26-0.05-7.94-0.29
				c-52.28-4.67-93.76-52.72-92.65-107.32c1.11-54.6,44.38-95.08,96.66-90.41c2.73,0.25,5.42,0.68,8.09,1.15
				c5.46-27.06,12.95-53.49,22.4-79.07c-2.4-1.41-4.8-2.86-7.13-4.5c-44.72-31.34-59.01-93.19-31.91-138.14
				c27.09-44.95,85.31-55.98,130.03-24.64c2.29,1.61,4.45,3.34,6.58,5.1c17.67-19.53,37.05-37.62,58.01-54.13
				c-1.47-2.42-2.92-4.86-4.22-7.44c-25.18-49.62-58.09-103.82-11.91-126.36c106.84-52.13,152.67-7.48,177.85,42.14
				c1.3,2.57,2.43,5.18,3.51,7.8c25.71-7.17,51.75-12.13,77.94-14.86c-0.16-2.76-0.29-5.52-0.23-8.32
				c1.11-54.6-15.09-84.15,37.39-85.16c114.43-2.2,153.03,47.47,151.92,102.07c-0.06,2.86-0.3,5.64-0.58,8.42
				c26.22,7.48,51.97,17.04,77.04,28.6c1.19-2.44,2.43-4.86,3.84-7.21c27.1-44.95,85.31-55.98,130.03-24.63
				c44.72,31.34,59.01,93.19,31.91,138.14c-1.39,2.3-2.91,4.46-4.45,6.58c19.8,19.81,38.35,41.33,55.48,64.4
				c2.22-1.39,4.47-2.75,6.84-3.95c45.83-23.26,103.39-1.88,128.57,47.74c25.18,49.62,8.45,108.7-37.38,131.95
				c-2.37,1.21-4.8,2.22-7.23,3.19c8.51,27.46,14.92,55.12,19.22,82.8c2.63,0.01,5.26,0.05,7.94,0.29
				c52.28,4.67,93.76,52.72,92.66,107.32c-1.1,54.6-44.38,95.07-96.66,90.4c-2.73-0.24-5.42-0.67-8.08-1.15
				c-5.47,27.06-12.95,53.49-22.4,79.07c2.4,1.41,4.8,2.86,7.13,4.5c44.72,31.34,59.01,93.19,31.91,138.14
				c-27.1,44.95-116.77,65.82-161.49,34.48c-2.29-1.61,27.01-13.18,24.88-14.94c-17.67,19.53-37.05,37.62-58.01,54.13
				c1.47,2.42,2.92,4.86,4.22,7.44c25.18,49.62,8.45,108.7-37.38,131.95c-45.82,23.26-103.39,1.88-128.57-47.73
				c-1.3-2.57-2.43-5.18-3.51-7.8c-25.71,7.17-51.75,12.13-77.94,14.86c0.16,2.76,0.29,5.52,0.23,8.32
				c-1.1,54.6-44.38,95.07-96.66,90.41c-52.28-4.67-93.76-52.72-92.65-107.32c0.06-2.85,0.3-5.64,0.58-8.41
				c-26.22-7.48-51.98-17.04-77.04-28.6c-1.19,2.43-2.43,4.86-3.84,7.2c-27.1,44.95-85.31,55.98-130.03,24.64
				c-44.72-31.35-59.01-93.19-31.91-138.14c1.39-2.3,2.91-4.45,4.45-6.58c-19.8-19.81-38.35-41.32-55.48-64.4
				C742.51,2571.93,740.26,2573.29,737.89,2574.49z M1309.09,2581.84c166.38-84.44,227.14-298.93,135.71-479.09
				C1353.38,1922.6,1144.38,1845,978,1929.44c-166.38,84.44-227.14,298.93-135.72,479.09
				C933.71,2588.68,1142.71,2666.28,1309.09,2581.84z"/>
			<path class="st1" d="M626.77,2308.52c-52.28-4.67-93.76-52.72-92.65-107.32c1.11-54.6,44.38-95.08,96.66-90.41
				c2.73,0.24,5.42,0.68,8.09,1.15c5.46-27.06,12.95-53.49,22.4-79.07c-2.4-1.41-4.8-2.86-7.13-4.5
				c-44.72-31.34-100.04-107.07-68.48-149c59.9-79.59,121.88-45.12,166.6-13.78c2.29,1.61,4.45,3.34,6.58,5.1
				c17.67-19.53,37.05-37.62,58.01-54.13c-1.47-2.42-2.92-4.86-4.22-7.43c-13.71-27.01-14.91-56.78-5.85-82.08
				c43.19,76.04,85.79,152.4,127.63,229.18c-132.74,97.23-175.03,288.88-92.1,452.29c70.27,138.48,210.01,216.25,346.46,206.53
				c6.08,15.79,12.06,31.66,18.57,47.29c17.68,42.43,37.77,83.98,57.88,125.48c-12.65,2.38-25.36,4.26-38.11,5.59
				c0.16,2.76,0.29,5.52,0.23,8.32c-1.1,54.6-34.26,100.98-129.01,95.94c-52.41-2.79-61.41-58.25-60.3-112.85
				c0.06-2.85,0.3-5.64,0.58-8.41c-26.22-7.48-51.97-17.04-77.04-28.6c-1.19,2.44-2.43,4.85-3.84,7.2
				c-27.1,44.95-121.06,64.04-165.79,32.69c-44.72-31.34-23.26-101.24,3.84-146.19c1.39-2.3,2.91-4.46,4.45-6.58
				c-19.8-19.81-38.35-41.33-55.48-64.4c-2.22,1.39-4.47,2.75-6.84,3.95c-45.83,23.26-103.39,1.88-128.57-47.74
				c-25.18-49.62-8.45-108.7,37.38-131.95c2.37-1.21,4.8-2.22,7.23-3.19c-8.51-27.45-14.92-55.13-19.22-82.8
				C632.08,2308.8,629.44,2308.76,626.77,2308.52z"/>
			<path class="st2" d="M688.61,2580.08c-45.82,23.26-103.39,1.88-128.57-47.74c-25.18-49.62-8.45-108.7,37.38-131.95
				c2.37-1.2,4.8-2.22,7.23-3.19c-8.51-27.46-14.92-55.12-19.22-82.8c-2.63-0.01-5.26-0.05-7.94-0.29
				c-52.28-4.67-93.76-52.72-92.65-107.31c1.1-54.6,44.38-95.08,96.65-90.41c2.73,0.25,5.42,0.68,8.08,1.15
				c5.47-27.06,12.95-53.49,22.4-79.07c-2.4-1.41-4.8-2.86-7.13-4.5c-44.72-31.34-59.01-93.19-31.91-138.14
				c27.1-44.95,85.31-55.98,130.03-24.64c2.29,1.61,4.45,3.34,6.58,5.1c17.67-19.52,37.05-37.62,58.01-54.13
				c-1.47-2.42-2.92-4.87-4.22-7.44c-25.18-49.62-8.45-108.7,37.38-131.95c45.83-23.26,103.39-1.88,128.57,47.73
				c1.3,2.57,2.43,5.18,3.51,7.8c25.71-7.17,51.75-12.13,77.94-14.86c-0.16-2.76-0.29-5.52-0.23-8.32
				c1.11-54.6,44.38-95.08,96.66-90.4c52.28,4.67,93.76,52.72,92.65,107.31c-0.06,2.85-0.3,5.64-0.58,8.41
				c26.22,7.48,51.97,17.04,77.04,28.61c1.19-2.44,2.43-4.86,3.84-7.21c27.09-44.95,85.31-55.98,130.03-24.63
				c44.72,31.35,59.01,93.19,31.91,138.14c-1.39,2.3-2.91,4.46-4.45,6.58c19.8,19.81,38.35,41.32,55.48,64.4
				c2.22-1.39,4.47-2.75,6.84-3.95c45.83-23.26,103.39-1.88,128.57,47.73c25.18,49.62,8.45,108.7-37.38,131.95
				c-2.38,1.21-4.8,2.22-7.23,3.19c8.51,27.46,14.92,55.12,19.22,82.81c2.63,0.01,5.26,0.05,7.94,0.29
				c52.28,4.67,93.76,52.72,92.65,107.32c-1.1,54.6-44.38,95.07-96.66,90.41c-2.73-0.24-5.42-0.67-8.08-1.15
				c-5.47,27.06-12.95,53.49-22.4,79.07c2.4,1.41,4.8,2.86,7.13,4.5c44.72,31.34,59.01,93.19,31.91,138.14
				c-27.1,44.95-85.31,55.98-130.03,24.64c-2.29-1.61-4.45-3.34-6.58-5.1c-17.67,19.53-37.05,37.62-58.01,54.13
				c1.47,2.42,2.92,4.86,4.22,7.44c25.18,49.62,8.45,108.69-37.38,131.95c-45.83,23.25-103.39,1.88-128.57-47.74
				c-1.31-2.57-2.43-5.18-3.51-7.8c-25.71,7.17-51.75,12.13-77.94,14.86c0.16,2.76,0.29,5.52,0.23,8.32
				c-1.11,54.6-44.38,95.08-96.66,90.41c-52.28-4.67-93.76-52.72-92.65-107.32c0.06-2.85,0.3-5.64,0.58-8.41
				c-26.22-7.48-51.97-17.04-77.04-28.6c-1.19,2.43-2.43,4.85-3.85,7.2c-27.09,44.95-85.31,55.98-130.03,24.64
				c-44.72-31.34-59.01-93.19-31.91-138.14c1.39-2.3,2.91-4.46,4.45-6.58c-19.8-19.81-38.35-41.32-55.48-64.4
				C693.23,2577.52,690.98,2578.88,688.61,2580.08z M1259.81,2587.44c166.38-84.44,227.14-298.93,135.71-479.09
				c-91.43-180.16-300.42-257.75-466.8-173.32c-166.38,84.44-227.14,298.93-135.72,479.09
				C884.43,2594.28,1093.42,2671.87,1259.81,2587.44z"/>
		</g>
		<g>
			<g>
				<g>
					<g>
						<defs>
							<path id="SVGID_1_" d="M2253.53,3025.02c2.77,40.65,13.73,99.55,23.92,166.56l-633.27-217.67
								c158.2-145.59,348.05-286.3,369.46-669.33c10.05-179.75-30.9-525.89,128.52-660.73c181.62-153.63,298.88,13.31,417.39-116.99
								c185.23-203.66,471.01-264.66,626.79-36.03c153.75,225.64-71.22,645.64-590.63,964.59
								C2249,2726.44,2239.08,2812.74,2253.53,3025.02z"/>
						</defs>
						
							<linearGradient id="SVGID_00000183935064004320573310000008663900677743789747_" gradientUnits="userSpaceOnUse" x1="-727.6506" y1="3530.7715" x2="-2592.4062" y2="306.3022" gradientTransform="matrix(-1 0 0 1 900.7756 0)">
							<stop  offset="0" style="stop-color:#AA80F9"/>
							<stop  offset="0.9964" style="stop-color:#6165D7"/>
						</linearGradient>
						
							<use xlink:href="#SVGID_1_"  style="overflow:visible;fill:url(#SVGID_00000183935064004320573310000008663900677743789747_);"/>
						<clipPath id="SVGID_00000021808128166952728050000014111732591356467381_">
							<use xlink:href="#SVGID_1_"  style="overflow:visible;"/>
						</clipPath>
						<g style="clip-path:url(#SVGID_00000021808128166952728050000014111732591356467381_);">
							<g>
								<path class="st4" d="M1962.67,3042.36c35.54-79.59,73.09-152.86,112.85-230.44l13.25-25.87
									c21.45-36.17,41.61-72.42,61.11-107.48c44.03-79.16,85.62-153.93,140.76-227.66c2.69-4.58,5.07-9.15,7.58-13.99
									c8.99-17.28,18.3-35.14,37.16-47.1l0.6-0.59c260.04-406.2,608.22-765.56,1034.88-1068.1l-2.25-3.17
									c-426.93,302.73-775.39,662.34-1035.67,1068.81c-19.5,12.52-29.41,31.55-38.16,48.35c-2.5,4.79-4.85,9.32-7.38,13.64
									c-55.17,73.76-96.82,148.64-140.92,227.92c-19.49,35.03-39.64,71.26-61.12,107.49l-13.31,25.97
									c-39.79,77.62-77.36,150.94-112.94,230.63L1962.67,3042.36z"/>
								<path class="st4" d="M2161.31,2665.73c107.61-200,124.41-494.65,119.57-706.61c-5.25-229.54-36.32-414.25-36.63-416.09
									l-3.83,0.65c0.31,1.84,31.34,186.31,36.58,415.58c4.83,211.48-11.91,505.38-119.11,704.63L2161.31,2665.73z"/>
								<path class="st4" d="M2748.15,1857.79c126.01-205.87,210.58-451.11,238.37-531.69c5.32-15.41,8.83-25.6,9.84-27.41
									l-3.39-1.89c-1.13,2.03-3.92,10.06-10.12,28.04c-27.76,80.49-112.22,325.42-238.01,530.93L2748.15,1857.79z"/>
								<path class="st4" d="M2495.16,2160.52c167.05-147.29,628.79-116.66,633.43-116.33l0.27-3.87
									c-4.66-0.33-468.02-31.06-636.28,117.29L2495.16,2160.52z"/>
							</g>
						</g>
					</g>
				</g>
				<g>
					<g>
						<defs>
							<path id="SVGID_00000054977913454925618080000013953197835113906067_" d="M2705.07,2514.03
								c-90.38,253.24-184.22,127.31-305.93,113.53c-195.42,143.98-267.93,314.95-125.07,533.23l228.3,42.14
								c81.85,23.95,184.84,31.82,216.38-77.29c35.67-123.4,33.46-210.32,190.89-222.83c157.42-12.52,253.62-101.02,240.67-243.74
								c-13.63-150.2,183.55-278.57,113.48-400.15C3141.71,2047.07,2799.18,2250.33,2705.07,2514.03z"/>
						</defs>
						
							<linearGradient id="SVGID_00000034788600772606908630000006990258315145823883_" gradientUnits="userSpaceOnUse" x1="-2092.0576" y1="2281.2224" x2="-1242.2839" y2="3680.1687" gradientTransform="matrix(-1 0 0 1 900.7756 0)">
							<stop  offset="3.597120e-03" style="stop-color:#E38DDD"/>
							<stop  offset="1" style="stop-color:#9571F6"/>
						</linearGradient>
						
							<use xlink:href="#SVGID_00000054977913454925618080000013953197835113906067_"  style="overflow:visible;fill:url(#SVGID_00000034788600772606908630000006990258315145823883_);"/>
						<clipPath id="SVGID_00000155118721406564608230000017013436904701885614_">
							<use xlink:href="#SVGID_00000054977913454925618080000013953197835113906067_"  style="overflow:visible;"/>
						</clipPath>
						<g style="clip-path:url(#SVGID_00000155118721406564608230000017013436904701885614_);">
							<g>
								<path class="st4" d="M2494.77,2950.53c124.74-68.02,241.16-151.23,346.03-247.32c105.77-96.93,198.38-205.67,275.25-323.23
									c44.08-67.41,83.14-138.09,116.08-210.1l-3.16-1.44c-32.88,71.84-71.85,142.38-115.84,209.64
									c-76.71,117.31-169.13,225.84-274.69,322.56c-104.66,95.9-220.86,178.95-345.35,246.83L2494.77,2950.53z"/>
								<path class="st4" d="M2680.47,3170.51l2.5-2.42c-33.27-34.4-75.33-66.77-125.02-96.21c-23.68-14.03-47.81-26.21-71.71-36.2
									l-1.34,3.2c23.76,9.93,47.74,22.04,71.28,35.98C2605.6,3104.15,2647.42,3136.33,2680.47,3170.51z"/>
								<path class="st4" d="M2773.6,2761.23c149.4-69.92,384.66,22.03,387.01,22.98l1.28-3.23c-2.38-0.94-239-93.45-389.77-22.89
									L2773.6,2761.23z"/>
								<path class="st4" d="M3009.14,2525.69c93.03-161.49,32.08-406.02,31.45-408.47l-3.36,0.86
									c0.62,2.44,61.22,245.62-31.1,405.87L3009.14,2525.69z"/>
							</g>
						</g>
					</g>
				</g>
			</g>
		</g>
		
			<linearGradient id="SVGID_00000061438342719965035840000003420392580947069570_" gradientUnits="userSpaceOnUse" x1="-1074.0037" y1="1140.3068" x2="435.8462" y2="1140.3068" gradientTransform="matrix(-1 0 0 1 900.7756 0)">
			<stop  offset="3.597120e-03" style="stop-color:#E38DDD"/>
			<stop  offset="1" style="stop-color:#9571F6"/>
		</linearGradient>
		<path style="fill:url(#SVGID_00000061438342719965035840000003420392580947069570_);" d="M471.09,899.59
			c61.4-330.82,585.03-511.29,972.33-442.95c72.88,12.86,404.66,71.41,502.64,312.52c128.32,315.76-190.04,832.18-623.12,891.35
			c-19.19,2.62-38.37,4.29-57.5,5.1c-7,91.19,89.3,169.8,89.3,169.8c-215.41,25.52-349.08-122.4-420.09-240.09
			C640.68,1457.81,425.25,1146.57,471.09,899.59z"/>
		<g>
			<path class="st2" d="M1057.62,1152.13h-199.2v-39.52l94.01-100.2c12.91-14.1,22.46-26.41,28.64-36.93
				c6.19-10.51,9.28-20.49,9.28-29.94c0-12.91-3.26-23.05-9.78-30.44c-6.52-7.39-15.83-11.08-27.94-11.08
				c-13.04,0-23.32,4.49-30.83,13.47c-7.52,8.98-11.28,20.79-11.28,35.43h-57.88c0-17.7,4.22-33.86,12.67-48.5
				c8.45-14.64,20.39-26.11,35.83-34.43c15.43-8.31,32.93-12.47,52.49-12.47c29.94,0,53.19,7.19,69.76,21.56
				c16.57,14.37,24.85,34.66,24.85,60.88c0,14.37-3.73,29.01-11.18,43.91c-7.45,14.9-20.23,32.27-38.32,52.09l-66.07,69.66h124.95
				V1152.13z"/>
			<path class="st2" d="M1263.6,1042.75h32.93v46.51h-32.93v62.87h-57.68v-62.87h-119.16l-2.59-36.33l121.15-191.41h58.28V1042.75z
				 M1141.65,1042.75h64.27V940.16l-3.79,6.59L1141.65,1042.75z"/>
			<path class="st2" d="M1348.03,1177.08h-42.91l106.98-315.56h42.91L1348.03,1177.08z"/>
			<path class="st2" d="M1677.76,893.72l-112.37,258.41h-60.88l112.57-244.1h-144.51v-46.51h205.18V893.72z"/>
		</g>
		
			<linearGradient id="SVGID_00000149345219291031908310000010123854204421966755_" gradientUnits="userSpaceOnUse" x1="1329.5575" y1="1080.4918" x2="901.1323" y2="2327.6838" gradientTransform="matrix(-0.9647 0.2633 0.2633 0.9647 1944.4695 -674.6683)">
			<stop  offset="3.597120e-03" style="stop-color:#E38DDD"/>
			<stop  offset="1" style="stop-color:#9571F6"/>
		</linearGradient>
		<path style="opacity:0.3;fill:url(#SVGID_00000149345219291031908310000010123854204421966755_);" d="M471.09,899.59
			c61.4-330.82,585.03-511.29,972.33-442.95c18.69,3.3,54.45,9.62,98.9,21.24c23.94,60.77,34.09,124.16,20.41,187.01
			c-70.72,324.96-731.95,423.77-709.04,615.2c14.21,118.74,279.77,173.96,291.96,370.16c2.18,35.05-4.81,57.2,10.43,88.63
			c28.72,59.24,104.87,86.31,189.37,97.52c-209.96,20.24-340.8-125.1-410.78-241.08C640.68,1457.81,425.25,1146.57,471.09,899.59z"
			/>
		<g>
			
				<linearGradient id="SVGID_00000072263707898607330440000013090145116077197983_" gradientUnits="userSpaceOnUse" x1="3621.491" y1="-2539.353" x2="5413.1528" y2="-2539.353" gradientTransform="matrix(0.6618 0.7497 -0.7497 0.6618 -2525.6055 135.9852)">
				<stop  offset="0" style="stop-color:#311944"/>
				<stop  offset="1" style="stop-color:#6B3976"/>
			</linearGradient>
			<path style="fill:url(#SVGID_00000072263707898607330440000013090145116077197983_);" d="M1521.47,1624.16
				c-4.8-121.73-7.2-182.6,18.03-228.33c55.12-99.92,180.6-141.66,274.1-141.73c131.22-0.09,229.65,81.88,291.94,133.76
				c80.04,66.66,66.2,87.59,113.44,109.87c130.58,61.59,241.47-95.89,430.82-98.67c208.92-3.07,365.44,184.36,403.15,233.3
				c200.9,260.76,99.29,575.33,88.33,607.38c-101.5,296.93-397.05,459.11-643.84,465.71c-70.57,1.89-251.1,6.72-329.53-102.93
				c-75.52-105.58,7.75-227.67-93.47-377.84c-14.14-20.98-57-84.55-136.3-125.81c-89.56-46.59-141.05-20.73-233.79-72.88
				c-75.19-42.28-115.6-101.04-123.54-112.91C1530.88,1838.41,1527.07,1765.96,1521.47,1624.16z"/>
			<g class="st9">
				
					<linearGradient id="SVGID_00000017512622467250849200000016200846523773171328_" gradientUnits="userSpaceOnUse" x1="3621.488" y1="-2339.0449" x2="5413.1577" y2="-2339.0449" gradientTransform="matrix(0.6618 0.7497 -0.7497 0.6618 -2525.6055 135.9852)">
					<stop  offset="0" style="stop-color:#311944"/>
					<stop  offset="1" style="stop-color:#6B3976"/>
				</linearGradient>
				<path style="fill:url(#SVGID_00000017512622467250849200000016200846523773171328_);" d="M3114.71,2305.43
					c-206.68,227.3-311.58,274.71-365.07,247.93c-74.84-37.48-31.19-211.22-141.88-275.31c-99.56-57.65-196.56,47.19-286.26-7.27
					c-113.37-68.84-14.1-270.17-124.03-375.02c-130.84-124.79-375.66,61.03-548.96-53.53c-52.49-34.7-104-100.74-127.64-233.05
					c0.19,4.9,0.39,9.87,0.59,14.99c5.59,141.79,9.41,214.25,59.33,288.93c7.94,11.87,48.35,70.63,123.54,112.91
					c92.73,52.14,144.23,26.29,233.79,72.88c79.3,41.25,122.16,104.83,136.3,125.81c101.23,150.16,17.95,272.25,93.47,377.83
					c78.43,109.65,258.96,104.82,329.53,102.93C2725.38,2699.35,2994.89,2560.54,3114.71,2305.43z"/>
			</g>
			
				<linearGradient id="SVGID_00000168815390397731833900000000859362776872294528_" gradientUnits="userSpaceOnUse" x1="1700.4023" y1="2909.3948" x2="1608.9756" y2="3272.6958" gradientTransform="matrix(0.3992 -0.9169 0.9169 0.3992 -2763.6401 2400.708)">
				<stop  offset="0" style="stop-color:#AB316D"/>
				<stop  offset="1" style="stop-color:#792D3D"/>
			</linearGradient>
			<path style="fill:url(#SVGID_00000168815390397731833900000000859362776872294528_);" d="M742.18,2101.54
				c0,0-27.73-33.16-79.76-34.73c-52.03-1.57-122.93-32.44-153.37-35.16c-7.35-0.66-10.99-2.77-11.61-5.45
				c-1.28-5.52,32.51-13.57,62.5-14.57c53.16-1.77,84.17,18.63,91.34,8.14c8.02-11.72-26.3-43.72-20.01-50.88
				c4.87-5.55,28.2,12.28,53.17,23.15c17.72,7.72,87.05,90.62,87.05,90.62L742.18,2101.54z"/>
			
				<linearGradient id="SVGID_00000001664299708147195820000017625098472620284827_" gradientUnits="userSpaceOnUse" x1="-807.5836" y1="2270.6736" x2="99.033" y2="2270.6736" gradientTransform="matrix(0.7576 -0.6528 0.6528 0.7576 41.0717 356.3905)">
				<stop  offset="0" style="stop-color:#FF9085"/>
				<stop  offset="1" style="stop-color:#FB6FBB"/>
			</linearGradient>
			<path style="fill:url(#SVGID_00000001664299708147195820000017625098472620284827_);" d="M740.49,2041.35
				c-12.9,26.03-25.8,52.07-38.7,78.1c12.76,70.1,38.76,173.61,96.91,287.05c62.58,122.08,205.23,400.37,456.4,425.62
				c191.55,19.26,352.25-117.89,413.08-170.37c56.26-48.54,106.73-91.35,131.23-159.62c38.65-107.7-0.37-240.49-93.99-365.54
				c-46.09-61.56-141.99-48.3-169.23,23.61c-42.98,113.45-115.46,192.26-198.73,207.66c-93.63,17.31-197.9-46.11-242.28-73.05
				c-65.99-40.06-82.82-70.87-164.9-134.33C854.4,2101.8,785.64,2063.85,740.49,2041.35z"/>
			<g class="st9">
				
					<linearGradient id="SVGID_00000000904682346756366820000018207482658204965782_" gradientUnits="userSpaceOnUse" x1="-807.5836" y1="2280.4954" x2="100.637" y2="2280.4954" gradientTransform="matrix(0.7576 -0.6528 0.6528 0.7576 41.0717 356.3905)">
					<stop  offset="0" style="stop-color:#FF9085"/>
					<stop  offset="1" style="stop-color:#FB6FBB"/>
				</linearGradient>
				<path style="fill:url(#SVGID_00000000904682346756366820000018207482658204965782_);" d="M1503,2625.1
					c-71.74-16.15-98.81-82.77-197.15-88.74c-124.34-7.55-177.77,93.09-257.31,66.55c-64.92-21.66-75.7-104.19-120.97-210.42
					c-35.11-82.4-96-190.8-209.5-305.89c-5.43,10.95-10.85,21.9-16.28,32.85c12.76,70.1,38.76,173.61,96.91,287.05
					c62.58,122.08,205.23,400.37,456.4,425.62c191.55,19.26,352.25-117.89,413.08-170.37c56.26-48.54,106.73-91.35,131.23-159.62
					c6.78-18.9,11.15-38.57,13.28-58.83C1664.36,2612.64,1567.4,2639.6,1503,2625.1z"/>
			</g>
			<g>
				
					<linearGradient id="SVGID_00000141418315258703359370000011331485821700614330_" gradientUnits="userSpaceOnUse" x1="83.9371" y1="2632.4536" x2="1091.5348" y2="2632.4536" gradientTransform="matrix(1 0 0 1 1321.8713 0)">
					<stop  offset="0" style="stop-color:#FF9085"/>
					<stop  offset="1" style="stop-color:#FB6FBB"/>
				</linearGradient>
				<path style="fill:url(#SVGID_00000141418315258703359370000011331485821700614330_);" d="M1517.94,3218.17
					c-3.34-111.29-9.94-276.32-26.83-356.92c-43.85-209.16-97.23-262.1-82.94-396.41c12.26-115.24,65.21-204.52,97.21-258.46
					c50.53-85.2,107.76-145.4,149.89-183.79c44.01-6.54,88.03-13.09,132.04-19.63c37.26,8.64,91.51,24.52,151.67,55.31
					c154.33,79,234.71,198.39,280.15,265.87c198.21,294.4,194.23,703.79,192.71,777.99c1.53,30.52,1.91,59.81,1.24,87.16
					c-89.22,29.65-199.62,55.19-331.61,66.46c10.9-106.74,24.04-236.24,19.89-282.1c-9.69-106.94-27.71-202.17-48.18-283.72
					c-19.15,71.76-36.84,152.99-49.96,242.68c-8.3,56.74-16.89,209.64-22.51,328.71
					C1845.97,3264.81,1691.82,3253.27,1517.94,3218.17z"/>
			</g>
			
				<linearGradient id="SVGID_00000080176857049691940290000001678725182963534227_" gradientUnits="userSpaceOnUse" x1="83.9369" y1="2823.4719" x2="1091.5315" y2="2823.4719" gradientTransform="matrix(1 0 0 1 1321.8713 0)">
				<stop  offset="0" style="stop-color:#FF9085"/>
				<stop  offset="1" style="stop-color:#FB6FBB"/>
			</linearGradient>
			<path style="opacity:0.3;fill:url(#SVGID_00000080176857049691940290000001678725182963534227_);" d="M1693.07,3053.15
				c-48.34-171.34-198.71-278.68-161.62-340.46c33.32-55.51,158.98,24,271.1-47.88c124.17-79.6,84.8-250.65,172.05-276.62
				c84.46-25.15,231.01,102.51,265.89,250.02c32.39,136.97-52.56,201.98-31.28,345.78c14.08,95.16,66.77,171.33,123.75,229.05
				c-72.77,19.1-156.5,34.62-251.47,42.73c10.9-106.74,24.04-236.24,19.89-282.1c-9.69-106.94-27.71-202.17-48.18-283.72
				c-19.15,71.76-36.84,152.99-49.96,242.68c-8.3,56.74-16.89,209.64-22.51,328.71c-84.95,2.19-177.64-1.61-278.1-13.5
				C1712.55,3184.49,1711.55,3118.67,1693.07,3053.15z"/>
			
				<linearGradient id="SVGID_00000037650100364665851460000001695033779446277552_" gradientUnits="userSpaceOnUse" x1="492.149" y1="2314.8914" x2="472.5576" y2="1683.0553" gradientTransform="matrix(1 0 0 1 1321.8713 0)">
				<stop  offset="0" style="stop-color:#AB316D"/>
				<stop  offset="1" style="stop-color:#792D3D"/>
			</linearGradient>
			<path style="fill:url(#SVGID_00000037650100364665851460000001695033779446277552_);" d="M1677.08,1804.35
				c0,0-3.71,95.36,0,159.37c2.71,46.86-37.81,73.55-37.81,73.55s-22.25,38.13,98.08,44.5c120.33,6.37,237.43,0,237.43,0
				s-117.65-78.25-144.53-99.04c-26.88-20.79-41.3-176.26-24.09-274.73L1677.08,1804.35z"/>
			
				<linearGradient id="SVGID_00000120545275327740886700000007612363232457615806_" gradientUnits="userSpaceOnUse" x1="361.0461" y1="1861.6273" x2="539.8214" y2="1276.3208" gradientTransform="matrix(1 0 0 1 1321.8713 0)">
				<stop  offset="0" style="stop-color:#AB316D"/>
				<stop  offset="1" style="stop-color:#792D3D"/>
			</linearGradient>
			<path style="fill:url(#SVGID_00000120545275327740886700000007612363232457615806_);" d="M1646.28,1496.65
				c0,0-61.24,147.66-60.92,236.88c0.32,89.22,62.71,140.43,110.03,118.39c47.32-22.04,118.61-114.82,118.61-114.82
				s9.58,24.98,45.87,0c36.29-24.98,63.25-165.26-7.33-125.46c0,0,11.17-39.32-6.23-96.35
				C1828.91,1458.26,1666.92,1396.7,1646.28,1496.65z"/>
			<g>
				<path class="st2" d="M1747.31,1811.31c85.72,0,118-122.83,118.34-124.17c0.81-3.19-1.12-6.44-4.31-7.25
					c-3.18-0.81-6.44,1.12-7.25,4.31c-0.34,1.34-35.09,133.37-125.75,112.99c-3.22-0.71-6.41,1.3-7.13,4.52
					c-0.72,3.21,1.3,6.41,4.51,7.13C1733.27,1810.52,1740.46,1811.31,1747.31,1811.31z"/>
				<path class="st2" d="M1671.62,1791.65c-2.35,9.04,9.1,19.83,25.58,24.12c16.48,4.28,31.74,0.43,34.09-8.6
					c2.35-9.04-9.1-19.83-25.58-24.12C1689.23,1778.76,1673.97,1782.61,1671.62,1791.65z"/>
				
					<ellipse transform="matrix(0.2517 -0.9678 0.9678 0.2517 -213.6154 3057.7834)" class="st2" cx="1870.48" cy="1667.02" rx="46.11" ry="28.8"/>
			</g>
		</g>
		<g>
			
				<linearGradient id="SVGID_00000050626721979294766490000013873747879643506847_" gradientUnits="userSpaceOnUse" x1="-1259.9008" y1="588.7179" x2="-2108.0127" y2="2090.2935" gradientTransform="matrix(-1 0 0 1 900.7756 0)">
				<stop  offset="0" style="stop-color:#FFC444"/>
				<stop  offset="0.9964" style="stop-color:#F36F56"/>
			</linearGradient>
			<path style="fill:url(#SVGID_00000050626721979294766490000013873747879643506847_);" d="M2800.15,871.79
				c-37.12-199.98-353.66-309.08-587.78-267.77c-44.06,7.77-244.62,43.17-303.85,188.92c-77.57,190.88,114.88,503.06,376.68,538.83
				c11.6,1.59,23.2,2.6,34.76,3.08c4.23,55.12-53.98,102.64-53.98,102.64c130.22,15.43,211.02-73.99,253.95-145.14
				C2697.64,1209.24,2827.86,1021.09,2800.15,871.79z"/>
			<g>
				<path class="st2" d="M2439.04,940.54c0.28,28.33,23.51,50.58,51.98,49.67c28.56-0.91,51.53-24.76,51.21-53.25
					c-0.31-28.48-23.76-50.68-52.28-49.6C2461.51,888.43,2438.76,912.23,2439.04,940.54z"/>
				<path class="st2" d="M2264.48,946.6c0.22,28.05,22.95,50.08,50.85,49.2c27.99-0.89,50.54-24.49,50.29-52.71
					c-0.25-28.19-23.19-50.18-51.14-49.13C2286.61,895.01,2264.26,918.57,2264.48,946.6z"/>
				<path class="st2" d="M2093.37,952.53c0.16,27.77,22.4,49.6,49.75,48.73c27.44-0.87,49.59-24.24,49.39-52.17
					c-0.19-27.92-22.63-49.69-50.04-48.66C2115.16,901.46,2093.21,924.78,2093.37,952.53z"/>
			</g>
		</g>
	</g>
</g>
</svg>
