<?xml version="1.0" encoding="utf-8"?>
<!-- Generator: Adobe Illustrator 28.1.0, SVG Export Plug-In . SVG Version: 6.00 Build 0)  -->
<svg version="1.1" xmlns="http://www.w3.org/2000/svg" xmlns:xlink="http://www.w3.org/1999/xlink" x="0px" y="0px"
	 viewBox="0 0 3710 3710" style="enable-background:new 0 0 3710 3710;" xml:space="preserve">
<style type="text/css">
	.st0{clip-path:url(#SVGID_00000072983447261226332990000000061371493551300239_);fill:#EAEEF1;}
	.st1{fill:#97A6B7;}
	.st2{fill:url(#SVGID_00000183931636206283928100000003742883085870312838_);}
	.st3{fill:url(#SVGID_00000083085617181919558500000011827586236035879322_);}
	.st4{fill:url(#SVGID_00000156556069803283348360000008127638304282726297_);}
	.st5{fill:url(#SVGID_00000162319970654181133030000017598590121455771280_);}
	.st6{opacity:0.48;}
	.st7{fill:#FFFFFF;}
	.st8{fill:url(#SVGID_00000168833812730669617370000012628575265372391832_);}
	.st9{opacity:0.7;}
	.st10{clip-path:url(#SVGID_00000057850957781715544200000018061247031111346110_);}
	.st11{fill:url(#SVGID_00000071547649861561108770000007864814797241928065_);}
	.st12{clip-path:url(#SVGID_00000100358103501065497720000002293102321071995786_);}
	.st13{fill:#FCFDFE;}
	.st14{fill:url(#SVGID_00000057829094272103911060000011702943166170842019_);}
	.st15{clip-path:url(#SVGID_00000016075012231418071190000000489749664627356572_);}
	.st16{clip-path:url(#SVGID_00000093867405742052586100000006093160321196608421_);}
	.st17{fill:url(#SVGID_00000000906823527775760120000008383612779424142267_);}
	.st18{clip-path:url(#SVGID_00000096751882660914744450000018192630168954526885_);}
	.st19{clip-path:url(#SVGID_00000103252423002098589390000016841365684871939999_);}
	.st20{clip-path:url(#SVGID_00000047032835661113011040000000015449548781679234_);}
	.st21{fill:#BFC8D6;}
	.st22{fill:#D8DEE8;}
	.st23{fill:url(#SVGID_00000002370915474877968360000015205947906932113546_);}
	.st24{opacity:0.3;}
	.st25{opacity:0.69;}
	.st26{fill:url(#SVGID_00000121257709365761121870000014462818498970378885_);}
	.st27{fill:url(#SVGID_00000053505487462348185850000013456268446535431853_);}
	.st28{fill:url(#SVGID_00000137096540459147828900000000151187683430179722_);}
	.st29{fill:url(#SVGID_00000074438938795777976220000010943868783500887229_);}
	.st30{fill:url(#SVGID_00000183233244706770922840000018341155759171917958_);}
	.st31{fill:url(#SVGID_00000008114448675003508960000006173219112864198577_);}
	.st32{fill:url(#SVGID_00000002371657075509524600000014989446312679427251_);}
	.st33{fill:url(#SVGID_00000170278185773483678060000005547501832858767032_);}
	.st34{fill:url(#SVGID_00000003795488554984094210000011105895710944416129_);}
	.st35{fill:url(#SVGID_00000053529355012888977020000005974518470322805661_);}
	.st36{fill:url(#SVGID_00000099650807874954080140000018030964176869245314_);}
	.st37{fill:url(#SVGID_00000067229463932598492420000010449700512468543114_);}
	.st38{fill:url(#SVGID_00000059307029198975862310000004225360914447241650_);}
	.st39{fill:url(#SVGID_00000132078559735884334520000016876615435681262480_);}
	.st40{fill:url(#SVGID_00000073692512987576368060000002332879273469490107_);}
	.st41{fill:url(#SVGID_00000163036515292082997870000008980820799564483463_);}
	.st42{fill:url(#SVGID_00000043441421985554682720000011215904668593052336_);}
	.st43{fill:url(#SVGID_00000119834019990936225510000004949434563431677064_);}
	.st44{fill:url(#SVGID_00000111161237713521570110000003789579395333254297_);}
	.st45{fill:url(#SVGID_00000145018363588421162370000014298608136374332545_);}
	.st46{fill:url(#SVGID_00000084509752043411913920000001694898819079425177_);}
	.st47{fill:url(#SVGID_00000171692366759112990580000004518400239777419956_);}
	.st48{fill:url(#SVGID_00000150096508807038304240000016426781730373752197_);}
	.st49{fill:url(#SVGID_00000107588286154006854820000013977654595815377078_);}
	.st50{fill:url(#SVGID_00000116946303932580378440000015339256349799222965_);}
	.st51{fill:url(#SVGID_00000160190293768659227950000009515879531345489809_);}
	.st52{fill:url(#SVGID_00000020395546247231609270000001283661630269065644_);}
	.st53{fill:url(#SVGID_00000035508556145647403020000011542158508740346041_);}
	.st54{fill:url(#SVGID_00000140708423367505966810000016407240552358958723_);}
	.st55{fill:url(#SVGID_00000013154765247612962830000007413889492960907961_);}
	.st56{fill:url(#SVGID_00000108283997380101596750000000519552903313329557_);}
	.st57{fill:url(#SVGID_00000024688115827060850300000015726047707697234067_);}
	.st58{fill:url(#SVGID_00000112602925445004702330000016494576054283376288_);}
	.st59{fill:url(#SVGID_00000033326753435958671570000005899726210856693137_);}
	.st60{fill:url(#SVGID_00000117636841828169155050000006166897895659945347_);}
	.st61{fill:url(#SVGID_00000147914041583456457820000012541398439406188975_);}
	.st62{fill:url(#SVGID_00000119097121738570827500000013233935551283945631_);}
	.st63{fill:url(#SVGID_00000152232053656473559910000006400005807039469457_);}
	.st64{fill:#DE8BDF;}
	.st65{enable-background:new    ;}
	.st66{fill:#413974;}
	.st67{fill:url(#SVGID_00000128451720663501829290000017102533028961862815_);}
	.st68{fill:url(#SVGID_00000141430109458934737500000011119992339717269914_);}
	.st69{fill:url(#SVGID_00000007425214964678408350000002018866740750564242_);}
	.st70{fill:url(#SVGID_00000119836100481455786230000017488765444439230112_);}
	.st71{fill:url(#SVGID_00000021818341102086248260000014927475741668011156_);}
	.st72{fill:#F4F7FA;}
	.st73{fill:url(#SVGID_00000062169069745301883700000002237705077924509085_);}
	.st74{fill:url(#SVGID_00000115475249658826185440000004951210747617175177_);}
	.st75{fill:url(#SVGID_00000114787246875803779480000010507695784706996622_);}
	.st76{fill:url(#SVGID_00000075882091169683185360000002770507370540822162_);}
	.st77{fill:url(#SVGID_00000127034711177996810700000007981369548883682191_);}
	.st78{fill:url(#SVGID_00000082360432940673183190000008089613268119089588_);}
	.st79{fill:url(#SVGID_00000152257300143593969420000003890599911045322124_);}
	.st80{fill:url(#SVGID_00000004546748443567308930000015979127007842421161_);}
	.st81{fill:url(#SVGID_00000104705855837324038340000008512561099955469723_);}
	.st82{fill:url(#SVGID_00000059297522399547871200000004504493018411316356_);}
	.st83{fill:url(#SVGID_00000107565129681777226580000011211820568479645330_);}
	.st84{fill:url(#SVGID_00000028326829222730516910000015040797988395956911_);}
	.st85{fill:url(#SVGID_00000030481995175666956460000017111513260987746188_);}
	.st86{fill:url(#SVGID_00000073721066181833064350000011480541865612521891_);}
	.st87{fill:url(#SVGID_00000098215224702554134990000006938050049097112720_);}
	.st88{fill:url(#SVGID_00000068658712766445381220000011557818016494197923_);}
</style>
<g id="Background">
</g>
<g id="Illustration">
	<g>
		<defs>
			<rect id="SVGID_1_" x="400.46" y="440.34" width="2829.27" height="2833.18"/>
		</defs>
		<clipPath id="SVGID_00000171710470284230600020000000611449885802074534_">
			<use xlink:href="#SVGID_1_"  style="overflow:visible;"/>
		</clipPath>
		<path style="clip-path:url(#SVGID_00000171710470284230600020000000611449885802074534_);fill:#EAEEF1;" d="M3229.73,1856.92
			c0,782.36-633.36,1416.59-1414.64,1416.59c-781.28,0-1414.64-634.23-1414.64-1416.59S1033.81,440.34,1815.1,440.34
			C2596.38,440.34,3229.73,1074.56,3229.73,1856.92"/>
	</g>
	<g id="Data_protection">
		<g>
			<path class="st1" d="M2362.13,2607.21c-36.41-12.08-63.63-42.98-71.31-80.97l-53-262.31l-453.37,16.1l-55.8,273.27
				c-7.81,38.27,23.47,76.67,59.49,90.76l189.68,74.22c35.28,13.8,73.2,19.3,110.89,16.08l400.86-34.29
				c11.72-1,21.12-10.21,22.48-22.03c1.36-11.82,9.57-25.09-1.6-28.79L2362.13,2607.21z"/>
			
				<linearGradient id="SVGID_00000026863037461949006370000010339159348508413064_" gradientUnits="userSpaceOnUse" x1="2123.01" y1="2357.2439" x2="2129.9014" y2="2615.6768">
				<stop  offset="0" style="stop-color:#444B8C"/>
				<stop  offset="0.9964" style="stop-color:#26264F"/>
			</linearGradient>
			<path style="fill:url(#SVGID_00000026863037461949006370000010339159348508413064_);" d="M2366.62,2591.26
				c-36.38-11.93-63.57-42.44-71.23-79.95l-52.95-259.01l-442.32,15.91l-55.74,269.83c-7.81,37.79,12.85,75.69,48.84,89.6
				l189.49,73.28c35.24,13.63,73.13,19.06,110.78,15.88l400.46-33.86c11.71-0.99,21.1-10.09,22.46-21.75
				c1.36-11.67-5.68-22.68-16.84-26.34L2366.62,2591.26z"/>
			
				<linearGradient id="SVGID_00000079458467777228474660000012130923266741321405_" gradientUnits="userSpaceOnUse" x1="2179.2737" y1="2035.962" x2="1419.8567" y2="-630.1871">
				<stop  offset="0" style="stop-color:#444B8C"/>
				<stop  offset="0.9964" style="stop-color:#26264F"/>
			</linearGradient>
			<path style="fill:url(#SVGID_00000079458467777228474660000012130923266741321405_);" d="M3090.61,2081.56V905.37
				c0-24.12-19.88-44.65-44.23-45.63l-2020.71-81.23c-30.75-1.24-55.98,20.01-55.98,47.22V2125.6L3090.61,2081.56z"/>
			<g>
				
					<linearGradient id="SVGID_00000134956301955875134950000013095066563635757207_" gradientUnits="userSpaceOnUse" x1="2617.2507" y1="759.7175" x2="1319.03" y2="2262.1084">
					<stop  offset="3.597120e-03" style="stop-color:#E38DDD"/>
					<stop  offset="1" style="stop-color:#9571F6"/>
				</linearGradient>
				<path style="fill:url(#SVGID_00000134956301955875134950000013095066563635757207_);" d="M3002.8,918.49l-1919.69-71.62
					c-27.97-1.04-50.92,18.41-50.92,43.24v116.53v1015.38c0,25.34,23.43,45.41,51.98,44.6l1917.78-54.54
					c22.89-0.65,41.57-19.68,41.57-42.28v-905.6V960.27C3043.52,938.13,3025.22,919.33,3002.8,918.49z"/>
			</g>
			
				<linearGradient id="SVGID_00000062186063449084485510000005169149058970995634_" gradientUnits="userSpaceOnUse" x1="969.6881" y1="2253.1865" x2="3090.6133" y2="2253.1865">
				<stop  offset="0" style="stop-color:#444B8C"/>
				<stop  offset="0.9964" style="stop-color:#26264F"/>
			</linearGradient>
			<path style="fill:url(#SVGID_00000062186063449084485510000005169149058970995634_);" d="M969.69,2125.6v259.6
				c0,27.21,25.23,48.41,55.98,47.11l2020.71-85.43c24.36-1.03,44.23-21.6,44.23-45.72v-227.14L969.69,2125.6z"/>
			<g class="st6">
				<path class="st7" d="M2871.75,1929.71c-165.96-56.06-303.27,58.28-422.56-31.74c-134.49-101.5-25.79-296.48-150.19-411.35
					c-172.82-159.57-518.33,87.9-668.4-62.54c-103.17-103.43,18.53-269.02-68.83-443.21c-44.42-88.57-127.65-148.95-228.69-189.99
					l-307.4-12.36c-30.75-1.24-55.98,20.01-55.98,47.22V2125.6v259.6c0,27.21,25.23,48.41,55.98,47.11l2020.71-85.43
					c24.36-1.03,44.24-21.6,44.24-45.72v-167.84C3019.45,2007.51,2940.9,1953.06,2871.75,1929.71z"/>
			</g>
		</g>
		<g>
			<g>
				<g>
					
						<linearGradient id="SVGID_00000061436913309159775890000012949026118382862732_" gradientUnits="userSpaceOnUse" x1="1081.2098" y1="1315.9641" x2="781.4479" y2="2118.7175">
						<stop  offset="0" style="stop-color:#FFC444"/>
						<stop  offset="0.9964" style="stop-color:#F36F56"/>
					</linearGradient>
					<path style="fill:url(#SVGID_00000061436913309159775890000012949026118382862732_);" d="M1554.99,1965.53l-199.23,111.58
						c0,0-94.74-81.2-86.31-180.67c17.2-202.95-161.75-203.85-236.65-215.44c-112.95-17.48-192.03-77.5-126.44-181.9
						c74.21-118.12-106.85-220.51-293.34-222.44c-182.48-1.89-284.42-327.37,110.92-359.54c236.1-19.21,318.25,196.51,385.63,295.58
						c67.38,99.07,227.1,20.94,245.34,177.86c15.58,134.03-26.07,261.46,81.43,299.4
						C1543.85,1727.9,1597.55,1807.86,1554.99,1965.53z"/>
					<g class="st9">
						<defs>
							<path id="SVGID_00000092449776794039521920000010584930137626886296_" class="st9" d="M1554.99,1965.53l-199.23,111.58
								c0,0-94.74-81.2-86.31-180.67c17.2-202.95-161.75-203.85-236.65-215.44c-112.95-17.48-204.86-82.14-110.95-185.29
								c93.91-103.15-122.34-217.12-308.82-219.05c-182.48-1.89-284.42-327.37,110.92-359.54
								c236.1-19.21,318.25,196.51,385.63,295.58c67.38,99.07,227.1,20.94,245.34,177.86c15.58,134.03-26.07,261.46,81.43,299.4
								C1543.85,1727.9,1597.55,1807.86,1554.99,1965.53z"/>
						</defs>
						<clipPath id="SVGID_00000093881624297234133050000004636170755547542443_">
							<use xlink:href="#SVGID_00000092449776794039521920000010584930137626886296_"  style="overflow:visible;"/>
						</clipPath>
						<g style="clip-path:url(#SVGID_00000093881624297234133050000004636170755547542443_);">
							<path class="st7" d="M1479.12,2032.32l-4.56,1.56c-0.97-2.83-98.64-285.36-279.92-536.25
								c-167.01-231.14-441.21-481.93-799.13-364.12l-1.51-4.58c159.33-52.45,315.59-37.47,464.45,44.5
								c118.91,65.48,233.36,173.63,340.15,321.45C1380.28,1746.36,1478.15,2029.49,1479.12,2032.32z"/>
							<path class="st7" d="M919.18,1210.38l-4.47,1.82c-60.51-148.6-223.95-316.29-225.59-317.97l3.44-3.38
								C694.22,892.53,858.32,1060.9,919.18,1210.38z"/>
							<path class="st7" d="M818.5,1158.48c-190.99-8.92-299.57,107.5-300.64,108.67l-3.56-3.25
								c1.09-1.2,111.1-119.27,304.43-110.24L818.5,1158.48z"/>
							<path class="st7" d="M1304.22,1668.11c-158.09-171.96-455.03-69.55-457.84-68.31l-2.23-4.27
								c2.64-1.48,304.13-104.18,463.62,69.32L1304.22,1668.11z"/>
							<path class="st7" d="M1258.46,1583.36l-4.6,1.45c-44.83-142.16,44.22-307.11,45.13-308.77l4.23,2.32
								C1302.32,1279.99,1214.25,1443.19,1258.46,1583.36z"/>
							<path class="st7" d="M1458.21,1989.76c-49.29-73.79-193.72-73.19-195.17-73.17l-0.05-4.82
								c6.04-0.06,148.48-0.65,199.23,75.31L1458.21,1989.76z"/>
							<path class="st7" d="M1435.98,1922.54l-4.54,1.61c-23.49-66.11,30.07-184.41,47.67-223.29c2.49-5.49,4.63-10.24,4.85-11.16
								l4.71,1.04c-0.29,1.3-1.7,4.46-5.17,12.11C1466.1,1741.29,1413.14,1858.26,1435.98,1922.54z"/>
						</g>
					</g>
				</g>
				<g>
					
						<linearGradient id="SVGID_00000069390990372709468960000002657701221200702391_" gradientUnits="userSpaceOnUse" x1="2703.469" y1="1405.9429" x2="3424.5081" y2="2592.959" gradientTransform="matrix(0.9571 -0.2896 0.2896 0.9571 -2114.9714 1066.7954)">
						<stop  offset="0" style="stop-color:#FF9085"/>
						<stop  offset="1" style="stop-color:#FB6FBB"/>
					</linearGradient>
					<path style="fill:url(#SVGID_00000069390990372709468960000002657701221200702391_);" d="M1629.42,2529.12
						c1.34,0.16,2.68,0.32,4.02,0.48c79.44,9.18,167.88,5.17,265.17-19.96c18.62-6.24,37.24-12.47,55.85-18.71
						c2.45-49.35-4.05-96.72-66.47-97.01c-96.94-0.45-145.17-156.53-137.04-219.14c10.06-77.5,29.77-258.45-120.08-261.51
						c-124.75-2.55-205.76,21.3-256.96-123.29c-51.2-144.6-158.36-212.69-289.06-164.77c-137.54,50.43-307.43-102.44-403.96-6.22
						c-168.21,167.66,108.38,438.17,379.44,460.4c271.06,22.23,157.19,151.03,185.98,273.21c39.3,166.81,250.94,66.48,328.53,113.74
						C1601.12,2482.34,1618.25,2504.94,1629.42,2529.12z"/>
					<g class="st9">
						<defs>
							<path id="SVGID_00000178884670913116876100000010290289890643549065_" class="st9" d="M1649.55,2621.5l304.87-92.25
								c4.7-48.53,3.29-135.01-66.43-135.33c-96.93-0.45-145.17-156.53-137.04-219.14c10.06-77.5,29.77-258.45-120.08-261.51
								c-124.75-2.55-205.76,21.3-256.96-123.29c-51.2-144.6-158.36-212.69-289.06-164.77c-137.54,50.43-307.43-102.44-403.97-6.22
								c-168.21,167.66,108.38,438.17,379.44,460.4c271.06,22.23,157.19,151.03,185.98,273.21
								c39.3,166.81,250.94,66.48,328.53,113.74C1635.66,2503.38,1647.65,2575.66,1649.55,2621.5z"/>
						</defs>
						<clipPath id="SVGID_00000079466753772340400040000010909086122441550520_">
							<use xlink:href="#SVGID_00000178884670913116876100000010290289890643549065_"  style="overflow:visible;"/>
						</clipPath>
						<g style="clip-path:url(#SVGID_00000079466753772340400040000010909086122441550520_);">
							<path class="st13" d="M1778.6,2530.11l6.1-3.24c-236.68-445.67-688.5-774.29-1179.13-857.61l-1.15,6.8
								C1092.97,1759.04,1542.9,2086.29,1778.6,2530.11z"/>
							<path class="st13" d="M1628.74,2298.18l6.62-1.97c-56.6-190.07,62-386.67,63.21-388.63l-5.88-3.61
								C1691.46,1905.96,1571.25,2105.12,1628.74,2298.18z"/>
							<path class="st13" d="M1732.82,2449.31l4.89-4.87c-141.99-142.34-499.26-62.09-502.85-61.26l1.55,6.73
								C1239.96,2389.08,1593.53,2309.68,1732.82,2449.31z"/>
							<path class="st13" d="M1271.2,1956.43l5.29-4.44c-102.59-122.12-75.32-365.17-75.03-367.61l-6.85-0.81
								C1194.31,1586.04,1166.71,1832.05,1271.2,1956.43z"/>
							<path class="st13" d="M993.73,1796.07l1.79-6.67c-175.55-47.02-390.38,71.81-392.54,73.02l3.38,6.02
								C608.48,1867.24,820.92,1749.78,993.73,1796.07z"/>
						</g>
					</g>
				</g>
			</g>
			<g>
				<g>
					<g>
						
							<linearGradient id="SVGID_00000042700463253462814210000005850564894347854748_" gradientUnits="userSpaceOnUse" x1="2228.1355" y1="1815.4475" x2="1954.5284" y2="2256.0347" gradientTransform="matrix(0.9972 0.0755 -0.0755 0.9972 337.4646 -97.2354)">
							<stop  offset="3.597120e-03" style="stop-color:#6165D7"/>
							<stop  offset="1" style="stop-color:#AA80F9"/>
						</linearGradient>
						<path style="fill:url(#SVGID_00000042700463253462814210000005850564894347854748_);" d="M2132.71,2665.5
							c-26.37-58.22-56.55-148.2-44.06-253.09c14.34-120.44,71.83-150.47,112.1-281.93c57.48-187.65-43.73-308.05,29.99-371.51
							c35.95-30.94,97.04-37.6,137.62-14.87c115.78,64.87,122.54,401.46-33.83,550.09c-70.72,67.22-138.77,67.55-188.36,149.98
							C2102.34,2517.01,2115.99,2605.34,2132.71,2665.5z"/>
					</g>
					<g>
						<defs>
							<path id="SVGID_00000173130776557298685700000009648365106657077650_" d="M2132.71,2665.5
								c-26.37-58.22-56.55-148.2-44.06-253.09c14.34-120.44,71.83-150.47,112.1-281.93c57.48-187.65-43.73-308.05,29.99-371.51
								c35.95-30.94,97.04-37.6,137.62-14.87c115.78,64.87,122.54,401.46-33.83,550.09c-70.72,67.22-138.77,67.55-188.36,149.98
								C2102.34,2517.01,2115.99,2605.34,2132.71,2665.5z"/>
						</defs>
						<clipPath id="SVGID_00000047050820093194077910000002680924288031028612_">
							<use xlink:href="#SVGID_00000173130776557298685700000009648365106657077650_"  style="overflow:visible;"/>
						</clipPath>
						<g style="clip-path:url(#SVGID_00000047050820093194077910000002680924288031028612_);">
							<path class="st7" d="M2104.2,2514.93l-2.14-0.3c3.72-26.22,9.73-52.23,17.84-77.31c18.67-57.71,42.55-90.87,72.78-132.86
								c19.63-27.27,41.88-58.17,66.73-101.69c46.47-81.4,60.56-109.73,71.08-153.97c20.84-87.61,8.02-162.73-1.48-199.71
								c-13.47-52.46-36.86-101.23-69.52-144.97l1.73-1.3c32.83,43.97,56.35,93,69.89,145.73c9.55,37.17,22.44,112.69,1.49,200.75
								c-10.59,44.49-24.71,72.92-71.31,154.54c-24.9,43.62-47.19,74.57-66.85,101.88c-30.12,41.83-53.91,74.88-72.48,132.26
								C2113.88,2462.94,2107.9,2488.83,2104.2,2514.93z"/>
							<path class="st7" d="M2340.61,1988l-0.22-1.77c-15.02-118.63-162.18-143.85-163.67-144.09l0.35-2.14
								c1.49,0.24,148.75,25.49,165.23,144.14c6.25-4.68,31.54-24.76,52.66-58.25c22.29-35.34,44.38-93.3,23.05-168.73l2.08-0.59
								c21.56,76.23-0.8,134.82-23.35,170.55c-24.42,38.69-54.37,59.66-54.67,59.86L2340.61,1988z"/>
							<path class="st7" d="M2331.02,2189.51c-33.41,0-57.58-7.8-58.08-7.96l-0.86-0.29l0.14-0.9c9.37-62.73-9.4-106.14-26.8-131.51
								c-18.83-27.47-40.1-40.26-40.32-40.39l1.11-1.86c0.86,0.51,85.86,52.4,68.29,173.17c10.15,3.06,106.99,29.76,178.5-39.52
								l1.51,1.55C2414.81,2180.25,2367.42,2189.51,2331.02,2189.51z"/>
							<path class="st7" d="M2273.66,2314.03c-47.01,0-72.97-18.35-73.38-18.65l-0.63-0.46l0.23-0.74
								c20.3-64.84-28.44-162.09-28.93-163.07l1.93-0.98c0.5,0.98,49.24,98.26,29.3,163.93c6.96,4.57,70.62,42.78,175.92-9.2
								l0.96,1.94C2337.11,2307.52,2301.65,2314.03,2273.66,2314.03z"/>
						</g>
					</g>
				</g>
				<g>
					<g>
						<defs>
							<path id="SVGID_00000021088097641932342660000015091485423712929410_" d="M2074.61,2643.97
								c-13.69-49.07-26.92-126.6,6.17-200.81c57.73-129.47,191.46-103.13,301.09-247.02c88.42-116.06,48.07-194.41,151.12-276.35
								c17.25-13.72,108.11-88.75,185.09-57.87c43.38,17.4,63.11,60.67,66.82,68.79c55.99,122.74-52.04,336.17-211.18,445.71
								c-91.43,62.93-124.62,49.22-288.89,128.88C2188.31,2552.11,2117.93,2606.52,2074.61,2643.97z"/>
						</defs>
						
							<linearGradient id="SVGID_00000040560018252897491220000012395901539632430982_" gradientUnits="userSpaceOnUse" x1="2544.9062" y1="1933.707" x2="2300.5195" y2="2662.8621">
							<stop  offset="0" style="stop-color:#FF9085"/>
							<stop  offset="1" style="stop-color:#FB6FBB"/>
						</linearGradient>
						
							<use xlink:href="#SVGID_00000021088097641932342660000015091485423712929410_"  style="overflow:visible;fill:url(#SVGID_00000040560018252897491220000012395901539632430982_);"/>
						<clipPath id="SVGID_00000170253056244059707930000006533264458894200243_">
							<use xlink:href="#SVGID_00000021088097641932342660000015091485423712929410_"  style="overflow:visible;"/>
						</clipPath>
						<g style="clip-path:url(#SVGID_00000170253056244059707930000006533264458894200243_);">
							<path class="st7" d="M2066.7,2705.67l-2.15-0.21c11.89-122.19,50.36-207.6,114.33-253.86
								c31.32-22.65,57.58-28.54,85.37-34.79c29.85-6.7,60.73-13.64,99.27-43.06c37.45-28.59,49.29-53.5,64.28-85.03
								c13.49-28.39,30.29-63.72,71.26-112.81c35.91-43.02,63.16-64.29,87.2-83.05c26.02-20.31,46.57-36.35,68.44-72.55
								c35.74-59.13,49.91-131.52,42.12-215.14l2.16-0.2c7.83,84.1-6.44,156.93-42.42,216.46c-22.08,36.54-42.77,52.69-68.96,73.13
								c-23.95,18.7-51.1,39.89-86.87,82.74c-40.8,48.87-57.53,84.07-70.97,112.35c-15.11,31.8-27.05,56.91-64.92,85.82
								c-38.92,29.71-70.02,36.7-100.11,43.46c-27.57,6.19-53.61,12.04-84.58,34.43C2116.7,2499.24,2078.53,2584.13,2066.7,2705.67z
								"/>
							<path class="st7" d="M2575.1,2103.11l0.3-1.42c0.37-1.72,35.95-173.24-32.49-235.07l1.45-1.61
								c66.02,59.63,36.75,218.95,33.45,235.71c174.54-14.33,251.85-154.04,252.61-155.46l1.9,1.03
								c-0.77,1.43-79.06,142.93-255.78,156.7L2575.1,2103.11z"/>
							<path class="st7" d="M2564.84,2244.94c-61.5,0-104.31-13.56-104.75-13.7l-0.89-0.29l0.15-0.92
								c14.48-88.99-19.94-209.67-20.29-210.88l2.08-0.6c0.35,1.21,34.66,121.51,20.5,210.9c6.6,1.98,49.44,14.04,108.35,13.29
								c58.93-0.73,146.52-14.75,229.2-77.38l1.31,1.73c-83.17,63-171.29,77.09-230.56,77.82
								C2568.23,2244.93,2566.53,2244.94,2564.84,2244.94z"/>
							<path class="st7" d="M2493.38,2455.8c-54.06,0-97.85-7.82-128.4-15.77c-47.34-12.32-74-27.61-74.26-27.77l-0.99-0.57
								l0.62-0.95c56.88-87.17,16.96-216.71,16.55-218.01l2.06-0.65c0.41,1.3,40.34,130.84-16.17,218.86
								c11.15,6.03,114.43,58.78,275.32,37.78l0.28,2.15C2541.67,2454.36,2516.58,2455.8,2493.38,2455.8z"/>
						</g>
					</g>
				</g>
				<g>
					<g>
						
							<linearGradient id="SVGID_00000175295092674245292540000000586213097969424263_" gradientUnits="userSpaceOnUse" x1="2064.6267" y1="2621.1846" x2="4033.7576" y2="1843.7601">
							<stop  offset="0" style="stop-color:#FFC444"/>
							<stop  offset="0.9964" style="stop-color:#F36F56"/>
						</linearGradient>
						<path style="fill:url(#SVGID_00000175295092674245292540000000586213097969424263_);" d="M2085.74,2497.03
							c30.16-16.59,79.08-39.96,142.79-54.24c113.33-25.39,160.38,3.36,211.94-37.01c53.37-41.8,28.19-92.37,91.62-138.58
							c5.33-3.89,73.27-52.03,126.15-24.65c36.99,19.16,46.76,64.99,51.34,86.49c17.78,83.46-12.96,203.65-105.74,253.54
							c-87.97,47.3-187.3,7.68-218.81-5.13c-55.28-22.48-66.13-46.39-122.54-67.51C2193.89,2484.27,2128.84,2489.28,2085.74,2497.03
							z"/>
					</g>
					<g>
						<defs>
							<path id="SVGID_00000067941626056691899240000003214915073215354036_" d="M2085.74,2497.03
								c30.16-16.59,79.08-39.96,142.79-54.24c113.33-25.39,160.38,3.36,211.94-37.01c53.37-41.8,28.19-92.37,91.62-138.58
								c5.33-3.89,73.27-52.03,126.15-24.65c36.99,19.16,46.76,64.99,51.34,86.49c17.78,83.46-12.96,203.65-105.74,253.54
								c-87.97,47.3-187.3,7.68-218.81-5.13c-55.28-22.48-66.13-46.39-122.54-67.51
								C2193.89,2484.27,2128.84,2489.28,2085.74,2497.03z"/>
						</defs>
						<clipPath id="SVGID_00000101094091097856929500000017052681529763519627_">
							<use xlink:href="#SVGID_00000067941626056691899240000003214915073215354036_"  style="overflow:visible;"/>
						</clipPath>
						<g style="clip-path:url(#SVGID_00000101094091097856929500000017052681529763519627_);">
							<defs>
								<path id="SVGID_00000114050514934253795060000005338247018592763018_" d="M2060.84,2512.45l-1.06-1.89
									c73.62-41.31,142.48-56.64,204.69-45.57c27.2,4.84,45.67,13.26,63.54,21.4c22.31,10.16,43.38,19.76,79.91,22.64
									c65.73,5.18,124.24-10.27,164.72-43.49c62.69-51.46,86.8-147.59,61.44-244.91l2.09-0.55
									c25.58,98.13,1.18,195.14-62.16,247.13c-40.91,33.58-99.95,49.19-166.27,43.98c-36.91-2.91-58.15-12.58-80.64-22.83
									c-17.74-8.08-36.09-16.44-63.02-21.24C2202.41,2456.14,2134.02,2471.39,2060.84,2512.45z"/>
							</defs>
							<defs>
								<path id="SVGID_00000157303836169377250850000016828513670566077829_" d="M2603.81,2432.61l0.32-1.63
									c20.93-105.72-101.34-180.5-102.57-181.25l1.11-1.85c1.25,0.75,123.53,75.55,103.9,181.86
									c13.79-3.54,110.95-31.1,126.24-106.45l2.12,0.43c-16.66,82.11-128.37,108.28-129.5,108.53L2603.81,2432.61z"/>
							</defs>
							<defs>
								<path id="SVGID_00000075874757625186662160000004519913687255824545_" d="M2597.88,2558.73c-29.01,0-53.14-4.89-71.78-10.85
									c-43.82-14.03-67.69-36.91-67.93-37.14l-0.76-0.74l0.72-0.77c72.84-78.53,10.02-190.68,9.38-191.81l1.88-1.08
									c0.65,1.13,63.83,113.9-8.93,193.56c4.4,3.96,27.39,23.49,66.42,35.96c40.03,12.79,105.61,20.54,190.69-15.13l0.84,2
									C2672.22,2552.08,2631.73,2558.73,2597.88,2558.73z"/>
							</defs>
							<use xlink:href="#SVGID_00000114050514934253795060000005338247018592763018_"  style="overflow:visible;fill:#FFFFFF;"/>
							<use xlink:href="#SVGID_00000157303836169377250850000016828513670566077829_"  style="overflow:visible;fill:#FFFFFF;"/>
							<use xlink:href="#SVGID_00000075874757625186662160000004519913687255824545_"  style="overflow:visible;fill:#FFFFFF;"/>
							<clipPath id="SVGID_00000114047951715337744760000011130744125750138511_">
								<use xlink:href="#SVGID_00000114050514934253795060000005338247018592763018_"  style="overflow:visible;"/>
							</clipPath>
							
								<clipPath id="SVGID_00000015330571052667002230000013913022079549009035_" style="clip-path:url(#SVGID_00000114047951715337744760000011130744125750138511_);">
								<use xlink:href="#SVGID_00000157303836169377250850000016828513670566077829_"  style="overflow:visible;"/>
							</clipPath>
							
								<clipPath id="SVGID_00000120526899657047584920000004519818544178982553_" style="clip-path:url(#SVGID_00000015330571052667002230000013913022079549009035_);">
								<use xlink:href="#SVGID_00000075874757625186662160000004519913687255824545_"  style="overflow:visible;"/>
							</clipPath>
						</g>
					</g>
				</g>
			</g>
		</g>
		<g>
			<path class="st21" d="M2517.92,2623.7l-1139.9,393.17l-693.88-121.29c-21.61-3.78-37.38-22.54-37.38-44.48v-222.42
				c0-22.78,18.08-41.45,40.85-42.16l1240.48-39.16L2517.92,2623.7z"/>
			<polygon class="st22" points="689.3,2608.7 1352.34,2726.18 1352.34,2992.55 689.3,2877.47 			"/>
			<g>
				<path class="st7" d="M1334.77,2979.61v-249.46c0-22.36,19.38-41.58,43.24-42.93l1131.61-63.97c20.96-1.18,37.9,14.79,37.9,35.68
					v233.03c0,20.89-16.95,39.08-37.9,40.64l-1131.61,84.27C1354.16,3018.65,1334.77,3001.97,1334.77,2979.61z"/>
				<path class="st21" d="M1451.77,2761.02c0,14.96-12.91,27.89-28.85,28.88c-15.98,0.99-28.95-10.36-28.95-25.37
					c0-15.01,12.97-27.94,28.95-28.89C1438.86,2734.7,1451.77,2746.06,1451.77,2761.02z"/>
				<path class="st21" d="M1542.66,2755.5c0,14.88-12.78,27.75-28.57,28.73c-15.82,0.98-28.66-10.32-28.66-25.25
					s12.84-27.8,28.66-28.73C1529.88,2729.31,1542.66,2740.61,1542.66,2755.5z"/>
				<path class="st21" d="M1632.66,2750.03c0,14.81-12.65,27.6-28.29,28.58c-15.66,0.97-28.37-10.28-28.37-25.13
					c0-14.86,12.71-27.65,28.37-28.58C1620,2723.96,1632.66,2735.22,1632.66,2750.03z"/>
				
					<linearGradient id="SVGID_00000046313214951197968170000008003353227347174575_" gradientUnits="userSpaceOnUse" x1="1847.8727" y1="2672.4197" x2="2339.0229" y2="2947.6663">
					<stop  offset="0" style="stop-color:#444B8C"/>
					<stop  offset="0.9964" style="stop-color:#26264F"/>
				</linearGradient>
				<polygon style="fill:url(#SVGID_00000046313214951197968170000008003353227347174575_);" points="2487.22,2884.42 
					1688.96,2941.56 1688.96,2719.87 2487.22,2672.53 				"/>
				<g class="st24">
					<polygon class="st7" points="1768.03,2920.32 1743.56,2922.05 1743.56,2743.28 1768.03,2741.8 					"/>
					<polygon class="st7" points="1811.35,2917.26 1787.01,2918.98 1787.01,2740.64 1811.35,2739.16 					"/>
					<polygon class="st7" points="1854.47,2914.21 1830.24,2915.92 1830.24,2738.02 1854.47,2736.54 					"/>
					<polygon class="st7" points="1897.38,2911.17 1873.27,2912.88 1873.27,2735.4 1897.38,2733.93 					"/>
					<polygon class="st7" points="1940.08,2908.15 1916.09,2909.85 1916.09,2732.8 1940.08,2731.34 					"/>
					<polygon class="st7" points="1982.58,2905.15 1958.7,2906.83 1958.7,2730.21 1982.58,2728.75 					"/>
					<polygon class="st7" points="2024.88,2902.15 2001.11,2903.84 2001.11,2727.63 2024.88,2726.18 					"/>
					<polygon class="st7" points="2066.98,2899.18 2043.32,2900.85 2043.32,2725.06 2066.98,2723.62 					"/>
					<polygon class="st7" points="2108.88,2896.22 2085.33,2897.88 2085.33,2722.51 2108.88,2721.08 					"/>
					<polygon class="st7" points="2150.58,2893.27 2127.15,2894.92 2127.15,2719.97 2150.58,2718.54 					"/>
					<polygon class="st7" points="2192.08,2890.33 2168.76,2891.98 2168.76,2717.44 2192.08,2716.02 					"/>
					<polygon class="st7" points="2233.39,2887.41 2210.18,2889.05 2210.18,2714.92 2233.39,2713.51 					"/>
					<polygon class="st7" points="2274.5,2884.5 2251.4,2886.14 2251.4,2712.41 2274.5,2711.01 					"/>
					<polygon class="st7" points="2315.42,2881.61 2292.43,2883.23 2292.43,2709.92 2315.42,2708.52 					"/>
					<polygon class="st7" points="2356.15,2878.73 2333.27,2880.35 2333.27,2707.44 2356.15,2706.05 					"/>
					<polygon class="st7" points="2396.69,2875.86 2373.91,2877.47 2373.91,2704.97 2396.69,2703.58 					"/>
					<polygon class="st7" points="2437.05,2873.01 2414.37,2874.61 2414.37,2702.51 2437.05,2701.13 					"/>
				</g>
				<g class="st25">
					
						<linearGradient id="SVGID_00000142895019898931375970000001181431663840382380_" gradientUnits="userSpaceOnUse" x1="1751.411" y1="2778.3667" x2="1764.5732" y2="2979.0925">
						<stop  offset="0" style="stop-color:#FF9085"/>
						<stop  offset="1" style="stop-color:#FB6FBB"/>
					</linearGradient>
					<polygon style="fill:url(#SVGID_00000142895019898931375970000001181431663840382380_);" points="1768.03,2920.32 
						1743.56,2922.05 1743.56,2769.94 1768.03,2768.41 					"/>
					
						<linearGradient id="SVGID_00000182504527467978267560000008149682486772203167_" gradientUnits="userSpaceOnUse" x1="1798.6322" y1="2900.6479" x2="1800.2217" y2="2924.8867">
						<stop  offset="0" style="stop-color:#FF9085"/>
						<stop  offset="1" style="stop-color:#FB6FBB"/>
					</linearGradient>
					<polygon style="fill:url(#SVGID_00000182504527467978267560000008149682486772203167_);" points="1811.35,2917.26 
						1787.01,2918.98 1787.01,2900.71 1811.35,2899.01 					"/>
					
						<linearGradient id="SVGID_00000106826337750872153490000003739708633316770718_" gradientUnits="userSpaceOnUse" x1="1839.1644" y1="2814.6733" x2="1848.1305" y2="2951.407">
						<stop  offset="0" style="stop-color:#FF9085"/>
						<stop  offset="1" style="stop-color:#FB6FBB"/>
					</linearGradient>
					<polygon style="fill:url(#SVGID_00000106826337750872153490000003739708633316770718_);" points="1854.47,2914.21 
						1830.24,2915.92 1830.24,2812.3 1854.47,2810.73 					"/>
					
						<linearGradient id="SVGID_00000106125425236846481790000002347994612377183405_" gradientUnits="userSpaceOnUse" x1="1883.9022" y1="2868.0745" x2="1887.7705" y2="2927.0654">
						<stop  offset="0" style="stop-color:#FF9085"/>
						<stop  offset="1" style="stop-color:#FB6FBB"/>
					</linearGradient>
					<polygon style="fill:url(#SVGID_00000106125425236846481790000002347994612377183405_);" points="1897.38,2911.17 
						1873.27,2912.88 1873.27,2868.24 1897.38,2866.59 					"/>
					
						<linearGradient id="SVGID_00000001653148031150356880000005120642506467161505_" gradientUnits="userSpaceOnUse" x1="1924.3469" y1="2795.0439" x2="1934.217" y2="2945.5647">
						<stop  offset="0" style="stop-color:#FF9085"/>
						<stop  offset="1" style="stop-color:#FB6FBB"/>
					</linearGradient>
					<polygon style="fill:url(#SVGID_00000001653148031150356880000005120642506467161505_);" points="1940.08,2908.15 
						1916.09,2909.85 1916.09,2795.78 1940.08,2794.24 					"/>
					
						<linearGradient id="SVGID_00000029045059253040728360000000648640086009330866_" gradientUnits="userSpaceOnUse" x1="1967.9939" y1="2826.417" x2="1974.7853" y2="2929.9861">
						<stop  offset="0" style="stop-color:#FF9085"/>
						<stop  offset="1" style="stop-color:#FB6FBB"/>
					</linearGradient>
					<polygon style="fill:url(#SVGID_00000029045059253040728360000000648640086009330866_);" points="1982.58,2905.15 
						1958.7,2906.83 1958.7,2828.37 1982.58,2826.78 					"/>
					
						<linearGradient id="SVGID_00000183962328768435018070000011682983361741814401_" gradientUnits="userSpaceOnUse" x1="2008.2737" y1="2763.0688" x2="2020.0374" y2="2942.4661">
						<stop  offset="0" style="stop-color:#FF9085"/>
						<stop  offset="1" style="stop-color:#FB6FBB"/>
					</linearGradient>
					<polygon style="fill:url(#SVGID_00000183962328768435018070000011682983361741814401_);" points="2024.88,2902.15 
						2001.11,2903.84 2001.11,2767.89 2024.88,2766.39 					"/>
					
						<linearGradient id="SVGID_00000067944771616038742210000017979120329423665309_" gradientUnits="userSpaceOnUse" x1="2049.8057" y1="2743.7988" x2="2062.7488" y2="2941.1821">
						<stop  offset="0" style="stop-color:#FF9085"/>
						<stop  offset="1" style="stop-color:#FB6FBB"/>
					</linearGradient>
					<polygon style="fill:url(#SVGID_00000067944771616038742210000017979120329423665309_);" points="2066.98,2899.18 
						2043.32,2900.85 2043.32,2751.27 2066.98,2749.8 					"/>
					
						<linearGradient id="SVGID_00000014601161007894914110000018056593264102579610_" gradientUnits="userSpaceOnUse" x1="2094.366" y1="2818.0081" x2="2100.824" y2="2916.4941">
						<stop  offset="0" style="stop-color:#FF9085"/>
						<stop  offset="1" style="stop-color:#FB6FBB"/>
					</linearGradient>
					<polygon style="fill:url(#SVGID_00000014601161007894914110000018056593264102579610_);" points="2108.88,2896.22 
						2085.33,2897.88 2085.33,2823.27 2108.88,2821.7 					"/>
					
						<linearGradient id="SVGID_00000139262962675958315650000012253388533829778589_" gradientUnits="userSpaceOnUse" x1="2132.7141" y1="2718.9707" x2="2146.8164" y2="2934.0337">
						<stop  offset="0" style="stop-color:#FF9085"/>
						<stop  offset="1" style="stop-color:#FB6FBB"/>
					</linearGradient>
					<polygon style="fill:url(#SVGID_00000139262962675958315650000012253388533829778589_);" points="2150.58,2893.27 
						2127.15,2894.92 2127.15,2731.95 2150.58,2730.51 					"/>
					
						<linearGradient id="SVGID_00000065071303855523677240000003271799100285833398_" gradientUnits="userSpaceOnUse" x1="2175.0601" y1="2740.2839" x2="2187.0422" y2="2923.012">
						<stop  offset="0" style="stop-color:#FF9085"/>
						<stop  offset="1" style="stop-color:#FB6FBB"/>
					</linearGradient>
					<polygon style="fill:url(#SVGID_00000065071303855523677240000003271799100285833398_);" points="2192.08,2890.33 
						2168.76,2891.98 2168.76,2753.51 2192.08,2752.04 					"/>
					
						<linearGradient id="SVGID_00000066481376554627534640000003280170645301925777_" gradientUnits="userSpaceOnUse" x1="2220.3098" y1="2847.2791" x2="2223.521" y2="2896.2532">
						<stop  offset="0" style="stop-color:#FF9085"/>
						<stop  offset="1" style="stop-color:#FB6FBB"/>
					</linearGradient>
					<polygon style="fill:url(#SVGID_00000066481376554627534640000003280170645301925777_);" points="2233.39,2887.41 
						2210.18,2889.05 2210.18,2852.01 2233.39,2850.42 					"/>
					
						<linearGradient id="SVGID_00000105402037657384099960000003574200673949375414_" gradientUnits="userSpaceOnUse" x1="2259.4189" y1="2788.0811" x2="2266.9355" y2="2902.7073">
						<stop  offset="0" style="stop-color:#FF9085"/>
						<stop  offset="1" style="stop-color:#FB6FBB"/>
					</linearGradient>
					<polygon style="fill:url(#SVGID_00000105402037657384099960000003574200673949375414_);" points="2274.5,2884.5 
						2251.4,2886.14 2251.4,2799.27 2274.5,2797.76 					"/>
					
						<linearGradient id="SVGID_00000128474480959925871120000017573332765068721032_" gradientUnits="userSpaceOnUse" x1="2298.7227" y1="2740.7051" x2="2309.5298" y2="2905.5142">
						<stop  offset="0" style="stop-color:#FF9085"/>
						<stop  offset="1" style="stop-color:#FB6FBB"/>
					</linearGradient>
					<polygon style="fill:url(#SVGID_00000128474480959925871120000017573332765068721032_);" points="2315.42,2881.61 
						2292.43,2883.23 2292.43,2758.34 2315.42,2756.88 					"/>
					
						<linearGradient id="SVGID_00000140015102917733610860000002280535459335993530_" gradientUnits="userSpaceOnUse" x1="2340.8357" y1="2775.0764" x2="2348.6985" y2="2894.9854">
						<stop  offset="0" style="stop-color:#FF9085"/>
						<stop  offset="1" style="stop-color:#FB6FBB"/>
					</linearGradient>
					<polygon style="fill:url(#SVGID_00000140015102917733610860000002280535459335993530_);" points="2356.15,2878.73 
						2333.27,2880.35 2333.27,2789.48 2356.15,2787.98 					"/>
					
						<linearGradient id="SVGID_00000039104651766773643790000013861900980824651397_" gradientUnits="userSpaceOnUse" x1="2379.167" y1="2712.8599" x2="2391.335" y2="2898.4221">
						<stop  offset="0" style="stop-color:#FF9085"/>
						<stop  offset="1" style="stop-color:#FB6FBB"/>
					</linearGradient>
					<polygon style="fill:url(#SVGID_00000039104651766773643790000013861900980824651397_);" points="2396.69,2875.86 
						2373.91,2877.47 2373.91,2736.85 2396.69,2735.42 					"/>
					
						<linearGradient id="SVGID_00000134972382612175566210000010922736223414784898_" gradientUnits="userSpaceOnUse" x1="2418.749" y1="2689.8025" x2="2432.2424" y2="2895.5781">
						<stop  offset="0" style="stop-color:#FF9085"/>
						<stop  offset="1" style="stop-color:#FB6FBB"/>
					</linearGradient>
					<polygon style="fill:url(#SVGID_00000134972382612175566210000010922736223414784898_);" points="2437.05,2873.01 
						2414.37,2874.61 2414.37,2718.67 2437.05,2717.27 					"/>
				</g>
			</g>
			<path class="st21" d="M682.09,2561.25l676.24,111.27l1159.76-364.61c3.22-1.01,2.74-5.72-0.62-6.01
				c-100.14-8.69-652.53-56.59-655.6-56.55l-1170.54,39.48c-24.71,0.31-44.58,20.43-44.58,45.15v189.65
				C646.75,2540.28,661.71,2557.9,682.09,2561.25z"/>
			<path class="st22" d="M689.3,2317.31l680.77,62.5v275.37c0,0-680.77-97.43-680.77-110.76
				C689.3,2531.08,689.3,2317.31,689.3,2317.31z"/>
			<g>
				<path class="st7" d="M1334.77,2637.83v-249.46c0-22.36,19.38-41.22,43.24-42.13l1131.61-42.96c20.96-0.8,37.9,15.49,37.9,36.38
					v233.03c0,20.89-16.95,38.77-37.9,39.94l-1131.61,63.27C1354.16,2677.23,1334.77,2660.19,1334.77,2637.83z"/>
				<path class="st21" d="M1451.77,2421.41c0,14.96-12.91,27.65-28.85,28.35c-15.98,0.7-28.95-10.9-28.95-25.9
					c0-15.01,12.97-27.7,28.95-28.35C1438.86,2394.85,1451.77,2406.45,1451.77,2421.41z"/>
				<path class="st21" d="M1542.66,2417.57c0,14.88-12.78,27.51-28.57,28.2c-15.82,0.69-28.66-10.85-28.66-25.78
					c0-14.93,12.84-27.56,28.66-28.2C1529.88,2391.15,1542.66,2402.69,1542.66,2417.57z"/>
				<path class="st21" d="M1632.66,2413.77c0,14.81-12.65,27.37-28.29,28.05c-15.66,0.68-28.37-10.8-28.37-25.66
					c0-14.86,12.71-27.42,28.37-28.06C1620,2387.47,1632.66,2398.96,1632.66,2413.77z"/>
				
					<linearGradient id="SVGID_00000181071931756389168100000015028484230997407397_" gradientUnits="userSpaceOnUse" x1="1845.6522" y1="2343.3762" x2="2341.3821" y2="2621.1892">
					<stop  offset="0" style="stop-color:#444B8C"/>
					<stop  offset="0.9964" style="stop-color:#26264F"/>
				</linearGradient>
				<polygon style="fill:url(#SVGID_00000181071931756389168100000015028484230997407397_);" points="2487.22,2564.03 
					1688.96,2606.35 1688.96,2384.66 2487.22,2352.14 				"/>
				<g class="st24">
					<polygon class="st7" points="1768.03,2586.58 1743.56,2587.86 1743.56,2409.09 1768.03,2408.06 					"/>
					<polygon class="st7" points="1811.35,2584.32 1787.01,2585.59 1787.01,2407.26 1811.35,2406.23 					"/>
					<polygon class="st7" points="1854.47,2582.07 1830.24,2583.33 1830.24,2405.43 1854.47,2404.41 					"/>
					<polygon class="st7" points="1897.38,2579.83 1873.27,2581.09 1873.27,2403.61 1897.38,2402.6 					"/>
					<polygon class="st7" points="1940.08,2577.61 1916.09,2578.86 1916.09,2401.81 1940.08,2400.79 					"/>
					<polygon class="st7" points="1982.58,2575.39 1958.7,2576.63 1958.7,2400.01 1982.58,2399 					"/>
					<polygon class="st7" points="2024.88,2573.18 2001.11,2574.42 2001.11,2398.21 2024.88,2397.21 					"/>
					<polygon class="st7" points="2066.98,2570.99 2043.32,2572.22 2043.32,2396.43 2066.98,2395.43 					"/>
					<polygon class="st7" points="2108.88,2568.8 2085.33,2570.03 2085.33,2394.66 2108.88,2393.66 					"/>
					<polygon class="st7" points="2150.58,2566.63 2127.15,2567.85 2127.15,2392.89 2150.58,2391.9 					"/>
					<polygon class="st7" points="2192.08,2564.46 2168.76,2565.68 2168.76,2391.14 2192.08,2390.15 					"/>
					<polygon class="st7" points="2233.39,2562.31 2210.18,2563.52 2210.18,2389.39 2233.39,2388.41 					"/>
					<polygon class="st7" points="2274.5,2560.16 2251.4,2561.37 2251.4,2387.65 2274.5,2386.67 					"/>
					<polygon class="st7" points="2315.42,2558.03 2292.43,2559.23 2292.43,2385.91 2315.42,2384.94 					"/>
					<polygon class="st7" points="2356.15,2555.9 2333.27,2557.1 2333.27,2384.19 2356.15,2383.22 					"/>
					<polygon class="st7" points="2396.69,2553.79 2373.91,2554.98 2373.91,2382.47 2396.69,2381.51 					"/>
					<polygon class="st7" points="2437.05,2551.69 2414.37,2552.87 2414.37,2380.76 2437.05,2379.81 					"/>
				</g>
				<g class="st25">
					
						<linearGradient id="SVGID_00000165923887717331906060000013015813920402121387_" gradientUnits="userSpaceOnUse" x1="1751.3975" y1="2444.1936" x2="1764.5881" y2="2645.3518">
						<stop  offset="0" style="stop-color:#FF9085"/>
						<stop  offset="1" style="stop-color:#FB6FBB"/>
					</linearGradient>
					<polygon style="fill:url(#SVGID_00000165923887717331906060000013015813920402121387_);" points="1768.03,2586.58 
						1743.56,2587.86 1743.56,2435.74 1768.03,2434.67 					"/>
					
						<linearGradient id="SVGID_00000109718800254820830660000012679753870001612418_" gradientUnits="userSpaceOnUse" x1="1798.6246" y1="2567.3711" x2="1800.2336" y2="2591.9097">
						<stop  offset="0" style="stop-color:#FF9085"/>
						<stop  offset="1" style="stop-color:#FB6FBB"/>
					</linearGradient>
					<polygon style="fill:url(#SVGID_00000109718800254820830660000012679753870001612418_);" points="1811.35,2584.32 
						1787.01,2585.59 1787.01,2567.32 1811.35,2566.08 					"/>
					
						<linearGradient id="SVGID_00000033363363539932244190000002827909871640640188_" gradientUnits="userSpaceOnUse" x1="1839.1504" y1="2482.0991" x2="1848.1445" y2="2619.2612">
						<stop  offset="0" style="stop-color:#FF9085"/>
						<stop  offset="1" style="stop-color:#FB6FBB"/>
					</linearGradient>
					<polygon style="fill:url(#SVGID_00000033363363539932244190000002827909871640640188_);" points="1854.47,2582.07 
						1830.24,2583.33 1830.24,2479.72 1854.47,2478.59 					"/>
					
						<linearGradient id="SVGID_00000104694187251831417120000011086624359001146804_" gradientUnits="userSpaceOnUse" x1="1883.8921" y1="2536.3564" x2="1887.7827" y2="2595.6902">
						<stop  offset="0" style="stop-color:#FF9085"/>
						<stop  offset="1" style="stop-color:#FB6FBB"/>
					</linearGradient>
					<polygon style="fill:url(#SVGID_00000104694187251831417120000011086624359001146804_);" points="1897.38,2579.83 
						1873.27,2581.09 1873.27,2536.45 1897.38,2535.25 					"/>
					
						<linearGradient id="SVGID_00000027568985353129172760000014768463838439826876_" gradientUnits="userSpaceOnUse" x1="1924.3323" y1="2464.0527" x2="1934.2303" y2="2614.999">
						<stop  offset="0" style="stop-color:#FF9085"/>
						<stop  offset="1" style="stop-color:#FB6FBB"/>
					</linearGradient>
					<polygon style="fill:url(#SVGID_00000027568985353129172760000014768463838439826876_);" points="1940.08,2577.61 
						1916.09,2578.86 1916.09,2464.79 1940.08,2463.69 					"/>
					
						<linearGradient id="SVGID_00000101074470057213267070000012816854705771341717_" gradientUnits="userSpaceOnUse" x1="1967.9802" y1="2496.2297" x2="1974.7979" y2="2600.1985">
						<stop  offset="0" style="stop-color:#FF9085"/>
						<stop  offset="1" style="stop-color:#FB6FBB"/>
					</linearGradient>
					<polygon style="fill:url(#SVGID_00000101074470057213267070000012816854705771341717_);" points="1982.58,2575.39 
						1958.7,2576.63 1958.7,2498.17 1982.58,2497.03 					"/>
					
						<linearGradient id="SVGID_00000126304932906739310250000006401140827514815119_" gradientUnits="userSpaceOnUse" x1="2008.2587" y1="2433.6467" x2="2020.0499" y2="2613.4644">
						<stop  offset="0" style="stop-color:#FF9085"/>
						<stop  offset="1" style="stop-color:#FB6FBB"/>
					</linearGradient>
					<polygon style="fill:url(#SVGID_00000126304932906739310250000006401140827514815119_);" points="2024.88,2573.18 
						2001.11,2574.42 2001.11,2438.47 2024.88,2437.42 					"/>
					
						<linearGradient id="SVGID_00000036231493508174587330000003285868515803324319_" gradientUnits="userSpaceOnUse" x1="2049.7903" y1="2415.1548" x2="2062.7607" y2="2612.9578">
						<stop  offset="0" style="stop-color:#FF9085"/>
						<stop  offset="1" style="stop-color:#FB6FBB"/>
					</linearGradient>
					<polygon style="fill:url(#SVGID_00000036231493508174587330000003285868515803324319_);" points="2066.98,2570.99 
						2043.32,2572.22 2043.32,2422.64 2066.98,2421.61 					"/>
					
						<linearGradient id="SVGID_00000166647149589509381340000013271564299319548850_" gradientUnits="userSpaceOnUse" x1="2094.3518" y1="2490.1624" x2="2100.8354" y2="2589.0364">
						<stop  offset="0" style="stop-color:#FF9085"/>
						<stop  offset="1" style="stop-color:#FB6FBB"/>
					</linearGradient>
					<polygon style="fill:url(#SVGID_00000166647149589509381340000013271564299319548850_);" points="2108.88,2568.8 
						2085.33,2570.03 2085.33,2495.42 2108.88,2494.29 					"/>
					
						<linearGradient id="SVGID_00000136413822327916290520000004807215395997166746_" gradientUnits="userSpaceOnUse" x1="2132.6982" y1="2391.8735" x2="2146.8279" y2="2607.3511">
						<stop  offset="0" style="stop-color:#FF9085"/>
						<stop  offset="1" style="stop-color:#FB6FBB"/>
					</linearGradient>
					<polygon style="fill:url(#SVGID_00000136413822327916290520000004807215395997166746_);" points="2150.58,2566.63 
						2127.15,2567.85 2127.15,2404.87 2150.58,2403.87 					"/>
					
						<linearGradient id="SVGID_00000069380323975317447730000000158915618566013858_" gradientUnits="userSpaceOnUse" x1="2175.0442" y1="2413.9543" x2="2187.0532" y2="2597.0957">
						<stop  offset="0" style="stop-color:#FF9085"/>
						<stop  offset="1" style="stop-color:#FB6FBB"/>
					</linearGradient>
					<polygon style="fill:url(#SVGID_00000069380323975317447730000000158915618566013858_);" points="2192.08,2564.46 
						2168.76,2565.68 2168.76,2427.2 2192.08,2426.17 					"/>
					
						<linearGradient id="SVGID_00000150822443980644439250000002290261975204759218_" gradientUnits="userSpaceOnUse" x1="2220.2986" y1="2521.7913" x2="2223.5308" y2="2571.0833">
						<stop  offset="0" style="stop-color:#FF9085"/>
						<stop  offset="1" style="stop-color:#FB6FBB"/>
					</linearGradient>
					<polygon style="fill:url(#SVGID_00000150822443980644439250000002290261975204759218_);" points="2233.39,2562.31 
						2210.18,2563.52 2210.18,2526.48 2233.39,2525.31 					"/>
					
						<linearGradient id="SVGID_00000113313233746553507110000004595121630539614393_" gradientUnits="userSpaceOnUse" x1="2259.4028" y1="2463.2805" x2="2266.9458" y2="2578.3108">
						<stop  offset="0" style="stop-color:#FF9085"/>
						<stop  offset="1" style="stop-color:#FB6FBB"/>
					</linearGradient>
					<polygon style="fill:url(#SVGID_00000113313233746553507110000004595121630539614393_);" points="2274.5,2560.16 
						2251.4,2561.37 2251.4,2474.51 2274.5,2473.42 					"/>
					
						<linearGradient id="SVGID_00000079457694622439908910000008888759824379763902_" gradientUnits="userSpaceOnUse" x1="2298.7061" y1="2416.6572" x2="2309.5398" y2="2581.8735">
						<stop  offset="0" style="stop-color:#FF9085"/>
						<stop  offset="1" style="stop-color:#FB6FBB"/>
					</linearGradient>
					<polygon style="fill:url(#SVGID_00000079457694622439908910000008888759824379763902_);" points="2315.42,2558.03 
						2292.43,2559.23 2292.43,2434.33 2315.42,2433.3 					"/>
					
						<linearGradient id="SVGID_00000083088287066875721180000001281657657164270733_" gradientUnits="userSpaceOnUse" x1="2340.8188" y1="2451.7822" x2="2348.708" y2="2572.0957">
						<stop  offset="0" style="stop-color:#FF9085"/>
						<stop  offset="1" style="stop-color:#FB6FBB"/>
					</linearGradient>
					<polygon style="fill:url(#SVGID_00000083088287066875721180000001281657657164270733_);" points="2356.15,2555.9 
						2333.27,2557.1 2333.27,2466.23 2356.15,2465.16 					"/>
					
						<linearGradient id="SVGID_00000079458494044918022950000002606573058363515830_" gradientUnits="userSpaceOnUse" x1="2379.1499" y1="2390.3159" x2="2391.3442" y2="2576.281">
						<stop  offset="0" style="stop-color:#FF9085"/>
						<stop  offset="1" style="stop-color:#FB6FBB"/>
					</linearGradient>
					<polygon style="fill:url(#SVGID_00000079458494044918022950000002606573058363515830_);" points="2396.69,2553.79 
						2373.91,2554.98 2373.91,2414.36 2396.69,2413.35 					"/>
					
						<linearGradient id="SVGID_00000163752944004108220620000012788363382578556343_" gradientUnits="userSpaceOnUse" x1="2418.7314" y1="2368.0042" x2="2432.2512" y2="2574.1824">
						<stop  offset="0" style="stop-color:#FF9085"/>
						<stop  offset="1" style="stop-color:#FB6FBB"/>
					</linearGradient>
					<polygon style="fill:url(#SVGID_00000163752944004108220620000012788363382578556343_);" points="2437.05,2551.69 
						2414.37,2552.87 2414.37,2396.93 2437.05,2395.95 					"/>
				</g>
			</g>
		</g>
		<g>
			<g>
				<g>
					
						<linearGradient id="SVGID_00000083068741495566490220000013252886325465020309_" gradientUnits="userSpaceOnUse" x1="3272.4407" y1="2799.4834" x2="2841.1077" y2="2431.5364">
						<stop  offset="0" style="stop-color:#444B8C"/>
						<stop  offset="0.9964" style="stop-color:#26264F"/>
					</linearGradient>
					<path style="fill:url(#SVGID_00000083068741495566490220000013252886325465020309_);" d="M3162.59,2010.7v929.01
						c0,13.89-11.85,17.05-25.28,17.67l-449.48,29.48l-6.65,0.31c-13.64,0.63-24.81-10.32-24.81-24.33v-936.99
						c0-14.01,11.16-25.81,24.81-26.21l9.03-0.27l451.27,7.53C3154.91,2006.52,3162.59,1996.81,3162.59,2010.7z"/>
					
						<linearGradient id="SVGID_00000173854848917678117880000002684426176768469660_" gradientUnits="userSpaceOnUse" x1="-1204.2444" y1="4295.5479" x2="441.8642" y2="4356.7817" gradientTransform="matrix(0 -1 1 0 -1389.0323 1734.3226)">
						<stop  offset="0" style="stop-color:#444B8C"/>
						<stop  offset="0.9964" style="stop-color:#26264F"/>
					</linearGradient>
					<path style="fill:url(#SVGID_00000173854848917678117880000002684426176768469660_);" d="M3176.96,2009.82v929.68
						c0,13.9-11,25.78-24.44,26.4L2694.86,2987c-13.66,0.63-24.84-10.33-24.84-24.35v-937.64c0-14.02,11.18-25.82,24.84-26.23
						l457.65-13.51C3165.96,1984.87,3176.96,1995.92,3176.96,2009.82z"/>
					
						<linearGradient id="SVGID_00000155111874407970495700000002872995159991851959_" gradientUnits="userSpaceOnUse" x1="3067.572" y1="2305.927" x2="2518.0974" y2="3044.7334">
						<stop  offset="3.597120e-03" style="stop-color:#E38DDD"/>
						<stop  offset="1" style="stop-color:#9571F6"/>
					</linearGradient>
					<path style="fill:url(#SVGID_00000155111874407970495700000002872995159991851959_);" d="M3161.77,2061.82v860.59
						c0,12.97-10.26,24.05-22.81,24.63l-430.35,19.69c-12.73,0.58-23.16-9.64-23.16-22.71V2076.5c0-13.07,10.42-24.09,23.16-24.48
						l430.35-13.09C3151.51,2038.55,3161.77,2048.85,3161.77,2061.82z"/>
				</g>
				<path class="st64" d="M2933.07,2019.93c0,4.84-3.81,8.88-8.5,9.02c-4.7,0.14-8.51-3.67-8.51-8.51c0-4.84,3.81-8.88,8.51-9.02
					C2929.27,2011.29,2933.07,2015.09,2933.07,2019.93z"/>
			</g>
			<g class="st6">
				<path class="st7" d="M3028.31,2548.46c-41.73-104.9-154.19-80.12-189.23-186.13c-28.6-86.53,35.01-137.24,10.11-237.44
					c-13.97-56.22-48.35-97.99-83.5-128.19l-69.68,2.05c-14.04,0.41-25.56,12.22-25.56,26.23v936.85
					c0,14.01,11.51,24.26,25.56,22.79l350.54-36.78c-28.13-44.35-39.44-84.88-43.43-118.53
					C2988.59,2706.83,3066.54,2644.56,3028.31,2548.46z"/>
			</g>
		</g>
		<g>
			<g class="st65">
				<g>
					<path class="st66" d="M2299.53,561.46c142.71,7.48,263.4,135.24,269.52,285.32c0.58,14.28,0.07,28.27-1.38,41.87
						c24.75-9.7,52.14-14.36,81.13-12.84c117.79,6.17,217.35,111.57,222.4,235.44c4.8,117.7-77.44,209.69-186.7,213.31
						c-5.74,0.16-11.54,0.14-17.41-0.17l-976.24-54.47c-54.95-13.42-98.33-65.84-100.79-126.26
						c-2.78-68.07,47.48-120.54,112.21-117.15c13.74,0.72,27.03,3.87,39.44,9.08c-5.64-21.32-9.08-43.39-10-65.94
						c-6.33-155.16,108.11-274.7,255.66-266.97c27.42,1.44,54.05,7.22,79.3,16.58C2100.83,621.36,2190.86,555.76,2299.53,561.46z"/>
				</g>
				<g>
					
						<linearGradient id="SVGID_00000177475443964665682730000003452015605301723017_" gradientUnits="userSpaceOnUse" x1="1651.8594" y1="892.1394" x2="2933.3096" y2="892.1394">
						<stop  offset="3.597120e-03" style="stop-color:#E38DDD"/>
						<stop  offset="1" style="stop-color:#9571F6"/>
					</linearGradient>
					<path style="fill:url(#SVGID_00000177475443964665682730000003452015605301723017_);" d="M2361.43,510.72
						c142.71,7.48,263.4,135.24,269.52,285.32c0.58,14.28,0.07,28.27-1.38,41.87c24.75-9.7,52.14-14.36,81.13-12.84
						c117.79,6.17,217.35,111.57,222.4,235.44c4.8,117.7-77.44,209.69-186.7,213.31c-5.74,0.16-11.54,0.14-17.41-0.17l-976.24-54.47
						c-54.95-13.42-98.33-65.84-100.79-126.26c-2.78-68.07,47.48-120.54,112.21-117.15c13.74,0.72,27.03,3.87,39.44,9.08
						c-5.64-21.32-9.08-43.39-10-65.94c-6.33-155.16,108.11-274.7,255.66-266.97c27.42,1.44,54.05,7.22,79.3,16.58
						C2162.73,570.63,2252.77,505.02,2361.43,510.72z"/>
				</g>
			</g>
		</g>
		<g>
			
				<linearGradient id="SVGID_00000042003781078750637680000009713652659627243907_" gradientUnits="userSpaceOnUse" x1="2391.6758" y1="773.4401" x2="2058.8672" y2="1093.3243">
				<stop  offset="0" style="stop-color:#FFC444"/>
				<stop  offset="0.9964" style="stop-color:#F36F56"/>
			</linearGradient>
			<path style="fill:url(#SVGID_00000042003781078750637680000009713652659627243907_);" d="M1727.62,2269.19
				c-29.36,0.85-57.99-6.55-82.8-21.41c-75.57-45.3-187.24-120.11-287.7-218.04c-127.48-124.27-200.72-250.59-216.74-374.63
				l-0.25-1.94l-3.11-529.28c0-104.6,68.23-189.51,196.32-245.3c105.83-46.1,246.1-68.94,394.28-64.65
				c146.46,4.24,281.98,34.46,382.29,84.81c119.24,59.86,181.8,143.98,181.8,243.71l-2.84,505.73l-0.23,1.86
				c-14.64,118.78-82.03,241.56-201.14,365.72c-95.54,99.58-203.49,178.5-277.63,227.4
				C1785.35,2259.33,1756.91,2268.34,1727.62,2269.19z"/>
			
				<linearGradient id="SVGID_00000006673161326128072530000005811917435184413871_" gradientUnits="userSpaceOnUse" x1="1402.5149" y1="846.3301" x2="2533.8115" y2="2696.6404">
				<stop  offset="0" style="stop-color:#FFC444"/>
				<stop  offset="0.9964" style="stop-color:#F36F56"/>
			</linearGradient>
			<path style="fill:url(#SVGID_00000006673161326128072530000005811917435184413871_);" d="M1756.68,2269.19
				c-28.97,0.85-57.23-6.55-81.71-21.41c-74.57-45.3-184.76-120.11-283.9-218.04c-125.79-124.27-198.07-250.59-213.88-374.63
				l-0.25-1.94l-3.07-529.28c0-104.6,67.32-189.51,193.72-245.3c104.43-46.1,242.85-68.94,389.08-64.65
				c144.52,4.24,278.26,34.46,377.24,84.81c117.67,59.86,179.4,143.98,179.4,243.71l-2.8,505.73l-0.23,1.86
				c-14.45,118.78-80.95,241.56-198.48,365.72c-94.27,99.58-200.8,178.5-273.96,227.4
				C1813.65,2259.33,1785.59,2268.34,1756.68,2269.19z"/>
			
				<linearGradient id="SVGID_00000055688374376500194580000001672931032404452535_" gradientUnits="userSpaceOnUse" x1="2002.3978" y1="1899.823" x2="1083.6205" y2="52.3516">
				<stop  offset="0" style="stop-color:#FFC444"/>
				<stop  offset="0.9964" style="stop-color:#F36F56"/>
			</linearGradient>
			<path style="fill:url(#SVGID_00000055688374376500194580000001672931032404452535_);" d="M1208.83,1124.26l3.09,526.6
				c34.66,268.69,350.43,486.22,487.96,568.87c39.4,23.68,89.77,22.27,128.89-3.47c134.66-88.61,433.13-311.68,465.02-570.01
				l2.83-504.34C2296.62,767.75,1208.83,733.55,1208.83,1124.26z"/>
			
				<linearGradient id="SVGID_00000152957304343105852500000018436962791518867357_" gradientUnits="userSpaceOnUse" x1="1313.1008" y1="1541.4167" x2="2200.2288" y2="1541.4167">
				<stop  offset="0" style="stop-color:#311944"/>
				<stop  offset="1" style="stop-color:#893976"/>
			</linearGradient>
			<path style="fill:url(#SVGID_00000152957304343105852500000018436962791518867357_);" d="M1764.49,2138.57
				c-2.52,0.06-6.34-0.36-10.19-2.7c-56.63-34.29-166.4-106.12-261.89-199.92c-103.15-101.32-162.64-199.83-176.28-292.35
				l-3.03-517.88c0.13-49.69,39.46-92.22,116.57-126.25c86.08-37.99,208.31-57.92,334.82-54.92
				c125.25,2.97,243.92,28.19,326.13,68.98c72.72,36.08,109.49,78.63,109.61,126.6l-2.82,499.95
				c-12.73,89.53-68.57,186.05-166.6,287.51c-92.18,95.4-199.85,171.02-256.13,207.8
				C1770.82,2137.91,1767.01,2138.51,1764.49,2138.57z"/>
			<path class="st72" d="M1751.57,2103.17c-57.19-35.22-158.88-103.23-247.6-190.55c-96.94-95.4-153.03-186.95-166.22-271.65
				l-3-514.88c0.09-35.53,32.75-68.12,96.82-96.49c81.54-36.1,198.36-55.13,320-52.4c120.47,2.7,234.02,26.5,312.05,65.11
				c60.63,30,91.3,62.72,91.39,97.37l-2.81,498.12c-12.37,82.19-65.28,172.07-157.81,267.65
				C1908.47,1994.2,1808.49,2065.56,1751.57,2103.17z"/>
			<g>
				
					<linearGradient id="SVGID_00000173145196743273896360000017721755335964419746_" gradientUnits="userSpaceOnUse" x1="2039.2332" y1="1083.7146" x2="1674.3724" y2="1758.1531">
					<stop  offset="3.597120e-03" style="stop-color:#E38DDD"/>
					<stop  offset="1" style="stop-color:#9571F6"/>
				</linearGradient>
				<path style="fill:url(#SVGID_00000173145196743273896360000017721755335964419746_);" d="M1956.19,1429.06l-385.09,3.43
					c-29.6,0.26-53.72,23.34-53.72,51.53v246.73c0,28.02,24.03,49.74,53.52,48.54l383.73-15.71c27.29-1.12,49.43-23.71,49.57-50.49
					l1.22-235.7C2005.56,1450.46,1983.57,1428.81,1956.19,1429.06z"/>
				
					<linearGradient id="SVGID_00000071519984373598006680000007165602845470557357_" gradientUnits="userSpaceOnUse" x1="1716.7161" y1="1616.3363" x2="1816.3345" y2="1616.3363">
					<stop  offset="0" style="stop-color:#311944"/>
					<stop  offset="1" style="stop-color:#893976"/>
				</linearGradient>
				<path style="fill:url(#SVGID_00000071519984373598006680000007165602845470557357_);" d="M1816.33,1570.54
					c0.09-27.25-23.3-48.79-51.86-46.98c-25.28,1.6-46.26,22.02-47.68,46.52c-1.1,19.01,9.18,35.47,24.83,43.83
					c6.65,3.55,9.94,11,8.63,18.35l-11.13,62.33c-1.42,7.93,4.87,14.91,13.16,14.62l28.17-0.99c8.24-0.29,14.5-7.67,13.14-15.47
					l-10.77-61.74c-1.29-7.37,2.51-14.68,9.19-18.7C1806.54,1603.6,1816.28,1588.06,1816.33,1570.54z"/>
				
					<linearGradient id="SVGID_00000035490228880709697560000006459045263584867250_" gradientUnits="userSpaceOnUse" x1="1933.8054" y1="1026.6799" x2="1568.9449" y2="1701.118">
					<stop  offset="3.597120e-03" style="stop-color:#E38DDD"/>
					<stop  offset="1" style="stop-color:#9571F6"/>
				</linearGradient>
				<path style="fill:url(#SVGID_00000035490228880709697560000006459045263584867250_);" d="M1950.78,1404.58
					c-11.56,0.08-20.92-9.11-20.87-20.52l0.23-53.75c0.24-53.98-44.39-98.39-100.01-98.94l-125.69-1.25
					c-57.56-0.57-104.89,44.31-104.94,100l-0.05,55.44c-0.01,11.77-10.03,21.38-22.41,21.46c-12.41,0.08-22.48-9.43-22.48-21.26
					l0.02-55.67c0.03-79.59,67.81-143.5,149.94-142.36l125.75,1.75c79,1.1,142.1,64.32,141.73,140.84l-0.26,53.53
					C1971.69,1395.24,1962.32,1404.51,1950.78,1404.58z"/>
			</g>
		</g>
		<g>
			
				<linearGradient id="SVGID_00000183234518946067181800000014411437041221974659_" gradientUnits="userSpaceOnUse" x1="-2019.9659" y1="455.1135" x2="-2053.7698" y2="688.1829" gradientTransform="matrix(-0.8096 -0.587 -0.587 0.8096 188.4058 -458.3016)">
				<stop  offset="3.597000e-03" style="stop-color:#F36F56"/>
				<stop  offset="1" style="stop-color:#FFC444"/>
			</linearGradient>
			<path style="fill:url(#SVGID_00000183234518946067181800000014411437041221974659_);" d="M1172.39,1864.85
				c0,0,7.99-11.38,12.2-19.39c4.2-8.01-6.04-30.21-10.56-48.73c-4.52-18.52-6.85,10.37-7.42,16.91
				c-0.57,6.54-0.64,18.63-7.41,39.38L1172.39,1864.85z"/>
			
				<linearGradient id="SVGID_00000161591415131632178550000007775025084488101047_" gradientUnits="userSpaceOnUse" x1="579.3745" y1="3231.7244" x2="622.1128" y2="3231.7244" gradientTransform="matrix(0.9858 -0.1678 0.1678 0.9858 0.9801 -81.3323)">
				<stop  offset="3.597000e-03" style="stop-color:#F36F56"/>
				<stop  offset="1" style="stop-color:#FFC444"/>
			</linearGradient>
			<path style="fill:url(#SVGID_00000161591415131632178550000007775025084488101047_);" d="M1121.05,2978.4l-3.11,49.66
				c0,0,7.05,7.47,20.62,2.27l14.82-48.77L1121.05,2978.4z"/>
			
				<linearGradient id="SVGID_00000157996672806316714880000005864773760256544916_" gradientUnits="userSpaceOnUse" x1="661.97" y1="3055.6292" x2="549.9009" y2="3448.8213" gradientTransform="matrix(0.9858 -0.1678 0.1678 0.9858 0.9801 -81.3323)">
				<stop  offset="3.597120e-03" style="stop-color:#E38DDD"/>
				<stop  offset="1" style="stop-color:#9571F6"/>
			</linearGradient>
			<path style="fill:url(#SVGID_00000157996672806316714880000005864773760256544916_);" d="M1127.27,3014.91
				c0,0-24.32,9.92-19.6,20.68c2.53,5.78,11.31,18.82,18.89,29.67c7.02,10.04,19.69,14.48,31.42,10.96
				c3.94-1.18,7.96-2.33,11.53-3.25c7.37-1.9,7.8-12.21,0.62-14.74c-3.48-1.23-6.93-2.22-9.93-2.68
				c-8.9-1.37-21.16-22.41-22.59-30.84C1136.17,3016.29,1127.27,3014.91,1127.27,3014.91z"/>
			
				<linearGradient id="SVGID_00000124136351612059905910000008352482689242138301_" gradientUnits="userSpaceOnUse" x1="1249.0354" y1="2638.4194" x2="886.6458" y2="2936.0969">
				<stop  offset="0" style="stop-color:#AB316D"/>
				<stop  offset="1" style="stop-color:#792D3D"/>
			</linearGradient>
			<path style="fill:url(#SVGID_00000124136351612059905910000008352482689242138301_);" d="M1068.81,2501.74
				c35.83,12.36,168.31,62.44,197.82,177.31c1.58,6.13,5.62,23.18,5.8,51.04c0.76,115.94-66.66,214.06-115.69,271.14
				c-15.46-0.26-30.92-0.52-46.37-0.78c-7.72-29.59-14.8-73.85-3.71-123.65c16.96-76.11,60.95-95.85,52.47-133.21
				c-15.41-67.84-172.93-57.58-187.77-118.32C965.98,2603.33,977.76,2566.09,1068.81,2501.74z"/>
			
				<linearGradient id="SVGID_00000057107254441233270730000006764338555031237256_" gradientUnits="userSpaceOnUse" x1="1048.9382" y1="2617.6218" x2="949.7644" y2="2965.5713" gradientTransform="matrix(0.9956 0.0937 -0.0937 0.9956 20.029 69.0563)">
				<stop  offset="3.597120e-03" style="stop-color:#E38DDD"/>
				<stop  offset="1" style="stop-color:#9571F6"/>
			</linearGradient>
			<path style="fill:url(#SVGID_00000057107254441233270730000006764338555031237256_);" d="M625.69,3195.85l67.27-1.57
				c4.15-0.1,5.93-5.26,2.75-7.93c-3.13-2.63-7.45-4.78-12.98-4.21c-12.79,1.33-41.49-16.57-54.52-12.73
				c-4.25,1.25-7.71,11.26-9.48,14.03C615.26,3188.88,619.24,3196,625.69,3195.85z"/>
			
				<linearGradient id="SVGID_00000106117630231799477070000015755299026408778887_" gradientUnits="userSpaceOnUse" x1="896.0163" y1="3017.5964" x2="946.4409" y2="3017.5964" gradientTransform="matrix(0.9956 0.0937 -0.0937 0.9956 20.029 69.0563)">
				<stop  offset="3.597000e-03" style="stop-color:#F36F56"/>
				<stop  offset="1" style="stop-color:#FFC444"/>
			</linearGradient>
			<path style="fill:url(#SVGID_00000106117630231799477070000015755299026408778887_);" d="M655.92,3144.17l-27.7,25.25
				c0,0,9.67,7.23,23.78,4.13l28.31-19.49L655.92,3144.17z"/>
			<g class="st24">
				
					<linearGradient id="SVGID_00000116218821052598126730000016001791602140805022_" gradientUnits="userSpaceOnUse" x1="895.3087" y1="3169.4163" x2="479.3129" y2="2945.272" gradientTransform="matrix(0.9858 -0.1678 0.1678 0.9858 0.9801 -81.3323)">
					<stop  offset="0" style="stop-color:#AB316D"/>
					<stop  offset="1" style="stop-color:#792D3D"/>
				</linearGradient>
				<path style="fill:url(#SVGID_00000116218821052598126730000016001791602140805022_);" d="M1187.65,2800.88
					c18.58-50.16,40.86-112.02,15.41-147.13c-25.75-35.54-82.17-5.54-138.77-34.18c-20.99-10.62-42.57-29.63-60.52-64.04
					c-31.77,32.8-36.09,54.82-32.44,69.75c14.84,60.75,172.37,50.48,187.77,118.32c8.48,37.36-35.51,57.1-52.47,133.21
					c-9.54,42.81-5.63,81.5,0.55,110.32c5.51-26.77,14.08-54.88,27.18-83.25C1154.68,2859.89,1168.08,2853.72,1187.65,2800.88z"/>
			</g>
			
				<linearGradient id="SVGID_00000018222929812701665960000003522638276588935052_" gradientUnits="userSpaceOnUse" x1="87.515" y1="2946.5742" x2="-314.1344" y2="3363.6711" gradientTransform="matrix(0.9542 -0.2992 0.2992 0.9542 -14.04 -148.0025)">
				<stop  offset="0" style="stop-color:#AB316D"/>
				<stop  offset="1" style="stop-color:#792D3D"/>
			</linearGradient>
			<path style="fill:url(#SVGID_00000018222929812701665960000003522638276588935052_);" d="M1089.33,2487.26
				c-21.81,100.11-68.27,252.98-174.72,412.54c-78.81,118.13-165.39,202.29-233.3,258.52c-4.83,1.44-13.07,3.22-23.16,1.98
				c-7.5-0.92-13.45-3.19-17.45-5.1c4.68-28.22,14.54-69.92,37.94-114.95c42.81-82.4,80.93-79.75,123.93-152.48
				c31.49-53.25,41.72-109.82,62.2-222.96c15.81-87.36,15.82-108.24,37.47-133.29C946.01,2480.87,1028.2,2480.3,1089.33,2487.26z"/>
			<g class="st24">
				
					<linearGradient id="SVGID_00000097475868681565684990000013584153238103184273_" gradientUnits="userSpaceOnUse" x1="57.3036" y1="2934.8354" x2="-336.0036" y2="3343.2695" gradientTransform="matrix(0.9542 -0.2992 0.2992 0.9542 -14.04 -148.0025)">
					<stop  offset="0" style="stop-color:#AB316D"/>
					<stop  offset="1" style="stop-color:#792D3D"/>
				</linearGradient>
				<path style="fill:url(#SVGID_00000097475868681565684990000013584153238103184273_);" d="M695.05,3058.89
					c15.28-24.11,42.39-49.22,95.86-98.76c55.26-51.19,53.14-41.94,64.02-57.07c48.7-67.73,22.33-140.1,34.37-227.44
					c6.72-48.73,28.23-112.41,90.88-183.73c-29.36,5.41-57.47,17.06-77.93,39.63c-25.13,27.72-23.28,54.87-37.47,133.29
					c-20.48,113.14-30.71,169.71-62.2,222.96c-43,72.73-81.12,70.08-123.93,152.48c-23.4,45.03-33.26,86.72-37.94,114.95
					c4,1.91,9.95,4.18,17.45,5.1c5.95,0.73,11.23,0.4,15.57-0.27C670.19,3102.76,687.3,3071.12,695.05,3058.89z"/>
			</g>
			<path class="st72" d="M1148.21,1836.7c0,0,17.91,133.38-122.63,227.42l149.55,35.67c0,0,47.87-89.5,13.21-237.75L1148.21,1836.7z
				"/>
			
				<linearGradient id="SVGID_00000121248526733673205420000002158608625534125964_" gradientUnits="userSpaceOnUse" x1="-1374.8583" y1="2112.1992" x2="-1383.6967" y2="2006.1377" gradientTransform="matrix(-0.9986 0.0537 0.0537 0.9986 -504.5519 -55.8024)">
				<stop  offset="0" style="stop-color:#444B8C"/>
				<stop  offset="0.9964" style="stop-color:#26264F"/>
			</linearGradient>
			<path style="fill:url(#SVGID_00000121248526733673205420000002158608625534125964_);" d="M1007.19,1963.59
				c7.34-14.46,10.37-14.38,12.18-22.02c4.11-17.4-6.5-39.5-15.5-39.8c-5.8-0.2-6.28,8.82-18.56,22.88
				c-15.05,17.22-24.18,14.96-33.03,29.91c-2.07,3.5-11.39,19.24-5.66,30.98c7.32,14.99,36.16,17.37,48.22,5.8
				C1000.54,1985.86,998.14,1981.41,1007.19,1963.59z"/>
			
				<linearGradient id="SVGID_00000163072970682550573840000003267970028042841013_" gradientUnits="userSpaceOnUse" x1="988.9686" y1="1727.5319" x2="1018.0893" y2="2164.3398">
				<stop  offset="3.597000e-03" style="stop-color:#F36F56"/>
				<stop  offset="1" style="stop-color:#FFC444"/>
			</linearGradient>
			<path style="fill:url(#SVGID_00000163072970682550573840000003267970028042841013_);" d="M985.56,1979.2
				c0,0,5.15,27.49,1.49,49.85c-3.32,20.2-40.74,41.19-47.91,47.21c-7.17,6.02,19.02,12.55,43.06,9.4
				c24.03-3.14,89.83-24.2,99.83-35.93c10-11.74-11.64-5.95-29.84-8.17s-35.58-32.73-36.11-48.29
				C1015.54,1977.68,985.56,1979.2,985.56,1979.2z"/>
			<g>
				
					<linearGradient id="SVGID_00000116931374064161934830000000308331373331912878_" gradientUnits="userSpaceOnUse" x1="3793.5618" y1="2595.2502" x2="3876.9204" y2="2683.1147" gradientTransform="matrix(0.966 -0.2584 0.2584 0.966 -3411.8352 402.9503)">
					<stop  offset="3.597000e-03" style="stop-color:#F36F56"/>
					<stop  offset="1" style="stop-color:#FFC444"/>
				</linearGradient>
				<path style="fill:url(#SVGID_00000116931374064161934830000000308331373331912878_);" d="M993.4,1999.71
					c0,0,18.4,8.08,34.69-4.95c14.59-11.67-7.1-47.51-21.95-47.97c-4.95-0.15-12.18,3.39-16.45,8.58
					c-2.52,3.07-2.67,5.11-6.89,10.04c-3.89,4.55-5.6,4.96-6.19,7.16c-0.74,2.76,0.53,7.37,10.52,15.31
					c-4.98-0.92-9.27,0.39-10.93,3.3c-0.26,0.46-0.82,1.91-0.65,3.4C976.16,1999.99,983.23,2002.5,993.4,1999.71z"/>
			</g>
			
				<linearGradient id="SVGID_00000183946217669478170980000010372150616319291826_" gradientUnits="userSpaceOnUse" x1="-1600.3729" y1="914.944" x2="-1636.6356" y2="1164.9673" gradientTransform="matrix(-1 0 0 1 -318.9724 0)">
				<stop  offset="3.597000e-03" style="stop-color:#F36F56"/>
				<stop  offset="1" style="stop-color:#FFC444"/>
			</linearGradient>
			<path style="fill:url(#SVGID_00000183946217669478170980000010372150616319291826_);" d="M1397.72,1904.09
				c0,0,11.14-1.55,7.67-22.83c-2.72-16.68-0.66-22.29,3.28-19.33c3.94,2.96,4.49,12.6,4.49,12.6s14.36-12.25,20.28-28.3
				c5.91-16.05,9.72-2.53,10.98,5.49c1.27,8.03-8.45,32.95-13.94,37.59c-5.49,4.65-13.52,25.12-13.52,25.12L1397.72,1904.09z"/>
			<path class="st7" d="M1427.4,1909.79c-12.67-8.88-25.35-17.75-38.02-26.63c-15.42,94.8-50.48,132.01-80.25,148.28
				c-71.83,39.26-135.93-30.7-273.42-2.15c-37.89,7.87-103.92,22.52-140.54,76.5c-9.63,14.19-13.05,24.93-29.03,126.7
				c-20.43,130.09-21.16,152.8-18.28,180.81c5.27,51.26,8.47,82.33,32.1,109.82c62.76,73.01,196.17,35.37,212.89,30.41
				c30.9-9.15,78.92-23.38,98-64.21c8.98-19.21,8.02-36.77-5.77-107.02c-27.33-139.16-30.82-148.17-23.19-163.41
				c25.75-51.43,107.32-22,176.23-69.83C1378.42,2121.11,1423.83,2060.18,1427.4,1909.79z"/>
			<path class="st72" d="M1030.34,2534.95c13.45-27.59-4.63-53.01,15.21-86.17c25.27-42.26,70.75-27.91,87.86-59.14
				c29.26-53.4-85.92-127.88-62.52-212.89c11.18-40.59,50.2-69.97,82.79-81.1c72.37-24.71,119.7,38.28,187.55,18.59
				c16.08-4.67,34.54-14.34,53.2-34.41c-16.5,34.81-36.99,55.84-56.32,69.25c-68.91,47.82-150.49,18.4-176.23,69.83
				c-7.63,15.24-4.14,24.25,23.19,163.41c13.8,70.25,14.75,87.81,5.77,107.02c-19.08,40.83-67.1,55.05-98,64.21
				c-9.16,2.71-53.28,15.18-101.63,13.97C1012.8,2558.75,1024.41,2547.12,1030.34,2534.95z"/>
		</g>
	</g>
</g>
</svg>
