<?xml version="1.0" encoding="utf-8"?>
<!-- Generator: Adobe Illustrator 28.1.0, SVG Export Plug-In . SVG Version: 6.00 Build 0)  -->
<svg version="1.1" xmlns="http://www.w3.org/2000/svg" xmlns:xlink="http://www.w3.org/1999/xlink" x="0px" y="0px"
	 viewBox="0 0 3710 3710" style="enable-background:new 0 0 3710 3710;" xml:space="preserve">
<style type="text/css">
	.st0{fill:#F4F7FA;}
	.st1{fill:#97A6B7;}
	.st2{fill:#D8DEE8;}
	.st3{fill:url(#SVGID_1_);}
	.st4{fill:url(#SVGID_00000046329329176277742670000003033222011274278307_);}
	.st5{fill:#26264F;}
	.st6{fill:url(#SVGID_00000126310189787459151080000006619709337444489345_);}
	.st7{fill:#FFFFFF;}
	.st8{fill:url(#SVGID_00000137131286376442109400000001639767772418715264_);}
	.st9{opacity:0.48;fill:#FFFFFF;}
	.st10{fill:url(#SVGID_00000142152879817435607480000018433454344676572335_);}
	.st11{fill:url(#SVGID_00000078744211113357039170000017103556531061295281_);}
	.st12{fill:url(#SVGID_00000018936788918408254720000000230825005592579258_);}
	.st13{fill:url(#SVGID_00000154410596706794795670000005128373206149075109_);}
	.st14{fill:url(#SVGID_00000080175559117943142740000006569630520684851845_);}
	.st15{fill:url(#SVGID_00000070084647474299205160000000630282423722138268_);}
	.st16{fill:url(#SVGID_00000088838700293002411170000008204086646016331956_);}
	.st17{fill:url(#SVGID_00000114061573024793728940000000136637938924985775_);}
	.st18{fill:url(#SVGID_00000078748482523599822310000010785835524972281780_);}
	.st19{fill:url(#SVGID_00000161618306847220489090000017383567249155639177_);}
	.st20{opacity:0.3;fill:url(#SVGID_00000101806481817267299700000001946057568420862104_);}
	.st21{fill:url(#SVGID_00000003081332615739215750000004792571353696156308_);}
	.st22{fill:url(#SVGID_00000181796265705216590660000007489433209234440870_);}
	.st23{fill:url(#SVGID_00000098924078222563463780000003020339479623622528_);}
	.st24{opacity:0.3;fill:url(#SVGID_00000002373642161088383240000000506068914912072614_);}
	.st25{fill:url(#SVGID_00000033328559633440428550000008682468273500222852_);}
	.st26{fill:url(#SVGID_00000011728159563064176720000006931935094664398237_);}
	.st27{fill:url(#SVGID_00000016768122184050697720000016731542148597647005_);}
	.st28{fill:url(#SVGID_00000109743696944566091200000000186607031949615267_);}
	.st29{fill:url(#SVGID_00000090998198150656501170000000658593052826454924_);}
	.st30{fill:url(#SVGID_00000075844119476848294460000013110219992104173484_);}
	.st31{fill:url(#SVGID_00000112632106828799681800000001128412280756807341_);}
</style>
<g id="Background">
</g>
<g id="Illustration">
	<g>
		<path class="st0" d="M1130.48,623.29c-94.43,135.18,16.29,354.35-123.83,456.02c-136.4,98.97-303.96-63.25-432.5,21.94
			c-190.69,126.38-155.87,704.65,122.93,1063.94c83.84,108.05,153.9,150.09,184.93,272.29c66.63,262.4-167.53,418.49-122.97,548.26
			c100.33,292.21,1643.37,537.41,2262.5-340.78c289.16-410.15,332.43-1002.41,74.07-1452.24
			C2628.76,379.9,1342.37,319.96,1130.48,623.29z"/>
		<g>
			<g>
				<g>
					<path class="st1" d="M3136.14,974.29l-56.31,0.1c-3.88-37.19-12.82-72.9-26.13-106.44l47.61-27.61
						c13.01-7.55,17.46-24.56,9.96-38.05l-20.01-35.98c-7.55-13.57-24.3-18.55-37.45-11.09l-47.02,26.68
						c-21.88-30.66-48-58.31-77.58-82.09l27.04-46.45c7.76-13.33,3.16-30.87-10.3-39.22l-35.99-22.33
						c-13.61-8.44-31.06-4.45-38.97,8.96l-27.1,45.98c-34.82-16.22-72.46-27.92-112.15-34.2v-54.52c0-16.08-13.23-29.73-29.6-30.47
						l-43.82-2c-16.58-0.76-30.07,11.81-30.07,28.07v55.12c-40.92,3.41-80.36,12.61-117.44,26.84l-29.25-49.83
						c-8.6-14.64-27.69-20.32-42.67-12.64l-40.07,20.55c-15.15,7.77-20.36,26.06-11.59,40.8l30.31,50.98
						c-33.17,23.45-62.83,51.53-87.94,83.36l-54.82-31.02c-15.54-8.79-35.49-4.23-44.52,10.23l-24.1,38.6
						c-9.09,14.56-3.69,33.46,12.03,42.16l56.72,31.39c-15.73,36.22-26.35,75.05-30.98,115.65l-68.04,0.12
						c-18.31,0.03-33.21,13.91-33.21,31v45.45c0,17.09,14.89,30.76,33.21,30.53l69.85-0.87c5.9,39.65,17.54,77.4,34.1,112.44
						l-61.65,34.99c-15.72,8.92-21.12,27.9-12.03,42.33l24.1,38.26c9.03,14.34,28.98,18.61,44.52,9.6l62.36-36.16
						c24.92,29.47,53.89,55.36,86.05,76.91l-35.95,60.99c-8.76,14.87-3.56,33.08,11.59,40.64l40.07,19.98
						c14.98,7.47,34.07,1.52,42.67-13.24l35.65-61.25c35.21,12.42,72.47,20.3,111.03,23.02v68.28c0,16.26,13.49,28.64,30.07,27.65
						l43.82-2.62c16.37-0.98,29.6-14.81,29.6-30.89v-67.54c37.43-6.4,73.03-17.6,106.17-32.83l33.08,55.65
						c7.9,13.3,25.36,17.04,38.97,8.4l35.99-22.84c13.46-8.54,18.06-26.15,10.3-39.37l-32.11-54.71
						c28.74-22.75,54.33-49.06,76.1-78.17l53.56,29.64c13.15,7.28,29.9,2.06,37.45-11.62l20.01-36.26
						c7.5-13.59,3.05-30.55-9.96-37.91l-51.79-29.3c14.03-32.91,23.84-67.93,28.8-104.42l57.82-0.72
						c14.91-0.19,26.95-12.78,26.95-28.13v-40.82C3163.09,986.69,3151.05,974.27,3136.14,974.29z M2680.29,1310.3
						c-166.61,6.18-306.04-123.13-306.04-289.02c0-165.89,139.43-296.98,306.04-292.93c160.95,3.92,287.47,133.31,287.47,289.14
						C2967.76,1173.31,2841.24,1304.32,2680.29,1310.3z"/>
					<polygon class="st1" points="2493.86,570.98 2453.75,569.59 2439.93,605.55 					"/>
					<polygon class="st1" points="2891.52,587.57 2937.76,588.03 2937.76,622.14 					"/>
					<polygon class="st1" points="3067.75,752.11 3113.85,753.98 3102.33,779.79 					"/>
					<polygon class="st1" points="3140.12,974.78 3186.68,978.46 3171.47,1001.05 					"/>
					<polygon class="st1" points="3062.68,1294.22 3107.86,1300.68 3113.39,1263.8 					"/>
					<polygon class="st1" points="2889.82,1460.63 2930.39,1468 2933.61,1438.04 					"/>
					<polygon class="st1" points="2687,1532.54 2650.58,1526.08 2681.93,1479.53 					"/>
					<polygon class="st1" points="2489.71,1493.36 2447.3,1484.6 2480.03,1444.96 					"/>
					<polygon class="st1" points="2251.39,733.69 2295.65,735.08 2278.13,767.34 					"/>
					<polygon class="st1" points="2163.35,1080.8 2203.91,1086.79 2200.69,1053.6 					"/>
					<polygon class="st1" points="2250.47,1323.72 2290.11,1330.18 2293.34,1303.9 					"/>
				</g>
				<path class="st2" d="M3181.63,977.95l-56.77,0.1c-3.91-37.5-12.93-73.49-26.34-107.31l48-27.83
					c13.12-7.61,17.6-24.76,10.04-38.36l-20.17-36.27c-7.61-13.68-24.5-18.7-37.76-11.18l-47.41,26.9
					c-22.06-30.91-48.4-58.79-78.22-82.76l27.27-46.83c7.82-13.44,3.18-31.12-10.39-39.54l-36.29-22.51
					c-13.72-8.51-31.32-4.49-39.29,9.03l-27.33,46.35c-35.11-16.35-73.06-28.15-113.08-34.48v-54.97
					c0-16.22-13.34-29.97-29.85-30.72l-44.18-2.02c-16.72-0.76-30.32,11.91-30.32,28.3v55.57c-41.26,3.44-81.02,12.71-118.41,27.06
					l-29.49-50.24c-8.67-14.76-27.92-20.49-43.02-12.74l-40.41,20.72c-15.28,7.84-20.53,26.27-11.69,41.14l30.56,51.4
					c-33.45,23.64-63.35,51.95-88.67,84.04l-55.27-31.27c-15.67-8.87-35.78-4.27-44.89,10.31l-24.3,38.91
					c-9.17,14.68-3.73,33.73,12.13,42.5l57.2,31.65c-15.86,36.52-26.57,75.66-31.23,116.59l-68.61,0.12
					c-18.46,0.03-33.48,14.02-33.48,31.25v45.82c0,17.23,15.02,31.01,33.48,30.78l70.43-0.88c5.95,39.97,17.69,78.03,34.38,113.35
					l-62.16,35.28c-15.85,9-21.29,28.12-12.13,42.68l24.3,38.57c9.11,14.45,29.22,18.77,44.89,9.68l62.87-36.46
					c25.12,29.71,54.34,55.81,86.76,77.54l-36.25,61.48c-8.84,14.99-3.59,33.35,11.69,40.97l40.4,20.15
					c15.11,7.53,34.36,1.54,43.02-13.35l35.95-61.75c35.5,12.52,73.07,20.46,111.95,23.21v68.83c0,16.39,13.6,28.87,30.32,27.87
					l44.18-2.64c16.51-0.99,29.85-14.93,29.85-31.14v-68.09c37.74-6.45,73.64-17.74,107.05-33.1l33.35,56.1
					c7.97,13.4,25.57,17.18,39.29,8.47l36.29-23.03c13.57-8.61,18.21-26.36,10.39-39.69l-32.38-55.15
					c28.98-22.93,54.78-49.46,76.74-78.81l54,29.88c13.26,7.34,30.15,2.07,37.76-11.72l20.17-36.56c7.56-13.7,3.08-30.8-10.04-38.22
					l-52.22-29.54c14.14-33.17,24.04-68.49,29.03-105.27l58.3-0.73c15.03-0.19,27.18-12.88,27.18-28.35v-41.15
					C3208.81,990.45,3196.66,977.92,3181.63,977.95z M2722,1316.69c-167.99,6.23-308.58-124.13-308.58-291.37
					c0-167.24,140.58-299.4,308.58-295.32c162.28,3.95,289.85,134.4,289.85,291.49C3011.85,1178.59,2884.29,1310.67,2722,1316.69z"
					/>
			</g>
		</g>
		<g>
			
				<linearGradient id="SVGID_1_" gradientUnits="userSpaceOnUse" x1="566.4454" y1="1386.595" x2="3071.7229" y2="1386.595" gradientTransform="matrix(0.9997 0.0339 0 1.0001 0.5028 -87.3618)">
				<stop  offset="0" style="stop-color:#40447E"/>
				<stop  offset="0.9964" style="stop-color:#3C3B6B"/>
			</linearGradient>
			<path class="st3" d="M2802.1,1093.48c-132.48-55.31-277.34-34.62-394.06,42.43c-42.65-214.73-178.16-399.83-379.94-484.08
				c-330.64-138.05-713.99,46.96-856.25,413.23c-36.66,94.38-53.68,191.59-53.16,286.26c-17.04-11.26-35.27-21.05-54.63-29.14
				c-180.65-75.42-390.1,25.66-467.82,225.77c-77.72,200.11,3.06,430.79,186.37,498.91c97.91,36.38,252.82,42.25,252.82,42.25
				s1506.83-61.22,1553.31-59.26c185.62,7.83,368.56-113,446.23-312.97C3132.08,1466.83,3027.82,1187.73,2802.1,1093.48z"/>
			
				<linearGradient id="SVGID_00000034053883697684658530000013258249605515959940_" gradientUnits="userSpaceOnUse" x1="2389.8433" y1="1065.8204" x2="1304.1707" y2="2291.5784" gradientTransform="matrix(0.9997 0.0339 0 1.0001 0.5028 -87.3618)">
				<stop  offset="0" style="stop-color:#AA80F9"/>
				<stop  offset="0.9964" style="stop-color:#6165D7"/>
			</linearGradient>
			<path style="fill:url(#SVGID_00000034053883697684658530000013258249605515959940_);" d="M2846.9,1095.18
				c-132.48-55.31-277.34-34.62-394.06,42.43c-42.65-214.73-178.16-399.83-379.94-484.08c-330.64-138.05-713.99,46.96-856.25,413.23
				c-36.66,94.38-53.68,191.59-53.16,286.26c-17.04-11.26-35.27-21.05-54.62-29.14c-180.65-75.42-390.1,25.66-467.82,225.77
				c-77.72,200.12,5.72,423.48,186.37,498.91c38.23,15.96,252.82,42.25,252.82,42.25s1506.83-61.22,1553.31-59.26
				c185.62,7.83,368.56-113,446.23-312.97C3176.89,1468.53,3072.63,1189.42,2846.9,1095.18z"/>
		</g>
		<g>
			<path class="st5" d="M3155.51,3030.75l-2403.37-20.49v60.62c0,16.45,10.48,30.44,24.68,32.94l679.6,119.36
				c8.07,1.42,16.24,1.79,24.38,1.12l1648.59-136.09c14.72-1.21,26.12-15.25,26.12-32.15V3030.75z"/>
			<g>
				<path class="st5" d="M2283.33,2933.61L776.99,3044.5c-26.95,1.98-48.87-19.1-48.87-47.1V1875.67c0-28,21.92-50.7,48.87-50.7
					h1506.34c22.21,0,40.16,20.52,40.16,45.83v1014.03C2323.49,2910.14,2305.54,2931.98,2283.33,2933.61z"/>
				
					<linearGradient id="SVGID_00000152968680647486832620000007267045226439209384_" gradientUnits="userSpaceOnUse" x1="752.1332" y1="2434.8042" x2="2347.5112" y2="2434.8042">
					<stop  offset="0" style="stop-color:#444B8C"/>
					<stop  offset="0.9964" style="stop-color:#26264F"/>
				</linearGradient>
				<path style="fill:url(#SVGID_00000152968680647486832620000007267045226439209384_);" d="M2307.35,2933.61L801,3044.5
					c-26.96,1.98-48.87-19.1-48.87-47.1V1875.67c0-28,21.92-50.7,48.87-50.7h1506.34c22.21,0,40.16,20.52,40.16,45.83v1014.03
					C2347.51,2910.14,2329.56,2931.98,2307.35,2933.61z"/>
				<path class="st7" d="M2260.42,2862.12l-1403,96.32c-21.93,1.51-39.76-15.8-39.76-38.66v-982.08c0-22.86,17.83-41.46,39.76-41.56
					l1403-6.05c18.32-0.08,33.14,16.73,33.14,37.55v894.5C2293.56,2842.97,2278.74,2860.87,2260.42,2862.12z"/>
				<path class="st7" d="M1607.38,1855.66c0,10.42-7.75,18.9-17.33,18.93c-9.59,0.03-17.37-8.41-17.37-18.86
					c0-10.45,7.78-18.92,17.37-18.93C1599.62,1836.79,1607.38,1845.23,1607.38,1855.66z"/>
			</g>
			
				<linearGradient id="SVGID_00000082357216874693864590000012178407886655841703_" gradientUnits="userSpaceOnUse" x1="752.1332" y1="3048.2319" x2="3155.5056" y2="3048.2319">
				<stop  offset="0" style="stop-color:#444B8C"/>
				<stop  offset="0.9964" style="stop-color:#26264F"/>
			</linearGradient>
			<path style="fill:url(#SVGID_00000082357216874693864590000012178407886655841703_);" d="M2367.39,2927.46L752.13,3044.18
				l704.28,123.7c8.07,1.42,16.24,1.79,24.38,1.12l1674.71-138.25l-762.42-102.5C2384.56,2927.11,2375.96,2926.85,2367.39,2927.46z"
				/>
			<polygon class="st5" points="987.82,3045.19 2332.57,2946.57 2748.76,3002.07 1415.6,3107.49 			"/>
			<g>
				<path class="st2" d="M1423.52,2917.94l-572.35,38.51c-16.79,1.13-31.03-12.19-31.03-29.02v-1002.4
					c0-16.02,12.95-29.02,28.96-29.08l574.42-2.32V2917.94z"/>
				<polygon class="st2" points="2162.65,2371.31 1559.62,2392.5 1559.62,2331.52 2162.65,2312.62 				"/>
				<polygon class="st2" points="2162.65,2467.45 1559.62,2492.39 1559.62,2431.41 2162.65,2408.76 				"/>
				<polygon class="st7" points="1364.49,2382.26 1018.22,2394.06 1018.22,2348.49 1364.49,2337.64 				"/>
				<polygon class="st7" points="1364.49,2455.36 1018.22,2468.72 1018.22,2423.15 1364.49,2410.74 				"/>
				<polygon class="st7" points="1364.49,2528.46 1018.22,2543.38 1018.22,2497.81 1364.49,2483.84 				"/>
				<polygon class="st7" points="1364.49,2601.56 1018.22,2618.04 1018.22,2572.47 1364.49,2556.94 				"/>
				<polygon class="st2" points="1826.1,2579.6 1559.62,2592.28 1559.62,2531.31 1826.1,2519.64 				"/>
				<g>
					<path class="st2" d="M1783.19,2101.8v91.59c0,26.48,22.28,47.37,49.68,46.65l67.93-1.77c27.07-0.71,48.94-22.52,48.94-48.72
						v-90.63L1783.19,2101.8z M1845.75,2196.49l12.63-38.26c-5.41-2.79-9.07-8.29-9.07-14.7c0-9.4,7.88-17.17,17.6-17.36
						c9.7-0.18,17.56,7.27,17.56,16.65c0,6.39-3.65,12.03-9.04,15.04l12.58,37.63L1845.75,2196.49z"/>
					<path class="st2" d="M1930.43,2090.99c-7.21,0.12-13.05-5.46-13.05-12.46c0-26.92-22.6-48.53-50.47-48.18
						c-27.97,0.36-50.8,22.7-50.8,49.79c0,7.05-5.93,12.86-13.24,12.98c-7.32,0.12-13.27-5.5-13.27-12.56
						c0-41.24,34.78-75.17,77.31-75.65c42.31-0.47,76.56,32.36,76.56,73.2C1943.46,2085.1,1937.63,2090.87,1930.43,2090.99z"/>
				</g>
			</g>
			<path class="st9" d="M801,3044.5l1498.72-110.33l7.63-0.56c10.19-0.75,19.45-5.79,26.53-13.43
				c-107.85-5.9-174.84-44.18-218.05-83.72c-86.78-79.42-71.73-157.74-165.31-209.95c-116.72-65.13-208.5,17.4-297.07-64.03
				c-53.7-49.37-27.33-86.18-93.41-159.95c-73.18-81.71-120.83-54.24-194.37-127.78c-92.99-92.98-46.48-165.33-126.59-232.08
				c-97.18-80.99-201.98-6.03-294.48-83.7c-39.9-33.5-61.79-82.2-73.22-134h-70.38c-26.96,0-48.87,22.7-48.87,50.7V2997.4
				C752.13,3025.4,774.05,3046.48,801,3044.5z"/>
		</g>
		<g>
			
				<linearGradient id="SVGID_00000152223086170150209070000011575432861190197151_" gradientUnits="userSpaceOnUse" x1="1953.0056" y1="1042.952" x2="1699.5867" y2="1286.5297">
				<stop  offset="0" style="stop-color:#FF9085"/>
				<stop  offset="1" style="stop-color:#FB6FBB"/>
			</linearGradient>
			<path style="fill:url(#SVGID_00000152223086170150209070000011575432861190197151_);" d="M1447.36,2181.9
				c-22.36,0.65-44.16-4.99-63.05-16.31c-57.54-34.5-142.57-91.46-219.07-166.03c-97.07-94.63-152.84-190.81-165.04-285.26
				l-0.19-1.48l-2.37-403.02c0-79.65,51.95-144.3,149.49-186.79c80.58-35.1,187.39-52.49,300.23-49.23
				c111.52,3.23,214.72,26.24,291.1,64.58c90.8,45.58,138.44,109.63,138.44,185.57l-2.16,385.09l-0.17,1.42
				c-11.15,90.45-62.46,183.94-153.16,278.48c-72.75,75.83-154.95,135.92-211.41,173.15
				C1491.32,2174.39,1469.66,2181.26,1447.36,2181.9z"/>
			
				<linearGradient id="SVGID_00000178173378376333703750000008682205491806170019_" gradientUnits="userSpaceOnUse" x1="1261.87" y1="1844.7212" x2="828.9131" y2="2566.3147">
				<stop  offset="0" style="stop-color:#FF9085"/>
				<stop  offset="1" style="stop-color:#FB6FBB"/>
			</linearGradient>
			<path style="fill:url(#SVGID_00000178173378376333703750000008682205491806170019_);" d="M1469.49,2181.9
				c-22.06,0.65-43.58-4.99-62.22-16.31c-56.78-34.5-140.69-91.46-216.17-166.03c-95.78-94.63-150.82-190.81-162.86-285.26
				l-0.19-1.48l-2.34-403.02c0-79.65,51.26-144.3,147.51-186.79c79.52-35.1,184.92-52.49,296.26-49.23
				c110.05,3.23,211.88,26.24,287.25,64.58c89.6,45.58,136.61,109.63,136.61,185.57l-2.13,385.09l-0.17,1.42
				c-11,90.45-61.64,183.94-151.14,278.48c-71.79,75.83-152.9,135.92-208.61,173.15C1512.87,2174.39,1491.5,2181.26,1469.49,2181.9z
				"/>
			
				<linearGradient id="SVGID_00000050660999813589515900000004064707644068592025_" gradientUnits="userSpaceOnUse" x1="1656.5876" y1="1900.6429" x2="956.9794" y2="493.8751">
				<stop  offset="0" style="stop-color:#FF9085"/>
				<stop  offset="1" style="stop-color:#FB6FBB"/>
			</linearGradient>
			<path style="fill:url(#SVGID_00000050660999813589515900000004064707644068592025_);" d="M1052.32,1310.09l2.35,400.99
				c26.39,204.59,266.84,370.24,371.56,433.17c30,18.03,68.35,16.96,98.14-2.64c102.54-67.47,329.81-237.33,354.09-434.04
				l2.16-384.03C1880.63,1038.62,1052.32,1012.57,1052.32,1310.09z"/>
			
				<linearGradient id="SVGID_00000157994495933403355520000001410030008635529601_" gradientUnits="userSpaceOnUse" x1="1131.7186" y1="1627.7323" x2="1807.2271" y2="1627.7323">
				<stop  offset="0" style="stop-color:#311944"/>
				<stop  offset="1" style="stop-color:#893976"/>
			</linearGradient>
			<path style="fill:url(#SVGID_00000157994495933403355520000001410030008635529601_);" d="M1475.43,2082.44
				c-1.92,0.04-4.82-0.27-7.76-2.05c-43.12-26.11-126.7-80.8-199.42-152.23c-78.54-77.15-123.84-152.16-134.23-222.61l-2.3-394.35
				c0.1-37.84,30.05-70.22,88.76-96.13c65.54-28.93,158.62-44.11,254.95-41.82c95.37,2.26,185.73,21.46,248.34,52.53
				c55.38,27.48,83.37,59.87,83.46,96.4l-2.15,380.69c-9.69,68.17-52.21,141.67-126.86,218.93
				c-70.19,72.64-152.18,130.23-195.04,158.23C1480.25,2081.94,1477.35,2082.39,1475.43,2082.44z"/>
			<path class="st0" d="M1465.59,2055.48c-43.55-26.82-120.98-78.61-188.54-145.09c-73.81-72.64-116.53-142.35-126.57-206.85
				l-2.29-392.06c0.07-27.05,24.94-51.87,73.72-73.47c62.09-27.49,151.05-41.98,243.67-39.9c91.73,2.06,178.2,20.18,237.61,49.58
				c46.17,22.84,69.52,47.76,69.59,74.14l-2.14,379.29c-9.42,62.58-49.71,131.02-120.17,203.81
				C1585.07,1972.51,1508.94,2026.85,1465.59,2055.48z"/>
			<g>
				
					<linearGradient id="SVGID_00000030474010864117670040000015765677693616524445_" gradientUnits="userSpaceOnUse" x1="1684.6362" y1="1279.2124" x2="1406.8109" y2="1792.7673">
					<stop  offset="3.597120e-03" style="stop-color:#E38DDD"/>
					<stop  offset="1" style="stop-color:#9571F6"/>
				</linearGradient>
				<path style="fill:url(#SVGID_00000030474010864117670040000015765677693616524445_);" d="M1621.4,1542.18l-293.23,2.61
					c-22.54,0.2-40.91,17.77-40.91,39.24v187.87c0,21.34,18.3,37.88,40.76,36.96l292.19-11.96c20.78-0.85,37.64-18.06,37.74-38.44
					l0.93-179.48C1658.99,1558.47,1642.25,1541.99,1621.4,1542.18z"/>
				
					<linearGradient id="SVGID_00000046340765599905805650000010229963240704626831_" gradientUnits="userSpaceOnUse" x1="1439.0538" y1="1684.78" x2="1514.9087" y2="1684.78">
					<stop  offset="0" style="stop-color:#311944"/>
					<stop  offset="1" style="stop-color:#893976"/>
				</linearGradient>
				<path style="fill:url(#SVGID_00000046340765599905805650000010229963240704626831_);" d="M1514.91,1649.91
					c0.07-20.75-17.74-37.15-39.49-35.78c-19.25,1.22-35.22,16.76-36.3,35.42c-0.84,14.47,6.99,27.01,18.91,33.38
					c5.07,2.71,7.57,8.38,6.57,13.98l-8.47,47.46c-1.08,6.04,3.71,11.36,10.02,11.13l21.45-0.75c6.27-0.22,11.04-5.84,10.01-11.78
					l-8.2-47.01c-0.98-5.61,1.91-11.18,7-14.24C1507.45,1675.08,1514.87,1663.25,1514.91,1649.91z"/>
				
					<linearGradient id="SVGID_00000003816602982552183940000011724536615215162509_" gradientUnits="userSpaceOnUse" x1="1604.3577" y1="1235.7831" x2="1326.5326" y2="1749.3376">
					<stop  offset="3.597120e-03" style="stop-color:#E38DDD"/>
					<stop  offset="1" style="stop-color:#9571F6"/>
				</linearGradient>
				<path style="fill:url(#SVGID_00000003816602982552183940000011724536615215162509_);" d="M1617.28,1523.54
					c-8.81,0.06-15.93-6.94-15.89-15.63l0.18-40.92c0.18-41.1-33.8-74.92-76.15-75.34l-95.71-0.95
					c-43.83-0.44-79.87,33.74-79.9,76.14l-0.04,42.22c-0.01,8.96-7.64,16.28-17.07,16.34c-9.45,0.06-17.12-7.18-17.12-16.19
					l0.02-42.39c0.02-60.6,51.63-109.27,114.17-108.4l95.75,1.33c60.15,0.84,108.2,48.98,107.92,107.25l-0.2,40.76
					C1633.21,1516.42,1626.07,1523.48,1617.28,1523.54z"/>
			</g>
		</g>
		<g>
			
				<linearGradient id="SVGID_00000109017792330069909120000016962831514788525455_" gradientUnits="userSpaceOnUse" x1="3193.1394" y1="2223.4478" x2="3634.6221" y2="2223.4478" gradientTransform="matrix(-1 0 0 1 6054.2832 0)">
				<stop  offset="0" style="stop-color:#444B8C"/>
				<stop  offset="0.9964" style="stop-color:#3E4177"/>
			</linearGradient>
			<path style="fill:url(#SVGID_00000109017792330069909120000016962831514788525455_);" d="M2484.2,1860
				c81.42-39.76,240.22,104.26,317.5,242.2c30.8,54.97,66.95,119.51,58.08,196.24c-15.73,136.03-166.62,255.35-374.32,295.18
				c-5.85-20.88-11.69-41.76-17.54-62.65c22.71-23.65,56.67-57.8,100.07-96.92c66.67-60.1,80.37-64.1,83.57-83.08
				c10.47-62.15-149.34-114.17-206.19-223.44C2396.5,2033.58,2421.66,1890.54,2484.2,1860z"/>
			
				<linearGradient id="SVGID_00000014603248618079310640000016472628623721694337_" gradientUnits="userSpaceOnUse" x1="3306.9092" y1="2986.448" x2="3471.6919" y2="2986.448" gradientTransform="matrix(-1 0 0 1 6054.2832 0)">
				<stop  offset="0" style="stop-color:#AA80F9"/>
				<stop  offset="0.9964" style="stop-color:#6165D7"/>
			</linearGradient>
			<path style="fill:url(#SVGID_00000014603248618079310640000016472628623721694337_);" d="M2591.16,2953.29
				c0,0-13.37,32.98-6.72,45.89c6.65,12.91,38.72,4.75,83.95,11.66c45.22,6.91,76.43,17.48,78.93,8.11
				c2.51-9.37-91.21-58.83-98.7-65.66C2641.13,2946.45,2591.16,2953.29,2591.16,2953.29z"/>
			
				<linearGradient id="SVGID_00000163072916559974392060000014150596094443631768_" gradientUnits="userSpaceOnUse" x1="3494.396" y1="2697.6907" x2="3436.7615" y2="3058.5315" gradientTransform="matrix(-1 0 0 1 6054.2832 0)">
				<stop  offset="0" style="stop-color:#311944"/>
				<stop  offset="1" style="stop-color:#A03976"/>
			</linearGradient>
			<path style="fill:url(#SVGID_00000163072916559974392060000014150596094443631768_);" d="M2603.14,2903.99l31.62,49.3
				c0,0-14.57,14.38-39.34,9.03l-34.79-46.7L2603.14,2903.99z"/>
			
				<linearGradient id="SVGID_00000150086105088233117050000003169544508713886894_" gradientUnits="userSpaceOnUse" x1="3193.1396" y1="2223.4797" x2="3634.6199" y2="2223.4797" gradientTransform="matrix(-1 0 0 1 6054.2832 0)">
				<stop  offset="0" style="stop-color:#444B8C"/>
				<stop  offset="0.9964" style="stop-color:#3E4177"/>
			</linearGradient>
			<path style="opacity:0.3;fill:url(#SVGID_00000150086105088233117050000003169544508713886894_);" d="M2445.37,2127.53
				c-48.87-93.95-23.71-236.99,38.83-267.53c16.4-8.01,35.97-8.46,57.36-3.1c-11.26,32.51-9.03,56.02-3.47,72.67
				c24.78,74.27,131.91,65.82,165.38,150.35c21.16,53.44-12.49,79.95,17.54,122.79c31.12,44.39,82.01,36.95,97.73,80.19
				c11.71,32.22-11.38,50.54-2.51,77.68c2.47,7.56,7.35,15.16,15.55,22.37c-55.04,98.99-183.12,179.37-346.32,210.67
				c-5.85-20.88-11.69-41.76-17.54-62.65c22.71-23.65,56.67-57.8,100.07-96.92c66.67-60.1,80.37-64.1,83.57-83.08
				C2662.03,2288.83,2502.22,2236.8,2445.37,2127.53z"/>
			
				<linearGradient id="SVGID_00000044859340249889999210000010645855713300425899_" gradientUnits="userSpaceOnUse" x1="3437.7803" y1="2413.0718" x2="3815.2695" y2="2413.0718" gradientTransform="matrix(-1 0 0 1 6054.2832 0)">
				<stop  offset="0" style="stop-color:#444B8C"/>
				<stop  offset="0.9964" style="stop-color:#3E4177"/>
			</linearGradient>
			<path style="fill:url(#SVGID_00000044859340249889999210000010645855713300425899_);" d="M2539.76,1889.48
				c-3.52,142.38-1.55,296.33,8.76,460.21c13.17,209.27,37.83,401.47,67.98,574.2c-13.39,4.26-26.79,8.52-40.18,12.78
				c-137.75-134.21-178.97-252.28-190.26-337.21c-7.98-60.03,4.1-65.19-6.67-140.33c-20.5-143.09-73.99-192.09-111.55-326.04
				c-14.1-50.28-29.79-126.23-28.79-225.24C2339.29,1901.73,2439.53,1895.6,2539.76,1889.48z"/>
			
				<linearGradient id="SVGID_00000148637811038165130810000000062120459333105845_" gradientUnits="userSpaceOnUse" x1="3681.1636" y1="1143.399" x2="3407.1921" y2="2119.0051" gradientTransform="matrix(-1 0 0 1 6054.2832 0)">
				<stop  offset="0" style="stop-color:#FFC444"/>
				<stop  offset="0.9964" style="stop-color:#F36F56"/>
			</linearGradient>
			<path style="fill:url(#SVGID_00000148637811038165130810000000062120459333105845_);" d="M2638.43,1634.45
				c-2.5,0.57-13.36,4.19-17.65,49.55c-10.35,109.39,46.6,153.67,32.58,213c-13.46,56.94-82.11,84.57-152.78,113
				c-47.22,19-193.28,77.77-278.22,11.69c-35.75-27.81-39.66-61.39-65.16-184.83c-64.8-313.62-89.9-340.56-62.65-408.45
				c46.8-116.59,172.1-164.87,192.95-172.9c222.3-85.66,484.81,71.77,588.54,252.63c13.66,23.81,95.23,166.04,37.92,233.5
				c-34.67,40.81-114.35,47.4-166.94,19.57C2676.77,1724.02,2661.84,1629.08,2638.43,1634.45z"/>
			
				<linearGradient id="SVGID_00000123430362770727348150000015479320164595738776_" gradientUnits="userSpaceOnUse" x1="3241.6538" y1="1621.0804" x2="3289.2646" y2="1775.6071" gradientTransform="matrix(-1 0 0 1 6054.2832 0)">
				<stop  offset="0" style="stop-color:#FFC444"/>
				<stop  offset="0.9964" style="stop-color:#F36F56"/>
			</linearGradient>
			<path style="fill:url(#SVGID_00000123430362770727348150000015479320164595738776_);" d="M2881.39,1717.41
				c0.69,0,1.4-0.15,2.07-0.45c2.52-1.15,3.63-4.12,2.48-6.64c-1.91-4.17-47.79-102.65-153.83-141.51c-2.6-0.96-5.48,0.38-6.43,2.98
				c-0.95,2.6,0.38,5.48,2.98,6.43c101.99,37.38,147.7,135.28,148.15,136.26C2877.67,1716.32,2879.49,1717.41,2881.39,1717.41z"/>
			
				<linearGradient id="SVGID_00000128458766526462706250000006991354822495361462_" gradientUnits="userSpaceOnUse" x1="3837.7441" y1="1187.3695" x2="3563.7725" y2="2162.9771" gradientTransform="matrix(-1 0 0 1 6054.2832 0)">
				<stop  offset="0" style="stop-color:#FFC444"/>
				<stop  offset="0.9964" style="stop-color:#F36F56"/>
			</linearGradient>
			<path style="opacity:0.3;fill:url(#SVGID_00000128458766526462706250000006991354822495361462_);" d="M2239.89,1388.31
				c14.03,38.19-28.07,71.29-10.02,112.76c25.86,59.43,128.64,28.93,165.38,87.7c43.55,69.66-56.18,183.91-15.03,223.02
				c18.75,17.82,40.41-5,95.22,7.52c78.06,17.83,101.52,79.52,137.82,70.16c11.42-2.94,25.26-13.31,36.91-45.22
				c5.08,17.71,7.49,34.52,3.19,52.74c-13.46,56.94-82.11,84.57-152.78,113c-47.22,19-193.28,77.77-278.22,11.69
				c-35.75-27.81-39.66-61.39-65.16-184.83c-64.8-313.62-89.9-340.56-62.65-408.45c14.86-37.02,37.64-67.13,62.47-91.27
				C2210.57,1348.96,2232.55,1368.31,2239.89,1388.31z"/>
			
				<linearGradient id="SVGID_00000015322508019981501460000014588063798956019130_" gradientUnits="userSpaceOnUse" x1="4013.542" y1="1236.7382" x2="3739.5713" y2="2212.3418" gradientTransform="matrix(-1 0 0 1 6054.2832 0)">
				<stop  offset="0" style="stop-color:#FFC444"/>
				<stop  offset="0.9964" style="stop-color:#F36F56"/>
			</linearGradient>
			<path style="fill:url(#SVGID_00000015322508019981501460000014588063798956019130_);" d="M2374.27,1627.92
				c-6,5.45-66.81,59.02-139.97,40.73c-63.71-15.93-102.83-77.87-109.68-129.99c-16.3-123.96,145.2-228,125.29-253.09
				c-11.85-14.94-75.44,14-117.77,40.09c-43.95,27.09-162.7,100.29-188.01,243.95c-2.15,12.21-30.08,183.48,67.7,254.21
				c90.4,65.4,267.47,29.83,387.4-124.87C2390.91,1675.27,2382.59,1651.6,2374.27,1627.92z"/>
			<path class="st2" d="M2766.37,1514.7l-72.41,231.3c-2.37,7.58-9.28,12.85-17.22,13.13l-389.66,13.76
				c-12.21,0.43-21.56-10.75-18.97-22.69l50.39-232.25c1.82-8.4,9.13-14.49,17.73-14.75l411.68-12.82
				C2760.79,1489.98,2770.22,1502.4,2766.37,1514.7z"/>
			
				<linearGradient id="SVGID_00000136410486192379333960000012811383701489037225_" gradientUnits="userSpaceOnUse" x1="3485.781" y1="1530.9894" x2="3651.1655" y2="1829.1829" gradientTransform="matrix(-1 0 0 1 6054.2832 0)">
				<stop  offset="0.494" style="stop-color:#EBEFF2"/>
				<stop  offset="1" style="stop-color:#FFFFFF"/>
			</linearGradient>
			<path style="fill:url(#SVGID_00000136410486192379333960000012811383701489037225_);" d="M2762.9,1522.3l-70.28,224.49
				c-2.3,7.36-9,12.47-16.71,12.74l-378.18,13.36c-11.85,0.42-20.93-10.44-18.41-22.03l48.9-225.41c1.77-8.15,8.86-14.06,17.2-14.32
				l399.55-12.44C2757.48,1498.31,2766.63,1510.37,2762.9,1522.3z"/>
			
				<linearGradient id="SVGID_00000018943536039751909630000007051422501071741854_" gradientUnits="userSpaceOnUse" x1="3748.6692" y1="1848.1256" x2="3556.5559" y2="1641.8126" gradientTransform="matrix(-1 0 0 1 6054.2832 0)">
				<stop  offset="0.494" style="stop-color:#EBEFF2"/>
				<stop  offset="1" style="stop-color:#FFFFFF"/>
			</linearGradient>
			<path style="fill:url(#SVGID_00000018943536039751909630000007051422501071741854_);" d="M2279.32,1750.86l46.68-215.15
				c7.92,18.73,18.14,28.19,27.91,33.02c28.14,13.9,50.06-11.15,111.51-8.77c23.5,0.91,71.55,2.77,101.49,33.83
				c28.14,29.19,16.17,59.18,33.83,100.23c8.91,20.72,25.45,44.21,57.32,66.14l-360.32,12.73
				C2285.88,1773.31,2276.81,1762.45,2279.32,1750.86z"/>
			
				<linearGradient id="SVGID_00000082349624582058704470000004137085587888948382_" gradientUnits="userSpaceOnUse" x1="3597.2754" y1="1054.6119" x2="3565.5349" y2="1325.2426" gradientTransform="matrix(-1 0 0 1 6054.2832 0)">
				<stop  offset="0" style="stop-color:#311944"/>
				<stop  offset="1" style="stop-color:#A03976"/>
			</linearGradient>
			<path style="fill:url(#SVGID_00000082349624582058704470000004137085587888948382_);" d="M2516.65,1233.21
				c-4.14,14.54,4.6,29.65,19.3,33.19c17.8,4.3,39.48,10.23,48.85,15.59c17.19,9.84-52.35-1.53-116.32-3.03
				c-39.93-0.94-69.78-5.42-86.56-8.65c-4.51-0.87-4.86-7.16-0.49-8.58c15.98-5.2,41.97-12.86,63.94-15.62
				c27.19-3.42,56.35-63.42,56.35-63.42l23.3,21.17L2516.65,1233.21z"/>
			
				<linearGradient id="SVGID_00000125571300918749831670000008718757264072937884_" gradientUnits="userSpaceOnUse" x1="3302.158" y1="1594.832" x2="3378.5361" y2="1594.832" gradientTransform="matrix(-1 0 0 1 6054.2832 0)">
				<stop  offset="0" style="stop-color:#311944"/>
				<stop  offset="1" style="stop-color:#A03976"/>
			</linearGradient>
			<path style="fill:url(#SVGID_00000125571300918749831670000008718757264072937884_);" d="M2748.11,1588.42l-4.42-7.23
				c-3.91-15.02-18.34-24.82-33.74-22.92l-23.23,2.87c-7.27,0.9-12.19,7.81-10.69,14.98c2.16,10.37,7.73,22.78,22,21.81
				c24.25-1.64,39.75,33.7,39.75,33.7l9.31-13.11C2753.41,1609.6,2753.82,1597.75,2748.11,1588.42z"/>
			
				<linearGradient id="SVGID_00000062192781814239797690000013996827351661491592_" gradientUnits="userSpaceOnUse" x1="2541.1973" y1="2587.8313" x2="2466.8708" y2="2399.0559" gradientTransform="matrix(-0.8789 -0.477 -0.477 0.8789 5888.2051 210.4266)">
				<stop  offset="0" style="stop-color:#311944"/>
				<stop  offset="1" style="stop-color:#6B3976"/>
			</linearGradient>
			<path style="fill:url(#SVGID_00000062192781814239797690000013996827351661491592_);" d="M2568.59,1202.46
				c20.1-2.98,42.61-19.87,42.17-33.83c-0.6-19.19-44.46-29.69-66.6-35c-22.21-5.32-31.63-3.4-37.99,1.44
				c-6.5,4.95-10.76,13.8-12.16,21.43c-0.76,4.16-0.8,9.88-0.09,21.29c0.63,10.12,0.45,9.68,0.71,12.67
				c0.63,7.18,2.59,19.82,9.59,37.33c2.92-3.2,6.78-7.02,11.66-10.78c1.88-1.45,9.3-7.06,17.74-10.46
				C2548.09,1200.73,2556.39,1204.27,2568.59,1202.46z"/>
			
				<linearGradient id="SVGID_00000132048403974033454880000004441167711616529028_" gradientUnits="userSpaceOnUse" x1="3568.5815" y1="1091.1906" x2="3538.5115" y2="1166.366" gradientTransform="matrix(-1 0 0 1 6054.2832 0)">
				<stop  offset="0" style="stop-color:#311944"/>
				<stop  offset="1" style="stop-color:#A03976"/>
			</linearGradient>
			<path style="fill:url(#SVGID_00000132048403974033454880000004441167711616529028_);" d="M2493.52,1208.29
				c0,0,1.3,28,27.68,40.29c23.62,11.01,54.97-38.31,46.34-57.14c-2.88-6.28-11.79-13.11-20.92-15.23
				c-5.39-1.25-8.04-0.17-16.81-2.39c-8.09-2.04-9.66-3.92-12.78-3.29c-3.91,0.79-8.89,5.23-12.61,22.63
				c-1.94-6.79-6.24-11.34-10.89-11.62c-0.74-0.04-2.89,0.16-4.66,1.29C2482.49,1186.92,2483.74,1197.3,2493.52,1208.29z"/>
		</g>
	</g>
</g>
</svg>
