<?xml version="1.0" encoding="utf-8"?>
<!-- Generator: Adobe Illustrator 25.4.1, SVG Export Plug-In . SVG Version: 6.00 Build 0)  -->
<svg version="1.1" xmlns="http://www.w3.org/2000/svg" xmlns:xlink="http://www.w3.org/1999/xlink" x="0px" y="0px"
	 viewBox="0 0 2475 1650" style="enable-background:new 0 0 2475 1650;" xml:space="preserve">
<style type="text/css">
	.st0{fill:url(#SVGID_1_);}
	.st1{fill:#BDD0FB;}
	.st2{fill:#91B3FA;}
	.st3{fill:#7D97F4;}
	.st4{opacity:0.5;fill:#FFFFFF;}
	.st5{fill:url(#SVGID_00000102539886764645690380000008319810645646124194_);}
	.st6{fill:url(#SVGID_00000176763106735538352690000001715888597574316438_);}
	.st7{fill:#FFFFFF;}
	.st8{fill:url(#SVGID_00000069366147725752703640000014166853715482646168_);}
	.st9{fill:url(#SVGID_00000067958808701228373330000008626424679370554778_);}
	.st10{opacity:0.6;}
	.st11{opacity:0.85;}
	.st12{fill:url(#SVGID_00000107563376394427420740000002250666195289634483_);}
	.st13{fill:url(#SVGID_00000148625880268312753740000011197455320712790942_);}
	.st14{fill:url(#SVGID_00000134243989594744058290000017443803103345090956_);}
	.st15{fill:url(#SVGID_00000085965803224222957680000005192057738414211743_);}
	.st16{fill:url(#SVGID_00000152962096363992003670000003455865420115724963_);}
	.st17{fill:url(#SVGID_00000050626723583711523700000000485175352302796941_);}
	.st18{fill:url(#SVGID_00000129883977653602064720000017745762823191009467_);}
	.st19{fill:url(#SVGID_00000172417707715250023820000016712557987356692151_);}
	.st20{fill:url(#SVGID_00000121980846008966199370000013485416474939014309_);}
	.st21{fill:url(#SVGID_00000016790043407459542930000014880698152476030891_);}
	.st22{fill:url(#SVGID_00000141445563710575339600000006035897222777681599_);}
	.st23{fill:url(#SVGID_00000178206847064239663310000006803803969708146079_);}
	.st24{fill:url(#SVGID_00000141413313987506932370000017480764706425437619_);}
	.st25{fill:url(#SVGID_00000168114438591124131710000002987684326506219147_);}
	.st26{fill:url(#SVGID_00000087379377249256584850000007941114213210655137_);}
	.st27{fill:url(#SVGID_00000091701563067274886820000001260625174643880085_);}
	.st28{fill:url(#SVGID_00000070835307124153581780000016862944001755655566_);}
	.st29{fill:url(#SVGID_00000078018876702512949940000002572680985816196744_);}
	.st30{fill:url(#SVGID_00000002360818769393710550000005204622367621099405_);}
	.st31{fill:url(#SVGID_00000071521132264767845110000008716405825542766221_);}
	.st32{fill:url(#SVGID_00000053534141827194707900000017564984711023669398_);}
	.st33{fill:url(#SVGID_00000093171371172480816870000002736023367444273077_);}
	.st34{fill:url(#SVGID_00000170264038556265362180000009947832535621774725_);}
	.st35{fill:url(#SVGID_00000163051860392550759970000001957836865238040736_);}
	.st36{fill:url(#SVGID_00000124146174851920052690000007912902676831849374_);}
	.st37{fill:url(#SVGID_00000105390704644459592220000007532139781255904430_);}
	.st38{fill:url(#SVGID_00000131350878361915307830000017578488674987363750_);}
	.st39{fill:url(#SVGID_00000093857862104042820430000005409311683899399342_);}
	.st40{fill:url(#SVGID_00000111893890913321954920000004678868349417901746_);}
	.st41{fill:url(#SVGID_00000120553340938643460210000001584485193964546691_);}
	.st42{fill:url(#SVGID_00000013907242436797120620000005788290177245808769_);}
	.st43{fill:url(#SVGID_00000019677766101970067440000008309171536853963145_);}
	.st44{fill:url(#SVGID_00000049930391629934456390000014882042309004167086_);}
	.st45{fill:url(#SVGID_00000169530067178144256310000003207267479938576274_);}
	.st46{fill:url(#SVGID_00000115472980375925666140000003847538087674945692_);}
	.st47{fill:url(#SVGID_00000116229352329975888300000001032599621875669379_);}
	.st48{fill:url(#SVGID_00000158712172161323315010000001916919768076445083_);}
	.st49{fill:url(#SVGID_00000068647424008885666570000002372261213804458175_);}
	.st50{fill:url(#SVGID_00000125582570301469071010000003331967071015876506_);}
	.st51{fill:url(#SVGID_00000055682082894982385030000005896819562920082326_);}
	.st52{fill:url(#SVGID_00000098198073181264458930000000116001168674284963_);}
	.st53{fill:url(#SVGID_00000020372984723415897640000018351047430083459463_);}
	.st54{fill:url(#SVGID_00000048497591158002134580000002407478709022944182_);}
	.st55{fill:url(#SVGID_00000062163756703476987520000000987459932671513767_);}
	.st56{fill:url(#SVGID_00000168095324020984064230000004905806248947523994_);}
	.st57{fill:url(#SVGID_00000026865578301672877990000009322957189950900864_);}
	.st58{fill:url(#SVGID_00000048468896805080428830000015720885313792554400_);}
	.st59{fill:url(#SVGID_00000143596907298358180600000017894080526916880284_);}
	.st60{fill:url(#SVGID_00000164482819896842549810000001443309794559545741_);}
	.st61{fill:url(#SVGID_00000018209459751672820900000005008525070612097414_);}
	.st62{fill:url(#SVGID_00000149369974328824096150000000455780704405957516_);}
	.st63{fill:url(#SVGID_00000181050245441328368180000007130585452989601202_);}
	.st64{fill:url(#SVGID_00000140731936667417876950000011834738623741670328_);}
	.st65{fill:url(#SVGID_00000181054166148199700400000007852843042022438787_);}
	.st66{fill:url(#SVGID_00000048484936130290685400000010123481330518801335_);}
	.st67{fill:url(#SVGID_00000106846395306258852660000016050657881583828888_);}
	.st68{fill:url(#SVGID_00000082360814908268862320000005530475032185582754_);}
	.st69{fill:url(#SVGID_00000133517282125149142600000018337015011246195647_);}
	.st70{fill:url(#SVGID_00000008830441535186053940000008706152225979929759_);}
	.st71{fill:url(#SVGID_00000014627182094959747390000013528191042308223654_);}
	.st72{fill:#FAF3FE;}
</style>
<g id="Background">
</g>
<g id="Illustration">
	<g>
		<linearGradient id="SVGID_1_" gradientUnits="userSpaceOnUse" x1="252.922" y1="819.1735" x2="2289" y2="819.1735">
			<stop  offset="0" style="stop-color:#DAE3FE"/>
			<stop  offset="1" style="stop-color:#E9EFFD"/>
		</linearGradient>
		<path class="st0" d="M2231.4,887.6c-35.3-38.7-77-76.4-87.9-129c-18.8-90.9,61.7-168.5,88.1-257.3c18.2-61.4,8.8-131.3-24.9-184.9
			c-33.7-53.6-91-89.7-151.6-95.6c-104.2-10.1-206.2,64.2-308.8,42.7c-82.2-17.2-147.1-93.3-230.6-101.4
			c-98.2-9.6-179.6,76.2-273.4,108.5c-112.1,38.6-233.7-1.7-344-46c-110.2-44.3-226.2-93.7-342.5-72.5
			C426.6,175.7,318.1,295,300.8,432.7c-17.1,136.5,126.7,246,4.2,409.9c-38.3,51.2-63.7,122.5-46.8,185.3
			c16.4,61,86.4,99.6,86.9,163c0.4,50.1-44.2,89.9-47.8,139.8c-3.1,42.9,26,82.5,61.8,102.8c35.8,20.3,77.3,25.3,117.7,29.9
			l-11.9,13.5c203.4,19.3,408,15,612.2,10.7c321.9-6.8,643.9-13.6,965.8-20.4c33.1-0.7,67-1.6,97.8-14.3
			c30.8-12.7,58.5-40,63.2-74.7c8-59-50.3-110.2-44.9-169.6c6.9-75.8,107.7-105,126.9-178.4C2299.4,978.5,2266.7,926.3,2231.4,887.6
			z"/>
		<g>
			<path class="st1" d="M1916,170.9c29.7,88.8,181.2,612.6-284.8,843c0,0-188.5-319.1,271.3-845.8
				C1906.6,163.6,1914.1,165.1,1916,170.9z"/>
			<path class="st2" d="M1887.2,260.3c-2.3,29.8-5.3,59.6-8.5,89.3c-3.2,29.7-6.8,59.4-10.7,89.1c-7.8,59.3-16.9,118.5-27.9,177.3
				c-11,58.8-23.7,117.4-39.6,175.2c-7.9,28.9-16.8,57.6-26.8,85.8c-10,28.3-21.2,56.2-34.6,83.2c-1,2-3.4,2.8-5.4,1.8
				c-2-1-2.8-3.4-1.8-5.4l0,0l0,0c13.4-26.5,24.6-54.1,34.8-82.1c10.1-28,19.2-56.4,27.2-85.2c16.2-57.4,29.3-115.7,40.6-174.4
				c11.3-58.6,20.8-117.7,29-176.8c4.1-29.6,7.8-59.2,11.2-88.9c3.4-29.7,6.5-59.4,9-89.2l0,0c0.1-0.9,0.9-1.6,1.8-1.6
				C1886.5,258.6,1887.2,259.4,1887.2,260.3z"/>
		</g>
		<g>
			<path class="st2" d="M2190.3,270.8c-0.2-9.3-12.6-12.2-16.8-3.9c-40.4,79.8-153,285.7-282.4,381.2
				c-210.7,155.5-386.9,440.8-307.7,622.3C1583.4,1270.4,2207.2,1278.9,2190.3,270.8z"/>
			<path class="st3" d="M2149.2,388c-0.7,2.6-1.6,4.8-2.4,7.2l-2.6,7l-5.3,13.9c-3.6,9.2-7.3,18.4-11,27.6
				c-7.5,18.3-15.2,36.5-23,54.7c-15.8,36.3-32.5,72.1-49.8,107.7c-17.2,35.6-35.4,70.8-54.3,105.5l-7.1,13.1l-7.2,13
				c-4.9,8.6-9.6,17.3-14.6,25.9l-14.8,25.7l-15.2,25.5c-40.9,67.7-85.4,133.4-134.4,195.6c-3,3.9-6.1,7.8-9.3,11.6l-9.4,11.5
				l-9.4,11.5c-3.2,3.8-6.5,7.5-9.7,11.2c-6.5,7.4-12.9,15-19.6,22.3l-20.2,21.8c-27.4,28.5-56.1,55.9-86.6,81.2
				c-0.4,0.4-1.1,0.3-1.4-0.1c-0.3-0.4-0.3-1,0.1-1.4l0,0c29.8-26,58-53.6,84.8-82.5l19.9-21.9c6.6-7.3,12.8-15,19.3-22.4
				c3.2-3.8,6.4-7.5,9.6-11.3l9.3-11.5l9.3-11.5c3.1-3.8,6.2-7.7,9.1-11.6l18-23.5c6-7.9,11.7-15.9,17.5-23.8c2.9-4,5.9-7.9,8.7-12
				l8.5-12.1l8.5-12.1c2.8-4,5.7-8.1,8.4-12.2c22.3-32.6,43.2-66.1,63.9-99.7c41-67.5,78.5-137,113.8-207.7
				c17.6-35.4,34.5-71.1,50.7-107.1c8.1-18,16.1-36.1,23.9-54.2c3.8-9.1,7.7-18.2,11.4-27.3l5.5-13.7l2.7-6.9
				c0.8-2.3,1.8-4.7,2.5-6.8l0.1-0.2c0.2-0.5,0.7-0.8,1.3-0.6C2149,386.9,2149.3,387.5,2149.2,388z"/>
		</g>
		<g>
			<path class="st1" d="M1637.8,1473.9c0,0,6.1-128.1,138.5-254.4c122.9-117.2,424.6-388,496.5-540.4c3.2-6.8,13.3-4.5,13.2,3
				c-1.3,80.1-20.3,280.3-163.9,476.2C1937,1410.7,1637.8,1473.9,1637.8,1473.9z"/>
			<path class="st2" d="M2222.3,821.1c-2.7,17.5-7.6,34.6-13.5,51.3c-0.7,2.1-1.4,4.2-2.1,6.3l-2.4,6.2l-4.8,12.4l-5.3,12.2
				c-1.8,4.1-3.4,8.2-5.5,12.1c-15.3,32-33.2,62.9-53.6,91.9c-4.8,7.5-10.4,14.4-15.7,21.5c-5.4,7-10.5,14.3-16.4,21l-17.1,20.4
				c-2.8,3.5-5.9,6.6-8.9,9.9l-9.1,9.7l-9.1,9.7l-4.6,4.9l-4.8,4.6l-19.1,18.6c-3.2,3.1-6.3,6.3-9.6,9.2l-9.8,8.9l-19.6,17.9
				l-19.8,17.6c-6.6,5.9-13.2,11.8-19.9,17.5c-13.4,11.6-26.8,23.2-40.3,34.5c-13.5,11.5-27.1,22.7-40.7,34l-41.1,33.5
				c-27.4,22.3-54.9,44.6-81.6,67.7c-6.8,5.7-13.2,11.7-19.8,17.6c-3.3,2.9-6.4,6-9.6,9.1c-3.1,3.1-6.4,6.1-9.5,9.2
				c-6,6.4-12.3,12.6-17.8,19.5l-4.3,5c-0.7,0.8-1.5,1.7-2.1,2.5l-2,2.6l-7.9,10.6l0,0c-0.3,0.4-1,0.5-1.4,0.2
				c-0.4-0.3-0.5-0.9-0.2-1.4c9.8-14.9,21.1-28.6,33.2-41.6c3-3.2,6.2-6.3,9.3-9.5c3.1-3.1,6.2-6.4,9.4-9.4
				c6.4-6.1,12.8-12.3,19.4-18.1c26.3-23.8,53.6-46.3,80.7-69c27.1-22.7,54.2-45.3,81.1-68.3c26.9-22.9,53.4-46.3,79.7-69.8
				l19.6-17.8l9.8-8.9c3.3-3,6.4-6.1,9.6-9.1l19-18.3l4.8-4.6l4.5-4.8l9-9.6c24.5-25.3,46.7-52.7,67.5-81.1
				c20.9-28.3,39.3-58.5,55.1-90c2.1-3.9,3.8-7.9,5.7-11.9l5.6-12l5.1-12.2l2.6-6.1c0.8-2,1.6-4.1,2.3-6.2c1.5-4.1,3.2-8.2,4.6-12.4
				l4.1-12.6c2.5-8.5,5.1-16.9,6.7-25.6c0-0.1,0.1-0.1,0.1-0.1C2222.3,821,2222.3,821.1,2222.3,821.1z"/>
		</g>
		<g>
			<path class="st1" d="M681.4,1181c0,0-128.4-542.2-394.5-838c-17.9-19.9-50.7-12.2-57.7,13.6C181.9,529,91.2,1052.3,681.4,1181z"
				/>
			<path class="st2" d="M627.4,1146c1.3,1.3-0.4,3.3-1.9,2.2c-54.8-40.7-266.5-240.8-344.6-639.6c-0.3-1.3,1.6-1.8,2-0.5
				C309.4,600.6,418.1,941.4,627.4,1146z"/>
		</g>
		<g>
			<path class="st2" d="M642.8,765.5c0,0,51.2-390.2-50.3-652.2c-6.8-17.6-30.4-20.8-41.5-5.5C476.5,209.8,285.4,532.6,642.8,765.5z
				"/>
			<path class="st3" d="M615.9,728.9c0.5,1.2-1.1,2.1-1.8,1c-25.9-40.6-115.5-225.8-67.1-508.7c0.2-0.9,1.5-0.8,1.4,0.2
				C542.8,289,529,541.3,615.9,728.9z"/>
		</g>
		<g>
			<path class="st1" d="M128,931.9c-2.6-1.6-1.2-5.5,1.8-5.2c47.7,5.2,221.2,34.6,351.4,194.8c119.1,146.6,178.7,268.9,199,315.3
				c4,9.2-3.3,19.3-13.3,18.3c-59.1-5.9-223.7-31-292.5-131.5C292.2,1203.5,250.2,1007.3,128,931.9z"/>
			<path class="st4" d="M268.2,1014.8c0,0,155.4,58.6,399.6,423.4C667.8,1438.2,403,1084.6,268.2,1014.8z"/>
		</g>
		<g>
			<g>
				
					<linearGradient id="SVGID_00000098938378285813729760000003420054310878122414_" gradientUnits="userSpaceOnUse" x1="1097.3573" y1="1385.8871" x2="1433.6406" y2="377.0342">
					<stop  offset="0" style="stop-color:#09005D"/>
					<stop  offset="1" style="stop-color:#1A0F91"/>
				</linearGradient>
				<path style="fill:url(#SVGID_00000098938378285813729760000003420054310878122414_);" d="M1965.7,1422.5
					c0,14.5-11.8,26.3-26.3,26.3H515.5c-14.5,0-26.3-11.8-26.3-26.3l-11.8-818.2c0-14.5,17-42.7,48.3-40.6l1391.5-36
					c18.2-0.5,35.7,6.5,48.6,19.3c12.9,12.8,19.9,30.4,19.5,48.5L1965.7,1422.5z"/>
				
					<linearGradient id="SVGID_00000018916832788864148680000000828853492411811770_" gradientUnits="userSpaceOnUse" x1="1223.9329" y1="1266.4065" x2="1247.9352" y2="63.2836">
					<stop  offset="0" style="stop-color:#FE7062"/>
					<stop  offset="1" style="stop-color:#FF928E"/>
				</linearGradient>
				<path style="fill:url(#SVGID_00000018916832788864148680000000828853492411811770_);" d="M1939.7,1397.2
					c0,13.7-11.2,24.9-24.9,24.9H549.8c-13.7,0-24.9-11.2-24.9-24.9l-11.2-742.8c1.3-44.7,40.5-60.8,64.3-59.8l1333.7-35.8
					c12.8-0.3,25.1,4.6,34.1,13.6c9,9,14,21.4,13.7,34.1L1939.7,1397.2z"/>
				<g>
					<path class="st7" d="M539.7,1042.7c-1.1,0-2-0.9-2-2l-0.9-60.2c0-1.1,0.9-2,2-2c0,0,0,0,0,0c1.1,0,2,0.9,2,2l0.9,60.2
						C541.7,1041.8,540.8,1042.7,539.7,1042.7C539.7,1042.7,539.7,1042.7,539.7,1042.7z"/>
					<path class="st7" d="M537.5,895.1c-1.1,0-2-0.9-2-2l-3.4-230.7c0.1-15.4,4.8-27.7,14.1-36.6c16.9-16.2,43.4-15.4,44.5-15.3
						l425.9-11.4c1.1-0.1,2,0.8,2.1,2c0,1.1-0.8,2-2,2.1l-426,11.4c-1.2,0-26-0.8-41.7,14.2c-8.5,8.1-12.8,19.5-12.9,33.7l3.4,230.7
						C539.5,894.2,538.6,895.1,537.5,895.1C537.5,895.1,537.5,895.1,537.5,895.1z"/>
				</g>
				
					<linearGradient id="SVGID_00000138567706154259900920000010760751596319791800_" gradientUnits="userSpaceOnUse" x1="1042.6853" y1="2470.0959" x2="1240.7058" y2="996.9472">
					<stop  offset="0" style="stop-color:#FE7062"/>
					<stop  offset="1" style="stop-color:#FF928E"/>
				</linearGradient>
				<path style="fill:url(#SVGID_00000138567706154259900920000010760751596319791800_);" d="M585,1356c1.4-61.4,0.9-605.1-2.6-652
					c-3.5-47,69.6-55.8,181.9-61c112.3-5.3,1059.5-26.2,1083.9-28.2c54.8-4.4,66.2,77.5,60.7,255.4c-4.1,133.7-11,353.8-14.1,455.1
					c-0.9,30.1-25.6,54.1-55.7,54.2c-228,0.6-1101.6,3.1-1159.8,4.9C612.4,1386.3,584.5,1380.4,585,1356z"/>
			</g>
			
				<linearGradient id="SVGID_00000102513318065458945000000001321771708434453413_" gradientUnits="userSpaceOnUse" x1="1241.844" y1="845.2216" x2="1241.844" y2="1307.2676">
				<stop  offset="0" style="stop-color:#09005D"/>
				<stop  offset="1" style="stop-color:#1A0F91"/>
			</linearGradient>
			<path style="fill:url(#SVGID_00000102513318065458945000000001321771708434453413_);" d="M2073.7,1490.6H410
				c-4.1,0-7.5-3.4-7.5-7.5v-56.9c0-4.1,3.4-7.5,7.5-7.5h1663.7c4.1,0,7.5,3.4,7.5,7.5v56.9
				C2081.2,1487.2,2077.8,1490.6,2073.7,1490.6z"/>
		</g>
		<g class="st10">
			<rect x="640.8" y="1079.4" class="st7" width="62.2" height="269.2"/>
			<rect x="744.7" y="1171.9" class="st7" width="62.2" height="176.7"/>
			<rect x="848.7" y="943.2" class="st7" width="62.2" height="405.4"/>
			<rect x="952.7" y="1251.2" class="st7" width="62.2" height="97.4"/>
			<rect x="1056.6" y="997.4" class="st7" width="62.2" height="351.2"/>
			<rect x="1160.6" y="1058.2" class="st7" width="62.2" height="290.4"/>
			<rect x="1264.5" y="1124.3" class="st7" width="62.2" height="224.3"/>
			<rect x="1368.5" y="861.3" class="st7" width="62.2" height="487.3"/>
			<rect x="1472.4" y="912.8" class="st7" width="62.2" height="435.8"/>
			<rect x="1576.4" y="990.8" class="st7" width="62.2" height="357.8"/>
			<rect x="1680.3" y="1260.2" class="st7" width="62.2" height="88.3"/>
			<rect x="1784.3" y="1088.6" class="st7" width="62.2" height="260"/>
		</g>
		<g>
			<path class="st3" d="M224,737.6l654.8-11.1c26.4-0.4,47.5,22.2,46,49.1l-22.5,387.6c-1.2,21.2-18.3,37.8-39.1,38l-629.4,6.2
				c-15.5,0.2-28.4-12.4-29-28.3l-15.1-404.5C188.9,754.7,204.4,737.9,224,737.6z"/>
			<path class="st2" d="M200.6,782.8c-0.7-19,14.3-35,33.4-35.3l637.7-10.5c25.7-0.4,46.3,21.1,44.8,46.7l-21.9,368.8
				c-1.2,20.2-17.8,36-38,36.2l-613,5.9c-15.1,0.1-27.6-11.8-28.2-26.9L200.6,782.8z"/>
			<path class="st1" d="M214.1,793.8c-0.7-18.1,13.7-33.3,31.8-33.6l607.2-10c24.4-0.4,44.1,20.1,42.6,44.5l-20.9,351.1
				c-1.1,19.2-17,34.3-36.2,34.5l-583.7,5.6c-14.4,0.1-26.3-11.2-26.9-25.6L214.1,793.8z"/>
			<path class="st3" d="M873.2,736.6l-640.4,10.6c-19.1,0.3-34.3,16.3-33.5,35.4l1,27.1h716.3l1.6-26.2
				C919.7,757.8,899,736.2,873.2,736.6z"/>
			<g class="st11">
				
					<linearGradient id="SVGID_00000036251057254756161820000016685620204298637729_" gradientUnits="userSpaceOnUse" x1="241.4347" y1="760.3286" x2="252.9537" y2="760.3286">
					<stop  offset="0" style="stop-color:#DAE3FE"/>
					<stop  offset="1" style="stop-color:#E9EFFD"/>
				</linearGradient>
				<path style="fill:url(#SVGID_00000036251057254756161820000016685620204298637729_);" d="M253,760.3c0,3.2-2.6,5.8-5.8,5.8
					c-3.2,0-5.8-2.6-5.8-5.8c0-3.2,2.6-5.8,5.8-5.8C250.4,754.6,253,757.1,253,760.3z"/>
				
					<linearGradient id="SVGID_00000051360082021046144220000008183964904012308914_" gradientUnits="userSpaceOnUse" x1="241.4347" y1="777.2053" x2="252.9537" y2="777.2053">
					<stop  offset="0" style="stop-color:#DAE3FE"/>
					<stop  offset="1" style="stop-color:#E9EFFD"/>
				</linearGradient>
				<path style="fill:url(#SVGID_00000051360082021046144220000008183964904012308914_);" d="M253,777.2c0,3.2-2.6,5.8-5.8,5.8
					c-3.2,0-5.8-2.6-5.8-5.8c0-3.2,2.6-5.8,5.8-5.8C250.4,771.4,253,774,253,777.2z"/>
				
					<linearGradient id="SVGID_00000116921468218985645020000006236580536809832594_" gradientUnits="userSpaceOnUse" x1="241.4347" y1="794.0819" x2="252.9537" y2="794.0819">
					<stop  offset="0" style="stop-color:#DAE3FE"/>
					<stop  offset="1" style="stop-color:#E9EFFD"/>
				</linearGradient>
				<path style="fill:url(#SVGID_00000116921468218985645020000006236580536809832594_);" d="M253,794.1c0,3.2-2.6,5.8-5.8,5.8
					c-3.2,0-5.8-2.6-5.8-5.8c0-3.2,2.6-5.8,5.8-5.8C250.4,788.3,253,790.9,253,794.1z"/>
			</g>
			
				<linearGradient id="SVGID_00000033358600315814997610000000580625527693434509_" gradientUnits="userSpaceOnUse" x1="263.5377" y1="954.1615" x2="446.0983" y2="954.1615">
				<stop  offset="0" style="stop-color:#DAE3FE"/>
				<stop  offset="1" style="stop-color:#E9EFFD"/>
			</linearGradient>
			<circle style="fill:url(#SVGID_00000033358600315814997610000000580625527693434509_);" cx="354.8" cy="954.2" r="91.3"/>
			<circle class="st3" cx="354.8" cy="954.2" r="20.1"/>
			<path class="st2" d="M403.7,987.1c-10.6,15.5-28.3,25.7-48.5,25.7c-32.4,0-58.6-26.3-58.6-58.6c0-32.4,26.3-58.6,58.6-58.6
				c1,0,2,0,3,0.1v-14.9c-1,0-2-0.1-3-0.1c-40.6,0-73.5,32.9-73.5,73.5c0,40.6,32.9,73.5,73.5,73.5c25.1,0,47.3-12.6,60.5-31.8
				L403.7,987.1z"/>
			<g>
				<g>
					<path class="st3" d="M515.8,884.7c0,7.4-6.1,13.3-13.5,13.3c-7.4,0-13.3-6.1-13.3-13.5c0-7.4,6.1-13.3,13.5-13.3
						C509.9,871.3,515.9,877.4,515.8,884.7z"/>
					
						<linearGradient id="SVGID_00000031890491684985713070000005802509372749855645_" gradientUnits="userSpaceOnUse" x1="490.5462" y1="883.1926" x2="490.7295" y2="883.1926">
						<stop  offset="0" style="stop-color:#4042E2"/>
						<stop  offset="1" style="stop-color:#4F52FF"/>
					</linearGradient>
					<path style="fill:url(#SVGID_00000031890491684985713070000005802509372749855645_);" d="M490.5,883.9c0-0.5,0.1-1,0.2-1.5
						L490.5,883.9z"/>
				</g>
				<g>
					<path class="st3" d="M515.8,965.8c0,7.4-6.1,13.3-13.5,13.3s-13.3-6.1-13.3-13.5c0-7.4,6.1-13.3,13.5-13.3
						C509.9,952.4,515.9,958.4,515.8,965.8z"/>
					
						<linearGradient id="SVGID_00000046298288614670827370000009325441107274817701_" gradientUnits="userSpaceOnUse" x1="490.5462" y1="964.2749" x2="490.7295" y2="964.2749">
						<stop  offset="0" style="stop-color:#09005D"/>
						<stop  offset="1" style="stop-color:#1A0F91"/>
					</linearGradient>
					<path style="fill:url(#SVGID_00000046298288614670827370000009325441107274817701_);" d="M490.5,965c0-0.5,0.1-1,0.2-1.5
						L490.5,965z"/>
				</g>
				<g>
					<path class="st3" d="M515.8,1046.9c0,7.4-6.1,13.3-13.5,13.3c-7.4,0-13.3-6.1-13.3-13.5c0-7.4,6.1-13.3,13.5-13.3
						C509.9,1033.5,515.9,1039.5,515.8,1046.9z"/>
					
						<linearGradient id="SVGID_00000133529083137934922290000013482110018784461758_" gradientUnits="userSpaceOnUse" x1="490.5462" y1="1045.3572" x2="490.7295" y2="1045.3572">
						<stop  offset="0" style="stop-color:#4042E2"/>
						<stop  offset="1" style="stop-color:#4F52FF"/>
					</linearGradient>
					<path style="fill:url(#SVGID_00000133529083137934922290000013482110018784461758_);" d="M490.5,1046.1c0-0.5,0.1-1,0.2-1.5
						L490.5,1046.1z"/>
				</g>
				<path class="st2" d="M536.4,884l0.1,2.3c0.2,6.2,4,11.1,8.7,11.1l260.3,0.5c4.9,0,8.8-5.1,8.8-11.5l0,0c0-6.2-3.8-11.3-8.6-11.5
					l-260.3-2.8C540.3,872,536.2,877.5,536.4,884z"/>
				<path class="st2" d="M536.4,964.7l0.1,2.3c0.2,6.2,4,11.1,8.7,11.1l260.3,0.5c4.9,0,8.8-5.1,8.8-11.5l0,0
					c0-6.2-3.8-11.3-8.6-11.5l-260.3-2.8C540.3,952.7,536.2,958.1,536.4,964.7z"/>
				<path class="st2" d="M536.4,1045.4l0.1,2.3c0.2,6.2,4,11.1,8.7,11.1l260.3,0.5c4.9,0,8.8-5.1,8.8-11.5l0,0
					c0-6.2-3.8-11.3-8.6-11.5l-260.3-2.8C540.3,1033.4,536.2,1038.8,536.4,1045.4z"/>
			</g>
			<path class="st2" d="M846.6,1126.9c1-9.6-6.6-18-16.3-17.8l-558.7,9.9c-9.8,0.2-17.2,9-15.6,18.7l2.5,15.4
				c1.3,7.9,8,13.6,16,13.6l553.8-2.2c8.2,0,15.1-6.2,16-14.4L846.6,1126.9z"/>
		</g>
		<g>
			
				<linearGradient id="SVGID_00000079451239873728689470000010277866761875635636_" gradientUnits="userSpaceOnUse" x1="7637.145" y1="1481.9297" x2="7673.9302" y2="1481.9297" gradientTransform="matrix(1 0 0 1 -7366.6167 0)">
				<stop  offset="0" style="stop-color:#09005D"/>
				<stop  offset="1" style="stop-color:#1A0F91"/>
			</linearGradient>
			<path style="fill:url(#SVGID_00000079451239873728689470000010277866761875635636_);" d="M307.3,1495c0-0.3,0-0.6-0.1-0.8
				c-4.1-16.4-24.7-26.7-24.7-26.7l-8.1,0.6c-4.7,14.5-4.1,23.4-3.3,27.3c0,0.1,0.1,0.2,0.1,0.3
				C277.8,1496.4,291.7,1496.8,307.3,1495z"/>
			<path class="st1" d="M271.1,1495.8c0.4,1.3,1.3,2.3,2.6,2.6c9.6,2,24.8,0.4,31.1-0.4c1.4-0.2,2.4-1.5,2.5-3
				C291.7,1496.8,277.8,1496.4,271.1,1495.8z"/>
			
				<linearGradient id="SVGID_00000124870902912841652850000009898806727599118746_" gradientUnits="userSpaceOnUse" x1="7587.8193" y1="1229.5439" x2="7636.8755" y2="1229.5439" gradientTransform="matrix(1 0 0 1 -7366.6167 0)">
				<stop  offset="0" style="stop-color:#FF928E"/>
				<stop  offset="1" style="stop-color:#FEB3B1"/>
			</linearGradient>
			<path style="fill:url(#SVGID_00000124870902912841652850000009898806727599118746_);" d="M238.9,1204.3c-5,5.4-12.4,10-17.7,12.9
				c7.8,9.6,18.3,19.3,32.3,28.7l4,9l12.8-15.3C270.3,1239.5,247.3,1228.1,238.9,1204.3z"/>
			
				<linearGradient id="SVGID_00000093155538870131271600000001378072799617005242_" gradientUnits="userSpaceOnUse" x1="7647.3745" y1="1440.0518" x2="7640.3481" y2="1501.375" gradientTransform="matrix(1 0 0 1 -7366.6167 0)">
				<stop  offset="0" style="stop-color:#FF928E"/>
				<stop  offset="1" style="stop-color:#FEB3B1"/>
			</linearGradient>
			<path style="fill:url(#SVGID_00000093155538870131271600000001378072799617005242_);" d="M271.1,1456l3.5,16.6
				c0.3,1.2,1.2,2.1,2.3,2.2c1.4,0.1,3.4,0.2,5.3-0.1c1.8-0.3,3-2.1,2.7-4l-2.4-14.8H271.1z"/>
			<path class="st1" d="M342.6,1495.6c-9-0.3-13.7-1.3-16.1-2.3c0,0.9,0,1.8,0,2.7c0,1,0.8,1.8,1.7,1.8l49.4-0.3
				c1.6,0,2.5-1.8,1.8-3.3C373,1494.8,356.5,1496,342.6,1495.6z"/>
			
				<linearGradient id="SVGID_00000026129952089970700500000012686645137251006139_" gradientUnits="userSpaceOnUse" x1="7693.1582" y1="1482.9081" x2="7746.1099" y2="1482.9081" gradientTransform="matrix(1 0 0 1 -7366.6167 0)">
				<stop  offset="0" style="stop-color:#09005D"/>
				<stop  offset="1" style="stop-color:#1A0F91"/>
			</linearGradient>
			<path style="fill:url(#SVGID_00000026129952089970700500000012686645137251006139_);" d="M379.5,1494.3c-0.1-0.1-0.1-0.3-0.2-0.4
				c-4.4-6.1-15.5-18.2-37.4-23.5l-10.5-0.3c0,0-4.7,8.2-4.8,23.3c2.4,1,7.1,2,16.1,2.3C356.5,1496,373,1494.8,379.5,1494.3z"/>
			
				<linearGradient id="SVGID_00000053533244726901445550000003900223400424850338_" gradientUnits="userSpaceOnUse" x1="7704.6108" y1="1446.6102" x2="7697.5845" y2="1507.9329" gradientTransform="matrix(1 0 0 1 -7366.6167 0)">
				<stop  offset="0" style="stop-color:#FF928E"/>
				<stop  offset="1" style="stop-color:#FEB3B1"/>
			</linearGradient>
			<path style="fill:url(#SVGID_00000053533244726901445550000003900223400424850338_);" d="M329.4,1454.1
				c0.1,0.8,1.6,12.7,2.1,17.3c0.1,1.1,0.9,2,1.9,2.1c1.8,0.2,4.7,0.4,7.2-0.1c1.4-0.3,2.4-1.6,2.4-3.1v-18.7L329.4,1454.1z"/>
			
				<linearGradient id="SVGID_00000116944932788469757370000015986709443974059174_" gradientUnits="userSpaceOnUse" x1="7788.0981" y1="1166.1926" x2="7563.3638" y2="1514.9185" gradientTransform="matrix(1 0 0 1 -7366.6167 0)">
				<stop  offset="0" style="stop-color:#09005D"/>
				<stop  offset="1" style="stop-color:#1A0F91"/>
			</linearGradient>
			<path style="fill:url(#SVGID_00000116944932788469757370000015986709443974059174_);" d="M320.9,1236.3c0,0,25.4,96.6,25,218.1
				c0,2.2-1.6,4.1-3.7,4.6c-3.2,0.7-7.9,1.5-11.8,1.4c-2.1-0.1-3.8-1.6-4.2-3.6c-3.6-20.9-24-138.6-35.7-157.7
				c0,0-7.7,104.8-5.2,159.2c0.1,1.4-0.9,2.5-2.3,2.7c-2,0.2-5.3,0.4-9.5,0c-1.6-0.2-2.8-1.4-3.1-2.9
				c-2.5-17.7-17.1-122.9-16.5-198.8c0-4.3,11.3-22.9,11.3-22.9H320.9z"/>
			
				<linearGradient id="SVGID_00000132085414334648635590000009938699582159331724_" gradientUnits="userSpaceOnUse" x1="7717.4775" y1="1017.6829" x2="7508.2422" y2="1476.8376" gradientTransform="matrix(1 0 0 1 -7366.6167 0)">
				<stop  offset="0" style="stop-color:#4042E2"/>
				<stop  offset="1" style="stop-color:#4F52FF"/>
			</linearGradient>
			<path style="fill:url(#SVGID_00000132085414334648635590000009938699582159331724_);" d="M404,1028.3
				c-11.2,20.8-29.7,41.9-59.8,47.6c-27.8,5.2-77.8,11.7-97.8,14.2c-6,0.8-11.6,3.7-15.5,8.3c-15.8,18.3-50.4,68.2-9.6,118.6
				c5.2-2.9,12.6-7.5,17.7-12.9c-4.5-12.7-4.9-28.9,4.6-48.9c0.3,1.6,0.7,3.1,1.2,4.7c13,41.3,13.7,75.6,13.7,83.5
				c0,1.1,0.6,2,1.6,2.4c17.1,6.9,50.1,2.8,61.2,1.1c2-0.3,3.4-2.2,3.1-4.2c-5.4-39.4,22.5-104.2,29.8-120.4c1.1-2.4,3-4.3,5.4-5.4
				c42.1-19.1,60.4-48.4,67.9-74.8C420.9,1033.7,411,1030,404,1028.3z"/>
			
				<linearGradient id="SVGID_00000108269139785240915800000003981322281150648478_" gradientUnits="userSpaceOnUse" x1="7817.1768" y1="974.33" x2="7768.2583" y2="1043.3486" gradientTransform="matrix(1 0 0 1 -7366.6167 0)">
				<stop  offset="0" style="stop-color:#FF928E"/>
				<stop  offset="1" style="stop-color:#FEB3B1"/>
			</linearGradient>
			<path style="fill:url(#SVGID_00000108269139785240915800000003981322281150648478_);" d="M427.3,1042.4c9-32,2-59.8,2-59.8h-9.6
				c0,0-3.3,22.6-15.7,45.8C411,1030,420.9,1033.7,427.3,1042.4z"/>
			
				<linearGradient id="SVGID_00000013178028009872063240000002259857601665457849_" gradientUnits="userSpaceOnUse" x1="7796.4653" y1="959.6503" x2="7747.5474" y2="1028.6687" gradientTransform="matrix(1 0 0 1 -7366.6167 0)">
				<stop  offset="0" style="stop-color:#FF928E"/>
				<stop  offset="1" style="stop-color:#FEB3B1"/>
			</linearGradient>
			<path style="fill:url(#SVGID_00000013178028009872063240000002259857601665457849_);" d="M423.1,987.7c0,0-14.6-18.9-9.9-28.8
				c4.7-9.9,21-8.9,21-8.9l2.3,7.7c0.6,2,0.5,4.2-0.2,6.2l-9,23.8H423.1z"/>
			
				<linearGradient id="SVGID_00000176751891454707509850000015855194658265072008_" gradientUnits="userSpaceOnUse" x1="7662.8975" y1="1043.3057" x2="7636.0688" y2="1159.2441" gradientTransform="matrix(1 0 0 1 -7366.6167 0)">
				<stop  offset="0" style="stop-color:#FF928E"/>
				<stop  offset="1" style="stop-color:#FEB3B1"/>
			</linearGradient>
			<path style="fill:url(#SVGID_00000176751891454707509850000015855194658265072008_);" d="M276,1052.3l-3.3,33.7
				c0,0,19,5.7,32.8-4l-9.7-30.7L276,1052.3z"/>
			<g>
				
					<linearGradient id="SVGID_00000118366083860110937630000008356836767502456477_" gradientUnits="userSpaceOnUse" x1="3596.0906" y1="4514.7256" x2="3548.4929" y2="4577.6934" gradientTransform="matrix(0.6854 -0.7281 0.7281 0.6854 -5460.0977 544.7815)">
					<stop  offset="0" style="stop-color:#FF928E"/>
					<stop  offset="1" style="stop-color:#FEB3B1"/>
				</linearGradient>
				<path style="fill:url(#SVGID_00000118366083860110937630000008356836767502456477_);" d="M298,1013.9
					c0.5,0.4,19.3,37.4,19.3,37.4l-21.3,10.3l-23-32.4C272.9,1029.2,290.4,1006.7,298,1013.9z"/>
				
					<linearGradient id="SVGID_00000061472587171080288410000005705818819563940279_" gradientUnits="userSpaceOnUse" x1="3559.7395" y1="4529.8477" x2="3616.5955" y2="4529.8477" gradientTransform="matrix(0.6854 -0.7281 0.7281 0.6854 -5460.0977 544.7815)">
					<stop  offset="0" style="stop-color:#09005D"/>
					<stop  offset="1" style="stop-color:#1A0F91"/>
				</linearGradient>
				<path style="fill:url(#SVGID_00000061472587171080288410000005705818819563940279_);" d="M282.4,1030.1c-0.4,1-0.3,2.1,0.3,3
					l10.6,17.7c0.2,0.3,0.4,0.5,0.6,0.7c1.3,1.2,5.6,4.6,9-0.1c2.9-4,5.5-7.6,8.4-9.1c1.7-0.9,3.7-0.2,4.6,1.5
					c1.8,3.5,5.1,10.6,7.3,17.3c0.5,1.7-0.3,3.5-2,4.2c-4.3,1.8-12.9,4.9-20.4,6c-1.2,0.2-2.5-0.4-3.2-1.4
					c-3.3-4.5-12.4-16.9-15.6-20.1c-2.9-2.9-8.3-1.8-10.7-1.1c-0.9,0.3-1.9,0.1-2.7-0.4c-2.5-1.5-6.7-5.2-2.8-11.4
					c1-1.6,0.5-3.6-1.1-4.6c-2.7-1.8-5.7-5.2-2.9-10.7c2.9-5.6,8-6.1,11.5-5.6c1.5,0.2,3.1-0.6,3.7-2.1c0.3-0.6,0.8-1.2,1.8-1.4
					c1.8-0.4,3-2,2.7-3.9c-0.6-3.1-0.2-7.2,4.9-10c9.2-5.1,17.3,3.2,19.3,10.1c2.1,7-8.2,11.9-14.7,12.7
					C286,1022.2,283.4,1027.4,282.4,1030.1z"/>
				
					<linearGradient id="SVGID_00000041290579679706522120000003129457976697159600_" gradientUnits="userSpaceOnUse" x1="3526.3787" y1="4564.5913" x2="3564.5559" y2="4525.4224" gradientTransform="matrix(0.6854 -0.7281 0.7281 0.6854 -5460.0977 544.7815)">
					<stop  offset="0" style="stop-color:#FF928E"/>
					<stop  offset="1" style="stop-color:#FEB3B1"/>
				</linearGradient>
				<path style="fill:url(#SVGID_00000041290579679706522120000003129457976697159600_);" d="M285.9,1056.4c0,0-4.1-12-9.3-11.5
					c-5.2,0.4-9.4,5.7-2.9,11.5C281.7,1063.7,285.9,1056.4,285.9,1056.4z"/>
			</g>
			
				<linearGradient id="SVGID_00000038408219159238395670000005238702635252033694_" gradientUnits="userSpaceOnUse" x1="160.4938" y1="1201.3342" x2="60.4936" y2="1289.3345">
				<stop  offset="0" style="stop-color:#4042E2"/>
				<stop  offset="1" style="stop-color:#4F52FF"/>
			</linearGradient>
			<path style="fill:url(#SVGID_00000038408219159238395670000005238702635252033694_);" d="M241.7,1152.3
				c-6.9-18.9-4.4-41.7-4.4-42l1.9,0.2c0,0.2-2.5,22.6,4.3,41.1L241.7,1152.3z"/>
			
				<linearGradient id="SVGID_00000087371148447531227900000010811740955335461564_" gradientUnits="userSpaceOnUse" x1="7662.0615" y1="1259.8296" x2="7643.2178" y2="1293.3656" gradientTransform="matrix(1 0 0 1 -7366.6167 0)">
				<stop  offset="0" style="stop-color:#09005D"/>
				<stop  offset="1" style="stop-color:#1A0F91"/>
			</linearGradient>
			<path style="fill:url(#SVGID_00000087371148447531227900000010811740955335461564_);" d="M289.6,1296.5c-0.4,0-0.8-0.3-0.9-0.7
				c-2.1-8.1-17.9-17.1-18-17.1c-0.5-0.3-0.6-0.8-0.4-1.3c0.3-0.5,0.8-0.6,1.3-0.4c0.7,0.4,16.7,9.4,19,18.3c0.1,0.5-0.2,1-0.7,1.2
				C289.8,1296.5,289.7,1296.5,289.6,1296.5z"/>
		</g>
		<g>
			
				<linearGradient id="SVGID_00000001622963365148390980000012841938708994277003_" gradientUnits="userSpaceOnUse" x1="1283.5162" y1="-94.9137" x2="1247.5129" y2="454.1414">
				<stop  offset="0" style="stop-color:#09005D"/>
				<stop  offset="1" style="stop-color:#1A0F91"/>
			</linearGradient>
			<path style="fill:url(#SVGID_00000001622963365148390980000012841938708994277003_);" d="M1676.6,557.2
				c-2-30.4-20.3-57.3-47.8-70.4l-356.5-169.3c-22.8-10.8-49.3-10.8-72.2,0L843.5,486.8c-27.5,13.1-45.9,40-47.8,70.4
				c-33.4,516.9,298,705.2,406.6,752.8c21.5,9.4,46,9.4,67.6,0C1378.6,1262.5,1710,1074.1,1676.6,557.2z"/>
			<path class="st2" d="M1128.3,388.8c-1.9,0-3.7-1.1-4.5-2.9c-1.2-2.5-0.1-5.5,2.4-6.7l84.2-40c2.5-1.2,5.5-0.1,6.7,2.4
				c1.2,2.5,0.1,5.5-2.4,6.7l-84.2,40C1129.8,388.7,1129,388.8,1128.3,388.8z"/>
			<path class="st2" d="M823,667.8c-2.7,0-4.9-2.1-5-4.9c-1.1-33.6-0.5-68.7,1.8-104.2c1.4-21.6,14.5-40.9,34.2-50.2l239.8-113.9
				c2.5-1.2,5.5-0.1,6.7,2.4c1.2,2.5,0.1,5.5-2.4,6.7L858.2,517.6c-16.4,7.8-27.3,23.8-28.4,41.8c-2.3,35.2-2.9,69.9-1.7,103.2
				c0.1,2.8-2.1,5.1-4.9,5.2C823.1,667.8,823,667.8,823,667.8z"/>
			
				<linearGradient id="SVGID_00000016779445842415416200000003583990175898343094_" gradientUnits="userSpaceOnUse" x1="1489.2921" y1="329.6547" x2="880.2299" y2="1256.7504">
				<stop  offset="0" style="stop-color:#4042E2"/>
				<stop  offset="1" style="stop-color:#4F52FF"/>
			</linearGradient>
			<path style="fill:url(#SVGID_00000016779445842415416200000003583990175898343094_);" d="M1590.3,577.4c-0.4-7.7-5-14.6-12-17.9
				l-333.3-158.3c-5.7-2.7-12.3-2.7-18,0L893.9,559.5c-7,3.3-11.6,10.2-12,17.9c-9.9,192.8,34.7,353.7,132.5,478.4
				c74.6,95.1,161.8,146,212.9,169.8c5.6,2.6,12.1,2.6,17.7,0c51.1-23.8,138.3-74.7,212.9-169.8
				C1555.7,931.1,1600.2,770.2,1590.3,577.4z"/>
			<g>
				
					<linearGradient id="SVGID_00000080900043385790070210000012718670691355769238_" gradientUnits="userSpaceOnUse" x1="1294.6415" y1="544.4364" x2="1078.6198" y2="1162.4972">
					<stop  offset="0" style="stop-color:#FE7062"/>
					<stop  offset="1" style="stop-color:#FF928E"/>
				</linearGradient>
				<path style="fill:url(#SVGID_00000080900043385790070210000012718670691355769238_);" d="M1137.6,784.6h-33.2V652.2
					c0-52,38.9-95.9,90.5-102.2l67.9-8.3c29.2-3.6,58.6,5.6,80.7,25.1c22,19.5,34.7,47.6,34.7,77.1v115.6H1345V643.9
					c0-19.9-8.6-39-23.5-52.2c-14.9-13.2-34.9-19.4-54.7-17l-67.9,8.3c-35,4.2-61.3,34-61.3,69.2V784.6z"/>
				
					<linearGradient id="SVGID_00000036243564784607045990000017949381521322101153_" gradientUnits="userSpaceOnUse" x1="1352.4506" y1="564.6416" x2="1136.4288" y2="1182.7026">
					<stop  offset="0" style="stop-color:#FE7062"/>
					<stop  offset="1" style="stop-color:#FF928E"/>
				</linearGradient>
				<path style="fill:url(#SVGID_00000036243564784607045990000017949381521322101153_);" d="M1094.6,754.8l291.2-16.1
					c11.8-0.7,21.8,8.8,21.8,20.6V990c0,11.4-9.2,20.6-20.6,20.6h-284.2c-11.1,0-20.3-8.8-20.6-20l-7-214.5
					C1074.7,764.9,1083.4,755.5,1094.6,754.8z"/>
				
					<linearGradient id="SVGID_00000036215336296378362560000018267214421629510069_" gradientUnits="userSpaceOnUse" x1="1349.0618" y1="512.8718" x2="1271.0536" y2="788.9">
					<stop  offset="0" style="stop-color:#A22B25"/>
					<stop  offset="1" style="stop-color:#C0423C"/>
				</linearGradient>
				<path style="fill:url(#SVGID_00000036215336296378362560000018267214421629510069_);" d="M1288.7,944.5l-17.6-50.7
					c-2.1-6.1-0.7-12.9,3.9-17.5c9-9.2,14.4-21.9,13.8-35.9c-1.1-24.7-21.3-44.8-46-45.7c-27.4-1.1-49.9,20.8-49.9,47.9
					c0,15,6.9,28.5,17.8,37.3c5.6,4.6,7.9,12.1,5.6,18.9l-15.9,45.7c-3.9,11.1,4.4,22.7,16.1,22.7h56.2
					C1284.4,967.2,1292.6,955.6,1288.7,944.5z"/>
			</g>
		</g>
		<g>
			
				<linearGradient id="SVGID_00000028295072841919825880000001920227404582707643_" gradientUnits="userSpaceOnUse" x1="-2727.948" y1="888.3093" x2="-2691.2837" y2="980.2809" gradientTransform="matrix(1 0 0 1 4443.1211 0)">
				<stop  offset="0" style="stop-color:#09005D"/>
				<stop  offset="1" style="stop-color:#1A0F91"/>
			</linearGradient>
			<path style="fill:url(#SVGID_00000028295072841919825880000001920227404582707643_);" d="M1736.9,937.8c0,0,12.4,6,14.6,12.9
				c1.8,5.5,15.5,6.3,16.8,17.2c0.7,5.6,4.9,10.1,10.5,11c14,2.1,35.5,9.4,38.9,33.6c2.6,18.5-6.8,25.5-16.7,27.9
				c-7.3,1.8-12.1,8.9-10.6,16.2c1.4,7-0.7,15.2-12.9,21.6c-27.3,14.4-54.6-34.2-54.6-34.2l-5.6-84.8L1736.9,937.8z"/>
			
				<linearGradient id="SVGID_00000075145033567931666650000014239828886751642535_" gradientUnits="userSpaceOnUse" x1="-2803.5916" y1="941.4451" x2="-2735.8557" y2="1095.5597" gradientTransform="matrix(1 0 0 1 4443.1211 0)">
				<stop  offset="0" style="stop-color:#A22B25"/>
				<stop  offset="1" style="stop-color:#C0423C"/>
			</linearGradient>
			<path style="fill:url(#SVGID_00000075145033567931666650000014239828886751642535_);" d="M1608.3,893c0,0,35.2,95.9,95.1,125.8
				c0,0-19.9,32.5-30.3,34.5c0,0-64-81.9-70.5-149L1608.3,893z"/>
			
				<linearGradient id="SVGID_00000127044652792732190820000018414381790991152004_" gradientUnits="userSpaceOnUse" x1="-2593.9189" y1="1477.1208" x2="-2562.8291" y2="1477.1208" gradientTransform="matrix(1 0 0 1 4443.1211 0)">
				<stop  offset="0" style="stop-color:#4042E2"/>
				<stop  offset="1" style="stop-color:#4F52FF"/>
			</linearGradient>
			<path style="fill:url(#SVGID_00000127044652792732190820000018414381790991152004_);" d="M1849.2,1469.7l1.8,14.5
				c0.3,2.8,2.5,4.9,5.3,5.3c4.7,0.5,12.1,1.1,19.5,0.3c3.2-0.3,5.3-3.6,4.3-6.7c-1.8-5.6-5-14-9.8-19h-16.1
				C1851.2,1464.1,1848.9,1466.7,1849.2,1469.7z"/>
			
				<linearGradient id="SVGID_00000073720238153386111340000015090143730682570633_" gradientUnits="userSpaceOnUse" x1="-2725.29" y1="1599.7222" x2="-2680.5493" y2="1076.8162" gradientTransform="matrix(1 0 0 1 4443.1211 0)">
				<stop  offset="0" style="stop-color:#A22B25"/>
				<stop  offset="1" style="stop-color:#C0423C"/>
			</linearGradient>
			<path style="fill:url(#SVGID_00000073720238153386111340000015090143730682570633_);" d="M1722.9,1299.4l-2.7,16
				c0,0,9.1,92.3,10.7,129.3c0.3,5.8-1.2,11.5-4.3,16.4l-15.8,25.7l40.3-23.8l0.8-4.9l-6.6-9.1l8.6-103.4c0.5-6.1-0.7-12.2-3.6-17.6
				l-8.3-15.7L1722.9,1299.4z"/>
			
				<linearGradient id="SVGID_00000001661388213671750210000016470792304643515784_" gradientUnits="userSpaceOnUse" x1="-2738.3601" y1="1471.4445" x2="-2688.0542" y2="1471.4445" gradientTransform="matrix(1 0 0 1 4443.1211 0)">
				<stop  offset="0" style="stop-color:#4042E2"/>
				<stop  offset="1" style="stop-color:#4F52FF"/>
			</linearGradient>
			<path style="fill:url(#SVGID_00000001661388213671750210000016470792304643515784_);" d="M1708.2,1490.6h12.9
				c2.4,0,4.7-1.1,6.1-3c4-5.2,12.3-15.4,16.3-15.6c5.3-0.4,4.7,18.6,4.7,18.6h3l3.8-23.6c1-5.9-2-11.8-7.3-14.6l0,0
				c0,0-1.2,9-7.8,13c-6.6,4-27,18.3-27,18.3s-2.5-0.4-5.2,0.1C1703.5,1484.5,1704,1490.6,1708.2,1490.6z"/>
			
				<linearGradient id="SVGID_00000031202796093448709390000000420217045661589169_" gradientUnits="userSpaceOnUse" x1="-2635.2913" y1="1607.5029" x2="-2590.5391" y2="1084.4591" gradientTransform="matrix(1 0 0 1 4443.1211 0)">
				<stop  offset="0" style="stop-color:#A22B25"/>
				<stop  offset="1" style="stop-color:#C0423C"/>
			</linearGradient>
			<path style="fill:url(#SVGID_00000031202796093448709390000000420217045661589169_);" d="M1778.1,1307c0,0,53.4,101.3,61.9,124.4
				c8.5,23.1,11.5,42.4,11.6,44.2c0.2,2.9,3.7,5.6,13.5,5.6c5.1,0,7.5-2,8.7-4c1-1.7,1.1-3.8,0.2-5.5c-3.1-6.3-12.9-26.2-16.5-35.3
				c-4.3-10.8-13.7-59.8-18.8-76.9c-5.1-17-10.9-35.5-33.2-52.6C1805.6,1307,1790.3,1292,1778.1,1307z"/>
			
				<linearGradient id="SVGID_00000129891331406430933830000001921163753582480027_" gradientUnits="userSpaceOnUse" x1="1740.2777" y1="1006.5355" x2="1671.8551" y2="1199.7291">
				<stop  offset="0" style="stop-color:#4042E2"/>
				<stop  offset="1" style="stop-color:#4F52FF"/>
			</linearGradient>
			<path style="fill:url(#SVGID_00000129891331406430933830000001921163753582480027_);" d="M1744.4,1141
				c-13.8-58.4,21.1-91.4,21.1-91.4c-22-21.1-62.1-30.8-62.1-30.8s-38.3,28-33.7,49.9c2.7,12.8,26.9,76.9,26.9,76.9
				S1718.9,1156.3,1744.4,1141z"/>
			
				<linearGradient id="SVGID_00000093159853408613393030000003560425359000092807_" gradientUnits="userSpaceOnUse" x1="1780.0345" y1="1169.6929" x2="1886.0345" y2="953.6931">
				<stop  offset="0" style="stop-color:#4042E2"/>
				<stop  offset="1" style="stop-color:#4F52FF"/>
			</linearGradient>
			<path style="fill:url(#SVGID_00000093159853408613393030000003560425359000092807_);" d="M1774.9,1169.9
				c-5.6-16.9-30.5-28.9-30.5-28.9c-25.4,15.3-47.8,4.7-47.8,4.7s-5,19.2-1.6,37.1c3.5,17.9,25.2,132.6,25.2,132.6
				c34.3,7,87.1-7,87.1-7C1785.4,1269.6,1780.5,1186.8,1774.9,1169.9z"/>
			
				<linearGradient id="SVGID_00000031893218180645787320000002971345287342758799_" gradientUnits="userSpaceOnUse" x1="-2730.1965" y1="1084.2933" x2="-2721.792" y2="1022.8089" gradientTransform="matrix(1 0 0 1 4443.1211 0)">
				<stop  offset="0" style="stop-color:#A22B25"/>
				<stop  offset="1" style="stop-color:#C0423C"/>
			</linearGradient>
			<path style="fill:url(#SVGID_00000031893218180645787320000002971345287342758799_);" d="M1728.4,980.3l11.2,50.3
				c1.1,4.4-3,3.7-7.4,2.9c-7.3-1.4-16.8-4.2-20-9.9c-0.3-0.6-0.5-1.2-0.6-1.9l-4.8-34.9c-0.4-2.8,1.1-5.5,3.7-6.6l9.3-4.1
				C1723.3,974.5,1727.5,976.5,1728.4,980.3z"/>
			
				<linearGradient id="SVGID_00000063593649206950241770000013879688994613744007_" gradientUnits="userSpaceOnUse" x1="-2695.5579" y1="1114.255" x2="-2639.7283" y2="1114.255" gradientTransform="matrix(1 0 0 1 4443.1211 0)">
				<stop  offset="0" style="stop-color:#A22B25"/>
				<stop  offset="1" style="stop-color:#C0423C"/>
			</linearGradient>
			<path style="fill:url(#SVGID_00000063593649206950241770000013879688994613744007_);" d="M1765.5,1049.6c0,0,78.2,55.9,10,114.7
				c0,0-2.6,2.9-7.7,4.5c-2.6,0.8-10.2,6.5-14.1,9.6c-1.2,1-3,0.6-3.9-0.7l0,0c-0.7-1-0.7-2.4-0.2-3.5l9.7-20.5
				c2.7-2.5,6.8-2.7,9.7-0.4l0,0c1.8,1.4,4.6,0.8,5.6-1.3c5.3-10.7,15.2-42.3-25.5-78c-1.5-1.3-1.9-3.6-1-5.4
				C1750.9,1063.2,1757.5,1052.3,1765.5,1049.6z"/>
			<g>
				
					<linearGradient id="SVGID_00000168834452993978549700000013998158638776366744_" gradientUnits="userSpaceOnUse" x1="-2751.4094" y1="1005.0212" x2="-2678.0806" y2="874.5206" gradientTransform="matrix(1 0 0 1 4443.1211 0)">
					<stop  offset="0" style="stop-color:#A22B25"/>
					<stop  offset="1" style="stop-color:#C0423C"/>
				</linearGradient>
				<path style="fill:url(#SVGID_00000168834452993978549700000013998158638776366744_);" d="M1715.2,932.4c0,0-13.3,5.6-22.3,24.8
					c-9,19.2-2.3,28,6.2,29.2c8.5,1.2,21.1,1,34.5-11.4C1747,962.7,1732.5,925.8,1715.2,932.4z"/>
				
					<linearGradient id="SVGID_00000065781393318767768110000003254020808745304736_" gradientUnits="userSpaceOnUse" x1="-2735.6401" y1="891.3757" x2="-2698.9758" y2="983.3472" gradientTransform="matrix(1 0 0 1 4443.1211 0)">
					<stop  offset="0" style="stop-color:#09005D"/>
					<stop  offset="1" style="stop-color:#1A0F91"/>
				</linearGradient>
				<path style="fill:url(#SVGID_00000065781393318767768110000003254020808745304736_);" d="M1724.6,964.8c0,0,10-28-14.9-28.4
					l-5.8,4.1c0,0-9.1-15.5,5.8-23c15-7.4,32.5-1.3,38.9,18.9c6.4,20.2,7.5,33.7-3.1,43.3c-10.6,9.7-15-1.3-15-1.3s5.8-9,3.4-13.9
					c-2.3-4.8-7.8,1-7.8,1L1724.6,964.8z"/>
				
					<linearGradient id="SVGID_00000084518770068328030260000004571132249843575458_" gradientUnits="userSpaceOnUse" x1="-2735.8005" y1="1013.7921" x2="-2662.4719" y2="883.2916" gradientTransform="matrix(1 0 0 1 4443.1211 0)">
					<stop  offset="0" style="stop-color:#A22B25"/>
					<stop  offset="1" style="stop-color:#C0423C"/>
				</linearGradient>
				<path style="fill:url(#SVGID_00000084518770068328030260000004571132249843575458_);" d="M1727.4,967.9c0,0,5.1-14.4,11.8-8.7
					c6.7,5.8-5.5,13.3-10.3,15.8L1727.4,967.9z"/>
			</g>
			<g>
				
					<linearGradient id="SVGID_00000063605889686835220370000010570005982002709904_" gradientUnits="userSpaceOnUse" x1="-2816.9768" y1="947.3282" x2="-2749.2407" y2="1101.4427" gradientTransform="matrix(1 0 0 1 4443.1211 0)">
					<stop  offset="0" style="stop-color:#A22B25"/>
					<stop  offset="1" style="stop-color:#C0423C"/>
				</linearGradient>
				<path style="fill:url(#SVGID_00000063605889686835220370000010570005982002709904_);" d="M1604.9,910.5
					c-0.5,1.7,5.7,4.3,9.3-2.7c0.1-3.3,2.2-17.7,0.2-20.4c-10.6-14.5-31.3-32.7-31.3-32.7c-3.5,3.4-0.6,6.8-0.6,6.8l10,10.4
					c-2.1,3.8-4.6,7-5.8,11.5c-0.9,3.5-0.4,7.2,1.4,10.3c1.8,3.2,4.2,7.3,6.4,10.5C1598.8,910.5,1604.9,910.5,1604.9,910.5z"/>
				
					<linearGradient id="SVGID_00000066511161221751671300000015805154791030512034_" gradientUnits="userSpaceOnUse" x1="-2849.2439" y1="890.4651" x2="-2833.2942" y2="890.4651" gradientTransform="matrix(1 0 0 1 4443.1211 0)">
					<stop  offset="0" style="stop-color:#A22B25"/>
					<stop  offset="1" style="stop-color:#C0423C"/>
				</linearGradient>
				<path style="fill:url(#SVGID_00000066511161221751671300000015805154791030512034_);" d="M1599.8,903.4
					c-0.8-4.2-3-15.6-4.6-18.2c-1.1-1.8-1.5-3.3-1.1-4.6c0.3-1.1,1.1-2,2.4-2.6l0.6-0.3l9.8,8.3l3,7.9l-1.9,0.7l-2.8-7.5l-8.4-7.1
					c-0.5,0.3-0.7,0.7-0.8,1.1c-0.2,0.7,0.1,1.8,0.9,3.1c2.1,3.4,4.8,18.3,4.9,18.9L1599.8,903.4z"/>
			</g>
		</g>
		<g>
			<g>
				<g>
					<rect x="2015.6" y="1349.2" class="st3" width="12.3" height="138.7"/>
				</g>
				<g>
					<path class="st3" d="M2075.7,1490.6h-107.8v-5.5c0-1.6,1.3-2.9,2.9-2.9h101.8c1.7,0,3.1,1.4,3.1,3.1V1490.6z"/>
				</g>
				<path class="st3" d="M2096,1344.3c0,7.7-6.3,14.1-14.1,14.1h-115.9c-7.7,0-14.1-6.3-14.1-14.1v-12.7c0-7.7,6.3-14.1,14.1-14.1
					H2082c7.7,0,14.1,6.3,14.1,14.1V1344.3z"/>
			</g>
			<g>
				
					<linearGradient id="SVGID_00000086691019916850443960000015625258746907087544_" gradientUnits="userSpaceOnUse" x1="-237.4772" y1="1284.2423" x2="-259.196" y2="1326.9558" gradientTransform="matrix(-0.9764 -0.2161 -0.2161 0.9764 1941.2091 130.6689)">
					<stop  offset="0" style="stop-color:#09005D"/>
					<stop  offset="1" style="stop-color:#1A0F91"/>
				</linearGradient>
				<path style="fill:url(#SVGID_00000086691019916850443960000015625258746907087544_);" d="M1912.7,1441.8
					c0,0-39.8,17.1-37.5,35.1c0,0,41.1-7.9,48.5-19.6c7.4-11.8,3.3-18.6,3.3-18.6L1912.7,1441.8z"/>
				
					<linearGradient id="SVGID_00000034804704454834252450000000496310413532818316_" gradientUnits="userSpaceOnUse" x1="-266.8518" y1="1277.7833" x2="-245.2151" y2="1277.7833" gradientTransform="matrix(-0.9764 -0.2161 -0.2161 0.9764 1941.2091 130.6689)">
					<stop  offset="0" style="stop-color:#FF928E"/>
					<stop  offset="1" style="stop-color:#FEB3B1"/>
				</linearGradient>
				<path style="fill:url(#SVGID_00000034804704454834252450000000496310413532818316_);" d="M1922.4,1422.3l2,17.5
					c0.3,2.6-1.2,5.2-3.7,6.1c-1.2,0.5-2.9,0.8-5,0.8c-3,0-5.7-2-6.5-4.9l-3.9-14.1L1922.4,1422.3z"/>
				
					<linearGradient id="SVGID_00000078751815777901682820000018204982972930694072_" gradientUnits="userSpaceOnUse" x1="-296.7954" y1="1220.5326" x2="-204.8496" y2="1091.6635" gradientTransform="matrix(-0.9764 -0.2161 -0.2161 0.9764 1941.2091 130.6689)">
					<stop  offset="0" style="stop-color:#2B3582"/>
					<stop  offset="0.2305" style="stop-color:#252A70"/>
					<stop  offset="0.7285" style="stop-color:#19164F"/>
					<stop  offset="1" style="stop-color:#150E42"/>
				</linearGradient>
				<path style="fill:url(#SVGID_00000078751815777901682820000018204982972930694072_);" d="M2009.3,1288.4
					c0,0-73.2-3.4-109.6,17.8c-36.4,21.2,1.8,123.1,1.8,123.1s9.5,2,23.2-5.3c0,0-19.5-74.6,14.4-87.6c38.2-14.6,77.6-11,77.6-11
					l-7.3-34.8L2009.3,1288.4z"/>
				
					<linearGradient id="SVGID_00000111904540371059156090000000622119473151517832_" gradientUnits="userSpaceOnUse" x1="-238.1528" y1="1303.9716" x2="-313.4514" y2="1402.4388" gradientTransform="matrix(-0.9764 -0.2161 -0.2161 0.9764 1941.2091 130.6689)">
					<stop  offset="0" style="stop-color:#09005D"/>
					<stop  offset="1" style="stop-color:#1A0F91"/>
				</linearGradient>
				<path style="fill:url(#SVGID_00000111904540371059156090000000622119473151517832_);" d="M1883.2,1469c8.3-1.8,33-12,36.7-11.9
					c3.7,0.1,9.1,5.8,9.1,5.8s0.9,3.1-1.8,7.5c-6.4,5-20,14.1-36,15.1c-11.7,0.7-18.8-3.9-22.8-8.4
					C1872,1473.5,1877.7,1470.2,1883.2,1469z"/>
				<path class="st2" d="M1891.3,1485.4c15.9-1,29.6-10.1,36-15.1c-1.8,3-5.3,6.6-11.7,10.2c-16.1,9.1-42.7,7.8-47.9,5.7
					c-4.2-1.6-2.9-5.6,0.9-9.3C1872.5,1481.5,1879.5,1486.1,1891.3,1485.4z"/>
				
					<linearGradient id="SVGID_00000111900111693512678120000014681045798786929573_" gradientUnits="userSpaceOnUse" x1="-282.4973" y1="1297.7512" x2="-262.1903" y2="1297.7512" gradientTransform="matrix(-0.9764 -0.2161 -0.2161 0.9764 1941.2091 130.6689)">
					<stop  offset="0" style="stop-color:#FF928E"/>
					<stop  offset="1" style="stop-color:#FEB3B1"/>
				</linearGradient>
				<path style="fill:url(#SVGID_00000111900111693512678120000014681045798786929573_);" d="M1937.7,1453.7
					c-0.5,2.1-6.4,8.2-9.7,11.7c-1.6,1.6-3.9,2.3-6.2,1.9c-1.4-0.3-3-0.8-4.4-1.5c-2.1-1.1-2.8-3.8-1.7-5.9l8.5-15.5L1937.7,1453.7z
					"/>
				
					<linearGradient id="SVGID_00000180328324110391885990000005376509603690569105_" gradientUnits="userSpaceOnUse" x1="-329.9374" y1="1284.7521" x2="-324.8695" y2="1112.4454" gradientTransform="matrix(-0.9764 -0.2161 -0.2161 0.9764 1941.2091 130.6689)">
					<stop  offset="0" style="stop-color:#09005D"/>
					<stop  offset="1" style="stop-color:#1A0F91"/>
				</linearGradient>
				<path style="fill:url(#SVGID_00000180328324110391885990000005376509603690569105_);" d="M2081.9,1282.2c0,0,6.4,45.3-12.1,54.6
					c-18.5,9.3-59,15.3-72.9,38.8c-13.9,23.5-39,69.6-61.8,82.9c0,0-13-4.2-16.8-10.6c0,0,27.1-71.1,38.4-88.4
					c9.8-15,24.1-36.5,44.4-45.9c5.8-2.7,6.3-8.8,5.2-15.2l-1.9-11.5L2081.9,1282.2z"/>
				
					<linearGradient id="SVGID_00000060747908158101801870000017750817294866784400_" gradientUnits="userSpaceOnUse" x1="665.4643" y1="158.4987" x2="937.6591" y2="-115.6548" gradientTransform="matrix(-0.9764 -0.2161 -0.2161 0.9764 1941.2091 130.6689)">
					<stop  offset="0" style="stop-color:#4042E2"/>
					<stop  offset="1" style="stop-color:#4F52FF"/>
				</linearGradient>
				<path style="fill:url(#SVGID_00000060747908158101801870000017750817294866784400_);" d="M1910.7,1230.9
					c25.9,7.4,37.5-65.5,37.4-67.2l39.7,46.4c0,0-23.6,41.6-59.4,46c-9,1.1-16.7-0.4-23.2-3.4
					C1910,1244.9,1911.1,1237.2,1910.7,1230.9z"/>
				
					<linearGradient id="SVGID_00000038407485420796175380000017717172825545065627_" gradientUnits="userSpaceOnUse" x1="-209.4149" y1="1084.0107" x2="-138.5779" y2="1084.0107" gradientTransform="matrix(-0.9764 -0.2161 -0.2161 0.9764 1941.2091 130.6689)">
					<stop  offset="0" style="stop-color:#FF928E"/>
					<stop  offset="1" style="stop-color:#FEB3B1"/>
				</linearGradient>
				<path style="fill:url(#SVGID_00000038407485420796175380000017717172825545065627_);" d="M1862.8,1207
					c11.3-4.6,20.9,4.6,20.9,4.6c11.2,11.4,20,17.2,27.1,19.2c0.4,6.4-0.7,14-5.5,21.8c-13.9-6.4-22.1-19.3-25.4-25.8
					c-1.2-2.3-4-3.3-6.4-2.2c-2.4,1.2-4.9,2.9-5,5.3c-0.3,4.7-5.9,5-6,3.3c0-1.7,4.4-11.1,4.4-11.1s-13,8.3-18,11.5
					c-5,3.2-9.3-2.1-9.3-2.1S1851.5,1211.7,1862.8,1207z"/>
				
					<linearGradient id="SVGID_00000056425477116029334400000015698337832469168042_" gradientUnits="userSpaceOnUse" x1="1977.9735" y1="1103.5594" x2="2112.5596" y2="1342.384">
					<stop  offset="0" style="stop-color:#4042E2"/>
					<stop  offset="1" style="stop-color:#4F52FF"/>
				</linearGradient>
				<path style="fill:url(#SVGID_00000056425477116029334400000015698337832469168042_);" d="M2071.9,1133.7
					c0,0-34.8-23.7-118.8,19.2c0,0-8.7,11-4.6,23.3c4.1,12.4,53.9,79.3,55.9,110.7c0,0,34.1,20.1,78.4,0.2
					C2082.7,1287.1,2097.6,1204.1,2071.9,1133.7z"/>
				
					<linearGradient id="SVGID_00000036227039570582073040000003130182678097750940_" gradientUnits="userSpaceOnUse" x1="1978.0076" y1="1091.8075" x2="2010.0076" y2="1165.8075">
					<stop  offset="0" style="stop-color:#FF928E"/>
					<stop  offset="1" style="stop-color:#FEB3B1"/>
				</linearGradient>
				<path style="fill:url(#SVGID_00000036227039570582073040000003130182678097750940_);" d="M1999.4,1103.3l13.7,26.9
					c1.4,2.7,1.1,5.9-0.8,8.3c-3.8,4.7-11.7,11.1-25.2,7c-4-1.2-7.1-4.5-8-8.6l-7.1-30.1L1999.4,1103.3z"/>
				
					<linearGradient id="SVGID_00000049906084970250665730000004334670090333529765_" gradientUnits="userSpaceOnUse" x1="2029.6919" y1="1074.4143" x2="2164.2783" y2="1313.2396">
					<stop  offset="0" style="stop-color:#4042E2"/>
					<stop  offset="1" style="stop-color:#4F52FF"/>
				</linearGradient>
				<path style="fill:url(#SVGID_00000049906084970250665730000004334670090333529765_);" d="M2097.6,1227.7
					c2.4-16.4-40.9-48.1-40.9-48.1l15.2-46c0,0,82.6,58.9,65.2,107c-2.5,6.9-6.2,11.9-10.7,15.5
					C2117.6,1238.3,2105.8,1230.8,2097.6,1227.7z"/>
				
					<linearGradient id="SVGID_00000152969913562011148690000003476713038723760569_" gradientUnits="userSpaceOnUse" x1="2121.437" y1="1109.9111" x2="2085.437" y2="1202.9113">
					<stop  offset="0" style="stop-color:#FF928E"/>
					<stop  offset="1" style="stop-color:#FEB3B1"/>
				</linearGradient>
				<path style="fill:url(#SVGID_00000152969913562011148690000003476713038723760569_);" d="M2037.3,1232.3c0,0,48.9,13.7,59.1-1.2
					c0.7-1,1.1-2.1,1.3-3.3c8.1,3.1,20,10.5,28.7,28.5c-23.2,18.3-68.1-2.2-80.2-8.4c-2-1-4.3-1.2-6.4-0.5c-4.3,1.4-11.8,3.4-16,3.2
					c-6.1-0.3-12.7,21.8-23.1,16.2C2000.6,1266.7,2005.3,1228.9,2037.3,1232.3z"/>
				<g>
					
						<linearGradient id="SVGID_00000098934205841115465190000013604630847206377875_" gradientUnits="userSpaceOnUse" x1="6141.8755" y1="4920.4619" x2="6166.876" y2="4866.9619" gradientTransform="matrix(-0.9914 -0.1306 -0.1306 0.9914 9606.9297 -150.9511)">
						<stop  offset="0" style="stop-color:#FF928E"/>
						<stop  offset="1" style="stop-color:#FEB3B1"/>
					</linearGradient>
					<path style="fill:url(#SVGID_00000098934205841115465190000013604630847206377875_);" d="M1970.7,1061.6c0,0-12.8,21.3-15,33.1
						c-2.2,11.8-5.8,19.1,7.6,23.3c13.4,4.2,25.9-1.1,33.7-12.1c0,0,12.2-16.9,11-24.7C2006.7,1073.5,1970.7,1061.6,1970.7,1061.6z"
						/>
					
						<linearGradient id="SVGID_00000103227086013295954090000012775867082617049271_" gradientUnits="userSpaceOnUse" x1="7374.9092" y1="2185.3403" x2="7426.2764" y2="2251.4753" gradientTransform="matrix(-0.9914 -0.1306 -0.1306 0.9914 9606.9297 -150.9511)">
						<stop  offset="0" style="stop-color:#E1473D"/>
						<stop  offset="1" style="stop-color:#E9605A"/>
					</linearGradient>
					<path style="fill:url(#SVGID_00000103227086013295954090000012775867082617049271_);" d="M1993.4,1096.8l-1.7-0.2
						c0,0,9.1-13.7,3.1-17.1c-5.9-3.4-30.1-11.7-34.3-21.3c-4.1-9.2,2-19.6,9.3-21.7c0.5-0.1,0.9,0.1,1.1,0.6l0.4,1.2
						c0.3,0.8,1.4,0.8,1.7,0.1l0,0c0.3-0.7,1.4-0.8,1.7,0c1.3,2.9,5.2,7.7,16.8,11.5c16.5,5.4,26.8,13.7,25.5,25.4
						c-0.1,0.7,0.7,1.3,1.3,1c1.3-0.6,3.4-0.7,5.8,1.9c4.1,4.5,0.9,14.4-10.4,21.4c-0.5,0.3-0.6,1.1-0.2,1.5
						c1.7,1.4,4.1,4.7-3.6,7.5c-7.8,2.9-12.1,1.9-13.6,1.3c-0.4-0.2-0.7-0.6-0.6-1.1l2-10.3c0.1-0.5-0.3-1-0.8-1.1L1993.4,1096.8z"
						/>
					
						<linearGradient id="SVGID_00000147193110865272860680000016206232921381354166_" gradientUnits="userSpaceOnUse" x1="6126.5068" y1="4913.269" x2="6151.5068" y2="4859.769" gradientTransform="matrix(-0.9914 -0.1306 -0.1306 0.9914 9606.9297 -150.9511)">
						<stop  offset="0" style="stop-color:#FF928E"/>
						<stop  offset="1" style="stop-color:#FEB3B1"/>
					</linearGradient>
					<path style="fill:url(#SVGID_00000147193110865272860680000016206232921381354166_);" d="M1992.7,1098.9c0,0,5.7-13.9,11.6-9
						c5.9,4.9-5.5,15.7-10.8,15.6L1992.7,1098.9z"/>
				</g>
			</g>
			<g>
				
					<linearGradient id="SVGID_00000062191578541635633210000001746501311153757598_" gradientUnits="userSpaceOnUse" x1="12391.9316" y1="1934.3414" x2="12299.7939" y2="1959.594" gradientTransform="matrix(0.9988 -4.940000e-02 4.940000e-02 0.9988 -10478.4492 -86.798)">
					<stop  offset="0" style="stop-color:#09005D"/>
					<stop  offset="1" style="stop-color:#1A0F91"/>
				</linearGradient>
				<path style="fill:url(#SVGID_00000062191578541635633210000001746501311153757598_);" d="M1974.8,1263.4c-0.1,0-0.2,0-0.3,0
					l-114.4-0.1c-2.8,0-5.1-2.3-5.1-5.1c0-2.8,2.3-5.2,5.1-5.1l114.4,0.1c2.8,0,5.1,2.3,5.1,5.1
					C1979.6,1261.1,1977.5,1263.3,1974.8,1263.4z"/>
				
					<linearGradient id="SVGID_00000029023455173330152080000007337598493414947988_" gradientUnits="userSpaceOnUse" x1="12356.585" y1="1173.5391" x2="12291.209" y2="1242.6373" gradientTransform="matrix(1 0 0 1 -10487.1201 0)">
					<stop  offset="0" style="stop-color:#09005D"/>
					<stop  offset="1" style="stop-color:#1A0F91"/>
				</linearGradient>
				<path style="fill:url(#SVGID_00000029023455173330152080000007337598493414947988_);" d="M1757.3,1159.6h95.2
					c7,0,13.4,4.1,16.4,10.4l44,93.4h-118.4c-4.5,0-8.6-2.8-10.3-7l-34.1-86.4C1748.3,1165,1752,1159.6,1757.3,1159.6z"/>
				
					<linearGradient id="SVGID_00000101788462762398736250000006414347857619945119_" gradientUnits="userSpaceOnUse" x1="12317.0615" y1="1190.744" x2="12287.3984" y2="1235.4136" gradientTransform="matrix(1 0 0 1 -10487.1201 0)">
					<stop  offset="0" style="stop-color:#53D8FF"/>
					<stop  offset="1" style="stop-color:#3840F7"/>
				</linearGradient>
				<path style="fill:url(#SVGID_00000101788462762398736250000006414347857619945119_);" d="M1824.4,1207.5
					c2.1,6.4,0.5,12.6-3.4,13.9c-3.9,1.3-8.8-2.9-10.9-9.3c-2.1-6.4-0.5-12.6,3.4-13.9C1817.5,1196.9,1822.4,1201.1,1824.4,1207.5z"
					/>
			</g>
			<g>
				<g>
					<path class="st3" d="M1772.8,1490.6c-0.6,0-1.3-0.1-1.9-0.4c-2.4-0.9-3.6-3.5-2.5-5.6l100.8-209.1c1-2.2,3.9-3.2,6.3-2.2
						c2.4,0.9,3.6,3.5,2.5,5.6L1777.2,1488C1776.4,1489.6,1774.6,1490.6,1772.8,1490.6z"/>
					<path class="st3" d="M1886.3,1490.6c-1.9,0-3.6-1-4.4-2.6l-100.8-209.1c-1-2.2,0.1-4.7,2.5-5.6c2.4-0.9,5.3,0.1,6.3,2.2
						l100.8,209.1c1,2.2-0.1,4.7-2.5,5.6C1887.6,1490.4,1887,1490.6,1886.3,1490.6z"/>
					<path class="st3" d="M2084.8,1490.6c-0.6,0-1.3-0.1-1.9-0.4c-2.4-0.9-3.6-3.5-2.5-5.6l100.8-209.1c1-2.2,3.9-3.2,6.3-2.2
						c2.4,0.9,3.6,3.5,2.5,5.6L2089.2,1488C2088.4,1489.6,2086.6,1490.6,2084.8,1490.6z"/>
					<path class="st3" d="M2198.3,1490.6c-1.9,0-3.6-1-4.4-2.6l-100.8-209.1c-1-2.2,0.1-4.7,2.5-5.6c2.4-0.9,5.3,0.1,6.3,2.2
						l100.8,209.1c1,2.2-0.1,4.7-2.5,5.6C2199.6,1490.4,2198.9,1490.6,2198.3,1490.6z"/>
				</g>
				<path class="st1" d="M2210.1,1268.6c0.3-1.5-0.1-3.1-1-4.3c-0.9-1.2-2.1-1.9-3.5-1.9h-458.5c-1.8,0-3.4,1-4.4,2.8
					c-1,1.7-1.1,3.9-0.3,5.8l5,12.4c1.1,2.8,3.6,4.6,6.3,4.6h448.8c2.5,0,4.7-2.1,5.2-4.9L2210.1,1268.6z"/>
			</g>
		</g>
		<g>
			<path class="st2" d="M1914.7,317.5l-327.8-1.8c-13.4-0.1-21.8,14.6-14.8,26.1l1.6,2.7c3.1,5.2,8.7,8.4,14.8,8.4h326.2
				c9.5,0,17.2-7.7,17.2-17.2v-0.9C1931.8,325.3,1924.2,317.6,1914.7,317.5z"/>
			<path class="st2" d="M1960.5,335.1v0.5c0,9.5,7.7,17.2,17.2,17.2h72.8c7.8,0,14.6-5.2,16.6-12.8l0,0c2.9-10.9-5.2-21.6-16.5-21.6
				l-72.8-0.5C1968.3,317.8,1960.5,325.5,1960.5,335.1z"/>
		</g>
		<g>
			<path class="st2" d="M1835.9,379.3l-249-1.8c-13.4-0.1-21.8,14.6-14.8,26.1l1.6,2.7c3.1,5.2,8.7,8.4,14.8,8.4h247.3
				c9.5,0,17.2-7.7,17.2-17.2v-0.9C1853,387,1845.3,379.3,1835.9,379.3z"/>
			<path class="st2" d="M1881.7,396.9v0.5c0,9.5,7.7,17.2,17.2,17.2h72.8c7.8,0,14.6-5.2,16.6-12.8l0,0c2.9-10.9-5.2-21.6-16.5-21.6
				l-72.8-0.5C1889.4,379.6,1881.7,387.3,1881.7,396.9z"/>
		</g>
		<path class="st72" d="M1863.9,1131.5c-0.8,0-1.5-0.2-2.2-0.7c-1.8-1.2-2.3-3.7-1.1-5.6c1.1-1.7,2.2-3.3,3.3-5
			c1.2-1.9,3.7-2.4,5.6-1.2c1.9,1.2,2.4,3.7,1.2,5.6c-1.1,1.7-2.2,3.4-3.3,5.1C1866.5,1130.9,1865.2,1131.5,1863.9,1131.5z
			 M1874.6,1114.5c-0.7,0-1.4-0.2-2-0.6c-1.9-1.1-2.6-3.6-1.4-5.5c1-1.7,2-3.4,3-5.2c1.1-1.9,3.5-2.6,5.5-1.5
			c1.9,1.1,2.6,3.5,1.5,5.5c-1,1.8-2,3.5-3,5.3C1877.3,1113.8,1876,1114.5,1874.6,1114.5z M1884.3,1096.8c-0.6,0-1.2-0.1-1.8-0.4
			c-2-1-2.8-3.4-1.7-5.4c0.9-1.8,1.8-3.5,2.7-5.3c1-2,3.4-2.8,5.4-1.8c2,1,2.8,3.4,1.8,5.4c-0.9,1.8-1.8,3.6-2.7,5.5
			C1887.2,1096,1885.8,1096.8,1884.3,1096.8z M1893,1078.7c-0.5,0-1.1-0.1-1.6-0.3c-2-0.9-3-3.3-2.1-5.3c0.8-1.8,1.6-3.6,2.4-5.5
			c0.9-2,3.2-3,5.3-2.1c2,0.9,3,3.2,2.1,5.3c-0.8,1.9-1.6,3.7-2.4,5.6C1896,1077.8,1894.5,1078.7,1893,1078.7z M1900.6,1060
			c-0.5,0-0.9-0.1-1.4-0.3c-2.1-0.8-3.1-3.1-2.4-5.2c0.7-1.9,1.4-3.7,2-5.6c0.7-2.1,3-3.2,5.1-2.5c2.1,0.7,3.2,3,2.5,5.1
			c-0.7,1.9-1.4,3.8-2.1,5.7C1903.7,1059,1902.2,1060,1900.6,1060z M899.6,1052.4c-2.2,0-4-1.8-4-4c0-2.2,1.8-4,4-4c2,0,4,0,6,0
			c0,0,0,0,0.1,0c2.2,0,4,1.8,4,4c0,2.2-1.7,4.1-4,4.1C903.6,1052.4,901.6,1052.4,899.6,1052.4z M885.5,1052.2c0,0-0.1,0-0.1,0
			c-2-0.1-4.1-0.2-6.1-0.3c-2.2-0.1-3.9-2-3.8-4.2c0.1-2.2,2-3.9,4.2-3.8c2,0.1,4,0.2,6,0.3c2.2,0.1,4,1.9,3.9,4.2
			C889.4,1050.5,887.6,1052.2,885.5,1052.2z M919.7,1051.9c-2.1,0-3.9-1.7-4-3.8c-0.1-2.2,1.6-4.1,3.8-4.2c2-0.1,4-0.2,6-0.3
			c2.2-0.1,4.1,1.6,4.3,3.8c0.1,2.2-1.6,4.1-3.8,4.3c-2,0.1-4,0.2-6.1,0.3C919.8,1051.9,919.7,1051.9,919.7,1051.9z M865.4,1051
			c-0.1,0-0.2,0-0.3,0c-2-0.2-4-0.4-6.1-0.6c-2.2-0.2-3.8-2.2-3.6-4.4c0.2-2.2,2.2-3.8,4.4-3.6c2,0.2,4,0.4,5.9,0.5
			c2.2,0.2,3.9,2.1,3.7,4.3C869.3,1049.4,867.5,1051,865.4,1051z M939.7,1050.6c-2.1,0-3.8-1.6-4-3.7c-0.2-2.2,1.4-4.2,3.7-4.4
			c2-0.2,4-0.4,6-0.6c2.2-0.2,4.2,1.4,4.4,3.6c0.2,2.2-1.4,4.2-3.6,4.4c-2,0.2-4,0.4-6,0.6C940,1050.6,939.8,1050.6,939.7,1050.6z
			 M845.4,1048.8c-0.2,0-0.4,0-0.5,0c-2-0.3-4-0.5-6-0.8c-2.2-0.3-3.7-2.4-3.4-4.6c0.3-2.2,2.4-3.7,4.6-3.4c2,0.3,3.9,0.6,5.9,0.8
			c2.2,0.3,3.8,2.3,3.5,4.5C849.1,1047.4,847.4,1048.8,845.4,1048.8z M959.7,1048.5c-2,0-3.7-1.5-4-3.5c-0.3-2.2,1.3-4.2,3.5-4.5
			c2-0.3,4-0.5,5.9-0.8c2.2-0.3,4.2,1.2,4.5,3.4c0.3,2.2-1.2,4.2-3.4,4.5c-2,0.3-4,0.5-6,0.8C960,1048.5,959.9,1048.5,959.7,1048.5z
			 M825.6,1045.7c-0.2,0-0.5,0-0.7-0.1c-2-0.4-4-0.7-6-1.1c-2.2-0.4-3.6-2.5-3.2-4.7c0.4-2.2,2.5-3.6,4.7-3.2c2,0.4,3.9,0.8,5.9,1.1
			c2.2,0.4,3.6,2.5,3.2,4.7C829.2,1044.4,827.5,1045.7,825.6,1045.7z M979.6,1045.6c-1.9,0-3.6-1.4-4-3.4c-0.4-2.2,1.1-4.3,3.3-4.6
			c2-0.3,3.9-0.7,5.9-1c2.2-0.4,4.3,1.1,4.7,3.3c0.4,2.2-1.1,4.3-3.3,4.7c-2,0.4-4,0.7-6,1C980,1045.6,979.8,1045.6,979.6,1045.6z
			 M999.4,1041.9c-1.9,0-3.6-1.3-3.9-3.2c-0.4-2.2,1-4.3,3.1-4.7c2-0.4,3.9-0.8,5.9-1.2c2.2-0.5,4.3,0.9,4.8,3.1
			c0.5,2.2-0.9,4.3-3.1,4.8c-2,0.4-4,0.8-6,1.2C999.9,1041.9,999.6,1041.9,999.4,1041.9z M805.8,1041.7c-0.3,0-0.6,0-0.9-0.1
			c-2-0.5-4-0.9-5.9-1.4c-2.2-0.5-3.5-2.7-2.9-4.9c0.5-2.2,2.7-3.5,4.9-2.9c1.9,0.5,3.9,0.9,5.8,1.4c2.2,0.5,3.5,2.7,3,4.8
			C809.3,1040.4,807.7,1041.7,805.8,1041.7z M1907,1041c-0.4,0-0.8-0.1-1.2-0.2c-2.1-0.6-3.3-2.9-2.7-5c0.6-1.9,1.1-3.8,1.7-5.7
			c0.6-2.1,2.8-3.4,5-2.8c2.1,0.6,3.4,2.8,2.8,5c-0.6,2-1.1,3.9-1.7,5.9C1910.3,1039.9,1908.7,1041,1907,1041z M1019,1037.6
			c-1.8,0-3.5-1.2-3.9-3.1c-0.5-2.2,0.8-4.3,3-4.9c1.9-0.5,3.9-0.9,5.8-1.4c2.2-0.5,4.3,0.8,4.9,2.9c0.5,2.2-0.8,4.3-2.9,4.9
			c-2,0.5-3.9,1-5.9,1.5C1019.7,1037.5,1019.3,1037.6,1019,1037.6z M786.3,1036.7c-0.4,0-0.7,0-1.1-0.2c-2-0.6-3.9-1.1-5.9-1.7
			c-2.1-0.6-3.3-2.9-2.7-5c0.6-2.1,2.9-3.3,5-2.7c1.9,0.6,3.8,1.1,5.7,1.7c2.1,0.6,3.4,2.8,2.8,5
			C789.7,1035.5,788.1,1036.7,786.3,1036.7z M1038.5,1032.5c-1.8,0-3.4-1.2-3.9-3c-0.6-2.1,0.7-4.4,2.8-5c1.9-0.5,3.9-1.1,5.8-1.6
			c2.1-0.6,4.4,0.6,5,2.8c0.6,2.1-0.6,4.4-2.8,5c-1.9,0.6-3.9,1.1-5.9,1.6C1039.2,1032.5,1038.9,1032.5,1038.5,1032.5z
			 M767.1,1030.8c-0.4,0-0.9-0.1-1.3-0.2c-1.9-0.6-3.9-1.3-5.8-2c-2.1-0.7-3.2-3-2.5-5.1c0.7-2.1,3-3.2,5.1-2.5
			c1.9,0.7,3.8,1.3,5.7,1.9c2.1,0.7,3.2,3,2.5,5.1C770.3,1029.7,768.8,1030.8,767.1,1030.8z M1057.8,1026.9c-1.7,0-3.3-1.1-3.8-2.8
			c-0.7-2.1,0.5-4.4,2.6-5c1.9-0.6,3.8-1.2,5.7-1.8c2.1-0.7,4.4,0.5,5.1,2.6c0.7,2.1-0.5,4.4-2.6,5.1c-1.9,0.6-3.9,1.2-5.8,1.8
			C1058.6,1026.8,1058.2,1026.9,1057.8,1026.9z M748.1,1023.9c-0.5,0-1-0.1-1.5-0.3c-1.9-0.7-3.8-1.5-5.7-2.3
			c-2.1-0.8-3-3.2-2.2-5.2c0.8-2.1,3.2-3.1,5.2-2.2c1.8,0.8,3.7,1.5,5.6,2.2c2.1,0.8,3.1,3.1,2.3,5.2
			C751.3,1022.9,749.8,1023.9,748.1,1023.9z M1912.3,1021.5c-0.3,0-0.6,0-0.9-0.1c-2.2-0.5-3.5-2.7-3-4.8c0.5-1.9,0.9-3.9,1.3-5.8
			c0.5-2.2,2.6-3.5,4.8-3.1c2.2,0.5,3.6,2.6,3.1,4.8c-0.4,2-0.9,4-1.4,6C1915.7,1020.3,1914.1,1021.5,1912.3,1021.5z M1077,1020.6
			c-1.7,0-3.2-1-3.8-2.7c-0.7-2.1,0.4-4.4,2.5-5.1c1.9-0.7,3.8-1.3,5.7-2c2.1-0.7,4.4,0.3,5.1,2.4c0.7,2.1-0.3,4.4-2.4,5.1
			c-1.9,0.7-3.8,1.3-5.7,2C1077.8,1020.5,1077.4,1020.6,1077,1020.6z M729.6,1016.1c-0.6,0-1.1-0.1-1.6-0.4
			c-1.9-0.8-3.7-1.7-5.6-2.5c-2-0.9-2.9-3.3-1.9-5.3c0.9-2,3.3-2.9,5.3-1.9c1.8,0.8,3.6,1.7,5.4,2.5c2,0.9,2.9,3.3,2,5.3
			C732.6,1015.3,731.1,1016.1,729.6,1016.1z M1095.9,1013.7c-1.6,0-3.2-1-3.8-2.6c-0.8-2.1,0.3-4.4,2.3-5.2c1.9-0.7,3.7-1.4,5.6-2.2
			c2.1-0.8,4.4,0.2,5.2,2.3c0.8,2.1-0.2,4.4-2.3,5.2c-1.9,0.7-3.8,1.5-5.7,2.2C1096.9,1013.6,1096.4,1013.7,1095.9,1013.7z
			 M711.4,1007.4c-0.6,0-1.2-0.1-1.8-0.4c-1.8-0.9-3.6-1.9-5.4-2.8c-2-1-2.7-3.5-1.7-5.4c1-2,3.5-2.7,5.4-1.7
			c1.8,0.9,3.5,1.9,5.3,2.8c2,1,2.8,3.4,1.8,5.4C714.3,1006.6,712.8,1007.4,711.4,1007.4z M1114.6,1006.3c-1.6,0-3.1-0.9-3.7-2.5
			c-0.8-2.1,0.1-4.4,2.2-5.3c1.9-0.8,3.7-1.5,5.6-2.3c2-0.9,4.4,0.1,5.3,2.2c0.9,2-0.1,4.4-2.2,5.3c-1.9,0.8-3.7,1.6-5.6,2.3
			C1115.7,1006.2,1115.1,1006.3,1114.6,1006.3z M1916.3,1001.8c-0.2,0-0.4,0-0.7-0.1c-2.2-0.4-3.7-2.4-3.3-4.6
			c0.3-2,0.6-3.9,0.9-5.9c0.3-2.2,2.4-3.7,4.6-3.4c2.2,0.3,3.7,2.4,3.4,4.6c-0.3,2-0.6,4-1,6
			C1919.9,1000.4,1918.2,1001.8,1916.3,1001.8z M1133.2,998.4c-1.5,0-3-0.9-3.7-2.4c-0.9-2,0-4.4,2.1-5.3c1.8-0.8,3.7-1.6,5.5-2.5
			c2-0.9,4.4,0,5.3,2c0.9,2,0,4.4-2,5.3c-1.8,0.8-3.7,1.7-5.5,2.5C1134.3,998.3,1133.7,998.4,1133.2,998.4z M693.7,997.8
			c-0.7,0-1.4-0.2-2-0.5c-1.8-1-3.5-2.1-5.3-3.1c-1.9-1.1-2.5-3.6-1.4-5.5c1.1-1.9,3.6-2.5,5.5-1.4c1.7,1,3.4,2,5.2,3
			c1.9,1.1,2.6,3.6,1.5,5.5C696.4,997.1,695.1,997.8,693.7,997.8z M1151.5,990c-1.5,0-3-0.9-3.6-2.3c-0.9-2-0.1-4.4,1.9-5.4
			c1.8-0.9,3.6-1.7,5.4-2.6c2-1,4.4-0.1,5.4,1.9s0.1,4.4-1.9,5.4c-1.8,0.9-3.7,1.7-5.5,2.6C1152.6,989.9,1152.1,990,1151.5,990z
			 M676.5,987.3c-0.8,0-1.5-0.2-2.2-0.7c-1.7-1.1-3.4-2.2-5.1-3.4c-1.8-1.2-2.3-3.7-1.1-5.6c1.2-1.8,3.7-2.3,5.6-1.1
			c1.7,1.1,3.3,2.2,5,3.3c1.9,1.2,2.4,3.7,1.2,5.6C679.1,986.6,677.8,987.3,676.5,987.3z M1918.9,981.9c-0.1,0-0.3,0-0.4,0
			c-2.2-0.2-3.8-2.2-3.6-4.4c0.2-2,0.4-4,0.5-5.9c0.2-2.2,2.1-3.9,4.3-3.7c2.2,0.2,3.9,2.1,3.7,4.3c-0.2,2-0.3,4.1-0.5,6.1
			C1922.7,980.3,1921,981.9,1918.9,981.9z M1169.6,981.2c-1.5,0-2.9-0.8-3.6-2.2c-1-2-0.2-4.4,1.8-5.4c1.8-0.9,3.6-1.8,5.4-2.7
			c2-1,4.4-0.2,5.4,1.8c1,2,0.2,4.4-1.8,5.4c-1.8,0.9-3.6,1.8-5.4,2.7C1170.8,981.1,1170.2,981.2,1169.6,981.2z M660,975.8
			c-0.8,0-1.7-0.3-2.4-0.8c-1.6-1.2-3.3-2.4-4.9-3.7c-1.8-1.3-2.1-3.9-0.8-5.6c1.4-1.8,3.9-2.1,5.6-0.8c1.6,1.2,3.2,2.4,4.8,3.6
			c1.8,1.3,2.2,3.8,0.9,5.6C662.4,975.2,661.2,975.8,660,975.8z M1187.5,972c-1.4,0-2.8-0.8-3.6-2.1c-1-2-0.3-4.4,1.7-5.4
			c1.8-0.9,3.5-1.9,5.3-2.8c2-1.1,4.4-0.3,5.4,1.6c1.1,2,0.3,4.4-1.6,5.4c-1.8,1-3.6,1.9-5.4,2.9
			C1188.8,971.9,1188.1,972,1187.5,972z M644.1,963.3c-0.9,0-1.8-0.3-2.6-0.9c-1.6-1.3-3.1-2.6-4.7-4c-1.7-1.5-1.9-4-0.4-5.7
			c1.5-1.7,4-1.9,5.7-0.4c1.5,1.3,3,2.6,4.6,3.9c1.7,1.4,1.9,4,0.5,5.7C646.4,962.8,645.2,963.3,644.1,963.3z M1205.2,962.4
			c-1.4,0-2.8-0.7-3.5-2.1c-1.1-1.9-0.4-4.4,1.6-5.5c1.8-1,3.5-2,5.3-2.9c1.9-1.1,4.4-0.4,5.5,1.5c1.1,1.9,0.4,4.4-1.5,5.5
			c-1.8,1-3.5,2-5.3,3C1206.5,962.3,1205.9,962.4,1205.2,962.4z M1920.2,961.8c0,0-0.1,0-0.1,0c-2.2-0.1-4-1.9-3.9-4.1
			c0.1-2,0.1-4,0.1-5.9c0-2.2,1.8-4,4-4c0,0,0,0,0,0c2.2,0,4,1.8,4,4.1c0,2-0.1,4.1-0.1,6.1C1924.2,960.1,1922.4,961.8,1920.2,961.8
			z M1222.7,952.5c-1.4,0-2.7-0.7-3.5-2c-1.1-1.9-0.5-4.4,1.5-5.5c1.7-1,3.5-2,5.2-3c1.9-1.1,4.4-0.5,5.5,1.4
			c1.1,1.9,0.5,4.4-1.4,5.5c-1.7,1-3.5,2-5.2,3.1C1224.1,952.3,1223.4,952.5,1222.7,952.5z M629,950c-1,0-2-0.4-2.8-1.1
			c-1.5-1.4-3-2.8-4.4-4.2c-1.6-1.6-1.6-4.1-0.1-5.7c1.6-1.6,4.1-1.6,5.7-0.1c1.4,1.4,2.9,2.8,4.3,4.1c1.6,1.5,1.7,4.1,0.2,5.7
			C631.1,949.6,630.1,950,629,950z M1240,942.2c-1.4,0-2.7-0.7-3.4-1.9c-1.2-1.9-0.5-4.4,1.4-5.5c1.7-1,3.4-2.1,5.1-3.1
			c1.9-1.2,4.4-0.6,5.5,1.3c1.2,1.9,0.6,4.4-1.3,5.5c-1.7,1.1-3.4,2.1-5.2,3.2C1241.4,942,1240.7,942.2,1240,942.2z M1920.1,941.7
			c-2.1,0-3.9-1.7-4-3.8c-0.1-2-0.2-4-0.3-5.9c-0.2-2.2,1.5-4.1,3.7-4.3c2.3-0.1,4.1,1.5,4.3,3.7c0.1,2,0.3,4.1,0.3,6.1
			c0.1,2.2-1.6,4.1-3.8,4.2C1920.2,941.7,1920.1,941.7,1920.1,941.7z M614.8,935.8c-1.1,0-2.1-0.4-2.9-1.3c-1.4-1.5-2.8-3-4.1-4.5
			c-1.5-1.6-1.4-4.2,0.3-5.7c1.6-1.5,4.2-1.4,5.7,0.3c1.3,1.5,2.7,2.9,4,4.4c1.5,1.6,1.4,4.2-0.2,5.7
			C616.7,935.4,615.8,935.8,614.8,935.8z M1257.1,931.6c-1.3,0-2.6-0.7-3.4-1.9c-1.2-1.9-0.6-4.4,1.3-5.6c1.7-1.1,3.4-2.1,5.1-3.2
			c1.9-1.2,4.4-0.6,5.6,1.2c1.2,1.9,0.6,4.4-1.2,5.6c-1.7,1.1-3.4,2.2-5.1,3.2C1258.6,931.4,1257.8,931.6,1257.1,931.6z
			 M1918.4,921.6c-2,0-3.7-1.5-4-3.5c-0.2-2-0.5-3.9-0.8-5.9c-0.3-2.2,1.2-4.2,3.4-4.6c2.2-0.3,4.2,1.2,4.6,3.4c0.3,2,0.6,4,0.8,6.1
			c0.3,2.2-1.3,4.2-3.5,4.5C1918.7,921.6,1918.6,921.6,1918.4,921.6z M1274,920.7c-1.3,0-2.6-0.6-3.4-1.8c-1.2-1.9-0.7-4.4,1.2-5.6
			c1.7-1.1,3.4-2.2,5-3.3c1.9-1.2,4.4-0.7,5.6,1.1c1.2,1.9,0.7,4.4-1.1,5.6c-1.7,1.1-3.4,2.2-5.1,3.3
			C1275.5,920.5,1274.8,920.7,1274,920.7z M601.5,920.6c-1.2,0-2.3-0.5-3.1-1.5c-1.3-1.6-2.6-3.2-3.8-4.8c-1.4-1.7-1.1-4.3,0.7-5.7
			c1.7-1.4,4.3-1.1,5.7,0.7c1.2,1.6,2.5,3.1,3.7,4.6c1.4,1.7,1.2,4.3-0.6,5.7C603.3,920.3,602.4,920.6,601.5,920.6z M1290.8,909.6
			c-1.3,0-2.6-0.6-3.3-1.8c-1.2-1.8-0.8-4.3,1.1-5.6c1.7-1.1,3.3-2.3,5-3.4c1.8-1.3,4.3-0.8,5.6,1.1c1.3,1.8,0.8,4.3-1.1,5.6
			c-1.7,1.1-3.3,2.3-5,3.4C1292.3,909.3,1291.5,909.6,1290.8,909.6z M589.3,904.7c-1.3,0-2.5-0.6-3.3-1.7c-1.2-1.7-2.3-3.3-3.5-5
			c-1.3-1.8-0.8-4.3,1.1-5.6c1.8-1.3,4.3-0.8,5.6,1.1c1.1,1.6,2.2,3.3,3.4,4.9c1.3,1.8,0.9,4.3-0.9,5.6
			C590.9,904.4,590.1,904.7,589.3,904.7z M1915.1,901.8c-1.9,0-3.5-1.3-3.9-3.2c-0.4-1.9-0.8-3.9-1.3-5.8c-0.5-2.2,0.9-4.3,3-4.8
			c2.2-0.5,4.3,0.9,4.8,3c0.5,2,0.9,4,1.3,6c0.4,2.2-1,4.3-3.1,4.8C1915.7,901.8,1915.4,901.8,1915.1,901.8z M1307.3,898.2
			c-1.3,0-2.5-0.6-3.3-1.7c-1.3-1.8-0.8-4.3,1-5.6l4.9-3.5c1.8-1.3,4.3-0.8,5.6,1c1.3,1.8,0.8,4.3-1,5.6l-5,3.5
			C1308.9,897.9,1308.1,898.2,1307.3,898.2z M578.2,887.9c-1.4,0-2.7-0.7-3.4-1.9c-1.1-1.7-2.1-3.5-3.1-5.2
			c-1.1-1.9-0.5-4.4,1.5-5.5c1.9-1.1,4.4-0.5,5.5,1.5c1,1.7,2,3.4,3,5.1c1.2,1.9,0.6,4.4-1.3,5.5
			C579.7,887.7,578.9,887.9,578.2,887.9z M1323.8,886.6c-1.3,0-2.5-0.6-3.3-1.7c-1.3-1.8-0.9-4.3,0.9-5.6l4.9-3.5
			c1.8-1.3,4.3-0.9,5.6,0.9c1.3,1.8,0.9,4.3-0.9,5.6l-4.9,3.5C1325.4,886.3,1324.6,886.6,1323.8,886.6z M1910.3,882.3
			c-1.7,0-3.4-1.1-3.9-2.9c-0.6-1.9-1.1-3.8-1.7-5.7c-0.7-2.1,0.5-4.4,2.6-5c2.1-0.7,4.4,0.5,5,2.6c0.6,1.9,1.2,3.9,1.8,5.9
			c0.6,2.1-0.6,4.4-2.7,5C1911.1,882.2,1910.7,882.3,1910.3,882.3z M1340.1,874.8c-1.2,0-2.5-0.6-3.3-1.7c-1.3-1.8-0.9-4.3,0.9-5.6
			l4.9-3.5c1.8-1.3,4.3-0.9,5.6,0.9c1.3,1.8,0.9,4.3-0.9,5.6l-4.9,3.6C1341.7,874.5,1340.9,874.8,1340.1,874.8z M568.4,870.4
			c-1.5,0-2.9-0.8-3.6-2.2c-0.9-1.8-1.9-3.6-2.8-5.5c-1-2-0.1-4.4,1.8-5.4c2-1,4.4-0.1,5.4,1.8c0.9,1.8,1.8,3.6,2.7,5.3
			c1,2,0.2,4.4-1.7,5.4C569.6,870.3,569,870.4,568.4,870.4z M1904,863.2c-1.6,0-3.2-1-3.8-2.6c-0.7-1.9-1.4-3.7-2.2-5.5
			c-0.8-2.1,0.2-4.4,2.2-5.2c2.1-0.8,4.4,0.2,5.2,2.2c0.8,1.9,1.5,3.8,2.2,5.7c0.8,2.1-0.3,4.4-2.3,5.2
			C1904.9,863.1,1904.4,863.2,1904,863.2z M1356.4,862.9c-1.2,0-2.5-0.6-3.3-1.6c-1.3-1.8-0.9-4.3,0.9-5.6l4.9-3.6
			c1.8-1.3,4.3-0.9,5.6,0.9c1.3,1.8,0.9,4.3-0.9,5.6l-4.9,3.6C1358,862.7,1357.2,862.9,1356.4,862.9z M559.8,852.2
			c-1.6,0-3.1-0.9-3.7-2.4c-0.8-1.9-1.6-3.8-2.3-5.7c-0.8-2.1,0.2-4.4,2.2-5.2c2.1-0.8,4.4,0.2,5.2,2.2c0.7,1.8,1.5,3.7,2.3,5.5
			c0.9,2-0.1,4.4-2.1,5.3C560.9,852.1,560.3,852.2,559.8,852.2z M1372.6,851.1c-1.2,0-2.5-0.6-3.3-1.7c-1.3-1.8-0.9-4.3,0.9-5.6
			l4.9-3.6c1.8-1.3,4.3-0.9,5.6,0.9c1.3,1.8,0.9,4.3-0.9,5.6l-4.9,3.6C1374.3,850.8,1373.4,851.1,1372.6,851.1z M1896.1,844.6
			c-1.5,0-3-0.9-3.6-2.3c-0.8-1.8-1.7-3.6-2.6-5.3c-1-2-0.2-4.4,1.8-5.4c2-1,4.4-0.2,5.4,1.8c0.9,1.8,1.8,3.7,2.7,5.5
			c0.9,2,0.1,4.4-1.9,5.4C1897.3,844.5,1896.7,844.6,1896.1,844.6z M1388.9,839.3c-1.2,0-2.5-0.6-3.3-1.7c-1.3-1.8-0.9-4.3,0.9-5.6
			l4.9-3.5c1.8-1.3,4.3-0.9,5.6,0.9c1.3,1.8,0.9,4.3-0.9,5.6l-4.9,3.5C1390.5,839,1389.7,839.3,1388.9,839.3z M552.6,833.4
			c-1.7,0-3.2-1.1-3.8-2.7c-0.7-1.9-1.3-3.9-1.9-5.8c-0.7-2.1,0.5-4.4,2.6-5c2.1-0.7,4.4,0.5,5,2.6c0.6,1.9,1.2,3.8,1.8,5.7
			c0.7,2.1-0.4,4.4-2.5,5.1C553.5,833.4,553,833.4,552.6,833.4z M1405.3,827.5c-1.3,0-2.5-0.6-3.3-1.7c-1.3-1.8-0.9-4.3,1-5.6
			c1.6-1.2,3.3-2.3,4.9-3.5c1.8-1.3,4.3-0.8,5.6,1c1.3,1.8,0.8,4.3-1,5.6c-1.6,1.2-3.3,2.3-4.9,3.5
			C1406.9,827.3,1406.1,827.5,1405.3,827.5z M1886.8,826.8c-1.4,0-2.7-0.7-3.5-2c-1-1.7-2-3.4-3-5.1c-1.2-1.9-0.6-4.4,1.3-5.5
			c1.9-1.2,4.4-0.6,5.5,1.3c1.1,1.7,2.1,3.5,3.1,5.3c1.1,1.9,0.4,4.4-1.5,5.5C1888.2,826.6,1887.5,826.8,1886.8,826.8z M1421.7,816
			c-1.3,0-2.5-0.6-3.3-1.7c-1.3-1.8-0.8-4.3,1-5.6c1.7-1.1,3.3-2.3,5-3.4c1.8-1.3,4.3-0.8,5.6,1c1.3,1.8,0.8,4.3-1,5.6
			c-1.7,1.1-3.3,2.3-5,3.4C1423.3,815.8,1422.5,816,1421.7,816z M546.9,814.1c-1.8,0-3.4-1.2-3.9-3c-0.5-2-1-4-1.4-6
			c-0.5-2.2,0.9-4.3,3-4.8c2.2-0.5,4.3,0.9,4.8,3c0.4,1.9,0.9,3.9,1.4,5.8c0.5,2.2-0.8,4.3-2.9,4.9
			C547.6,814.1,547.3,814.1,546.9,814.1z M1876,809.8c-1.3,0-2.5-0.6-3.3-1.7c-1.1-1.6-2.3-3.2-3.4-4.8c-1.3-1.8-0.9-4.3,0.9-5.6
			c1.8-1.3,4.3-0.9,5.6,0.9c1.2,1.7,2.4,3.3,3.6,5c1.3,1.8,0.8,4.3-1,5.6C1877.6,809.6,1876.8,809.8,1876,809.8z M1438.4,804.7
			c-1.3,0-2.6-0.6-3.3-1.8c-1.2-1.8-0.7-4.3,1.1-5.6c1.7-1.1,3.4-2.2,5-3.4c1.9-1.2,4.4-0.7,5.6,1.1c1.2,1.9,0.7,4.4-1.1,5.6
			c-1.7,1.1-3.3,2.2-5,3.3C1439.9,804.4,1439.1,804.7,1438.4,804.7z M542.8,794.4c-1.9,0-3.6-1.4-4-3.3c-0.3-2-0.7-4-1-6.1
			c-0.3-2.2,1.2-4.2,3.4-4.6c2.2-0.3,4.2,1.2,4.6,3.4c0.3,2,0.6,3.9,0.9,5.9c0.4,2.2-1.1,4.3-3.3,4.6
			C543.2,794.4,543,794.4,542.8,794.4z M1863.9,793.8c-1.2,0-2.3-0.5-3.1-1.5c-1.3-1.5-2.5-3-3.8-4.5c-1.5-1.7-1.3-4.2,0.4-5.7
			c1.7-1.5,4.2-1.3,5.7,0.4c1.3,1.5,2.7,3.1,4,4.7c1.4,1.7,1.2,4.2-0.5,5.7C1865.7,793.5,1864.8,793.8,1863.9,793.8z M1455.2,793.7
			c-1.3,0-2.6-0.7-3.4-1.9c-1.2-1.9-0.6-4.4,1.2-5.6c1.7-1.1,3.4-2.2,5.1-3.2c1.9-1.2,4.4-0.6,5.6,1.3c1.2,1.9,0.6,4.4-1.3,5.6
			c-1.7,1.1-3.4,2.1-5.1,3.2C1456.7,793.5,1456,793.7,1455.2,793.7z M1472.3,783c-1.4,0-2.7-0.7-3.4-1.9c-1.2-1.9-0.5-4.4,1.4-5.5
			c1.7-1,3.5-2.1,5.2-3.1c1.9-1.1,4.4-0.5,5.5,1.4c1.1,1.9,0.5,4.4-1.4,5.5c-1.7,1-3.4,2.1-5.1,3.1
			C1473.7,782.8,1473,783,1472.3,783z M1850.4,778.9c-1,0-2.1-0.4-2.9-1.2c-1.4-1.4-2.8-2.8-4.2-4.1c-1.6-1.5-1.7-4.1-0.1-5.7
			c1.5-1.6,4.1-1.7,5.7-0.1c1.5,1.4,2.9,2.8,4.4,4.3c1.6,1.6,1.6,4.1,0,5.7C1852.4,778.5,1851.4,778.9,1850.4,778.9z M540.2,774.5
			c-2.1,0-3.8-1.6-4-3.6c-0.2-2-0.4-4.1-0.5-6.1c-0.2-2.2,1.5-4.1,3.7-4.3c2.2-0.2,4.1,1.5,4.3,3.7c0.1,2,0.3,4,0.5,5.9
			c0.2,2.2-1.4,4.2-3.6,4.4C540.4,774.5,540.3,774.5,540.2,774.5z M1489.7,772.8c-1.4,0-2.8-0.7-3.5-2c-1.1-1.9-0.4-4.4,1.5-5.5
			c1.8-1,3.5-2,5.3-3c1.9-1.1,4.4-0.4,5.5,1.6c1.1,1.9,0.4,4.4-1.6,5.5c-1.7,1-3.5,1.9-5.2,2.9
			C1491,772.7,1490.3,772.8,1489.7,772.8z M1835.6,765.2c-0.9,0-1.8-0.3-2.6-0.9c-1.5-1.3-3-2.5-4.6-3.7c-1.7-1.4-2-3.9-0.7-5.7
			c1.4-1.7,3.9-2.1,5.7-0.7c1.6,1.3,3.2,2.6,4.8,3.9c1.7,1.4,1.9,4,0.5,5.7C1837.9,764.8,1836.7,765.2,1835.6,765.2z M1507.3,763.2
			c-1.4,0-2.8-0.8-3.6-2.2c-1-2-0.3-4.4,1.7-5.4c1.8-0.9,3.6-1.9,5.4-2.8c2-1,4.4-0.2,5.4,1.7c1,2,0.2,4.4-1.7,5.4
			c-1.8,0.9-3.6,1.8-5.3,2.8C1508.6,763.1,1507.9,763.2,1507.3,763.2z M539,754.4c-2.2,0-4-1.7-4-3.9c0-1.9-0.1-3.8-0.1-5.8v-0.4
			c0-2.2,1.8-4,4-4c2.2,0,4,1.8,4,4v0.4c0,1.9,0,3.7,0.1,5.6C543.1,752.5,541.3,754.4,539,754.4C539.1,754.4,539.1,754.4,539,754.4z
			 M1525.3,754.2c-1.5,0-2.9-0.8-3.6-2.3c-1-2-0.1-4.4,1.9-5.4c1.8-0.9,3.7-1.7,5.5-2.6c2-0.9,4.4-0.1,5.3,1.9
			c0.9,2,0.1,4.4-1.9,5.3c-1.8,0.8-3.6,1.7-5.4,2.6C1526.5,754,1525.9,754.2,1525.3,754.2z M1819.5,753.1c-0.8,0-1.6-0.2-2.3-0.7
			c-1.6-1.1-3.3-2.2-4.9-3.3c-1.9-1.2-2.4-3.7-1.2-5.6c1.2-1.9,3.7-2.4,5.6-1.2c1.7,1.1,3.4,2.2,5.1,3.4c1.8,1.3,2.3,3.8,1.1,5.6
			C1822.1,752.5,1820.8,753.1,1819.5,753.1z M1543.6,745.8c-1.6,0-3-0.9-3.7-2.4c-0.9-2,0.1-4.4,2.1-5.3c1.9-0.8,3.7-1.6,5.6-2.4
			c2.1-0.9,4.4,0.1,5.3,2.2c0.8,2.1-0.1,4.4-2.2,5.3c-1.8,0.8-3.7,1.5-5.5,2.3C1544.7,745.7,1544.1,745.8,1543.6,745.8z
			 M1802.4,742.6c-0.7,0-1.3-0.2-1.9-0.5c-1.7-0.9-3.5-1.9-5.2-2.8c-2-1-2.8-3.4-1.8-5.4c1-2,3.4-2.8,5.4-1.8
			c1.8,0.9,3.6,1.9,5.4,2.9c2,1.1,2.7,3.5,1.6,5.5C1805.2,741.9,1803.8,742.6,1802.4,742.6z M1562.3,738.3c-1.6,0-3.2-1-3.8-2.6
			c-0.8-2.1,0.3-4.4,2.4-5.2c1.9-0.7,3.8-1.4,5.7-2.1c2.1-0.7,4.4,0.3,5.1,2.4c0.7,2.1-0.3,4.4-2.4,5.1c-1.9,0.7-3.8,1.4-5.6,2
			C1563.2,738.2,1562.7,738.3,1562.3,738.3z M539.3,734.3c-0.1,0-0.1,0-0.2,0c-2.2-0.1-3.9-2-3.8-4.2c0.1-2,0.2-4.1,0.4-6.1
			c0.2-2.2,2.1-3.9,4.3-3.7c2.2,0.2,3.9,2.1,3.7,4.3c-0.1,2-0.3,4-0.4,5.9C543.3,732.6,541.5,734.3,539.3,734.3z M1784.3,733.8
			c-0.5,0-1.1-0.1-1.6-0.3c-1.8-0.8-3.6-1.5-5.5-2.3c-2.1-0.8-3.1-3.2-2.3-5.2c0.8-2.1,3.2-3.1,5.2-2.3c1.9,0.8,3.8,1.5,5.7,2.3
			c2,0.9,3,3.2,2.1,5.3C1787.3,732.9,1785.8,733.8,1784.3,733.8z M1581.3,731.7c-1.7,0-3.3-1.1-3.8-2.8c-0.7-2.1,0.5-4.4,2.6-5.1
			c1.9-0.6,3.9-1.2,5.8-1.8c2.1-0.6,4.4,0.6,5,2.7c0.6,2.1-0.6,4.4-2.7,5c-1.9,0.6-3.8,1.2-5.7,1.8
			C1582.1,731.7,1581.7,731.7,1581.3,731.7z M1765.4,726.8c-0.4,0-0.8-0.1-1.2-0.2c-1.9-0.6-3.8-1.2-5.7-1.8c-2.1-0.6-3.3-2.9-2.7-5
			c0.6-2.1,2.9-3.4,5-2.7c2,0.6,3.9,1.2,5.9,1.8c2.1,0.7,3.3,3,2.6,5.1C1768.7,725.7,1767.1,726.8,1765.4,726.8z M1600.6,726.2
			c-1.8,0-3.4-1.2-3.9-3c-0.6-2.2,0.7-4.3,2.9-4.9c2-0.5,3.9-1,5.9-1.5c2.2-0.5,4.3,0.8,4.9,3c0.5,2.2-0.8,4.3-3,4.9
			c-1.9,0.5-3.9,1-5.8,1.5C1601.3,726.1,1601,726.2,1600.6,726.2z M1620.2,721.6c-1.9,0-3.6-1.3-3.9-3.2c-0.4-2.2,1-4.3,3.1-4.7
			c2-0.4,4-0.8,6-1.2c2.2-0.4,4.3,1,4.7,3.2c0.4,2.2-1,4.3-3.2,4.7c-2,0.4-3.9,0.7-5.9,1.1C1620.8,721.6,1620.5,721.6,1620.2,721.6z
			 M1746,721.4c-0.3,0-0.6,0-0.9-0.1c-1.9-0.4-3.9-0.9-5.8-1.3c-2.2-0.4-3.6-2.6-3.1-4.8c0.4-2.2,2.6-3.6,4.8-3.1c2,0.4,4,0.8,6,1.3
			c2.2,0.5,3.5,2.7,3,4.8C1749.5,720.1,1747.9,721.4,1746,721.4z M1640.1,718.2c-2,0-3.7-1.4-4-3.4c-0.3-2.2,1.2-4.2,3.4-4.6
			c2-0.3,4-0.6,6.1-0.8c2.2-0.3,4.2,1.3,4.5,3.5c0.3,2.2-1.3,4.2-3.5,4.5c-2,0.2-3.9,0.5-5.9,0.8
			C1640.4,718.1,1640.2,718.2,1640.1,718.2z M1726.3,717.7c-0.2,0-0.4,0-0.6,0c-2-0.3-3.9-0.6-5.9-0.8c-2.2-0.3-3.8-2.3-3.5-4.5
			c0.3-2.2,2.3-3.8,4.5-3.5c2,0.3,4.1,0.5,6.1,0.8c2.2,0.3,3.7,2.4,3.4,4.6C1730,716.2,1728.2,717.7,1726.3,717.7z M1660,715.9
			c-2.1,0-3.8-1.6-4-3.7c-0.2-2.2,1.5-4.2,3.7-4.3c2-0.2,4.1-0.3,6.1-0.5c2.2-0.1,4.1,1.5,4.3,3.8c0.1,2.2-1.5,4.1-3.8,4.3
			c-2,0.1-4,0.3-5.9,0.4C1660.3,715.9,1660.2,715.9,1660,715.9z M1706.3,715.5c-0.1,0-0.2,0-0.3,0c-2-0.1-4-0.3-5.9-0.4
			c-2.2-0.1-3.9-2-3.8-4.2c0.1-2.2,2-3.9,4.2-3.8c2,0.1,4.1,0.2,6.1,0.4c2.2,0.2,3.9,2.1,3.7,4.3
			C1710.1,713.9,1708.4,715.5,1706.3,715.5z M1680.1,714.8c-2.2,0-4-1.8-4-3.9c0-2.2,1.7-4.1,3.9-4.1c2,0,4-0.1,5.9-0.1
			c2.2,0,4.1,1.8,4.1,4c0,2.2-1.7,4-3.9,4h-0.2C1684.1,714.8,1682.1,714.8,1680.1,714.8C1680.2,714.8,1680.2,714.8,1680.1,714.8z
			 M541.1,714.3c-0.2,0-0.3,0-0.5,0c-2.2-0.3-3.8-2.3-3.5-4.5c0.2-2,0.5-4,0.8-6.1c0.3-2.2,2.3-3.7,4.5-3.4c2.2,0.3,3.7,2.3,3.4,4.5
			c-0.3,2-0.5,3.9-0.8,5.9C544.8,712.8,543.1,714.3,541.1,714.3z M544.1,694.4c-0.2,0-0.5,0-0.8-0.1c-2.2-0.4-3.6-2.5-3.2-4.7
			c0.4-2,0.8-4,1.2-6c0.5-2.2,2.6-3.6,4.8-3.1c2.2,0.5,3.6,2.6,3.1,4.8c-0.4,1.9-0.8,3.9-1.2,5.8C547.7,693,546,694.4,544.1,694.4z
			 M548.5,674.7c-0.3,0-0.7,0-1-0.1c-2.2-0.6-3.4-2.8-2.9-4.9c0.5-2,1-3.9,1.6-5.9c0.6-2.1,2.8-3.4,5-2.8c2.1,0.6,3.4,2.8,2.8,5
			c-0.5,1.9-1.1,3.8-1.6,5.8C552,673.5,550.3,674.7,548.5,674.7z M554.2,655.4c-0.4,0-0.8-0.1-1.3-0.2c-2.1-0.7-3.3-3-2.6-5.1
			c0.6-1.9,1.3-3.9,2-5.8c0.7-2.1,3-3.2,5.1-2.5c2.1,0.7,3.2,3,2.5,5.1c-0.7,1.9-1.3,3.8-1.9,5.6
			C557.5,654.4,555.9,655.4,554.2,655.4z M561.1,636.6c-0.5,0-1-0.1-1.5-0.3c-2.1-0.8-3.1-3.2-2.2-5.2c0.8-1.9,1.5-3.8,2.3-5.6
			c0.9-2,3.2-3,5.3-2.1c2,0.9,3,3.2,2.1,5.3c-0.8,1.8-1.5,3.7-2.3,5.5C564.2,635.6,562.7,636.6,561.1,636.6z M569.3,618.2
			c-0.6,0-1.2-0.1-1.7-0.4c-2-1-2.8-3.4-1.9-5.4c0.9-1.8,1.8-3.7,2.7-5.5c1-2,3.4-2.8,5.4-1.8c2,1,2.8,3.4,1.8,5.4
			c-0.9,1.8-1.8,3.6-2.6,5.3C572.2,617.3,570.8,618.2,569.3,618.2z M578.6,600.3c-0.7,0-1.4-0.2-2-0.5c-1.9-1.1-2.6-3.6-1.5-5.5
			c1-1.8,2-3.5,3.1-5.3c1.1-1.9,3.6-2.5,5.5-1.4c1.9,1.1,2.5,3.6,1.4,5.5c-1,1.7-2,3.4-3,5.2C581.4,599.6,580,600.3,578.6,600.3z
			 M589.1,583.2c-0.8,0-1.5-0.2-2.2-0.7c-1.9-1.2-2.4-3.7-1.1-5.6c1.1-1.7,2.3-3.4,3.4-5.1c1.3-1.8,3.8-2.3,5.6-1
			c1.8,1.3,2.3,3.8,1,5.6c-1.1,1.6-2.2,3.3-3.3,4.9C591.7,582.5,590.4,583.2,589.1,583.2z M600.8,566.7c-0.8,0-1.7-0.3-2.4-0.8
			c-1.8-1.3-2.1-3.9-0.8-5.6c1.2-1.6,2.5-3.2,3.8-4.8c1.4-1.7,3.9-2,5.7-0.7c1.7,1.4,2,3.9,0.6,5.7c-1.2,1.6-2.5,3.1-3.7,4.7
			C603.2,566.2,602,566.7,600.8,566.7z M613.5,551.1c-0.9,0-1.9-0.3-2.7-1c-1.7-1.5-1.8-4-0.4-5.7c1.3-1.5,2.7-3.1,4.1-4.6
			c1.5-1.6,4-1.8,5.7-0.3c1.6,1.5,1.8,4,0.3,5.7c-1.3,1.5-2.7,2.9-4,4.4C615.7,550.7,614.6,551.1,613.5,551.1z M627.3,536.5
			c-1,0-2.1-0.4-2.9-1.2c-1.6-1.6-1.5-4.1,0-5.7c1.5-1.4,2.9-2.9,4.4-4.3c1.6-1.5,4.2-1.5,5.7,0.2c1.5,1.6,1.5,4.2-0.2,5.7
			c-1.4,1.4-2.9,2.7-4.3,4.1C629.3,536.1,628.3,536.5,627.3,536.5z M642.1,522.9c-1.1,0-2.3-0.5-3.1-1.4c-1.4-1.7-1.2-4.2,0.5-5.7
			c1.6-1.3,3.1-2.6,4.7-3.9c1.7-1.4,4.3-1.1,5.7,0.6c1.4,1.7,1.1,4.3-0.6,5.7c-1.5,1.3-3.1,2.5-4.6,3.8
			C644,522.6,643,522.9,642.1,522.9z M657.9,510.4c-1.2,0-2.5-0.6-3.3-1.7c-1.3-1.8-0.9-4.3,0.9-5.6c1.6-1.2,3.3-2.4,5-3.5
			c1.8-1.3,4.3-0.8,5.6,1c1.3,1.8,0.8,4.3-1,5.6c-1.6,1.1-3.2,2.3-4.8,3.4C659.6,510.2,658.7,510.4,657.9,510.4z M674.6,499.2
			c-1.4,0-2.7-0.7-3.4-1.9c-1.2-1.9-0.6-4.4,1.3-5.5c1.7-1.1,3.5-2.1,5.3-3.1c1.9-1.1,4.4-0.5,5.5,1.4c1.1,1.9,0.5,4.4-1.4,5.5
			c-1.7,1-3.4,2-5.1,3C676,499,675.3,499.2,674.6,499.2z M692.1,489.4c-1.5,0-2.9-0.8-3.6-2.2c-1-2-0.2-4.4,1.8-5.4
			c1.2-0.6,2.4-1.2,3.6-1.8c2-1,4.4-0.1,5.4,1.8c1,2,0.1,4.4-1.8,5.4c-1.2,0.6-2.3,1.2-3.5,1.7C693.4,489.3,692.7,489.4,692.1,489.4
			z"/>
		<g>
			<polygon class="st3" points="722.6,435.2 731,462.8 746,445.2 			"/>
			<path class="st2" d="M841.6,381.6l-54.5,88c-1,1.7-2.7,2.9-4.7,3.3s-4,0-5.6-1.1l-86.3-58c-1-0.7-1.5-1.9-1.2-3s1.2-2.1,2.3-2.3
				L841.6,381.6z"/>
			<polygon class="st3" points="722.6,435.2 841.6,381.6 736.5,444.6 738.5,452.4 			"/>
			<polygon class="st3" points="744.8,450.2 731,462.8 736.5,444.6 			"/>
		</g>
	</g>
</g>
</svg>
