<?xml version="1.0" encoding="utf-8"?>
<!-- Generator: Adobe Illustrator 28.1.0, SVG Export Plug-In . SVG Version: 6.00 Build 0)  -->
<svg version="1.1" xmlns="http://www.w3.org/2000/svg" xmlns:xlink="http://www.w3.org/1999/xlink" x="0px" y="0px"
	 viewBox="0 0 3710 3710" style="enable-background:new 0 0 3710 3710;" xml:space="preserve">
<style type="text/css">
	.st0{clip-path:url(#SVGID_00000150807276384849692030000015799328859250588569_);fill:#FFFFFF;}
	.st1{opacity:0.5;clip-path:url(#SVGID_00000098203275969861267830000012639109328463538560_);}
	.st2{fill:#FFFFFF;}
	.st3{opacity:0.5;clip-path:url(#SVGID_00000162326873023959489070000016148942222868325041_);}
	.st4{clip-path:url(#SVGID_00000145054606025400281230000007622157302494434743_);}
	.st5{clip-path:url(#SVGID_00000036951023049078332990000002151232467164102067_);}
	.st6{fill:url(#SVGID_00000165213995778215766120000002922465005024363662_);}
	.st7{fill:url(#SVGID_00000140010240188181184910000005016664680579820427_);}
	.st8{fill:url(#SVGID_00000106844126399296970770000004871040337529262226_);}
	.st9{fill:url(#SVGID_00000067934641563413408110000007841370913496556209_);}
	.st10{fill:url(#SVGID_00000106141350843586746410000018228707946705107586_);}
	.st11{opacity:0.48;fill:#FFFFFF;}
	.st12{fill:url(#SVGID_00000030455673340499114470000005305282262377640854_);}
	.st13{opacity:0.3;fill:url(#SVGID_00000090283160802308342420000014512043270996373661_);}
	.st14{opacity:0.75;}
	.st15{fill:url(#SVGID_00000090999877354303003250000013654963457371346616_);}
	.st16{opacity:0.74;fill:#FFFFFF;}
	.st17{fill:url(#SVGID_00000053522553260330770160000005195250903771756453_);}
	.st18{opacity:0.5;}
	.st19{fill:url(#SVGID_00000170970103290855138410000001907331519003350929_);}
	.st20{fill:url(#SVGID_00000145746298756475592790000012331094897354286757_);}
	.st21{fill:url(#SVGID_00000162326826276783946970000006331289763774318731_);}
	.st22{fill:url(#SVGID_00000143596447622189034750000006483845737717748615_);}
	.st23{fill:url(#SVGID_00000079445006280526615170000007052628400668093612_);}
	.st24{opacity:0.3;fill:url(#SVGID_00000163072629325631488770000013257959083638251137_);}
	.st25{fill:url(#SVGID_00000091701110143909728700000004891266324969235362_);}
	.st26{fill:url(#SVGID_00000161618460666390978580000014971493631789122210_);}
	.st27{fill:url(#SVGID_00000162321960780950816530000006688648460680208792_);}
	.st28{fill:url(#SVGID_00000129887958993771740630000015234306829239411361_);}
	.st29{fill:url(#SVGID_00000088814675373517785710000001896317871620258211_);}
	.st30{opacity:0.3;fill:url(#SVGID_00000182490301628379293650000008370518004409657757_);}
	.st31{fill:url(#SVGID_00000142166767187193356240000000852501044798065812_);}
	.st32{fill:url(#SVGID_00000013161846295911804080000000314249287699955588_);}
	.st33{opacity:0.3;fill:url(#SVGID_00000116219358865458014010000007821498747106573229_);}
	.st34{fill:url(#SVGID_00000119818257278008254550000004233632864238816935_);}
	.st35{fill:url(#SVGID_00000044144732583456278570000002055307512426544809_);}
	.st36{opacity:0.3;fill:#D8DEE8;}
	.st37{fill:url(#SVGID_00000014610850786110613450000004345160006019140778_);}
	.st38{fill:url(#SVGID_00000112632992477226895610000014738870694718561924_);}
	.st39{fill:url(#SVGID_00000173861904279525932480000017851888857894483853_);}
	.st40{fill:url(#SVGID_00000129171505357746781150000009232669786517484700_);}
	.st41{fill:url(#SVGID_00000107573734020499139520000010024039060907419826_);}
	.st42{fill:url(#SVGID_00000179619499661136376830000014968095023526454201_);}
	.st43{fill:url(#SVGID_00000167382010838382480920000017222189650297230771_);}
	.st44{fill:url(#SVGID_00000030462317386553421680000017133649086103232699_);}
	.st45{fill:url(#SVGID_00000010989707964763836300000005894598157007018885_);}
	.st46{fill:url(#SVGID_00000067953410278939882380000000126300483867133588_);}
	.st47{fill:url(#SVGID_00000108288049525004254000000001184901726027612043_);}
	.st48{fill:url(#SVGID_00000004527789255328465390000001891665056342215305_);}
	.st49{fill:url(#SVGID_00000022541558479446590610000012403801532280494771_);}
	.st50{fill:url(#SVGID_00000156571772214670358540000007142741794208695458_);}
	.st51{fill:url(#SVGID_00000127736321475736377530000002138210282989449150_);}
	.st52{fill:url(#SVGID_00000153670187912600612030000009625056889525059249_);}
	.st53{fill:url(#SVGID_00000098931759086816032740000001573055154044690111_);}
	.st54{opacity:0.3;fill:#FFFFFF;}
	.st55{fill:url(#SVGID_00000157307212931010320610000002600749617172580284_);}
	.st56{fill:url(#SVGID_00000049942522964181027530000003438211768239696286_);}
	.st57{opacity:0.4;fill:url(#SVGID_00000156583218999933217610000012811061448285064597_);}
	.st58{fill:url(#SVGID_00000060723717810859242910000017427972899937303712_);}
	.st59{fill:url(#SVGID_00000134940538191456477800000002352698279247276971_);}
	.st60{fill:url(#SVGID_00000069385073449118566620000017183223946823553926_);}
	.st61{fill:url(#SVGID_00000039826008075883881740000002854762023364623514_);}
	.st62{fill:url(#SVGID_00000123432818100335405390000009880582825947790737_);}
	.st63{fill:url(#SVGID_00000057117196884214767060000000952832492963486089_);}
	.st64{fill:url(#SVGID_00000138548489523872905640000010067437685127221421_);}
</style>
<g id="Background">
</g>
<g id="Illustration">
	<g>
		<g>
			<defs>
				<rect id="SVGID_1_" x="175.98" y="254.71" width="3291.6" height="3200.58"/>
			</defs>
			<clipPath id="SVGID_00000033341834690226300100000005556389973712569759_">
				<use xlink:href="#SVGID_1_"  style="overflow:visible;"/>
			</clipPath>
			<path style="clip-path:url(#SVGID_00000033341834690226300100000005556389973712569759_);fill:#FFFFFF;" d="M1800.28,281.65
				c167.43,81.34,178.8,358.29,372.85,381.47c188.89,22.56,264.87-229.5,438.44-216.21c257.49,19.73,541.15,608.97,463.88,1116.49
				c-23.24,152.63-69.19,232.6-32.58,370.13c78.61,295.32,395.29,320.44,422.72,472.88c61.78,343.25-1324.58,1433.51-2417.88,908.21
				C537.1,3069.29,168.75,2509.2,176.09,1923.67C189.35,865.62,1424.58,99.13,1800.28,281.65"/>
		</g>
		<g>
			<g>
				<defs>
					<path id="SVGID_00000180356745046818405540000010533785550854561192_" d="M1447.54,1683.26
						c132.71,21.68,330.04,33.2,533.26-49.13c266.52-107.98,308.99-282.53,688.73-558.37c240.1-174.41,409.43-293.7,588.33-242.57
						c140.2,40.07,269.49,180.01,275.91,320.3c5.34,116.65-73.65,247.22-143.83,322.46c-57.19,61.33-111.55,89.15-117.05,153.51
						c-5.61,65.77,46.43,92.12,48.04,148.35c3.27,114.03-205.01,206.61-238.67,221.58c-374.45,166.45-811.11,39.14-1000.91-18.69
						C1924.41,1932.88,1697.84,1846.47,1447.54,1683.26z"/>
				</defs>
				<use xlink:href="#SVGID_00000180356745046818405540000010533785550854561192_"  style="overflow:visible;fill:#D8DEE8;"/>
				<clipPath id="SVGID_00000037656281339251843870000011573566253768377226_">
					<use xlink:href="#SVGID_00000180356745046818405540000010533785550854561192_"  style="overflow:visible;"/>
				</clipPath>
				<g style="opacity:0.5;clip-path:url(#SVGID_00000037656281339251843870000011573566253768377226_);">
					<path class="st2" d="M1320.94,1639.19l4.2-6.81c155.07,95.59,305.52,164.74,447.16,205.54
						c208.87,60.16,392.54,56.39,545.91-11.2c120.13-52.95,218.12-142.21,353.74-265.76c108.26-98.63,176.1-178.29,235.95-248.58
						c78.21-91.85,139.98-164.39,255.61-235.8c117.34-72.47,253.05-119.71,403.34-140.42l1.09,7.92
						c-149.19,20.56-283.85,67.43-400.23,139.3c-114.56,70.75-175.97,142.87-253.72,234.18c-60,70.46-128.01,150.34-236.65,249.31
						c-131.06,119.39-234.57,213.69-355.9,267.17c-155.13,68.37-340.63,72.26-551.35,11.57
						C1627.75,1804.61,1476.64,1735.16,1320.94,1639.19z"/>
					<path class="st2" d="M2747.68,1481.32c-5.43-27.27-20.24-118.36-3.46-233.68c18.51-127.19,80.29-310.85,269.48-463.5l5.02,6.22
						c-187.18,151.02-248.29,332.66-266.59,458.43c-17.5,120.28-0.32,213.64,4.12,234.56c258.01-97.75,475.7-86.26,613.19-59.27
						c149.93,29.44,239.67,83.24,240.56,83.79l-4.15,6.84c-0.88-0.54-89.67-53.72-238.32-82.85
						c-137.15-26.87-354.78-38.17-612.74,60.61l-4.22,1.62l-1.09-4.39C2749.44,1489.53,2748.74,1486.64,2747.68,1481.32z"/>
					<path class="st2" d="M2450.6,1752.38l0.91-2.76c0.53-1.61,52.93-162.98,73.78-335.04c20.75-171.2-121.59-425.25-123.03-427.79
						l6.96-3.94c1.45,2.57,145.09,258.92,124.01,432.69c-19.45,160.41-66.18,311.54-73.23,333.77
						c133.98,95.39,403.56,92.37,606.73,72.91c221.89-21.25,414.53-66.18,416.46-66.63l1.83,7.78
						c-1.92,0.46-195.1,45.51-417.52,66.81c-299.24,28.66-506,3.06-614.54-76.08L2450.6,1752.38z"/>
					<path class="st2" d="M1827.46,1861.36l7.9-1.06c84.5-11.3,155.24-45.98,210.27-103.07c44.11-45.76,78.34-105.99,101.74-178.99
						c39.94-124.62,34.33-244.62,34.26-245.82l7.98-0.41c0.06,1.21,5.75,122.68-34.63,248.67
						c-36.91,115.14-120.73,257.44-310.58,286.41c23.57,23.04,119.43,113.53,264.23,208.38c154,100.89,396.46,227.5,676.96,257.79
						l544.69,58.8l-0.86,7.95l-544.69-58.8c-282.16-30.46-525.89-157.75-680.66-259.16c-167.66-109.86-270.03-213.94-271.05-214.98
						L1827.46,1861.36z"/>
				</g>
			</g>
		</g>
		<g>
			<defs>
				<path id="SVGID_00000005241367468525833670000015404139617014935696_" d="M2285.3,2117.55
					c85.96,98.5,209.52,211.72,369.36,283.44c40.79,18.3,292.79,131.37,358.94,33.16c23.3-34.59,3.87-66.19,34.21-112.98
					c35.96-55.45,86.27-46.58,164.06-78.41c46.42-18.99,182.27-74.57,184.72-187.58c1.47-67.54-44.76-152.53-104.86-195.18
					c-88.16-62.56-188.88-21.77-358.12,50.19c-150.02,63.79-169.66,98.88-278.5,142.93C2574.35,2085.8,2453.4,2119.8,2285.3,2117.55
					z"/>
			</defs>
			<use xlink:href="#SVGID_00000005241367468525833670000015404139617014935696_"  style="overflow:visible;fill:#EBEFF2;"/>
			<clipPath id="SVGID_00000158023803592474552950000014232939128043567547_">
				<use xlink:href="#SVGID_00000005241367468525833670000015404139617014935696_"  style="overflow:visible;"/>
			</clipPath>
			<g style="opacity:0.5;clip-path:url(#SVGID_00000158023803592474552950000014232939128043567547_);">
				<path class="st2" d="M2009.34,1912.32c-47.87-55.2-89.52-118.06-124.61-188.17l4.4-2.2c66.31,132.48,156.2,238.97,267.16,316.49
					c147.83,103.27,327.22,147.58,533.2,131.69c214.51-16.55,404.12-94.22,525.41-156.47c83.99-43.11,156.86-113.58,216.57-209.48
					l4.18,2.6c-60.19,96.66-133.7,167.74-218.5,211.26c-121.69,62.45-311.95,140.39-527.28,157
					c-207.15,15.98-387.62-28.62-536.4-132.56C2100.58,2005.52,2052.44,1962.02,2009.34,1912.32z"/>
				<path class="st2" d="M2959.19,2121.26l0.37-2.18c0.1-0.57,10.02-58.31,42.64-126.73c30.14-63.21,86.37-148.78,183.13-197.5
					l2.21,4.4c-95.51,48.09-151.09,132.7-180.9,195.22c-28.77,60.34-39.7,112.18-41.83,123.25
					c319.03,88.31,471.78-50.5,511.05-95.24c1.2-1.37,1.63-1.86,1.98-2.16l3.23,3.72l-1.61-1.86l1.63,1.84
					c-0.24,0.23-0.75,0.81-1.53,1.7c-39.84,45.39-194.97,186.46-518.25,96.14L2959.19,2121.26z"/>
				<path class="st2" d="M2751.25,2253.65c-20.14-23.22-40.27-49.73-60.04-80.02l-0.72-1.1l0.52-1.21
					c0.69-1.62,71.31-163.79,245.46-295.97l175.64-133.32l2.98,3.92l-175.64,133.32c-165.18,125.38-236.61,277.77-243.38,292.79
					c51.86,79.16,139.62,181.85,264.27,224.16c74.86,25.42,128.27,16.78,128.8,16.69l0.83,4.85c-0.54,0.09-54.94,8.94-130.91-16.78
					C2903.72,2382.26,2827.53,2341.62,2751.25,2253.65z"/>
			</g>
		</g>
		<g>
			<g>
				<g>
					<defs>
						<path id="SVGID_00000098912108702558608860000015372701703514472892_" d="M1408.84,2126.28
							c36.6-111.55,73.86-281.84,30.25-470.9c-50.08-217.09-161.02-260.53-260.63-492.59c-142.19-331.26,18.73-571.21-128.46-672.45
							c-71.78-49.37-184.66-49.41-254.25,0.16c-198.55,141.42-144.12,757.41,170.9,997.79c142.48,108.72,266.8,95.82,373.72,236.5
							C1434.83,1849.11,1427.42,2013.1,1408.84,2126.28z"/>
					</defs>
					
						<linearGradient id="SVGID_00000084489119296097616300000007446218130591978646_" gradientUnits="userSpaceOnUse" x1="798.0399" y1="466.9963" x2="1272.7688" y2="1977.4965">
						<stop  offset="0" style="stop-color:#FF9085"/>
						<stop  offset="1" style="stop-color:#FB6FBB"/>
					</linearGradient>
					
						<use xlink:href="#SVGID_00000098912108702558608860000015372701703514472892_"  style="overflow:visible;fill:url(#SVGID_00000084489119296097616300000007446218130591978646_);"/>
					<clipPath id="SVGID_00000116918970624772560470000000426517033135106194_">
						<use xlink:href="#SVGID_00000098912108702558608860000015372701703514472892_"  style="overflow:visible;"/>
					</clipPath>
					<g style="clip-path:url(#SVGID_00000116918970624772560470000000426517033135106194_);">
						<path class="st2" d="M1431.22,1845.61c-11.94-46.91-27.98-93.01-47.7-137.02c-45.31-101.13-95.32-156.76-158.63-227.19
							c-41.32-45.97-88.15-98.07-142.27-172.77c-101.26-139.76-132.69-188.86-160.84-268c-55.72-156.6-47.16-297.02-37.1-366.79
							c14.27-98.96,47.48-193.13,98.69-279.91l3.08,1.82c-50.98,86.37-84.03,180.11-98.23,278.6
							c-10.01,69.44-18.53,209.2,36.93,365.08c28.01,78.72,59.35,127.67,160.37,267.1c54.01,74.55,100.78,126.57,142.04,172.47
							c63.52,70.66,113.69,126.47,159.23,228.12c19.8,44.2,35.92,90.49,47.9,137.6L1431.22,1845.61z"/>
						<path class="st2" d="M894.58,930.02l-2.59-1.4c-0.59-0.32-59.39-32.64-111.64-98.42c-48.24-60.73-100.66-163.24-76.43-306.65
							l3.53,0.6c-24.01,142.05,27.87,243.57,75.61,303.72c45.6,57.45,96.21,89.16,108.06,96.14
							c3.27-114.57,76.72-188.81,138.06-231.02c66.92-46.05,134.26-64.94,134.93-65.13l0.95,3.45
							c-0.67,0.18-67.51,18.95-133.94,64.68c-61.15,42.11-134.47,116.38-136.5,231.1L894.58,930.02z"/>
						<path class="st2" d="M911.34,1298.47c-59.47,0-129.36-14.61-193.9-64.85l2.19-2.82c144.88,112.76,317.06,44,334.17,36.72
							c-29.26-113.12-3.38-196.57,23.56-246.73c29.34-54.63,66.3-82.71,66.67-82.99l2.15,2.86c-0.36,0.27-36.79,27.98-65.74,81.97
							c-26.7,49.79-52.33,132.8-22.79,245.46l0.38,1.45l-1.36,0.62C1055.6,1270.67,993.37,1298.47,911.34,1298.47z"/>
						<path class="st2" d="M1044.01,1514.24c-44.6,0-98-8.1-160.12-30.79l1.23-3.36c203.39,74.31,312.16-8.94,323.39-18.24
							c-49.53-115.87,20.23-303.26,20.94-305.14l3.35,1.26c-0.71,1.88-70.44,189.23-20.48,303.67l0.51,1.17l-0.95,0.86
							C1211.1,1464.39,1154.63,1514.24,1044.01,1514.24z"/>
					</g>
				</g>
			</g>
			<g>
				<g>
					<defs>
						<path id="SVGID_00000161607749005942585720000011103509786436644525_" d="M1472.55,1991.75
							c11.61-70.23,18.28-179.9-38.88-277.98c-99.72-171.11-281.5-114.35-455.48-297.68c-140.33-147.86-96.11-262.78-251.6-361.04
							c-26.03-16.45-163.55-106.96-265.82-52.44c-57.63,30.72-78.51,93.79-82.43,105.63c-59.24,178.94,123.02,459.08,360.58,587.22
							c136.49,73.62,180.52,49.56,420.71,135.42C1300.76,1881.32,1406.72,1946.28,1472.55,1991.75z"/>
					</defs>
					
						<linearGradient id="SVGID_00000104707336841536505850000005350462231305337225_" gradientUnits="userSpaceOnUse" x1="1667.3099" y1="4814.8496" x2="1562.795" y2="4353.7524">
						<stop  offset="0" style="stop-color:#FF9085"/>
						<stop  offset="1" style="stop-color:#FB6FBB"/>
					</linearGradient>
					
						<use xlink:href="#SVGID_00000161607749005942585720000011103509786436644525_"  style="overflow:visible;fill:url(#SVGID_00000104707336841536505850000005350462231305337225_);"/>
					<clipPath id="SVGID_00000073722094411324539440000016317965183524293042_">
						<use xlink:href="#SVGID_00000161607749005942585720000011103509786436644525_"  style="overflow:visible;"/>
					</clipPath>
					<g style="clip-path:url(#SVGID_00000073722094411324539440000016317965183524293042_);">
						<path class="st2" d="M1492.58,2076.32c-34.76-166.95-100.54-279.04-195.52-333.15c-46.34-26.4-83.36-30.59-122.56-35.02
							c-42.83-4.85-87.12-9.86-145.71-45.29c-57.01-34.48-77.4-67.59-103.21-109.5c-22.93-37.24-51.47-83.58-115.48-145.28
							c-56.13-54.09-97.02-79.42-133.1-101.77c-39.49-24.46-70.68-43.79-106.9-91.24c-59-77.32-89.83-176.37-91.64-294.42l3.58-0.06
							c1.8,117.27,32.38,215.61,90.91,292.31c35.81,46.93,66.76,66.1,105.94,90.37c36.23,22.44,77.29,47.88,133.69,102.24
							c64.35,62.02,93.02,108.58,116.05,145.98c25.56,41.5,45.74,74.29,102.02,108.32c57.92,35.03,101.81,39.99,144.26,44.8
							c39.57,4.48,76.95,8.71,123.93,35.47c95.91,54.64,162.28,167.53,197.25,335.53L1492.58,2076.32z"/>
						<path class="st2" d="M679.08,1316.6c-122.04,0-213.15-46.78-268.83-86.91c-62.74-45.21-95.33-92.02-95.65-92.49l2.94-2.03
							c0.32,0.46,32.63,46.85,94.91,91.7c57.08,41.11,151.66,89.26,278.82,85.99c-7.65-24.59-71.33-239.92,11.05-332.36l2.67,2.38
							c-85.65,96.1-10.38,328.8-9.6,331.14l0.75,2.27l-2.39,0.07C688.81,1316.53,683.92,1316.6,679.08,1316.6z"/>
						<path class="st2" d="M669.71,1515.11c-78.06,0-177.62-16.07-277.52-75.95l1.84-3.07c124.22,74.47,247.94,80.72,329.84,72.85
							c81.32-7.81,138.65-30.69,148.21-34.7c-33.09-122.06-3.61-294.18-3.3-295.91l3.52,0.62c-0.3,1.73-29.88,174.49,3.64,295.85
							l0.41,1.48l-1.4,0.63c-0.6,0.27-61.24,26.98-150.6,35.59C707.73,1514.09,689.4,1515.11,669.71,1515.11z"/>
						<path class="st2" d="M775.56,1798.53c-5.95,0-11.96-0.06-18.04-0.19l0.08-3.58c124.82,2.69,220.91-23.25,279.53-45.48
							c56.03-21.25,89.44-43.25,96.78-48.32c-91.63-113.85-55.73-299.69-55.35-301.56l3.51,0.7
							c-0.37,1.86-36.24,187.69,55.82,300.08l1.19,1.46l-1.52,1.12C1136.23,1703.74,1004.61,1798.53,775.56,1798.53z"/>
					</g>
				</g>
			</g>
			<g>
				
					<linearGradient id="SVGID_00000000220495047903265990000014854816897301275788_" gradientUnits="userSpaceOnUse" x1="-2603.5029" y1="1577.9133" x2="-3630.8511" y2="2421.8076" gradientTransform="matrix(-0.9456 0.3251 0.3251 0.9456 -2368.6013 1020.5929)">
					<stop  offset="0" style="stop-color:#FF9085"/>
					<stop  offset="1" style="stop-color:#FB6FBB"/>
				</linearGradient>
				<path style="fill:url(#SVGID_00000000220495047903265990000014854816897301275788_);" d="M1475,1932.09
					c-39.06-28.07-102.98-68.69-188.96-99.18c-152.94-54.22-223.02-22.23-287.77-86.89c-67.02-66.93-23.61-132.84-103.84-207.58
					c-6.75-6.28-92.9-84.46-170.84-55.35c-54.52,20.36-75.75,82.3-85.71,111.36c-38.66,112.79-16.18,284.64,104.14,369.41
					c114.08,80.37,258.51,42.07,304.36,29.58c80.45-21.9,99.51-53.26,181.29-73.09C1327.13,1896.25,1416.52,1914.11,1475,1932.09z"
					/>
			</g>
		</g>
		<g>
			
				<linearGradient id="SVGID_00000076576464601316399970000015936390779365662397_" gradientUnits="userSpaceOnUse" x1="1650.3141" y1="3017.572" x2="1452.1835" y2="3100.7869">
				<stop  offset="0" style="stop-color:#40447E"/>
				<stop  offset="0.9964" style="stop-color:#3C3B6B"/>
			</linearGradient>
			<path style="fill:url(#SVGID_00000076576464601316399970000015936390779365662397_);" d="M3279.33,2908.95l-2820.2-24.79v73.34
				c0,19.91,12.3,36.83,28.96,39.85l797.47,144.43c9.46,1.71,19.06,2.17,28.61,1.36l1934.51-164.67
				c17.27-1.47,30.65-18.45,30.65-38.9V2908.95z"/>
			<g>
				
					<linearGradient id="SVGID_00000142167830447020276760000012807283394005546632_" gradientUnits="userSpaceOnUse" x1="1327.9436" y1="2136.7637" x2="1122.5149" y2="2223.0437">
					<stop  offset="0" style="stop-color:#40447E"/>
					<stop  offset="0.9964" style="stop-color:#3C3B6B"/>
				</linearGradient>
				<path style="fill:url(#SVGID_00000142167830447020276760000012807283394005546632_);" d="M2255.89,2790.05l-1767.6,134.17
					c-31.63,2.4-57.35-23.11-57.35-56.99V1509.96c0-33.88,25.72-61.34,57.35-61.34h1767.6c26.06,0,47.13,24.83,47.13,55.45v1226.95
					C2303.02,2761.65,2281.95,2788.07,2255.89,2790.05z"/>
				
					<linearGradient id="SVGID_00000132051232339606372380000015089035528539069328_" gradientUnits="userSpaceOnUse" x1="459.1301" y1="2186.5002" x2="2331.2019" y2="2186.5002">
					<stop  offset="0" style="stop-color:#40447E"/>
					<stop  offset="0.9964" style="stop-color:#3C3B6B"/>
				</linearGradient>
				<path style="fill:url(#SVGID_00000132051232339606372380000015089035528539069328_);" d="M2284.07,2790.05l-1767.6,134.17
					c-31.63,2.4-57.35-23.11-57.35-56.99V1509.96c0-33.88,25.72-61.34,57.35-61.34h1767.6c26.06,0,47.13,24.83,47.13,55.45v1226.95
					C2331.2,2761.65,2310.13,2788.07,2284.07,2790.05z"/>
				
					<linearGradient id="SVGID_00000133511913460231516590000003220566944296171166_" gradientUnits="userSpaceOnUse" x1="579.3807" y1="2790.0227" x2="2479.7539" y2="1242.5227">
					<stop  offset="0" style="stop-color:#AA80F9"/>
					<stop  offset="0.9964" style="stop-color:#6165D7"/>
				</linearGradient>
				<path style="fill:url(#SVGID_00000133511913460231516590000003220566944296171166_);" d="M2229.01,2703.55L582.68,2820.1
					c-25.74,1.82-46.66-19.12-46.66-46.77v-1188.3c0-27.66,20.92-50.17,46.66-50.28l1646.33-7.32c21.5-0.1,38.88,20.25,38.88,45.44
					v1082.33C2267.89,2680.38,2250.51,2702.03,2229.01,2703.55z"/>
				<path class="st2" d="M1462.7,1485.74c0,12.61-9.1,22.86-20.33,22.9c-11.25,0.04-20.38-10.18-20.38-22.82
					c0-12.64,9.13-22.89,20.38-22.9C1453.61,1462.91,1462.7,1473.13,1462.7,1485.74z"/>
				<path class="st11" d="M1858.2,2417.8c-136.27-78.75-243.41,21.04-346.81-77.42c-62.69-59.69-31.91-104.2-109.05-193.4
					c-85.44-98.8-141.06-65.59-226.92-154.5c-108.57-112.43-54.27-199.9-147.79-280.63c-113.45-97.93-235.8-7.29-343.79-101.2
					c-46.58-40.51-72.14-99.39-85.48-162.02H492.68c-18.52,0-33.55,16.12-33.55,36.01v1406.94c0,19.89,15.04,34.86,33.55,33.45
					l1801.47-137.35c8.84-0.67,16.68-6.22,21.71-14.26c-131.87-5.16-212.89-52.65-264.68-101.74
					C1949.88,2575.64,1967.45,2480.94,1858.2,2417.8z"/>
			</g>
			
				<linearGradient id="SVGID_00000036218072134826918380000013920504846568282503_" gradientUnits="userSpaceOnUse" x1="459.1301" y1="2930.095" x2="3279.3301" y2="2930.095">
				<stop  offset="0" style="stop-color:#40447E"/>
				<stop  offset="0.9964" style="stop-color:#3C3B6B"/>
			</linearGradient>
			<path style="fill:url(#SVGID_00000036218072134826918380000013920504846568282503_);" d="M2354.53,2783.97L459.13,2925.2
				l826.43,149.67c9.46,1.71,19.06,2.17,28.61,1.36l1965.16-167.28l-894.65-124.02C2374.67,2783.54,2364.58,2783.22,2354.53,2783.97
				z"/>
			
				<linearGradient id="SVGID_00000176744447356230456180000017249147940955001777_" gradientUnits="userSpaceOnUse" x1="735.6982" y1="2906.7754" x2="2802.0408" y2="2906.7754">
				<stop  offset="0" style="stop-color:#40447E"/>
				<stop  offset="0.9964" style="stop-color:#3C3B6B"/>
			</linearGradient>
			<polygon style="opacity:0.3;fill:url(#SVGID_00000176744447356230456180000017249147940955001777_);" points="735.7,2928.75 
				2313.67,2809.42 2802.04,2876.57 1237.66,3004.13 			"/>
			<g class="st14">
				<polygon class="st2" points="871.91,1628.05 690.62,1628.68 690.62,1570.01 871.91,1570.01 				"/>
				<polygon class="st2" points="1821.78,1624.73 987.06,1627.65 987.06,1570.01 1821.78,1570.01 				"/>
				<polygon class="st2" points="1162.05,1724.44 987.06,1726.09 987.06,1668.46 1162.05,1667.42 				"/>
				<polygon class="st2" points="2079.96,1715.76 1273.23,1723.39 1273.23,1666.75 2079.96,1661.94 				"/>
				<polygon class="st2" points="1162.05,1821.84 987.06,1824.54 987.06,1766.91 1162.05,1764.82 				"/>
				<polygon class="st2" points="2079.96,1807.69 1273.23,1820.13 1273.23,1763.49 2079.96,1753.87 				"/>
				<polygon class="st2" points="871.91,1925.45 690.62,1929.32 690.62,1870.66 871.91,1867.41 				"/>
				<polygon class="st2" points="1821.78,1905.14 987.06,1922.99 987.06,1865.35 1821.78,1850.42 				"/>
				<polygon class="st2" points="1162.05,2016.65 987.06,2021.43 987.06,1963.8 1162.05,1959.62 				"/>
				<polygon class="st2" points="2079.96,1991.54 1273.23,2013.61 1273.23,1956.97 2079.96,1937.73 				"/>
				<polygon class="st2" points="1162.05,2114.05 987.06,2119.88 987.06,2062.25 1162.05,2057.03 				"/>
				<polygon class="st2" points="2079.96,2083.47 1273.23,2110.35 1273.23,2053.71 2079.96,2029.66 				"/>
				<polygon class="st2" points="1162.05,2211.45 987.06,2218.32 987.06,2160.69 1162.05,2154.43 				"/>
				<polygon class="st2" points="2079.96,2175.4 1273.23,2207.09 1273.23,2150.45 2079.96,2121.58 				"/>
				<polygon class="st2" points="1444.85,2296.06 1275.9,2303.7 1275.9,2247.08 1444.85,2240.03 				"/>
				<polygon class="st2" points="2203.15,2261.76 1552.22,2291.2 1552.22,2235.54 2203.15,2208.37 				"/>
				<polygon class="st2" points="871.91,2421.11 690.62,2430.39 690.62,2371.73 871.91,2363.08 				"/>
				<polygon class="st2" points="1821.78,2372.48 987.06,2415.22 987.06,2357.58 1821.78,2317.76 				"/>
				<polygon class="st2" points="1162.05,2503.66 987.06,2513.66 987.06,2456.03 1162.05,2446.64 				"/>
				<polygon class="st2" points="2079.96,2451.19 1273.23,2497.3 1273.23,2440.67 2079.96,2397.37 				"/>
				<polygon class="st2" points="1162.05,2601.06 987.06,2612.11 987.06,2554.48 1162.05,2544.04 				"/>
				<polygon class="st2" points="2079.96,2543.11 1273.23,2594.04 1273.23,2537.41 2079.96,2489.3 				"/>
				<polygon class="st2" points="871.91,2718.51 690.62,2731.04 690.62,2672.37 871.91,2660.48 				"/>
				<polygon class="st2" points="1821.78,2652.88 987.06,2710.55 987.06,2652.92 1821.78,2598.16 				"/>
			</g>
			<g>
				
					<linearGradient id="SVGID_00000033360719211381515490000015743315478986113678_" gradientUnits="userSpaceOnUse" x1="2252.46" y1="385.8932" x2="580.1786" y2="3730.449">
					<stop  offset="3.597120e-03" style="stop-color:#E38DDD"/>
					<stop  offset="1" style="stop-color:#9571F6"/>
				</linearGradient>
				<path style="fill:url(#SVGID_00000033360719211381515490000015743315478986113678_);" d="M2454.71,778.03L911.67,727.32
					c-51.74-1.7-93.87,39.12-93.87,91.18v1503.92c0,52.06,42.12,92.46,93.87,90.25l1543.04-65.89
					c44.63-1.91,80.67-42.41,80.67-90.48V867.71C2535.39,819.64,2499.34,779.49,2454.71,778.03z"/>
				<path class="st16" d="M911.67,2382.7c-35.2,1.46-63.81-26.05-63.81-61.44V819.36c0-35.39,28.61-63.18,63.81-62.07l1543.04,48.63
					c30.4,0.96,54.98,28.29,54.98,61.05V2257.3c0,32.76-24.58,60.33-54.98,61.59L911.67,2382.7z"/>
				
					<linearGradient id="SVGID_00000126311819147689019890000002734076498574471091_" gradientUnits="userSpaceOnUse" x1="1529.1942" y1="281.4427" x2="1819.759" y2="1443.7054">
					<stop  offset="3.597120e-03" style="stop-color:#E38DDD"/>
					<stop  offset="1" style="stop-color:#9571F6"/>
				</linearGradient>
				<path style="fill:url(#SVGID_00000126311819147689019890000002734076498574471091_);" d="M2454.71,778.03L911.67,727.32
					c-51.74-1.7-93.87,39.12-93.87,91.18v67.62l1717.58,44.03v-62.43C2535.39,819.64,2499.35,779.49,2454.71,778.03z"/>
				<path class="st2" d="M984.7,814.21c0,16.91-13.62,30.24-30.43,29.78c-16.84-0.47-30.52-14.59-30.52-31.55
					c0-16.96,13.67-30.29,30.52-29.78C971.08,783.18,984.7,797.3,984.7,814.21z"/>
				<path class="st2" d="M1090.93,817.3c0,16.83-13.49,30.1-30.14,29.64c-16.68-0.46-30.23-14.52-30.23-31.39
					c0-16.88,13.54-30.15,30.23-29.64C1077.45,786.42,1090.93,800.47,1090.93,817.3z"/>
				<path class="st2" d="M1196.16,820.36c0,16.75-13.36,29.96-29.86,29.5c-16.52-0.46-29.94-14.44-29.94-31.24s13.41-30,29.94-29.5
					C1182.8,789.62,1196.16,803.61,1196.16,820.36z"/>
				<g>
					<polygon class="st2" points="1742.24,1074.29 927.22,1059.64 927.22,1107.56 1742.24,1120.46 					"/>
					<polygon class="st2" points="2355,1085.3 2355,1130.15 2441.23,1131.52 2441.23,1086.85 					"/>
				</g>
				<g>
					<polygon class="st2" points="1099.52,1224.78 927.22,1222.95 927.22,1173.53 1099.52,1175.75 					"/>
					<polygon class="st2" points="2020.03,1234.58 1209.53,1225.95 1209.53,1177.16 2020.03,1187.59 					"/>
					<polygon class="st2" points="1377.51,1310.45 1209.53,1309.29 1209.53,1260.5 1377.51,1262.03 					"/>
					<polygon class="st2" points="2275.5,1316.61 1484.77,1311.18 1484.77,1263 2275.5,1270.18 					"/>
					<polygon class="st2" points="1377.51,1393.15 1209.53,1392.64 1209.53,1343.85 1377.51,1344.73 					"/>
					<polygon class="st2" points="2275.5,1395.91 1484.77,1393.48 1484.77,1345.3 2275.5,1349.48 					"/>
					<polygon class="st2" points="1099.52,1476.06 927.22,1476.18 927.22,1426.76 1099.52,1427.02 					"/>
					<polygon class="st2" points="2020.03,1475.4 1209.53,1475.98 1209.53,1427.19 2020.03,1428.41 					"/>
					<polygon class="st2" points="1377.51,1558.56 1209.53,1559.32 1209.53,1510.53 1377.51,1510.15 					"/>
					<polygon class="st2" points="2275.5,1554.52 1484.77,1558.08 1484.77,1509.9 2275.5,1508.09 					"/>
					<polygon class="st2" points="1377.51,1641.27 1209.53,1642.66 1209.53,1593.87 1377.51,1592.85 					"/>
					<polygon class="st2" points="2275.5,1633.83 1484.77,1640.38 1484.77,1592.2 2275.5,1587.4 					"/>
					<polygon class="st2" points="1377.51,1723.98 1209.53,1726 1209.53,1677.21 1377.51,1675.56 					"/>
					<polygon class="st2" points="2275.5,1713.13 1484.77,1722.68 1484.77,1674.5 2275.5,1666.7 					"/>
					<polygon class="st2" points="1651.14,1802.34 1487.36,1804.94 1487.36,1756.76 1651.14,1754.53 					"/>
					<polygon class="st2" points="2398.2,1790.49 1755.74,1800.68 1755.74,1753.1 2398.2,1744.34 					"/>
					<polygon class="st2" points="1099.52,1894.85 927.22,1898.24 927.22,1848.82 1099.52,1845.82 					"/>
					<polygon class="st2" points="2020.03,1876.76 1209.53,1892.69 1209.53,1843.9 2020.03,1829.77 					"/>
					<polygon class="st2" points="1377.51,1972.09 1209.53,1976.03 1209.53,1927.24 1377.51,1923.67 					"/>
					<polygon class="st2" points="2275.5,1951.05 1484.77,1969.58 1484.77,1921.4 2275.5,1904.62 					"/>
					<polygon class="st2" points="1377.51,2054.8 1209.53,2059.37 1209.53,2010.58 1377.51,2006.38 					"/>
					<polygon class="st2" points="2275.5,2030.35 1484.77,2051.88 1484.77,2003.7 2275.5,1983.93 					"/>
					<polygon class="st2" points="1099.52,2146.13 927.22,2151.47 927.22,2102.05 1099.52,2097.09 					"/>
					<polygon class="st2" points="2020.03,2117.58 1209.53,2142.71 1209.53,2093.92 2020.03,2070.59 					"/>
					<polygon class="st2" points="1377.51,2220.21 1209.53,2226.06 1209.53,2177.27 1377.51,2171.79 					"/>
					<polygon class="st2" points="2275.5,2188.96 1484.77,2216.48 1484.77,2168.3 2275.5,2142.54 					"/>
				</g>
				<g class="st18">
					<path class="st2" d="M1854.92,1356.18c-180.23-262.25-492.17-178.81-689.51-468.56c-35.59-52.26-59.74-105.43-76.3-154.47
						l-177.44-5.83c-51.74-1.7-93.87,39.12-93.87,91.18v1503.92c0,52.06,42.12,92.46,93.87,90.25l1486.53-63.48
						c-34.05-49.11-330.66-231.03-407.27-510.34C1920.86,1583.42,1963.66,1514.4,1854.92,1356.18z"/>
				</g>
			</g>
		</g>
		<g>
			
				<linearGradient id="SVGID_00000042733026355845731440000016264572869732462998_" gradientUnits="userSpaceOnUse" x1="3292.3711" y1="2969.7546" x2="3314.7517" y2="3254.5969" gradientTransform="matrix(1 -2.400000e-03 2.400000e-03 1 -794.8005 3.3687)">
				<stop  offset="0" style="stop-color:#311944"/>
				<stop  offset="1" style="stop-color:#A03976"/>
			</linearGradient>
			<path style="fill:url(#SVGID_00000042733026355845731440000016264572869732462998_);" d="M2548.69,3107.17
				c0,0-89.99,41.16-91.45,47.7c-1.46,6.54,57.93-2.33,82.18-1.45c24.25,0.89,44.19-6.33,41.97-16.6
				c-2.22-10.27-10.77-36.08-10.77-36.08L2548.69,3107.17z"/>
			
				<linearGradient id="SVGID_00000074425164492332656680000009817804561065554580_" gradientUnits="userSpaceOnUse" x1="3350.1477" y1="3128.3359" x2="3346.0789" y2="2833.332" gradientTransform="matrix(1 -2.400000e-03 2.400000e-03 1 -794.8005 3.3687)">
				<stop  offset="0" style="stop-color:#FFC444"/>
				<stop  offset="0.9964" style="stop-color:#F36F56"/>
			</linearGradient>
			<path style="fill:url(#SVGID_00000074425164492332656680000009817804561065554580_);" d="M2545.31,3073.95l5.58,40.55
				c0,0,14.27,5.04,23.84-0.98l3.98-44.5L2545.31,3073.95z"/>
			
				<linearGradient id="SVGID_00000183213314474228158450000011832452311713068961_" gradientUnits="userSpaceOnUse" x1="3715.303" y1="2936.531" x2="3737.6826" y2="3221.3613" gradientTransform="matrix(1 -2.400000e-03 2.400000e-03 1 -794.8005 3.3687)">
				<stop  offset="0" style="stop-color:#311944"/>
				<stop  offset="1" style="stop-color:#A03976"/>
			</linearGradient>
			<path style="fill:url(#SVGID_00000183213314474228158450000011832452311713068961_);" d="M2969.57,3073.91l10.52,16.8
				c2.94,4.7,3.83,10.36,2.44,15.72c-3.63,14-10.88,41.28-14.06,48.39c-4.32,9.69-62.61,15.59-62.61,15.59s-5.22-7.3,6.87-16.17
				c12.08-8.87,19.86-10.27,24.1-23.32c4.24-13.05,7-49.94,7-49.94L2969.57,3073.91z"/>
			
				<linearGradient id="SVGID_00000074429824446633935850000016065217615432206754_" gradientUnits="userSpaceOnUse" x1="3737.7454" y1="3122.9897" x2="3733.6765" y2="2827.9771" gradientTransform="matrix(1 -2.400000e-03 2.400000e-03 1 -794.8005 3.3687)">
				<stop  offset="0" style="stop-color:#FFC444"/>
				<stop  offset="0.9964" style="stop-color:#F36F56"/>
			</linearGradient>
			<path style="fill:url(#SVGID_00000074429824446633935850000016065217615432206754_);" d="M2925.86,3031.26
				c3.84,3.04,22.7,59.83,22.7,59.83s6.08,7.74,17.57-3.73c11.48-11.47,5.2-5.14,5.2-5.14l-2.29-55.89L2925.86,3031.26z"/>
			
				<linearGradient id="SVGID_00000097482778725856827170000012575751459487980205_" gradientUnits="userSpaceOnUse" x1="3279.7415" y1="2650.4324" x2="3497.8618" y2="2650.4324" gradientTransform="matrix(1 -2.400000e-03 2.400000e-03 1 -794.8005 3.3687)">
				<stop  offset="0" style="stop-color:#444B8C"/>
				<stop  offset="0.9964" style="stop-color:#3E4177"/>
			</linearGradient>
			<path style="fill:url(#SVGID_00000097482778725856827170000012575751459487980205_);" d="M2493.79,2259.17
				c-4.46,121-4.34,252.46,2.96,392.88c8.22,158.12,24.32,304.24,44.49,436.69c7.38,0.22,15.14,0.24,23.23-0.01
				c5.47-0.16,10.77-0.44,15.89-0.81c10.23-27.5,22.32-63.66,33.13-106.84c11.35-45.4,18.17-86.12,23.01-125.06
				c17.02-137.08-3.34-148.99,10.49-250.59c12.25-89.98,29.98-93.53,50.49-221.29c22.25-138.62,5.39-159.37-2.81-166.86
				C2659.78,2185.4,2578.07,2207.36,2493.79,2259.17z"/>
			
				<linearGradient id="SVGID_00000120534357063400692690000014645249140752281254_" gradientUnits="userSpaceOnUse" x1="3279.7412" y1="2650.4419" x2="3497.8601" y2="2650.4419" gradientTransform="matrix(1 -2.400000e-03 2.400000e-03 1 -794.8005 3.3687)">
				<stop  offset="0" style="stop-color:#444B8C"/>
				<stop  offset="0.9964" style="stop-color:#3E4177"/>
			</linearGradient>
			<path style="opacity:0.3;fill:url(#SVGID_00000120534357063400692690000014645249140752281254_);" d="M2694.67,2217.29
				c-33.27-30.41-109.15-11.77-189.23,34.96c92.49,99.45,102.7,164.08,91.74,206.06c-12.38,47.44-50.35,61.19-50.08,113.04
				c0.33,63.71,57.88,80.45,56.81,147.88c-0.7,44.58-25.97,44.18-31.8,99.26c-6.9,65.17,26.16,87.54,15.58,135.77
				c-4.55,20.75-17.61,47.88-54.94,75.88c2.74,19.79,5.56,39.38,8.48,58.6c7.38,0.22,15.13,0.24,23.23-0.01
				c5.47-0.16,10.77-0.44,15.89-0.81c10.24-27.5,22.33-63.65,33.13-106.83c11.35-45.41,18.17-86.12,23.01-125.06
				c17.02-137.08-3.34-148.99,10.49-250.59c12.25-89.98,29.98-93.53,50.49-221.29C2719.72,2245.52,2702.86,2224.78,2694.67,2217.29z
				"/>
			
				<linearGradient id="SVGID_00000143618674528536761730000005724069852849123207_" gradientUnits="userSpaceOnUse" x1="3340.2959" y1="2628.9312" x2="3779.3967" y2="2628.9312" gradientTransform="matrix(1 -2.400000e-03 2.400000e-03 1 -794.8005 3.3687)">
				<stop  offset="0" style="stop-color:#444B8C"/>
				<stop  offset="0.9964" style="stop-color:#3E4177"/>
			</linearGradient>
			<path style="fill:url(#SVGID_00000143618674528536761730000005724069852849123207_);" d="M2550.92,2257
				c79.71,116.03,165.73,260.48,242.77,433.43c58.22,130.7,100.51,253.45,131.6,362.86c4.18,1.92,14.03,5.75,26.6,4.06
				c17.15-2.31,27.4-13.28,30.08-16.35c12.36-78.52,10.82-144.98,6.44-192.95c-2.8-30.71-7.75-81.85-27.48-144.95
				c-22.1-70.68-37.18-74.62-65.97-149.38c-29.88-77.6-22.73-97-51.4-194.13c-11.78-39.9-31.48-99.28-63.91-170.28
				C2703.4,2211.87,2627.16,2234.44,2550.92,2257z"/>
			
				<linearGradient id="SVGID_00000048492645866006663440000010807378196108592049_" gradientUnits="userSpaceOnUse" x1="1918.9015" y1="2904.8442" x2="3312.7751" y2="1416.1466">
				<stop  offset="0" style="stop-color:#FFC444"/>
				<stop  offset="0.9964" style="stop-color:#F36F56"/>
			</linearGradient>
			<path style="fill:url(#SVGID_00000048492645866006663440000010807378196108592049_);" d="M2227.12,2093.28
				c0.75,28.23,47.16,53.1,84.52,60.73c87.36,17.83,188.65-45.65,236.72-115.87c9.44-13.79,19.93-30.51,22.46-29.21
				c5.72,2.93-46.8,89.22-69.58,187.36c-11.65,50.21-8.6,73.72-30.38,107.15c-4.93,7.57-11.01,15.46-8.88,24.42
				c5.35,22.43,56.66,28.26,92.25,32.3c37.58,4.27,72.62,3.85,107.26,3.35c55.45-0.81,59.82-3.69,72.48,2.52
				c38.57,18.93,35.96,64.28,64.98,70.33c24.37,5.08,49.1-22.14,56.94-30.77c40.75-44.86,38.57-98.94,45.8-153.49
				c16.8-126.83,85.71-265.78,153.11-353.74c20.44-26.68,34.66-40.71,35.55-65.5c2.61-72.78-112.69-153.12-208.69-162.35
				c-26.31-2.53-73.43-1.73-117.6,2.43c-17.65,1.66-36.45,4.11-56.65,7.65c-48.99,8.57-83.1,14.54-117.85,30.44
				c-140.16,64.13-109.57,206.88-261.27,305.58C2276.13,2050.54,2226.33,2063.71,2227.12,2093.28z"/>
			
				<linearGradient id="SVGID_00000150100720934237503210000011167972172567828907_" gradientUnits="userSpaceOnUse" x1="2803.8447" y1="1734.8999" x2="2757.2473" y2="2145.9536">
				<stop  offset="0" style="stop-color:#FFC444"/>
				<stop  offset="0.9964" style="stop-color:#F36F56"/>
			</linearGradient>
			<path style="fill:url(#SVGID_00000150100720934237503210000011167972172567828907_);" d="M2801.39,1595.02
				c0,0,6.02,33.59,19.88,57.51c12.52,21.61,64.3,29.36,75.09,33.12c10.79,3.76-16.27,22.55-45.05,29.36
				c-28.78,6.81-112.95,11.27-129.44,2.21c-16.49-9.06,10.71-11.83,30.51-22.24c19.8-10.41,26.43-52.73,20.29-70.72
				C2766.53,1606.26,2801.39,1595.02,2801.39,1595.02z"/>
			<g>
				
					<linearGradient id="SVGID_00000164489666231264931460000015038265663992827310_" gradientUnits="userSpaceOnUse" x1="4674.7769" y1="2404.6924" x2="4599.9375" y2="2214.6145" gradientTransform="matrix(0.9989 0.0475 -0.0475 0.9989 -1725.9976 -907.3022)">
					<stop  offset="0" style="stop-color:#444B8C"/>
					<stop  offset="0.9964" style="stop-color:#3E4177"/>
				</linearGradient>
				<path style="fill:url(#SVGID_00000164489666231264931460000015038265663992827310_);" d="M2746.68,1585.29
					c-20.88-14.92-26.67-55.29-15.07-64.35c3.32-2.59,6.48-1.4,53.61,17.5c23.4,9.39,34.92,14.39,38.71,24.72
					c2.31,6.31,1.94,14.83-0.62,21.55c-1.32,3.46-3.88,7.76-9.59,15.97c-5.06,7.29-4.72,7.04-6.27,9.16
					c-3.73,5.09-10.92,13.65-24.1,23.58c-0.73-3.71-1.89-8.32-3.83-13.35c-0.75-1.93-3.76-9.5-8.53-15.86
					C2762.78,1593.26,2753.46,1590.14,2746.68,1585.29z"/>
				
					<linearGradient id="SVGID_00000145779852767548157400000014294623374562266525_" gradientUnits="userSpaceOnUse" x1="2774.8245" y1="1573.6321" x2="2811.4363" y2="1876.5131">
					<stop  offset="0" style="stop-color:#FFC444"/>
					<stop  offset="0.9964" style="stop-color:#F36F56"/>
				</linearGradient>
				<path style="fill:url(#SVGID_00000145779852767548157400000014294623374562266525_);" d="M2800.2,1623.68
					c0,0-13.66,20.35-38.97,17.59c-22.66-2.47-23.76-53.58-8.77-63.76c5-3.4,14.76-4.47,22.55-1.91c4.6,1.51,6.09,3.52,13.66,5.83
					c6.98,2.14,9.01,1.44,11.06,3.33c2.57,2.36,4.28,7.94-0.82,22.65c4.53-4.2,9.81-5.66,13.42-3.76c0.58,0.3,2.09,1.43,2.9,3.08
					C2818.14,1612.69,2812.5,1619.89,2800.2,1623.68z"/>
			</g>
			
				<linearGradient id="SVGID_00000140719545803887516570000017450553532206369458_" gradientUnits="userSpaceOnUse" x1="2240.8484" y1="2050.8718" x2="2594.1021" y2="2050.8718">
				<stop  offset="0" style="stop-color:#FFC444"/>
				<stop  offset="0.9964" style="stop-color:#F36F56"/>
			</linearGradient>
			<path style="opacity:0.3;fill:url(#SVGID_00000140719545803887516570000017450553532206369458_);" d="M2349.67,2088.94
				c63.34-14.27,88.58-13.81,119.91-39.04c52.15-42.02,59.98-105.97,90.29-105.19c14.32,0.37,25.96,15,34.24,29.32
				c-7.63,11.95-15.26,23.9-22.89,35.85c-0.03-0.45-0.13-0.81-0.39-0.94c-2.53-1.29-13.02,15.42-22.46,29.21
				c-48.07,70.22-149.36,133.7-236.72,115.87c-25.05-5.11-54.1-18-70.8-34.43C2283.97,2105.02,2320.79,2095.44,2349.67,2088.94z"/>
			
				<linearGradient id="SVGID_00000123404571548315799760000009517689320080354440_" gradientUnits="userSpaceOnUse" x1="2208.3167" y1="2143.55" x2="2080.3083" y2="2403.123">
				<stop  offset="0" style="stop-color:#FFC444"/>
				<stop  offset="0.9964" style="stop-color:#F36F56"/>
			</linearGradient>
			<path style="fill:url(#SVGID_00000123404571548315799760000009517689320080354440_);" d="M2246.5,2159.55
				c0,0-35.74-3.55-57.04-12.67c-21.3-9.11-35.06,3.97-33.1,13.03c1.96,9.06,37,21.67,50.99,22.12
				C2221.36,2182.49,2246.5,2159.55,2246.5,2159.55z"/>
			
				<linearGradient id="SVGID_00000177482097925044589510000006645902710260285105_" gradientUnits="userSpaceOnUse" x1="2076.7212" y1="3052.6125" x2="3470.5938" y2="1563.9161">
				<stop  offset="0" style="stop-color:#FFC444"/>
				<stop  offset="0.9964" style="stop-color:#F36F56"/>
			</linearGradient>
			<path style="fill:url(#SVGID_00000177482097925044589510000006645902710260285105_);" d="M3016.29,2332.46
				c38.38,3.42,124.76,4.99,185.85-51.54c101.71-94.09,51.25-273.2,15.85-350.22c-40.59-88.31-105.2-137.75-144.46-167.79
				c-48.71-37.27-78.44-60.02-114.21-54.93c-92.51,13.17-156.57,202.77-105.79,257.05c16.62,17.77,33.09,7.71,81.2,23.03
				c15.67,4.99,132.61,42.24,152.97,128.37c14.25,60.28-22.03,130.87-86.61,178.28C3006.16,2307.29,3011.22,2319.88,3016.29,2332.46
				z"/>
			
				<linearGradient id="SVGID_00000126300832049240816880000017252603992811463311_" gradientUnits="userSpaceOnUse" x1="2465.4573" y1="2162.917" x2="3190.2041" y2="2162.917">
				<stop  offset="0" style="stop-color:#FFC444"/>
				<stop  offset="0.9964" style="stop-color:#F36F56"/>
			</linearGradient>
			<path style="opacity:0.3;fill:url(#SVGID_00000126300832049240816880000017252603992811463311_);" d="M2586.16,2301.23
				c43.44-27.46,49.87-55.28,98.52-74.08c63.2-24.43,93.57,6.6,124.9-18.45c37.29-29.81,4.28-81.75,32.18-171.89
				c4.74-15.3,40.71-131.5,123.25-146.3c38.49-6.9,89.33,7.84,108.92,40.46c15.33,25.53,1.05,44.56,19.69,72.74
				c18.63,28.16,40.91,21.27,64.65,44.76c37.7,37.3,43.48,115.95,9.44,160.42c-15.88,20.75-36.51,28.95-75.33,44.39
				c-23.71,9.43-45.76,15.29-64.74,19.02c47.54-45.63,72.21-104.47,60.06-155.87c-12.69-53.69-62.91-88.38-102.73-108.11
				c-39.85,75-72.42,161.9-83.27,243.78c-7.23,54.55-5.05,108.63-45.8,153.49c-7.84,8.63-32.57,35.85-56.94,30.77
				c-29.03-6.05-26.41-51.4-64.98-70.33c-12.66-6.21-17.03-3.33-72.48-2.52c-34.64,0.51-69.68,0.92-107.26-3.35
				c-31.65-3.59-75.65-8.63-88.79-25.47C2522.6,2333.13,2560.73,2317.29,2586.16,2301.23z"/>
			<g>
				
					<linearGradient id="SVGID_00000149371628243715403880000004661077898272070826_" gradientUnits="userSpaceOnUse" x1="2097.9819" y1="2216.1436" x2="2997.6506" y2="2216.1436">
					<stop  offset="0" style="stop-color:#444B8C"/>
					<stop  offset="0.9964" style="stop-color:#26264F"/>
				</linearGradient>
				<path style="fill:url(#SVGID_00000149371628243715403880000004661077898272070826_);" d="M2991.09,2362.62l4.47-13.15
					c7.13-20.97-4.59-43.33-26.16-49.9l-845.65-257.6l-25.77,87.34l841.38,259.15C2960.82,2395.07,2983.99,2383.52,2991.09,2362.62z
					"/>
				
					<linearGradient id="SVGID_00000169534038360857964990000010323452488908164534_" gradientUnits="userSpaceOnUse" x1="1268.2413" y1="1932.1586" x2="2196.533" y2="1932.1586">
					<stop  offset="0" style="stop-color:#444B8C"/>
					<stop  offset="0.9964" style="stop-color:#26264F"/>
				</linearGradient>
				<path style="fill:url(#SVGID_00000169534038360857964990000010323452488908164534_);" d="M1283.41,1805.34
					c64.66-255.44,318.02-409.38,568.59-337.23c255.17,73.47,401.26,349.94,323.73,610.56c-75.71,254.5-335.33,391.79-577.6,313.27
					C1360.05,2314.79,1220.23,2054.97,1283.41,1805.34z M2102.13,2056.13c64.08-218.11-58.18-449.12-271.26-511.11
					c-209.86-61.05-423.07,67.09-478.09,281.57c-53.96,210.36,63.88,429.62,264.91,494.21
					C1821.69,2386.35,2039.32,2269.94,2102.13,2056.13z"/>
				<path class="st36" d="M2123.75,2041.97l107.82,32.85c7.4,34.39,21.78,54.09,36.26,66.09c54.46,45.15,127.19-4.09,228.65,48.85
					c50.91,26.57,41.24,43.47,88.96,62.01c78.9,30.64,115.01-11.8,184.84,16.09c70.63,28.21,77.59,89.18,117.64,87
					c17.13-0.94,39.19-13.4,63.79-60.66l17.69,5.39c21.57,6.57,33.29,28.93,26.16,49.9l-4.47,13.15
					c-7.11,20.9-30.27,32.45-51.73,25.84l-841.38-259.15L2123.75,2041.97z"/>
				
					<linearGradient id="SVGID_00000114791098998740374950000014983126885075634567_" gradientUnits="userSpaceOnUse" x1="-6857.251" y1="3539.7507" x2="-7324.6611" y2="3016.4111" gradientTransform="matrix(-0.8705 0.4922 0.4922 0.8705 -6104.4209 2747.6741)">
					<stop  offset="0" style="stop-color:#444B8C"/>
					<stop  offset="0.9964" style="stop-color:#26264F"/>
				</linearGradient>
				<path style="fill:url(#SVGID_00000114791098998740374950000014983126885075634567_);" d="M1267.03,1827.25
					c64.66-255.44,318.02-409.38,568.59-337.23c255.17,73.47,401.26,349.94,323.73,610.56c-75.71,254.5-335.33,391.8-577.6,313.27
					C1343.67,2336.69,1203.85,2076.88,1267.03,1827.25z M2085.75,2078.04c64.07-218.11-58.18-449.12-271.26-511.11
					c-209.86-61.05-423.07,67.09-478.09,281.57c-53.96,210.36,63.88,429.62,264.91,494.21
					C1805.31,2408.26,2022.94,2291.85,2085.75,2078.04z"/>
				
					<linearGradient id="SVGID_00000160170018630207645940000006497340788132403090_" gradientUnits="userSpaceOnUse" x1="-7544.3481" y1="2775.6448" x2="-6910.4243" y2="3473.4939" gradientTransform="matrix(-0.8705 0.4922 0.4922 0.8705 -6104.4209 2747.6741)">
					<stop  offset="0" style="stop-color:#444B8C"/>
					<stop  offset="0.9964" style="stop-color:#26264F"/>
				</linearGradient>
				<path style="fill:url(#SVGID_00000160170018630207645940000006497340788132403090_);" d="M1291.52,1834.75
					c61.28-240.95,300.46-385.71,536.61-317.47c240.23,69.42,377.87,329.76,305.15,575.32
					c-71.11,240.11-315.87,370.07-544.63,296.15C1363.63,2316.04,1231.56,2070.52,1291.52,1834.75z M2085.75,2078.04
					c64.07-218.11-58.18-449.12-271.26-511.11c-209.86-61.05-423.07,67.09-478.09,281.57c-53.96,210.36,63.88,429.62,264.91,494.21
					C1805.31,2408.26,2022.94,2291.85,2085.75,2078.04z"/>
			</g>
			
				<linearGradient id="SVGID_00000008150056047694598190000000283076983355788222_" gradientUnits="userSpaceOnUse" x1="-5543.1636" y1="604.37" x2="-5525.5771" y2="504.826" gradientTransform="matrix(-0.8553 -0.5182 -0.5182 0.8553 -1479.6936 -1003.974)">
				<stop  offset="0" style="stop-color:#FFC444"/>
				<stop  offset="0.9964" style="stop-color:#F36F56"/>
			</linearGradient>
			<path style="fill:url(#SVGID_00000008150056047694598190000000283076983355788222_);" d="M3013.03,2324.36l-8.55-21.24
				c0,0-13.95,0.85-25.4-7.36c-6.24-4.47-17.31-5.81-20.53-4.91c-3.22,0.89-15.37,0.36-1.52,6.97c13.85,6.61,13.74,11.52,7.97,16.94
				c-5.77,5.42-27.74,17.09-35.65,17.65c-7.91,0.56,6.39,12.79,14.36,14.35c7.98,1.56,21.05,3.54,37.23-5.99
				C2986.85,2337.3,3013.03,2324.36,3013.03,2324.36z"/>
		</g>
		<g>
			
				<linearGradient id="SVGID_00000071537866630976998720000001317538282794082744_" gradientUnits="userSpaceOnUse" x1="3101.856" y1="393.5084" x2="2877.0676" y2="609.5673">
				<stop  offset="0" style="stop-color:#FFC444"/>
				<stop  offset="0.9964" style="stop-color:#F36F56"/>
			</linearGradient>
			<path style="fill:url(#SVGID_00000071537866630976998720000001317538282794082744_);" d="M2653.33,1403.78
				c-19.83,0.57-39.17-4.42-55.92-14.46c-51.04-30.6-126.46-81.13-194.32-147.27c-86.1-83.93-135.57-169.25-146.4-253.04l-0.17-1.31
				l-2.1-357.49c0-70.65,46.08-128,132.6-165.69c71.48-31.13,166.22-46.56,266.31-43.66c98.92,2.86,190.46,23.27,258.21,57.28
				c80.54,40.43,122.8,97.24,122.8,164.61l-1.92,341.58l-0.15,1.26c-9.89,80.23-55.41,163.16-135.86,247.02
				c-64.53,67.26-137.44,120.56-187.52,153.59C2692.33,1397.12,2673.12,1403.21,2653.33,1403.78z"/>
			
				<linearGradient id="SVGID_00000039845142777751673040000014239179466224109200_" gradientUnits="userSpaceOnUse" x1="2433.7488" y1="442.7404" x2="3197.8586" y2="1692.4924">
				<stop  offset="0" style="stop-color:#FFC444"/>
				<stop  offset="0.9964" style="stop-color:#F36F56"/>
			</linearGradient>
			<path style="fill:url(#SVGID_00000039845142777751673040000014239179466224109200_);" d="M2672.97,1403.78
				c-19.57,0.57-38.65-4.42-55.19-14.46c-50.37-30.6-124.79-81.13-191.75-147.27c-84.96-83.93-133.78-169.25-144.46-253.04
				l-0.17-1.31l-2.07-357.49c0-70.65,45.47-128,130.85-165.69c70.54-31.13,164.03-46.56,262.79-43.66
				c97.62,2.86,187.94,23.27,254.8,57.28c79.48,40.43,121.17,97.24,121.17,164.61l-1.89,341.58l-0.15,1.26
				c-9.76,80.23-54.68,163.16-134.06,247.02c-63.67,67.26-135.63,120.56-185.04,153.59
				C2711.44,1397.12,2692.49,1403.21,2672.97,1403.78z"/>
			
				<linearGradient id="SVGID_00000008846829107597030590000012140292863915806885_" gradientUnits="userSpaceOnUse" x1="2838.9265" y1="1154.2994" x2="2218.3584" y2="-93.5351">
				<stop  offset="0" style="stop-color:#FFC444"/>
				<stop  offset="0.9964" style="stop-color:#F36F56"/>
			</linearGradient>
			<path style="fill:url(#SVGID_00000008846829107597030590000012140292863915806885_);" d="M2302.93,630.46l2.09,355.68
				c23.41,181.48,236.69,328.41,329.58,384.23c26.61,15.99,60.63,15.04,87.05-2.34c90.95-59.85,292.55-210.52,314.09-385
				l1.91-340.64C3037.65,389.67,2302.93,366.56,2302.93,630.46z"/>
			
				<linearGradient id="SVGID_00000149361784406780150350000011604841356184048028_" gradientUnits="userSpaceOnUse" x1="2373.356" y1="912.2216" x2="2972.5474" y2="912.2216">
				<stop  offset="0" style="stop-color:#311944"/>
				<stop  offset="1" style="stop-color:#893976"/>
			</linearGradient>
			<path style="fill:url(#SVGID_00000149361784406780150350000011604841356184048028_);" d="M2678.24,1315.56
				c-1.7,0.04-4.28-0.24-6.88-1.82c-38.25-23.16-112.39-71.67-176.89-135.03c-69.67-68.44-109.85-134.97-119.07-197.46l-2.04-349.79
				c0.08-33.56,26.65-62.29,78.73-85.27c58.14-25.66,140.7-39.12,226.15-37.09c84.6,2.01,164.75,19.04,220.28,46.59
				c49.12,24.37,73.95,53.11,74.03,85.51l-1.9,337.68c-8.6,60.47-46.31,125.66-112.53,194.19c-62.26,64.43-134.99,115.51-173,140.35
				C2682.51,1315.11,2679.94,1315.52,2678.24,1315.56z"/>
			
				<linearGradient id="SVGID_00000072995319694467267840000004845942504058624678_" gradientUnits="userSpaceOnUse" x1="2769.1863" y1="1370.9531" x2="2596.1843" y2="428.0887">
				<stop  offset="0" style="stop-color:#FF9085"/>
				<stop  offset="1" style="stop-color:#FB6FBB"/>
			</linearGradient>
			<path style="fill:url(#SVGID_00000072995319694467267840000004845942504058624678_);" d="M2669.51,1291.65
				c-38.63-23.79-107.31-69.73-167.24-128.7c-65.47-64.44-103.36-126.27-112.27-183.48l-2.03-347.76
				c0.06-24,22.12-46.01,65.39-65.17c55.07-24.39,133.98-37.24,216.14-35.39c81.37,1.83,158.06,17.9,210.77,43.98
				c40.95,20.26,61.67,42.36,61.73,65.77l-1.9,336.44c-8.36,55.51-44.09,116.22-106.59,180.78
				C2775.49,1218.05,2707.96,1266.25,2669.51,1291.65z"/>
			<g>
				<path class="st2" d="M2807.71,836.33l-260.1,2.31c-19.99,0.18-36.28,15.77-36.28,34.8v166.65c0,18.93,16.23,33.6,36.15,32.78
					l259.18-10.61c18.43-0.75,33.39-16.02,33.48-34.1l0.82-159.2C2841.06,850.78,2826.21,836.17,2807.71,836.33z"/>
				<path class="st2" d="M2804.06,819.8c-7.81,0.05-14.13-6.15-14.09-13.86l0.16-36.3c0.16-36.46-29.98-66.45-67.55-66.83
					l-84.9-0.84c-38.88-0.39-70.84,29.93-70.88,67.54l-0.03,37.45c-0.01,7.95-6.78,14.44-15.14,14.5
					c-8.38,0.05-15.19-6.37-15.18-14.36l0.01-37.6c0.02-53.76,45.8-96.92,101.27-96.15l84.93,1.18
					c53.36,0.74,95.98,43.45,95.73,95.13l-0.17,36.16C2818.19,813.49,2811.85,819.75,2804.06,819.8z"/>
				
					<linearGradient id="SVGID_00000160881711710361739750000009772526502017803169_" gradientUnits="userSpaceOnUse" x1="2645.969" y1="962.8243" x2="2713.2542" y2="962.8243">
					<stop  offset="0" style="stop-color:#311944"/>
					<stop  offset="1" style="stop-color:#893976"/>
				</linearGradient>
				<path style="fill:url(#SVGID_00000160881711710361739750000009772526502017803169_);" d="M2713.25,931.89
					c0.06-18.41-15.74-32.95-35.03-31.73c-17.08,1.08-31.24,14.87-32.2,31.42c-0.74,12.84,6.2,23.96,16.77,29.61
					c4.49,2.4,6.72,7.43,5.83,12.4l-7.52,42.1c-0.96,5.36,3.29,10.07,8.89,9.88l19.03-0.67c5.56-0.19,9.79-5.18,8.88-10.45
					l-7.27-41.7c-0.87-4.98,1.7-9.92,6.21-12.63C2706.64,954.22,2713.22,943.72,2713.25,931.89z"/>
			</g>
		</g>
		<g>
			
				<linearGradient id="SVGID_00000130606572133578996950000008776248882867157425_" gradientUnits="userSpaceOnUse" x1="678.0629" y1="2852.6284" x2="729.799" y2="2852.6284">
				<stop  offset="0" style="stop-color:#444B8C"/>
				<stop  offset="0.9964" style="stop-color:#26264F"/>
			</linearGradient>
			<path style="fill:url(#SVGID_00000130606572133578996950000008776248882867157425_);" d="M704.92,2819.24
				c0,0-35.46,20.69-24.88,45.06c6.36,14.65,21.88,19.79,33.25,21.56c7.14,1.11,13.74-4.06,14.47-11.25l2.05-20.15L704.92,2819.24z"
				/>
			<g>
				
					<linearGradient id="SVGID_00000139989163550443736710000002240475135117911709_" gradientUnits="userSpaceOnUse" x1="1411.7502" y1="2528.8325" x2="1173.7227" y2="2667.0044">
					<stop  offset="0" style="stop-color:#FCB148"/>
					<stop  offset="0.0521" style="stop-color:#FDBA46"/>
					<stop  offset="0.1424" style="stop-color:#FFC244"/>
					<stop  offset="0.3183" style="stop-color:#FFC444"/>
					<stop  offset="0.4849" style="stop-color:#FDB946"/>
					<stop  offset="0.7754" style="stop-color:#F99C4D"/>
					<stop  offset="0.8658" style="stop-color:#F8924F"/>
					<stop  offset="1" style="stop-color:#F8924F"/>
				</linearGradient>
				<path style="fill:url(#SVGID_00000139989163550443736710000002240475135117911709_);" d="M1130.66,2614.97
					c-2.14,19.87,12.27,77.12,32.14,79.25l163.67-21.78l7.75-71.95l-163.71-17.63C1150.64,2580.73,1132.8,2595.1,1130.66,2614.97z"
					/>
				
					<linearGradient id="SVGID_00000009587157354584526790000004610751543642933932_" gradientUnits="userSpaceOnUse" x1="1413.7124" y1="2544.2988" x2="1189.4967" y2="2674.4531">
					<stop  offset="0" style="stop-color:#FCB148"/>
					<stop  offset="0.0521" style="stop-color:#FDBA46"/>
					<stop  offset="0.1424" style="stop-color:#FFC244"/>
					<stop  offset="0.3183" style="stop-color:#FFC444"/>
					<stop  offset="0.4849" style="stop-color:#FDB946"/>
					<stop  offset="0.7754" style="stop-color:#F99C4D"/>
					<stop  offset="0.8658" style="stop-color:#F8924F"/>
					<stop  offset="1" style="stop-color:#F8924F"/>
				</linearGradient>
				<path style="fill:url(#SVGID_00000009587157354584526790000004610751543642933932_);" d="M1446.11,2478.05
					c-15.53-12.57-38.31-10.18-50.89,5.35l-103.61,127.97l56.24,45.53l103.61-127.97
					C1464.04,2513.41,1461.64,2490.63,1446.11,2478.05z"/>
				
					<linearGradient id="SVGID_00000065068487894809800970000004808463166321096122_" gradientUnits="userSpaceOnUse" x1="-1429.251" y1="928.1342" x2="-1546.5018" y2="1076.2406" gradientTransform="matrix(0.7131 -0.7011 0.7011 0.7131 1678.8242 902.4711)">
					<stop  offset="0" style="stop-color:#444B8C"/>
					<stop  offset="0.9964" style="stop-color:#26264F"/>
				</linearGradient>
				<circle style="fill:url(#SVGID_00000065068487894809800970000004808463166321096122_);" cx="1317.75" cy="2635.17" r="52.5"/>
			</g>
			
				<linearGradient id="SVGID_00000127031890691683806410000012080113771360664736_" gradientUnits="userSpaceOnUse" x1="1162.7969" y1="2350.124" x2="1325.0979" y2="2350.124">
				<stop  offset="0" style="stop-color:#FFC444"/>
				<stop  offset="0.9964" style="stop-color:#F36F56"/>
			</linearGradient>
			
				<ellipse style="fill:url(#SVGID_00000127031890691683806410000012080113771360664736_);" cx="1243.95" cy="2350.12" rx="81.15" ry="114.04"/>
			
				<linearGradient id="SVGID_00000181779005260740401540000000077286140441590153_" gradientUnits="userSpaceOnUse" x1="559.6213" y1="2291.2271" x2="1279.4919" y2="2291.2271">
				<stop  offset="0" style="stop-color:#FCB148"/>
				<stop  offset="0.0521" style="stop-color:#FDBA46"/>
				<stop  offset="0.1424" style="stop-color:#FFC244"/>
				<stop  offset="0.3183" style="stop-color:#FFC444"/>
				<stop  offset="0.4849" style="stop-color:#FDB946"/>
				<stop  offset="0.7754" style="stop-color:#F99C4D"/>
				<stop  offset="0.8658" style="stop-color:#F8924F"/>
				<stop  offset="1" style="stop-color:#F8924F"/>
			</linearGradient>
			<path style="fill:url(#SVGID_00000181779005260740401540000000077286140441590153_);" d="M995.92,2073.79H843.19
				c-156.61,0-283.57,126.96-283.57,283.57v0c0,83.57,67.75,151.31,151.31,151.31h417.24c83.57,0,151.31-67.75,151.31-151.31v0
				C1279.49,2200.74,1152.53,2073.79,995.92,2073.79z"/>
			
				<linearGradient id="SVGID_00000101790745308372849360000010793288281619402393_" gradientUnits="userSpaceOnUse" x1="1175.9769" y1="2404.6797" x2="705.671" y2="2932.9534">
				<stop  offset="0" style="stop-color:#FCB148"/>
				<stop  offset="0.0521" style="stop-color:#FDBA46"/>
				<stop  offset="0.1424" style="stop-color:#FFC244"/>
				<stop  offset="0.3183" style="stop-color:#FFC444"/>
				<stop  offset="0.4849" style="stop-color:#FDB946"/>
				<stop  offset="0.7754" style="stop-color:#F99C4D"/>
				<stop  offset="0.8658" style="stop-color:#F8924F"/>
				<stop  offset="1" style="stop-color:#F8924F"/>
			</linearGradient>
			<path style="fill:url(#SVGID_00000101790745308372849360000010793288281619402393_);" d="M984.7,2904.81H858.1
				c-129.81,0-235.03-105.23-235.03-235.04v0c0-69.27,56.15-125.42,125.42-125.42h345.83c69.27,0,125.42,56.15,125.42,125.42v0
				C1219.73,2799.58,1114.5,2904.81,984.7,2904.81z"/>
			<g>
				
					<linearGradient id="SVGID_00000111896139464907987290000003870147695737406103_" gradientUnits="userSpaceOnUse" x1="772.6069" y1="2352.7429" x2="1197.8669" y2="2352.7429">
					<stop  offset="0" style="stop-color:#444B8C"/>
					<stop  offset="0.9964" style="stop-color:#26264F"/>
				</linearGradient>
				<path style="fill:url(#SVGID_00000111896139464907987290000003870147695737406103_);" d="M1134.56,2447.5H844.23
					c-39.35,0-71.63-30.16-71.63-67.36v-57.05c0-37.2,32.28-66.33,71.63-65.08l290.33,9.26c35.14,1.12,63.3,30.04,63.3,64.61v53.01
					C1197.87,2419.48,1169.7,2447.5,1134.56,2447.5z"/>
				<g>
					<g>
						<path class="st2" d="M937.25,2348.59c0,24.84-21.15,44.72-47.45,44.39c-26.54-0.34-48.23-21.08-48.23-46.33
							s21.69-45.11,48.23-44.37C916.1,2303.01,937.25,2323.75,937.25,2348.59z"/>
						<path class="st2" d="M1133.46,2352.58c0,24.01-19.75,43.23-44.31,42.92c-24.77-0.31-45.01-20.34-45.01-44.73
							s20.24-43.6,45.01-42.9C1113.7,2308.55,1133.46,2328.57,1133.46,2352.58z"/>
					</g>
				</g>
			</g>
			<path class="st54" d="M1024.92,2468.89c-43.18-50.73-23.99-91.31-80.44-160.06c-77.67-94.6-168.28-83.89-189.04-148.05
				c-5.75-17.78-6.41-42.18,9.01-75.91c-118.3,34.12-204.83,143.19-204.83,272.48v0c0,83.57,67.74,151.31,151.31,151.31h363.62
				C1052.78,2496.8,1036.86,2482.93,1024.92,2468.89z"/>
			
				<linearGradient id="SVGID_00000121976200309173965550000002485339851239270043_" gradientUnits="userSpaceOnUse" x1="519.2782" y1="2349.3306" x2="681.579" y2="2349.3306">
				<stop  offset="0" style="stop-color:#FFC444"/>
				<stop  offset="0.9964" style="stop-color:#F36F56"/>
			</linearGradient>
			
				<ellipse style="fill:url(#SVGID_00000121976200309173965550000002485339851239270043_);" cx="600.43" cy="2349.33" rx="81.15" ry="114.04"/>
			
				<linearGradient id="SVGID_00000168815321740357661450000005063749728744154556_" gradientUnits="userSpaceOnUse" x1="500.7474" y1="2349.3306" x2="571.7192" y2="2349.3306">
				<stop  offset="0" style="stop-color:#FFC444"/>
				<stop  offset="0.9964" style="stop-color:#F36F56"/>
			</linearGradient>
			
				<ellipse style="fill:url(#SVGID_00000168815321740357661450000005063749728744154556_);" cx="536.23" cy="2349.33" rx="35.49" ry="49.87"/>
			
				<linearGradient id="SVGID_00000038379547205388266870000016109670023441389992_" gradientUnits="userSpaceOnUse" x1="623.0653" y1="2724.5825" x2="1020.4722" y2="2724.5825">
				<stop  offset="0" style="stop-color:#FCB148"/>
				<stop  offset="0.0521" style="stop-color:#FDBA46"/>
				<stop  offset="0.1424" style="stop-color:#FFC244"/>
				<stop  offset="0.3183" style="stop-color:#FFC444"/>
				<stop  offset="0.4849" style="stop-color:#FDB946"/>
				<stop  offset="0.7754" style="stop-color:#F99C4D"/>
				<stop  offset="0.8658" style="stop-color:#F8924F"/>
				<stop  offset="1" style="stop-color:#F8924F"/>
			</linearGradient>
			<path style="opacity:0.4;fill:url(#SVGID_00000038379547205388266870000016109670023441389992_);" d="M1015.87,2775.42
				c-17.37-81.57-209.49-79.6-214.71-132.92c-4.03-41.1,106.27-81.79,120.14-86.91c11.85-4.37,23.62-8.07,35.27-11.24H748.48
				c-69.27,0-125.42,56.15-125.42,125.42v0c0,129.81,105.23,235.04,235.03,235.04h126.6c12.16,0,24.11-0.92,35.78-2.71
				c-11.02-13.66-18.2-28.59-19.94-44.89C996.68,2821.08,1022.6,2807.02,1015.87,2775.42z"/>
			
				<linearGradient id="SVGID_00000161594883496559866010000008910479545762471553_" gradientUnits="userSpaceOnUse" x1="835.0523" y1="3243.5205" x2="892.5441" y2="2798.7131">
				<stop  offset="0" style="stop-color:#FCB148"/>
				<stop  offset="0.0521" style="stop-color:#FDBA46"/>
				<stop  offset="0.1424" style="stop-color:#FFC244"/>
				<stop  offset="0.3183" style="stop-color:#FFC444"/>
				<stop  offset="0.3975" style="stop-color:#FEC045"/>
				<stop  offset="0.7095" style="stop-color:#FAA34B"/>
				<stop  offset="0.8658" style="stop-color:#F8924F"/>
				<stop  offset="1" style="stop-color:#F8924F"/>
			</linearGradient>
			
				<ellipse style="fill:url(#SVGID_00000161594883496559866010000008910479545762471553_);" cx="924.52" cy="2551.34" rx="199.94" ry="24.21"/>
			
				<linearGradient id="SVGID_00000165236644330568053900000000707472851483229832_" gradientUnits="userSpaceOnUse" x1="1399.2291" y1="2764.5793" x2="1571.3057" y2="2764.5793" gradientTransform="matrix(0.9798 0.2002 -0.2002 0.9798 -287.0954 -338.9757)">
				<stop  offset="0" style="stop-color:#FCB148"/>
				<stop  offset="0.0521" style="stop-color:#FDBA46"/>
				<stop  offset="0.1424" style="stop-color:#FFC244"/>
				<stop  offset="0.3183" style="stop-color:#FFC444"/>
				<stop  offset="0.4849" style="stop-color:#FDB946"/>
				<stop  offset="0.7754" style="stop-color:#F99C4D"/>
				<stop  offset="0.8658" style="stop-color:#F8924F"/>
				<stop  offset="1" style="stop-color:#F8924F"/>
			</linearGradient>
			<path style="fill:url(#SVGID_00000165236644330568053900000000707472851483229832_);" d="M525.07,2675.97l123.8-75.44
				c17.43-10.62,40.1-6.09,52.1,10.42v0c13.67,18.79,8.09,45.28-12,56.95l-125.59,73L525.07,2675.97z"/>
			
				<linearGradient id="SVGID_00000107584053430625503110000014524434794061844925_" gradientUnits="userSpaceOnUse" x1="3975.6277" y1="2170.6741" x2="4068.532" y2="2170.6741" gradientTransform="matrix(0.7098 0.7044 -0.7044 0.7098 -612.7299 -1564.5017)">
				<stop  offset="0" style="stop-color:#444B8C"/>
				<stop  offset="0.9964" style="stop-color:#26264F"/>
			</linearGradient>
			<path style="fill:url(#SVGID_00000107584053430625503110000014524434794061844925_);" d="M769.51,2773.27l5.27,31.26
				c1.6,9.5-6.21,17.87-15.81,17.08c-20.34-1.67-51.15,0.53-63.24,26.18c-3.18,6.74-3.83,14.42-2.05,21.65l2.9,11.78
				c0,0-56.76-18.7-29.93-82.99c21.06-50.49,71.57-42.46,92.29-36.69C764.44,2763.08,768.56,2767.64,769.51,2773.27z"/>
			
				<linearGradient id="SVGID_00000122690956737444282310000011029311479158047625_" gradientUnits="userSpaceOnUse" x1="5411.812" y1="491.1294" x2="5583.9067" y2="491.1294" gradientTransform="matrix(0.2665 0.9638 -0.9638 0.2665 -392.7988 -2659.0984)">
				<stop  offset="0" style="stop-color:#FCB148"/>
				<stop  offset="0.0521" style="stop-color:#FDBA46"/>
				<stop  offset="0.1424" style="stop-color:#FFC244"/>
				<stop  offset="0.3183" style="stop-color:#FFC444"/>
				<stop  offset="0.4849" style="stop-color:#FDB946"/>
				<stop  offset="0.7754" style="stop-color:#F99C4D"/>
				<stop  offset="0.8658" style="stop-color:#F8924F"/>
				<stop  offset="1" style="stop-color:#F8924F"/>
			</linearGradient>
			<path style="fill:url(#SVGID_00000122690956737444282310000011029311479158047625_);" d="M550.45,2694.79l123.43,76.06
				c17.38,10.71,23.63,32.96,14.37,51.15h0c-10.54,20.71-36.67,27.76-56.19,15.16l-122.06-78.75L550.45,2694.79z"/>
			
				<linearGradient id="SVGID_00000031205980384434000520000009229063426679563147_" gradientUnits="userSpaceOnUse" x1="-2045.3297" y1="441.8728" x2="-2162.5806" y2="589.9791" gradientTransform="matrix(0.7131 -0.7011 0.7011 0.7131 1678.8242 902.4711)">
				<stop  offset="0" style="stop-color:#444B8C"/>
				<stop  offset="0.9964" style="stop-color:#26264F"/>
			</linearGradient>
			<circle style="fill:url(#SVGID_00000031205980384434000520000009229063426679563147_);" cx="537.5" cy="2720.35" r="52.5"/>
			<g>
				
					<linearGradient id="SVGID_00000045587073133651490090000012182261713203099306_" gradientUnits="userSpaceOnUse" x1="1465.0558" y1="2407.8601" x2="1391.2974" y2="2450.8081">
					<stop  offset="0" style="stop-color:#444B8C"/>
					<stop  offset="0.9964" style="stop-color:#26264F"/>
				</linearGradient>
				<path style="fill:url(#SVGID_00000045587073133651490090000012182261713203099306_);" d="M1434.02,2417.17l-35.43-25.5
					c0,0-11.98,36.63-8.01,46.55c3.97,9.92,41.65,43.63,41.65,43.63s-3.11-28.47,5.8-50.6
					C1440.08,2426.18,1438.46,2420.37,1434.02,2417.17z"/>
				
					<linearGradient id="SVGID_00000034065406246698595610000003259799976160377221_" gradientUnits="userSpaceOnUse" x1="1385.9955" y1="2444.4856" x2="1548.1005" y2="2444.4856">
					<stop  offset="0" style="stop-color:#444B8C"/>
					<stop  offset="0.9964" style="stop-color:#26264F"/>
				</linearGradient>
				<path style="fill:url(#SVGID_00000034065406246698595610000003259799976160377221_);" d="M1398.59,2391.68
					c3.26,0,5.58,3.17,4.57,6.27c-5.32,16.32-15.05,59.54,27.08,69.04c39.27,8.86,55.77-12.93,69.49-46.58
					c1.99-4.89,7.71-7.09,12.48-4.82l30.61,14.57c5.11,2.43,6.87,8.86,3.65,13.52c-14.35,20.79-54.63,68.45-111.27,49.09
					c-69.17-23.64-47.12-84.35-41.01-98.23C1394.97,2392.79,1396.69,2391.68,1398.59,2391.68L1398.59,2391.68z"/>
			</g>
		</g>
	</g>
</g>
</svg>
